<svg width="13" height="14" viewBox="0 0 13 14" fill="none" xmlns="http://www.w3.org/2000/svg">
<path d="M9.20801 5.44251C9.10652 5.33922 8.96924 5.28125 8.82614 5.28125C8.68303 5.28125 8.54575 5.33922 8.44426 5.44251L6.49968 7.40567L4.58218 5.44251C4.48069 5.33922 4.3434 5.28125 4.2003 5.28125C4.0572 5.28125 3.91992 5.33922 3.81843 5.44251C3.76766 5.49407 3.72736 5.5554 3.69986 5.62298C3.67236 5.69056 3.6582 5.76304 3.6582 5.83625C3.6582 5.90946 3.67236 5.98195 3.69986 6.04953C3.72736 6.1171 3.76766 6.17844 3.81843 6.22999L6.11509 8.58134C6.16545 8.63332 6.22536 8.67458 6.29136 8.70273C6.35737 8.73089 6.42817 8.74538 6.49968 8.74538C6.57118 8.74538 6.64198 8.73089 6.70799 8.70273C6.774 8.67458 6.83391 8.63332 6.88426 8.58134L9.20801 6.22999C9.25878 6.17844 9.29908 6.1171 9.32658 6.04953C9.35408 5.98195 9.36823 5.90946 9.36823 5.83625C9.36823 5.76304 9.35408 5.69056 9.32658 5.62298C9.29908 5.5554 9.25878 5.49407 9.20801 5.44251Z" fill="#1E2139"/>
</svg>
