<svg width="13" height="13" viewBox="0 0 13 13" fill="none" xmlns="http://www.w3.org/2000/svg">
<path d="M9.79767 3.54191C9.94921 3.6751 10.0377 3.85877 10.0436 4.05256C10.0495 4.24635 9.97233 4.43438 9.82913 4.57532L5.37199 8.96243C5.29975 9.03341 5.21294 9.0902 5.11669 9.12947C5.02045 9.16873 4.91671 9.18966 4.81161 9.19102C4.70651 9.19238 4.60219 9.17415 4.5048 9.1374C4.40741 9.10065 4.31893 9.04613 4.24459 8.97706L1.88493 6.7835C1.74599 6.64489 1.67036 6.46156 1.67395 6.27214C1.67755 6.08271 1.76009 5.90198 1.9042 5.76801C2.04832 5.63404 2.24274 5.55731 2.44651 5.55396C2.65028 5.55062 2.84749 5.62094 2.99659 5.75009L4.78469 7.41135L8.686 3.57116C8.82927 3.43028 9.02686 3.34806 9.23532 3.34258C9.44378 3.33709 9.64606 3.40879 9.79767 3.54191Z" fill="#353961"/>
</svg>
