<svg width="14" height="14" viewBox="0 0 14 14" fill="none" xmlns="http://www.w3.org/2000/svg">
<path d="M10.2214 4.0804C10.3795 4.21938 10.4718 4.41106 10.4779 4.6133C10.4841 4.81553 10.4036 5.01176 10.2542 5.15883L5.60425 9.73711C5.52888 9.81117 5.43832 9.87045 5.33791 9.91142C5.2375 9.95239 5.12927 9.97423 5.01963 9.97565C4.90998 9.97708 4.80115 9.95805 4.69954 9.9197C4.59794 9.88135 4.50563 9.82445 4.42808 9.75237L1.96633 7.46323C1.82138 7.31858 1.74247 7.12727 1.74622 6.92959C1.74997 6.7319 1.83609 6.54329 1.98644 6.40349C2.13678 6.26369 2.33961 6.18361 2.5522 6.18012C2.76479 6.17663 2.97053 6.25001 3.12609 6.38479L4.99155 8.11843L9.06164 4.11092C9.2111 3.9639 9.41724 3.8781 9.63472 3.87238C9.8522 3.86665 10.0632 3.94148 10.2214 4.0804Z" fill="#353961"/>
</svg>
