<svg width="17" height="16" viewBox="0 0 17 16" fill="none" xmlns="http://www.w3.org/2000/svg">
<path d="M9.00461 0C7.95587 0 6.9174 0.206846 5.9485 0.608728C4.97959 1.01061 4.09922 1.59966 3.35765 2.34224C1.85998 3.84195 1.0186 5.876 1.0186 7.99691C1.01162 9.8435 1.65013 11.6343 2.82344 13.059L1.22624 14.6583C1.11543 14.7708 1.04036 14.9136 1.01052 15.0687C0.980668 15.2239 0.997377 15.3844 1.05853 15.53C1.12486 15.6739 1.23239 15.7948 1.36747 15.8774C1.50255 15.96 1.65908 16.0005 1.8172 15.9938H9.00461C11.1226 15.9938 13.1539 15.1513 14.6516 13.6516C16.1492 12.1519 16.9906 10.1178 16.9906 7.99691C16.9906 5.876 16.1492 3.84195 14.6516 2.34224C13.1539 0.842529 11.1226 0 9.00461 0ZM9.00461 14.3944H3.74183L4.48453 13.6507C4.63327 13.5009 4.71676 13.2982 4.71676 13.0869C4.71676 12.8757 4.63327 12.673 4.48453 12.5232C3.43883 11.4772 2.78764 10.1005 2.64191 8.6277C2.49618 7.15487 2.86492 5.67701 3.68531 4.4459C4.5057 3.21479 5.72699 2.30659 7.14109 1.87605C8.55519 1.44551 10.0746 1.51926 11.4405 2.08472C12.8064 2.65019 13.9343 3.6724 14.6319 4.97719C15.3295 6.28198 15.5538 7.78862 15.2665 9.24043C14.9792 10.6922 14.1982 11.9994 13.0563 12.9392C11.9145 13.879 10.4826 14.3933 9.00461 14.3944Z" fill="#777E8C"/>
</svg>
