<svg width="18" height="18" viewBox="0 0 18 18" fill="none" xmlns="http://www.w3.org/2000/svg">
<path d="M9 17L8.71765 16.7475C2.64706 11.4444 1 9.57576 1 6.54545C1 4.0202 2.88235 2 5.23529 2C7.16471 2 8.24706 3.16162 9 4.07071C9.75294 3.16162 10.8353 2 12.7647 2C15.1176 2 17 4.0202 17 6.54545C17 9.57576 15.3529 11.4444 9.28235 16.7475L9 17ZM5.23529 3.0101C3.4 3.0101 1.94118 4.57576 1.94118 6.54545C1.94118 9.12121 3.44706 10.8384 9 15.6869C14.5529 10.8384 16.0588 9.12121 16.0588 6.54545C16.0588 4.57576 14.6 3.0101 12.7647 3.0101C11.1176 3.0101 10.2235 4.07071 9.51765 4.92929L9 5.58586L8.48235 4.92929C7.77647 4.07071 6.88235 3.0101 5.23529 3.0101Z" fill="#1E2139"/>
</svg>
