<svg width="25" height="25" viewBox="0 0 25 25" fill="none" xmlns="http://www.w3.org/2000/svg">
<path d="M22.1244 4.15891C22.1244 4.15891 24.1596 3.37977 23.99 5.27197C23.9334 6.05112 23.4247 8.77812 23.0289 11.7278L21.6722 20.4653C21.6722 20.4653 21.5591 21.7453 20.5415 21.9679C19.5239 22.1905 17.9976 21.1888 17.7149 20.9662C17.4887 20.7992 13.475 18.2948 12.0617 17.0705C11.6659 16.7365 11.2137 16.0687 12.1182 15.2895L18.0541 9.72425C18.7325 9.0564 19.4109 7.49812 16.5842 9.39033L8.66972 14.6774C8.66972 14.6774 7.76521 15.2339 6.06927 14.733L2.39465 13.62C2.39465 13.62 1.03787 12.7852 3.3557 11.9503C9.00894 9.33463 15.9624 6.66328 22.1244 4.15891Z" fill="#848B99"/>
</svg>
