<svg width="16" height="16" viewBox="0 0 16 16" fill="none" xmlns="http://www.w3.org/2000/svg">
<path d="M15.4361 6.46181C15.2113 6.19202 14.9301 5.97484 14.6123 5.8256C14.2944 5.67637 13.9477 5.59871 13.5965 5.59811H9.94946L10.3973 4.4545C10.5836 3.95378 10.6457 3.41534 10.5781 2.88538C10.5106 2.35541 10.3155 1.84974 10.0096 1.41173C9.70367 0.973726 9.29605 0.61646 8.8217 0.370582C8.34735 0.124705 7.82043 -0.0024467 7.28614 3.56607e-05C7.13229 0.00035664 6.9818 0.0450403 6.85271 0.12873C6.72361 0.212419 6.6214 0.331561 6.55832 0.471873L4.27891 5.59811H2.39939C1.76303 5.59811 1.15274 5.85088 0.702764 6.30081C0.252792 6.75074 0 7.36098 0 7.99728V13.5954C0 14.2317 0.252792 14.8419 0.702764 15.2918C1.15274 15.7418 1.76303 15.9945 2.39939 15.9945H12.5808C13.1421 15.9943 13.6856 15.7974 14.1167 15.4379C14.5477 15.0785 14.8391 14.5793 14.9402 14.0272L15.9559 8.42913C16.0187 8.08315 16.0047 7.7276 15.9149 7.38763C15.8251 7.04766 15.6616 6.7316 15.4361 6.46181ZM3.99898 14.3951H2.39939C2.18727 14.3951 1.98384 14.3108 1.83385 14.1608C1.68386 14.0109 1.59959 13.8075 1.59959 13.5954V7.99728C1.59959 7.78518 1.68386 7.58177 1.83385 7.43179C1.98384 7.28181 2.18727 7.19756 2.39939 7.19756H3.99898V14.3951ZM14.3963 8.14123L13.3806 13.7393C13.3465 13.9256 13.2474 14.0938 13.101 14.2139C12.9545 14.3339 12.7702 14.3982 12.5808 14.3951H5.59857V6.56577L7.77401 1.67146C7.99794 1.73674 8.20591 1.84772 8.38478 1.99741C8.56366 2.1471 8.70955 2.33225 8.81327 2.54115C8.91698 2.75006 8.97625 2.9782 8.98735 3.21117C8.99844 3.44414 8.96112 3.67688 8.87773 3.89469L8.45384 5.0383C8.36352 5.28002 8.33302 5.54 8.36496 5.79606C8.3969 6.05212 8.49033 6.29665 8.63726 6.50878C8.78419 6.72092 8.98028 6.89435 9.20877 7.01429C9.43727 7.13423 9.69139 7.1971 9.94946 7.19756H13.5965C13.714 7.19736 13.8301 7.22306 13.9366 7.27282C14.043 7.32258 14.1372 7.39518 14.2124 7.48546C14.2894 7.57448 14.3459 7.67942 14.3777 7.79278C14.4095 7.90614 14.4158 8.02512 14.3963 8.14123Z" fill="#777E8C"/>
</svg>
