<svg width="14" height="14" viewBox="0 0 14 14" fill="none" xmlns="http://www.w3.org/2000/svg">
<path d="M6.9987 1.1665C5.76102 1.1665 4.57404 1.65817 3.69887 2.53334C2.8237 3.40851 2.33203 4.59549 2.33203 5.83317C2.33203 8.98317 6.44453 12.5415 6.61953 12.6932C6.72519 12.7835 6.85966 12.8332 6.9987 12.8332C7.13774 12.8332 7.2722 12.7835 7.37786 12.6932C7.58203 12.5415 11.6654 8.98317 11.6654 5.83317C11.6654 4.59549 11.1737 3.40851 10.2985 2.53334C9.42336 1.65817 8.23637 1.1665 6.9987 1.1665ZM6.9987 11.4623C5.7562 10.2957 3.4987 7.7815 3.4987 5.83317C3.4987 4.90491 3.86745 4.01467 4.52382 3.3583C5.1802 2.70192 6.07044 2.33317 6.9987 2.33317C7.92696 2.33317 8.81719 2.70192 9.47357 3.3583C10.1299 4.01467 10.4987 4.90491 10.4987 5.83317C10.4987 7.7815 8.2412 10.3015 6.9987 11.4623ZM6.9987 3.49984C6.53721 3.49984 6.08608 3.63668 5.70237 3.89307C5.31865 4.14946 5.01958 4.51388 4.84298 4.94024C4.66637 5.3666 4.62017 5.83576 4.7102 6.28838C4.80023 6.741 5.02246 7.15676 5.34878 7.48309C5.6751 7.80941 6.09086 8.03164 6.54349 8.12167C6.99611 8.2117 7.46526 8.16549 7.89163 7.98889C8.31799 7.81228 8.6824 7.51322 8.93879 7.1295C9.19518 6.74579 9.33203 6.29466 9.33203 5.83317C9.33203 5.21433 9.0862 4.62084 8.64861 4.18325C8.21103 3.74567 7.61754 3.49984 6.9987 3.49984ZM6.9987 6.99984C6.76795 6.99984 6.54239 6.93141 6.35053 6.80322C6.15868 6.67502 6.00914 6.49281 5.92084 6.27963C5.83254 6.06645 5.80943 5.83188 5.85445 5.60557C5.89946 5.37925 6.01058 5.17137 6.17374 5.00821C6.3369 4.84505 6.54478 4.73394 6.77109 4.68892C6.9974 4.6439 7.23198 4.66701 7.44516 4.75531C7.65834 4.84361 7.84055 4.99315 7.96875 5.18501C8.09694 5.37686 8.16536 5.60243 8.16536 5.83317C8.16536 6.14259 8.04245 6.43934 7.82366 6.65813C7.60486 6.87692 7.30812 6.99984 6.9987 6.99984Z" fill="#848B99"/>
</svg>
