<svg width="18" height="18" viewBox="0 0 18 18" fill="none" xmlns="http://www.w3.org/2000/svg">
<path d="M14.2698 18H14.1718C2.83943 17.3481 1.23041 7.78269 1.00549 4.86346C0.98737 4.63649 1.01419 4.40817 1.08443 4.19158C1.15467 3.975 1.26693 3.77441 1.41479 3.6013C1.56266 3.42819 1.74321 3.28597 1.94611 3.18279C2.14902 3.07961 2.37027 3.01749 2.59721 3H5.77489C6.0059 2.99978 6.23165 3.06895 6.4229 3.19856C6.61416 3.32816 6.7621 3.51223 6.84757 3.72692L7.72417 5.88462C7.80858 6.09435 7.82952 6.32428 7.78441 6.54582C7.73929 6.76737 7.63011 6.97077 7.47042 7.13077L6.24203 8.37115C6.43391 9.46197 6.9561 10.4675 7.73795 11.2517C8.51981 12.0359 9.52359 12.5609 10.6135 12.7558L11.865 11.5154C12.0273 11.3574 12.2325 11.2507 12.4551 11.2087C12.6776 11.1666 12.9076 11.191 13.1164 11.2788L15.2906 12.15C15.502 12.2382 15.6823 12.3874 15.8087 12.5785C15.935 12.7696 16.0016 12.994 16 13.2231V16.2692C16 16.7283 15.8177 17.1685 15.4932 17.4931C15.1688 17.8177 14.7287 18 14.2698 18ZM2.73563 4.15385C2.58267 4.15385 2.43598 4.21463 2.32783 4.32282C2.21967 4.43102 2.15891 4.57776 2.15891 4.73077V4.77692C2.4242 8.19231 4.1255 16.2692 14.2352 16.8462C14.311 16.8508 14.3869 16.8405 14.4587 16.8158C14.5305 16.791 14.5967 16.7524 14.6535 16.702C14.7102 16.6516 14.7565 16.5905 14.7897 16.5222C14.8228 16.4538 14.8421 16.3797 14.8465 16.3038V13.2231L12.6724 12.3519L11.0172 13.9962L10.7404 13.9615C5.72299 13.3327 5.04247 8.31346 5.04247 8.26154L5.00786 7.98462L6.64572 6.32885L5.78066 4.15385H2.73563Z" fill="#848B99"/>
</svg>
