<svg width="16" height="17" viewBox="0 0 16 17" fill="none" xmlns="http://www.w3.org/2000/svg">
<path d="M14.4742 14.1582L12.0009 11.6464C12.961 10.4209 13.4259 8.8653 13.3001 7.29956C13.1743 5.73381 12.4674 4.27692 11.3246 3.22844C10.1818 2.17997 8.69012 1.61961 7.15619 1.66258C5.62227 1.70555 4.16273 2.34859 3.07767 3.45948C1.99262 4.57037 1.36453 6.06467 1.32256 7.63511C1.28059 9.20555 1.82792 10.7328 2.85201 11.9028C3.8761 13.0727 5.29911 13.7965 6.82845 13.9253C8.35778 14.0541 9.87719 13.5781 11.0742 12.5952L13.5276 15.1069C13.5896 15.1709 13.6633 15.2217 13.7445 15.2563C13.8258 15.291 13.9129 15.3088 14.0009 15.3088C14.0889 15.3088 14.1761 15.291 14.2573 15.2563C14.3385 15.2217 14.4123 15.1709 14.4742 15.1069C14.5944 14.9797 14.6616 14.8096 14.6616 14.6326C14.6616 14.4556 14.5944 14.2855 14.4742 14.1582ZM7.33425 12.5952C6.41127 12.5952 5.50901 12.315 4.74158 11.79C3.97416 11.265 3.37602 10.5188 3.02281 9.64578C2.6696 8.77275 2.57718 7.8121 2.75725 6.8853C2.93731 5.95851 3.38177 5.10719 4.03441 4.439C4.68706 3.77082 5.51858 3.31578 6.42382 3.13143C7.32907 2.94708 8.26738 3.04169 9.1201 3.40331C9.97282 3.76493 10.7017 4.37731 11.2144 5.16301C11.7272 5.94871 12.0009 6.87245 12.0009 7.8174C12.0009 9.08455 11.5092 10.2998 10.6341 11.1958C9.75891 12.0918 8.57192 12.5952 7.33425 12.5952Z" fill="#1E2139"/>
</svg>
