<svg width="35" height="35" viewBox="0 0 35 35" fill="none" xmlns="http://www.w3.org/2000/svg">
<path d="M22.9102 18.5355C24.34 17.4106 25.3835 15.8681 25.8958 14.1225C26.408 12.3769 26.3634 10.515 25.7682 8.79593C25.1731 7.07685 24.0568 5.58603 22.5749 4.53087C21.093 3.47571 19.319 2.90869 17.4998 2.90869C15.6806 2.90869 13.9066 3.47571 12.4247 4.53087C10.9428 5.58603 9.82656 7.07685 9.23137 8.79593C8.63618 10.515 8.5916 12.3769 9.10384 14.1225C9.61608 15.8681 10.6597 17.4106 12.0894 18.5355C9.63951 19.517 7.5019 21.1449 5.90445 23.2458C4.307 25.3466 3.30959 27.8415 3.01856 30.4646C2.9975 30.6561 3.01436 30.8499 3.06818 31.0349C3.12201 31.2199 3.21174 31.3925 3.33227 31.5428C3.57567 31.8464 3.9297 32.0408 4.31648 32.0834C4.70325 32.1259 5.09109 32.0131 5.39466 31.7697C5.69824 31.5263 5.89268 31.1722 5.93523 30.7855C6.25546 27.9347 7.61477 25.3018 9.75346 23.3899C11.8922 21.478 14.6603 20.4211 17.529 20.4211C20.3977 20.4211 23.1658 21.478 25.3045 23.3899C27.4432 25.3018 28.8025 27.9347 29.1227 30.7855C29.1624 31.1438 29.3334 31.4748 29.6027 31.7144C29.872 31.9541 30.2205 32.0856 30.5811 32.0834H30.7415C31.1238 32.0394 31.4732 31.8461 31.7135 31.5456C31.9539 31.2451 32.0658 30.8618 32.0248 30.4792C31.7324 27.8487 30.7296 25.3473 29.124 23.2433C27.5183 21.1392 25.3703 19.5118 22.9102 18.5355ZM17.4998 17.5C16.3461 17.5 15.2183 17.1579 14.259 16.5169C13.2997 15.876 12.552 14.9649 12.1105 13.899C11.669 12.8331 11.5535 11.6602 11.7786 10.5287C12.0036 9.39712 12.5592 8.35772 13.375 7.54192C14.1908 6.72611 15.2302 6.17054 16.3618 5.94546C17.4933 5.72038 18.6662 5.8359 19.7321 6.27741C20.798 6.71892 21.7091 7.46659 22.35 8.42588C22.991 9.38517 23.3331 10.513 23.3331 11.6667C23.3331 13.2138 22.7186 14.6975 21.6246 15.7915C20.5306 16.8855 19.0469 17.5 17.4998 17.5Z" fill="#F2C94C"/>
</svg>
