<svg width="14" height="14" viewBox="0 0 14 14" fill="none" xmlns="http://www.w3.org/2000/svg">
<path d="M11.0983 3.76301C11.2564 3.902 11.3487 4.09368 11.3549 4.29591C11.361 4.49815 11.2806 4.69437 11.1312 4.84145L6.4812 9.41972C6.40584 9.49379 6.31527 9.55306 6.21486 9.59403C6.11445 9.63501 6.00622 9.65685 5.89658 9.65827C5.78694 9.65969 5.6781 9.64067 5.5765 9.60232C5.47489 9.56397 5.38259 9.50707 5.30503 9.43498L2.84328 7.14585C2.69833 7.0012 2.61942 6.80988 2.62317 6.6122C2.62693 6.41452 2.71305 6.22591 2.86339 6.08611C3.01374 5.94631 3.21657 5.86622 3.42915 5.86274C3.64174 5.85925 3.84748 5.93263 4.00304 6.06741L5.8685 7.80105L9.93859 3.79354C10.0881 3.64652 10.2942 3.56072 10.5117 3.55499C10.7292 3.54927 10.9402 3.62409 11.0983 3.76301Z" fill="#41A040"/>
</svg>
