<svg width="16" height="15" viewBox="0 0 16 15" fill="none" xmlns="http://www.w3.org/2000/svg">
<path d="M12.4857 4.23892C12.6788 4.39832 12.7916 4.61815 12.7991 4.85008C12.8066 5.08201 12.7083 5.30705 12.5258 5.47573L6.84569 10.7263C6.75364 10.8113 6.64301 10.8793 6.52035 10.9262C6.39769 10.9732 6.26549 10.9983 6.13156 10.9999C5.99763 11.0015 5.86468 10.9797 5.74056 10.9357C5.61645 10.8918 5.5037 10.8265 5.40896 10.7438L2.40184 8.11853C2.22478 7.95264 2.12839 7.73323 2.13297 7.50652C2.13755 7.27981 2.24275 7.0635 2.4264 6.90317C2.61005 6.74283 2.85782 6.65099 3.1175 6.64699C3.37719 6.64299 3.62851 6.72715 3.81853 6.88172L6.09726 8.86995L11.069 4.27392C11.2516 4.10532 11.5034 4.00691 11.7691 4.00035C12.0347 3.99379 12.2925 4.0796 12.4857 4.23892Z" fill="#41A040"/>
</svg>
