<svg width="14" height="14" viewBox="0 0 14 14" fill="none" xmlns="http://www.w3.org/2000/svg">
<path d="M12.1745 10.0625L10.5937 7.3325C10.9172 6.73838 11.0857 6.07231 11.0837 5.39583C11.0837 4.31287 10.6535 3.27425 9.88772 2.50848C9.12195 1.74271 8.08334 1.3125 7.00037 1.3125C5.9174 1.3125 4.87879 1.74271 4.11302 2.50848C3.34724 3.27425 2.91703 4.31287 2.91703 5.39583C2.91503 6.07231 3.08355 6.73838 3.40703 7.3325L1.8262 10.0625C1.7749 10.1513 1.74795 10.2522 1.74805 10.3547C1.74815 10.4573 1.77531 10.5581 1.82678 10.6468C1.87825 10.7356 1.95222 10.8092 2.04122 10.8602C2.13022 10.9113 2.23111 10.9379 2.3337 10.9375H4.00787L4.85953 12.3725C4.88825 12.4201 4.9236 12.4633 4.96453 12.5008C5.07267 12.6051 5.21684 12.6636 5.36703 12.6642H5.4487C5.53677 12.6521 5.62091 12.6201 5.69472 12.5706C5.76852 12.521 5.83002 12.4553 5.87453 12.3783L7.00037 10.4417L8.1262 12.3958C8.17137 12.4717 8.23316 12.5363 8.30692 12.5848C8.38069 12.6333 8.46449 12.6644 8.55203 12.6758H8.6337C8.78591 12.6767 8.93245 12.6181 9.04203 12.5125C9.08127 12.4771 9.11473 12.4357 9.1412 12.39L9.99287 10.955H11.667C11.7698 10.9554 11.8709 10.9286 11.96 10.8774C12.0491 10.8262 12.1231 10.7524 12.1745 10.6633C12.229 10.5726 12.2578 10.4688 12.2578 10.3629C12.2578 10.2571 12.229 10.1532 12.1745 10.0625ZM5.3612 10.955L4.84203 10.0858C4.79091 9.9996 4.71843 9.92799 4.63158 9.87793C4.54473 9.82786 4.44644 9.80102 4.3462 9.8H3.33703L4.1712 8.35333C4.74562 8.90685 5.4696 9.27998 6.2537 9.42667L5.3612 10.955ZM7.00037 8.3125C6.42351 8.3125 5.8596 8.14144 5.37995 7.82095C4.90031 7.50046 4.52647 7.04494 4.30572 6.51199C4.08496 5.97904 4.0272 5.3926 4.13974 4.82682C4.25228 4.26104 4.53007 3.74134 4.93797 3.33344C5.34588 2.92554 5.86558 2.64775 6.43135 2.53521C6.99713 2.42267 7.58358 2.48043 8.11653 2.70118C8.64948 2.92194 9.105 3.29578 9.42549 3.77542C9.74598 4.25506 9.91704 4.81897 9.91704 5.39583C9.91704 6.16938 9.60974 6.91125 9.06276 7.45823C8.51578 8.00521 7.77392 8.3125 7.00037 8.3125ZM9.65453 9.8C9.55429 9.80102 9.45601 9.82786 9.36915 9.87793C9.2823 9.92799 9.20982 9.9996 9.1587 10.0858L8.63953 10.955L7.75287 9.40917C8.53423 9.25948 9.25552 8.88668 9.82953 8.33583L10.6637 9.7825L9.65453 9.8Z" fill="#848B99"/>
</svg>
