<svg width="666" height="662" viewBox="0 0 666 662" fill="none" xmlns="http://www.w3.org/2000/svg">
<g filter="url(#filter0_d_179_27)">
<path d="M76.3419 566.368L510.326 604.336L612.37 357.904L76.3419 566.368Z" fill="url(#paint0_linear_179_27)" shape-rendering="crispEdges"/>
<path d="M470.343 538.134C455.067 537.67 439.778 538.021 424.479 538.488C409.18 538.954 393.84 539.883 378.549 540.932C363.257 541.981 348.003 543.267 332.703 545.072L309.753 547.78C302.083 548.914 294.428 549.874 286.796 551.244L470.343 538.134Z" fill="url(#paint1_linear_179_27)" style="mix-blend-mode:screen" shape-rendering="crispEdges"/>
<path d="M539.791 533.147L76.3419 566.368L510.326 604.336L539.791 533.147Z" fill="url(#paint2_linear_179_27)" style="mix-blend-mode:screen" shape-rendering="crispEdges"/>
<path d="M280.228 584.38L76.2112 566.531L385.715 69.6149L589.731 87.4641L280.228 584.38Z" fill="url(#paint3_linear_179_27)" shape-rendering="crispEdges"/>
<path d="M198.285 452.617C217.488 432.813 237.104 413.628 256.762 394.621C276.421 375.614 296.307 357.325 316.091 338.213C335.875 319.101 355.953 301.295 376.113 283.205L406.428 256.222C416.63 247.45 426.736 238.437 437.101 229.795C427.492 239.784 417.918 249.368 408.034 259.158L378.619 287.849C359.018 306.861 339.131 325.149 319.295 344.199C299.458 363.249 279.433 381.117 259.273 399.207C239.113 417.297 218.726 435.309 198.285 452.617Z" fill="url(#paint4_linear_179_27)" style="mix-blend-mode:screen" shape-rendering="crispEdges"/>
<path d="M280.243 584.207L280.359 584.217L425.292 430.674L308.395 476.107L280.243 584.207Z" fill="url(#paint5_linear_179_27)" style="mix-blend-mode:multiply" shape-rendering="crispEdges"/>
<path d="M280.228 584.38L76.2112 566.531L589.731 87.4641L280.228 584.38Z" fill="url(#paint6_linear_179_27)" shape-rendering="crispEdges"/>
<path d="M589.731 87.4641L385.715 69.6149L264.307 264.457L589.731 87.4641Z" fill="url(#paint7_linear_179_27)" style="mix-blend-mode:multiply" shape-rendering="crispEdges"/>
<path d="M589.731 87.4641L155.748 49.4954L53.6458 295.922L589.731 87.4641Z" fill="url(#paint8_linear_179_27)" shape-rendering="crispEdges"/>
<path d="M126.225 120.679L589.731 87.4641L155.748 49.4954L126.225 120.679Z" fill="url(#paint9_linear_179_27)" style="mix-blend-mode:screen" shape-rendering="crispEdges"/>
<path d="M195.72 115.814C210.996 116.277 226.285 115.926 241.589 115.402C256.893 114.878 272.228 114.007 287.515 113.015C302.801 112.024 318.066 110.623 333.365 108.818L356.31 106.167C363.985 104.976 371.577 104.068 379.298 102.356L195.72 115.814Z" fill="url(#paint10_linear_179_27)" style="mix-blend-mode:screen" shape-rendering="crispEdges"/>
</g>
<defs>
<filter id="filter0_d_179_27" x="0.645763" y="0.495438" width="664.724" height="660.841" filterUnits="userSpaceOnUse" color-interpolation-filters="sRGB">
<feFlood flood-opacity="0" result="BackgroundImageFix"/>
<feColorMatrix in="SourceAlpha" type="matrix" values="0 0 0 0 0 0 0 0 0 0 0 0 0 0 0 0 0 0 127 0" result="hardAlpha"/>
<feOffset dy="4"/>
<feGaussianBlur stdDeviation="26.5"/>
<feComposite in2="hardAlpha" operator="out"/>
<feColorMatrix type="matrix" values="0 0 0 0 0 0 0 0 0 0 0 0 0 0 0 0 0 0 1 0"/>
<feBlend mode="normal" in2="BackgroundImageFix" result="effect1_dropShadow_179_27"/>
<feBlend mode="normal" in="SourceGraphic" in2="effect1_dropShadow_179_27" result="shape"/>
</filter>
<linearGradient id="paint0_linear_179_27" x1="612.931" y1="351.491" x2="53.0695" y2="302.509" gradientUnits="userSpaceOnUse">
<stop stop-color="#2D16DE"/>
<stop offset="1" stop-color="#FC40FF"/>
</linearGradient>
<linearGradient id="paint1_linear_179_27" x1="53.1149" y1="301.99" x2="612.976" y2="350.972" gradientUnits="userSpaceOnUse">
<stop/>
<stop offset="0.49" stop-color="white"/>
<stop offset="1"/>
</linearGradient>
<linearGradient id="paint2_linear_179_27" x1="612.913" y1="351.696" x2="53.0515" y2="302.715" gradientUnits="userSpaceOnUse">
<stop stop-color="#FC40FF"/>
<stop offset="1"/>
</linearGradient>
<linearGradient id="paint3_linear_179_27" x1="53.0695" y1="302.509" x2="612.931" y2="351.491" gradientUnits="userSpaceOnUse">
<stop stop-color="#2D16DE"/>
<stop offset="1" stop-color="#FC40FF"/>
</linearGradient>
<linearGradient id="paint4_linear_179_27" x1="53.0586" y1="302.633" x2="612.92" y2="351.615" gradientUnits="userSpaceOnUse">
<stop/>
<stop offset="0.49" stop-color="white"/>
<stop offset="1"/>
</linearGradient>
<linearGradient id="paint5_linear_179_27" x1="53.0775" y1="302.418" x2="612.939" y2="351.4" gradientUnits="userSpaceOnUse">
<stop stop-color="#7A7A7A"/>
<stop offset="1" stop-color="white"/>
</linearGradient>
<linearGradient id="paint6_linear_179_27" x1="53.0695" y1="302.509" x2="612.931" y2="351.491" gradientUnits="userSpaceOnUse">
<stop stop-color="#FC40FF"/>
<stop offset="1" stop-color="#2D16DE"/>
</linearGradient>
<linearGradient id="paint7_linear_179_27" x1="53.063" y1="302.583" x2="612.924" y2="351.564" gradientUnits="userSpaceOnUse">
<stop stop-color="white"/>
<stop offset="1" stop-color="#7A7A7A"/>
</linearGradient>
<linearGradient id="paint8_linear_179_27" x1="53.0695" y1="302.509" x2="612.931" y2="351.491" gradientUnits="userSpaceOnUse">
<stop stop-color="#FC40FF"/>
<stop offset="1" stop-color="#2D16DE"/>
</linearGradient>
<linearGradient id="paint9_linear_179_27" x1="53.0515" y1="302.714" x2="612.913" y2="351.696" gradientUnits="userSpaceOnUse">
<stop/>
<stop offset="1" stop-color="#FC40FF"/>
</linearGradient>
<linearGradient id="paint10_linear_179_27" x1="189.016" y1="115.227" x2="377.853" y2="105.534" gradientUnits="userSpaceOnUse">
<stop/>
<stop offset="0.49" stop-color="white"/>
<stop offset="1"/>
</linearGradient>
</defs>
</svg>
