<svg width="216" height="149" viewBox="0 0 216 149" fill="none" xmlns="http://www.w3.org/2000/svg">
<path d="M0.519257 35.0647L20.4888 148.318L215.481 113.935L195.511 0.682358L0.519257 35.0647ZM42.5668 35.9927L156.31 15.9367C159.448 33.7349 176.567 45.7306 194.515 42.5657L200.079 74.1182C182.13 77.283 170.147 94.4101 173.285 112.208L173.427 113.015L59.6844 133.071C56.4038 114.466 39.2858 102.473 21.3372 105.638L15.7736 74.0856C33.7223 70.9208 45.7056 53.7937 42.5673 35.9955L42.5668 35.9927ZM100.868 34.0547C82.9197 37.2195 71.5623 57.8961 75.5005 80.2312C79.4388 102.566 97.1832 118.111 115.132 114.947C133.08 111.782 144.437 91.1024 140.5 68.7701C136.561 46.4309 118.817 30.8899 100.868 34.0547Z" fill="black" fill-opacity="0.2"/>
</svg>
