<svg width="225" height="224" viewBox="0 0 225 224" fill="none" xmlns="http://www.w3.org/2000/svg">
<path d="M92.1801 0L73.7341 4.72457L69.7516 25.5294L70.3801 27.4107C66.9421 29.2999 63.5787 31.1891 60.3247 33.0782L58.8628 32.1352L38.7535 25.5247L25.3283 38.7413L32.0521 58.6032L33.514 60.4844C31.3664 63.3198 29.3473 67.1014 27.6443 69.9368H25.757L5.01756 73.7216L0 91.6833L16.1283 105.86H17.7965C17.5505 110.585 17.5505 114.355 17.7965 118.137H16.1283L0 132.314L5.01756 151.216L25.757 155L27.6443 154.057C29.3475 157.839 31.3633 160.671 33.514 164.449L32.0521 165.392L25.3283 185.237L38.7535 199.414L58.8628 191.865L60.3247 190.922C63.5786 192.811 66.942 194.7 70.3801 196.589L69.7516 198.471L73.7341 219.275L92.1801 224L106.218 207.923L106.628 206.98H118.367L118.777 207.923L132.815 224L151.261 219.275L155.244 198.471L154.615 196.589C158.047 194.7 161.416 192.811 164.67 190.922L166.132 191.865L186.242 199.414L199.649 185.237L192.948 165.392L191.486 164.449C193.63 160.668 195.649 157.836 197.356 154.057L199.243 155L219.982 151.216L225 132.314L208.872 118.137H207.203C207.45 114.356 207.45 110.588 207.203 105.86H208.872L225 91.6833L219.982 73.7216L199.243 69.9368H197.356C195.649 67.1014 193.629 63.3198 191.486 60.4844L192.948 58.6032L199.649 38.7413L186.242 25.5247L166.132 32.1352L164.67 33.0782C161.417 31.189 158.047 29.2998 154.615 27.4107L155.244 25.5294L151.261 4.72457L132.815 0L118.777 16.077L118.367 17.9583C114.425 17.0122 110.57 17.0122 106.628 17.9583L106.218 16.077L92.1801 0ZM112.496 46.075C119.661 46.075 126.8 47.2759 133.662 49.5449L120.664 75.6094C111.402 72.774 101.813 74.6664 93.4248 79.3942L72.9059 59.5497C81.8122 52.9327 91.9676 48.6764 102.442 46.9043C104.352 46.5815 106.279 46.4327 108.203 46.2777C109.631 46.1859 111.068 46.0752 112.498 46.0752L112.496 46.075ZM150.626 58.6095C153.669 60.4987 156.691 62.3847 159.422 65.22C172.592 78.4507 178.909 95.4598 178.7 113.418L150.198 108.693C149.43 100.187 145.854 91.6806 139.308 85.0636C138.74 85.0636 138.024 84.1206 137.438 84.1206L150.626 58.6095ZM59.4986 72.7864L80.0174 93.5738C75.0714 101.134 73.3651 110.593 75.4237 120.046L49.6808 133.245C49.6205 133.068 49.5523 132.891 49.4967 132.711C48.9173 130.988 48.4586 129.244 48.0348 127.486C47.8427 126.678 47.6046 125.88 47.4412 125.068C46.9681 122.722 46.6062 120.361 46.4031 117.98C46.1824 115.382 46.1221 112.767 46.219 110.154C46.7062 97.0832 51.1617 84.0157 59.4951 72.7912L59.4986 72.7864ZM112.498 93.3336C117.352 93.3336 122.205 94.9919 125.906 98.2988C133.313 105.859 133.313 118.15 125.906 125.71C118.5 133.27 106.497 133.27 99.0905 125.71C91.684 118.15 91.684 105.859 99.0905 98.2988C102.792 94.9919 107.644 93.3336 112.498 93.3336ZM147.274 127.592L175.96 131.377C175.877 131.649 175.768 131.915 175.682 132.189C175.103 134.061 174.423 135.89 173.68 137.689C173.098 139.078 172.457 140.45 171.774 141.804C171.49 142.375 171.187 142.939 170.885 143.502C170.036 145.065 169.147 146.614 168.161 148.116C167.909 148.505 167.628 148.878 167.365 149.261C166.301 150.81 165.185 152.334 163.976 153.801C162.539 155.519 161.063 157.222 159.422 158.783C155.682 162.348 151.579 165.435 147.255 168.161C146.267 168.761 145.286 169.37 144.273 169.916C143.863 170.15 143.444 170.373 143.032 170.599C139.43 172.44 135.686 173.924 131.864 175.064L127.586 146.487C131.824 144.598 135.85 142.717 139.308 138.938C142.778 135.157 145.43 131.367 147.273 127.586L147.274 127.592ZM84.2215 137.045C84.7484 137.991 85.1135 138.002 85.6834 138.945C92.215 145.562 100.613 149.337 109.147 149.337L113.331 177.691C111.429 177.794 109.526 177.769 107.628 177.691C107.166 177.659 106.699 177.659 106.237 177.617C106.202 177.614 106.163 177.62 106.128 177.617C106.053 177.61 105.982 177.588 105.904 177.582C91.1771 176.144 76.8518 169.898 65.5692 158.791C62.8422 155.956 60.5914 153.117 58.4406 150.282L84.2215 137.045Z" fill="black" fill-opacity="0.2"/>
</svg>
