<svg width="150" height="149" viewBox="0 0 150 149" fill="none" xmlns="http://www.w3.org/2000/svg">
<path d="M38.1924 0.706966C26.3661 1.39747 18.2586 17.4805 26.305 26.5284C33.9595 30.064 41.1095 41.3633 33.0529 48.3654C24.4618 55.4617 10.1942 49.6041 3.2907 59.8933C-2.18316 68.5333 3.37299 78.7189 4.32 88.3201C7.2752 105.941 9.99327 123.606 13.9321 141.052C17.6188 149.474 27.7913 149.075 35.3089 147.75C42.0269 147.264 49.5893 145.232 52.4439 138.448C56.0201 128.746 43.8922 125.303 40.6337 118.899C35.09 108.711 44.0477 95.9684 54.6318 94.7983C64.7988 93.0056 76.8323 102.049 75.1578 112.811C72.6386 120.234 64.0008 128.733 71.4617 135.791C79.5628 142.037 90.1202 138.082 98.7871 135.858C107.681 132.196 109.839 121.349 105.848 112.981C104.054 106.319 104.419 95.7876 112.386 92.9881C121.425 90.6958 128.168 102.765 137.459 99.0337C148.813 95.6369 153.028 80.2403 145.781 71.0515C141.153 64.1927 130.139 59.8548 123.372 65.9308C118.76 72.3255 111.171 82.0369 102.833 75.1338C93.3032 67.0461 100.107 51.8891 89.923 43.9167C79.614 36.6625 67.3195 48.6009 56.9311 42.7554C49.4112 38.5 52.5911 28.8673 56.2754 23.3324C63.0251 14.4674 55.0918 1.90905 45.0686 0.188302C42.7935 -0.109077 40.4656 0.301387 38.1901 0.702626L38.1924 0.706966Z" fill="black" fill-opacity="0.2"/>
</svg>
