<svg width="168" height="157" viewBox="0 0 168 157" fill="none" xmlns="http://www.w3.org/2000/svg">
<path d="M101.128 1.00837C97.5266 1.42998 93.974 2.79856 90.9449 5.13127C88.3181 6.96405 86.4182 9.3443 85.3134 12.2806L85.1718 12.3056C85.079 13.0079 84.8946 13.0484 84.8279 13.7438L76.7773 32.2936L62.8812 17.6136C62.5781 16.9811 62.3931 17.0057 62.0661 16.3797L61.9245 16.4047C59.8797 14.0238 57.3483 12.4272 54.2524 11.6011C51.2389 10.7629 48.034 10.6375 45.0357 11.1662C38.3212 11.6642 32.4676 16.1192 29.8723 22.0574C26.1401 30.9376 30.9627 40.3673 40.6815 43.4507C43.894 44.9397 47.0865 45.0651 50.1709 44.5212L12.0165 51.2488C4.71834 52.5357 -0.140803 59.5591 1.14796 66.8681L3.49128 80.1577L62.9482 69.6739L64.1201 76.3198L11.2714 85.6385L21.8169 145.445C23.1057 152.754 30.0762 157.692 37.3721 156.405L156.286 135.437C163.586 134.15 168.443 127.127 167.155 119.818L156.609 60.0115L103.76 69.3302L102.588 62.6842L162.045 52.2004L159.702 38.9107C158.413 31.6018 151.445 26.6639 144.147 27.9507L105.981 34.6804C109.066 34.1364 112.087 32.9155 114.596 30.4175C122.675 24.196 123.907 13.6986 117.361 6.63082C113.273 2.21265 107.138 0.303935 101.135 1.00803L101.128 1.00837ZM45.3529 19.328C47.139 19.013 49.1058 19.3602 50.8926 19.7288C51.4522 19.6301 52.0701 20.2048 52.5335 20.1231C52.9749 20.7312 53.2395 20.6799 53.6316 21.2933L53.8517 21.2545C53.9999 21.2284 54.2782 21.8756 54.4087 21.8525L54.7062 21.8001C54.9297 22.4466 55.0908 22.4159 55.1848 22.3993L64.9945 32.9949L47.267 36.1208C46.8434 36.1955 46.4445 36.2681 45.9114 35.6762C45.3219 35.7801 44.7306 35.8867 44.0526 35.3203C42.94 35.5165 41.7074 34.3596 40.8614 33.8229C38.2071 31.5494 37.3013 28.2942 38.6433 24.6325C39.8977 22.3558 42.378 19.8526 45.3584 19.3271L45.3529 19.328ZM101.945 9.34932C104.925 8.82378 108.112 10.3277 110.069 12.0381C112.585 15.0196 112.767 18.4023 111.049 21.4468C110.44 22.24 109.756 23.7348 108.638 23.932C108.2 24.6951 107.608 24.7972 107.013 24.9021C106.721 25.6395 106.251 25.7202 105.827 25.7949L88.0998 28.9207L93.6818 15.6112C93.7736 15.595 93.9498 15.5662 93.9387 14.8822L94.2241 14.8319C94.3557 14.8087 94.397 14.1052 94.543 14.0794L94.763 14.0406C94.9233 13.3264 95.2659 13.2706 95.471 12.5519C95.9388 12.4694 96.3229 11.7181 96.8781 11.6202C98.433 10.6601 100.163 9.66334 101.947 9.34883L101.945 9.34932Z" fill="black" fill-opacity="0.2"/>
</svg>
