<svg width="50" height="46" viewBox="0 0 50 46" fill="none" xmlns="http://www.w3.org/2000/svg">
<g style="mix-blend-mode:screen" filter="url(#filter0_d_179_5)">
<path d="M7.45121 39.5087H40.008L46 21.2234L7.45121 39.5087Z" fill="url(#paint0_linear_179_5)" shape-rendering="crispEdges"/>
<path d="M36.6002 35.0188C35.4599 35.0813 34.3239 35.2022 33.188 35.3314C32.052 35.4607 30.9161 35.6233 29.7845 35.7942C28.6528 35.9651 27.5256 36.1527 26.3983 36.3779L24.7073 36.7155C24.1437 36.8448 23.5801 36.9615 23.0208 37.1074L36.6002 35.0188Z" fill="url(#paint1_linear_179_5)" style="mix-blend-mode:screen" shape-rendering="crispEdges"/>
<path d="M41.738 34.2265L7.45121 39.5087H40.008L41.738 34.2265Z" fill="url(#paint2_linear_179_5)" style="mix-blend-mode:screen" shape-rendering="crispEdges"/>
<path d="M22.7476 39.5212H7.44255L27.2481 2.00004H42.5531L22.7476 39.5212Z" fill="url(#paint3_linear_179_5)" shape-rendering="crispEdges"/>
<path d="M15.7888 30.5996C17.0895 29.0612 18.4249 27.5645 19.7646 26.0804C21.1044 24.5962 22.4658 23.1621 23.8142 21.6695C25.1626 20.177 26.5413 18.7762 27.9244 17.3546L30.0056 15.2326C30.7079 14.5405 31.4017 13.8318 32.1171 13.1481C31.4667 13.9235 30.8163 14.6698 30.1443 15.4327L28.1412 17.6715C26.8058 19.1556 25.4444 20.5898 24.0917 22.0781C22.7389 23.5664 21.3645 24.9714 19.9814 26.393C18.5983 27.8147 17.1979 29.2321 15.7888 30.5996Z" fill="url(#paint4_linear_179_5)" style="mix-blend-mode:screen" shape-rendering="crispEdges"/>
<path d="M22.7476 39.5087H22.7563L32.5463 27.6062L24.1394 31.5917L22.7476 39.5087Z" fill="url(#paint5_linear_179_5)" style="mix-blend-mode:multiply" shape-rendering="crispEdges"/>
<path d="M22.7476 39.5212H7.44255L42.5531 2.00004L22.7476 39.5212Z" fill="url(#paint6_linear_179_5)" shape-rendering="crispEdges"/>
<path d="M42.5531 2.00004H27.2481L19.4785 16.7125L42.5531 2.00004Z" fill="url(#paint7_linear_179_5)" style="mix-blend-mode:multiply" shape-rendering="crispEdges"/>
<path d="M42.5531 2.00004L9.99628 2L4 20.2853L42.5531 2.00004Z" fill="url(#paint8_linear_179_5)" shape-rendering="crispEdges"/>
<path d="M8.262 7.28219L42.5531 2.00004L9.99628 2L8.262 7.28219Z" fill="url(#paint9_linear_179_5)" style="mix-blend-mode:screen" shape-rendering="crispEdges"/>
<path d="M13.4041 6.49842C14.5444 6.43588 15.6804 6.31498 16.8163 6.18157C17.9523 6.04816 19.0882 5.88974 20.2199 5.72298C21.3515 5.55622 22.4788 5.36028 23.6061 5.13515L25.297 4.80163C25.8606 4.66822 26.4199 4.55565 26.9836 4.38472L13.4041 6.49842Z" fill="url(#paint10_linear_179_5)" style="mix-blend-mode:screen" shape-rendering="crispEdges"/>
</g>
<defs>
<filter id="filter0_d_179_5" x="0" y="0" width="50" height="45.5212" filterUnits="userSpaceOnUse" color-interpolation-filters="sRGB">
<feFlood flood-opacity="0" result="BackgroundImageFix"/>
<feColorMatrix in="SourceAlpha" type="matrix" values="0 0 0 0 0 0 0 0 0 0 0 0 0 0 0 0 0 0 127 0" result="hardAlpha"/>
<feOffset dy="2"/>
<feGaussianBlur stdDeviation="2"/>
<feComposite in2="hardAlpha" operator="out"/>
<feColorMatrix type="matrix" values="0 0 0 0 0.176471 0 0 0 0 0.0862745 0 0 0 0 0.870588 0 0 0 0.4 0"/>
<feBlend mode="normal" in2="BackgroundImageFix" result="effect1_dropShadow_179_5"/>
<feBlend mode="normal" in="SourceGraphic" in2="effect1_dropShadow_179_5" result="shape"/>
</filter>
<linearGradient id="paint0_linear_179_5" x1="46" y1="20.7606" x2="4" y2="20.7606" gradientUnits="userSpaceOnUse">
<stop stop-color="#2D16DE"/>
<stop offset="1" stop-color="#FC40FF"/>
</linearGradient>
<linearGradient id="paint1_linear_179_5" x1="4" y1="20.7232" x2="46" y2="20.7232" gradientUnits="userSpaceOnUse">
<stop/>
<stop offset="0.49" stop-color="white"/>
<stop offset="1"/>
</linearGradient>
<linearGradient id="paint2_linear_179_5" x1="46" y1="20.7754" x2="4" y2="20.7754" gradientUnits="userSpaceOnUse">
<stop stop-color="#FC40FF"/>
<stop offset="1"/>
</linearGradient>
<linearGradient id="paint3_linear_179_5" x1="4" y1="20.7606" x2="46" y2="20.7606" gradientUnits="userSpaceOnUse">
<stop stop-color="#2D16DE"/>
<stop offset="1" stop-color="#FC40FF"/>
</linearGradient>
<linearGradient id="paint4_linear_179_5" x1="4" y1="20.7696" x2="46" y2="20.7696" gradientUnits="userSpaceOnUse">
<stop/>
<stop offset="0.49" stop-color="white"/>
<stop offset="1"/>
</linearGradient>
<linearGradient id="paint5_linear_179_5" x1="4" y1="20.754" x2="46" y2="20.754" gradientUnits="userSpaceOnUse">
<stop stop-color="#7A7A7A"/>
<stop offset="1" stop-color="white"/>
</linearGradient>
<linearGradient id="paint6_linear_179_5" x1="4" y1="20.7606" x2="46" y2="20.7606" gradientUnits="userSpaceOnUse">
<stop stop-color="#FC40FF"/>
<stop offset="1" stop-color="#2D16DE"/>
</linearGradient>
<linearGradient id="paint7_linear_179_5" x1="4" y1="20.7659" x2="46" y2="20.7659" gradientUnits="userSpaceOnUse">
<stop stop-color="white"/>
<stop offset="1" stop-color="#7A7A7A"/>
</linearGradient>
<linearGradient id="paint8_linear_179_5" x1="4" y1="20.7606" x2="46" y2="20.7606" gradientUnits="userSpaceOnUse">
<stop stop-color="#FC40FF"/>
<stop offset="1" stop-color="#2D16DE"/>
</linearGradient>
<linearGradient id="paint9_linear_179_5" x1="4" y1="20.7754" x2="46" y2="20.7754" gradientUnits="userSpaceOnUse">
<stop/>
<stop offset="1" stop-color="#FC40FF"/>
</linearGradient>
<linearGradient id="paint10_linear_179_5" x1="12.9012" y1="6.49846" x2="26.8751" y2="4.47253" gradientUnits="userSpaceOnUse">
<stop/>
<stop offset="0.49" stop-color="white"/>
<stop offset="1"/>
</linearGradient>
</defs>
</svg>
