<?xml version='1.0' encoding='iso-8859-1'?>
<svg version="1.1" xmlns="http://www.w3.org/2000/svg" viewBox="0 0 470 470" xmlns:xlink="http://www.w3.org/1999/xlink" enable-background="new 0 0 470 470">
  <g>
    <path d="m332.599,425h-135.198c-4.142,0-7.5,3.357-7.5,7.5s3.358,7.5 7.5,7.5h135.198c4.142,0 7.5-3.357 7.5-7.5s-3.358-7.5-7.5-7.5z"/>
    <path d="m167.401,425h-30c-4.142,0-7.5,3.357-7.5,7.5s3.358,7.5 7.5,7.5h30c4.142,0 7.5-3.357 7.5-7.5s-3.358-7.5-7.5-7.5z"/>
    <path d="m206.789,210.599h56.422c10.014,0 18.162-8.147 18.162-18.161v-53.994c0-4.143-3.358-7.5-7.5-7.5h-77.745c-4.142,0-7.5,3.357-7.5,7.5v53.994c-0.001,10.013 8.147,18.161 18.161,18.161zm59.584-18.161c0,1.743-1.418,3.161-3.162,3.161h-56.422c-1.743,0-3.162-1.418-3.162-3.161v-46.494h62.745v46.494z"/>
    <path d="m380.236,225.074h-17.637c-28.371,0-51.452-23.081-51.452-51.452v-85.179c0-4.143-3.358-7.5-7.5-7.5h-22.274v-34.571c0-25.569-20.803-46.372-46.373-46.372s-46.373,20.803-46.373,46.372v34.571h-22.274c-4.142,0-7.5,3.357-7.5,7.5v85.179c0,28.371-23.082,51.452-51.452,51.452h-17.637c-20.547,0-37.264,16.717-37.264,37.264v152.693c0,4.143 3.358,7.5 7.5,7.5s7.5-3.357 7.5-7.5v-152.693c0-12.276 9.988-22.264 22.264-22.264h10.137v222.426c0,4.143 3.358,7.5 7.5,7.5h255.198c4.142,0 7.5-3.357 7.5-7.5v-222.426h10.137c12.276,0 22.264,9.987 22.264,22.264v152.693c0,4.143 3.358,7.5 7.5,7.5s7.5-3.357 7.5-7.5v-152.693c0-20.547-16.716-37.264-37.264-37.264zm-265.335,229.926v-215.347c33.123-3.738 58.952-31.926 58.952-66.031v-77.679h14.774v2.5c0,4.143 3.358,7.5 7.5,7.5s7.5-3.357 7.5-7.5v-2.5h62.745v2.5c0,4.143 3.358,7.5 7.5,7.5s7.5-3.357 7.5-7.5v-2.5h14.774v77.679c0,34.105 25.829,62.293 58.952,66.031v215.347h-240.197zm88.726-408.628c0-17.299 14.074-31.372 31.373-31.372s31.373,14.073 31.373,31.372v34.571h-62.745v-34.571z"/>
  </g>
</svg>
