<?xml version="1.0"?>
<svg xmlns="http://www.w3.org/2000/svg" xmlns:xlink="http://www.w3.org/1999/xlink" xmlns:svgjs="http://svgjs.com/svgjs" version="1.1" width="512" height="512" x="0" y="0" viewBox="0 0 505.986 505.986" style="enable-background:new 0 0 512 512" xml:space="preserve" class=""><g><g xmlns="http://www.w3.org/2000/svg"><g><path d="m256.359 325.961c-4.093 0-7.412 3.318-7.412 7.412v11.859c0 4.094 3.319 7.412 7.412 7.412s7.412-3.318 7.412-7.412v-11.859c0-4.094-3.318-7.412-7.412-7.412zm244.959-24.245-53.118-53.117c-19.772-19.772-46.061-30.66-74.022-30.66h-15.521l-33.168-33.169v-14.688c17.466-3.661 29.563-19.573 28.321-37.577-1.221-17.71-15.498-31.986-33.208-33.208-17.42-1.199-33.108 10.193-37.296 27.099-.984 3.974 1.44 7.992 5.413 8.977 3.976.981 7.992-1.44 8.977-5.413 2.453-9.904 11.654-16.588 21.886-15.873 10.367.716 18.724 9.071 19.439 19.438.747 10.84-6.724 20.384-17.379 22.202-6.361 1.084-10.977 6.546-10.977 12.989v1.895c-18.718-15.51-42.036-23.953-66.653-23.953h-15.522l-33.169-33.169v-14.691c17.466-3.661 29.562-19.573 28.321-37.575-1.222-17.71-15.498-31.986-33.208-33.208-17.422-1.182-33.108 10.194-37.296 27.099-.984 3.974 1.439 7.992 5.413 8.977 3.977.981 7.992-1.44 8.977-5.414 2.453-9.902 11.66-16.589 21.887-15.872 10.367.716 18.724 9.071 19.439 19.438.748 10.839-6.724 20.383-17.381 22.202-6.36 1.085-10.975 6.548-10.975 12.989v16.056l-33.168 33.169h-15.521c-26.589 0-51.94 9.984-71.386 28.115-2.994 2.791-3.158 7.481-.367 10.476 2.792 2.995 7.482 3.159 10.476.367 15.092-14.071 34.333-22.401 54.751-23.874 3.799 31.191 30.426 55.438 62.626 55.438 32.201 0 58.828-24.247 62.626-55.438 21.544 1.537 41.592 10.637 57.015 26.061l.041.041-30.097 30.098h-15.519c-27.961 0-54.251 10.89-74.023 30.66l-53.117 53.117c-6.225 6.225-6.225 16.354 0 22.579l38.138 38.139c6.241 6.24 16.338 6.239 22.578 0l18.72-18.72v48.233h-103.668c-6.437 0-11.674-5.237-11.674-11.674v-125.74c0-6.582-7.988-9.907-12.653-5.242l-31.373 31.373c-.446.445-1.169.447-1.615 0l-38.137-38.138c-.445-.445-.445-1.17-.001-1.614l30.675-30.675c2.895-2.896 2.895-7.588 0-10.483-2.895-2.894-7.588-2.894-10.483 0l-30.675 30.677c-6.223 6.224-6.223 16.353 0 22.578l38.139 38.139c6.224 6.224 16.352 6.224 22.578 0l18.72-18.72v107.842c0 14.611 11.887 26.498 26.498 26.498h103.668v44.785c0 14.611 11.887 26.499 26.498 26.499h110.864c4.093 0 7.412-3.318 7.412-7.412s-3.319-7.412-7.412-7.412h-110.863c-6.437 0-11.674-5.237-11.674-11.675v-17.095l18.548-18.548c3.408-3.409 8.93-3.413 12.341.001l9.307 9.306c9.201 9.203 24.1 9.208 33.306.001l9.308-9.308c3.408-3.409 8.93-3.413 12.341.001l9.307 9.306c9.201 9.203 24.101 9.208 33.307.001l9.308-9.308c3.408-3.409 8.93-3.413 12.341.001l18.548 18.547v17.094c0 6.438-5.237 11.675-11.674 11.675h-7.967c-4.093 0-7.412 3.318-7.412 7.412s3.319 7.412 7.412 7.412h7.967c14.611 0 26.498-11.887 26.498-26.499v-107.843l18.72 18.72c6.225 6.225 16.354 6.223 22.578 0l38.139-38.139c6.224-6.224 6.224-16.352 0-22.578zm-313.408-174.677 19.615 19.616h-39.231zm0 75.313c-24.104 0-44.139-17.754-47.715-40.872h95.432c-3.578 23.118-23.612 40.872-47.717 40.872zm130.166-4.029 19.615 19.615h-39.231zm47.716 34.44c-3.577 23.119-23.611 40.872-47.715 40.872s-44.139-17.754-47.715-40.872zm125.043 81.05-38.139 38.139c-.445.447-1.169.445-1.614 0l-31.373-31.373c-2.12-2.12-5.309-2.753-8.077-1.606-2.77 1.146-4.576 3.85-4.576 6.848v87.676l-8.065-8.064c-9.201-9.203-24.101-9.208-33.306-.001l-9.308 9.308c-3.408 3.409-8.93 3.413-12.342-.001l-9.307-9.306c-9.201-9.203-24.101-9.208-33.306-.001l-9.308 9.308c-3.408 3.409-8.93 3.413-12.341-.001l-9.307-9.306c-9.201-9.203-24.101-9.207-33.306-.001l-8.065 8.065v-87.676c0-2.997-1.806-5.701-4.576-6.848-2.767-1.147-5.957-.514-8.077 1.606-32.933 32.668-31.186 31.708-32.18 31.708-.953 0 1.562 1.766-38.945-38.474-.445-.445-.445-1.168 0-1.613l53.117-53.117c15.424-15.424 35.473-24.524 57.015-26.061 3.799 31.191 30.426 55.438 62.626 55.438s58.828-24.247 62.626-55.438c21.543 1.537 41.591 10.637 57.015 26.061l53.117 53.117c.447.445.447 1.167.002 1.613zm-151.618 25.478c-3.086-2.69-7.768-2.368-10.457.719-2.697 3.095-6.591 4.87-10.683 4.87s-7.986-1.775-10.683-4.87c-2.689-3.086-7.371-3.409-10.457-.719s-3.408 7.372-.718 10.457c5.514 6.327 13.481 9.956 21.86 9.956s16.346-3.629 21.859-9.956c2.686-3.086 2.365-7.769-.721-10.457zm40.576-13.33c-4.093 0-7.412 3.318-7.412 7.412v11.859c0 4.094 3.319 7.412 7.412 7.412s7.412-3.318 7.412-7.412v-11.859c0-4.094-3.319-7.412-7.412-7.412z" fill="#87c232" data-original="#000000" style="" class=""/></g></g></g></svg>
