<svg id="Capa_1" enable-background="new 0 0 512 512" height="512" viewBox="0 0 512 512" width="512" xmlns="http://www.w3.org/2000/svg"><g><g><path d="m361.654 354.469c-7.319-5.215-25.369-19.462-34.901-39.091-3.339-6.87-10.412-11.31-18.021-11.31h-105.464c-7.609 0-14.682 4.44-18.022 11.312-9.531 19.629-27.583 33.875-34.9 39.089-5.271 3.754-8.419 9.853-8.419 16.315v53.58c0 11.04 8.982 20.022 20.022 20.022h188.101c11.04 0 20.022-8.982 20.022-20.022v-53.58c0-6.462-3.147-12.561-8.418-16.315zm-6.581 69.896c0 2.769-2.253 5.022-5.022 5.022h-188.102c-2.769 0-5.022-2.253-5.022-5.022v-53.58c0-1.621.793-3.152 2.121-4.098 10.255-7.306 29.048-22.835 39.691-44.752.858-1.768 2.595-2.866 4.529-2.866h105.464c1.934 0 3.671 1.098 4.528 2.865 10.644 21.918 29.436 37.447 39.692 44.753h.001c1.327.946 2.12 2.477 2.12 4.098z"/><path d="m464.787 191.994c-.837-4.056-4.802-6.666-8.86-5.83-4.056.836-6.667 4.803-5.831 8.86 19.92 96.588 20.478 205.208 20.478 206.278v33.957c0 2.22-1.807 4.027-4.026 4.027h-61.693v-189.163c0-43.651 7.914-86.24 23.54-126.791 2.405 3.878 4.373 8.017 5.885 12.388 2.71 7.835 5.324 16.363 7.769 25.346.908 3.338 3.931 5.532 7.231 5.532.652 0 1.315-.086 1.975-.265 3.996-1.088 6.354-5.209 5.266-9.206-2.532-9.307-5.246-18.159-8.066-26.311-3.561-10.293-9.155-19.551-16.624-27.518-.055-.059-.111-.117-.168-.173-15.791-16.741-29.562-18.569-62.334-34.768.888-4.465.738-9.207-.617-13.885l-3.592-12.396c-3.283-11.336-11.406-21.012-18.547-25.135-3.775-2.492-7.851-4.39-12.124-5.644-51.324-15.063-105.579-15.062-156.901 0-30.456 8.941-31.878 38.471-34.262 43.175-1.355 4.678-1.505 9.419-.617 13.884-32.72 16.186-46.666 18.068-62.477 34.917-.008.008-.016.016-.024.025-7.469 7.967-13.063 17.226-16.624 27.519-36.107 104.362-37.117 268.853-37.117 270.485v33.957c0 8.661 5.817 15.988 13.748 18.281v13.335c0 10.52 8.558 19.078 19.077 19.078h43.811c7.491 0 13.987-4.34 17.107-10.638 2.658 1.555 5.612 2.655 8.756 3.194v10.167c0 12.861 10.463 23.325 23.324 23.325h207.495c12.861 0 23.324-10.463 23.324-23.325v-10.824c2.955-.806 5.727-2.059 8.239-3.684 2.87 6.912 9.691 11.786 17.628 11.786h43.811c10.519 0 19.077-8.558 19.077-19.078v-13.336c7.932-2.293 13.748-9.621 13.748-18.281v-33.957c.001-1.085-.564-111.262-20.785-209.308zm-120.219-157.061c2.821 3.268 4.932 7.126 6.145 11.315l3.592 12.396c2.055 7.095-1.589 14.466-8.434 17.162l-53.141 20.929c16.639-16.171 36.497-37.849 51.838-61.802zm-88.567 74.683c-8.816-7.289-26.988-23.045-45.398-43.398 30.187-1.414 60.609-1.414 90.795 0-18.409 20.353-36.581 36.109-45.397 43.398zm-74.227-83.927c48.558-14.25 99.894-14.251 148.453 0 .681.2 1.354.425 2.02.674-5.641 8.863-11.956 17.421-18.509 25.486-38.332-2.255-77.141-2.255-115.473 0-6.554-8.066-12.869-16.623-18.509-25.487.665-.249 1.338-.474 2.018-.673zm-24.079 32.956c3.194-9.442 3.294-16.248 9.738-23.713 15.34 23.953 35.201 45.632 51.84 61.804l-53.143-20.929c-6.848-2.697-10.491-10.068-8.435-17.162zm-50.554 408.23c0 2.249-1.829 4.078-4.078 4.078h-43.81c-2.249 0-4.078-1.83-4.078-4.078v-12.59h51.966zm260.929 21.8c0 4.591-3.734 8.325-8.325 8.325h-207.494c-4.591 0-8.325-3.735-8.325-8.325v-9.789h224.144zm21.785-238.552v199.213c0 7.631-6 14.353-14.368 14.545-251.662.007-241.836.006-242.115.006-6.193 0-11.232-5.038-11.232-11.231v-52.546c0-4.142-3.357-7.5-7.5-7.5-4.142 0-7.5 3.358-7.5 7.5v39.176h-61.687c-2.22 0-4.026-1.807-4.026-4.027v-33.957c0-.425.152-44.156 5.604-102.452 6.242-66.732 16.854-123.142 30.689-163.129 1.512-4.369 3.479-8.507 5.883-12.385 15.626 40.55 23.539 83.138 23.539 126.787v114.744c0 4.142 3.357 7.5 7.5 7.5 4.142 0 7.5-3.358 7.5-7.5v-114.744c0-48.294-9.294-95.345-27.628-139.929 11.335-10.382 19.49-11.467 54.79-28.378 2.987 3.41 6.818 6.17 11.33 7.947l66.548 26.208v81.591c0 4.142 3.357 7.5 7.5 7.5s7.5-3.358 7.5-7.5v-75.684c.287.083 6.125 2.749 13.82 2.749 8.072 0 13.079-2.542 13.82-2.748v42.089c0 4.142 3.357 7.5 7.5 7.5 4.142 0 7.5-3.358 7.5-7.5v-47.997l66.549-26.209c4.511-1.777 8.342-4.537 11.328-7.946 35.266 16.895 43.427 17.97 54.787 28.377-18.337 44.585-27.631 91.636-27.631 139.93zm66.97 216.752c0 2.249-1.829 4.078-4.078 4.078h-43.811c-2.249 0-4.078-1.83-4.078-4.078v-12.59h51.966v12.59z"/></g></g></svg>