<?xml version="1.0"?>
<svg xmlns="http://www.w3.org/2000/svg" xmlns:xlink="http://www.w3.org/1999/xlink" xmlns:svgjs="http://svgjs.com/svgjs" version="1.1" width="512" height="512" x="0" y="0" viewBox="0 0 64 64" style="enable-background:new 0 0 512 512" xml:space="preserve" class=""><g><g xmlns="http://www.w3.org/2000/svg" id="Outline"><path d="M62,13.606A11.606,11.606,0,0,0,42.187,5.4L37.894,9.692A2.984,2.984,0,0,0,35.373,9.6L23.62,14.549a16.908,16.908,0,0,0-9.072,9.071L9.6,35.373a2.981,2.981,0,0,0,.091,2.521L5.4,42.187A11.606,11.606,0,0,0,21.813,58.6l4.2-4.2a2.976,2.976,0,0,0,4.109-.109L54.293,30.121a3,3,0,0,0,.109-4.109l4.2-4.2A11.531,11.531,0,0,0,62,13.606ZM20.4,57.187A9.607,9.607,0,0,1,6.813,43.6L11,39.414,24.586,53Zm32.48-28.48L28.707,52.879a1.021,1.021,0,0,1-1.414,0L11.658,37.244a1,1,0,0,1-.214-1.1L16.392,24.4a14.916,14.916,0,0,1,8-8l11.752-4.95a.993.993,0,0,1,1.1.215L52.878,27.293A1,1,0,0,1,52.879,28.707ZM53,24.586,39.414,11,43.6,6.813A9.607,9.607,0,0,1,57.187,20.4Z" fill="#87c232" data-original="#000000" style="" class=""/><path d="M25.948,20.082,32,17.532a1,1,0,0,0-.776-1.844l-6.049,2.55a12.869,12.869,0,0,0-6.934,6.933l-2.551,6.051A1,1,0,0,0,17.531,32l2.552-6.053A10.881,10.881,0,0,1,25.948,20.082Z" fill="#87c232" data-original="#000000" style="" class=""/><path d="M44.293,24.293l-20,20a1,1,0,1,0,1.414,1.414l20-20a1,1,0,0,0-1.414-1.414Z" fill="#87c232" data-original="#000000" style="" class=""/><path d="M42.707,21.293a1,1,0,0,0-1.414,0l-20,20a1,1,0,1,0,1.414,1.414l20-20A1,1,0,0,0,42.707,21.293Z" fill="#87c232" data-original="#000000" style="" class=""/><path d="M39.707,18.293a1,1,0,0,0-1.414,0l-20,20a1,1,0,1,0,1.414,1.414l20-20A1,1,0,0,0,39.707,18.293Z" fill="#87c232" data-original="#000000" style="" class=""/></g></g></svg>
