<svg id="Capa_1" enable-background="new 0 0 512 512" height="512" viewBox="0 0 512 512" width="512" xmlns="http://www.w3.org/2000/svg"><g><g><path d="m191.851 352.939c-4.142 0-7.5 3.358-7.5 7.5v.229c0 40.061-34.063 56.372-34.446 56.752-3.576 2.09-4.781 6.683-2.691 10.259 1.395 2.387 3.904 3.717 6.482 3.717 7.039 0 45.655-24.817 45.655-70.728v-.229c0-4.142-3.358-7.5-7.5-7.5z"/><path d="m362.095 417.421c-.481-.477-34.446-16.311-34.446-56.752v-.229c0-4.142-3.358-7.5-7.5-7.5s-7.5 3.358-7.5 7.5v.229c0 45.59 38.48 70.728 45.655 70.728 2.578 0 5.087-1.33 6.482-3.717 2.09-3.576.885-8.169-2.691-10.259z"/><path d="m446.7 134.332c-6.934-20.039-21.911-36.216-40.852-44.68l-37.098-17.015c.575-4.703.226-9.558-1.144-14.286l-3.452-11.915c-2.895-9.994-9.228-18.717-17.839-24.578-.039-.027-.078-.054-.118-.081-.012-.008-.025-.016-.037-.024-.037-.025-.075-.05-.112-.074-.011-.007-.022-.014-.033-.021-.039-.025-.079-.049-.118-.074-.005-.003-.011-.007-.016-.01-3.767-2.505-7.848-4.411-12.154-5.674l-31.491-9.242c-30.247-8.878-62.224-8.878-92.473 0l-31.49 9.242c-14.905 4.375-26.245 16.093-30.429 30.535l-3.452 11.915c-1.37 4.728-1.719 9.582-1.144 14.285l-37.034 16.986c-19.072 8.523-33.994 24.709-40.914 44.711-26.996 78.026-34.159 192.122-35.986 237.555-.166 4.139 3.054 7.629 7.193 7.795.103.004.205.006.307.006 4.003 0 7.326-3.163 7.489-7.199 1.8-44.768 8.83-157.115 35.174-233.253 1.48-4.277 3.401-8.329 5.745-12.13 15.44 40.117 23.26 82.248 23.26 125.425v187.299h-61.035c-2.16 0-3.917-1.757-3.917-3.917v-29.033c0-4.142-3.358-7.5-7.5-7.5s-7.5 3.358-7.5 7.5v29.034c0 8.592 5.758 15.864 13.618 18.161v13.156c0 10.459 8.509 18.968 18.968 18.968h43.396c7.421 0 13.86-4.284 16.975-10.508 2.606 1.514 5.498 2.589 8.572 3.124v10.01c0 12.779 10.396 23.175 23.175 23.175h205.528c12.778 0 23.175-10.396 23.175-23.175v-10.667c2.886-.793 5.597-2.016 8.056-3.597 2.872 6.83 9.632 11.639 17.494 11.639h43.396c10.459 0 18.968-8.509 18.968-18.968v-13.156c7.86-2.297 13.618-9.569 13.618-18.161v-33.635c.001-1.617-1-164.564-36.769-267.948zm-338.22 332.9c0 2.188-1.78 3.968-3.968 3.968h-43.396c-2.188 0-3.969-1.78-3.969-3.968v-12.4h51.333zm233.736-429.376c3.522 3.534 6.132 7.921 7.532 12.753l3.452 11.915c2.443 8.433-.694 17.564-7.804 22.715l-52.399 37.958c-5.255 3.805-10.114 8.035-14.544 12.646 9.596-33.621 25.72-63.385 63.763-97.987zm-86.217 128.97c-6.527-34.45-14.722-64.512-36.324-95.626 24.153-2.73 48.494-2.73 72.647 0-21.602 31.114-29.796 61.176-36.323 95.626zm10.573 50.4h-21.143l3.14-29.605h14.863zm-52.585-196.176c27.486-8.066 56.54-8.066 84.025 0l30.574 8.973c-10.005 9.356-18.528 18.441-25.836 27.376-31.046-4.328-62.458-4.327-93.504 0-7.308-8.935-15.831-18.019-25.835-27.375zm-55.188 41.474 3.452-11.915c1.4-4.832 4.01-9.219 7.532-12.753 38.041 34.602 54.166 64.366 63.763 97.986-4.429-4.609-9.289-8.841-14.542-12.645l-52.4-37.958c-7.084-5.131-10.256-14.251-7.805-22.715zm-24.265 401.676c-6.096 0-11.054-4.959-11.054-11.054v-200.613c0-47.83-9.199-94.426-27.353-138.585 4.814-4.402 10.259-7.973 16.274-10.661l35.76-16.401c2.433 4.037 5.678 7.629 9.643 10.501l52.401 37.959c13.695 9.916 24.28 23.21 30.865 38.685-3.932 1.973-6.764 5.843-7.258 10.498l-3.498 32.979c-.834 7.858 5.338 14.716 13.238 14.716h4.948v231.976zm232.404 24.625c0 4.508-3.667 8.176-8.175 8.176h-205.529c-4.508 0-8.176-3.667-8.176-8.176v-9.625h221.879v9.625zm87.914-21.593c0 2.188-1.78 3.968-3.969 3.968h-43.396c-2.188 0-3.968-1.78-3.968-3.968v-12.4h51.333zm13.618-31.317c0 2.16-1.757 3.917-3.917 3.917h-61.037v-138.382c0-4.142-3.358-7.5-7.5-7.5s-7.5 3.358-7.5 7.5v148.408c0 7.754-6.185 14.09-13.881 14.335-.121-.002-110.999.008-111.136.008v-231.976h4.948c7.903 0 14.072-6.86 13.238-14.716l-3.498-32.98c-.494-4.656-3.327-8.526-7.259-10.498 6.585-15.476 17.171-28.769 30.866-38.686l52.4-37.958c3.965-2.872 7.21-6.464 9.643-10.501l35.825 16.43c5.962 2.664 11.397 6.231 16.208 10.632-18.154 44.159-27.353 90.755-27.353 138.585v14.131c0 4.142 3.358 7.5 7.5 7.5s7.5-3.358 7.5-7.5v-14.131c0-43.179 7.82-85.311 23.261-125.429 2.345 3.802 4.267 7.856 5.747 12.133 13.703 39.604 24.213 95.473 30.395 161.568 5.4 57.74 5.551 101.054 5.551 101.475v33.635z"/></g></g></svg>