<svg width="22" height="21" viewBox="0 0 22 21" fill="none" xmlns="http://www.w3.org/2000/svg">
<g clip-path="url(#clip0)">
<path fill-rule="evenodd" clip-rule="evenodd" d="M8.9375 15.75C9.93062 15.75 10.914 15.5633 11.8315 15.2005C12.7491 14.8377 13.5828 14.306 14.285 13.6357C14.9872 12.9654 15.5443 12.1696 15.9243 11.2937C16.3044 10.4179 16.5 9.47923 16.5 8.53125C16.5 7.58327 16.3044 6.64457 15.9243 5.76875C15.5443 4.89294 14.9872 4.09715 14.285 3.42682C13.5828 2.7565 12.7491 2.22477 11.8315 1.86199C10.914 1.49922 9.93062 1.3125 8.9375 1.3125C6.9318 1.3125 5.00825 2.07304 3.59001 3.42682C2.17176 4.7806 1.375 6.61672 1.375 8.53125C1.375 10.4458 2.17176 12.2819 3.59001 13.6357C5.00825 14.9895 6.9318 15.75 8.9375 15.75ZM17.875 8.53125C17.875 10.7939 16.9334 12.9638 15.2573 14.5638C13.5812 16.1637 11.3079 17.0625 8.9375 17.0625C6.56713 17.0625 4.29384 16.1637 2.61773 14.5638C0.941627 12.9638 0 10.7939 0 8.53125C0 6.26862 0.941627 4.09867 2.61773 2.49875C4.29384 0.898826 6.56713 0 8.9375 0C11.3079 0 13.5812 0.898826 15.2573 2.49875C16.9334 4.09867 17.875 6.26862 17.875 8.53125Z" fill="white"/>
<path d="M14.2231 15.4114C14.2644 15.4639 14.3084 15.5138 14.3579 15.5623L19.6516 20.6154C19.9095 20.8617 20.2592 21.0001 20.624 21.0003C20.9887 21.0004 21.3386 20.8622 21.5966 20.6161C21.8546 20.37 21.9996 20.0361 21.9997 19.688C21.9999 19.3398 21.8551 19.0058 21.5973 18.7596L16.3035 13.7064C16.2544 13.6589 16.2015 13.6151 16.1454 13.5752C15.606 14.2772 14.9578 14.8968 14.2231 15.4127V15.4114Z" fill="white"/>
<path fill-rule="evenodd" clip-rule="evenodd" d="M8.9375 3.9375C9.11984 3.9375 9.2947 4.00664 9.42364 4.12971C9.55257 4.25278 9.625 4.4197 9.625 4.59375V7.875H13.0625C13.2448 7.875 13.4197 7.94414 13.5486 8.06721C13.6776 8.19028 13.75 8.3572 13.75 8.53125C13.75 8.7053 13.6776 8.87222 13.5486 8.99529C13.4197 9.11836 13.2448 9.1875 13.0625 9.1875H9.625V12.4688C9.625 12.6428 9.55257 12.8097 9.42364 12.9328C9.2947 13.0559 9.11984 13.125 8.9375 13.125C8.75516 13.125 8.5803 13.0559 8.45136 12.9328C8.32243 12.8097 8.25 12.6428 8.25 12.4688V9.1875H4.8125C4.63016 9.1875 4.4553 9.11836 4.32636 8.99529C4.19743 8.87222 4.125 8.7053 4.125 8.53125C4.125 8.3572 4.19743 8.19028 4.32636 8.06721C4.4553 7.94414 4.63016 7.875 4.8125 7.875H8.25V4.59375C8.25 4.4197 8.32243 4.25278 8.45136 4.12971C8.5803 4.00664 8.75516 3.9375 8.9375 3.9375Z" fill="white"/>
</g>
<defs>
<clipPath id="clip0">
<rect width="22" height="21" fill="white"/>
</clipPath>
</defs>
</svg>
