<svg width="17" height="17" viewBox="0 0 17 17" fill="none" xmlns="http://www.w3.org/2000/svg">
<path d="M9.72542 14.875C9.60088 15.0897 9.42214 15.2679 9.20708 15.3917C8.99202 15.5156 8.74819 15.5808 8.5 15.5808C8.25181 15.5808 8.00798 15.5156 7.79292 15.3917C7.57786 15.2679 7.39912 15.0897 7.27458 14.875M12.75 5.66666C12.75 4.53949 12.3022 3.45848 11.5052 2.66145C10.7082 1.86442 9.62717 1.41666 8.5 1.41666C7.37283 1.41666 6.29183 1.86442 5.4948 2.66145C4.69777 3.45848 4.25 4.53949 4.25 5.66666C4.25 10.625 2.125 12.0417 2.125 12.0417H14.875C14.875 12.0417 12.75 10.625 12.75 5.66666Z" stroke="#1E2139" stroke-width="1.5" stroke-linecap="round" stroke-linejoin="round"/>
</svg>
