<svg width="14" height="14" viewBox="0 0 14 14" fill="none" xmlns="http://www.w3.org/2000/svg">
<path d="M12.2503 7.00005C12.0956 7.00005 11.9472 7.0615 11.8378 7.1709C11.7284 7.2803 11.667 7.42867 11.667 7.58338V11.0834C11.667 11.2381 11.6055 11.3865 11.4961 11.4959C11.3867 11.6053 11.2384 11.6667 11.0837 11.6667H2.91699C2.76228 11.6667 2.61391 11.6053 2.50451 11.4959C2.39512 11.3865 2.33366 11.2381 2.33366 11.0834V2.91671C2.33366 2.762 2.39512 2.61363 2.50451 2.50423C2.61391 2.39484 2.76228 2.33338 2.91699 2.33338H6.41699C6.5717 2.33338 6.72007 2.27192 6.82947 2.16252C6.93887 2.05313 7.00033 1.90476 7.00033 1.75005C7.00033 1.59534 6.93887 1.44696 6.82947 1.33757C6.72007 1.22817 6.5717 1.16671 6.41699 1.16671H2.91699C2.45286 1.16671 2.00774 1.35109 1.67956 1.67928C1.35137 2.00746 1.16699 2.45258 1.16699 2.91671V11.0834C1.16699 11.5475 1.35137 11.9926 1.67956 12.3208C2.00774 12.649 2.45286 12.8334 2.91699 12.8334H11.0837C11.5478 12.8334 11.9929 12.649 12.3211 12.3208C12.6493 11.9926 12.8337 11.5475 12.8337 11.0834V7.58338C12.8337 7.42867 12.7722 7.2803 12.6628 7.1709C12.5534 7.0615 12.405 7.00005 12.2503 7.00005ZM3.50033 7.44338V9.91671C3.50033 10.0714 3.56178 10.2198 3.67118 10.3292C3.78058 10.4386 3.92895 10.5 4.08366 10.5H6.55699C6.63376 10.5005 6.70987 10.4858 6.78094 10.4567C6.85201 10.4277 6.91665 10.3849 6.97116 10.3309L11.0078 6.28838L12.6645 4.66671C12.7192 4.61248 12.7626 4.54797 12.7922 4.47688C12.8218 4.4058 12.837 4.32955 12.837 4.25255C12.837 4.17554 12.8218 4.09929 12.7922 4.02821C12.7626 3.95712 12.7192 3.89261 12.6645 3.83838L10.1912 1.33588C10.1369 1.2812 10.0724 1.23781 10.0013 1.20819C9.93024 1.17858 9.854 1.16333 9.77699 1.16333C9.69999 1.16333 9.62374 1.17858 9.55266 1.20819C9.48157 1.23781 9.41705 1.2812 9.36282 1.33588L7.71782 2.98671L3.66949 7.02921C3.61543 7.08372 3.57265 7.14836 3.54363 7.21943C3.5146 7.29051 3.49988 7.36661 3.50033 7.44338ZM9.77699 2.57255L11.4278 4.22338L10.5995 5.05171L8.94866 3.40088L9.77699 2.57255ZM4.66699 7.68255L8.12616 4.22338L9.77699 5.87421L6.31783 9.33338H4.66699V7.68255Z" fill="#1E2139"/>
</svg>
