<svg width="13" height="14" viewBox="0 0 13 14" fill="none" xmlns="http://www.w3.org/2000/svg">
<g clip-path="url(#clip0_919_240)">
<path d="M12.2761 6.88276C12.4103 6.78277 12.5099 6.6433 12.5608 6.48388C12.6117 6.32446 12.6115 6.15309 12.5601 5.99381C12.5088 5.83453 12.4088 5.69532 12.2744 5.5957C12.1399 5.49608 11.9776 5.44104 11.8103 5.43831L8.56026 5.31553C8.54428 5.31443 8.52896 5.30873 8.51615 5.29912C8.50333 5.28951 8.49357 5.2764 8.48804 5.26137L7.36498 2.22803C7.30856 2.07371 7.20607 1.94045 7.0714 1.8463C6.93673 1.75215 6.77638 1.70166 6.61207 1.70166C6.44775 1.70166 6.2874 1.75215 6.15273 1.8463C6.01806 1.94045 5.91557 2.07371 5.85915 2.22803L4.7397 5.2722C4.73417 5.28723 4.72441 5.30034 4.71159 5.30995C4.69878 5.31956 4.68346 5.32526 4.66748 5.32637L1.41748 5.44915C1.25014 5.45188 1.08786 5.50691 0.953379 5.60653C0.8189 5.70616 0.71897 5.84537 0.667602 6.00465C0.616234 6.16393 0.616003 6.33529 0.666943 6.49471C0.717882 6.65413 0.817437 6.79361 0.951648 6.89359L3.50109 8.89776C3.51385 8.9078 3.52339 8.92136 3.52852 8.93676C3.53366 8.95216 3.53416 8.96873 3.52998 8.98442L2.65248 12.0936C2.60701 12.2519 2.61142 12.4204 2.6651 12.5761C2.71878 12.7319 2.81914 12.8673 2.95251 12.964C3.08588 13.0606 3.2458 13.1139 3.41051 13.1165C3.57522 13.119 3.73672 13.0708 3.87304 12.9783L6.56693 11.1728C6.5802 11.1636 6.59594 11.1587 6.61207 11.1587C6.62819 11.1587 6.64393 11.1636 6.6572 11.1728L9.35109 12.9783C9.48557 13.0739 9.64649 13.1253 9.81151 13.1253C9.97653 13.1253 10.1374 13.0739 10.2719 12.9783C10.4053 12.8825 10.5058 12.7478 10.5595 12.5926C10.6131 12.4374 10.6174 12.2694 10.5716 12.1116L9.68693 8.99165C9.68224 8.97598 9.6825 8.95925 9.68767 8.94374C9.69284 8.92823 9.70267 8.9147 9.71582 8.90498L12.2761 6.88276Z" fill="#F2C94C"/>
</g>
<defs>
<clipPath id="clip0_919_240">
<rect width="13" height="13" fill="white" transform="translate(0 0.823242)"/>
</clipPath>
</defs>
</svg>
