<svg width="27" height="28" viewBox="0 0 27 28" fill="none" xmlns="http://www.w3.org/2000/svg">
<path d="M13.5 2.50195C11.0393 2.50486 8.68031 3.48363 6.94037 5.22357C5.20042 6.96352 4.22165 9.32255 4.21874 11.7832C4.2158 13.794 4.87263 15.7503 6.08849 17.352C6.08849 17.352 6.34162 17.6852 6.38296 17.7333L13.5 26.127L20.6204 17.7291C20.6575 17.6844 20.9115 17.352 20.9115 17.352L20.9123 17.3494C22.1276 15.7485 22.7841 13.7931 22.7812 11.7832C22.7783 9.32255 21.7996 6.96352 20.0596 5.22357C18.3197 3.48363 15.9606 2.50486 13.5 2.50195ZM17.0522 12.3755L13.5025 16.002L9.94781 12.3755C9.52099 11.9348 9.28234 11.3454 9.28234 10.7319C9.28234 10.1184 9.52099 9.52895 9.94781 9.08827C10.1571 8.87313 10.4074 8.70213 10.6839 8.58536C10.9604 8.4686 11.2575 8.40844 11.5577 8.40844C11.8578 8.40844 12.1549 8.4686 12.4314 8.58536C12.708 8.70213 12.9583 8.87313 13.1676 9.08827L13.5025 9.42998L13.8341 9.08827C14.0434 8.87313 14.2937 8.70213 14.5702 8.58536C14.8467 8.4686 15.1438 8.40844 15.444 8.40844C15.7441 8.40844 16.0413 8.4686 16.3178 8.58536C16.5943 8.70213 16.8446 8.87313 17.0539 9.08827C17.4807 9.52895 17.7193 10.1184 17.7193 10.7319C17.7193 11.3454 17.4807 11.9348 17.0539 12.3755H17.0522Z" fill="#A42747"/>
</svg>
