<svg width="23" height="24" viewBox="0 0 23 24" fill="none" xmlns="http://www.w3.org/2000/svg">
<path d="M2.46428 9.13039L11.2158 13.6819C11.3036 13.7276 11.401 13.7514 11.5 13.7514C11.5989 13.7514 11.6964 13.7276 11.7842 13.6819L20.5357 9.13121V17.0375C20.5357 17.7194 20.2749 18.3754 19.8065 18.8711C19.3382 19.3667 18.698 19.6644 18.0172 19.703L17.8661 19.7071H5.13392C4.45202 19.7071 3.79596 19.4463 3.3003 18.9779C2.80465 18.5096 2.50699 17.8694 2.46839 17.1886L2.46428 17.0375V9.13039ZM5.13392 4.92139H17.8661C18.548 4.92134 19.204 5.18223 19.6997 5.65055C20.1953 6.11886 20.493 6.75908 20.5316 7.43989L20.5357 7.59103V7.74217L11.5 12.4407L2.46428 7.74217V7.59103C2.46423 6.90913 2.72513 6.25306 3.19344 5.75741C3.66175 5.26176 4.30197 4.9641 4.98278 4.92549L5.13392 4.92139H17.8661H5.13392Z" fill="#A42747"/>
</svg>
