<svg width="35" height="34" viewBox="0 0 35 34" fill="none" xmlns="http://www.w3.org/2000/svg">
<g clip-path="url(#clip0)">
<path d="M8.75 0.09375C8.75 -0.196331 8.63477 -0.47453 8.42965 -0.679648C8.22453 -0.884766 7.94633 -1 7.65625 -1C7.36617 -1 7.08797 -0.884766 6.88285 -0.679648C6.67773 -0.47453 6.5625 -0.196331 6.5625 0.09375V1.1875H4.375C3.21468 1.1875 2.10188 1.64844 1.28141 2.46891C0.460936 3.28938 0 4.40218 0 5.5625L0 7.75H35V5.5625C35 4.40218 34.5391 3.28938 33.7186 2.46891C32.8981 1.64844 31.7853 1.1875 30.625 1.1875H28.4375V0.09375C28.4375 -0.196331 28.3223 -0.47453 28.1171 -0.679648C27.912 -0.884766 27.6338 -1 27.3438 -1C27.0537 -1 26.7755 -0.884766 26.5704 -0.679648C26.3652 -0.47453 26.25 -0.196331 26.25 0.09375V1.1875H8.75V0.09375ZM35 29.625V9.9375H0V29.625C0 30.7853 0.460936 31.8981 1.28141 32.7186C2.10188 33.5391 3.21468 34 4.375 34H30.625C31.7853 34 32.8981 33.5391 33.7186 32.7186C34.5391 31.8981 35 30.7853 35 29.625ZM20.7812 14.3125H22.9688C23.2588 14.3125 23.537 14.4277 23.7421 14.6329C23.9473 14.838 24.0625 15.1162 24.0625 15.4062V17.5938C24.0625 17.8838 23.9473 18.162 23.7421 18.3671C23.537 18.5723 23.2588 18.6875 22.9688 18.6875H20.7812C20.4912 18.6875 20.213 18.5723 20.0079 18.3671C19.8027 18.162 19.6875 17.8838 19.6875 17.5938V15.4062C19.6875 15.1162 19.8027 14.838 20.0079 14.6329C20.213 14.4277 20.4912 14.3125 20.7812 14.3125ZM27.3438 14.3125H29.5312C29.8213 14.3125 30.0995 14.4277 30.3046 14.6329C30.5098 14.838 30.625 15.1162 30.625 15.4062V17.5938C30.625 17.8838 30.5098 18.162 30.3046 18.3671C30.0995 18.5723 29.8213 18.6875 29.5312 18.6875H27.3438C27.0537 18.6875 26.7755 18.5723 26.5704 18.3671C26.3652 18.162 26.25 17.8838 26.25 17.5938V15.4062C26.25 15.1162 26.3652 14.838 26.5704 14.6329C26.7755 14.4277 27.0537 14.3125 27.3438 14.3125ZM4.375 21.9688C4.375 21.6787 4.49023 21.4005 4.69535 21.1954C4.90047 20.9902 5.17867 20.875 5.46875 20.875H7.65625C7.94633 20.875 8.22453 20.9902 8.42965 21.1954C8.63477 21.4005 8.75 21.6787 8.75 21.9688V24.1562C8.75 24.4463 8.63477 24.7245 8.42965 24.9296C8.22453 25.1348 7.94633 25.25 7.65625 25.25H5.46875C5.17867 25.25 4.90047 25.1348 4.69535 24.9296C4.49023 24.7245 4.375 24.4463 4.375 24.1562V21.9688ZM12.0312 20.875H14.2188C14.5088 20.875 14.787 20.9902 14.9921 21.1954C15.1973 21.4005 15.3125 21.6787 15.3125 21.9688V24.1562C15.3125 24.4463 15.1973 24.7245 14.9921 24.9296C14.787 25.1348 14.5088 25.25 14.2188 25.25H12.0312C11.7412 25.25 11.463 25.1348 11.2579 24.9296C11.0527 24.7245 10.9375 24.4463 10.9375 24.1562V21.9688C10.9375 21.6787 11.0527 21.4005 11.2579 21.1954C11.463 20.9902 11.7412 20.875 12.0312 20.875Z" fill="#6DDADB"/>
</g>
<defs>
<clipPath id="clip0">
<rect width="35" height="34" fill="white"/>
</clipPath>
</defs>
</svg>
