<svg width="24" height="25" viewBox="0 0 24 25" fill="none" xmlns="http://www.w3.org/2000/svg">
<path d="M12 2.81445C6.486 2.81445 2 7.30045 2 12.8145C2 18.3285 6.486 22.8145 12 22.8145C17.514 22.8145 22 18.3285 22 12.8145C22 7.30045 17.514 2.81445 12 2.81445ZM12 20.8145C7.589 20.8145 4 17.2255 4 12.8145C4 8.40345 7.589 4.81445 12 4.81445C16.411 4.81445 20 8.40345 20 12.8145C20 17.2255 16.411 20.8145 12 20.8145Z" fill="#A42747"/>
<path d="M13 7.81445H11V13.2285L14.293 16.5215L15.707 15.1075L13 12.4005V7.81445Z" fill="#A42747"/>
</svg>
