<svg width="24" height="24" viewBox="0 0 24 24" fill="none" xmlns="http://www.w3.org/2000/svg">
<path d="M19.487 19.9547L15.422 16.2587C15.2299 16.084 14.9774 15.9909 14.7178 15.9989C14.4583 16.0069 14.212 16.1155 14.031 16.3017L11.638 18.7627C11.062 18.6527 9.90401 18.2917 8.71201 17.1027C7.52001 15.9097 7.15901 14.7487 7.05201 14.1767L9.51101 11.7827C9.69742 11.6018 9.80614 11.3555 9.81417 11.0959C9.82219 10.8363 9.72889 10.5837 9.55401 10.3917L5.85901 6.32769C5.68405 6.13505 5.44089 6.0182 5.18116 6.00195C4.92143 5.98571 4.66561 6.07135 4.46801 6.24069L2.29801 8.10169C2.12512 8.27521 2.02193 8.50614 2.00801 8.75069C1.99301 9.00069 1.70701 14.9227 6.29901 19.5167C10.305 23.5217 15.323 23.8147 16.705 23.8147C16.907 23.8147 17.031 23.8087 17.064 23.8067C17.3085 23.793 17.5393 23.6894 17.712 23.5157L19.572 21.3447C19.742 21.1477 19.8283 20.8921 19.8124 20.6324C19.7965 20.3727 19.6798 20.1295 19.487 19.9547Z" fill="#A42747"/>
</svg>
