<svg width="454" height="454" viewBox="0 0 454 454" fill="none" xmlns="http://www.w3.org/2000/svg">
<path d="M50.2342 221.598C40.6414 227.364 27.5085 264.729 22.1411 282.691C9.69328 305.801 -10.3374 364.652 9.12229 415.174M50.2342 221.598C61.0832 210.157 85.7275 185.216 97.513 176.979C107.448 163.25 130.265 139.911 142.051 156.386C148.175 164.946 146.78 170.837 142.051 174.43M50.2342 221.598C57.7714 220.797 74.7644 223.52 82.4386 240.818C92.0314 262.441 99.5685 276.17 101.624 285.436C103.68 294.703 108.476 331.085 113.958 347.559C119.439 364.034 113.273 379.822 118.754 396.64C124.236 413.458 153.014 439.542 166.033 446.407C179.052 453.271 96.1426 449.152 94.087 444.691M50.2342 221.598C53.7744 224.229 62.2252 230.796 67.7068 236.013C74.5588 242.534 74.9014 250.771 75.244 258.665C75.5866 266.559 94.087 275.14 94.087 282.691C94.087 290.242 92.0314 294.36 87.235 305.343C82.4386 316.326 94.087 331.771 87.235 343.784C80.383 355.797 72.1606 352.708 67.7068 368.839C63.253 384.97 92.0314 399.042 101.624 407.28C111.217 415.517 123.208 423.411 118.754 431.305C114.3 439.199 92.0314 440.229 94.087 444.691M50.2342 221.598C45.6662 236.013 38.1747 271.845 44.7526 299.852C52.975 334.86 14.9465 401.445 9.12229 415.174M50.2342 221.598C62.111 207.526 91.4832 181.647 113.958 190.708C142.051 202.034 162.949 240.131 174.94 257.636M134.856 57.1952C129.032 66.4621 119.097 63.3731 110.532 79.5045C101.967 95.6358 113.958 107.305 95.8 126.182C77.6422 145.059 84.8368 167.712 92.0314 169.771C99.2259 171.831 99.9112 171.831 113.958 176.979C122.165 179.987 135.403 179.48 142.051 174.43M134.856 57.1952C140.68 47.9282 144.106 36.2588 155.755 23.2164M134.856 57.1952C142.829 50.3308 143.421 52.7333 154.384 50.3308C165.348 47.9282 166.375 42.4367 170.144 37.6316C173.159 33.7876 174.969 34.1994 175.497 34.8859M155.755 23.2164C160.209 20.8139 167.746 23.2164 175.497 25.6189C181.698 27.541 191.185 24.8181 195.154 23.2164M155.755 23.2164C162.999 15.1058 172.495 7.39347 185.561 3.54589M419.214 336.576C410.649 325.593 395.574 321.475 385.982 302.597C376.389 283.72 357.203 245.966 343.842 235.67C330.481 225.373 325.342 201.348 320.203 196.199C315.064 191.051 280.461 183.157 287.998 174.233C295.535 165.309 293.822 139.568 293.48 135.449C293.137 131.331 287.313 130.644 286.628 122.75C285.943 114.856 277.035 100.784 276.35 94.9494C275.665 89.1146 278.748 87.7417 278.748 81.2206C278.748 74.6994 275.322 58.2248 271.896 50.3308C268.47 42.4367 268.47 39.0045 264.359 39.0045C257.986 39.0045 262.646 38.6613 261.961 31.1104C261.641 27.586 257.365 21.6689 249.97 16.0114M419.214 336.576C427.779 347.559 326.369 371.241 323.286 381.538C320.203 391.835 391.463 417.919 394.204 431.305M419.214 336.576C485.767 402.957 441.346 437.62 394.204 431.305M394.204 431.305C396.945 444.691 301.36 447.093 301.017 437.14C300.674 427.186 329.453 338.979 327.74 310.835C326.027 282.691 325.342 267.589 320.203 275.14C315.064 282.691 309.239 396.296 278.748 437.14C248.257 477.983 241.062 427.53 248.257 423.411C255.451 419.292 256.137 437.14 252.711 437.14C249.285 437.14 246.886 435.424 247.914 428.902C248.942 422.381 264.016 419.635 269.155 407.28C274.294 394.924 279.091 350.991 249.285 347.559C219.478 344.127 215.025 377.763 217.765 389.432C220.506 401.102 225.988 422.038 248.257 419.979C270.526 417.919 272.924 359.229 246.201 358.542C219.478 357.856 226.555 412.085 245.173 407.28C263.791 402.475 264.016 384.97 255.109 381.538C254.309 381.195 252.711 379.891 252.711 377.419C252.711 374.33 250.312 366.78 245.173 368.839C240.034 370.898 239.692 378.106 242.09 380.852M242.09 380.852C241.862 381.309 241.199 382.224 240.377 382.224C239.349 382.225 236.266 384.627 238.664 387.716C239.254 388.475 239.346 389.007 239.135 389.432M242.09 380.852C242.09 380.394 242.09 379.067 242.09 377.419C242.09 375.36 244.831 372.958 246.544 373.644C248.257 374.33 250.326 375.703 250.662 379.136M249.285 387.03C249.285 385.657 252.025 383.254 252.711 385.313C253.396 387.373 250.655 393.208 248.257 394.924C245.859 396.64 244.488 394.924 244.488 396.64C244.488 398.356 251.34 404.191 243.803 405.22C236.266 406.25 233.182 397.669 234.21 393.894C234.985 391.047 238.488 390.737 239.135 389.432M249.285 387.03C249.285 388.402 248.257 392.521 247.229 392.521C246.201 392.521 241.747 390.119 242.775 389.432C243.803 388.746 245.859 389.432 245.173 387.03C244.488 384.627 244.146 382.911 242.775 382.911M249.285 387.03C249.285 385.382 248.371 383.823 247.914 383.249M242.775 382.911C241.405 382.911 243.46 381.195 245.173 382.568C245.973 383.209 246.998 383.401 247.914 383.249M242.775 382.911C239.349 382.495 240.034 386.343 240.377 387.373C240.651 388.196 239.663 389.089 239.135 389.432M264.359 50.3308C266.757 54.7926 271.896 69.5511 271.896 79.5045C271.896 89.4578 270.868 104.56 276.35 113.826C281.831 123.093 291.082 152.954 287.998 164.623C284.915 176.293 276.35 180.754 276.35 206.839C276.35 232.924 264.702 239.445 266.757 245.623C268.813 251.801 266.757 289.898 262.989 299.852C259.22 309.805 248.257 341.725 245.173 343.784C242.09 345.843 236.951 345.157 234.21 338.292C231.469 331.428 235.923 330.055 236.951 331.771C237.979 333.487 242.775 332.114 247.229 330.055C251.683 327.996 251.34 335.203 249.285 341.725C247.491 347.413 251.173 371.124 250.662 379.136M264.359 50.3308C261.961 45.8689 268.128 36.602 255.451 34.8859C253.946 34.6821 252.586 34.58 251.34 34.5519M264.359 50.3308C267.424 60.6274 261.961 78.2855 265.044 81.907C268.128 85.5286 265.387 94.9494 265.044 99.068C264.77 102.363 264.016 111.424 263.674 115.543C260.705 117.487 254.972 123.299 255.794 130.987C256.616 138.676 254.277 143.115 253.005 144.373M264.359 50.3308C252.848 40.1715 249.97 50.4452 249.97 56.8519C248.942 73.6697 242.775 76.6048 239.349 79.5045M229.756 34.8859C219.136 31.1105 203.719 19.0978 195.154 23.2164M229.756 34.8859C230.67 32.2545 229.962 24.9325 219.821 16.6952C207.145 6.39861 192.413 3.09571 185.561 3.54589M229.756 34.8859C239.116 38.2131 242.09 34.3431 251.34 34.5519M195.154 23.2164C188.754 26.294 179.867 29.5633 175.497 34.8859M172.885 41.0638C172.2 50.3308 175.283 60.9706 170.144 67.1486C165.005 73.3265 159.523 79.5045 153.357 79.5045C151.434 79.5045 149.278 79.2041 147.19 79.0717M172.885 41.0638C167.061 80.8773 139.995 71.2672 130.06 76.7587C120.125 82.2502 133.635 107.882 130.06 126.182C128.004 136.704 113.615 137.852 110.532 151.924C106.349 171.011 127.341 178.799 142.051 174.43M172.885 41.0638C173.058 38.7216 174.019 36.6862 175.497 34.8859M174.94 257.636C171.514 248.369 162.859 236.141 150.616 215.076C134.856 187.962 149.245 180.411 150.616 169.771C151.986 159.131 144.792 154.67 142.051 149.521C139.31 144.373 147.875 135.449 147.19 126.182C146.505 116.915 142.051 117.945 142.051 112.11C142.051 107.874 139.161 100.741 137.971 93.6044M174.94 257.636C178.366 266.903 182.82 269.648 187.617 268.619C192.413 267.589 203.719 259.009 207.145 253.517C210.571 248.025 211.941 238.759 220.849 238.415C229.756 238.072 245.167 255.576 250.138 258.665C255.109 261.754 269.498 265.53 272.924 258.665C276.35 251.801 273.573 236.991 265.044 238.415C254.766 240.131 265.044 283.034 252.368 309.462C241.98 331.119 250.138 338.533 243.46 341.725C240.368 343.202 237.636 342.068 238.321 338.292C239.007 334.517 244.146 332.606 245.173 334.86C246.201 337.114 239.692 340.695 235.581 336.233C231.469 331.771 224.96 307.746 216.052 288.182C207.145 268.619 198.237 259.009 200.293 254.547C202.348 250.085 206.117 248.712 210.571 258.665C215.025 268.619 236.951 326.623 238.321 328.339C239.692 330.055 245.859 331.085 245.516 327.653C245.173 324.22 239.349 322.847 237.636 325.936C235.923 329.025 243.587 328.013 242.09 328.339C234.21 330.055 199.633 255.717 200.293 238.415C201.183 215.076 214.682 196.199 223.59 196.199C240.034 196.199 252.068 245.966 257.164 246.996M257.164 246.996C262.261 248.025 273.784 221.598 261.961 208.898C250.138 196.199 241.062 188.992 245.173 179.381C249.285 169.771 261.961 164.966 261.961 161.877C261.961 159.494 259.45 150.511 253.005 144.373M257.164 246.996C241.405 241.848 233.966 223.314 219.478 225.03C205.467 226.689 196.978 246.692 185.218 242.534C173.57 238.415 179.052 221.941 166.718 210.615C154.384 199.288 158.838 171.831 159.866 166.682C160.894 161.534 151.986 155.356 152.329 148.492C152.671 141.627 154.384 139.911 153.357 135.449C152.329 130.987 150.616 118.975 150.616 112.11C150.616 105.246 143.764 100.784 143.079 99.068C142.393 97.3519 144.106 92.2036 146.162 89.4579C148.218 86.7121 145.477 84.3095 142.051 83.9663C139.31 83.6917 138.189 90.2773 137.971 93.6044M246.201 139.911C254.972 147.874 251.683 157.873 248.942 161.877M246.201 139.911C244.209 123.986 235.778 116.572 231.812 114.856M246.201 139.911C243.689 134.305 237.979 123.78 235.238 126.526M246.201 139.911C248.839 140.985 251.095 142.554 253.005 144.373M246.201 139.911C236.32 135.89 236.18 131.663 224.96 129.958M220.849 129.958C216.071 129.532 211.461 130.987 201.183 137.509C195.437 141.154 189.672 142.657 187.617 149.521C186.3 153.918 192.47 165.365 196.867 166.682M220.849 129.958C220.278 133.028 220.027 139.947 223.59 143.064M220.849 129.958C222.37 130.093 223.732 129.771 224.96 129.958M196.867 166.682C183.412 168.211 174.94 152.954 169.116 148.492C163.292 144.03 148.903 99.068 149.246 92.2036C149.52 86.7121 147.989 81.1609 147.19 79.0717M196.867 166.682C196.71 164.688 197.068 160.386 197.552 158.445M197.552 158.445C195.154 154.326 196.935 145.746 205.432 144.373C209.881 143.654 216.738 142.891 223.59 143.064M197.552 158.445C198.141 156.086 199.416 152.38 201.183 150.894M185.561 3.54589C193.506 1.20628 202.772 0.295682 213.654 1.59353C229 3.42373 241.521 9.54807 249.97 16.0114M251.34 34.5519C253.167 33.6335 256.822 31.1791 256.822 28.7079C256.822 25.6189 254.424 19.1298 249.97 16.0114M94.087 444.691C12.6768 448.466 3.2981 428.902 9.12229 415.174M147.19 79.0717C142.581 78.7794 138.304 79.305 137.597 85.6824C137.316 88.2203 137.522 90.9127 137.971 93.6044M147.19 79.0717C149.588 80.7032 154.384 85.0646 154.384 89.4579C154.384 94.9494 167.061 119.661 169.116 123.78C170.962 127.477 179.709 141.961 186.931 142.9C187.755 143.007 188.558 142.938 189.33 142.657C190.281 141.338 191.981 138.921 193.441 136.704M248.942 161.877C248.668 163.25 246.886 164.623 245.516 166.682C242.341 171.453 246.201 158.102 242.775 152.267C241.599 150.265 238.632 149.515 235.923 148.492M248.942 161.877C249.144 160.865 248.154 157.584 246.886 154.57C246.005 152.474 244.989 150.507 244.146 149.521C240.147 144.848 231.873 143.273 223.59 143.064M201.183 150.894C204.99 147.691 213.97 146.432 219.821 146.432C225.447 146.432 230.739 146.533 235.923 148.492M201.183 150.894C202.713 151.123 206.597 151.855 209.886 152.954C213.997 154.326 222.786 154.541 225.988 153.983C233.868 152.61 233.966 148.492 235.923 148.492M205.432 122.407C205.089 123.093 197.209 130.301 195.496 133.39C195.004 134.278 194.26 135.46 193.441 136.704M205.432 122.407C205.774 121.721 205.432 114.513 209.2 115.543C210.679 115.946 206.46 113.483 203.034 116.915C200.635 119.318 197.552 128.632 193.441 136.704M205.432 122.407C205.432 124.466 206.323 128.448 209.886 127.898M209.886 127.898C214.339 127.212 213.312 125.496 215.367 125.839C217.423 126.182 218.451 128.928 222.562 128.928C226.673 128.928 227.358 126.526 229.414 126.526C231.469 126.526 233.182 128.242 235.238 126.526M209.886 127.898C209.543 127.212 209.063 125.633 209.886 124.81C210.913 123.78 215.025 123.78 216.738 124.81C218.451 125.839 219.821 127.898 223.59 127.555M235.238 126.526C237.294 124.81 237.195 121.721 235.923 119.318C234.651 116.915 233.182 115.886 231.812 114.856M235.238 126.526C235.923 125.153 233.369 124.81 230.442 124.81C227.358 124.81 227.358 127.212 223.59 127.555M231.812 114.856C230.442 113.826 230.099 105.589 230.442 104.216C230.644 103.406 231.204 100.803 230.643 98.3816M227.358 94.2629C226.561 93.9206 225.754 93.7111 224.96 93.6044M227.358 94.2629C229.277 94.7898 231.127 95.6265 231.812 95.979M227.358 94.2629C229.324 95.1069 230.254 96.7003 230.643 98.3816M216.738 95.979C215.367 98.0383 213.997 106.276 213.997 106.276C213.997 106.276 213.997 106.962 212.626 109.708M216.738 95.979C217.88 94.2629 220.976 93.069 224.96 93.6044M216.738 95.979C214.271 107.237 202.234 113.254 196.524 114.856M223.59 127.555C225.188 127.098 228.729 124.398 228.729 121.377C228.729 117.602 225.988 114.856 225.988 111.424C225.988 108.678 225.645 102.271 225.988 99.068C226.102 97.2761 226.056 93.6746 224.96 93.6044M224.96 93.6044C222.09 92.5283 216.912 94.0527 214.682 94.9494M215.367 91.174C213.654 88.085 207.967 82.0443 198.922 82.5935M215.367 91.174C215.367 91.9312 215.23 93.7465 214.682 94.9494M215.367 91.174C218.409 90.0985 224.422 88.8125 228.729 90.2854M215.367 91.174C217.423 86.3689 217.423 79.5045 214.682 79.5045C211.941 79.5045 199.95 78.1316 193.098 75.729C186.246 73.3265 176.653 81.2206 175.968 87.3985C175.42 92.3409 178.252 93.1189 179.737 92.8901C177.681 95.979 179.737 77.4451 194.811 81.2206L198.922 82.5935M215.367 91.174C217.765 83.2799 224.96 82.5934 224.96 72.2968M231.812 92.2036C233.182 88.3138 238.321 80.8087 247.914 81.907C255.613 82.7885 259.499 86.641 261.294 90.2854M231.812 92.2036V95.979M231.812 92.2036C230.981 91.3113 229.92 90.6928 228.729 90.2854M231.812 95.979C232.53 99.9833 236.55 108.198 246.886 109.021C259.807 110.051 262.646 99.4112 262.646 95.6358C262.646 94.2844 262.295 92.3173 261.294 90.2854M214.682 94.9494C213.083 99.068 207.282 107.374 196.867 107.649M198.922 82.5935C190.273 83.1186 185.834 87.8952 184.226 91.174C183.732 92.1808 183.505 93.0465 183.505 93.6044C183.505 95.979 183.848 107.992 196.867 107.649M196.867 107.649C201.092 105.017 209.269 98.2443 208.173 92.2036C208.058 91.9748 207.487 91.3112 206.117 90.4875C205.923 90.3709 205.678 90.2027 205.432 90.0087M250.662 379.136C250.587 380.308 250.277 381.072 250.138 381.538C249.866 382.453 248.96 383.075 247.914 383.249M204.404 88.9343C203.694 87.6549 203.437 86.6901 202.006 86.451C201.223 86.3204 200.386 86.1125 198.922 86.451M204.404 88.9343C204.002 91.2225 200.978 95.2926 196.524 95.6358C189.692 96.1623 188.63 93.053 187.602 88.9343C189.067 88.4643 189.174 88.1681 190.7 88.0331M204.404 88.9343C204.598 89.284 205.018 89.6827 205.432 90.0087M198.922 86.451C199.608 88.0254 200.293 91.5172 197.552 92.8901C194.126 94.6061 189.672 93.1295 190.7 88.0331M198.922 86.451C196.703 86.9644 193.83 87.7561 190.7 88.0331M246.201 107.305C255.794 109.021 261.964 99.9566 260.248 92.8901C258.247 84.6528 247.229 82.8545 242.09 84.6528C236.951 86.451 232.497 92.5468 234.21 97.0087C234.781 99.7544 237.979 105.658 246.201 107.305ZM246.201 107.305C255.52 105.383 258.535 97.5807 258.535 94.2629C258.456 94.0418 257.277 93.8221 257.164 93.6044M257.164 93.6044C247.615 102.413 237.294 95.6358 234.895 92.2036C235.005 91.9628 235.114 91.7342 235.223 91.5172M257.164 93.6044C256.309 91.9501 255.949 90.9912 254.238 90.2854M242.09 87.3985C239.692 88.239 240.72 93.6044 244.831 93.6044C248.942 93.6044 250.312 90.8307 249.627 88.7714M242.09 87.3985C244.443 87.2165 247.302 88.0342 249.627 88.7714M242.09 87.3985C238.35 87.6879 236.777 88.429 235.223 91.5172M249.627 88.7714C251.299 89.3016 252.872 89.7216 254.238 90.2854M228.729 90.2854C229.331 86.6329 232.804 82.1191 239.349 79.5045M261.294 90.2854C265.694 83.2594 256.948 78.7977 252.025 77.4451C246.425 76.4166 242.729 78.1543 239.349 79.5045M194.126 88.0331C193.555 88.6224 192.893 89.8697 194.811 90.1443C197.209 90.4875 196.867 88.3244 196.524 88.0331C196.182 87.7417 194.529 87.852 194.247 88.0331M245.859 114.856C239.349 109.708 233.243 110.312 230.643 98.3816M224.96 129.958C224.96 132.885 223.59 143.064 233.415 144.116M235.223 91.5172C239.08 96.0986 252.368 100.098 254.238 90.2854M205.432 90.0087C204.459 95.3374 193.274 102.617 185.337 92.8901M185.337 92.8901C184.94 97.2914 185.305 105.008 195.496 106.276C200.592 106.909 210.515 102.91 213.512 93.6044C213.012 90.2119 208.173 83.8321 199.424 84.0265C194.641 84.1328 185.936 87.9231 185.337 92.8901ZM244.831 88.085C245.645 88.085 246.612 88.2223 246.886 88.7714C247.229 89.4578 247.229 91.174 245.516 91.174C243.118 91.174 243.118 88.085 244.831 88.085Z" stroke="url(#paint0_linear)" stroke-width="1.3635" stroke-linecap="round" stroke-linejoin="round"/>
<defs>
<linearGradient id="paint0_linear" x1="176.818" y1="6.12805" x2="270.291" y2="396.756" gradientUnits="userSpaceOnUse">
<stop stop-color="#0074B4"/>
<stop offset="0.31444" stop-color="#0074B4"/>
<stop offset="0.591604" stop-color="#0074B4" stop-opacity="0.4"/>
<stop offset="1" stop-color="#0074B4" stop-opacity="0"/>
</linearGradient>
</defs>
</svg>
