<svg width="1920" height="560" viewBox="0 0 1920 560" fill="none" xmlns="http://www.w3.org/2000/svg">
<rect opacity="0.5" width="1920" height="560" fill="#EDF6F9"/>
<mask id="mask0" mask-type="alpha" maskUnits="userSpaceOnUse" x="0" y="0" width="1920" height="560">
<rect width="1920" height="560" fill="#EDF6F9"/>
</mask>
<g mask="url(#mask0)">
<g opacity="0.6" filter="url(#filter0_f)">
<path d="M-676 380.5C-676 449.812 -364.559 506 19.6235 506H2140V255H19.6235C-364.559 255 -676 311.188 -676 380.5Z" fill="url(#paint0_linear)"/>
</g>
<circle opacity="0.8" cx="1223.5" cy="140.5" r="45.5" fill="url(#paint1_linear)"/>
<circle opacity="0.6" cx="288" cy="-104" r="311" transform="rotate(90 288 -104)" fill="url(#paint2_linear)"/>
<circle opacity="0.8" cx="1138.5" cy="176.5" r="23.5" fill="white"/>
<circle opacity="0.8" cx="780.5" cy="147.5" r="23.5" fill="white"/>
<path d="M867 290.588C867 296.495 881.973 301.284 900.442 301.284C910.001 301.284 909.121 303.773 916.102 303.773C930.588 303.773 922.49 297.95 925.94 294.916C929.838 294.165 931.789 293.94 933.215 292.279C934.642 290.618 931.386 288.5 927.886 286.809L922.684 287.845L925.94 292.279L913.609 299.622L894.627 297.544H883.612L875.646 294.842L873.221 291.171L880.772 287.43L884.199 281.236C873.94 283.063 867 286.566 867 290.588Z" fill="#EDF6F9"/>
<path d="M1052.88 296.274C1052.88 302.612 1030.68 307.75 1003.28 307.75C985.585 308.948 989.205 301.441 980.857 299.964C969.005 297.867 956.742 292.965 956.742 289.246C956.742 286.41 960.576 285.222 967.267 284.774C967.286 284.772 967.306 284.771 967.326 284.77C967.306 284.771 967.286 284.773 967.267 284.774C965.265 284.938 963.857 288.238 963.4 289.883L974.481 286.914L977.098 289.246L982.332 295.099H986.171L996.03 288.611L1003.28 292.259L1024.63 296.274L1026.96 297.938L1033.25 298.952L1040.35 295.099L1044.49 289.883C1049.79 291.71 1052.88 293.908 1052.88 296.274Z" fill="url(#paint3_linear)"/>
<path d="M880.295 288.638C882.302 286.119 884.548 287.374 885.42 288.317L883.231 285.489H880.722L878.106 287.784L874.21 289.492H871.701L869.566 290.293L868.551 292.321L867.697 293.442L868.551 294.99L870.206 294.19L872.556 294.99C878.876 297.723 882.912 297.837 884.139 297.553C892.083 297.902 898.87 299.185 901.271 299.783L900.604 297.553C898.061 295.933 887.483 295.844 882.512 296.002C879.538 294.104 874.705 293.983 874.53 292.321C874.317 290.293 877.786 291.787 880.295 288.638Z" fill="#EDF6F9"/>
<path d="M901.389 299.776C900.545 298.434 899.111 294.808 900.123 291.036C898.583 291.021 896.413 290.984 894.259 290.918C890.784 290.811 887.35 290.63 886.668 290.346C885.288 289.771 884.713 284.596 881.723 284.941C880.652 285.064 879.936 285.542 879.309 286.13C878.543 285.355 877.183 283.631 876.231 281.49C875.987 280.94 875.769 280.362 875.595 279.766C875.463 279.315 875.357 278.853 875.283 278.385C875.596 277.665 877.223 276.711 881.264 277.536C882.172 277.721 883.203 277.997 884.369 278.385C884.914 278.567 885.623 278.548 886.436 278.385C890.771 277.519 898.078 272.581 899.434 272.291C900.579 272.045 902.364 271.044 902.679 268.955C908.651 269.453 921.882 271.048 927.034 273.44C933.474 276.43 932.554 282.065 928.759 286.55C928.491 286.934 926.988 287.769 923.124 288.045C925.271 289.617 928.713 293.703 925.309 297.475C921.054 302.19 917.374 301.385 913.234 300.925C909.922 300.557 907.561 300.465 906.794 300.465C906.986 300.619 906.978 300.879 905.414 300.695C903.459 300.465 901.929 300.811 901.389 299.776Z" fill="#EDF6F9"/>
<path d="M879.9 277.509C878.026 276.507 875.013 278.125 875.585 279.144C876.177 282.166 878.493 284.907 879.577 285.899L880.779 285.404L882.546 284.98L884.101 285.899L886.574 290.281L888.765 290.705C894.066 290.728 905.474 290.761 908.697 290.705C911.92 290.648 915.458 292.236 916.825 293.037C916.118 287.948 900.427 285.404 891.805 284.414C884.906 283.623 880.994 279.481 879.9 277.509Z" fill="#CFE2E8"/>
<path d="M894.092 277.315C892.167 278.32 887.953 278.815 886.087 278.937L894.092 274.961L898.278 273.025L901.155 272.031L903.144 269.206C903.3 270.967 903.384 274.448 902.463 274.281C901.312 274.071 896.499 276.06 894.092 277.315Z" fill="#CFE2E8"/>
<path d="M910.671 274.281C909.339 273.953 905.637 272.241 905.707 271.404L903.144 275.798L906.387 278.153C909.275 279.074 919.101 285.303 923.653 288.303C930.183 287.717 931.606 283.594 931.501 281.606C929.311 286.228 930.103 282.693 927.782 278.937C925.842 275.798 921.951 277.054 910.671 274.281Z" fill="#CFE2E8"/>
<path d="M908.116 297.889C904.646 297.981 901.581 297.58 900.482 297.368L901.155 299.614L902.463 300.655H906.659L919.626 301.034C921.646 300.513 925.279 298.336 923.653 293.792C922.549 290.705 920.021 290.096 914.847 289.249C919.04 290.338 919.78 292.228 919.626 293.037C921.882 298.539 912.454 297.773 908.116 297.889Z" fill="#CFE2E8"/>
<path d="M875.605 224.196C874.393 223.504 874.475 222.224 874.667 221.671C873.799 222.282 871.723 224.496 870.366 228.462C868.67 233.419 869.846 235.442 868.084 243.726C866.323 252.01 869.192 256.12 871.149 262.578C873.105 269.036 872.288 268.496 871.927 271.807C871.638 274.456 873.412 274.877 874.335 274.757C874.335 277.358 874.857 278.409 875.118 278.61C874.684 276.106 882.52 277.056 886.493 277.845C886.277 276.523 885.858 273.085 885.916 269.913C885.988 265.947 885.267 264.793 881.517 259.889C878.518 255.967 877.864 254.121 877.912 253.688C880.291 256.741 886.161 263.091 890.603 264.072C895.045 265.052 897.165 261.692 897.67 259.889C894.497 264.216 892.646 256.548 892.117 252.174C886.277 248.28 882.238 239.266 878.849 234.29C876.138 230.31 875.556 225.902 875.605 224.196Z" fill="#EDF6F9"/>
<path d="M882.335 214.705C883.846 220.261 878.596 225.482 875.835 224.929C875.094 224.781 873.835 224.296 874.724 223.54C875.613 222.784 876.28 220.188 876.502 218.984C878.235 218.717 881.113 216.02 882.335 214.705Z" fill="#EDF6F9"/>
<path d="M877.444 262.108C871.692 259.921 868.745 250.05 867.991 245.387C867.158 247.682 867.84 252.26 868.285 254.263L872.342 266.405C872.182 268.301 871.872 272.369 871.915 273.479C871.958 274.59 873.484 275.112 874.241 275.234C873.772 275.781 875.413 279.219 875.413 278.515C875.413 277.812 881.117 277.656 880.023 276.875C878.929 276.093 871.819 273.281 875.413 272.577C879.007 271.874 884.398 272.343 882.21 271.796C880.023 271.249 875.726 265.233 877.444 264.452C878.818 263.827 882.653 265.493 884.398 266.405C884.476 265.884 883.195 264.296 877.444 262.108Z" fill="#CFE2E8"/>
<path d="M884.398 264.452L878.153 254.861C884.39 261.058 890.351 263.928 888.068 263.08C886.241 262.402 884.86 263.712 884.398 264.452Z" fill="#CFE2E8"/>
<path d="M895.638 271.796C898.64 269.046 893.586 270.65 890.684 271.796C895.713 268.316 900.485 266.752 902.243 266.405C902.318 269.73 891.885 275.234 895.638 271.796Z" fill="#CFE2E8"/>
<path d="M889.726 233.121C887.908 230.468 888.968 229.067 889.726 228.699L891.998 230.418L893.411 233.121L893.78 237.605C894.271 239.284 894.824 242.212 893.104 240.492C890.954 238.342 891.998 236.438 889.726 233.121Z" fill="#CFE2E8"/>
<path d="M892.278 225.53L891.765 226.943C892.436 227.871 893.95 229.615 894.633 229.169C895.316 228.724 895.232 226.558 895.104 225.53H892.278Z" fill="#CFE2E8"/>
<path d="M902.243 246.873L904.048 243.864C906.961 248.727 901.716 251.435 903.517 252.774C905.768 254.447 909.182 250.886 911.011 250.709C912.475 250.567 916.152 251.028 917.063 249.848L917.266 249.056H919.154C918.918 251.134 917.994 252.4 917.561 252.774L911.719 251.889C909.123 253.777 903.792 254.957 901.452 255.311C901.137 255.161 900.555 254.597 900.744 253.541C900.932 252.485 901.822 248.656 902.243 246.873Z" fill="#CFE2E8"/>
<path d="M919.154 237.153L920.132 238.926L918.222 239.836L919.154 237.153Z" fill="#CFE2E8"/>
<path d="M928.407 251.889L922.042 241.927H920.359L927.543 254.522L928.407 251.889Z" fill="#CFE2E8"/>
<path d="M927.13 239.836L925.929 237.995L928.407 236.949L929.802 237.608V238.926L927.13 239.836Z" fill="#CFE2E8"/>
<path d="M881.347 194.57C880.696 190.51 877.692 192.084 876.271 193.379C864.288 197.893 870.902 211.97 875.707 218.444C878.652 217.672 883.904 215.687 881.347 213.932C878.152 211.739 878.213 207.227 879.78 206.036C881.347 204.846 885.483 205.786 885.483 206.35C885.483 206.914 885.085 208.599 885.483 211.05C887.864 225.72 882.086 226.437 882.65 226.437C883.214 226.437 887.864 230.822 887.864 220.826C887.864 218.554 891.687 223.544 894.988 220.488C895.423 220.085 893.091 221.591 891.321 219.765C889.167 217.544 887.406 211.736 886.924 208.606C886.047 202.903 896.714 203.002 894.988 198.101C892.132 189.993 882.161 199.645 881.347 194.57Z" fill="#EDF6F9"/>
<path d="M894.988 236.156V243.69C897.499 241.545 899.227 242.853 898.286 242.068C897.532 241.44 898.286 237.668 902.449 237.668L894.988 236.156Z" fill="#EDF6F9"/>
<path d="M887.637 204.001C878.449 203.76 876.303 196.946 876.379 193.568C868.68 192.354 868.56 206.758 870.278 210.602C871.997 214.446 877.133 217.023 878.88 215.013C880.627 213.004 878.836 210.864 878.487 210.602C878.207 210.392 878.895 207.952 879.273 206.758L881.632 205.272H884.078L885.782 207.282L887.005 208.461L887.637 204.001Z" fill="url(#paint4_linear)"/>
<g filter="url(#filter1_i)">
<path d="M920.141 241.796C920.675 241.904 921.509 242.073 922.024 241.73C922.024 241.73 922.467 241.224 922.485 240.829C922.506 240.371 922.372 239.997 921.939 239.846C921.556 239.713 921.314 239.145 920.792 238.932C920.535 238.827 920.109 238.74 920.109 238.74C919.407 238.834 919.067 239.572 918.459 239.775L919.149 237.015L926.278 234.82C928.469 234.112 932.935 234.137 933.886 237.627C933.989 238.003 934.033 238.422 934.001 238.845L934.372 242.763C934.127 243.804 932.67 244.649 930.651 244.965L933.633 249.534L932.629 252.261L927.644 254.395L921.22 243.628L920.126 241.793L920.141 241.796Z" fill="url(#paint5_linear)"/>
</g>
<path d="M922.024 241.73L928.375 251.965M922.024 241.73C921.505 242.076 920.659 241.901 920.126 241.793L921.22 243.628L927.644 254.395M922.024 241.73C922.024 241.73 922.467 241.224 922.485 240.829C922.506 240.371 922.372 239.997 921.939 239.846C921.556 239.713 921.314 239.145 920.792 238.932C920.535 238.827 920.109 238.74 920.109 238.74M928.375 251.965L927.644 254.395M928.375 251.965L933.633 249.534M927.644 254.395L932.629 252.261L933.633 249.534M933.633 249.534L930.651 244.965M919.149 237.015L926.278 234.82C928.469 234.112 932.935 234.137 933.886 237.627M919.149 237.015L920.109 238.74M919.149 237.015L918.459 239.775C919.067 239.572 919.407 238.834 920.109 238.74M933.886 237.627C934.245 238.944 933.886 240.789 932.093 241.5L929.124 242.551L930.651 244.965M933.886 237.627L934.372 242.763C934.127 243.804 932.67 244.649 930.651 244.965M925.803 237.763L927.316 240.012L928.612 239.439C929.407 239.218 930.594 238.437 929.447 237.464C928.322 236.509 926.997 237.401 925.803 237.763Z" stroke="#1183B4" stroke-width="0.980101" stroke-linecap="round" stroke-linejoin="round"/>
<path d="M933.497 249.633L928.622 251.905L927.533 254.366L932.597 252.615L933.497 249.633Z" fill="#1183B4"/>
<path d="M930.988 245.279L929.165 242.647C932.809 241.701 933.607 240.499 933.923 239.883C934.112 240.609 934.462 242.259 934.349 243.054C934.235 243.85 932.061 244.869 930.988 245.279Z" fill="#1183B4"/>
<path d="M901.61 299.862C900.153 299.555 896.297 298.781 892.525 298.137C890.587 297.806 888.106 297.786 885.504 297.702M901.61 299.862C900.766 298.52 899.333 294.894 900.345 291.122M901.61 299.862C902.15 300.897 903.68 300.552 905.635 300.782C907.199 300.966 907.207 300.705 907.015 300.552M900.345 291.122C900.306 290.892 900.69 290.454 902.53 290.546C904.83 290.661 905.405 290.316 905.635 290.776M900.345 291.122C898.804 291.107 896.634 291.07 894.48 291.004C891.005 290.898 887.571 290.716 886.89 290.432C885.51 289.857 884.935 284.682 881.944 285.027C880.874 285.15 880.157 285.628 879.53 286.216M868.72 291.697C869.64 289.166 872.284 289.626 875.504 289.051C877.571 288.682 878.406 287.271 879.53 286.216M868.72 291.697C868.073 292.157 867.685 293.192 868.144 294.342C868.336 294.534 868.926 294.802 869.754 294.342C869.754 293.997 870.766 293.813 874.814 295.837C877.795 297.327 881.774 297.581 885.504 297.702M868.72 291.697C868.511 292.272 868.605 292.617 868.72 293.077M879.53 286.216C878.764 285.441 877.405 283.717 876.453 281.576M902.415 265.937C899.502 266.742 893.031 269.019 890.455 271.687M902.415 265.937C902.837 264.863 903.427 261.958 902.415 258.922C901.86 257.256 901.441 255.952 901.15 255.026M902.415 265.937C902.913 267.166 903.028 268.193 902.9 269.041M900.69 253.517C900.345 254.858 899.264 258.3 897.7 261.336C895.745 265.131 891.49 265.937 886.89 262.256C884.796 260.58 881.037 257.062 877.46 253.614M900.69 253.517C902.033 249.561 902.17 247.345 902.07 246.731M900.69 253.517C900.759 253.759 900.911 254.265 901.15 255.026M875.816 279.852C875.685 279.401 875.578 278.94 875.504 278.471C875.818 277.752 877.444 276.797 881.485 277.622M875.816 279.852C875.148 279.43 874.013 277.897 874.814 275.137M875.816 279.852C875.99 280.448 876.208 281.026 876.453 281.576M874.814 275.137C875.236 275.137 876.356 275.137 877.46 275.137M874.814 275.137C873.588 275.367 871.319 274.999 872.055 271.687C872.323 270.575 872.699 267.731 872.055 265.247C871.25 262.142 865.959 251.907 868.144 244.431C870.33 236.956 867.684 229.136 874.814 221.891C874.93 221.393 875.367 220.327 876.195 220.051M876.195 220.051V218.786M876.195 220.051C876.08 220.588 875.781 221.776 875.505 222.236C875.16 222.811 873.55 224.076 875.965 224.651M876.195 218.786C872.86 215.911 866.926 207.769 869.87 198.201C870.56 196.208 872.791 192.405 876.195 193.141C876.487 191.378 878.675 188.541 885.201 188.541C895.515 188.542 903.872 194.745 899.195 200.846M876.195 218.786C878.188 218.556 880.818 217.332 882.175 215.077C882.573 214.416 882.889 213.86 881.059 212.921C877.245 210.966 878.035 205.078 882.175 205.549M875.965 224.651C878.38 225.226 883.21 227.641 885.51 227.641C887.81 227.641 888.615 226.261 887.35 225.226M875.965 224.651C875.658 226.376 875.873 230.838 879.185 234.886M887.35 225.226V226.031M887.35 225.226C887.322 224.245 887.396 222.486 887.798 221.431M896.435 218.096C895.86 218.441 895.975 221.086 894.365 221.661C892.755 222.236 891.835 221.891 890.34 221.086C889.144 220.442 888.538 220.511 888.385 220.626C888.138 220.75 887.946 221.043 887.798 221.431M896.435 218.096C897.01 217.751 897.7 218.211 898.045 217.751C898.39 217.291 898.045 216.256 897.7 216.141M896.435 218.096C894.871 220.397 894.94 224.114 895.17 225.686M896.435 218.096C897.048 217.866 898.16 217.773 897.7 219.246C897.125 221.086 896.78 222.811 898.62 226.721C900.092 229.849 900.92 234.924 901.15 237.071M897.7 216.141C897.424 216.049 896.512 216.333 896.09 216.486M897.7 216.141C898.39 215.949 899.77 215.405 899.77 214.761C899.77 213.956 898.505 213.496 898.62 212.921C898.669 212.675 899.034 212.534 899.418 212.346M899.195 200.846C899.54 205.675 898.505 203.721 898.505 206.481C898.505 209.241 900.115 209.586 900.345 210.966C900.477 211.755 899.931 212.093 899.418 212.346M899.195 200.846C898.236 198.284 896.391 200.611 895.63 197.567C895.63 198.18 897.125 202.699 889.535 203.375C886.69 203.629 887.58 206.825 886.89 208.665C886.567 209.527 885.97 205.877 884.245 205.446C883.364 205.226 882.681 205.292 882.175 205.549M885.51 211.426C885.395 212.001 884.682 212.806 882.75 211.426C880.849 210.068 880.302 206.501 882.175 205.549M882.388 207.774C882.963 205.73 884.829 207.234 884.829 208.499C884.913 208.759 884.36 208.321 884.245 209.011C884.13 209.701 884.82 210.161 885.201 210.391M887.798 221.431C888.99 221.852 891.559 223.294 892.295 225.686M892.295 225.686C892.142 225.877 891.858 226.398 891.95 226.951M892.295 225.686C892.64 225.379 893.698 224.95 895.17 225.686M891.95 226.951C891.03 226.606 890.685 226.721 890.11 227.296C889.535 227.871 890.11 228.791 891.49 230.056C892.594 231.068 892.64 231.321 892.525 231.321C893.261 233.437 895.208 235.346 896.09 236.036M891.95 226.951C892.87 227.641 892.985 227.986 893.56 228.676C893.796 228.959 893.872 229.084 894.365 229.198M895.17 225.686C895.247 225.954 895.262 226.652 894.71 227.296M901.15 237.071C900.575 236.764 898.758 236.128 896.09 236.036M901.15 237.071C903.91 238.336 906.095 241.096 905.52 241.556C905.229 241.789 904.673 242.611 904.15 243.515M896.09 236.036C895.4 235.959 893.997 235.99 893.905 236.726C893.813 237.462 893.867 241.863 893.905 243.971M896.09 229.021C895.643 229.34 894.982 229.34 894.365 229.198M894.365 229.198C894.633 229.062 895.262 228.607 895.63 227.871M893.905 243.971C893.407 244.661 892.318 246.179 891.95 246.731M893.905 243.971C895.677 243.552 899.198 243.382 901.15 245.359C901.521 245.735 901.835 246.188 902.07 246.731M902.07 246.731C902.262 246.846 902.714 246.846 902.99 245.926C903.161 245.358 903.639 244.397 904.15 243.515M870.445 246.731C871.406 247.692 872.655 248.93 874.048 250.296M891.95 246.731C892.755 246.578 894.618 247.237 895.63 251.101M891.95 246.731C891.72 246.731 891.168 246.8 890.8 247.076C890.953 246.846 891.168 246.225 890.8 245.581C890.34 244.776 891.49 244.316 890.8 241.901C890.481 240.783 889.814 239.961 889.19 239.355M887.798 237.991C887.798 238.238 888.465 238.651 889.19 239.355M889.19 239.355C889.235 238.703 889.175 237.743 888.899 236.726M885.51 232.471C887.481 233.372 888.461 235.12 888.899 236.726M874.048 250.296C874.61 248.993 875.781 245.996 875.965 244.431C876.195 242.476 875.16 237.301 879.185 234.886M874.048 250.296C875.122 251.349 876.281 252.478 877.46 253.614M879.185 234.886C883.21 232.471 887.342 234.097 888.899 236.726M902.9 269.041C902.585 271.13 900.8 272.131 899.655 272.377C898.299 272.667 890.992 277.605 886.657 278.471M902.9 269.041C908.872 269.54 922.103 271.134 927.255 273.526C933.696 276.516 932.776 282.151 928.98 286.636C928.712 287.02 927.209 287.855 923.345 288.131M923.345 288.131C925.492 289.703 928.934 293.79 925.53 297.562C921.275 302.277 917.595 301.472 913.455 301.012C910.143 300.644 907.782 300.552 907.015 300.552M923.345 288.131C920.977 286.447 916.353 283.389 911.96 281.043M902.99 275.941C901.15 275.596 899.54 275.941 898.16 275.941M902.99 275.941C903.39 276.016 903.781 276.183 904.15 276.401M902.99 275.941C903.642 275.353 905.083 273.541 905.635 270.997M907.015 300.552C906.744 300.633 906.109 300.15 905.52 297.793M905.635 290.776C905.252 291.413 904.646 293.5 905.29 296.757C905.365 297.137 905.442 297.481 905.52 297.793M905.635 290.776C906.256 290.88 907.619 290.948 909.315 290.7M911.96 290.086C911.032 290.386 910.134 290.58 909.315 290.7M909.315 290.7C910.734 290.955 914.214 291.811 916.79 293.192M876.453 281.576C877.191 280.761 878.578 279.372 879.828 278.471M881.485 277.622C882.394 277.807 883.424 278.083 884.59 278.471C885.135 278.653 885.844 278.634 886.657 278.471M881.485 277.622C881.029 277.701 880.445 278.027 879.828 278.471M879.828 278.471C881.492 280.12 886.246 283.577 891.95 284.221C899.08 285.027 917.02 289.396 918.17 290.546C919.32 291.697 920.47 293.537 919.32 295.837C918.4 297.677 909.737 297.908 905.52 297.793M904.15 276.401C905.139 276.987 905.962 277.941 906.325 278.471C907.998 279.048 909.955 279.971 911.96 281.043M904.15 276.401C908.478 276.454 917.572 276.667 919.32 277.091C921.505 277.622 924.035 279.046 923.115 280.081C922.195 281.116 921.39 280.164 911.96 281.043M896.895 207.401C896.857 207.478 896.849 207.7 897.125 207.976C897.01 207.9 896.366 207.677 894.71 207.401C894.829 207.381 894.944 207.365 895.055 207.352M896.895 207.401C896.656 207.333 895.982 207.24 895.055 207.352M896.895 207.401C896.364 207.913 895.938 208.212 895.478 208.212C894.858 208.212 895.017 207.713 895.055 207.352M896.895 207.401C897.043 207.173 897.335 206.533 897.321 205.794M899.418 212.346C899.229 212.231 898.735 212.07 898.275 212.346M904.15 243.515C904.3 243.82 904.945 244.431 906.325 244.431C908.05 244.431 908.165 243.059 910.465 243.515C910.658 243.553 910.85 243.578 911.04 243.59M916.675 242.016C916.637 241.863 916.399 241.648 915.755 242.016C915.018 242.437 913.122 243.728 911.04 243.59M916.675 242.016C916.215 243.434 915.686 246.8 917.25 248.916M916.675 242.016C917.02 241.364 917.848 240.015 918.4 239.831C919.008 239.628 919.348 238.89 920.05 238.796C920.145 238.783 920.246 238.782 920.355 238.796C921.013 238.878 921.2 239.195 921.505 239.495C921.627 239.615 921.768 239.732 921.965 239.831C922.655 240.176 922.655 241.326 921.965 241.786C921.446 242.132 920.6 241.957 920.067 241.849M917.25 248.916C917.327 249.146 918.02 250.817 917.48 252.596M917.25 248.916C917.749 248.916 918.814 248.916 919.09 248.916M911.04 243.59C910.734 245.596 910.419 249.997 911.615 251.561C911.705 251.65 911.931 251.792 912.305 251.894M917.48 252.596C916.215 252.826 914.605 252.021 913.34 252.021C912.917 252.021 912.574 251.967 912.305 251.894M917.48 252.596C918.492 252.412 918.975 250.066 919.09 248.916M919.09 248.916C920.24 249.184 922.816 249.468 923.92 248.456L921.162 243.684M912.305 251.894C911.347 252.598 907.774 254.21 901.15 255.026M918.85 242.18C919.249 241.849 919.534 241.742 920.067 241.849M880.367 293.077C880.129 293.605 879.927 294.779 881.025 295.249C882.397 295.837 883.38 297.638 885.504 297.702M886.657 278.471C886.275 277.124 885.648 273.511 886.2 269.838C886.89 265.247 877.856 256.932 877.46 253.614M920.067 241.849L921.162 243.684M921.162 243.684C921.213 244.146 920.963 245.23 919.548 245.868M893.79 206.02C894.277 205.36 895.641 204.175 897.47 204.236C897.657 204.242 897.849 204.261 898.045 204.295L897.7 204.87C896.504 204.318 894.595 205.407 893.79 206.02Z" stroke="#3F6982" stroke-width="0.980101" stroke-linecap="round" stroke-linejoin="round"/>
<path d="M919.583 236.773L920.285 238.202L918.1 239.396L918.665 236.882C918.766 236.431 919.379 236.359 919.583 236.773Z" fill="#00628C"/>
<path d="M928.458 251.149L922.855 242.19L919.729 242.303L927.05 254.271C927.281 254.647 927.852 254.551 927.947 254.121L928.521 251.515C928.549 251.389 928.526 251.258 928.458 251.149Z" fill="#00628C"/>
<path d="M926.955 240.316L925.414 238.032C925.234 237.765 925.355 237.399 925.66 237.294C926.154 237.123 926.871 236.875 927.488 236.659C928.555 236.285 929.774 236.915 930.071 237.439C930.325 237.887 930.85 238.959 929.306 239.671C928.674 239.962 927.988 240.287 927.574 240.485C927.354 240.589 927.091 240.518 926.955 240.316Z" fill="#00628C"/>
<path d="M961.954 260.033C959.469 259.039 955.335 256.893 958.674 256.256C962.848 255.461 973.681 260.927 978.949 264.405C984.216 267.884 999.024 272.058 999.919 269.772C1000.74 267.677 997.467 263.243 994.696 261.6C993.49 261.075 992.942 260.806 993.956 261.225C994.196 261.325 994.444 261.451 994.696 261.6C996.918 262.568 1001.37 264.405 1002.4 264.405C1003.99 264.405 1005.88 263.412 1006.08 262.319C1006.24 261.444 1006.48 268.845 1006.58 272.655L1002.4 273.847L997.136 277.226L996.241 278.518L992.862 279.91H988.489C983.785 272.887 971.892 259.079 961.954 260.033Z" fill="url(#paint6_linear)"/>
<path d="M965.234 266.294C955.68 265.751 953.302 258.448 953.307 254.865C946.847 264 966.521 281.278 977.165 288.775L978.184 287.354V286.478L979.033 285.98L980.637 283.766L982.03 282.99C978.134 276.789 969.209 269.275 965.234 266.294Z" fill="url(#paint7_linear)"/>
<path d="M1026.95 276.413C1025.5 275.763 1021.62 276.142 1019.87 276.413L1016.16 279.593L1014.22 279.91L1010.91 280.181L1007.64 281.188L1001.51 284.791H1000.3L996.241 288.775L1000.3 294.148L1005.48 295.274C1012.16 297.736 1021.43 297.707 1025.23 297.384C1032.85 301.807 1040.59 295.787 1043.6 291.528C1046.01 288.121 1045.98 283.014 1045.67 280.887H1044.35L1041.55 280.386C1038.44 289.11 1025.23 292.478 1020.9 290.837C1018.04 289.75 1016.93 287.354 1019.87 284.791C1022.8 282.228 1028.76 277.226 1026.95 276.413Z" fill="url(#paint8_linear)"/>
<path d="M995.958 299.367C995.731 298.234 991.397 294.465 989.259 292.722L986.699 294.683L993.956 299.748L994.269 301.981C994.927 301.581 996.185 300.499 995.958 299.367Z" fill="url(#paint9_linear)"/>
<path d="M994.718 243.247V238.951C995.716 241.444 997.904 239.436 998.874 238.121L1001.58 233.894C1001.76 234.633 1002.19 237.206 1002.41 241.584C1002.63 245.962 1001.39 252.83 1000.74 255.716L998.874 257.587L996.588 258.141L994.371 253.776L995.202 247.68L994.718 243.247Z" fill="#EDF6F9"/>
<path d="M1024.46 232.214C1024.57 231.542 1029.5 222.462 1030.96 222.238C1032.41 222.014 1033.65 242.261 1031.97 249.924C1030.28 257.587 1030.96 261.469 1030.96 263.711C1030.96 265.699 1025.85 262.487 1024.69 261.499C1025.26 262.355 1026.82 264.971 1028.16 265.953C1029.84 267.186 1027.37 266.625 1025.35 265.953C1023.34 265.28 1026.25 270.773 1025.35 271.109C1024.46 271.445 1016.61 269.764 1012.8 270.1C1014.49 268.94 1017.17 265.953 1019.54 265.953C1022.15 265.953 1022.18 264.195 1022.27 263.711C1022.36 263.227 1022.39 261.314 1022.78 259.727C1023.09 258.458 1022.57 255.589 1022.27 254.313L1024.08 251.313L1023.24 239.767L1024.08 235.983L1024.46 232.214Z" fill="#EDF6F9"/>
<path d="M1035.04 265.953C1034.99 266.549 1032.97 269.314 1031.97 270.621L1030.54 271.534C1034.98 272.121 1044.11 273.374 1045.15 273.687C1046.46 274.078 1047.57 273.622 1047.11 271.926C1046.65 270.23 1045.35 271.109 1040.65 270.1C1036.9 269.293 1037.13 261.421 1037.72 257.587C1036.85 260.127 1035.09 265.356 1035.04 265.953Z" fill="#EDF6F9"/>
<path d="M1040.13 278.384C1042.67 278.038 1047.66 276.867 1048.55 274.84L1048.68 274.404C1048.66 274.554 1048.61 274.699 1048.55 274.84L1047.93 277.015V279.349L1044.75 280.589L1041.11 279.349L1040.13 278.384Z" fill="#EDF6F9"/>
<path d="M1013.08 219.566C1013.38 214.605 1010.94 211.958 1009.69 211.254L1007.64 215.091L1008.21 215.986L1007.64 217.137V220.206V224.106L1008.54 224.553L1011.86 224.106L1013.08 219.566Z" fill="#EDF6F9"/>
<path d="M999.711 282.343L1000.76 284.798L1004.97 282.95L1008.9 280.616L1013.75 280.125L1016.14 279.449L1017.86 276.316L1022.53 274.289H1027.14L1032.42 270.358C1032.79 269.99 1033.31 268.81 1032.42 267.042C1031.32 264.83 1028.49 266.612 1028.68 268.024C1028.86 269.437 1027.27 272.476 1023.27 272.976C1019.26 273.477 1013.35 276.932 1010.9 278.433C1008.93 279.633 1002.62 281.54 999.711 282.343Z" fill="#EDF6F9"/>
<path d="M1030.43 211.254L1033.77 217.137C1032.66 218.389 1030.43 221.307 1030.43 222.962C1030.43 224.617 1025.65 232.411 1023.27 236.1L1017.29 249.549C1018.67 250.032 1021.16 251.97 1020.11 255.859C1019.06 259.749 1016.14 263.549 1014.8 264.963L1006.43 271.687L1007.64 242.618L1012.46 226.29L1013.93 217.503C1015.93 214.574 1019.97 208.58 1020.11 208.036C1020.28 207.355 1021.41 203.105 1022.09 205.599C1022.64 207.595 1024.7 207.715 1025.67 207.526L1030.43 211.254Z" fill="#EDF6F9"/>
<path d="M1006.29 203.8C1003.35 204.29 1014.74 201.169 1012.51 190.008C1012.13 188.905 1011.31 186.521 1011.12 185.805C1010.88 184.909 1009.66 184.862 1008.72 183.797C1007.78 182.731 1008.72 181.415 1009.66 180.663C1010.41 180.062 1009.34 179.034 1008.72 178.595C1009.98 178.136 1012.91 177.137 1013.93 176.151C1020.17 170.117 1009.34 170.073 1011.1 169.509C1012.5 169.058 1016.07 169.321 1017.68 169.509C1023.38 170.261 1027.83 175.148 1028.83 179.911C1029.84 184.674 1029.02 191.191 1027.83 194.45C1026.88 197.057 1023.36 199.111 1021.72 199.812L1019.38 204.332C1020.2 201.587 1019.47 197.742 1019 196.163C1018.63 196.199 1017.64 196.795 1016.6 198.886C1015.29 201.5 1014.53 212.266 1013.93 212.12C1010.51 211.293 1015.67 202.232 1006.29 203.8Z" fill="#EDF6F9"/>
<path d="M1033.33 187.262C1032.73 188.428 1031.83 188.684 1031.45 188.666C1031.45 190.07 1031.45 196.901 1029.68 197.65C1028.25 198.249 1025.9 201.269 1024.9 202.703C1026.21 203.982 1029.36 206.728 1031.45 207.476C1033.55 208.225 1036.76 212.218 1038.1 214.121L1042.31 222.262C1042.12 218.881 1041.71 210.91 1041.56 206.072C1041.37 200.025 1040.81 197.463 1039.31 192.69C1038.12 188.872 1035.32 185.921 1034.07 184.923C1034.07 185.217 1033.92 186.096 1033.33 187.262Z" fill="#EDF6F9"/>
<path d="M1019.03 216.367V220.973C1019.03 221.497 1010.04 231.9 1007.63 241.875L1007.3 243.516C1007.39 242.971 1007.5 242.424 1007.63 241.875L1009.33 233.565L1012.77 226.194C1014.42 223.901 1017.83 219.217 1018.17 218.824C1018.52 218.431 1018.89 217.022 1019.03 216.367Z" fill="#CFE2E8"/>
<path d="M1003.39 227.367C1004.21 225.235 1005.1 221.717 1005.44 220.225V219.163L1005.01 218.107L1003.75 218.508L1002.33 223.535L1000.84 226.35L1000.13 230.723C1000.19 231.007 1000.51 231.821 1001.38 232.799C1002.46 234.021 1001.92 240.472 1002.33 241.143C1002.73 241.815 1002.53 246.786 1002.33 248.348C1002.12 249.91 1001.17 258.126 999.339 259.008C997.872 259.714 993.704 260.072 991.803 260.163L994.518 261.249C1006.54 261.453 1006.22 246.869 1005.94 241.143C1005.66 235.418 1002.37 230.032 1003.39 227.367Z" fill="url(#paint10_linear)"/>
<path d="M1010.31 267.659C1008.08 268.81 1006.96 271.356 1006.67 272.484L1012.68 269.352L1014.21 267.659L1016.75 266.643L1017.59 265.627L1020.47 264.019L1021.32 261.902L1022.67 259.008L1022.25 254.114L1024.11 251.49V245.479V238.537L1024.79 234.474L1024.11 227.367C1023.18 232.614 1020.95 243.583 1019.46 245.479C1017.59 247.849 1012.77 252.506 1016.75 252.421C1020.73 252.336 1020.13 253.437 1019.96 256.146C1019.79 258.855 1013.11 266.22 1010.31 267.659Z" fill="url(#paint11_linear)"/>
<path d="M1025.84 203.729L1024.87 201.745C1025.74 200.781 1027.76 198.717 1028.9 198.172C1030.31 197.492 1032.58 191.823 1031.67 189.442L1032.64 188.422C1033.68 189.556 1035.52 192.527 1034.57 195.339C1033.38 198.854 1028.5 201.178 1028.27 205.43L1025.84 203.729Z" fill="url(#paint12_linear)"/>
<path d="M1036.66 212.232L1029.29 206.166L1031.67 203.729C1032.64 202.255 1034.57 199.386 1034.57 199.703C1034.57 200.1 1033.77 203.729 1034.57 206.166C1035.2 208.116 1036.23 211.022 1036.66 212.232Z" fill="url(#paint13_linear)"/>
<path d="M1037.68 193.298C1039.18 197.969 1038.87 206.582 1038.53 210.305C1035.7 206.563 1036.27 202.255 1036.38 199.703C1036.49 197.152 1035.81 187.459 1037.68 193.298Z" fill="url(#paint14_linear)"/>
<path d="M1031.67 188.767H1030.38H1029.89L1030.67 184.391C1030.67 184.369 1030.68 184.347 1030.68 184.325L1030.67 184.391C1030.54 185.33 1032.11 186.654 1032.92 187.21L1031.67 188.767Z" fill="url(#paint15_linear)"/>
<path d="M1021.15 195.339C1026.03 195.862 1027.93 193.371 1028.27 192.061C1029.16 195.941 1027.51 197.752 1026.57 198.172L1022.76 199.087C1021.8 199.538 1019.86 200.294 1019.79 199.703C1019.73 199.113 1020.67 196.548 1021.15 195.339Z" fill="url(#paint16_linear)"/>
<path d="M1012.18 179.575C1031.3 167.467 1029.56 197.581 1020.55 191.01C1019.23 190.05 1017 190.66 1016.1 191.01C1012.4 191.793 1011.28 186.314 1010.81 185.651C1010.53 185.264 1009.88 184.64 1009.37 184.167C1008.86 184.256 1006.51 183.164 1012.18 179.575Z" fill="url(#paint17_linear)"/>
<path d="M1028.71 190.194C1028.69 190.465 1028.67 190.737 1028.64 191.01C1028.66 190.737 1028.68 190.465 1028.71 190.194C1029.38 181.457 1026.43 174.28 1022.76 171.222C1025.11 172.962 1030.71 178.041 1031.3 182.376C1030.57 183.608 1029.1 186.779 1028.71 190.194Z" fill="url(#paint18_linear)"/>
<path d="M1000.77 197.27L997.894 194.313L997.479 195.792L998.906 196.933L998.543 197.581L998.154 198.774L1001.29 198.307L1000.77 197.27Z" fill="url(#paint19_linear)"/>
<path d="M1029.9 188.743L1031.11 182.991C1031.96 183.252 1033.71 183.988 1033.87 184.835C1034.03 185.683 1032.52 187.794 1031.75 188.743H1029.9Z" fill="#AFC9D1"/>
<path d="M1006.35 209.087L1005.22 210.552L1006.35 212.482L1007.62 210.552V209.087H1006.35Z" fill="#CFE2E8"/>
<path d="M994.838 252.014L995.903 257.404L994.838 256.14L992.175 251.681L990.91 246.091L992.175 237.838L992.908 233.379L994.173 239.169L994.838 246.091V252.014Z" fill="#CFE2E8"/>
<path d="M1031.69 188.743H1030.4H1029.9L1030.69 184.367C1030.69 184.345 1030.7 184.323 1030.7 184.301L1030.69 184.367C1030.56 185.306 1032.13 186.63 1032.94 187.187L1031.69 188.743Z" fill="#86A5B4"/>
<path d="M998.672 214.312L996.676 213.645L996.278 218.304L995.213 224.493C994.947 226.268 994.361 230.23 994.148 231.881C993.881 233.944 995.678 240.133 996.676 239.933C997.474 239.774 999.005 237.56 999.672 236.473C998.274 237.471 996.676 232.413 996.676 228.886C996.676 225.358 1000.34 224.161 1000.67 221.432C1000.94 219.249 1000.56 217.86 1000.34 217.439L998.672 215.908V214.312Z" fill="#EDF6F9"/>
<path d="M997.942 212.381V199.536L996.676 212.381H997.942Z" fill="#EDF6F9"/>
<path d="M1008.14 289.936C1003.96 287.818 1005.22 283.756 1006.38 281.99L1002.04 284.638H1000.71L995.931 288.905L1000.12 294.497L1007.56 295.526C1013.56 297.763 1022.07 297.684 1025.58 297.365C1034.19 299.573 1042.94 292.436 1044.63 289.567C1045.99 287.272 1045.98 282.824 1045.81 280.887L1043.97 281.328C1044.41 281.696 1044.74 283.285 1042.5 286.699C1040.26 290.112 1033.82 293.32 1030.88 294.497C1030.99 293.732 1031.47 291.138 1031.69 289.936C1019.18 297.882 1013.37 292.584 1008.14 289.936Z" fill="#CFE2E8"/>
<path d="M974.173 286.419L969.688 282.879C970.808 284.354 971.4 286.419 971.046 286.419C970.692 286.419 961.841 288.249 964.556 290.963C966.727 293.135 971.872 293.166 974.173 292.91C972.614 290.818 973.523 287.711 974.173 286.419Z" fill="#CFE2E8"/>
<path d="M999.942 260.596L995.123 262.07L996.767 262.921L1002.95 264.962L1004.76 264.622L1006.4 259.519V251.413L1002.95 258.556L999.942 260.596Z" fill="#AFC9D1"/>
<path d="M1005.58 299.622C1007.36 299.548 1008.77 297.364 1009.25 296.282C1010.99 296.69 1014.83 297.256 1016.53 297.488C1014.3 304.261 1011.61 302.915 1010.73 303.054C1009.85 303.194 1008.04 305.467 1005.58 307.833C1003.12 310.198 1002.1 310.57 1000.48 310.941C998.856 311.312 993.521 308.76 993.149 308.111C992.778 307.461 992.962 306.163 993.797 305.467C994.632 304.771 999.319 298.647 1002.1 298.183C1004.3 297.817 1003.8 299.696 1005.58 299.622Z" fill="#AFC9D1"/>
<path opacity="0.5" d="M1012.49 296.791L1010.69 296.467C1011.87 299.474 1011.18 302.173 1010.69 303.147C1011.04 303.224 1012.03 303.258 1013.14 302.776C1014.26 302.293 1015.62 298.864 1016.16 297.209L1012.49 296.791Z" fill="#5D8096"/>
<path d="M981.306 293.076C979.917 293.076 977.189 293.076 974.636 293.076M981.306 293.076C981.49 293.904 982.197 294.341 982.528 294.456M981.306 293.076C981.287 293.025 981.285 292.957 981.306 292.872M969.806 283.071C963.941 286.291 962.561 289.971 963.941 290.546C965.321 291.121 967.736 293.076 971.531 293.076C972.451 293.076 973.527 293.076 974.636 293.076M969.806 283.071C972.106 284.727 973.678 286.138 974.176 286.636M969.806 283.071C963.366 277.896 950.601 266.074 951.061 260.186C951.636 252.825 960.032 250.87 965.782 252.25C970.381 253.354 984.258 257.694 990.622 259.726M974.636 293.076C973.716 292.501 972.336 290.408 974.176 286.636M974.176 286.636C975.173 287.364 977.258 288.959 977.626 289.511M977.626 289.511C976.982 288.407 978.125 287.441 978.777 287.096M977.626 289.511C977.817 289.787 978.221 290.146 978.777 290.254M990.622 259.726C991.516 260.125 992.632 260.605 993.842 261.1M990.622 259.726C990.775 259.189 992.347 258.162 997.407 258.346M1006.49 256.391C1006.45 258.652 1005.99 263.36 1004.42 264.096C1003.21 264.665 997.978 262.793 993.842 261.1M1006.49 256.391V272.606M1006.49 256.391C1005.92 248.072 1007.62 228.721 1019.03 217.865C1018.68 216.83 1017.92 214.668 1017.65 214.3C1017.37 213.932 1019.91 214.453 1021.21 214.76C1022.22 212.79 1023.81 209.535 1024.86 206.979M1006.49 256.391C1005.84 244.644 1009.72 231.007 1012.07 223.385M1006.49 272.606C1001.47 270.996 988.299 265.89 975.787 258.346C960.147 248.916 954.396 257.656 963.941 264.901C970.842 270.139 979.352 279.506 982.112 283.071M1006.49 272.606C1002.12 273.526 1000.4 275.711 998.327 276.631C996.671 277.367 996.497 278.088 996.616 278.356M1006.49 272.606C1008.54 271.705 1012.76 269.694 1013.25 268.853C1013.86 267.8 1013.78 267.221 1014.46 266.88C1015.14 266.538 1016.2 267.064 1016.93 266.327C1017.67 265.591 1018.25 264.929 1019.72 264.512C1021.19 264.096 1019.83 262.243 1021.14 261.672C1022.46 261.1 1022.72 259.857 1022.77 258.91C1022.82 257.963 1021.77 254.385 1022.77 253.281C1023.77 252.176 1024.19 251.913 1024.19 251.229C1024.19 250.545 1024.19 247.304 1024.19 245.926C1024.19 244.548 1023.04 238.813 1024.19 236.498M1024.66 201.995C1025.12 202.639 1025.7 203.183 1025.93 203.375C1025.95 203.471 1025.95 203.603 1025.93 203.768M1024.66 201.995C1024.2 201.351 1023.09 199.963 1022.59 199.35M1024.66 201.995C1025.28 199.438 1027.27 199.617 1029.46 197.573C1032.42 194.82 1031.94 190.528 1031.33 188.726M1022.59 199.35C1022.25 199.465 1021.44 199.925 1020.98 200.845C1020.41 201.995 1014.45 215.568 1013.39 219.13C1013.09 220.153 1012.62 221.605 1012.07 223.385M1022.59 199.35C1022.19 199.292 1021.15 199.309 1020.15 199.838C1018.9 200.5 1020.42 195.422 1021.5 194.251C1022.59 193.08 1022.73 191.111 1020.15 191.271M1022.59 199.35C1024.1 199.554 1027.34 199.128 1028.28 195.788C1029.46 191.614 1027.94 191.14 1029.81 188.726M993.842 261.1C996.219 261.102 1001.46 260.278 1003.39 256.966C1005.8 252.826 1006.84 248.341 1006.15 239.37C1005.6 232.194 1006.53 224.88 1007.07 222.12V219.245M1007.07 219.245C1006.16 220.165 1004.77 220.625 1005.11 217.865M1007.07 219.245C1007.2 219.089 1007.41 218.785 1007.5 218.44M997.407 258.346C998.135 258.039 999.707 257.218 1000.17 256.391C1000.74 255.356 1004.08 241.9 1002.12 240.405M997.407 258.346C995.347 257.782 994.292 256.391 993.842 255.28C993.392 254.169 990.944 250.545 990.622 248.125C990.3 245.705 992.627 236.498 992.785 233.921C992.912 231.858 993.842 230.571 994.292 230.185M997.407 258.346C995.107 256.765 994.762 253.754 994.762 252.754C994.762 251.755 995.468 246.389 994.762 243.022C994.197 240.328 994.213 237.551 994.292 236.498M1002.12 240.405C1001.97 241.939 1001.06 246.017 998.672 250.066M1002.12 240.405C1002.31 238.259 1002.35 233.528 1000.97 231.78M1000.97 231.78L1000.17 231.435M1000.97 231.78C1001.43 233.638 1000.17 237.866 997.982 239.37C995.797 240.875 995.468 240.812 994.292 236.498M1000.17 231.435C1000.82 233.122 1000.9 237.07 996.027 239.37C994.187 236.498 994.187 232.858 994.187 231.435C994.216 231.081 994.252 230.653 994.292 230.185M1000.17 231.435C1000.21 230.354 1000.49 227.63 1001.32 225.386M999.707 211.655C999.662 211.454 999.609 209.805 999.551 209.125M1004.88 210.505C1005.19 210.045 1006.06 209.079 1007.07 208.895M1004.88 210.505C1005.44 210.505 1005.88 211.605 1006.36 212.805M1004.88 210.505C1004.31 210.62 998.327 212 997.407 212.115C996.671 212.207 996.564 212.537 996.602 212.69M1007.76 215.45C1007.2 214.893 1006.77 213.814 1006.36 212.805M1007.76 215.45C1008.61 216.3 1008.33 216.898 1007.94 217.06M1007.76 215.45C1007.83 214.76 1008.31 212.805 1009.6 210.505M1007.76 215.45C1008.04 213.304 1008.64 208.803 1008.81 207.975M1007.07 208.895C1007.18 208.874 1007.29 208.875 1007.38 208.895C1008.35 209.096 1008.34 211.236 1006.36 212.805M1007.07 208.895C1006.81 207.607 1006.96 205.598 1007.07 204.755M1005.11 217.865C1005.15 217.75 1005.35 217.635 1005.8 218.095M1005.11 217.865C1004.42 217.903 1003.64 218.279 1003.27 219.475C1002.9 220.671 1002.98 223.483 1001.32 225.386M999.707 226.605C1000.38 226.283 1000.9 225.863 1001.32 225.386M996.602 213.38C996.794 213.38 997.338 213.472 997.982 213.84C998.787 214.3 998.327 215.45 998.787 215.91C999.247 216.37 999.343 216.3 999.707 216.715C1000.51 217.635 999.937 218.21 1000.97 218.44M1000.51 213.495C1001.78 213.342 1004.83 212.546 1005.27 212.69C1005.97 212.922 1006.57 214.469 1006.16 215.22M1007.5 218.44C1007.58 218.063 1007.6 217.599 1007.53 217.06C1007.65 217.12 1007.8 217.118 1007.94 217.06M1007.5 218.44C1007.59 217.635 1007.55 217.29 1007.07 216.37C1006.92 216.091 1006.72 215.91 1006.16 215.22M1001.32 215.91C1002.59 215.45 1005.33 214.668 1006.16 215.22M999.551 209.125C1000.1 208.128 1002.38 205.859 1007.07 204.755M999.551 209.125C999.453 207.99 999.341 206.352 999.229 204.755M1007.07 204.755C1007.07 204.663 1006.91 204.257 1006.84 204.065M1007.07 204.755C1007.48 205.344 1008.21 206.554 1008.81 207.975M982.112 283.071C981.997 283.071 981.629 283.186 981.077 283.646C980.387 284.221 979.467 285.831 978.777 286.061C978.087 286.291 978.087 286.866 978.777 287.096M982.112 283.071C983.032 282.458 984.987 281.139 985.447 280.771C985.761 280.519 987.073 280.13 988.667 279.942M978.777 287.096C979.045 287.096 979.789 286.889 980.617 286.061C981.652 285.026 982.227 284.106 983.837 283.416C985.125 282.864 986.137 282.266 986.482 282.036M996.616 278.356C995.058 279.4 993.451 279.938 992.807 280.081C991.504 279.768 989.988 279.786 988.667 279.942M996.616 278.356C996.727 278.282 996.837 278.205 996.947 278.126C998.059 279.429 1000.37 282.542 1000.74 284.566C1000.58 284.701 1000.39 284.865 1000.17 285.052M995.797 288.706C993.842 290.316 991.082 291.581 989.587 292.501C988.605 293.105 987.722 294.157 986.482 294.774M995.797 288.706C996.449 289.664 998.051 291.926 999.247 293.306C1000.08 294.268 1002.13 294.693 1004.08 295.001M995.797 288.706C997.111 287.624 999.004 286.033 1000.17 285.052M986.252 292.271C985.7 293.099 983.722 293.843 982.802 294.111C982.687 294.205 982.579 294.327 982.528 294.456M982.528 294.456C982.39 294.799 982.644 295.194 984.182 295.261C985.089 295.301 985.834 295.096 986.482 294.774M984.527 290.431C982.146 291.583 981.416 292.441 981.306 292.872M983.262 287.671C982.878 288.016 981.767 288.936 980.387 289.856C979.771 290.266 979.224 290.341 978.777 290.254M978.777 290.254C978.661 291.058 979.006 292.708 981.306 292.872M983.262 285.141C983.223 285.256 983.331 285.578 984.067 285.946C984.987 286.406 984.872 287.441 985.447 287.901C986.022 288.361 986.252 288.706 986.482 288.936C986.712 289.166 986.597 290.086 987.057 290.431C987.425 290.707 988.284 291.313 988.667 291.581M1030.87 294.111C1032.02 293.689 1035.33 292.248 1039.38 289.856C1043.43 287.464 1043.91 282.726 1043.64 280.656M1030.87 294.111C1029.54 295.861 1027.27 296.807 1024.66 297.249M1030.87 294.111C1031.25 293.408 1031.98 291.571 1031.92 289.856M1043.64 280.656C1042.26 280.043 1040.56 279.003 1038.35 276.631M1043.64 280.656C1044.15 280.748 1044.82 280.783 1045.48 280.685M1043.64 280.656C1044.08 281.634 1045.02 284.456 1045.23 287.917M1038.35 276.631C1035.24 273.296 1029.53 273.526 1026.85 274.216M1038.35 276.631C1039.37 277.666 1041.58 280.472 1042.26 283.416M1026.85 274.216C1028.51 274.102 1032.34 274.149 1034.38 275.252M1026.85 274.216C1023.96 274.013 1015.96 274.216 1015.96 279.661M1026.85 274.216C1027.81 273.635 1029.24 272.661 1030.61 271.519M1045.48 280.685C1047.02 280.456 1048.56 279.502 1048.24 276.861C1048.51 276.094 1049.02 274.216 1048.93 272.836C1048.81 271.111 1046.86 258.001 1044.44 254.781M1045.48 280.685C1046.12 283.163 1045.96 285.631 1045.23 287.917M1024.66 297.249C1021.94 297.709 1018.83 297.62 1016.04 297.319M1024.66 297.249C1032.04 302.259 1042.53 296.317 1045.23 287.917M986.482 294.774C987.939 295.588 991.243 297.538 992.807 298.826C994.371 300.114 994.532 301.51 994.417 302.046M994.417 302.046C994.877 301.05 995.581 299.861 996.616 298.826C997.881 297.561 1003.04 296.351 1004.08 295.001M994.417 302.046C993.344 303.35 991.358 306.209 992.002 307.221C992.212 307.551 992.758 308.006 993.504 308.486M1004.08 295.001C1005.62 295.246 1007.11 295.416 1007.87 295.721C1008.12 295.821 1008.68 295.987 1009.47 296.181M1010.86 303.081C1009.02 303.541 1004.54 310.211 1001.55 310.901C999.337 311.411 995.618 309.848 993.504 308.486M1010.86 303.081C1011.59 302.9 1012.01 302.968 1012.36 302.999M1010.86 303.081C1011.21 302.592 1011.62 300.575 1010.52 296.424M1016.04 297.319C1016.15 298.917 1015.44 300.534 1014.31 301.816C1013.27 303.002 1012.9 303.046 1012.36 302.999M1016.04 297.319C1014.49 297.152 1013.03 296.921 1011.78 296.683M993.504 308.486C993.003 308.065 992.439 306.807 994.187 305.151C996.372 303.081 999.477 298.366 1002.01 298.136C1004.54 297.906 1004.54 299.861 1005.92 299.631C1007.02 299.447 1008.74 297.255 1009.47 296.181M1009.47 296.181C1009.78 296.259 1010.13 296.341 1010.52 296.424M1012.36 302.999C1012.47 301.712 1012.52 298.648 1011.78 296.683M1011.78 296.683C1011.33 296.597 1010.91 296.51 1010.52 296.424M1044.44 254.781C1042.03 251.561 1043.87 251.906 1042.26 245.926C1041.45 242.919 1041.6 238.196 1041.87 233.805M1044.44 254.781C1044.15 253.717 1043.67 250.602 1044.09 246.647C1044.62 241.704 1046.02 234.474 1043.56 225.841C1041.11 217.208 1042.12 214.76 1041.42 201.995C1040.86 191.783 1036.15 186.403 1033.87 184.99M1042.26 223.73C1041.68 220.28 1038.58 212.345 1031.68 207.745C1026.16 204.065 1025.54 203.56 1025.93 203.768M1042.26 223.73C1042.54 225.446 1042.15 229.464 1041.87 233.805M1042.26 223.73C1040.93 222.044 1037.4 218.279 1033.87 216.715M1025.93 203.768C1025.84 204.428 1025.43 205.602 1024.86 206.979M1007.94 217.06C1008.27 218.655 1008.3 221.996 1007.76 223.615C1007.3 224.995 1011.56 224.305 1012.07 223.385M1009.6 210.505C1009.79 211.118 1010.06 214.3 1010.06 217.06M1009.6 210.505C1009.43 209.643 1009.14 208.776 1008.81 207.975M1006.84 204.065C1008.72 204.065 1012.61 203.352 1013.16 200.5M1006.84 204.065C1005.88 204.18 1003.62 204.502 1002.24 204.87C1000.51 205.33 999.671 205.215 999.229 204.755M999.229 204.755C999.063 202.373 998.853 200.553 998.787 200.155C998.717 199.734 998.539 199.43 998.327 199.225M998.327 199.225C997.843 198.758 997.177 198.8 997.177 199.12C997.177 199.58 997.062 208.435 996.487 210.735C995.912 213.035 996.027 219.13 995.797 220.28C995.567 221.43 994.877 224.075 994.762 224.995C994.688 225.59 994.458 228.224 994.292 230.185M998.327 199.225C998.299 199.047 998.274 198.798 998.269 198.545M999.305 196.899C999.962 197.091 1001.25 197.51 1001.43 197.51M999.305 196.899C998.714 197.22 998.369 197.903 998.269 198.545M999.305 196.899C998.982 196.695 998.269 196.461 997.72 195.941C997.503 195.736 997.564 195.055 997.752 194.287M1001.43 197.51C1001.5 197.51 1001.61 197.602 1001.73 197.74M1001.43 197.51C1000.54 197.018 1000.04 195.941 997.752 194.287M1002.24 198.775C1002.24 198.539 1001.97 198.035 1001.73 197.74M998.269 198.545C999.098 198.621 1000.95 198.568 1001.73 197.74M998.269 192.618C998.109 193.049 997.9 193.684 997.752 194.287M998.269 192.618C998.571 192.759 999.229 193.084 999.451 193.255C999.728 193.468 1001.46 192.572 1000.24 191.377M998.269 192.618C997.896 192.503 997.08 192.229 996.805 192.054C996.462 191.836 996.434 190.93 996.805 190.368C997.177 189.805 999.493 186.79 999.867 186.535C1000 186.442 1000.09 186.287 1000.14 186.102M1010.31 264.512C1011.26 263.586 1010.12 261.683 1008.96 261.426C1008.6 261.346 1008.21 261.439 1007.9 261.672M1010.31 264.512C1009.36 265.439 1007.53 264.725 1007.34 263.067C1007.27 262.438 1007.52 261.953 1007.9 261.672M1010.31 264.512C1010.31 261.703 1007.95 261.631 1007.9 261.672M1020.15 191.271C1019.51 190.287 1017.81 188.781 1016.13 190.632C1011.23 190.876 1011.75 188.209 1011.23 186.311C1010.72 184.413 1008.41 184.272 1008.33 182.608C1008.27 181.276 1009.63 180.592 1010.32 180.417C1009.92 178.664 1005.59 176.949 1003.47 176.31M1020.15 191.271C1020.56 192.451 1020.72 195.145 1018.13 196.486C1014.88 198.163 1014.08 197.551 1013.95 197.018M1014.67 195.289C1015.11 195.147 1015.9 194.677 1015.49 193.932C1015.09 193.187 1017.61 190.226 1018.7 191.684C1019.4 192.618 1018.83 194.106 1018.35 194.726M1000.07 185.026C999.886 184.563 999.331 184.205 999.867 182.737M1000.07 185.026C1000.13 184.775 1000.21 184.24 1000.07 184.114C999.936 183.988 999.879 183.144 999.867 182.737M1000.07 185.026C1000.17 185.265 1000.21 185.553 1000.19 185.818M1003.47 176.31C1001.48 177.512 1000.84 180.553 1000.07 182.24C999.99 182.419 999.923 182.584 999.867 182.737M1003.47 176.31C1003.81 173.844 1006.42 168.903 1014.23 168.877C1023.98 168.843 1030.15 176.965 1031.12 182.608C1031.09 182.866 1031.02 183.35 1030.89 183.971C1030.76 184.63 1030.57 185.445 1030.32 186.311C1029.82 187.994 1029.77 188.622 1029.81 188.726M1003.47 176.31C1004.51 176.178 1012.81 174.349 1017.65 177.509M1029.81 188.726C1030.11 188.726 1030.75 188.726 1031.33 188.726M1031.33 182.608C1032.03 183.011 1033.51 183.959 1033.82 184.52C1033.88 184.623 1033.89 184.786 1033.87 184.99M1031.33 188.726C1031.48 188.726 1031.62 188.726 1031.76 188.726C1032.45 188.726 1033.75 186.175 1033.87 184.99M1000.19 185.818C1000.02 185.878 999.63 185.981 999.451 185.908C999.227 185.818 999.804 186.126 1000.14 186.102M1000.19 185.818C1000.18 185.917 1000.17 186.013 1000.14 186.102M1002.31 186.311C1002.14 186.802 1002.15 187.28 1001.99 187.891M1001.99 187.891C1001.9 187.892 1000.78 187.617 1001.73 187.898C1002.18 188.55 1003.95 188.944 1004.95 188.838C1003.98 188.838 1003.52 188.345 1002.78 188.063C1002.37 187.91 1002.17 187.888 1001.99 187.891ZM1015.96 279.661C1017.69 278.776 1019.33 277.272 1019.94 276.631M1015.96 279.661C1013.75 280.272 1013.71 279.432 1009.63 280.501C1005.55 281.57 1002.93 285.213 1000.17 285.052M1041.87 233.805C1041.49 235.83 1037.02 258.799 1036.88 261.1C1036.74 263.401 1035.41 263.466 1034.38 266.88C1033.93 268.397 1032.32 270.09 1030.61 271.519M1030.61 271.519C1033.96 271.346 1041.41 271.425 1044.44 273.126C1047.48 274.827 1047.51 272.763 1047.14 271.519M1024.19 236.498C1025.12 234.647 1024.58 231.518 1024.19 230.185C1023.66 222.009 1030.42 217.799 1033.87 216.715M1024.19 236.498C1023.6 235.178 1022.35 231.656 1022.14 228.134M1024.86 206.979C1026.86 208.001 1031.46 211.379 1033.87 216.715M994.292 230.185C993.9 230.852 993.351 233.047 994.292 236.498M962.301 259.726C963.298 259.678 964.799 259.928 966.704 260.654M988.667 279.942C979.707 267.887 971.773 262.585 966.704 260.654M966.704 260.654C966.749 259.603 966.385 257.279 964.569 256.391M1000.99 185.205C1000.84 184.889 1000.65 184.619 1000.78 184.49C1000.95 184.328 1002.36 184.536 1003.24 184.652C1004.11 184.767 1005.52 186.432 1006.33 186.802C1005.26 186.311 1003.68 185.33 1003.24 185.205C1002.89 185.108 1001.52 185.205 1000.99 185.205Z" stroke="#3F6982" stroke-width="0.980101" stroke-linecap="round" stroke-linejoin="round"/>
<g filter="url(#filter2_i)">
<path d="M917.25 152.672H890.152C887.446 152.672 885.252 154.866 885.252 157.572V169.405C885.252 172.112 887.446 174.306 890.152 174.306H891.307C891.848 174.306 892.287 174.744 892.287 175.286V178.83C892.287 179.267 892.815 179.485 893.123 179.177L897.707 174.593C897.891 174.409 898.14 174.306 898.4 174.306H917.25C919.956 174.306 922.15 172.112 922.15 169.405V157.572C922.15 154.866 919.956 152.672 917.25 152.672Z" fill="#1BA4CE"/>
</g>
<path d="M890.152 153.162H917.25C919.686 153.162 921.66 155.137 921.66 157.572V169.405C921.66 171.841 919.686 173.816 917.25 173.816H898.4C898.011 173.816 897.637 173.97 897.361 174.246L892.777 178.83V175.286C892.777 174.474 892.119 173.816 891.307 173.816H890.152C887.717 173.816 885.742 171.841 885.742 169.405V157.572C885.742 155.137 887.717 153.162 890.152 153.162Z" stroke="#1183B4" stroke-width="0.980101" stroke-linecap="round" stroke-linejoin="round"/>
<path d="M892.012 159.804H912.546M892.012 163.996H912.546M892.012 168.468H900.248" stroke="white" stroke-width="1.47015" stroke-linecap="round" stroke-linejoin="round"/>
<g filter="url(#filter3_i)">
<path d="M955.95 132H1001.94C1004.65 132 1006.84 134.194 1006.84 136.901V159.812C1006.84 162.518 1004.65 164.712 1001.94 164.712H997.187C996.645 164.712 996.207 165.151 996.207 165.692V172.16C996.207 172.596 995.679 172.815 995.37 172.506L987.863 164.999C987.679 164.816 987.43 164.712 987.17 164.712H955.95C953.244 164.712 951.05 162.518 951.05 159.812V136.901C951.05 134.194 953.244 132 955.95 132Z" fill="url(#paint20_linear)"/>
</g>
<path d="M1001.94 132.49H955.95C953.515 132.49 951.54 134.465 951.54 136.901V159.812C951.54 162.248 953.515 164.222 955.95 164.222H987.17C987.56 164.222 987.934 164.377 988.209 164.653L995.716 172.16L995.716 165.692C995.716 164.88 996.375 164.222 997.187 164.222H1001.94C1004.38 164.222 1006.35 162.248 1006.35 159.812V136.901C1006.35 134.465 1004.38 132.49 1001.94 132.49Z" stroke="#1183B4" stroke-width="0.980101" stroke-linecap="round" stroke-linejoin="round"/>
<path d="M960.123 142.994H990.798M960.123 149.256H990.798M960.123 155.937H972.427" stroke="white" stroke-width="2.45025" stroke-linecap="round" stroke-linejoin="round"/>
</g>
<defs>
<filter id="filter0_f" x="-686" y="245" width="2836" height="271" filterUnits="userSpaceOnUse" color-interpolation-filters="sRGB">
<feFlood flood-opacity="0" result="BackgroundImageFix"/>
<feBlend mode="normal" in="SourceGraphic" in2="BackgroundImageFix" result="shape"/>
<feGaussianBlur stdDeviation="5" result="effect1_foregroundBlur"/>
</filter>
<filter id="filter1_i" x="917.969" y="233.964" width="16.8932" height="20.9205" filterUnits="userSpaceOnUse" color-interpolation-filters="sRGB">
<feFlood flood-opacity="0" result="BackgroundImageFix"/>
<feBlend mode="normal" in="SourceGraphic" in2="BackgroundImageFix" result="shape"/>
<feColorMatrix in="SourceAlpha" type="matrix" values="0 0 0 0 0 0 0 0 0 0 0 0 0 0 0 0 0 0 127 0" result="hardAlpha"/>
<feOffset dy="1.9602"/>
<feComposite in2="hardAlpha" operator="arithmetic" k2="-1" k3="1"/>
<feColorMatrix type="matrix" values="0 0 0 0 1 0 0 0 0 1 0 0 0 0 1 0 0 0 1 0"/>
<feBlend mode="normal" in2="shape" result="effect1_innerShadow"/>
</filter>
<filter id="filter2_i" x="885.252" y="152.672" width="36.8983" height="26.6494" filterUnits="userSpaceOnUse" color-interpolation-filters="sRGB">
<feFlood flood-opacity="0" result="BackgroundImageFix"/>
<feBlend mode="normal" in="SourceGraphic" in2="BackgroundImageFix" result="shape"/>
<feColorMatrix in="SourceAlpha" type="matrix" values="0 0 0 0 0 0 0 0 0 0 0 0 0 0 0 0 0 0 127 0" result="hardAlpha"/>
<feOffset dx="-3.9204" dy="3.9204"/>
<feComposite in2="hardAlpha" operator="arithmetic" k2="-1" k3="1"/>
<feColorMatrix type="matrix" values="0 0 0 0 1 0 0 0 0 1 0 0 0 0 1 0 0 0 0.2 0"/>
<feBlend mode="normal" in2="shape" result="effect1_innerShadow"/>
</filter>
<filter id="filter3_i" x="951.051" y="132" width="55.7939" height="40.6509" filterUnits="userSpaceOnUse" color-interpolation-filters="sRGB">
<feFlood flood-opacity="0" result="BackgroundImageFix"/>
<feBlend mode="normal" in="SourceGraphic" in2="BackgroundImageFix" result="shape"/>
<feColorMatrix in="SourceAlpha" type="matrix" values="0 0 0 0 0 0 0 0 0 0 0 0 0 0 0 0 0 0 127 0" result="hardAlpha"/>
<feOffset dx="-4.9005" dy="4.9005"/>
<feComposite in2="hardAlpha" operator="arithmetic" k2="-1" k3="1"/>
<feColorMatrix type="matrix" values="0 0 0 0 1 0 0 0 0 1 0 0 0 0 1 0 0 0 0.4 0"/>
<feBlend mode="normal" in2="shape" result="effect1_innerShadow"/>
</filter>
<linearGradient id="paint0_linear" x1="732" y1="255" x2="732" y2="404.685" gradientUnits="userSpaceOnUse">
<stop stop-color="white"/>
<stop offset="1" stop-color="white" stop-opacity="0"/>
</linearGradient>
<linearGradient id="paint1_linear" x1="1208.67" y1="109.83" x2="1249.45" y2="178.585" gradientUnits="userSpaceOnUse">
<stop stop-color="white"/>
<stop offset="1" stop-color="white" stop-opacity="0"/>
</linearGradient>
<linearGradient id="paint2_linear" x1="186.637" y1="-313.637" x2="465.385" y2="156.319" gradientUnits="userSpaceOnUse">
<stop stop-color="white"/>
<stop offset="1" stop-color="white" stop-opacity="0"/>
</linearGradient>
<linearGradient id="paint3_linear" x1="1004.81" y1="284.534" x2="1004.81" y2="307.879" gradientUnits="userSpaceOnUse">
<stop stop-color="#D3E5EA"/>
<stop offset="1" stop-color="#E7F1F4"/>
</linearGradient>
<linearGradient id="paint4_linear" x1="878.509" y1="193.496" x2="878.509" y2="215.714" gradientUnits="userSpaceOnUse">
<stop stop-color="#CFE2E8"/>
<stop offset="1" stop-color="#CFE2E8" stop-opacity="0"/>
</linearGradient>
<linearGradient id="paint5_linear" x1="926.416" y1="234.455" x2="926.416" y2="254.395" gradientUnits="userSpaceOnUse">
<stop stop-color="#1BA4CE"/>
<stop offset="1" stop-color="#1BA4CE" stop-opacity="0.7"/>
</linearGradient>
<linearGradient id="paint6_linear" x1="998.926" y1="254.865" x2="998.926" y2="301.981" gradientUnits="userSpaceOnUse">
<stop stop-color="#EDF6F9"/>
<stop offset="1" stop-color="#E2EDF0"/>
</linearGradient>
<linearGradient id="paint7_linear" x1="998.926" y1="254.865" x2="998.926" y2="301.981" gradientUnits="userSpaceOnUse">
<stop stop-color="#EDF6F9"/>
<stop offset="1" stop-color="#E2EDF0"/>
</linearGradient>
<linearGradient id="paint8_linear" x1="998.926" y1="254.865" x2="998.926" y2="301.981" gradientUnits="userSpaceOnUse">
<stop stop-color="#EDF6F9"/>
<stop offset="1" stop-color="#E2EDF0"/>
</linearGradient>
<linearGradient id="paint9_linear" x1="998.926" y1="254.865" x2="998.926" y2="301.981" gradientUnits="userSpaceOnUse">
<stop stop-color="#EDF6F9"/>
<stop offset="1" stop-color="#E2EDF0"/>
</linearGradient>
<linearGradient id="paint10_linear" x1="1005.7" y1="172.402" x2="1044.31" y2="233.556" gradientUnits="userSpaceOnUse">
<stop stop-color="#CFE2E8"/>
<stop offset="1" stop-color="#CFE2E8" stop-opacity="0"/>
</linearGradient>
<linearGradient id="paint11_linear" x1="1005.7" y1="172.402" x2="1044.31" y2="233.556" gradientUnits="userSpaceOnUse">
<stop stop-color="#CFE2E8"/>
<stop offset="1" stop-color="#CFE2E8" stop-opacity="0"/>
</linearGradient>
<linearGradient id="paint12_linear" x1="1005.7" y1="172.402" x2="1044.31" y2="233.556" gradientUnits="userSpaceOnUse">
<stop stop-color="#CFE2E8"/>
<stop offset="1" stop-color="#CFE2E8" stop-opacity="0"/>
</linearGradient>
<linearGradient id="paint13_linear" x1="1005.7" y1="172.402" x2="1044.31" y2="233.556" gradientUnits="userSpaceOnUse">
<stop stop-color="#CFE2E8"/>
<stop offset="1" stop-color="#CFE2E8" stop-opacity="0"/>
</linearGradient>
<linearGradient id="paint14_linear" x1="1005.7" y1="172.402" x2="1044.31" y2="233.556" gradientUnits="userSpaceOnUse">
<stop stop-color="#CFE2E8"/>
<stop offset="1" stop-color="#CFE2E8" stop-opacity="0"/>
</linearGradient>
<linearGradient id="paint15_linear" x1="1005.7" y1="172.402" x2="1044.31" y2="233.556" gradientUnits="userSpaceOnUse">
<stop stop-color="#CFE2E8"/>
<stop offset="1" stop-color="#CFE2E8" stop-opacity="0"/>
</linearGradient>
<linearGradient id="paint16_linear" x1="1005.7" y1="172.402" x2="1044.31" y2="233.556" gradientUnits="userSpaceOnUse">
<stop stop-color="#CFE2E8"/>
<stop offset="1" stop-color="#CFE2E8" stop-opacity="0"/>
</linearGradient>
<linearGradient id="paint17_linear" x1="1005.7" y1="172.402" x2="1044.31" y2="233.556" gradientUnits="userSpaceOnUse">
<stop stop-color="#CFE2E8"/>
<stop offset="1" stop-color="#CFE2E8" stop-opacity="0"/>
</linearGradient>
<linearGradient id="paint18_linear" x1="1005.7" y1="172.402" x2="1044.31" y2="233.556" gradientUnits="userSpaceOnUse">
<stop stop-color="#CFE2E8"/>
<stop offset="1" stop-color="#CFE2E8" stop-opacity="0"/>
</linearGradient>
<linearGradient id="paint19_linear" x1="1005.7" y1="172.402" x2="1044.31" y2="233.556" gradientUnits="userSpaceOnUse">
<stop stop-color="#CFE2E8"/>
<stop offset="1" stop-color="#CFE2E8" stop-opacity="0"/>
</linearGradient>
<linearGradient id="paint20_linear" x1="978.947" y1="132" x2="978.947" y2="166.582" gradientUnits="userSpaceOnUse">
<stop offset="0.117249" stop-color="#1BA4CE"/>
<stop offset="1" stop-color="#1BA4CE" stop-opacity="0.7"/>
</linearGradient>
</defs>
</svg>
