<svg width="670" height="309" viewBox="0 0 670 309" fill="none" xmlns="http://www.w3.org/2000/svg">
<g opacity="0.3">
<path d="M362.421 76.0428C367.146 78.6416 372.754 78.8848 379.732 86.2371L383.61 109.042L373.142 123.622L365.665 130.226V132.594L360.307 134.09L351.459 135.211L354.076 128.731L356.444 129.728L359.684 128.233L362.799 121.254L364.668 117.765C366.122 112.199 367.634 100.294 362.051 97.2033C355.073 93.3402 355.82 91.9694 354.948 90.7233C354.076 89.4771 352.705 80.754 336.63 81.0032C335.872 78.9307 333.488 74.5352 330.01 73.5329C332.027 72.3611 333.571 70.9469 334.617 69.4875C337.073 66.0606 336.401 62.7985 334.632 59.2494C334.627 59.2394 334.622 59.2294 334.617 59.2194C333.336 56.6581 332.086 54.3643 331.393 51.261C330.793 51.1602 329.499 48.9843 329.177 45.9219C329.042 44.6378 329.209 43.8992 329.503 43.5041C326.457 33.5309 330.184 22.3489 342.564 21.3415C351.096 20.6473 353.665 22.4527 353.757 23.7592C359.328 23.6249 368.767 29.5013 362.421 47.03C362.018 49.6492 359.399 52.2575 358.593 52.6713C357.675 55.0832 355.806 60.4416 352.951 62.7452C351.695 66.515 352.122 69.4208 358.247 73.5329C359.42 74.3205 360.802 75.1523 362.421 76.0428Z" fill="url(#paint0_linear)"/>
<path d="M375.226 169.726C379.819 161.344 381.639 147.294 381.975 141.317L377.005 144.682L372.644 141.317L369.404 143.685L367.036 147.673L361.179 151.037L359.684 151.66L363.796 154.402L367.036 160.01L370.151 168.857L371.771 174.59L367.036 177.954L366.537 183.064L367.036 189.917L366.537 194.902L364.793 200.634V204.747L366.537 209.856L365.914 213.844L361.179 218.579L360.182 220.199L359.684 226.679L360.805 228.673L360.182 231.539L357.69 233.284L355.571 244.25L358.687 244.873L357.067 247.864L362.924 252.475L369.483 253.97V252.848V212.137C369.483 209.618 369.483 180.203 375.226 169.726Z" fill="url(#paint1_linear)"/>
</g>
<path opacity="0.2" d="M334.617 59.2194C333.336 56.6581 332.086 54.3643 331.393 51.261M334.617 59.2194C336.598 63.2154 344.792 68.5881 352.951 62.7452M334.617 59.2194C336.397 62.7802 337.08 66.051 334.617 69.4875M330.99 43.3027C330.252 42.8997 328.855 42.8594 329.177 45.9219C329.499 48.9843 330.793 51.1602 331.393 51.261M330.99 43.3027C332.199 47.03 330.996 49.4821 331.393 51.261M330.99 43.3027C332.333 39.0716 333.811 33.5309 339.049 35.2434C343.899 36.8288 350.727 36.0274 351.215 33.5309C353.757 35.8479 360.708 32.1205 359.902 44.9144M352.951 62.7452C355.806 60.4416 357.675 55.0832 358.593 52.6713M352.951 62.7452C351.695 66.515 352.122 69.4209 358.247 73.533M379.732 86.2371C372.754 78.8848 367.146 78.6416 362.421 76.0428C360.802 75.1523 359.42 74.3205 358.247 73.533M381.975 141.317C381.639 147.294 379.819 161.344 375.226 169.726C369.483 180.203 369.483 209.618 369.483 212.137C369.483 214.152 369.483 243.983 369.483 252.848M350.131 56.4996C346.958 60.8155 340.953 59.2411 339.14 55.8109C338.636 55.005 337.869 56.9831 338.11 56.4996M359.902 44.9144C360.584 44.6794 362.743 44.9346 362.421 47.03M359.902 44.9144C359.43 46.4256 358.593 48.3395 358.593 52.6713M362.421 47.03C362.018 49.6492 359.399 52.2575 358.593 52.6713M362.421 47.03C368.767 29.5013 359.328 23.6249 353.757 23.7592C353.665 22.4527 351.096 20.6473 342.564 21.3415C330.184 22.3489 326.457 33.5309 329.503 43.5041M349.123 40.7931C350.587 42.2477 353.577 41.1262 354.362 43.7145M330.01 73.533C332.027 72.3611 333.571 70.9469 334.617 69.4875M334.617 69.4875C337.159 73.7459 345.445 80.5168 358.247 73.533M341.12 40.5827C339.657 42.0373 336.666 40.9158 335.882 43.5041" stroke="#3F5F72" stroke-width="1.24616" stroke-linecap="round" stroke-linejoin="round"/>
<ellipse cx="350.816" cy="47.226" rx="2.01204" ry="1.61183" transform="rotate(31.1048 350.816 47.226)" fill="#DCE4E7"/>
<ellipse cx="339.035" cy="46.6406" rx="1.97346" ry="1.61183" transform="rotate(-42.8314 339.035 46.6406)" fill="#DCE4E7"/>
<path opacity="0.2" d="M274.287 45.9222C274.422 44.6381 274.255 43.8995 273.961 43.5044C274.289 42.4303 274.538 41.3421 274.707 40.2542C272.619 35.7198 272.704 30.6386 273.008 28.6649C270.857 24.7007 266.892 21.8294 260.9 21.3418C258.801 21.171 257.062 21.1515 255.633 21.2387C255.649 20.1816 255.587 19.2106 255.457 18.3218C253.577 5.52764 237.524 9.76398 236.941 19.3187C236.655 24.0155 239.687 25.5241 242.175 25.8079C242.669 25.8642 243.141 25.8723 243.561 25.8475C239.591 28.8516 236.816 35.3571 241.043 47.0303C241.247 48.3586 242.021 49.684 242.84 50.7219H244.808C260.374 52.616 261.003 62.2544 259.372 66.8368L258.749 69.0404C260.369 70.9096 259.995 74.4071 259.621 76.0935C264.481 86.2619 258.749 96.3312 258.749 98.0759C258.749 99.4716 255.509 101.15 253.889 101.814L255.633 103.31L264.606 98.9482C264.905 89.5771 273.204 79.2589 277.316 75.2712C273.329 75.2712 269.141 72.369 268.095 70.9096C265.647 67.4949 267.048 62.8401 268.813 59.2878C268.824 59.265 268.836 59.2423 268.847 59.2197C270.127 56.6584 270.268 55.3206 270.961 52.2173C271.562 52.1165 273.964 48.9846 274.287 45.9222Z" fill="url(#paint2_linear)"/>
<path opacity="0.15" d="M268.847 59.2197C270.127 56.6584 270.268 55.3206 270.961 52.2173M268.847 59.2197C267.066 62.7805 265.631 67.4731 268.095 70.9096M268.847 59.2197C267.452 62.0324 264.129 66.9241 259.372 66.8368M272.473 43.3029C273.212 42.9 274.609 42.8597 274.287 45.9222C273.964 48.9846 271.562 52.1165 270.961 52.2173M272.473 43.3029C271.265 47.0303 271.358 50.4383 270.961 52.2173M272.473 43.3029C271.13 39.0718 270.297 33.7992 266.599 37.8865C262.18 42.7723 250.195 34.2768 249.706 31.7803C247.164 34.0973 242.755 32.1208 243.561 44.9147M243.561 44.9147C242.879 44.6796 240.72 44.9349 241.043 47.0303M243.561 44.9147C243.956 46.1774 244.605 47.7213 244.808 50.7219M241.043 47.0303C236.816 35.3571 239.591 28.8516 243.561 25.8475M241.043 47.0303C241.247 48.3586 242.021 49.684 242.84 50.7219M273.961 43.5044C274.289 42.4303 274.538 41.3421 274.707 40.2541M277.316 75.2712C273.329 75.2712 269.141 72.369 268.095 70.9096M268.095 70.9096C266.694 73.2556 264.303 74.9423 259.621 76.0935M243.561 25.8475C245.553 24.3405 247.846 23.7146 249.706 23.7595C249.776 22.7744 251.254 21.5057 255.633 21.2387M243.561 25.8475C243.141 25.8723 242.668 25.8642 242.175 25.8079M255.633 21.2387C257.062 21.1515 258.801 21.171 260.9 21.3418C266.892 21.8294 270.857 24.7007 273.008 28.6649M255.633 21.2387C255.649 20.1816 255.587 19.2106 255.457 18.3218M242.175 25.8079C239.687 25.5241 236.655 24.0155 236.941 19.3187C237.524 9.76398 253.577 5.52764 255.457 18.3218M242.175 25.8079C243.22 22.9802 247.34 17.5242 255.457 18.3218" stroke="#3F5F72" stroke-width="1.24616" stroke-linecap="round" stroke-linejoin="round"/>
<g opacity="0.5">
<g opacity="0.5">
<path d="M290.865 38.6339C290.865 35.1447 291.737 34.397 292.859 32.5278C293.98 30.6585 288.747 23.8047 287.5 22.8077C287.356 22.6921 287.306 22.6371 287.335 22.6333C286.627 21.9125 283.771 19.2639 281.174 20.5456C277.416 22.4006 284.92 13.8249 287.5 12.5893C292.482 10.2038 297.694 9.95013 302.953 11.369C301.467 11.7759 297.368 12.9384 292.859 14.3339C287.222 16.0782 299.837 23.057 304.976 21.437C314.536 18.4228 313.824 20.8139 318.836 27.2939C318.845 28.6915 318.688 29.8045 318.53 30.4093C317.932 32.7022 316.659 33.6078 316.097 33.7739C316.212 33.0018 316.315 32.2194 316.381 31.4062C315.451 30.1343 313.111 27.8689 310.173 27.0244C308.789 27.2977 305.38 27.6545 302.373 27.9975C300.497 28.5994 298.66 29.1242 296.971 28.8727C297.672 30.5902 296.24 32.9865 296.377 34.8955C308.091 30.4093 306.087 34.5201 306.097 34.8955C306.165 37.2634 305.67 37.9251 305.599 39.8801C305.488 42.9502 309.587 44.3663 307.593 46.9832C305.599 49.6001 309.492 49.1017 309.213 51.3447C308.337 58.3685 306.567 56.2048 304.976 61.4131C306.671 70.8635 303.669 75.6695 301.956 76.8913C309.069 75.5204 320.304 76.8913 329.151 82.0625L324.54 83.6202L320.677 85.9879L315.942 87.8572L312.079 91.9695L307.842 101.44V107.422L310.804 113.03L313.824 119.385V125.366L315.319 130.102L310.804 131.597L304.602 136.208L296.876 132.719L290.022 127.859L281.423 123.746L274.167 110.413C271.752 105.797 269.323 103.001 267.468 101.44C269.585 88.3805 283.386 76.6462 290.022 72.4114C291.306 62.2445 288.519 51.8774 286.922 47.8435C286.907 47.8054 286.892 47.7679 286.877 47.7309C287.552 43.9426 284.612 40.4616 282.545 39.0078C279.331 38.2103 281.299 39.3816 279.554 40.6278C276.127 34.0493 276.563 27.1693 280.427 21.437C284.69 20.7308 288.277 26.7955 289.897 32.0293L290.865 38.6339Z" fill="url(#paint3_linear)"/>
<path d="M327.128 147.299V143.685L325.537 143.187L323.045 144.682L322.048 146.8H325.039L327.128 147.299Z" fill="url(#paint4_linear)"/>
<path d="M327.128 155.399V160.134L323.793 161.38L322.048 163.374L318.808 171.35L320.304 174.839L322.891 177.581V181.942L322.048 185.556L321.051 189.294L322.048 194.404L324.665 202.005L323.793 207.114L320.304 209.108L321.051 213.594L318.808 212.598L314.322 215.09L313.325 219.825L314.322 222.442H318.31H321.051L326.381 223.603L324.636 248.113H323.294L320.304 249.235L318.31 252.225L312.922 252.973C312.723 249.284 311.094 232.61 310.804 224.685C309.439 224.608 309.057 224.413 307.688 224.311C306.317 225.433 299.837 225.807 293.482 225.807L291.143 227.427L290.491 230.791L289.37 237.895V245.621C289.743 249.484 290.491 259.204 290.491 261.705C293.317 262.159 299.591 262.643 302.082 260.948C301.855 263.014 301.892 265.796 301.707 267.462C301.96 267.424 302.023 267.561 302.454 268.04C303.576 269.286 304.324 274.905 304.324 277.398C304.78 278.312 305.32 280.488 303.825 281.884C302.363 283.249 298.965 286.245 289.993 285.622L288.373 282.881L287.251 272.787L289.193 270.918L287.251 268.799L287.002 267.055L287.251 265.435C288.622 265.185 289.494 264.981 290.491 264.936C290.541 264.034 290.538 262.942 290.491 261.705C290.491 259.204 289.743 249.484 289.37 245.621V237.895L290.491 230.791L291.143 227.427L293.482 225.807L297.748 223.603L301.113 220.448V213.594L300.365 197.644L299.119 189.294L296.224 179.076L289.399 163.997L287.081 158.764L293.76 156.77L299.742 157.393L302.608 158.764H311.58L313.076 158.14L318.434 152.657L319.307 155.399L322.048 157.767L324.665 157.393L327.128 155.399Z" fill="url(#paint5_linear)"/>
<path d="M321.521 277.398C319.028 277.797 316.328 276.567 315.29 275.902V273.41L315.693 267.678L333.887 275.279H336.973V278.021V280.116C335.577 280.006 334.026 279.534 332.113 278.768C327.128 276.775 325.757 276.72 321.521 277.398Z" fill="url(#paint6_linear)"/>
<path d="M281.922 136.707L278.433 134.837V137.828L280.177 145.18L283.293 152.159L290.022 151.037L293.013 149.542L298.371 147.299V144.682L299.742 142.065L298.371 140.943L293.013 138.95L286.159 137.828L281.922 136.707Z" fill="url(#paint7_linear)"/>
</g>
<path d="M264.818 99.8214C263.738 94.9614 266.762 81.8269 287.498 68.169M287.498 68.169C287.332 64.6382 286.925 56.9785 286.626 54.5859M287.498 68.169C288.246 71.3675 293.235 77.5149 301.954 76.8921C308.185 76.4471 309.057 70.038 308.558 66.0505M286.626 54.5859C260.706 32.2797 277.778 16.8273 286.626 12.5904C291.607 10.2049 297.692 9.95099 302.951 11.3699C320.023 13.2651 319.275 27.544 318.528 30.4102C317.929 32.7031 316.657 33.6086 316.095 33.7748M286.626 54.5859C288.022 51.9941 287.374 48.9365 286.875 47.7318C282.888 50.4733 278.651 41.3579 281.517 38.6348C285.006 35.3197 287.748 39.0087 289.243 46.1118C289.349 46.6145 290.821 46.4441 291.486 46.1118C291.278 44.3256 290.863 41.4262 290.863 38.6348C290.863 35.1456 291.735 34.3979 292.857 32.5286C293.978 30.6594 288.744 23.8055 287.498 22.8086C286.252 21.8117 292.072 25.3205 293.978 27.2948C297.468 30.9086 302.203 27.544 306.689 26.7963C311.175 26.0486 315.103 29.6625 316.379 31.4071C316.313 32.2203 316.21 33.0026 316.095 33.7748M308.558 66.0505L308.185 59.4459M308.558 66.0505C316.825 67.5874 333.681 72.2312 335.974 80.5057M308.185 59.4459C306.731 61.3982 302.078 63.3339 295.598 59.4459M308.185 59.4459C310.677 56.0991 315.412 52.6985 315.412 40.0058C315.412 37.7504 315.794 35.7975 316.095 33.7748M274.164 110.413C276.374 107.264 282.015 103.684 287.079 104.307M310.801 131.598C303.229 127.61 294.975 123.972 291.486 116.769C289.961 113.62 290.988 110.413 287.079 104.307M287.079 104.307C286.626 101.317 287.224 98.5251 287.623 97.3288M296.221 179.077C302.868 179.284 317.007 179.276 322.889 177.581M327.126 143.686V147.3M327.126 155.4V160.135M309.929 194.405C305.941 203.501 307.686 213.346 307.686 224.312M307.686 224.312C306.315 225.434 299.835 225.808 293.48 225.808M307.686 224.312C309.055 224.414 309.437 224.609 310.801 224.686M296.221 36.2671C296.969 35.0625 300.01 34.024 301.705 34.5225M307.561 34.5225C308.185 34.024 310.801 33.5256 313.169 35.8933M301.206 38.6348C300.832 38.6348 300.217 38.6852 299.96 38.7594M299.96 38.7594C298.888 38.9543 298.514 39.5767 298.283 40.0961C297.893 40.973 299.16 42.0449 300.134 41.3628C300.87 40.8476 300.739 39.6037 299.96 38.7594ZM308.683 38.0548C309.057 38.0117 309.555 38.0548 309.852 38.0548M309.852 38.0548C310.924 38.2497 311.375 38.7044 311.606 39.2238C311.996 40.1007 310.729 41.1726 309.755 40.4905C309.019 39.9753 309.073 38.899 309.852 38.0548ZM295.598 48.6041C295.706 48.7653 296.471 49.4764 296.969 49.9748M296.969 49.9748C298.312 50.9224 303.325 52.9656 306.565 52.4672C302.951 57.701 298.283 53.7133 296.969 49.9748ZM289.368 245.622C289.741 249.485 290.489 259.205 290.489 261.706M290.489 264.937C289.492 264.982 288.62 265.186 287.249 265.435M290.489 264.937C292.317 264.854 298.564 264.837 298.963 265.435C299.121 265.673 299.088 266.467 298.963 267.463M290.489 264.937C290.539 264.034 290.536 262.942 290.489 261.706M288.371 282.882C301.705 284.252 304.321 278.905 304.321 277.399M304.321 277.399C304.321 274.906 303.574 269.287 302.452 268.041C302.021 267.562 301.958 267.425 301.705 267.463M304.321 277.399C304.778 278.312 305.318 280.489 303.823 281.885C302.36 283.25 298.963 286.246 289.991 285.623M298.963 267.463C298.772 268.979 298.491 270.214 298.215 271.417C297.979 271.279 297.229 271.901 296.845 271.791M298.963 267.463C302.645 267.177 301.298 267.525 301.705 267.463M301.705 267.463C301.889 265.797 301.853 263.015 302.08 260.949M305.069 225.185C305.069 232.662 303.386 249.092 302.08 260.949M290.489 261.706C293.315 262.16 299.589 262.644 302.08 260.949M287.249 268.8L289.191 270.919M289.191 270.919L289.991 271.791C291.354 271.057 294.801 271.205 296.845 271.791M289.191 270.919L287.249 272.788M296.845 271.791C297.201 270.171 297.891 267.454 297.592 267.055C297.218 266.557 288.246 266.432 287 267.055M310.801 224.686C311.092 232.611 312.721 249.285 312.92 252.974M310.801 224.686C316.442 225.006 322.846 224.9 326.378 223.604L324.634 248.114M315.288 275.903C316.326 276.568 319.026 277.797 321.518 277.399C325.755 276.721 327.126 276.776 332.111 278.769C334.024 279.535 335.575 280.007 336.971 280.117M315.288 273.411C317.032 275.031 319.961 275.903 322.765 275.28C328.889 273.919 333.357 277.7 336.971 278.022" stroke="url(#paint8_linear)" stroke-width="1.24616" stroke-linecap="round" stroke-linejoin="round"/>
<ellipse cx="299.564" cy="40.2041" rx="0.974324" ry="1.07176" fill="#3F5F72"/>
<ellipse cx="310.533" cy="39.4565" rx="0.974324" ry="1.07176" fill="#3F5F72"/>
</g>
<path d="M403.544 273.41C403.544 271.117 401.384 267.802 400.304 266.432C402.049 262.195 403.544 247.49 401.301 242.381C393.314 224.187 394.447 215.09 394.447 187.425L395.444 184.684L402.548 182.441V193.282L405.289 195.276L408.155 205.993L410.149 220.698L411.395 228.673L413.015 237.022L414.635 263.067L411.395 270.295L411.894 276.525L409.775 282.133L402.049 281.136C397.363 282.831 387.054 282.175 382.484 281.635L382.983 279.392C397.314 278.893 403.544 276.276 403.544 273.41Z" fill="url(#paint9_linear)"/>
<path d="M424.354 272.413C425.65 280.388 418.58 285.373 414.883 286.868C421.487 288.862 427.967 286.868 429.961 285.996C431.955 285.124 431.332 276.525 432.703 274.905C433.799 273.609 433.741 242.879 433.575 227.676L432.703 193.407L427.967 196.273L418.497 198.391C418.497 204.954 418.945 220.224 420.74 228.798C422.983 239.515 422.734 262.444 424.354 272.413Z" fill="url(#paint10_linear)"/>
<path d="M421.614 193.033C421.215 194.329 419.122 196.979 418.125 198.142C425.702 196.547 431.085 194.071 432.83 193.033C433.079 192.244 433.303 190.59 432.207 190.291C430.836 189.918 422.113 191.413 421.614 193.033Z" fill="url(#paint11_linear)"/>
<path d="M433.809 65.862C433.816 65.5621 433.773 65.2215 433.671 64.8342C433.781 65.1712 433.824 65.5144 433.809 65.862C433.806 65.9861 433.794 66.1032 433.774 66.2138C433.16 70.2009 425.246 74.6521 420.922 76.548C420.595 73.1797 422.854 69.9187 424.574 68.9465C427.109 67.5138 433.25 69.1024 433.774 66.2138C433.792 66.0961 433.804 65.9788 433.809 65.862Z" fill="url(#paint12_linear)"/>
<path d="M451.491 82.7789C450.398 79.4514 435.914 96.3619 437.534 87.0158C438.671 80.4542 435.325 75.6738 432.799 75.3483C434.502 75.0836 438.157 76.0496 440.899 80.5357C443.014 83.9977 449.996 76.548 451.491 82.7789Z" fill="url(#paint13_linear)"/>
<path d="M418.222 116.3C416.353 110.194 417.724 109.322 420.092 108.574C421.385 108.166 424.564 107.618 427.319 107.192C428.43 110.021 430.308 116.201 428.939 118.294C427.99 119.747 424.405 121.297 421.213 122.407C419.885 123.238 418.222 125.896 420.465 128.388C423.132 131.351 426.447 125.647 429.717 129.51C428.414 134.79 426.726 141.058 425.198 146.582C423.87 146.748 421.624 147.656 420.465 146.208C419.468 144.962 422.545 133.899 419.718 134.37C417.475 134.744 414.11 140.725 410.87 132.376C409.364 128.496 410.247 122.78 414.858 123.573C416.46 123.848 416.646 123.83 417.475 123.573C419.264 123.017 419.5 120.474 418.222 116.3Z" fill="url(#paint14_linear)"/>
<path d="M392.829 65.9248C386.722 64.8033 383.856 60.5663 393.95 60.5663C405.307 60.5663 410.649 47.1078 410.524 39.0078C410.479 36.0725 410.466 33.9298 410.469 32.4177C410.378 31.1751 410.43 30.104 410.524 29.4124C410.501 29.6851 410.474 30.5916 410.469 32.4177C410.619 34.4588 411.155 36.9628 412.518 39.0078C415.259 43.1201 415.259 61.5632 397.19 64.8033L392.829 65.9248Z" fill="url(#paint15_linear)"/>
<path d="M407.534 60.9402C408.132 66.2239 404.958 70.2033 403.297 71.5325H404.418C417.378 62.0617 417.129 52.8402 416.257 51.2202C415.559 49.9242 415.135 45.3632 415.011 43.2448C414.678 43.2863 413.964 44.0921 413.765 46.9832C413.565 49.8743 409.528 57.4925 407.534 60.9402Z" fill="url(#paint16_linear)"/>
<path d="M429.962 162.004L427.844 170.353H433.327L436.567 163.374L452.144 122.002V86.7356L445.664 89.7264C438.561 95.7079 445.664 116.02 437.564 122.002C434.507 124.259 445.664 120.506 444.168 125.99L433.327 162.004H429.962Z" fill="url(#paint17_linear)"/>
<path d="M357.687 139.448H351.207L352.702 144.433L357.687 149.542C359.764 149.376 363.793 147.997 364.292 145.803C364.79 143.61 364.126 143.643 362.921 143.062L357.687 139.448Z" fill="url(#paint18_linear)"/>
<path d="M373.88 139.35C373.647 138.989 372.459 136.637 373.888 135.46C376.007 133.716 378.522 133.005 378.001 131.847C376.879 129.354 377.627 127.983 380.991 125.616C382.865 124.297 392.705 111.908 389.59 109.042C386.475 106.176 379.621 85.3649 386.475 75.5202L392.581 71.0341L393.204 74.7725C395.696 85.1156 392.581 86.1541 390.836 91.9695C390.088 94.4618 389.715 105.926 394.076 112.905L392.331 129.728L381.988 137.454V140.445L376.879 144.682L373.141 141.691L373.88 139.35Z" fill="url(#paint19_linear)"/>
<path d="M414.391 75.7694C417.88 66.8968 415.844 63.7648 414.391 63.3078C415.487 61.4137 416.675 55.9555 417.132 53.4632C420.123 54.2607 421.868 57.3678 422.366 58.8217C431.139 62.4106 432.958 66.7971 432.958 66.7971C432.958 66.7971 430.391 69.2894 426.603 66.7971C422.815 64.3048 416.883 71.7402 414.391 75.7694Z" fill="url(#paint20_linear)"/>
<path d="M406.539 110.911C393.759 110.911 392.624 102.146 390.464 96.3311C388.769 101.515 392.499 110.122 394.576 113.777L392.582 129.853C387.298 140.819 391.294 157.351 393.953 164.247V168.484L399.187 170.104L402.925 169.107L401.181 165.493C404.088 165.244 407.661 163.624 398.688 159.137C387.473 153.53 391.943 132.51 396.321 125.367C398.688 121.503 403.05 119.883 409.904 119.136C416.758 118.388 413.518 110.911 406.539 110.911Z" fill="url(#paint21_linear)"/>
<path d="M396.442 25.1756C404.542 30.7833 401.925 40.3786 395.071 40.3786C401.053 43.8679 405.613 41.2011 406.411 38.011C407.408 34.0233 406.162 24.4279 404.542 20.5648C402.922 16.7017 401.563 18.4464 397.688 18.4463C393.825 18.4463 394.342 23.7219 396.442 25.1756Z" fill="url(#paint22_linear)"/>
<path d="M375.884 14.2093C381.068 11.8167 386.102 7.06466 387.971 4.98773C385.479 10.4708 386.933 13.6693 387.971 14.5831C387.971 15.8293 381.367 19.4432 376.756 21.8109C373.067 23.705 372.561 27.6678 372.768 29.4124L370.899 28.0416C366.537 23.3062 369.404 17.2001 375.884 14.2093Z" fill="url(#paint23_linear)"/>
<path d="M405.042 10.7199C390.711 14.4584 389.59 7.10607 392.331 2.24606C390.213 1.99683 386.353 5.48606 386.848 10.7199C387.72 19.9415 397.939 18.0723 402.674 18.0723C407.41 18.0723 411.148 27.5431 411.148 26.7954C411.148 23.925 419.124 22.06 417.13 36.1415C419.871 27.9169 418.596 7.18406 405.042 10.7199Z" fill="url(#paint24_linear)"/>
<path d="M388.343 46.734C385.84 47.5077 385.477 50.0986 380.492 50.9709C384.355 53.4633 388.717 51.8432 389.215 50.9709C389.614 50.2731 390.461 49.6832 390.835 49.4755C401.203 50.6719 406.038 46.1525 407.16 43.7432C399.932 48.8525 395.197 44.6155 388.343 46.734Z" fill="url(#paint25_linear)"/>
<path d="M350.43 136.488C353.67 132.999 359.252 134.32 361.645 134.12C363.288 133.984 364.868 133.212 365.965 132.5M359.402 150.819C366.754 150.819 368.25 145.336 369.371 143.84C370.044 142.943 371.694 141.85 372.985 141.096M352.174 139.105C353.088 139.313 356.76 138.507 357.657 139.105C358.779 139.853 361.645 145.211 365.965 141.722M365.965 132.5C366.467 132.175 366.868 131.863 367.128 131.628C369.164 133.414 373.409 137.684 374.107 140.476C373.806 140.632 373.415 140.845 372.985 141.096M365.965 132.5C365.647 131.877 365.359 130.407 366.754 129.51C368.499 128.388 372.113 123.279 372.362 123.03C372.398 122.994 372.624 123.25 372.985 123.723M372.985 141.096C373.11 142.215 376.599 144.962 377.097 144.588C377.596 144.214 382.456 141.348 382.331 139.105C382.316 138.821 382.147 138.346 381.866 137.734M372.985 123.723C375.851 119.587 381.957 110.867 383.453 109.073M372.985 123.723C374.836 126.139 380.241 134.21 381.866 137.734M383.453 109.073C385.945 107.577 388.562 108.076 390.057 109.073M383.453 109.073C382.414 103.174 380.263 90.505 379.964 87.0158C379.59 82.6543 386.07 75.1464 392.425 70.2864M392.425 70.2864C392.467 68.874 392.799 67.3764 393.298 66.0804M392.425 70.2864C392.757 72.4879 394.668 79.3893 399.154 82.7789C399.279 79.9127 399.852 73.9561 401.148 73.0588M381.866 137.734L392.55 129.51M392.55 129.51C392.55 128.214 394.544 117.547 394.544 113.185C392.55 108.574 388.437 102.063 390.805 92.0004M392.55 129.51C388.485 141.705 390.057 157.144 394.045 163.904M394.045 163.904C395.831 163.945 399.952 164.452 402.145 166.147M394.045 163.904V168.857M402.145 166.147C401.314 164.319 399.902 160.489 400.899 159.791C402.145 158.919 411.242 157.611 412.364 157.891C412.624 157.956 416.332 158.971 416.186 159.791M402.145 166.147C404.183 170.659 400.826 170.69 397.228 169.356M394.045 168.857C395.416 168.857 396.15 168.956 397.228 169.356M394.045 168.857C385.821 168.328 386.319 184.684 394.544 184.715M394.544 184.715C393.298 195.058 394.793 217.688 394.793 221.975C394.793 224 395.505 227.076 396.458 230.449M394.544 184.715C394.849 184.519 395.48 184.793 395.914 184.559M399.279 239.639C398.504 235.841 398.027 235.998 396.458 230.449M396.458 230.449C396.458 241.965 399.922 253.801 396.911 265.092C396.413 266.961 396.039 268.207 396.911 268.955M396.911 268.955L400.027 266.338C402.145 266.462 404.388 268.581 408.999 269.827H412.114M396.911 268.955C394.793 271.53 391.628 275.859 386.444 276.556C383.364 276.971 382.243 278.139 382.014 279.298M412.114 269.827C411.658 271.073 411.018 274.114 412.114 276.307M412.114 269.827C416.878 264.005 413.42 237.577 411.242 230.449C409.871 225.962 409.871 224.093 409.871 216.741C409.871 209.388 405.884 196.304 405.884 195.182M410.245 281.666C409.498 281.956 407.155 282.114 404.264 281.416C400.65 280.544 402.394 281.416 396.039 282.289C390.955 282.987 385.945 281.998 382.456 281.416C382.119 280.877 381.858 280.09 382.014 279.298M410.245 281.666C409.913 284.033 411.572 288.021 420.962 288.021C432.551 288.021 432.402 284.615 432.925 281.003M410.245 281.666C410.245 280.834 410.396 280.028 410.619 279.298M412.114 276.307C412.53 275.103 413.884 272.569 415.978 272.07C419.841 270.326 432.427 272.07 432.925 277.304M412.114 276.307C411.708 276.822 411.036 277.927 410.619 279.298M405.884 195.182C404.928 195.182 402.768 193.999 402.394 193.407C401.716 192.332 404.887 183.344 402.145 182.471C400.365 181.905 397.784 183.552 395.914 184.559M405.884 195.182H409.871M405.884 195.182C405.884 194.808 406.105 192.766 406.507 188.173C407.005 182.471 404.887 178.953 395.914 184.559M432.925 277.304C434.088 276.972 434.67 274.836 434.67 268.207C434.67 258.332 434.67 241.913 433.548 227.832C433.548 206.741 432.751 200.79 433.05 192.815M432.925 277.304C433.047 278.584 433.095 279.834 432.925 281.003M433.05 192.815C430.807 195.556 426.819 196.678 423.953 196.802C421.087 196.927 416.974 199.668 413.734 198.671C411.142 197.874 410.079 196.013 409.871 195.182M433.05 192.815C433.537 192.495 434.149 191.84 434.651 190.821M393.298 66.0804C393.838 66.0388 395.242 65.7314 396.538 64.8342M393.298 66.0804C382.929 65.7813 381.667 56.9326 382.331 52.5456M401.148 73.0588C399.653 70.9819 396.637 66.4293 396.538 64.8342M401.148 73.0588C401.688 72.5188 403.117 71.5385 404.513 71.9373M401.148 73.0588C403.142 81.9648 403.142 94.8702 403.142 96.985C403.142 97.5772 407.338 97.3589 409.248 96.3619C409.248 90.9726 408.999 84.4926 408.874 81.9648M396.538 64.8342C405.759 65.208 416.547 56.3019 412.628 39.3817M404.513 71.9373C405.676 72.8927 407.952 76.3985 407.753 82.7789C408.108 82.5352 408.483 82.2633 408.874 81.9648M404.513 71.9373C417.074 61.0708 417.681 54.2418 416.601 51.2511M421.71 55.8619C421.211 54.3249 418.096 49.2572 416.601 51.2511M421.71 55.8619C423.763 67.4354 414.617 77.5816 408.874 81.9648M421.71 55.8619C425.282 57.2742 432.676 61.0459 433.673 64.8342M416.601 51.2511C415.978 50.6695 415.105 46.9144 415.105 44.0234C415.105 40.4095 423.081 27.4495 416.974 14.614C410.868 1.77861 404.565 -1.16305 390.805 2.40169M390.805 2.40169C386.942 4.61386 385.247 10.795 387.939 14.614M390.805 2.40169C376.474 -3.8291 355.613 20.1012 373.112 29.8864M387.939 14.614C393.298 22.2155 399.279 15.6109 403.516 19.1002C407.753 22.5894 407.753 36.1416 405.759 39.3817C402.008 45.4765 394.918 39.7864 391.927 40.5341M387.939 14.614C382.83 21.6862 370.78 19.1002 373.112 29.8864M391.927 40.5341C389.534 41.1322 388.271 43.1095 387.939 44.0234C386.734 43.5664 384.151 43.1012 383.453 44.8956C382.743 46.7212 382.363 48.2166 381.037 49.3818M391.927 40.5341C394.535 39.8819 401.148 44.5218 407.753 42.6525C406.463 47.0484 402.469 49.0752 398.434 49.8725M387.939 51.9981C388.905 51.5834 389.129 50.2298 390.057 49.3818C392.009 49.6386 395.605 50.4314 398.434 49.8725M387.939 51.9981C389.411 53.5026 394.668 54.3665 398.434 49.8725M387.939 51.9981C385.896 52.875 383.877 52.8972 382.331 52.5456M382.331 52.5456C380.096 52.0371 378.852 50.7468 379.964 50.1295C380.381 49.8975 380.734 49.6483 381.037 49.3818M412.628 39.3817C410.883 36.7232 408.899 30.9387 410.993 27.4494C413.61 23.0879 417.34 25.4556 416.974 32.0602C416.682 37.3439 413.627 39.0078 412.628 39.3817ZM413.61 34.5216C412.129 31.2816 413.61 26.0478 414.621 28.5401M381.037 49.3818C378.094 44.148 376.599 42.0295 377.347 38.1664C377.942 35.0888 374.582 36.7758 373.733 32.6833C373.55 31.8016 373.322 30.8599 373.112 29.8864M433.673 64.8342C434.919 69.5695 427.442 67.3265 424.576 68.9465C422.856 69.9187 420.597 73.1797 420.924 76.548M433.673 64.8342C435.069 69.121 425.756 74.4296 420.924 76.548M451.493 82.7789C450.4 79.4514 435.916 96.3619 437.536 87.0158C438.673 80.4542 435.327 75.6738 432.801 75.3483M451.493 82.7789C449.998 76.548 443.016 83.9977 440.901 80.5357C438.159 76.0496 434.504 75.0836 432.801 75.3483M451.493 82.7789C453.487 94.8357 452.615 107.192 452.615 121.534C452.615 124.456 442.298 148.783 437.197 161.91M421.211 160.664C421.211 160.664 431.928 162.284 436.664 163.281C436.835 162.839 437.013 162.382 437.197 161.91M421.211 160.664C421.211 160.664 418.52 160.065 418.221 160.664C417.847 161.411 417.224 168.39 418.221 169.138M421.211 160.664C421.211 160.664 423.046 154.36 425.197 146.582M425.947 93.3712C428.048 94.5618 429.637 100.673 430.649 106.705M420.924 76.548C421.312 80.5357 423.704 83.0281 425.947 82.7789C427.027 82.9035 429.436 82.0311 430.433 77.545C430.804 75.8742 431.729 75.2101 432.801 75.3483M418.221 169.138C418.413 169.282 419.153 169.427 420.214 169.567M418.221 169.138C414.398 167.609 415.705 162.489 416.186 159.791M433.548 170.508C432.18 170.508 424.075 170.076 420.214 169.567M433.548 170.508C432.801 179.107 433.05 173.998 435.044 182.098C436.054 186.203 435.518 189.058 434.651 190.821M433.548 170.508C435.731 170.508 437.331 167.403 438.043 165.15M437.197 161.91C437.574 162.229 437.852 162.481 438.043 162.721M420.214 169.567C420.09 170.712 419.741 173.2 419.342 173.998C418.844 174.994 413.361 175.742 412.239 179.854C411.118 183.967 411.367 187.83 413.734 190.073C415.105 191.372 415.446 191.115 415.604 190.821M415.604 190.821C416.061 189.948 416.974 187.855 416.974 186.459M415.604 190.821C414.989 192.067 412.982 194.684 409.871 195.182M421.211 193.936C421.585 193.147 422.657 191.419 423.953 190.821C425.573 190.073 430.807 190.073 431.928 190.073M430.649 106.705C431.437 111.405 431.874 116.057 431.928 118.294C431.965 119.809 431.038 124.151 429.715 129.51M430.649 106.705C429.783 106.824 428.596 106.995 427.318 107.192M425.197 146.582C423.868 146.748 421.622 147.656 420.464 146.208C419.467 144.962 422.543 133.899 419.716 134.37C417.473 134.744 414.108 140.725 410.868 132.376C409.363 128.496 410.245 122.78 414.856 123.573C416.459 123.848 416.644 123.83 417.473 123.573M425.197 146.582C426.724 141.058 428.412 134.79 429.715 129.51M417.473 123.573C419.262 123.017 419.498 120.474 418.221 116.3C416.351 110.194 417.722 109.322 420.09 108.574C421.384 108.166 424.562 107.618 427.318 107.192M417.473 123.573C418.469 123.301 419.802 122.897 421.211 122.407M427.318 107.192C428.428 110.021 430.307 116.201 428.938 118.294C427.988 119.747 424.404 121.297 421.211 122.407M421.211 122.407C419.883 123.238 418.221 125.896 420.464 128.388C423.13 131.351 426.445 125.647 429.715 129.51M382.014 279.298C387.603 280.212 396.488 280.619 401.771 279.298C404.264 278.675 406.631 280.918 410.619 279.298M410.619 279.298C410.66 281.707 413.042 285.146 422.707 284.781C429.311 284.532 431.804 282.787 432.925 281.003M388.687 25.5802C391.802 22.9633 395.665 24.5524 397.285 26.0478M380.711 27.9479C378.468 27.9479 376.101 30.191 376.101 33.0571M390.805 30.191C391.083 30.0868 391.426 29.9783 391.802 29.8864M391.802 29.8864C393.225 29.5383 395.113 29.4276 395.665 30.6894C396.538 32.6833 392.301 35.3141 391.802 29.8864ZM382.331 33.0571C381.876 33.0885 381.267 33.235 380.711 33.5612M380.711 33.5612C379.797 34.0981 378.349 35.388 379.341 36.9202C380.711 39.0387 384.699 34.9264 380.711 33.5612ZM395.914 184.559C389.684 183.437 388.313 168.577 397.228 169.356M397.228 169.356C401.533 171.225 404.564 171.24 405.385 170.104C407.005 167.861 405.053 164.496 404.139 161.91C405.151 161.204 408.977 159.791 416.186 159.791M434.651 190.821L439.281 190.073C438.849 184.684 437.852 180.683 438.849 178.888C440.095 176.645 442.532 180.487 445.636 178.888C449.499 176.898 450.396 172.336 449.499 167.861M438.043 165.15C438.533 166.116 440.57 166.116 441.15 165.15C442.271 163.281 447.615 162.004 449.499 167.861M438.043 165.15C438.456 163.843 438.524 163.323 438.043 162.721M449.499 167.861C448.934 165.04 445.406 160.757 441.399 161.442C439.779 161.719 440.143 163.195 438.043 162.721" stroke="#3F5F72" stroke-width="1.24616" stroke-linecap="round" stroke-linejoin="round"/>
<ellipse cx="432.638" cy="166.312" rx="0.996926" ry="1.24616" transform="rotate(-93.3774 432.638 166.312)" fill="#3F5F72"/>
<ellipse cx="372.268" cy="128.856" rx="0.996926" ry="1.24616" transform="rotate(-58.1102 372.268 128.856)" fill="#3F5F72"/>
<path d="M402.391 193.407C401.713 192.332 404.884 183.344 402.142 182.472C400.362 181.905 397.781 183.552 395.911 184.559C395.477 184.793 394.846 184.519 394.541 184.715C386.316 184.684 385.817 168.328 394.042 168.858C395.413 168.858 396.147 168.956 397.225 169.356C400.823 170.69 404.18 170.659 402.142 166.147C401.311 164.319 399.899 160.489 400.896 159.791C402.142 158.919 411.239 157.611 412.361 157.891C412.621 157.956 416.328 158.971 416.182 159.791C408.974 159.791 405.148 161.204 404.136 161.91C405.05 164.496 407.002 167.861 405.382 170.104C404.561 171.24 401.53 171.225 397.225 169.356C388.31 168.577 389.681 183.438 395.911 184.559C404.884 178.953 407.002 182.472 406.504 188.173C406.102 192.766 405.881 194.808 405.881 195.182C404.925 195.182 402.765 193.999 402.391 193.407Z" fill="#3F5F72"/>
<path d="M441.147 165.15C440.567 166.116 438.53 166.116 438.04 165.15C438.453 163.844 438.521 163.323 438.04 162.721C440.14 163.195 439.776 161.719 441.396 161.442C445.403 160.757 448.931 165.041 449.496 167.861C447.612 162.004 442.268 163.281 441.147 165.15Z" fill="#3F5F72"/>
<path d="M395.911 184.559C404.884 178.953 407.002 182.472 406.504 188.173C406.102 192.766 405.881 194.808 405.881 195.182C404.925 195.182 402.765 193.999 402.391 193.407C401.713 192.332 404.884 183.344 402.142 182.472C400.362 181.905 397.781 183.552 395.911 184.559ZM395.911 184.559C395.477 184.793 394.846 184.519 394.541 184.715C386.316 184.684 385.817 168.328 394.042 168.858C395.413 168.858 396.147 168.956 397.225 169.356M395.911 184.559C389.681 183.438 388.31 168.577 397.225 169.356M397.225 169.356C400.823 170.69 404.18 170.659 402.142 166.147C401.311 164.319 399.899 160.489 400.896 159.791C402.142 158.919 411.239 157.611 412.361 157.891C412.621 157.956 416.328 158.971 416.182 159.791C408.974 159.791 405.148 161.204 404.136 161.91C405.05 164.496 407.002 167.861 405.382 170.104C404.561 171.24 401.53 171.225 397.225 169.356ZM438.04 165.15C438.53 166.116 440.567 166.116 441.147 165.15C442.268 163.281 447.612 162.004 449.496 167.861C448.931 165.041 445.403 160.757 441.396 161.442C439.776 161.719 440.14 163.195 438.04 162.721C438.521 163.323 438.453 163.844 438.04 165.15Z" stroke="#3F5F72" stroke-width="1.24616" stroke-linecap="round" stroke-linejoin="round"/>
<path d="M420.214 169.567C419.153 169.427 418.412 169.282 418.22 169.138C414.397 167.609 415.704 162.489 416.185 159.791C408.976 159.791 405.15 161.204 404.138 161.91C405.052 164.496 407.004 167.861 405.384 170.104C404.563 171.24 401.532 171.225 397.227 169.356C388.312 168.577 389.683 183.438 395.914 184.559C404.886 178.953 407.004 182.471 406.506 188.173C406.104 192.766 405.883 194.808 405.883 195.182H409.871C412.981 194.684 414.988 192.067 415.603 190.821C415.445 191.115 415.104 191.372 413.734 190.073C411.366 187.83 411.117 183.967 412.238 179.855C413.36 175.742 418.843 174.995 419.341 173.998C419.74 173.2 420.089 170.712 420.214 169.567Z" fill="url(#paint26_linear)"/>
<path d="M433.548 170.508C432.8 179.107 433.049 173.998 435.043 182.098C436.053 186.203 435.517 189.058 434.65 190.821L439.28 190.073C438.848 184.684 437.851 180.683 438.848 178.888C440.094 176.645 442.531 180.487 445.635 178.888C449.498 176.898 450.395 172.336 449.498 167.861C447.614 162.004 442.271 163.281 441.149 165.15C440.569 166.116 438.532 166.116 438.042 165.15C437.33 167.403 435.73 170.508 433.548 170.508Z" fill="url(#paint27_linear)"/>
<path d="M420.214 169.567C419.153 169.427 418.412 169.282 418.22 169.138C414.397 167.609 415.704 162.489 416.185 159.791C408.976 159.791 405.15 161.204 404.138 161.91C405.052 164.496 407.004 167.861 405.384 170.104C404.563 171.24 401.532 171.225 397.227 169.356C388.312 168.577 389.683 183.438 395.914 184.559C404.886 178.953 407.004 182.471 406.506 188.173C406.104 192.766 405.883 194.808 405.883 195.182H409.871C412.981 194.684 414.988 192.067 415.603 190.821C415.445 191.115 415.104 191.372 413.734 190.073C411.366 187.83 411.117 183.967 412.238 179.855C413.36 175.742 418.843 174.995 419.341 173.998C419.74 173.2 420.089 170.712 420.214 169.567Z" stroke="#3F5F72" stroke-width="0.974324" stroke-linecap="round" stroke-linejoin="round"/>
<path d="M433.548 170.508C432.8 179.107 433.049 173.998 435.043 182.098C436.053 186.203 435.517 189.058 434.65 190.821L439.28 190.073C438.848 184.684 437.851 180.683 438.848 178.888C440.094 176.645 442.531 180.487 445.635 178.888C449.498 176.898 450.395 172.336 449.498 167.861C447.614 162.004 442.271 163.281 441.149 165.15C440.569 166.116 438.532 166.116 438.042 165.15C437.33 167.403 435.73 170.508 433.548 170.508Z" stroke="#3F5F72" stroke-width="0.974324" stroke-linecap="round" stroke-linejoin="round"/>
<ellipse cx="406.009" cy="92.7172" rx="0.996926" ry="1.24616" fill="#3F5F72"/>
<ellipse cx="405.759" cy="85.9879" rx="0.996926" ry="1.24616" fill="#3F5F72"/>
<ellipse cx="404.766" cy="79.0095" rx="0.996926" ry="1.24616" fill="#3F5F72"/>
<ellipse cx="393.799" cy="31.2816" rx="1.99385" ry="1.86924" fill="#3F5F72"/>
<ellipse cx="380.714" cy="35.6432" rx="1.62" ry="1.74462" fill="#3F5F72"/>
<path d="M312.422 159.137L310.055 158.514C310.553 157.019 316.161 147.424 318.723 152.782C316.285 153.405 314.416 156.645 312.422 159.137Z" fill="#3F5F72"/>
<path d="M319.401 155.592C319.556 155.766 319.826 156.022 320.145 156.294C323.69 158.456 330.557 149.011 325.881 146.825C326.67 147.149 328.797 148.271 328.996 149.168C329.782 152.704 326.205 158.205 322.267 157.642C321.787 157.574 320.847 156.894 320.145 156.294C319.876 156.13 319.625 155.898 319.401 155.592Z" fill="#3F5F72"/>
<path d="M323.887 141.94C319.401 144.931 320.715 146.602 322.267 146.825C322.184 146.167 322.89 144.557 325.881 143.062L323.887 141.94Z" fill="#3F5F72"/>
<path d="M312.422 159.137L310.055 158.514C310.553 157.019 316.161 147.424 318.723 152.782C316.285 153.405 314.416 156.645 312.422 159.137Z" stroke="#3F5F72" stroke-width="1.24616" stroke-linecap="round" stroke-linejoin="round"/>
<path d="M319.401 155.592C319.556 155.766 319.826 156.022 320.145 156.294C323.69 158.456 330.557 149.011 325.881 146.825C326.67 147.149 328.797 148.271 328.996 149.168C329.782 152.704 326.205 158.205 322.267 157.642C321.787 157.574 320.847 156.894 320.145 156.294C319.876 156.13 319.625 155.898 319.401 155.592Z" stroke="#3F5F72" stroke-width="1.24616" stroke-linecap="round" stroke-linejoin="round"/>
<path d="M323.887 141.94C319.401 144.931 320.715 146.602 322.267 146.825C322.184 146.167 322.89 144.557 325.881 143.062L323.887 141.94Z" stroke="#3F5F72" stroke-width="1.24616" stroke-linecap="round" stroke-linejoin="round"/>
<path d="M298.09 145.18C301.18 137.604 310.759 131.847 315.287 130.102C315.983 132.054 318.678 137.155 323.885 141.94C319.399 144.931 320.713 146.602 322.265 146.825C323.679 147.027 324.464 146.163 325.879 146.825C330.91 149.177 322.577 159.933 319.399 155.592C318.848 154.839 319.085 153.649 318.721 152.782C316.159 147.424 310.551 157.019 310.053 158.514C301.38 153.53 298.547 147.673 298.09 145.18Z" fill="url(#paint28_linear)" stroke="#3F5F72" stroke-width="0.974324" stroke-linecap="round" stroke-linejoin="round"/>
<path d="M217.247 173.344C213.658 139.548 225.222 123.04 231.453 119.011L236.064 124.245L238.556 128.856L240.674 132.22L243.79 134.588L247.902 136.084H250.021L252.638 132.22H254.008L255.753 136.582L254.631 142.439L252.638 143.685L248.65 141.691L243.79 142.937L236.064 147.673L234.693 151.536L239.553 158.888L236.064 162.876L228.961 166.988L228.213 158.888L226.094 154.527L224.474 169.356L217.247 173.344Z" fill="url(#paint29_linear)"/>
<path d="M248.12 143.061C247.209 142.454 246.123 142.397 244.631 142.925C241.335 144.092 235.571 147.099 234.786 150.912C235.231 158.058 252.516 149.146 248.12 143.061Z" fill="url(#paint30_linear)"/>
<path d="M238.525 129.229C237.727 125.64 234.205 121.419 232.543 119.758C249.001 121.227 247.746 135.25 249.241 136.277C244.88 135.848 239.521 133.715 238.525 129.229Z" fill="url(#paint31_linear)"/>
<path d="M252.606 131.958C255.721 125.74 260.457 131.958 260.208 137.703C259.946 143.744 256.587 148.238 251.858 143.575C257.493 144.93 256.469 131.721 252.606 131.958Z" fill="url(#paint32_linear)"/>
<path d="M259.239 69.2895L259.986 66.2987C258.865 58.3232 251.637 54.0863 246.652 55.7063C249.269 56.3295 249.519 58.1156 251.637 60.8156C255.326 62.2113 258.242 67.0464 259.239 69.2895Z" fill="url(#paint33_linear)"/>
<path d="M272.453 135.71C279.638 132.656 278.351 125.865 278.434 123.747C280.029 126.538 274.073 138.7 282.92 151.785C280.386 154.444 272.702 152.533 268.34 153.904C263.813 155.326 264.353 155.524 258.62 156.271C254.034 156.869 252.306 152.616 252.016 150.414C266.471 149.417 267.468 137.828 272.453 135.71Z" fill="url(#paint34_linear)"/>
<path d="M244.284 100.693L239.798 99.1973L238.926 103.933C240.621 110.313 248.521 112.323 252.26 112.531C245.979 109.74 244.326 103.476 244.284 100.693Z" fill="url(#paint35_linear)"/>
<path d="M237.559 110.163L239.303 105.179L241.671 108.543C238.281 110.836 248.276 114.4 248.276 120.631C243.69 119.834 239.22 113.32 237.559 110.163Z" fill="url(#paint36_linear)"/>
<path d="M251.636 201.631C244.558 214.392 237.679 227.302 239.424 235.278C236.533 233.982 230.244 224.436 227.461 219.825C229.621 212.556 235.212 195.401 240.296 184.933C245.381 174.465 244.741 167.03 243.786 164.621C243.786 164.621 246.596 168.668 249.767 169.481C251.464 169.915 254.503 170.228 254.503 170.228C255.707 173.717 258.715 188.871 251.636 201.631Z" fill="url(#paint37_linear)"/>
<path d="M253.381 163.873C251.088 163.075 245.655 151.91 244.533 153.53C243.412 155.15 238.926 155.15 238.926 155.15C238.926 155.15 246.029 166.365 251.886 168.857C254.425 169.938 272.821 165.368 272.821 165.368C287.651 156.894 295.875 156.271 299.987 157.517C303.277 158.514 309.084 159.096 311.577 159.262C310.081 157.808 303.726 152.782 302.355 152.782C299.987 152.782 286.75 155.05 276.311 159.262C269.207 162.128 256.247 164.87 253.381 163.873Z" fill="url(#paint38_linear)"/>
<path d="M222.728 82.2495C219.338 68.791 221.108 65.6756 229.457 55.4572C205.032 64.9279 215.378 86.5316 217.369 100.693C218.491 108.668 214.711 123.456 213.008 131.971C215.4 125.691 223.476 114.982 227.214 110.413C234.816 97.2034 226.965 99.0727 222.728 82.2495Z" fill="url(#paint39_linear)"/>
<path d="M241.047 89.1034C239.925 85.3649 242.293 77.8049 244.037 75.6449C241.047 78.1372 239.053 83.1633 238.43 85.3649L239.302 98.6988L244.162 100.194C244.162 95.5834 241.915 91.9988 241.047 89.1034Z" fill="url(#paint40_linear)"/>
<path d="M247.75 223.813C248.946 225.109 250.99 233.99 251.862 238.268C254.992 237.88 259.413 237.085 263.327 236.15C262.787 238.366 261.557 242.107 260.461 245.496C258.249 244.499 253.434 244.723 251.862 253.596C249.897 264.687 250.645 276.65 250.894 280.638C251.144 284.625 250.367 296.962 247.453 301.075C245.133 300.801 243.705 298.084 243.887 296.589C247.546 291.177 247.75 285.047 247.75 280.638C247.75 275.528 246.753 269.921 246.005 264.687C245.257 259.453 246.877 251.104 246.005 245.496C245.307 241.01 243.887 234.031 243.887 227.797C245.497 225.188 247.088 223.096 247.75 223.813Z" fill="url(#paint41_linear)"/>
<path d="M275.414 242.256C275.115 239.365 274.127 235.014 273.67 233.2C279.992 231.274 286.222 229.057 291.241 226.941C290.192 230.457 289.744 233.45 289.548 236.15C283.235 243.889 276.168 249.316 278.904 260.575C280.054 265.31 285.164 289.513 283.17 291.867C280.886 291.039 278.93 289.966 277.774 288.738C278.115 285.079 279.901 284.625 278.904 276.65C278.131 270.466 275.913 265.435 274.168 258.83C272.424 252.225 275.788 245.87 275.414 242.256Z" fill="url(#paint42_linear)"/>
<path d="M286.282 295.592C282.992 295.492 282.585 293.058 282.792 291.853C281.197 291.454 278.805 289.693 277.808 288.862C276.811 292.85 278.223 296.589 279.054 297.959L282.792 298.333L285.534 297.959L287.902 297.461L289.895 298.333L294.008 300.452L306.594 299.704L307.217 297.461C289.397 300.576 295.628 295.875 286.282 295.592Z" fill="url(#paint43_linear)"/>
<path d="M240.296 303.193C240.196 301.1 242.498 298.167 243.661 296.962C243.96 299.654 246.61 300.826 247.898 301.075C246.901 304.564 252.135 306.101 254.876 306.433C248.396 309.673 240.421 305.81 240.296 303.193Z" fill="url(#paint44_linear)"/>
<path d="M294.602 152.283C295.765 151.119 299.594 150.039 302.204 152.283M302.204 152.283C306.294 155.798 309.681 158.389 311.55 158.887C313.419 159.386 304.044 160.008 300.958 157.89C297.872 155.773 290.712 157.12 286.627 158.612M302.204 152.283C301.307 151.511 299.421 148.638 298.59 147.298C297.676 147.547 295.176 148.444 292.484 150.039C290.968 150.938 287.481 151.659 283.535 152.283M239.522 159.136C238.027 157.018 234.428 152.656 234.787 150.912M239.522 159.136C240.462 160.468 241.773 162.192 243.186 163.872M239.522 159.136C236.183 163.429 232.732 165.301 228.681 167.277C229.054 160.712 225.939 150.912 225.939 155.648C225.939 159.437 225.025 166.328 224.568 169.3C222.292 170.468 219.821 171.873 217.091 173.842M248.121 143.061C249.99 144.307 251.236 152.033 253.604 154.276C258.655 159.061 260.831 153.405 283.535 152.283M248.121 143.061C247.209 142.454 246.124 142.397 244.631 142.925M248.121 143.061C252.516 149.146 235.231 158.058 234.787 150.912M234.787 150.912C235.571 147.099 241.335 144.092 244.631 142.925M244.631 142.925C245.997 141.981 249.19 140.942 251.859 143.575M232.544 119.758C232.045 119.259 230.625 119.533 233.416 116.642M232.544 119.758C234.205 121.419 237.728 125.64 238.525 129.229C239.522 133.715 244.881 135.848 249.242 136.277M232.544 119.758C249.002 121.227 247.747 135.25 249.242 136.277M233.416 116.642C220.954 127.708 213.228 144.931 217.091 173.842M233.416 116.642C234.8 115.208 236.387 113.049 237.601 109.789M238.525 85.9869C236.157 75.2699 238.525 71.1577 241.267 68.9146M238.525 85.9869C238.858 84.0346 240.514 78.7406 245.504 74.273C253.853 66.7971 253.063 63.3078 251.236 60.4417M238.525 85.9869C239.371 91.0292 239.647 95.3108 239.531 98.947M217.091 173.842C210.985 157.89 210.288 147.233 211.753 136.277M249.242 136.277C250.075 136.848 252.03 132.746 252.607 131.958M252.607 131.958C255.722 125.739 260.458 131.958 260.208 137.702C259.946 143.744 256.588 148.238 251.859 143.575M252.607 131.958C256.47 131.721 257.494 144.93 251.859 143.575M211.753 136.277C212.543 130.371 213.9 124.019 215.471 116.642C219.958 95.5823 212.107 93.9623 210.985 75.2699C210.031 59.3618 226.406 49.4107 238.525 51.7921M211.753 136.277C212.619 132.432 216.667 122.3 225.939 112.53C235.211 102.76 235.506 97.1202 234.787 92.3433M238.525 51.7921C245.421 48.6104 256.169 52.3416 259.336 59.4447C261.159 63.5337 259.486 69.9125 259.087 69.414M238.525 51.7921C243.375 52.745 248.589 56.2886 251.236 60.4417M259.087 69.414C259.336 70.0786 260.333 72.2802 259.834 74.8971M259.087 69.414C257.965 67.1709 256.221 62.3109 251.236 60.4417M259.834 74.8971C259.063 78.9452 260.76 77.5449 261.454 82.2494C262.149 86.954 258.928 90.9768 258.339 97.4516C258.124 99.8165 256.472 101.185 253.853 101.646M259.834 74.8971C257.342 72.8035 256.221 73.9002 253.978 73.9002M239.531 98.947C239.483 100.422 239.372 101.79 239.208 103.06M239.531 98.947C243.956 100.751 248.023 101.74 251.236 101.818M248.744 90.9725C248.552 91.2496 247.022 91.5639 246.805 92.3433M246.501 95.0848C246.452 94.0169 246.599 93.0829 246.805 92.3433M246.805 92.3433C247.493 93.7141 250.488 96.0818 255.099 95.0848M243.51 80.6294C244.382 77.6386 247.498 77.2648 248.744 75.6448M245.683 82.0002C244.839 83.3551 246.621 84.6809 247.747 84.1186C248.883 83.5511 249.118 81.8756 247.498 81.0293M248.993 80.6294C248.37 80.8786 248.016 80.9276 247.498 81.0293M255.099 78.7602C255.369 78.6309 256.096 78.3863 256.47 78.3326M256.47 78.3326C257.841 78.0638 258.685 78.5834 258.09 80.1309C257.467 81.7509 254.476 80.8959 256.47 78.3326ZM256.47 78.3326C256.802 78.2675 257.841 77.8879 259.087 78.7602M244.382 83.994C244.734 83.0031 245.768 81.368 247.498 81.0293M239.208 103.06C239.271 105.718 241.765 111.333 251.236 112.53C251.385 112.59 251.837 112.506 251.941 112.905M239.208 103.06C238.865 105.708 238.294 107.928 237.601 109.789M237.601 109.789C241.647 119.061 248.792 121.296 251.859 121.254C250.115 118.388 251.236 115.646 251.859 113.653C251.969 113.3 251.983 113.064 251.941 112.905M251.941 112.905L252.981 112.53M252.981 112.53C254.061 112.447 256.694 113.104 258.588 116.394C259.045 113.54 258.738 106.596 253.853 101.646M252.981 112.53C253.438 111.616 253.728 108.193 251.236 101.818M253.853 101.646C253.064 101.785 252.187 101.841 251.236 101.818M255.473 103.06C256.096 102.811 257.916 102.038 260.208 100.942C263.074 99.571 265.941 97.951 271.05 105.428C274.538 110.533 277.911 117.091 279.898 120.936M304.821 136.333C299.423 135.712 291.736 127.485 281.642 124.12C281.377 124.032 280.821 122.722 279.898 120.936M299.961 141.816C289.368 136.277 282.899 139.188 278.028 134.463M278.028 134.463C277.92 137.121 278.869 144.406 283.535 152.283M278.028 134.463C278.869 130.682 279.751 126.745 278.325 122.999M265.941 112.53C274.041 119.26 276.482 118.155 278.325 122.999M286.627 158.612C279.495 161.217 272.888 166.16 265.068 167.277C256.345 168.523 252.732 170.227 250.239 169.978C248.633 169.817 245.744 166.916 243.186 163.872M286.627 158.612C297.98 178.515 302.204 193.282 300.958 219.95C300.885 221.5 297.737 224.2 291.238 226.941M243.186 163.872C247.441 183.465 233.416 189.703 227.185 219.078C226.382 222.864 239.024 236.15 239.522 235.527C239.8 235.18 241.857 231.08 243.884 227.797M279.898 120.936L278.325 122.999M243.884 227.797C245.494 225.188 247.085 223.096 247.747 223.813C248.943 225.109 250.987 233.99 251.859 238.268C254.989 237.88 259.41 237.085 263.324 236.15M243.884 227.797C243.884 234.031 245.304 241.01 246.002 245.496C246.874 251.104 245.254 259.453 246.002 264.687C246.75 269.921 247.747 275.528 247.747 280.638C247.747 285.047 247.543 291.177 243.884 296.589M263.324 236.15C262.784 238.366 261.554 242.107 260.458 245.496C259.087 249.733 260.458 255.964 260.458 261.447C260.458 268.822 255.971 275.279 255.971 284.002C255.971 287.739 256.506 292.83 257.391 295.223M263.324 236.15C266.898 235.296 269.925 234.339 273.667 233.2M273.667 233.2C274.124 235.014 275.112 239.365 275.411 242.256C275.785 245.87 272.421 252.225 274.165 258.83C275.91 265.435 278.128 270.466 278.901 276.65C279.898 284.625 278.112 285.079 277.771 288.738M273.667 233.2C279.989 231.274 286.219 229.057 291.238 226.941M291.238 226.941C288.371 236.549 289.991 242.256 288.995 248.736C287.998 255.216 285.256 278.145 288.995 284.625C290.397 287.056 294.509 290.476 298.59 292.482M298.59 292.482C302.37 294.339 305.976 295.809 306.815 296.589C308.21 297.885 307.022 299.413 306.316 299.704C288.995 302.57 290.739 297.599 288.247 297.336C285.381 297.035 285.505 298.707 282.888 298.582C280.271 298.458 278.61 298.582 277.771 295.223C277.423 293.831 277.587 290.699 277.771 288.738M298.59 292.482C294.478 295.223 281.642 292.85 277.771 288.738M243.884 296.589C243.303 297.447 242.628 298.357 241.842 299.33C236.11 306.433 246.453 307.804 249.818 307.43C256.719 306.663 258.79 303.692 258.416 299.33C258.286 297.805 257.866 296.509 257.391 295.223M243.884 296.589C243.702 298.084 245.13 300.801 247.45 301.075C252.731 301.698 256.365 299.59 257.391 295.223" stroke="#3F5F72" stroke-width="1.24616" stroke-linecap="round" stroke-linejoin="round"/>
<ellipse cx="247.121" cy="82.748" rx="1.37077" ry="1.49539" fill="#3F5F72"/>
<circle cx="257.09" cy="79.6326" r="1.12154" fill="#3F5F72"/>
<path d="M334.012 272.911V264.188L380.12 258.705V264.041C380.12 264.773 379.59 265.397 378.867 265.516L334.012 272.911Z" fill="url(#paint45_linear)"/>
<path d="M333.012 272.039V264.687L308.089 255.216V260.818C308.089 261.424 308.455 261.971 309.017 262.201L333.012 272.039Z" fill="url(#paint46_linear)"/>
<path d="M340.613 293.598V274.781L342.981 274.407V292.102C342.981 292.928 342.311 293.598 341.486 293.598H340.613Z" fill="#C1D6DD"/>
<path d="M373.508 285.248V269.298L375.876 268.924V283.753C375.876 284.579 375.206 285.248 374.38 285.248H373.508Z" fill="#C1D6DD"/>
<path d="M353.57 277.647V271.854L358.056 271.665V277.647C358.056 278.886 357.052 279.89 355.813 279.89C354.575 279.89 353.57 278.886 353.57 277.647Z" fill="#C1D6DD"/>
<path d="M311.207 279.142V265.933L315.195 267.333V279.142C315.195 280.243 314.302 281.136 313.201 281.136C312.1 281.136 311.207 280.243 311.207 279.142Z" fill="#C1D6DD"/>
<path d="M306.066 253.347L333.856 264.064M306.066 253.347V263.192L309.556 264.936M306.066 253.347L318.154 252.417M382.456 258.083L333.856 264.064M382.456 258.083V267.304L376.599 268.362M382.456 258.083L362.143 252.316M333.856 264.064V275.624M333.856 275.624L336.971 275.036M333.856 275.624L315.288 267.304M336.971 275.036V293.292C338.217 295.565 342.828 295.316 343.7 293.598V273.784M336.971 275.036L343.7 273.784M343.7 273.784L353.047 272.289M370.368 269.538V285.471C371.24 287.465 376.1 287.216 376.599 285.471V268.362M370.368 269.538L376.599 268.362M370.368 269.538L358.654 271.479M358.654 271.479V280.611C358.405 282.107 353.545 282.231 353.047 280.611V272.289M358.654 271.479L353.047 272.289M309.556 264.936V281.359C309.805 282.73 314.54 283.103 315.288 281.359V267.304M309.556 264.936L315.288 267.304M346.691 250.222L341.582 250.615" stroke="#3F5F72" stroke-width="1.24616" stroke-linecap="round" stroke-linejoin="round"/>
<path d="M312.732 111.653C312.147 113.114 312.665 115.395 313.219 117.304C312.05 115.063 310.004 116.037 307.958 108.632C307.457 106.822 307.833 104.823 308.162 102.932C308.169 102.888 308.176 102.847 308.183 102.811C308.176 102.851 308.169 102.892 308.162 102.932C308.017 103.876 307.978 106.586 310.393 106.586C311.299 106.586 314.388 105.612 317.701 105.904C321.014 106.197 323.252 108.213 330.365 107.92C336.055 107.687 343.618 100.643 348.1 98.3604C344.876 100.656 342.711 103.84 342.059 105.904C339.883 108.34 334.576 112.666 327.249 112.042C319.922 111.419 316.239 107.268 312.732 111.653Z" fill="url(#paint47_linear)"/>
<path d="M347.938 130.227C348.736 119.061 340.877 112.365 336.848 110.413C339.011 109.137 340.794 107.417 342.705 105.637C341.209 109.459 344.449 113.528 347.191 115.148C349.384 116.444 351.345 120.257 352.051 122.002C352.051 118.014 351.827 115.305 350.057 114.151C343.686 109.996 345.332 102.136 351.428 99.4464C357.285 96.8625 361.646 101.44 361.522 109.166C361.397 116.893 356.911 114.65 353.671 127.236C351.83 134.388 347.155 139.91 343.112 143.104C341.514 144.774 339.86 145.578 338.717 145.804C339.92 145.322 341.463 144.407 343.112 143.104C345.347 140.768 347.473 136.737 347.938 130.227Z" fill="url(#paint48_linear)"/>
<path d="M313.22 117.304C312.666 115.395 311.548 113.524 312.733 111.653C315.412 107.422 319.923 111.419 327.25 112.042C334.577 112.666 339.884 108.34 342.06 105.904M313.22 117.304C314.097 120.324 313.415 122.078 314.291 126.17C316.087 134.549 323.158 145.43 336.409 146.144C344.484 146.579 352.842 135.069 354.141 128.801M313.22 117.304C310.623 112.326 306.695 109.271 307.801 102.884C308.79 97.1681 311.673 88.7296 320.43 86.0279M354.141 128.801C353.882 128.703 353.206 128.275 352.582 127.339M354.141 128.801C358.273 132.106 361.87 126.147 362.361 122.468M355.116 125.098C356.869 125.098 358.039 123.052 356.382 121.591C353.678 119.205 358.526 116.037 360.182 119.642M342.06 105.904C340.891 109.607 343.132 112.919 347.419 116.037C351.706 119.155 350.244 123.052 351.121 123.637C351.822 124.105 352.972 123.247 352.972 121.591C353.695 113.912 363.296 115.447 362.361 122.468M342.06 105.904C342.711 103.84 344.877 100.656 348.101 98.3604M357.552 95.5763C355.209 95.3834 353.045 95.8297 351.121 96.653M357.552 95.5763C357.209 95.1355 356.674 94.3994 356.187 93.6277M357.552 95.5763C359.537 95.7398 361.119 96.4463 362.361 97.5146M362.361 122.468C362.925 120.324 364.762 119.252 365.931 112.822C366.82 107.933 366.301 100.903 362.361 97.5146M320.43 86.0279C322.573 86.2878 327.192 86.5736 328.517 85.6382M320.43 86.0279C330.615 78.2619 354.141 77.8881 355.833 93.0431M348.101 98.3604C349.024 97.7026 350.034 97.1177 351.121 96.653M348.101 98.3604C345.444 93.0431 337.718 92.6533 332.804 94.4071M351.121 96.653C350.439 95.0599 348.12 91.4647 344.301 89.8278M355.833 93.0431C357.218 92.0363 360.377 90.6267 361.936 93.0431M355.833 93.0431C355.945 93.2374 356.065 93.4337 356.187 93.6277M356.187 93.6277C358.136 92.556 361.921 93.6869 362.361 97.5146M332.858 117.986C333.93 119.252 339.526 118.96 341.67 122.955M323.158 118.57C321.794 119.545 318.968 119.35 317.702 121.981M323.84 122.955C323.45 122.955 322.831 123.076 322.573 123.15M322.573 123.15C321.839 123.361 321.245 123.702 321.014 124.221C320.625 125.098 321.696 126.365 322.866 125.488C323.584 124.949 323.353 123.994 322.573 123.15ZM334.168 123.247C334.557 123.345 335.079 123.465 335.337 123.54M335.337 123.54C336.409 123.734 336.86 124.189 337.091 124.709C337.48 125.585 336.214 126.657 335.239 125.975C334.504 125.46 334.557 124.384 335.337 123.54ZM332.414 137.472C334.103 137.895 338.007 137.901 340.111 134.549M340.111 134.549C339.981 134.225 339.604 133.517 339.137 133.283M340.111 134.549C340.111 134.647 340.793 134.939 341.085 135.524" stroke="#3F5F72" stroke-width="1.24616" stroke-linecap="round"/>
<path d="M355.897 171.379C355.741 173.873 355.312 178.069 355.117 179.856C356.337 179.932 357.62 179.863 358.917 179.689C358.931 179.916 358.948 180.294 358.956 180.732L351.063 183.283C351.06 183.285 351.057 183.286 351.053 183.287C350.828 183.356 350.533 183.234 350.181 183.02C350.161 183.008 350.141 182.995 350.12 182.983C349.841 182.849 349.272 183.053 348.81 184.808C348.187 187.176 349.513 189.356 351.053 188.796C355.507 187.176 355.941 187.052 355.117 193.656C354.697 197.021 355.507 197.021 358.308 197.021C358.384 197.759 358.421 198.542 358.39 199.389C356.878 198.267 351.926 200.261 350.679 199.389C349.372 198.473 351.427 190.665 350.679 190.183C349.184 189.219 347.999 192.231 346.069 192.035C341.951 191.616 342.579 182.486 345.695 181.444C347.445 180.858 349.038 182.308 350.12 182.983C350.142 182.993 350.163 183.006 350.181 183.02C350.533 183.234 350.828 183.356 351.053 183.287C351.057 183.286 351.06 183.285 351.063 183.283C351.35 183.187 351.522 182.77 351.552 181.818C351.676 177.83 348.561 172.098 350.181 170.852C351.477 169.855 354.554 170.104 355.93 170.353C355.926 170.729 355.916 171.074 355.897 171.379Z" fill="url(#paint49_linear)"/>
<path d="M329.186 170.104C323.157 166.714 322.526 163.277 322.964 161.982C323.779 160.889 327.003 159.102 334.729 159.979C339.805 160.556 342.78 161.339 345.136 161.381C345.221 162.127 345.208 162.958 345.072 163.873C344.199 169.73 338.635 169.606 337.19 167.238C335.973 165.244 335.631 164.247 333.981 164.754C332.331 165.26 332.735 167.985 332.056 169.73C331.513 171.126 329.917 170.561 329.186 170.104Z" fill="url(#paint50_linear)"/>
<path d="M329.246 209.109L332.112 209.358C334.419 209.427 339.838 209.358 340.113 209.732C340.802 210.67 339.963 214.467 340.336 217.458C341.437 217.084 346.145 216.087 346.692 220.573C347.239 225.059 344.22 225.682 342.455 225.682C341.438 225.682 340.757 225.537 339.838 225.114C339.838 225.756 340.503 229.337 340.835 231.047L338.482 232.527C338.477 232.531 338.472 232.534 338.467 232.536C337.969 232.786 331.942 232.536 331.239 232.038C330.537 231.539 334.037 227.427 333.233 225.114C332.813 223.904 331.785 223.173 330.616 222.849C326.818 223.19 330.527 227.247 329.98 227.801C329.434 228.353 327.02 230.384 326.255 230.86C326.753 229.614 324.884 226.555 325.756 224.312C326.303 222.907 328.657 222.305 330.616 222.849C331.785 223.173 332.813 223.904 333.233 225.114C334.037 227.427 330.537 231.539 331.239 232.038C331.942 232.536 337.969 232.786 338.467 232.536L338.482 232.527C338.938 232.177 337.583 226.726 337.346 225.184C337.144 223.872 338.363 224.434 339.8 225.097L339.838 225.114C340.757 225.537 341.438 225.682 342.455 225.682C344.815 225.309 345.944 217.209 340.336 217.458C339.713 218.081 338.966 219.701 337.969 219.202C337.447 218.942 338.093 211.975 337.969 211.102C337.346 210.853 329.619 210.729 329.619 210.729C329.619 210.729 329.364 209.621 329.246 209.109Z" fill="url(#paint51_linear)"/>
<path d="M321.308 215.088C321.183 216.832 320.737 217.636 318.529 215.088C316.909 213.219 315.164 214.216 315.164 214.216C315.164 214.216 317.158 212.792 318.778 212.972C319.9 213.096 319.986 213.675 321.314 214.216C321.327 214.523 321.327 214.818 321.308 215.088Z" fill="url(#paint52_linear)"/>
<path d="M320.647 209.358C320.68 209.291 320.749 209.24 320.844 209.201C321.409 208.762 322.639 207.875 323.564 207.613C323.547 208.192 323.565 208.777 323.638 209.358C322.965 209.192 321.418 208.969 320.844 209.201C320.764 209.263 320.698 209.317 320.647 209.358Z" fill="url(#paint53_linear)"/>
<path d="M336.224 195.65C336.847 195.152 337.19 193.656 339.838 194.404C340.552 194.605 341.104 195.051 341.507 195.65C342.462 197.069 342.577 199.346 342.021 201.258C341.29 203.769 339.398 205.65 336.723 204.124C335.476 203.413 336.184 202.123 334.729 201.778C336.418 201.746 339.911 201.726 342.021 201.258C342.577 199.346 342.462 197.069 341.507 195.65C340.322 195.364 337.248 195.74 335.677 195.991C335.61 196.012 335.543 196.024 335.476 196.024C335.54 196.013 335.607 196.002 335.677 195.991C335.909 195.92 336.127 195.747 336.224 195.65Z" fill="url(#paint54_linear)"/>
<path d="M350.679 150.913C350.679 150.913 351.426 145.554 349.059 144.183V138.327C350.18 140.611 352.573 145.405 353.171 146.302C353.919 147.423 362.143 154.153 363.016 155.897C363.713 157.293 365.757 161.007 370.617 174.091L364.885 176.334C363.597 171.184 360.847 160.109 360.149 157.019C359.277 153.156 350.679 150.913 350.679 150.913Z" fill="url(#paint55_linear)"/>
<path d="M321.921 251.976C319.263 251.462 320.301 254.925 320.301 256.213C320.675 256.504 322.071 256.911 324.663 256.213C327.903 255.341 330.894 255.715 334.009 256.213C336.502 256.612 339.368 255.632 340.489 255.092L340.988 250.481C339.825 250.605 338.221 250.904 336.626 250.107C334.632 249.11 329.648 253.471 321.921 251.976Z" fill="#D0E2E7"/>
<path d="M348.714 251.976C348.714 250.78 347.966 248.819 347.592 247.988C347.385 248.487 346.969 249.559 346.969 249.858C346.969 250.232 345.598 253.596 345.972 256.213C346.271 258.307 352.992 259.536 355.443 259.952C355.319 259.204 353.112 257.482 351.829 256.961C347.842 255.341 348.714 253.471 348.714 251.976Z" fill="#D0E2E7"/>
<path d="M354.072 233.658L352.951 244.375H355.319C355.568 241.675 356.44 235.676 357.935 233.284C359.431 230.891 359.805 228.299 359.805 227.302L360.552 218.704C368.029 214.716 366.285 207.738 365.911 210.23C365.612 212.224 360.137 214.799 357.437 215.838C354.347 215.539 354.571 209.814 355.069 206.99C357.562 204.398 358.351 200.759 358.434 199.264H355.443C355.543 201.058 353.74 205.162 352.826 206.99C350.932 212.373 354.072 222.068 354.072 222.068C354.072 222.068 355.885 228.013 356.066 228.798C356.365 230.094 354.862 232.578 354.072 233.658Z" fill="url(#paint56_linear)"/>
<path d="M322.418 176.957L325.284 167.362L329.023 169.979L328.649 184.559L329.646 185.182C329.895 186.262 330.368 188.846 330.269 190.541C330.169 192.235 329.396 199.305 329.023 202.628L332.138 208.61C331.847 208.984 330.817 209.507 329.023 208.61C326.78 207.488 325.284 194.404 326.406 189.17C327.303 184.983 326.78 181.277 326.406 179.948L322.418 176.957Z" fill="url(#paint57_linear)"/>
<path d="M363.915 182.316C363.516 181.02 360.592 180.862 359.18 180.945V179.824L366.781 177.954C366.574 178.951 366.183 181.344 366.283 182.939C366.407 184.933 367.155 192.908 365.41 197.394C364.015 200.983 364.829 204.871 365.41 206.367C364.289 203.501 361.547 198.516 363.167 195.151C364.787 191.787 364.414 183.936 363.915 182.316Z" fill="url(#paint58_linear)"/>
<path d="M337.189 152.867C336.253 150.84 335.76 147.54 335.63 146.144L333.291 145.852C331.538 147.8 331.01 152.894 333.291 157.349C334.103 155.368 336.019 151.698 337.189 152.867ZM337.189 152.867C336.908 152.975 336.298 153.559 336.099 155.025C335.926 156.295 336.329 157.686 337.289 157.891M337.189 152.867C337.317 153.145 337.467 153.363 337.632 153.53M341.086 152.867C341.8 152.152 340.891 151.698 342.547 150.431C344.204 149.164 349.66 143.221 348.491 139.713L349.66 137.862C351.052 140.445 352.761 142.205 352.743 144.78M341.086 152.867C344.204 152.399 346.217 156.829 346.834 159.102C351.583 152.019 352.724 147.36 352.743 144.78M341.086 152.867C340.972 152.972 340.841 153.083 340.696 153.192M340.696 153.192C340.696 154.2 340.585 155.773 340.585 156.645M340.696 153.192C339.841 153.836 338.517 154.423 337.632 153.53M352.743 144.78C354.671 146.793 358.838 150.977 360.085 151.6C367.416 155.266 369.31 168.215 372.362 175.081C371.03 175.823 369.415 176.909 366.879 177.83M358.721 153.192C355.116 155.466 355.603 159.102 355.506 159.979C355.418 160.771 355.965 166.877 355.929 170.353M328.712 180.732C328.856 178.957 329.022 176.386 329.115 173.815C329.16 172.546 329.188 171.277 329.185 170.104M328.712 180.732C326.255 179.76 324.38 178.66 322.964 177.553M328.712 180.732C328.681 181.894 328.644 183.293 328.604 184.808C332.055 186.927 334.621 187.052 334.728 187.301C335.014 187.969 333.731 193.407 334.354 194.778C334.977 196.148 335.6 196.148 336.223 195.65C336.846 195.152 337.189 193.656 339.837 194.404C340.551 194.605 341.103 195.051 341.506 195.65M355.506 206.649C343.347 207.929 335.392 206.057 331.363 204.014M355.506 206.649C357.122 204.471 358.286 202.116 358.389 199.388M355.506 206.649C353.681 209.109 354.542 214.342 357.458 216.88M366.879 177.83C366.879 178.684 366.321 180.771 366.321 182.486C366.321 184.63 367.463 187.942 366.879 192.035C366.317 195.967 364.754 198.368 364.47 201.778C364.275 204.116 366.015 206.875 366.321 208.403C366.906 211.326 365.834 213.957 364.859 215.613C364.161 216.801 362.26 218.139 360.378 218.837M366.879 177.83C364.589 178.662 361.446 179.35 358.916 179.689M357.747 210.644C358.148 213.051 358.152 214.516 357.458 216.88M357.458 216.88C357.078 218.174 356.942 219.369 358.234 219.316C358.896 219.288 359.635 219.112 360.378 218.837M358.916 179.689C357.619 179.863 356.336 179.932 355.116 179.856C355.311 178.069 355.74 173.873 355.896 171.379C355.915 171.074 355.925 170.729 355.929 170.353M358.916 179.689C358.931 179.916 358.948 180.294 358.955 180.732M322.964 177.553C319.84 175.111 318.946 172.63 318.969 171.379C319.056 169.72 320.88 165.864 322.964 161.982M322.964 177.553C323.191 178.678 323.509 181.239 322.964 182.486C322.282 184.045 321.21 186.676 321.307 190.183C321.405 193.691 324.23 199.537 324.23 201.778C324.23 203.195 323.63 205.357 323.563 207.613M329.115 208.403C329.115 208.666 329.128 208.606 329.245 209.109M329.619 210.729C329.619 210.729 337.345 210.853 337.968 211.102C338.092 211.975 337.447 218.942 337.968 219.202C338.965 219.701 339.712 218.081 340.336 217.458M329.619 210.729C329.619 210.729 329.363 209.621 329.245 209.109M329.619 210.729C329.619 210.729 331.887 218.285 329.115 216.087C325.755 213.423 324.576 216.88 323.637 209.358M328.904 224.81C329.123 225.137 330.382 225.702 333.232 226.181M342.547 227.11C341.93 227.727 341.066 229.449 342.547 231.397M342.547 227.11C344.496 228.279 355.74 230.306 359.793 227.11M342.547 227.11C342.599 227.008 342.653 226.58 342.454 225.682M342.547 227.11C341.72 227.076 340.942 227.035 340.211 226.989M342.547 231.397C343.011 231.899 344.411 232.672 347.043 233.151M342.547 231.397C342.273 231.449 341.979 231.493 341.671 231.53M359.793 227.11C359.923 224.377 360.222 218.897 360.378 218.837M359.793 227.11C362.517 228.922 360.149 233.159 357.458 233.176M360.378 218.837C360.925 217.713 361.944 214.891 361.645 212.598M342.547 216.88C342.547 215.09 342.828 214.342 341.706 213.275M347.043 233.151C348.838 233.478 351.205 233.667 354.239 233.541C355.522 233.487 356.582 233.359 357.458 233.176M347.043 233.151C347.44 237.056 348.783 240.838 348.783 244.746M348.783 244.746C348.523 244.94 348.043 245.544 348.199 246.402M348.783 244.746C350.082 244.81 353.265 244.901 355.603 244.746M357.458 233.176C356.775 236.513 355.448 243.498 355.603 244.746M355.603 244.746C356.48 244.746 357.458 244.356 358.526 244.551C359.595 244.746 359.014 245.33 359.014 245.72M348.199 246.402C348.393 247.474 349.27 248.351 350.05 249.227M348.199 246.402C347.813 246.824 347.043 247.98 347.043 249.227C347.043 250.786 345.958 252.443 345.86 253.417M350.05 249.227C350.422 249.511 350.699 250.494 350.699 250.494M350.05 249.227C350.234 249.145 350.454 249.056 350.699 248.967M355.603 248.838C355.818 248.551 356.127 248.167 356.484 247.766M355.603 248.838C355.728 249.003 356.308 249.502 357.025 250.104M355.603 248.838C354.341 247.976 352.099 248.463 350.699 248.967M359.014 245.72C358.266 245.933 357.262 246.891 356.484 247.766M359.014 245.72C356.383 245.85 350.985 246.11 350.439 246.11C349.757 246.11 349.766 247.538 350.699 248.967M345.86 253.417C348.097 257.891 361.822 259.168 362.716 254.099M345.86 253.417C345.111 260.906 357.57 260.91 360.865 259.263C362.424 258.483 363.495 257.139 362.716 254.099M362.716 254.099C362.716 251.858 358.748 250.121 356.484 247.766M350.699 250.494C350.699 250.494 350.927 251.858 350.927 252.735C352.486 252.248 358.02 251.605 359.89 252.54C359.218 251.923 357.997 250.92 357.025 250.104M350.699 250.494C350.699 250.494 354.337 249.422 357.025 250.104M341.671 231.53C342.158 238.218 339.235 240.185 339.235 244.746M341.671 231.53C340.994 231.61 340.619 231.659 339.837 231.674M339.235 244.746C339.235 245.32 339.77 246.138 340.237 247.279M339.235 244.746C338.221 244.901 335.827 244.681 334.756 244.551M330.661 246.402C330.591 245.817 330.748 244.648 329.979 243.869M330.661 246.402C331.18 246.532 332.22 246.986 332.22 247.766C332.22 248.153 331.234 248.787 329.979 249.337M330.661 246.402C329.895 246.784 328.511 247.359 326.864 247.766M329.979 243.869C329.017 242.894 330.271 242.505 333.097 243.284M329.979 243.869C331.18 244.063 333.538 244.063 333.778 246.11C333.934 247.435 334.753 247.441 335.143 247.279M333.097 243.284C334.074 243.554 334.538 244.022 334.756 244.551M333.097 243.284C333.284 239.099 332.858 234.985 332.481 232.536M335.143 247.279C335.825 248.058 339.137 248.448 340.237 247.279M335.143 247.279C334.697 246.769 335.167 245.551 334.756 244.551M340.237 247.279C340.838 248.751 341.461 250.751 341.33 253.417M318.252 253.027C318.279 253.945 318.612 254.81 319.359 255.463C322.476 258.191 328.71 255.463 330.661 255.463C333.097 255.463 340.599 258.289 341.33 253.417M318.252 253.027C320.041 254.586 323.353 255.463 329.115 253.709C332.394 252.711 338.517 256.083 341.33 253.417M318.252 253.027C318.187 250.819 319.375 249.219 321.21 248.571M321.21 248.571C321.799 248.363 322.455 248.253 323.158 248.253C324.44 248.253 325.716 248.05 326.864 247.766M321.21 248.571C322.087 248.692 324.055 249.169 324.912 250.104C325.558 250.809 328.077 250.169 329.979 249.337M329.979 249.337L326.864 247.766M322.964 161.982C322.525 163.277 323.156 166.714 329.185 170.104M322.964 161.982C323.778 160.889 327.002 159.102 334.728 159.979C339.804 160.555 342.779 161.339 345.135 161.381M329.185 170.104C329.916 170.561 331.512 171.126 332.055 169.73C332.734 167.985 332.33 165.26 333.98 164.753C335.63 164.247 335.972 165.244 337.189 167.238C338.634 169.606 344.199 169.73 345.071 163.873C345.207 162.958 345.22 162.127 345.135 161.381M340.585 156.645C342.952 156.645 344.799 158.423 345.135 161.381M340.585 156.645C339.301 156.562 338.576 158.167 337.289 157.891M337.632 153.53C337.551 154.444 337.37 156.595 337.289 157.891M355.929 170.353C354.553 170.104 351.476 169.855 350.18 170.851C348.56 172.098 351.675 177.83 351.551 181.818C351.521 182.781 351.345 183.196 351.052 183.287M358.389 199.388C356.877 198.267 351.925 200.261 350.679 199.388C349.371 198.473 351.426 190.665 350.679 190.183C349.183 189.219 347.998 192.231 346.068 192.035C341.95 191.616 342.579 182.486 345.694 181.444C347.477 180.847 349.097 182.363 350.18 183.02M358.389 199.388C358.42 198.542 358.383 197.759 358.307 197.021M351.052 183.287C350.827 183.356 350.532 183.233 350.18 183.02M351.052 183.287L358.955 180.732M350.18 183.02C349.931 182.827 349.308 182.914 348.809 184.808C348.186 187.176 349.512 189.356 351.052 188.796C355.506 187.176 355.94 187.052 355.116 193.656C354.697 197.021 355.506 197.021 358.307 197.021M358.307 197.021C356.66 187.55 360.025 186.678 358.955 180.732M332.111 209.358L329.245 209.109M332.111 209.358C334.418 209.427 339.837 209.358 340.112 209.732C340.801 210.67 339.962 214.467 340.336 217.458M332.111 209.358C332.111 208.249 331.561 206.817 330.889 205.495M340.336 217.458C345.943 217.209 344.814 225.309 342.454 225.682M340.336 217.458C341.436 217.084 346.144 216.087 346.691 220.573C347.238 225.059 344.219 225.682 342.454 225.682M338.466 232.536C338.965 232.287 337.584 226.742 337.345 225.184C337.141 223.861 338.383 224.444 339.837 225.114M338.466 232.536C337.968 232.786 331.941 232.536 331.239 232.038C330.536 231.539 334.036 227.427 333.232 225.114C332.107 221.874 326.628 222.069 325.755 224.312C324.883 226.555 326.752 229.614 326.254 230.86M338.466 232.536L340.834 231.047C340.502 229.337 339.837 225.756 339.837 225.114M326.254 230.86C326.087 231.277 320.982 229.919 320.646 229.919C320.148 229.919 320.646 224.309 320.646 223.188C320.646 222.281 320.023 221.692 318.528 222.44C317.032 223.188 313.625 223.885 313.294 219.075C313.045 215.462 315.163 214.216 315.163 214.216M326.254 230.86C327.019 230.384 329.433 228.353 329.979 227.801C330.661 227.11 326.67 223.277 330.423 222.799M320.646 209.358C320.876 208.893 322.852 209.164 323.637 209.358M320.646 209.358C320.403 209.849 321.239 212.535 321.313 214.216M320.646 209.358C321.054 209.025 322.507 207.912 323.563 207.613M323.637 209.358C323.564 208.777 323.546 208.192 323.563 207.613M334.728 201.778C336.183 202.123 335.475 203.413 336.722 204.124C341.432 206.811 343.715 198.934 341.506 195.65M334.728 201.778C331.488 201.008 331.862 203.268 331.363 204.014M334.728 201.778C336.417 201.746 339.91 201.726 342.02 201.258M331.363 204.014L330.889 205.495M339.837 225.114C340.756 225.537 341.437 225.682 342.454 225.682M315.163 214.216C315.163 214.216 316.908 213.218 318.528 215.088C320.4 217.249 321.422 216.722 321.313 214.216M315.163 214.216C315.163 214.216 317.157 212.792 318.777 212.972C319.899 213.096 319.985 213.675 321.313 214.216M328.995 228.591C329.291 229.761 330.374 230.528 331.488 230.86M329.746 185.474C331.239 192.161 328.372 196.024 329.115 202.534C329.601 203.232 330.293 204.32 330.889 205.495M335.475 196.024C336.97 195.775 340.269 195.351 341.506 195.65" stroke="#3F5F72" stroke-width="1.24616" stroke-linecap="round" stroke-linejoin="round"/>
<path d="M329.245 209.109L332.111 209.358C334.418 209.427 339.837 209.358 340.112 209.732C340.801 210.67 339.962 214.467 340.336 217.458C341.436 217.084 346.144 216.087 346.691 220.573C347.238 225.059 344.219 225.682 342.454 225.682C341.437 225.682 340.756 225.537 339.837 225.114C339.837 225.756 340.502 229.337 340.834 231.047L340.14 231.666L338.549 233.086C338.528 233.134 338.501 233.159 338.466 233.159C337.719 233.159 331.941 232.536 331.239 232.038C330.536 231.539 334.036 227.427 333.232 225.114C332.705 223.594 331.219 222.83 329.7 222.679C326.877 223.315 330.661 227.11 329.979 227.801C329.433 228.353 327.019 230.384 326.254 230.86C326.087 231.277 320.982 229.919 320.646 229.919C320.148 229.919 320.646 224.309 320.646 223.188C320.646 222.281 320.023 221.692 318.528 222.44C317.032 223.188 313.625 223.885 313.294 219.075C313.045 215.462 315.163 214.216 315.163 214.216C315.163 214.216 317.157 212.792 318.777 212.972C319.899 213.096 319.985 213.675 321.313 214.216C321.239 212.535 320.403 209.849 320.646 209.358C320.679 209.291 320.748 209.24 320.843 209.201C321.408 208.762 322.638 207.875 323.563 207.613C323.546 208.192 323.564 208.777 323.637 209.358C324.576 216.88 325.755 213.423 329.115 216.087C331.887 218.285 329.619 210.729 329.619 210.729C329.619 210.729 329.363 209.621 329.245 209.109Z" fill="url(#paint59_linear)"/>
<path d="M329.619 210.729C329.619 210.729 337.345 210.853 337.968 211.102C338.092 211.975 337.447 218.942 337.968 219.202C338.965 219.701 339.712 218.081 340.336 217.458M329.619 210.729C329.619 210.729 329.363 209.621 329.245 209.109L332.111 209.358C334.418 209.427 339.837 209.358 340.112 209.732C340.801 210.67 339.962 214.467 340.336 217.458M329.619 210.729C329.619 210.729 331.887 218.285 329.115 216.087C325.755 213.423 324.576 216.88 323.637 209.358M328.943 224.81C329.162 225.137 330.382 225.702 333.232 226.181M341.671 231.53C340.994 231.61 340.619 231.659 339.837 231.674M340.336 217.458C345.943 217.209 344.814 225.309 342.454 225.682M340.336 217.458C341.436 217.084 346.144 216.087 346.691 220.573C347.238 225.059 344.219 225.682 342.454 225.682M338.466 233.159C339.024 233.159 337.584 226.742 337.345 225.184C337.141 223.861 338.383 224.444 339.837 225.114M338.466 233.159C337.719 233.159 331.941 232.536 331.239 232.038C330.536 231.539 334.036 227.427 333.232 225.114C332.107 221.874 326.628 222.069 325.755 224.312C324.883 226.555 326.752 229.614 326.254 230.86M338.466 233.159L340.834 231.047C340.502 229.337 339.837 225.756 339.837 225.114M326.254 230.86C326.087 231.277 320.982 229.919 320.646 229.919C320.148 229.919 320.646 224.309 320.646 223.188C320.646 222.281 320.023 221.692 318.528 222.44C317.032 223.188 313.625 223.885 313.294 219.075C313.045 215.462 315.163 214.216 315.163 214.216M326.254 230.86C327.019 230.384 329.433 228.353 329.979 227.801C330.661 227.11 326.877 223.315 329.7 222.679M320.646 209.358C320.876 208.893 322.852 209.164 323.637 209.358M320.646 209.358C320.403 209.849 321.239 212.535 321.313 214.216M320.646 209.358C321.054 209.025 322.507 207.912 323.563 207.613C323.546 208.192 323.564 208.777 323.637 209.358M339.837 225.114C340.756 225.537 341.437 225.682 342.454 225.682M315.163 214.216C315.163 214.216 316.908 213.219 318.528 215.088C320.736 217.636 321.183 216.832 321.307 215.088C321.326 214.818 321.326 214.523 321.313 214.216M315.163 214.216C315.163 214.216 317.157 212.792 318.777 212.972C319.899 213.096 319.985 213.675 321.313 214.216" stroke="#3F5F72" stroke-width="0.974324" stroke-linecap="round" stroke-linejoin="round"/>
<path d="M329.242 209.108L332.108 209.358C334.415 209.427 339.834 209.358 340.109 209.731C340.798 210.669 339.959 214.467 340.333 217.458C341.433 217.084 346.141 216.087 346.688 220.573C347.235 225.059 344.216 225.682 342.451 225.682C341.434 225.682 340.753 225.537 339.834 225.114C339.834 225.756 340.499 229.336 340.831 231.046L338.499 233.128C338.488 233.142 338.476 233.153 338.463 233.159L338.499 233.128C338.89 232.591 337.575 226.701 337.342 225.184C337.14 223.872 338.359 224.434 339.796 225.097L339.834 225.114C340.753 225.537 341.434 225.682 342.451 225.682C344.811 225.308 345.94 217.208 340.333 217.458C339.709 218.081 338.962 219.701 337.965 219.202C337.444 218.942 338.089 211.974 337.965 211.102C337.342 210.853 329.616 210.728 329.616 210.728C329.616 210.728 329.36 209.62 329.242 209.108Z" fill="#3F5F72"/>
<path d="M326.251 230.86C326.749 229.613 324.88 226.555 325.752 224.311C326.358 222.754 329.184 222.184 331.232 223.065C326.5 222.193 330.209 227.564 329.976 227.801C329.43 228.353 327.016 230.384 326.251 230.86Z" fill="#3F5F72"/>
<path d="M321.304 215.088C321.18 216.832 320.733 217.636 318.525 215.088C316.905 213.218 315.16 214.216 315.16 214.216C315.16 214.216 317.154 212.791 318.774 212.971C319.896 213.096 319.982 213.675 321.31 214.216C321.323 214.523 321.323 214.818 321.304 215.088Z" fill="#3F5F72"/>
<path d="M320.643 209.358C320.676 209.291 320.745 209.24 320.84 209.201C321.405 208.762 322.635 207.875 323.56 207.613C323.543 208.192 323.562 208.777 323.634 209.358C322.961 209.192 321.414 208.969 320.84 209.201C320.76 209.263 320.694 209.316 320.643 209.358Z" fill="#3F5F72"/>
<path d="M340.333 217.458C339.709 218.081 338.962 219.701 337.965 219.202C337.444 218.942 338.089 211.974 337.965 211.102C337.342 210.853 329.616 210.728 329.616 210.728C329.616 210.728 329.36 209.62 329.242 209.108L332.108 209.358C334.415 209.427 339.834 209.358 340.109 209.731C340.798 210.669 339.959 214.467 340.333 217.458ZM340.333 217.458C345.94 217.208 344.811 225.308 342.451 225.682M340.333 217.458C341.433 217.084 346.141 216.087 346.688 220.573C347.235 225.059 344.216 225.682 342.451 225.682M339.834 225.114C338.38 224.444 337.138 223.861 337.342 225.184C337.581 226.742 338.962 232.91 338.463 233.159L340.831 231.046C340.499 229.336 339.834 225.756 339.834 225.114ZM339.834 225.114C340.753 225.537 341.434 225.682 342.451 225.682M325.752 224.311C324.88 226.555 326.749 229.613 326.251 230.86C327.016 230.384 329.43 228.353 329.976 227.801C330.209 227.564 326.5 222.193 331.232 223.065C329.184 222.184 326.358 222.754 325.752 224.311ZM318.525 215.088C320.733 217.636 321.18 216.832 321.304 215.088C321.323 214.818 321.323 214.523 321.31 214.216C319.982 213.675 319.896 213.096 318.774 212.971C317.154 212.791 315.16 214.216 315.16 214.216C315.16 214.216 316.905 213.218 318.525 215.088ZM320.643 209.358C320.873 208.893 322.849 209.164 323.634 209.358C323.562 208.777 323.543 208.192 323.56 207.613C322.505 207.912 321.051 209.025 320.643 209.358Z" stroke="#3F5F72" stroke-width="1.24616" stroke-linecap="round" stroke-linejoin="round"/>
<ellipse cx="322.088" cy="124.514" rx="0.974324" ry="1.07176" fill="#3F5F72"/>
<ellipse cx="335.924" cy="124.904" rx="0.974324" ry="1.07176" fill="#3F5F72"/>
<ellipse cx="339.108" cy="155.761" rx="0.38973" ry="0.487162" fill="#3F5F72"/>
<g opacity="0.2">
<path d="M191.26 55.9556C188.144 42.2479 194.268 54.9586 201.62 50.3479C215.278 41.7832 219.341 48.3432 221.862 55.9556C213.019 56.8695 211.269 66.9218 211.269 78.0126C213.014 84.8249 216.553 99.92 216.752 105.802C212.391 121.628 206.285 157.268 216.752 173.219L224.728 169.231L226.722 155.524C227.386 158.764 228.716 165.642 228.716 167.237C232.08 164.953 238.934 160.184 239.433 159.387C239.931 158.589 242.465 163.042 243.669 165.368C243.503 169.356 242.972 178.154 242.174 181.444C241.177 185.556 226.722 207.862 226.722 219.078C228.891 222.858 234.471 231.34 239.433 235.028L243.669 228.548C243.613 233.242 243.928 243.278 245.634 245.87C247.767 249.11 244.982 258.558 245.634 263.939L247.767 278.928V281.496C245.867 281.415 243.81 281.179 241.646 280.762C239.125 280.278 235.732 281.011 233.599 281.472L233.422 281.51C230.182 287.118 218.206 288.115 215.963 282.756C215.522 281.703 215.293 280.699 215.214 279.765C214.971 276.897 216.145 274.693 216.96 273.784C215.265 270.195 216.254 267.802 216.96 267.055C216.787 266.572 216.621 266.092 216.46 265.615C211.516 250.902 212.109 238.294 211.491 231.415C211.02 226.163 212.904 210.604 211.491 203.501C210.204 202.961 207.628 201.183 207.628 198.391V176.21C203.267 171.433 193.621 159.112 189.933 148.047C188.489 143.716 187.95 138.322 188.103 132.719C188.441 120.425 190.996 107.495 195.79 102.188C201.372 96.0071 206.538 83.8696 210.687 78.7603L208.581 74.2741C203.846 72.7372 193.752 66.9218 191.26 55.9556Z" fill="url(#paint60_linear)"/>
<path d="M260.275 275.902C259.937 277.615 259.192 279.126 258.096 279.765C257.57 280.072 256.949 280.345 256.241 280.58L256.615 277.94L259.107 269.32C260.415 270.654 260.752 273.48 260.275 275.902Z" fill="url(#paint61_linear)"/>
</g>
<path opacity="0.3" d="M245.634 263.939C242.892 263.939 239.403 265.31 232.05 270.295M232.05 270.295C222.281 266.606 212.07 270.004 208.249 273.784M232.05 270.295C231.843 267.969 229.573 252.226 232.05 239.639M232.05 270.295C233.231 272.255 234.413 275.39 234.061 278.769M233.421 281.51C235.54 281.053 239.054 280.264 241.646 280.763C243.81 281.179 245.866 281.415 247.767 281.496M233.421 281.51C230.181 287.118 209.495 288.115 207.252 282.756C206.811 281.704 206.582 280.699 206.503 279.766M233.421 281.51C233.763 280.591 233.967 279.671 234.061 278.769M208.249 267.055C202.766 251.727 203.418 238.518 202.78 231.415C202.309 226.163 204.193 210.604 202.78 203.501C201.493 202.961 198.917 201.183 198.917 198.392C198.917 195.6 198.917 182.441 198.917 176.21C194.556 171.433 184.91 159.113 181.222 148.047C179.778 143.716 179.239 138.322 179.393 132.719C179.73 120.425 182.285 107.495 187.079 102.188C192.662 96.0072 203.478 83.8696 207.628 78.7604L205.522 74.2742C200.786 72.7373 190.693 66.9219 188.2 55.9557C185.085 42.2479 191.066 35.5187 198.419 30.9079C205.771 26.2971 216.717 26.4752 223.093 30.0357C231.963 34.9893 231.705 42.4816 234.557 51.0957M208.249 267.055C207.543 267.803 206.554 270.195 208.249 273.784M208.249 267.055C209.121 265.186 211.987 263.939 214.23 261.572M208.249 273.784C207.434 274.693 206.26 276.897 206.503 279.766M206.503 279.766C210.003 282.258 220.416 285.548 234.061 278.769M234.061 278.769C235.468 278.436 238.954 277.871 241.646 278.27C242.926 278.46 245.18 278.812 247.767 278.928M260.274 275.903C259.936 277.615 259.192 279.126 258.095 279.766C257.57 280.072 256.948 280.345 256.24 280.58M260.274 275.903C260.752 273.48 260.415 270.654 259.107 269.32M260.274 275.903C259.224 276.813 257.972 277.472 256.614 277.94M208.817 68.7911C204.207 72.7788 195.359 63.1834 198.724 59.5696C202.088 55.9557 207.751 62.5603 208.817 61.065C209.883 59.5696 210.687 52.5911 201.216 46.7341C195.426 43.1537 201.216 35.1698 210.687 33.2757C219.41 31.531 223.093 28.6649 230.801 38.5095" stroke="#3F5F72" stroke-width="1.24616" stroke-linecap="round" stroke-linejoin="round"/>
<path opacity="0.3" d="M202.5 209.681H1.5M370.5 209.681H394M434.279 209.681L669 209.681" stroke="url(#paint62_linear)" stroke-width="1.24011" stroke-linecap="round" stroke-linejoin="round"/>
<defs>
<linearGradient id="paint0_linear" x1="356.053" y1="21.1877" x2="356.053" y2="253.97" gradientUnits="userSpaceOnUse">
<stop stop-color="#DAEAEF"/>
<stop offset="1" stop-color="#EDF5F7"/>
</linearGradient>
<linearGradient id="paint1_linear" x1="356.053" y1="21.1877" x2="356.053" y2="253.97" gradientUnits="userSpaceOnUse">
<stop stop-color="#DAEAEF"/>
<stop offset="1" stop-color="#EDF5F7"/>
</linearGradient>
<linearGradient id="paint2_linear" x1="257.119" y1="10.3268" x2="257.119" y2="103.31" gradientUnits="userSpaceOnUse">
<stop stop-color="#DAEAEF"/>
<stop offset="1" stop-color="#EDF5F7"/>
</linearGradient>
<linearGradient id="paint3_linear" x1="296.45" y1="10.4987" x2="296.45" y2="285.707" gradientUnits="userSpaceOnUse">
<stop stop-color="#B8D4DD"/>
<stop offset="1" stop-color="#DBEBF0"/>
</linearGradient>
<linearGradient id="paint4_linear" x1="296.45" y1="10.4987" x2="296.45" y2="285.707" gradientUnits="userSpaceOnUse">
<stop stop-color="#B8D4DD"/>
<stop offset="1" stop-color="#DBEBF0"/>
</linearGradient>
<linearGradient id="paint5_linear" x1="296.45" y1="10.4987" x2="296.45" y2="285.707" gradientUnits="userSpaceOnUse">
<stop stop-color="#B8D4DD"/>
<stop offset="1" stop-color="#DBEBF0"/>
</linearGradient>
<linearGradient id="paint6_linear" x1="296.45" y1="10.4987" x2="296.45" y2="285.707" gradientUnits="userSpaceOnUse">
<stop stop-color="#B8D4DD"/>
<stop offset="1" stop-color="#DBEBF0"/>
</linearGradient>
<linearGradient id="paint7_linear" x1="296.45" y1="10.4987" x2="296.45" y2="285.707" gradientUnits="userSpaceOnUse">
<stop stop-color="#B8D4DD"/>
<stop offset="1" stop-color="#DBEBF0"/>
</linearGradient>
<linearGradient id="paint8_linear" x1="300.8" y1="10.4995" x2="300.8" y2="285.707" gradientUnits="userSpaceOnUse">
<stop stop-color="#3F5F72"/>
<stop offset="1" stop-color="#3F5F72" stop-opacity="0.45"/>
</linearGradient>
<linearGradient id="paint9_linear" x1="400.928" y1="182.441" x2="455.686" y2="232.097" gradientUnits="userSpaceOnUse">
<stop stop-color="#E5F2F5"/>
<stop offset="1" stop-color="#C9E2EA"/>
</linearGradient>
<linearGradient id="paint10_linear" x1="425.658" y1="193.407" x2="470.022" y2="218.274" gradientUnits="userSpaceOnUse">
<stop stop-color="#E5F2F5"/>
<stop offset="1" stop-color="#C9E2EA"/>
</linearGradient>
<linearGradient id="paint11_linear" x1="424.231" y1="198.142" x2="426.922" y2="190.163" gradientUnits="userSpaceOnUse">
<stop stop-color="#E5F2F5" stop-opacity="0.57"/>
<stop offset="1" stop-color="#C9E2EA"/>
</linearGradient>
<linearGradient id="paint12_linear" x1="445.414" y1="83.2464" x2="419.771" y2="71.8449" gradientUnits="userSpaceOnUse">
<stop stop-color="#1BA4CE"/>
<stop offset="1" stop-color="#008FA9"/>
</linearGradient>
<linearGradient id="paint13_linear" x1="445.414" y1="83.2464" x2="419.771" y2="71.8449" gradientUnits="userSpaceOnUse">
<stop stop-color="#1BA4CE"/>
<stop offset="1" stop-color="#008FA9"/>
</linearGradient>
<linearGradient id="paint14_linear" x1="444.919" y1="146.302" x2="433.45" y2="106.142" gradientUnits="userSpaceOnUse">
<stop stop-color="#22C7E5"/>
<stop offset="0.319852" stop-color="#1BA4CE"/>
<stop offset="0.42333" stop-color="#008FA9"/>
<stop offset="0.709711" stop-color="#008BA9"/>
<stop offset="0.767956" stop-color="#1BA4CE"/>
<stop offset="1" stop-color="#02AAC8"/>
</linearGradient>
<linearGradient id="paint15_linear" x1="400.684" y1="44.2871" x2="408.784" y2="48.0359" gradientUnits="userSpaceOnUse">
<stop stop-color="#C9E2EA"/>
<stop offset="1" stop-color="#BCD7E1"/>
</linearGradient>
<linearGradient id="paint16_linear" x1="411.895" y1="48.354" x2="424.037" y2="64.6188" gradientUnits="userSpaceOnUse">
<stop stop-color="#E5F2F5"/>
<stop offset="1" stop-color="#C9E2EA"/>
</linearGradient>
<linearGradient id="paint17_linear" x1="461.615" y1="124.743" x2="444.647" y2="132.337" gradientUnits="userSpaceOnUse">
<stop stop-color="#EAF4F7"/>
<stop offset="1" stop-color="#C9E2EA" stop-opacity="0.59"/>
</linearGradient>
<linearGradient id="paint18_linear" x1="359.682" y1="139.448" x2="362.857" y2="151.088" gradientUnits="userSpaceOnUse">
<stop stop-color="#E5F2F5"/>
<stop offset="1" stop-color="#C9E2EA"/>
</linearGradient>
<linearGradient id="paint19_linear" x1="385.727" y1="71.0341" x2="419.812" y2="96.6694" gradientUnits="userSpaceOnUse">
<stop stop-color="#FBFEFF"/>
<stop offset="1" stop-color="#C9E2EA"/>
</linearGradient>
<linearGradient id="paint20_linear" x1="425.042" y1="53.4632" x2="433.924" y2="74.2711" gradientUnits="userSpaceOnUse">
<stop stop-color="#E5F2F5"/>
<stop offset="1" stop-color="#DEEFF4" stop-opacity="0.22"/>
</linearGradient>
<linearGradient id="paint21_linear" x1="419.873" y1="120.133" x2="421.202" y2="156.886" gradientUnits="userSpaceOnUse">
<stop stop-color="#E5F2F5" stop-opacity="0.63"/>
<stop offset="1" stop-color="#C9E2EA"/>
</linearGradient>
<linearGradient id="paint22_linear" x1="399.557" y1="19.1941" x2="406.614" y2="21.3947" gradientUnits="userSpaceOnUse">
<stop stop-color="#F1F8FB"/>
<stop offset="1" stop-color="#D9E9EF"/>
</linearGradient>
<linearGradient id="paint23_linear" x1="378.476" y1="14.9381" x2="384.158" y2="17.7756" gradientUnits="userSpaceOnUse">
<stop stop-color="#C9E2EA"/>
<stop offset="1" stop-color="#D9E9EF"/>
</linearGradient>
<linearGradient id="paint24_linear" x1="403.365" y1="15.4888" x2="411.976" y2="21.0212" gradientUnits="userSpaceOnUse">
<stop stop-color="#D9E9EF"/>
<stop offset="1" stop-color="#E9F4F8"/>
</linearGradient>
<linearGradient id="paint25_linear" x1="393.943" y1="47.2287" x2="395.944" y2="51.1997" gradientUnits="userSpaceOnUse">
<stop stop-color="#C9E2EA"/>
<stop offset="1" stop-color="#D9E9EF"/>
</linearGradient>
<linearGradient id="paint26_linear" x1="449.777" y1="168.982" x2="398.688" y2="186.549" gradientUnits="userSpaceOnUse">
<stop stop-color="#1BA4CE"/>
<stop offset="1" stop-color="#24C8E6"/>
</linearGradient>
<linearGradient id="paint27_linear" x1="449.777" y1="168.982" x2="398.688" y2="186.549" gradientUnits="userSpaceOnUse">
<stop stop-color="#1BA4CE"/>
<stop offset="1" stop-color="#24C8E6"/>
</linearGradient>
<linearGradient id="paint28_linear" x1="312.699" y1="127.61" x2="310.829" y2="152.583" gradientUnits="userSpaceOnUse">
<stop stop-color="#1183B4"/>
<stop offset="1" stop-color="#1EB5E3"/>
</linearGradient>
<linearGradient id="paint29_linear" x1="219.241" y1="135.959" x2="231.702" y2="162.004" gradientUnits="userSpaceOnUse">
<stop stop-color="#BADAE3" stop-opacity="0.62"/>
<stop offset="1" stop-color="#DBECF0" stop-opacity="0.55"/>
</linearGradient>
<linearGradient id="paint30_linear" x1="245.064" y1="129.532" x2="263.383" y2="122.835" gradientUnits="userSpaceOnUse">
<stop stop-color="#1BA4CE"/>
<stop offset="1" stop-color="#007489"/>
</linearGradient>
<linearGradient id="paint31_linear" x1="245.064" y1="129.532" x2="263.383" y2="122.835" gradientUnits="userSpaceOnUse">
<stop stop-color="#1BA4CE"/>
<stop offset="1" stop-color="#007489"/>
</linearGradient>
<linearGradient id="paint32_linear" x1="245.064" y1="129.532" x2="263.383" y2="122.835" gradientUnits="userSpaceOnUse">
<stop stop-color="#1BA4CE"/>
<stop offset="1" stop-color="#007489"/>
</linearGradient>
<linearGradient id="paint33_linear" x1="239.26" y1="52.9134" x2="244.85" y2="73.4844" gradientUnits="userSpaceOnUse">
<stop stop-color="#BADAE3"/>
<stop offset="1" stop-color="#E6F0F4"/>
</linearGradient>
<linearGradient id="paint34_linear" x1="258.246" y1="131.473" x2="266.74" y2="155.696" gradientUnits="userSpaceOnUse">
<stop stop-color="#BADAE3"/>
<stop offset="1" stop-color="#E6F0F4" stop-opacity="0.2"/>
</linearGradient>
<linearGradient id="paint35_linear" x1="238.944" y1="100.771" x2="243.355" y2="115.295" gradientUnits="userSpaceOnUse">
<stop stop-color="#BADAE3"/>
<stop offset="1" stop-color="#E6F0F4"/>
</linearGradient>
<linearGradient id="paint36_linear" x1="240.707" y1="118.995" x2="238.34" y2="107.206" gradientUnits="userSpaceOnUse">
<stop stop-color="#D7E8ED"/>
<stop offset="1" stop-color="#E6F0F4"/>
</linearGradient>
<linearGradient id="paint37_linear" x1="233.796" y1="227.798" x2="212.614" y2="181.384" gradientUnits="userSpaceOnUse">
<stop stop-color="#D7E8ED" stop-opacity="0.4"/>
<stop offset="1" stop-color="#E6F0F4"/>
</linearGradient>
<linearGradient id="paint38_linear" x1="253.691" y1="167.26" x2="256.332" y2="150.732" gradientUnits="userSpaceOnUse">
<stop stop-color="#D7E8ED"/>
<stop offset="1" stop-color="#E6F0F4"/>
</linearGradient>
<linearGradient id="paint39_linear" x1="218.117" y1="123.871" x2="191.062" y2="79.7196" gradientUnits="userSpaceOnUse">
<stop stop-color="#D7E8ED"/>
<stop offset="1" stop-color="#E6F0F4"/>
</linearGradient>
<linearGradient id="paint40_linear" x1="238.442" y1="78.6013" x2="253.173" y2="95.734" gradientUnits="userSpaceOnUse">
<stop stop-color="#BADAE3"/>
<stop offset="1" stop-color="#E6F0F4"/>
</linearGradient>
<linearGradient id="paint41_linear" x1="259.536" y1="290.213" x2="215.119" y2="141.87" gradientUnits="userSpaceOnUse">
<stop stop-color="#E5F2F5"/>
<stop offset="1" stop-color="#CEDBDF"/>
</linearGradient>
<linearGradient id="paint42_linear" x1="259.536" y1="290.213" x2="215.119" y2="141.87" gradientUnits="userSpaceOnUse">
<stop stop-color="#E5F2F5"/>
<stop offset="1" stop-color="#CEDBDF"/>
</linearGradient>
<linearGradient id="paint43_linear" x1="292.471" y1="293.584" x2="295.474" y2="298.491" gradientUnits="userSpaceOnUse">
<stop stop-color="#C9E2EA"/>
<stop offset="1" stop-color="#D9E9EF"/>
</linearGradient>
<linearGradient id="paint44_linear" x1="247.648" y1="301.324" x2="250.732" y2="303.999" gradientUnits="userSpaceOnUse">
<stop stop-color="#C9E2EA"/>
<stop offset="1" stop-color="#D9E9EF"/>
</linearGradient>
<linearGradient id="paint45_linear" x1="335.133" y1="269.173" x2="384.107" y2="264.313" gradientUnits="userSpaceOnUse">
<stop stop-color="#C4DFE9"/>
<stop offset="1" stop-color="#DCEBF0"/>
</linearGradient>
<linearGradient id="paint46_linear" x1="331.527" y1="265.185" x2="307.59" y2="262.228" gradientUnits="userSpaceOnUse">
<stop stop-color="#EEF9FC"/>
<stop offset="1" stop-color="#E6F0F4"/>
</linearGradient>
<linearGradient id="paint47_linear" x1="322.763" y1="109.167" x2="336.387" y2="97.3408" gradientUnits="userSpaceOnUse">
<stop stop-color="#CAE1E9" stop-opacity="0.7"/>
<stop offset="1" stop-color="#EEF5F7"/>
</linearGradient>
<linearGradient id="paint48_linear" x1="344.2" y1="117.267" x2="363.142" y2="107.048" gradientUnits="userSpaceOnUse">
<stop stop-color="#DCEBF0"/>
<stop offset="1" stop-color="#EFF6F8"/>
</linearGradient>
<linearGradient id="paint49_linear" x1="319.555" y1="186.927" x2="365.633" y2="172.596" gradientUnits="userSpaceOnUse">
<stop stop-color="#1183B4"/>
<stop offset="1" stop-color="#006889"/>
</linearGradient>
<linearGradient id="paint50_linear" x1="319.555" y1="186.927" x2="365.633" y2="172.596" gradientUnits="userSpaceOnUse">
<stop stop-color="#1183B4"/>
<stop offset="1" stop-color="#006889"/>
</linearGradient>
<linearGradient id="paint51_linear" x1="319.555" y1="186.927" x2="365.633" y2="172.596" gradientUnits="userSpaceOnUse">
<stop stop-color="#1183B4"/>
<stop offset="1" stop-color="#006889"/>
</linearGradient>
<linearGradient id="paint52_linear" x1="319.555" y1="186.927" x2="365.633" y2="172.596" gradientUnits="userSpaceOnUse">
<stop stop-color="#1183B4"/>
<stop offset="1" stop-color="#006889"/>
</linearGradient>
<linearGradient id="paint53_linear" x1="319.555" y1="186.927" x2="365.633" y2="172.596" gradientUnits="userSpaceOnUse">
<stop stop-color="#1183B4"/>
<stop offset="1" stop-color="#006889"/>
</linearGradient>
<linearGradient id="paint54_linear" x1="319.555" y1="186.927" x2="365.633" y2="172.596" gradientUnits="userSpaceOnUse">
<stop stop-color="#1183B4"/>
<stop offset="1" stop-color="#006889"/>
</linearGradient>
<linearGradient id="paint55_linear" x1="349.088" y1="142.813" x2="367.905" y2="177.954" gradientUnits="userSpaceOnUse">
<stop stop-color="#BADAE3"/>
<stop offset="1" stop-color="#E6F0F4"/>
</linearGradient>
<linearGradient id="paint56_linear" x1="359.286" y1="199.264" x2="354.322" y2="246.493" gradientUnits="userSpaceOnUse">
<stop stop-color="#D0E2E7"/>
<stop offset="1" stop-color="#E6F0F4"/>
</linearGradient>
<linearGradient id="paint57_linear" x1="327.278" y1="167.362" x2="327.278" y2="209.105" gradientUnits="userSpaceOnUse">
<stop stop-color="#D0E2E7"/>
<stop offset="1" stop-color="#DBE9ED"/>
</linearGradient>
<linearGradient id="paint58_linear" x1="362.98" y1="177.954" x2="362.98" y2="206.367" gradientUnits="userSpaceOnUse">
<stop stop-color="#B8D9E2"/>
<stop offset="1" stop-color="#DBE9ED"/>
</linearGradient>
<linearGradient id="paint59_linear" x1="320.397" y1="230.044" x2="338.092" y2="211.601" gradientUnits="userSpaceOnUse">
<stop stop-color="#1BA4CE"/>
<stop offset="1" stop-color="#1BA4CE"/>
</linearGradient>
<linearGradient id="paint60_linear" x1="219.924" y1="27.402" x2="219.924" y2="286.289" gradientUnits="userSpaceOnUse">
<stop stop-color="#B8D4DD"/>
<stop offset="1" stop-color="#DBEBF0"/>
</linearGradient>
<linearGradient id="paint61_linear" x1="219.924" y1="27.402" x2="219.924" y2="286.289" gradientUnits="userSpaceOnUse">
<stop stop-color="#B8D4DD"/>
<stop offset="1" stop-color="#DBEBF0"/>
</linearGradient>
<linearGradient id="paint62_linear" x1="580.162" y1="-5.55373e+24" x2="58.9005" y2="-5.55373e+24" gradientUnits="userSpaceOnUse">
<stop stop-color="#3F5F72" stop-opacity="0"/>
<stop offset="0.276042" stop-color="#3F5F72" stop-opacity="0.74"/>
<stop offset="0.519821" stop-color="#3F5F72" stop-opacity="0.553419"/>
<stop offset="0.770833" stop-color="#3F5F72" stop-opacity="0.7"/>
<stop offset="0.921875" stop-color="#3F5F72" stop-opacity="0"/>
</linearGradient>
</defs>
</svg>
