<svg width="85" height="85" viewBox="0 0 85 85" fill="none" xmlns="http://www.w3.org/2000/svg">
<path d="M16.2923 24.7917H33.2923M16.2923 33.2917H33.2923M16.2923 42.8542H24.7923M7.08398 10.625H28.334C32.0912 10.625 35.6946 12.1176 38.3513 14.7743C41.0081 17.4311 42.5006 21.0344 42.5006 24.7917V74.375C42.5006 71.5571 41.3812 68.8546 39.3887 66.862C37.3961 64.8694 34.6936 63.75 31.8756 63.75H7.08398V10.625Z" stroke="#3FD2C1" stroke-width="3.4" stroke-linecap="round" stroke-linejoin="round"/>
<path d="M77.9167 10.625H56.6667C52.9094 10.625 49.3061 12.1176 46.6493 14.7743C43.9926 17.4311 42.5 21.0344 42.5 24.7917V74.375C42.5 71.5571 43.6194 68.8546 45.612 66.862C47.6046 64.8694 50.3071 63.75 53.125 63.75H77.9167V10.625Z" stroke="#3FD2C1" stroke-width="3.4" stroke-linecap="round" stroke-linejoin="round"/>
</svg>
