<svg width="56" height="56" viewBox="0 0 56 56" fill="none" xmlns="http://www.w3.org/2000/svg">
<g clip-path="url(#clip0)">
<path d="M48.9893 56.0005C48.5054 56.0005 48.1143 55.6085 48.1143 55.1255L48.1265 25.3895H7.8853L7.87305 55.1247C7.87305 55.6085 7.48105 55.9997 6.99805 55.9997C6.51417 55.9997 6.12305 55.6077 6.12305 55.1247L6.1353 24.5137C6.1353 24.0307 6.5273 23.6387 7.0103 23.6387H49.0015C49.2343 23.6387 49.4565 23.7305 49.6202 23.895C49.7838 24.0595 49.8765 24.2818 49.8765 24.5145L49.8643 55.1255C49.8643 55.6094 49.4723 56.0005 48.9893 56.0005Z" fill="#3F6982"/>
<path d="M7.00925 25.3891C6.8115 25.3891 6.61375 25.3226 6.45012 25.1861C6.07825 24.8764 6.02837 24.3251 6.33725 23.9532L10.7114 18.7032C11.0211 18.3322 11.5724 18.2824 11.9434 18.5912C12.3152 18.901 12.3651 19.4522 12.0563 19.8232L7.68212 25.0732C7.50887 25.2815 7.26037 25.3891 7.00925 25.3891Z" fill="#3F6982"/>
<path d="M49.0027 25.3896C48.7515 25.3896 48.503 25.2819 48.3289 25.0746L43.9548 19.8246C43.645 19.4536 43.6958 18.9014 44.0677 18.5926C44.4387 18.2828 44.9908 18.3336 45.2997 18.7046L49.6738 23.9546C49.9835 24.3256 49.9328 24.8777 49.5609 25.1866C49.3982 25.3222 49.2004 25.3896 49.0027 25.3896Z" fill="#3F6982"/>
<path d="M16.334 20.1387H11.3848C10.9009 20.1387 10.5098 19.7467 10.5098 19.2637C10.5098 18.7807 10.9009 18.3887 11.3848 18.3887H16.334C16.8179 18.3887 17.209 18.7807 17.209 19.2637C17.209 19.7467 16.8179 20.1387 16.334 20.1387Z" fill="#3F6982"/>
<path d="M44.6276 20.1387H39.666C39.1821 20.1387 38.791 19.7467 38.791 19.2637C38.791 18.7807 39.1821 18.3887 39.666 18.3887H44.6276C45.1115 18.3887 45.5026 18.7807 45.5026 19.2637C45.5026 19.7467 45.1115 20.1387 44.6276 20.1387Z" fill="#3F6982"/>
<path d="M34.5915 5.9502H21.4082C20.9243 5.9502 20.5332 5.5582 20.5332 5.0752C20.5332 4.5922 20.9243 4.2002 21.4082 4.2002L34.5915 4.2002C35.0754 4.2002 35.4665 4.5922 35.4665 5.0752C35.4665 5.5582 35.0754 5.9502 34.5915 5.9502Z" fill="#1BA4CE"/>
<path d="M34.5915 9.68359H21.4082C20.9243 9.68359 20.5332 9.29159 20.5332 8.80859C20.5332 8.32559 20.9243 7.93359 21.4082 7.93359L34.5915 7.93359C35.0754 7.93359 35.4665 8.32559 35.4665 8.80859C35.4665 9.29159 35.0754 9.68359 34.5915 9.68359Z" fill="#1BA4CE"/>
<path d="M27.0665 13.417H21.4082C20.9243 13.417 20.5332 13.025 20.5332 12.542C20.5332 12.059 20.9243 11.667 21.4082 11.667L27.0665 11.667C27.5504 11.667 27.9415 12.059 27.9415 12.542C27.9415 13.025 27.5504 13.417 27.0665 13.417Z" fill="#1BA4CE"/>
<path d="M48.9893 55.999H6.99805C6.51417 55.999 6.12305 55.6079 6.12305 55.124C6.12305 54.6401 6.51417 54.249 6.99805 54.249H48.9893C49.4732 54.249 49.8643 54.6401 49.8643 55.124C49.8643 55.6079 49.4732 55.999 48.9893 55.999Z" fill="#3F6982"/>
<path d="M38.7923 22.764H17.209C16.7251 22.764 16.334 22.372 16.334 21.889V0.875C16.334 0.392 16.7251 0 17.209 0H38.7923C39.2762 0 39.6673 0.392 39.6673 0.875V21.889C39.6673 22.372 39.2762 22.764 38.7923 22.764ZM18.084 21.014H37.9173V1.75H18.084V21.014Z" fill="#1BA4CE"/>
<path d="M40.2408 22.7637H15.7461C15.2622 22.7637 14.8711 22.3717 14.8711 21.8887C14.8711 21.4057 15.2622 21.0137 15.7461 21.0137H40.2408C40.7247 21.0137 41.1158 21.4057 41.1158 21.8887C41.1158 22.3717 40.7247 22.7637 40.2408 22.7637Z" fill="#3F6982"/>
<path d="M28.0011 50.4297C27.7771 50.4297 27.5531 50.344 27.3824 50.1734L19.4077 42.2012C16.8693 39.6629 16.8693 35.532 19.4077 32.9927C20.6371 31.7599 22.2733 31.08 24.0146 31.08C25.4767 31.08 26.8653 31.5595 28.0019 32.445C29.1403 31.5595 30.5307 31.0791 31.9937 31.0791C33.7314 31.0791 35.3659 31.7546 36.5962 32.9831C39.1179 35.5162 39.1302 39.6191 36.6382 42.1575C36.6251 42.1732 36.6119 42.1881 36.5971 42.2021L28.6214 50.1734C28.4491 50.344 28.2251 50.4297 28.0011 50.4297ZM24.0137 32.83C22.7414 32.83 21.5453 33.3261 20.6449 34.2291C18.7882 36.0867 18.7882 39.1081 20.6441 40.964L28.0002 48.3175L35.3038 41.0182C35.3301 40.9867 35.3589 40.9561 35.3913 40.9281C37.2104 39.0696 37.1991 36.0701 35.3563 34.2186C34.4586 33.3235 33.2624 32.8282 31.9919 32.8282C30.7188 32.8282 29.5218 33.3244 28.6214 34.2282C28.4569 34.3927 28.2356 34.4855 28.0028 34.4855C28.0019 34.4855 28.0019 34.4855 28.0019 34.4855C27.7692 34.4855 27.5469 34.3936 27.3824 34.2291C26.4829 33.327 25.2851 32.83 24.0137 32.83Z" fill="#1BA4CE"/>
<path d="M23.642 46.0723C23.474 46.0723 23.3034 46.0241 23.1538 45.9226C22.753 45.6523 22.6472 45.1089 22.9167 44.7081C24.0585 43.0124 25.959 42 28.0004 42C30.0374 42 31.9362 43.0089 33.078 44.7002C33.3493 45.1001 33.2434 45.6444 32.8427 45.9147C32.4437 46.1869 31.8977 46.0793 31.6282 45.6794C30.8109 44.471 29.4555 43.75 28.0004 43.75C26.5427 43.75 25.1847 44.4736 24.3683 45.6855C24.1994 45.9375 23.9229 46.0723 23.642 46.0723Z" fill="#1BA4CE"/>
<path d="M28.002 43.749C26.0717 43.749 24.502 42.1793 24.502 40.249C24.502 38.3188 26.0717 36.749 28.002 36.749C29.9322 36.749 31.502 38.3188 31.502 40.249C31.502 42.1793 29.9322 43.749 28.002 43.749ZM28.002 38.499C27.0368 38.499 26.252 39.2839 26.252 40.249C26.252 41.2141 27.0368 41.999 28.002 41.999C28.9671 41.999 29.752 41.2141 29.752 40.249C29.752 39.2839 28.9671 38.499 28.002 38.499Z" fill="#1BA4CE"/>
</g>
<defs>
<clipPath id="clip0">
<rect width="56" height="56" fill="white"/>
</clipPath>
</defs>
</svg>
