<svg width="457" height="280" viewBox="0 0 457 280" fill="none" xmlns="http://www.w3.org/2000/svg">
<path opacity="0.2" d="M85.5 236.866L127 236.866M260.5 236.866H302.5M371.5 236.866H416.5M162.5 236.866H167.5" stroke="#D5E2E7" stroke-width="2" stroke-linecap="round" stroke-linejoin="round"/>
<ellipse cx="328" cy="273.5" rx="46" ry="3.5" fill="#161717"/>
<path d="M297.493 263.866C293.326 263.033 285.493 259.566 287.493 252.366C289.993 243.366 298 240.366 302 237.366C306 234.366 308 231.366 313 231.366C313.17 230.93 313.421 230.421 313.761 229.866C310.34 228.533 303.3 223.266 302.5 212.866C287.5 209.366 294 194.366 298 191.866C301.2 189.866 306.667 193.366 309 195.366C310.667 193.533 316.1 189.566 324.5 188.366C330.735 187.475 335.913 188.701 339.404 190.366C342.308 186.366 351 180.366 355 191.866C357.246 198.322 354 204.033 352 205.366C353.176 209.866 353.675 219.966 346.264 224.366C346.711 224.713 347.121 225.051 347.5 225.366C348.167 224.7 350.5 223.466 354.5 223.866C359.5 224.366 368.5 225.866 370.5 233.366C372.5 240.866 369 247.866 367 248.866C369 248.866 372 249.866 373.5 253.866C376.331 261.415 371.5 268.866 368.5 270.366C365.5 271.866 362.5 270.866 356.5 272.366C350.5 273.866 335.992 272.653 333 272.866C319 273.866 309.5 272.166 308.5 272.366C306 272.866 296.905 271.616 297.493 263.866Z" fill="#323436"/>
<g opacity="0.6">
<path d="M306.001 205.366C297.201 203.366 298.001 195.533 299.501 191.866C298.834 191.533 296.701 192.566 293.501 199.366C290.301 206.166 297.501 210.866 301.501 212.366L302.501 214.366C302.901 220.766 310.334 228.033 314.001 230.866C316.501 234.033 320.601 241.866 317.001 247.866C313.401 253.866 308.5 258.366 313.001 272.866H330.501C339.001 272.866 356.501 272.666 358.501 271.866C360.501 271.066 365.001 271.2 367.001 271.366C373.401 266.166 371.001 257.2 369.001 253.366C365.001 272.366 333 261.866 328.001 249.366C321.093 232.096 349.271 217.366 321.5 217.366C317.001 217.366 308.001 210.2 306.001 205.366Z" fill="#161717"/>
<path d="M313.001 246.866C315.801 243.666 316.167 238.2 316 235.866L314.5 232.866C314.5 233.866 314.3 236.166 313.5 237.366C312.5 238.866 306 241.366 305 244.366C304 247.366 298.5 256.866 295 255.366C292.2 254.166 288.833 254.866 287.5 255.366C288.667 257.366 291.4 261.466 293 261.866C294.6 262.266 296.333 264.033 297 264.866C298.2 270.866 305.167 272.7 308.5 272.866C308.333 272.533 307.4 270.566 305 265.366C302 258.866 309.5 250.866 313.001 246.866Z" fill="#161717"/>
<path d="M354.5 238.366L350 229.366C352.5 229.366 358.8 229.966 364 232.366C369.2 234.766 370.5 240.033 370.5 242.366L367.001 248.366L354.5 238.366Z" fill="#161717"/>
<path d="M351.5 195.866C349.1 193.066 345.5 193.033 344 193.366C344 198.566 350 203.533 353 205.366C353.5 203.366 353.9 198.666 351.5 195.866Z" fill="#161717"/>
</g>
<path d="M297.493 263.866C293.326 263.033 285.493 259.566 287.493 252.366C289.993 243.366 298 240.366 302 237.366C306 234.366 308 231.366 313 231.366M297.493 263.866C299.329 263.7 303.7 261.466 306.5 253.866M297.493 263.866C296.905 271.616 306 272.866 308.5 272.366C309.5 272.166 319 273.866 333 272.866C335.992 272.653 350.5 273.866 356.5 272.366C362.5 270.866 365.5 271.866 368.5 270.366C371.5 268.866 376.331 261.415 373.5 253.866C372 249.866 369 248.866 367 248.866M313 231.366C318 231.366 316.5 241.866 315 244.366C313.5 246.866 307 252.366 306.5 253.866M313 231.366C313.17 230.93 313.421 230.421 313.761 229.866M306.5 253.866C306 255.366 302 264.866 307.5 269.866M367 248.866C369 250.866 372.7 256.466 371.5 262.866M367 248.866C364.667 246.033 359 240.066 355 238.866C354.167 236.533 352 231.366 350 229.366C348 227.366 347.5 225.866 347.5 225.366M367 248.866C369 247.866 372.5 240.866 370.5 233.366C368.5 225.866 359.5 224.366 354.5 223.866C350.5 223.466 348.167 224.7 347.5 225.366M347.5 225.366C347.121 225.051 346.711 224.713 346.264 224.366M313.761 229.866C315.753 226.606 320.771 221.734 330 220.366C338.301 219.136 343.167 221.965 346.264 224.366M313.761 229.866C310.34 228.533 303.3 223.266 302.5 212.866M302.5 212.866C304.833 208.533 309.4 198.966 309 195.366M302.5 212.866C287.5 209.366 294 194.366 298 191.866C301.2 189.866 306.667 193.366 309 195.366M309 195.366C310.667 193.533 316.1 189.566 324.5 188.366C330.735 187.475 335.913 188.701 339.404 190.366M352 205.366C347 203.366 345.5 196.366 344 193.866C343.391 192.851 341.792 191.506 339.404 190.366M352 205.366C353.176 209.866 353.675 219.966 346.264 224.366M352 205.366C354 204.033 357.246 198.322 355 191.866C351 180.366 342.308 186.366 339.404 190.366" stroke="white" stroke-width="2" stroke-linecap="round" stroke-linejoin="round"/>
<path d="M186.5 151.366L178 156.866L201 196.866L205 183.866L186.5 151.366Z" fill="#161717"/>
<path d="M224 148.366L208 183.866L213.5 191.5C213.5 191.5 215.415 186.176 216.5 182C219.27 171.348 228.5 156.5 228.5 156.5C228.1 152.5 225.833 149.7 224 148.366Z" fill="#161717"/>
<path d="M207 190.366C206.6 188.366 207.167 186.866 207.5 186.366C207.333 186.033 206.8 185.366 206 185.366C205.2 185.366 202.333 197.366 201 203.366L204 208.866L215.5 205.866C214.833 206.033 213.5 205.366 213.5 201.366C213.5 196.366 207.5 192.866 207 190.366Z" fill="#161717"/>
<path d="M213.5 207.5L205.5 209.866L210.5 230.866V237.366L221 238.366L218.5 231.5L213.5 207.5Z" fill="#161717"/>
<path d="M140 227.366L149 233.366C145.8 233.366 145 238.366 145 240.866L148.5 249.866L156 255.866L159 260.866C157.8 260.866 150.5 257.033 148.5 255.866C148.179 255.834 147.846 255.79 147.5 255.733L146.198 254.366L141 248.366L139.5 243.366L139.5 233.866V231.366L136 229.366L132 231.666L133 234.366L132 235.866L133.5 238.866L132.5 241.866C132.834 242.533 133.4 244.066 133 244.866C132.6 245.666 134.167 247.533 135 248.366L141 249.366L146.198 255.469C143.126 254.743 139.227 253.124 134.5 250.366C126.204 245.527 127 231.866 129.5 225.366C131.5 220.166 138 219.866 141 220.366C140.667 220.866 139.9 222.366 139.5 224.366C139.1 226.366 139.667 227.2 140 227.366Z" fill="#161717"/>
<path d="M213 248.866L212.5 238.866L219 238.366L218.5 240.366L219 245.866L217.5 249.866L213 248.866Z" fill="#161717"/>
<path d="M206.5 247.366C194.1 245.766 184.667 238.033 181.5 234.366L180 241.366C184.4 250.166 200.167 253.366 207.5 253.866L206.5 247.366Z" fill="#161717"/>
<path d="M249.5 242.866C244.3 248.866 223 252.7 213 253.866L213.5 250.866H218.5C218.834 248.866 219.7 244.866 220.5 244.866C221.3 244.866 239.5 242.866 248 235.866L249.5 242.866Z" fill="#161717"/>
<path d="M207 190.366C206.6 188.366 207.166 186.866 207.5 186.366C207.333 186.033 206.8 186 206 186C205.2 186 202.001 196.5 203.001 202C204 207.5 207 208 207 208L215.5 205.866C214.833 206.033 213.5 205.366 213.5 201.366C213.5 196.366 207.5 192.866 207 190.366Z" fill="#3F6982"/>
<path d="M213 248.866L212.5 238.866L219 238.366L218.5 240.366L219 245.866L217.5 249.866L213 248.866Z" fill="#3F6982"/>
<path d="M186.5 151.366L178 156.866L201 196.866L205 183.866L186.5 151.366Z" fill="#1BA4CE"/>
<path d="M223.999 148.366L208 183.866L213.499 191.5C213.499 191.5 215.414 186.176 216.5 182C219.27 171.348 228.5 156.5 228.5 156.5C228.1 152.5 225.833 149.7 223.999 148.366Z" fill="#1BA4CE"/>
<path d="M213.499 207.5L205.5 209.866L210.499 230.866V237.366L220.999 238.366L218.5 231.5L213.499 207.5Z" fill="#1BA4CE"/>
<path d="M162.49 237.366C162.89 238.166 165.324 239.033 166.49 239.366C167.827 237.033 171.7 232.266 176.5 231.866C175.5 231.033 173.6 228.866 174 226.866C174.23 225.717 175.03 223.7 175 221.866C173.392 221.621 172.18 222.015 169.5 220.866C166 219.366 166 216.866 164.5 213.866C163 210.866 162 203.866 162.5 199.866C162.9 196.666 163.564 188.2 163.846 184.366C161.071 182.192 158.791 179.465 159.5 176.866C161 171.366 169 160.866 171 159.366C172.6 158.166 176 154.866 177.5 153.366C177.333 153.033 177.2 152.266 178 151.866C179 151.366 184.5 149.866 185.5 148.866C186.3 148.066 187.5 147.866 188 147.866L189 146.866C189.8 144.866 191.667 144.7 192.5 144.866C193.167 144.2 194.5 142.666 194.5 141.866C199.5 140.2 209.7 136.166 210.5 133.366C211.5 129.866 207.5 117.366 209.5 115.866C211.5 114.366 214 120.366 215 120.866C214 117.366 215.5 111.866 220 110.866C223.6 110.066 225.167 114.2 225.5 116.366C234.5 111.866 235.167 101 235 98.5C242.5 102.866 249.5 92 251 107.866C250.667 109.366 250 112.566 250 113.366C250 114.166 248 118.366 247 120.366L246 122.866C247.2 124.866 248.492 128.607 248 132.366C247 140 241.669 147.673 238 148.866C239.785 149.112 244.647 149.798 245.5 150.366C247 151.366 255.5 158.366 257 161.866C258.2 164.666 262.5 168.7 264.5 170.366C264.966 170.366 264.998 171.497 261.756 175.866C262.671 179.533 264 182.866 266 188.866C268.907 197.587 269.5 200.866 269 205.866C268.5 210.866 268.5 211.866 263 216.866C258.6 220.866 254.571 221.2 253.107 220.866L253.085 220.928C252.763 221.83 252.488 222.598 253 223.366C253.8 224.566 254 227.533 254 228.866C257.5 229.366 264 237.366 262 252.367C260 267.367 247.5 273.867 243.5 273.867H208.5C183.7 276.266 171.163 269.866 167.994 266.366C166.247 266.366 162.687 265.245 159.497 261.324C156.697 261.29 152.997 258.671 151.497 257.366C150.207 256.813 149.044 256.211 147.997 255.57C143.331 254.836 133.197 251.767 129.997 245.366C125.997 237.366 126.497 223.366 134.997 220.366C137.908 219.339 140.862 219.985 143.497 221.348C138.295 220.934 138.997 225.188 139.997 227.366L143.497 229.367C152.297 225.767 157.831 231.59 159.497 234.952C161.163 235.949 162.299 236.985 162.49 237.366Z" fill="#F0F5FB" fill-opacity="0.1"/>
<g opacity="0.5">
<path d="M177.5 100.866C173.9 108.066 178 119.2 180.5 123.866L182 127.366L187.5 136.866L194.5 141.866L192.5 145.366L198 145.866C200 142.366 214 137.366 218 134.866C222 132.366 214.5 121.866 214 117.866C213.6 114.666 218.5 110.533 221 108.866C224.189 99.2972 218 88.9998 210 88.9998C198.713 88.9998 206.926 82.8249 213.676 80.1697C214.671 79.7783 214.693 78.0863 213.629 77.9876C202.554 76.961 195.154 87.9573 192.5 87.4998C178 84.9997 182 91.8664 177.5 100.866Z" fill="url(#paint0_linear)"/>
<path d="M232.5 139.866C235.7 142.267 237.166 146.533 237.5 148.366L225.5 143.866C223.333 142.2 219.3 138.466 220.5 136.866C222 134.866 228.5 136.866 232.5 139.866Z" fill="url(#paint1_linear)"/>
<path d="M243 114.366C241.4 115.566 241.666 117.533 242 118.366L247 121.366L249.5 113.366C248 113.2 244.6 113.166 243 114.366Z" fill="url(#paint2_linear)"/>
<path d="M170.5 176.366C171.7 172.766 175 162.866 178 157.366C176.5 150.866 169 161.866 163.5 170.866L163.467 170.92C162.491 172.517 159.505 177.4 160 180.366C160.4 182.766 166.166 185.7 169 186.866C169 184.866 169.3 179.966 170.5 176.366Z" fill="url(#paint3_linear)"/>
<path d="M150.5 233.366C152.9 233.366 157.5 237.366 159.5 239.366C149 240.366 154 248.866 154 246.866C154 244.866 165 241.366 163.5 242.366C162 243.366 165.5 251.866 165.5 254.366C165.5 256.366 168 266.366 167 266.366C163 266.366 158.333 259.7 156.5 256.366C154.333 255.533 149.3 252.466 146.5 246.866C143 239.866 147.5 233.366 150.5 233.366Z" fill="url(#paint4_linear)"/>
<path d="M145 223.866C141.8 224.666 143.333 227.2 144.5 228.366C143.166 228.533 140.4 228.366 140 226.366C139.6 224.366 141.5 222.366 145 223.866Z" fill="url(#paint5_linear)"/>
<path d="M133.5 230.366C135.5 228.366 140 230.866 139.5 232.366C139.379 232.729 139.404 233.855 139.513 235.366C138.34 234.533 135.245 233.066 132.247 233.866C132.255 232.678 132.545 231.321 133.5 230.366Z" fill="url(#paint6_linear)"/>
<path d="M133 242.366C132.6 241.566 132.5 237.7 132.5 235.866C134.09 236.2 137.743 236.866 139.635 236.866C140.067 241.701 141 248.683 141 249.366C139.667 249.366 136.6 249.166 135 248.366C133 247.366 133.5 243.366 133 242.366Z" fill="url(#paint7_linear)"/>
<path d="M171.5 194.366C170.7 189.966 166.5 186.866 164.5 185.866C169.7 201.466 165.333 207.033 162.5 207.866L166.5 219.366L175 221.866C174.5 219.866 173.5 215.666 173.5 214.866C173.5 213.866 174 210.366 173.5 209.866C173 209.366 169 205.366 170.5 203.866C172 202.366 172.5 199.866 171.5 194.366Z" fill="url(#paint8_linear)"/>
<path d="M254.5 203.366C254.9 213.766 263.333 213.7 267.5 212.366L266 214.366L257 220.366H253V216.866L251 208.866L252 205.866L251 201.866L253 196.866L251 191.866L251.5 187.366L253.5 182.866L259 179.366C257.333 183.033 254.1 192.966 254.5 203.366Z" fill="url(#paint9_linear)"/>
<path d="M166.5 249.366C165.5 250.366 168.5 266.366 168.5 266.866C178.5 275.866 198.5 274.366 206.5 273.866C212.9 273.466 235.833 273.366 246.5 273.366C256.1 269.766 259.833 259.866 260.5 255.366L254 248.366L251.5 255.366C245.5 267.366 215.5 266.866 212 267.366C208.5 267.866 192.5 273.366 182.5 264.366C174.5 257.166 174.167 247.366 175 243.366C172.5 245.033 167.3 248.566 166.5 249.366Z" fill="url(#paint10_linear)"/>
<path d="M249.5 228.366C181.499 230.366 191 192.866 188 186.866C182.777 176.421 173.41 169.905 170.5 187.366C174.858 187.866 182.5 216.866 179.5 221.866C177.1 225.866 177.5 230.533 178 232.366L170.5 234.366L176 242.366C188 266.366 236 267.366 249.5 252.866C260.299 241.266 254 231.7 249.5 228.366Z" fill="url(#paint11_linear)"/>
</g>
<path d="M167.994 266.366C166.247 266.366 162.687 265.245 159.497 261.324M167.994 266.366C165.829 263.533 161.3 256.767 160.5 252.367C160.083 250.073 161.095 247.317 162.49 244.85M167.994 266.366C167.329 263.366 165.8 256.867 165 254.867M167.994 266.366C171.163 269.866 183.7 276.267 208.5 273.867C218.833 273.867 240.3 273.867 243.5 273.867C247.5 273.867 260 267.367 262 252.367M156.494 256.366C152.894 248.366 152.994 245.033 153.494 244.366M156.494 256.366C143.497 250.866 142.99 235.866 148.99 233.366C152.702 231.82 156.796 233.335 159.497 234.952M156.494 256.366C157.398 258.377 158.427 260.008 159.497 261.324M166.49 239.366C165.324 239.033 162.89 238.166 162.49 237.366C162.299 236.985 161.163 235.949 159.497 234.952M166.49 239.366C167.827 237.033 171.7 232.266 176.5 231.866C175.5 231.033 173.6 228.866 174 226.866C174.23 225.718 175.03 223.7 175 221.866M166.49 239.366C165.375 240.563 163.771 242.585 162.49 244.85M159.497 234.952C157.831 231.59 152.297 225.767 143.497 229.367L139.997 227.366M139.997 227.366C138.831 227.7 136.497 228.567 136.497 229.367M139.997 227.366C138.997 225.188 138.295 220.934 143.497 221.348M136.497 229.367C136.497 230.366 139.997 230.367 139.997 231.866C139.997 232.237 139.631 233.525 139.343 235.366M136.497 229.367C134.332 229.7 130.6 231.067 133 233.866M159.497 261.324C156.697 261.29 152.997 258.671 151.497 257.366C150.207 256.813 149.044 256.211 147.997 255.57M147.997 255.57C143.331 254.836 133.197 251.767 129.997 245.366C125.997 237.366 126.497 223.366 134.997 220.366C137.908 219.339 140.862 219.985 143.497 221.348M147.997 255.57C145.021 253.746 142.982 251.605 141.609 249.367M151.497 228.366C149.972 226.269 147.019 223.169 143.497 221.348M133 233.866C134.562 233.7 138.017 233.767 139.343 235.366M133 233.866C132.333 234.7 131.5 236.766 133.5 238.366M139.343 235.366C138.797 238.863 138.535 244.357 141.609 249.367M133.5 238.366C134.5 239.166 136.497 239.366 137.5 239.366M133.5 238.366C132.833 239.533 131.9 242.166 133.5 243.366C135.1 244.566 136.833 244.533 137.5 244.366M134.5 243.866C133.667 244.033 132.4 244.867 134 246.867C136 249.367 139.218 249.367 141.609 249.367M262 252.367C264 237.366 257.5 229.366 254 228.866M262 252.367C261 255.867 259 254.367 258.5 253.367C258.1 252.567 254.125 248.367 252.187 246.367M254 228.866L247 234.366M254 228.866C254 227.533 253.8 224.566 253 223.366C252.476 222.581 252.775 221.795 253.107 220.866M177.5 153.366C176 154.866 172.6 158.166 171 159.366C169 160.866 161 171.366 159.5 176.866C158.791 179.465 161.071 182.192 163.846 184.366M177.5 153.366C177.333 153.033 177.2 152.266 178 151.866C179 151.366 184.5 149.866 185.5 148.866C186.3 148.066 187.5 147.866 188 147.866M177.5 153.366C177.833 155.033 178.8 158.766 180 160.366C181.2 161.966 194.5 185.7 201 197.367M188 147.866C187.333 148.366 186.2 149.766 187 151.366C187.8 152.966 199.667 174.033 205.5 184.366M188 147.866L189 146.866C189.8 144.866 191.667 144.7 192.5 144.866M205.5 184.366C206 184.2 207.1 183.967 207.5 184.366M205.5 184.366C205.167 183.533 203.8 184.967 201 197.367M201 197.367C200.333 200.7 200.6 207.666 205 208.866M177 231.866C177.6 232.218 178.271 232.599 179 233.003M207 243.366C207.167 243.033 207.3 242.366 208.5 242.366C209.7 242.366 212 242.366 213 242.366M207 243.366C201.111 243.694 189.359 238.469 181.534 234.366M207 243.366C207.3 245.765 207.42 249.96 207.468 253.367M213 242.366C213 244.033 213 246.867 213 248.867M213 242.366C213.167 241.533 213.3 239.766 212.5 239.366C211.5 238.866 208.5 239.866 208.5 237.866C208.5 235.366 209 235.366 210.5 235.366M213 248.867C213 249.985 214 249.867 218 249.867C218.87 249.867 218.5 241.866 218.5 241.866C218.5 241.866 218 239.366 220 239.366C222.5 239.366 222.5 238.366 222.5 236.366C222.5 235.966 222 235.366 221 235.366M213 248.867V253.867M221 235.366V237.866L210.5 237.866V235.366M221 235.366V230.866M210.5 235.366V230.866M213 258.867C211.5 259.367 207.5 260.367 207.5 258.367C207.5 257.566 207.5 255.642 207.468 253.367M213 258.867C212.526 260.856 211.784 264.233 211.231 267.367M213 258.867V253.867M210.5 273.367C210.5 271.985 210.811 269.746 211.231 267.367M181.534 234.366C180.632 233.894 179.783 233.435 179 233.003M181.534 234.366C181.036 235.743 180.279 238.139 179.823 240.366M176 242.366C177.333 244.033 179.9 246.766 179.5 244.366C179.336 243.382 179.507 241.915 179.823 240.366M176 242.366C176.333 239.457 177.4 233.511 179 233.003M176 242.366C174.4 242.366 171.333 245.033 170 246.367C166 247.967 163.327 246.022 162.49 244.85M176 242.366C177.654 251.033 187.015 268.167 211.231 267.367M218 241.866C224.5 241.533 239.4 239.566 247 234.366M247 234.366C247.666 236.099 248.865 239.536 249.319 241.866M250 232.366C250.871 235.269 252.348 241.607 252.187 246.367M211.231 267.367C221.654 268.367 244.4 266.067 252 248.867M179.823 240.366C182.194 244.866 191.042 253.767 207.468 253.367M213 253.867C223.046 253.2 244.375 249.866 249.319 241.866M249.319 241.866C249.433 242.451 249.5 242.966 249.5 243.366C249.5 245.866 247.5 249.367 248.5 249.867C249.3 250.267 251.167 249.033 252 248.367C252.103 247.746 252.163 247.074 252.187 246.367M246.5 167.366C252 171.366 250.5 175.866 252 178.866C252.691 180.249 253.064 181.631 253.216 182.866M253.216 182.866C253.394 184.313 253.27 185.558 253 186.366C252.5 187.866 248.5 188.866 251.5 192.366C254.5 195.866 251.5 199.867 251 200.367C250.5 200.867 251.5 202.866 252 204.366C252.4 205.566 251.5 207.533 251 208.367C251.667 210.7 253.1 215.866 253.5 217.866C253.738 219.057 253.409 220.021 253.107 220.866M253.216 182.866C254.144 183.033 257 182.066 261 176.866C261.27 176.516 261.522 176.182 261.756 175.866M238 148.866C236.167 150.033 231.9 153.866 229.5 159.866C226.5 167.366 219 181.366 218.5 183.866C218.1 185.866 216 191.366 215 193.866M238 148.866C237.642 148.866 231.39 146.56 227.5 145.066M238 148.866C239.785 149.112 244.647 149.798 245.5 150.366C247 151.366 255.5 158.366 257 161.866C258.2 164.666 262.5 168.7 264.5 170.366C264.966 170.366 264.998 171.497 261.756 175.866M238 148.866C236.646 148.68 238.216 148.866 238 148.866ZM238 148.866C241.669 147.673 247 140 248 132.366C248.492 128.607 247.2 124.866 246 122.866M224.5 143.866C223.5 143.366 217.5 143.866 210.5 145.866C204.9 147.466 196.167 145.866 192.5 144.866M224.5 143.866C221.667 142.366 215 139.166 211 138.366M224.5 143.866C224.64 143.936 224.993 144.084 225.5 144.286M192.5 144.866C193.167 144.2 194.5 142.666 194.5 141.866M215 193.866C210.2 185.866 208 184.2 207.5 184.366M215 193.866C219 201.866 217 205.866 215.5 206.866M207.5 184.366L220.5 155.866C221.667 152.666 224.7 146.026 227.5 145.066M227.5 145.066C226.714 144.765 226.025 144.496 225.5 144.286M205 208.866C206.667 208.533 210.7 207.666 215.5 206.866M205 208.866C206.5 214.366 209.3 226.066 210.5 230.866M215.5 206.866C217 213.866 220.2 228.466 221 230.866M221 230.866H210.5M253.107 220.866C254.571 221.2 258.6 220.866 263 216.866C268.5 211.866 268.5 210.866 269 205.866C269.5 200.866 268.907 197.587 266 188.866C264 182.866 262.671 179.533 261.756 175.866M163.846 184.366C165.769 185.874 167.931 187.116 169.5 187.866C170.167 188.033 171.4 188.866 171 190.866C170.5 193.366 172.5 195.367 172 196.867C171.6 198.067 172.5 200.033 173 200.867C172.333 201.7 170.8 203.667 170 204.867C169.2 206.067 172.667 208.366 174.5 209.366C173.833 210.866 172.7 214.366 173.5 216.366C174.04 217.718 174.965 219.71 175 221.866M163.846 184.366C163.564 188.2 162.9 196.666 162.5 199.866C162 203.866 163 210.866 164.5 213.866C166 216.866 166 219.366 169.5 220.866C172.18 222.015 173.392 221.621 175 221.866M194.5 141.866C192 140.7 186.8 137.666 186 134.866C185 131.366 180.5 127.366 180.5 124.866C180.5 122.366 179.5 125.366 175.5 123.866C173.57 123.143 170.5 120.866 171.5 120.866C172.5 120.866 177 120.366 177.5 117.866C178 115.366 178 117.366 172.5 117.866C167 118.366 163.5 116.366 163.5 114.366C166.833 113.7 173.7 111.166 174.5 106.366C173.667 107.033 171.4 108.266 169 107.866C166 107.366 175 106.366 174 102.866C173 99.3665 174 96.3665 175 95.3665C173.167 94.5331 169.1 92.2665 167.5 89.8665C165.9 87.4665 167.167 84.5331 168 83.3665C168.167 84.1998 168.8 85.9665 170 86.3665C171.5 86.8665 171.5 81.8665 171.5 80.8665C171.5 79.8665 173 85.3665 175 85.3665C177 85.3665 174.5 78.3665 176 76.8665C177.5 75.3665 177 79.8665 180.5 79.3665C184 78.8665 187.5 73.8663 190 74.3663C192.5 74.8663 192 70.3664 196.5 69.8664C201 69.3664 201.5 68.8664 202.5 67.3664C203.3 66.1664 203.5 68.1997 203.5 69.3664C208.667 69.1997 220.1 69.6664 224.5 72.8665C230 76.8665 245.5 84.3665 251 82.3665C250.333 83.0331 248.5 84.3665 246.5 84.3665M194.5 141.866C199.5 140.2 209.7 136.166 210.5 133.366C211.5 129.866 207.5 117.366 209.5 115.866C211.5 114.366 214 120.366 215 120.866M247 84.8665C251.935 89.8016 255.352 99.5983 251 107.866M251 107.866C250.667 109.366 250 112.566 250 113.366M251 107.866C249.5 92 242.5 102.866 235 98.5C235.167 101 234.5 111.866 225.5 116.366C225.167 114.2 223.6 110.066 220 110.866C215.5 111.866 214 117.366 215 120.866M215 120.866C216 124.366 218 127.366 220.5 128.866C223 130.366 224.5 130.866 225.5 128.866C226.3 127.266 225.5 125.866 225 125.366M222.5 118.366C223 117 222.5 114.366 221 114.366C218.496 114.366 217.427 117.5 218 120.366C218.8 124.366 221.333 125.033 222.5 124.866M250 113.366C250 114.166 248 118.366 247 120.366M250 113.366C248.5 113.033 244.9 112.766 242.5 114.366M247 120.366C246.648 120.101 245.499 119.6 243.721 119.718C244.441 120.575 245.295 121.692 246 122.866M247 120.366L246 122.866M225.5 144.286C223.799 141.48 219.418 135.566 215.5 134.366" stroke="white" stroke-width="2" stroke-linecap="round" stroke-linejoin="round"/>
<defs>
<linearGradient id="paint0_linear" x1="199.873" y1="72.2449" x2="199.873" y2="274.277" gradientUnits="userSpaceOnUse">
<stop stop-color="#161717"/>
<stop offset="0.75419" stop-color="#161717"/>
<stop offset="1" stop-color="#161717"/>
</linearGradient>
<linearGradient id="paint1_linear" x1="199.873" y1="72.2449" x2="199.873" y2="274.277" gradientUnits="userSpaceOnUse">
<stop stop-color="#161717"/>
<stop offset="0.75419" stop-color="#161717"/>
<stop offset="1" stop-color="#161717"/>
</linearGradient>
<linearGradient id="paint2_linear" x1="199.873" y1="72.2449" x2="199.873" y2="274.277" gradientUnits="userSpaceOnUse">
<stop stop-color="#161717"/>
<stop offset="0.75419" stop-color="#161717"/>
<stop offset="1" stop-color="#161717"/>
</linearGradient>
<linearGradient id="paint3_linear" x1="199.873" y1="72.2449" x2="199.873" y2="274.277" gradientUnits="userSpaceOnUse">
<stop stop-color="#161717"/>
<stop offset="0.75419" stop-color="#161717"/>
<stop offset="1" stop-color="#161717"/>
</linearGradient>
<linearGradient id="paint4_linear" x1="199.873" y1="72.2449" x2="199.873" y2="274.277" gradientUnits="userSpaceOnUse">
<stop stop-color="#161717"/>
<stop offset="0.75419" stop-color="#161717"/>
<stop offset="1" stop-color="#161717"/>
</linearGradient>
<linearGradient id="paint5_linear" x1="199.873" y1="72.2449" x2="199.873" y2="274.277" gradientUnits="userSpaceOnUse">
<stop stop-color="#161717"/>
<stop offset="0.75419" stop-color="#161717"/>
<stop offset="1" stop-color="#161717"/>
</linearGradient>
<linearGradient id="paint6_linear" x1="199.873" y1="72.2449" x2="199.873" y2="274.277" gradientUnits="userSpaceOnUse">
<stop stop-color="#161717"/>
<stop offset="0.75419" stop-color="#161717"/>
<stop offset="1" stop-color="#161717"/>
</linearGradient>
<linearGradient id="paint7_linear" x1="199.873" y1="72.2449" x2="199.873" y2="274.277" gradientUnits="userSpaceOnUse">
<stop stop-color="#161717"/>
<stop offset="0.75419" stop-color="#161717"/>
<stop offset="1" stop-color="#161717"/>
</linearGradient>
<linearGradient id="paint8_linear" x1="199.873" y1="72.2449" x2="199.873" y2="274.277" gradientUnits="userSpaceOnUse">
<stop stop-color="#161717"/>
<stop offset="0.75419" stop-color="#161717"/>
<stop offset="1" stop-color="#161717"/>
</linearGradient>
<linearGradient id="paint9_linear" x1="199.873" y1="72.2449" x2="199.873" y2="274.277" gradientUnits="userSpaceOnUse">
<stop stop-color="#161717"/>
<stop offset="0.75419" stop-color="#161717"/>
<stop offset="1" stop-color="#161717"/>
</linearGradient>
<linearGradient id="paint10_linear" x1="199.873" y1="72.2449" x2="199.873" y2="274.277" gradientUnits="userSpaceOnUse">
<stop stop-color="#161717"/>
<stop offset="0.75419" stop-color="#161717"/>
<stop offset="1" stop-color="#161717"/>
</linearGradient>
<linearGradient id="paint11_linear" x1="199.873" y1="72.2449" x2="199.873" y2="274.277" gradientUnits="userSpaceOnUse">
<stop stop-color="#161717"/>
<stop offset="0.75419" stop-color="#161717"/>
<stop offset="1" stop-color="#161717"/>
</linearGradient>
</defs>
</svg>
