<svg width="56" height="56" viewBox="0 0 56 56" fill="none" xmlns="http://www.w3.org/2000/svg">
<path d="M28.9817 39C28.4192 39 27.9634 39.4385 27.9634 39.9793V50.0415H22.346V39.9793C22.346 39.4385 21.8902 39 21.3277 39H13.6729C13.1103 39 12.6546 39.4385 12.6546 39.9793V50.0415H7.03662V39.9793C7.03662 39.4385 6.58082 39 6.01831 39C5.45579 39 5 39.4385 5 39.9793V51.0207C5 51.5615 5.45579 52 6.01831 52H13.6729H21.3277H28.9817C29.5442 52 30 51.5615 30 51.0207V39.9793C30 39.4385 29.5441 39 28.9817 39ZM14.6912 50.0415V40.9585H20.3094V50.0415H14.6912Z" fill="#3F6982"/>
<path d="M34.6975 38.2877L18.2295 22.2938C17.8263 21.902 17.1724 21.9021 16.769 22.2938L0.302485 38.2877C-0.100828 38.6794 -0.100828 39.3146 0.302485 39.7062C0.705937 40.0979 1.35972 40.0979 1.76304 39.7062L17.4993 24.4216L33.2371 39.7063C33.4387 39.9021 33.7031 40 33.9673 40C34.2315 40 34.4959 39.9021 34.6976 39.7062C35.1008 39.3146 35.1008 38.6794 34.6975 38.2877Z" fill="#3F6982"/>
<path d="M39.5709 2L33.8566 7.14286H29.2852V14.8571H33.8566L39.5709 20V2Z" stroke="#1BA4CE" stroke-width="2" stroke-linecap="round" stroke-linejoin="round"/>
<path d="M50.9196 2C53.5323 4.3872 55 7.6245 55 11C55 14.3755 53.5323 17.6128 50.9196 20M46 6.49364C47.3063 7.68723 48.0402 9.30589 48.0402 10.9936C48.0402 12.6814 47.3063 14.3 46 15.4936" stroke="#1BA4CE" stroke-width="2" stroke-linecap="round" stroke-linejoin="round"/>
</svg>
