<svg width="12" height="20" viewBox="0 0 12 20" fill="none" xmlns="http://www.w3.org/2000/svg">
<path d="M10.9995 0.00391719L8.40595 -0.000244141C5.49222 -0.000244141 3.60923 1.93166 3.60923 4.92178V7.19117H1.00156C0.776223 7.19117 0.59375 7.37385 0.59375 7.59919V10.8873C0.59375 11.1126 0.776431 11.2951 1.00156 11.2951H3.60923V19.5919C3.60923 19.8173 3.7917 19.9998 4.01704 19.9998H7.41931C7.64464 19.9998 7.82712 19.8171 7.82712 19.5919V11.2951H10.8761C11.1014 11.2951 11.2839 11.1126 11.2839 10.8873L11.2852 7.59919C11.2852 7.49099 11.2421 7.38737 11.1657 7.31081C11.0894 7.23424 10.9853 7.19117 10.8771 7.19117H7.82712V5.26738C7.82712 4.34273 8.04746 3.87333 9.25194 3.87333L10.9991 3.87271C11.2242 3.87271 11.4067 3.69003 11.4067 3.4649V0.411728C11.4067 0.186808 11.2244 0.00433333 10.9995 0.00391719Z" fill="#3F6982"/>
</svg>
