<svg width="85" height="85" viewBox="0 0 85 85" fill="none" xmlns="http://www.w3.org/2000/svg">
<path d="M26.3819 30.2865C31.5813 35.4859 43.54 45.1048 43.54 45.1048C43.54 45.1048 55.2386 35.7459 60.698 30.2865C66.1574 24.8271 70.3689 17.7039 66.4173 10.0088C62.0206 1.44681 48.9993 0.129929 43.54 13.1284C38.0806 0.129929 25.0593 1.44681 20.6626 10.0088C16.711 17.7039 21.1825 25.0871 26.3819 30.2865Z" stroke="#1BA4CE" stroke-width="3.4" stroke-linecap="round" stroke-linejoin="round"/>
<path d="M18.3224 78.1212C18.3224 79.993 16.2426 82.0207 13.383 82.0207H3.24414V52.6441C6.19047 52.6441 11.3032 52.6441 13.383 52.6441C16.5026 52.6441 18.3224 54.4639 18.3224 57.3236M18.3224 78.1212C18.3224 76.2494 18.3224 63.5628 18.3224 57.3236M18.3224 78.1212C22.066 80.8249 29.9344 81.9341 33.4007 82.0207C40.6798 82.0207 56.1741 82.0207 59.9176 82.0207C63.6612 82.0207 67.5434 78.3811 69.0166 76.5613C72.8295 71.6219 80.4553 61.2231 81.2352 59.9233C82.0151 58.6234 82.2751 54.9638 79.6754 53.164C77.0757 51.3642 73.7827 52.7307 72.6562 53.9439L60.9575 65.6426M18.3224 57.3236C19.5356 55.3304 23.4698 51.3442 29.5011 51.3442C37.0403 51.3442 39.8999 57.3236 43.2795 57.3236C45.9832 57.3236 53.9383 57.3236 57.5779 57.3236C61.9974 57.3236 64.0772 62.523 60.9575 65.6426M60.9575 65.6426C60.4376 66.0759 59.0337 66.9424 57.5779 66.9424C56.1221 66.9424 45.186 66.9424 39.8999 66.9424" stroke="#1BA4CE" stroke-width="3.4" stroke-linecap="round" stroke-linejoin="round"/>
</svg>
