<svg width="84" height="84" viewBox="0 0 84 84" fill="none" xmlns="http://www.w3.org/2000/svg">
<g clip-path="url(#clip0)">
<path d="M35.2975 67.1385V63.8602C35.2975 63.8474 35.2973 63.8345 35.297 63.8217C35.2372 61.2834 35.1754 58.6589 34.4466 55.9246C32.785 49.7077 29.1828 46.275 22.403 44.4466L22.2929 44.4167C22.1023 44.3653 21.8683 44.3025 21.7832 44.2662C21.7519 44.2333 21.6652 44.1297 21.4874 43.8405L17.2145 36.9108C16.3955 35.5791 15.1104 34.704 13.6963 34.3663L12.6717 21.15C12.4302 18.0666 10.0531 15.7367 7.13885 15.7305C4.18439 15.7305 1.79923 18.062 1.59071 21.1543L0.0188143 44.545C0.0176659 44.5617 0.0168456 44.5783 0.0161893 44.595C-0.210547 50.7807 1.96477 52.7523 5.25753 55.7363L5.3207 55.7937C5.73627 56.1704 6.22584 56.5889 6.74412 57.0321C9.59259 59.4673 13.8973 63.1474 13.8973 66.6941V67.1385C12.2424 67.6731 11.0418 69.2269 11.0418 71.0564V77.0121C11.0418 79.2821 12.8898 81.1289 15.1611 81.1289H31.9592C32.8654 81.1289 30.3186 80.3942 30.3186 79.4883C30.3186 78.5823 32.8654 77.8476 31.9592 77.8476H15.1612C14.707 77.8476 14.3232 77.465 14.3232 77.0121V71.0564C14.3232 70.6034 14.707 70.2208 15.1612 70.2208H34.0335C34.488 70.2208 34.8717 70.6034 34.8717 71.0564V77.0121C34.8717 77.4729 34.4957 77.8476 34.0335 77.8476H31.9592C31.0531 77.8476 30.3186 78.5823 30.3186 79.4883C30.3186 80.3942 31.0531 81.1289 31.9592 81.1289H34.0335C36.305 81.1289 38.153 79.2821 38.153 77.0121V71.0564C38.153 69.2269 36.9524 67.6731 35.2975 67.1385ZM32.0162 66.9395H17.1786V66.6941C17.1786 61.6358 12.1825 57.3644 8.87645 54.538C8.37688 54.1107 7.90487 53.7073 7.52457 53.3626L7.46108 53.305C4.39948 50.5304 3.12914 49.3786 3.29451 44.7397L4.86477 21.3748C4.95566 20.0276 5.93331 19.0119 7.13541 19.0119C8.49944 19.0149 9.30745 20.2188 9.40047 21.4051L10.42 34.5551C10.0703 34.6833 9.72844 34.8473 9.39916 35.0495C6.73313 36.6917 5.89771 40.1965 7.53737 42.8632L14.4622 54.1011C14.9375 54.8725 15.9483 55.1125 16.7197 54.6372C17.4911 54.1619 17.7311 53.1511 17.2558 52.3797L10.3319 41.1431C9.63984 40.0178 9.9934 38.5373 11.1179 37.8448C12.2465 37.1526 13.7278 37.5045 14.4208 38.6315L18.6934 45.5605C19.5498 46.9546 20.188 47.2481 21.4401 47.5854L21.5478 47.6145C28.0608 49.3709 30.1475 52.5457 31.2769 56.7712C31.9031 59.1204 31.9617 61.5394 32.0168 63.8796V66.9395H32.0162Z" fill="#3F6982"/>
<path d="M30.7656 24.0055C27.2656 15.0055 30.7656 7.5055 41.2685 9.0055C38.2656 5.0055 30.1673 3.4055 23.7673 7.0055C17.3673 10.6055 18.7673 18.8388 20.2673 22.5055L42.2673 43.5055C41.9652 42.9012 50.6058 38.259 49.7656 35.0055C48.7535 31.0862 44.7656 29.0055 44.7656 29.0055L47.2656 26.5055V21.5055L42.7656 19.0055L38.2656 19.5055L36.2656 24.0055L38.2656 29.0055L35.5733 33.0055C33.7143 30.0812 31.9216 26.978 30.7656 24.0055Z" fill="#EDF6F9"/>
<path d="M83.9843 44.5953C83.9836 44.5785 83.9828 44.562 83.9817 44.5452L82.4098 21.1542C82.2012 18.0622 79.8158 15.7307 76.858 15.7307C73.9474 15.7369 71.5704 18.0668 71.3287 21.1515L70.3043 34.3662C68.8904 34.7037 67.6056 35.5782 66.7871 36.9092L62.5114 43.8432C62.3351 44.1303 62.2486 44.2335 62.2173 44.2665C62.132 44.3028 61.8982 44.3656 61.7077 44.4169L61.5991 44.4463C54.8177 46.2751 51.2155 49.708 49.5539 55.9259C48.8249 58.6598 48.7632 61.284 48.7035 63.8219C48.7032 63.8349 48.703 63.8477 48.703 63.8605V67.1388C47.0483 67.6733 45.8477 69.2272 45.8477 71.0565V77.0122C45.8477 79.2821 47.6957 81.129 49.967 81.129H68.8392C71.1107 81.129 72.9585 79.2821 72.9585 77.0122V71.0565C72.9585 69.2272 71.7579 67.6733 70.1032 67.1388V66.6943C70.1032 63.1476 74.4079 59.4673 77.2565 57.032C77.7746 56.589 78.2642 56.1706 78.6796 55.7939L78.7429 55.7365C82.0355 52.7525 84.2109 50.781 83.9843 44.5953ZM69.6774 77.0122C69.6774 77.4651 69.2935 77.8477 68.8394 77.8477H49.9671C49.5128 77.8477 49.1291 77.4651 49.1291 77.0122V71.0565C49.1291 70.6035 49.513 70.2209 49.9671 70.2209H68.8394C69.2937 70.2209 69.6774 70.6035 69.6774 71.0565V77.0122ZM76.5394 53.3053L76.4759 53.3629C76.0958 53.7075 75.6239 54.111 75.1243 54.538C71.8183 57.3645 66.8221 61.6359 66.8221 66.6943V66.9398H51.9845V63.88C52.0394 61.5401 52.0978 59.1212 52.7242 56.7723C53.8536 52.5458 55.9405 49.3712 62.455 47.6142L62.5613 47.5855C63.8133 47.2482 64.4515 46.9548 65.3061 45.5633L69.5813 38.6301C70.0561 37.8578 70.9025 37.4503 71.7512 37.4936C71.7535 37.4938 71.7558 37.4936 71.7581 37.4938C72.1441 37.5146 72.5305 37.6286 72.8823 37.8444C73.4268 38.1791 73.8087 38.7087 73.9577 39.3352C74.106 39.9595 74.0041 40.6008 73.6699 41.1422L66.7451 52.3801C66.2698 53.1515 66.5097 54.1622 67.2813 54.6376C68.0532 55.1131 69.0635 54.8731 69.5388 54.1015L76.4628 42.8647C77.2575 41.5777 77.5015 40.0546 77.15 38.5764C76.7981 37.0959 75.8927 35.8431 74.5992 35.0482C74.2707 34.8468 73.9296 34.683 73.5808 34.5552L74.6003 21.4068C74.6934 20.2192 75.5012 19.0151 76.8618 19.0122C78.0675 19.0122 79.0453 20.0279 79.136 21.3747L80.7061 44.74C80.8713 49.3789 79.601 50.5306 76.5394 53.3053Z" fill="#3F6982"/>
<path d="M61.6233 27.905C67.315 22.0161 67.315 12.434 61.6233 6.54508C59.197 4.0349 55.8732 2.7347 52.2571 2.88186C48.829 3.02214 45.5182 4.42964 42.9356 6.84351L42.7632 7.00446C42.5012 7.24924 42.2179 7.51404 41.9993 7.70321C41.7808 7.51421 41.4973 7.24924 41.2354 7.00446L41.0642 6.84433C38.4803 4.42948 35.1698 3.02214 31.7421 2.8817C28.13 2.73568 24.8036 4.0349 22.3803 6.54442C16.6831 12.4337 16.6831 22.0163 22.3803 27.9055C22.3935 27.9191 22.407 27.9326 22.4208 27.9459L40.8606 45.7248C41.1784 46.0311 41.5888 46.1844 41.9993 46.1844C42.4098 46.1844 42.8201 46.0311 43.1379 45.725L61.5823 27.9462C61.5963 27.9328 61.6099 27.919 61.6233 27.905ZM41.9995 42.2649L34.5795 35.1109C34.794 32.7597 36.1314 30.6372 38.1607 29.4088C39.2878 30.0722 40.5994 30.4544 41.9995 30.4544C43.3995 30.4544 44.7111 30.0722 45.8383 29.4088C47.8679 30.6374 49.2055 32.7608 49.4194 35.1129L41.9995 42.2649ZM37.6917 22.8719C37.6917 20.5003 39.624 18.5708 41.9992 18.5708C44.3743 18.5708 46.3067 20.5003 46.3067 22.8719C46.3067 25.2436 44.3743 27.1732 41.9992 27.1732C39.6242 27.1732 37.6917 25.2436 37.6917 22.8719ZM52.1923 32.4398C51.4885 30.3122 50.1262 28.4381 48.2927 27.1047C49.1102 25.8951 49.5881 24.4382 49.5881 22.8719C49.5881 18.6911 46.1838 15.2895 41.9993 15.2895C37.8149 15.2895 34.4106 18.6909 34.4106 22.8719C34.4106 24.4382 34.8885 25.8951 35.706 27.1047C33.8731 28.4376 32.511 30.311 31.807 32.4376L24.7195 25.604C20.2589 20.9712 20.2651 13.4504 24.7398 8.82491C28.3072 5.13003 34.625 5.31723 38.8245 9.24262L38.995 9.40192C40.1306 10.4634 40.8811 11.1645 41.9993 11.1645C43.1176 11.1645 43.868 10.4634 45.0038 9.40192L45.1754 9.24163C49.3732 5.31788 55.6932 5.13134 59.2641 8.8254C63.734 13.4502 63.7404 20.9712 59.2834 25.6045L52.1923 32.4398Z" fill="#1BA4CE"/>
</g>
<defs>
<clipPath id="clip0">
<rect width="84" height="84" fill="white"/>
</clipPath>
</defs>
</svg>
