<svg width="24" height="24" viewBox="0 0 24 24" fill="none" xmlns="http://www.w3.org/2000/svg">
<path d="M20.8401 5.60999C20.3294 5.099 19.7229 4.69364 19.0555 4.41708C18.388 4.14052 17.6726 3.99817 16.9501 3.99817C16.2276 3.99817 15.5122 4.14052 14.8448 4.41708C14.1773 4.69364 13.5709 5.099 13.0601 5.60999L12.0001 6.66999L10.9401 5.60999C9.90843 4.5783 8.50915 3.9987 7.05012 3.9987C5.59109 3.9987 4.19181 4.5783 3.16012 5.60999C2.12843 6.64169 1.54883 8.04096 1.54883 9.49999C1.54883 10.959 2.12843 12.3583 3.16012 13.39L4.22012 14.45L12.0001 22.23L19.7801 14.45L20.8401 13.39C21.3511 12.8792 21.7565 12.2728 22.033 11.6053C22.3096 10.9379 22.4519 10.2225 22.4519 9.49999C22.4519 8.77751 22.3096 8.0621 22.033 7.39464C21.7565 6.72718 21.3511 6.12075 20.8401 5.60999Z" fill="white" stroke="white" stroke-width="2" stroke-linecap="round" stroke-linejoin="round"/>
</svg>
