<svg width="120" height="120" viewBox="0 0 120 120" fill="none" xmlns="http://www.w3.org/2000/svg">
<g opacity="0.7">
<path d="M14.5 58.4999C14.5 48.8999 22.1667 46.4999 26 46.4999C10.8 42.8999 6.66667 52.9999 6.5 58.4999H14.5Z" fill="#D5E2E7"/>
<path d="M14.5 60.9998H9V71.9998L15 77.9998V82.9998L9 83.4998L5 86.4998V97.9998H11.5C11.5 89.4998 12.5 86.4998 18.5 86.4998V77.9998C13.7 72.7998 13.8333 64.4998 14.5 60.9998Z" fill="#D5E2E7"/>
<path d="M93.5 58.4999C93.5 48.8999 101.167 46.4999 105 46.4999C89.8 42.8999 85.6667 52.9999 85.5 58.4999H93.5Z" fill="#D5E2E7"/>
<path d="M93.5 60.9998H88V71.9998L94 77.9998V82.9998L88 83.4998L84 86.4998V97.9998H90.5C90.5 89.4998 91.5 86.4998 97.5 86.4998V77.9998C92.7 72.7998 92.8333 64.4998 93.5 60.9998Z" fill="#D5E2E7"/>
<path d="M55.0011 69.0002C55.0011 80.2002 55.0011 90.0002 63.5011 93.5002C55.0011 93.5002 46.0011 88.9002 46.0011 70.5002C46.0011 52.1002 62.3345 51.5002 70.5011 53.5002C65.3345 54.0002 55.0011 57.8002 55.0011 69.0002Z" fill="#D5E2E7"/>
<path d="M52.5 101.5C40.9204 101.5 40.5158 108.481 40.9507 117.055C40.9775 117.585 41.4164 118 41.9471 118H49.0027C49.5549 118 50.0027 117.552 49.9968 117C49.94 111.658 49.56 106.511 53.1145 104.692C54.0088 104.234 54.3951 102.685 53.5431 102.152L52.5 101.5Z" fill="#D5E2E7"/>
</g>
<path d="M7.5 68.4342C6.46313 68.4342 5.625 67.5961 5.625 66.5592V59.3086C5.625 58.2717 6.46313 57.4336 7.5 57.4336C8.53688 57.4336 9.375 58.2717 9.375 59.3086V66.5592C9.375 67.5961 8.53688 68.4342 7.5 68.4342Z" fill="#3F6982"/>
<path d="M33.75 68.4336C32.7131 68.4336 31.875 67.5955 31.875 66.5586V58.1211C31.875 57.0842 32.7131 56.2461 33.75 56.2461C34.7869 56.2461 35.625 57.0842 35.625 58.1211V66.5586C35.625 67.5955 34.7869 68.4336 33.75 68.4336Z" fill="#3F6982"/>
<path d="M33.75 59.9961C32.7131 59.9961 31.875 59.158 31.875 58.1211C31.875 51.4011 26.4075 45.9336 19.6856 45.9336C12.9656 45.9336 7.5 51.4011 7.5 58.1211C7.5 59.158 6.66187 59.9961 5.625 59.9961C4.58812 59.9961 3.75 59.158 3.75 58.1211C3.75 49.333 10.8994 42.1836 19.6856 42.1836C28.4756 42.1836 35.625 49.333 35.625 58.1211C35.625 59.158 34.7869 59.9961 33.75 59.9961Z" fill="#3F6982"/>
<path d="M33.7511 62.5672C33.1867 62.5672 32.6299 62.3141 32.2605 61.8322C28.638 57.1016 27.6555 57.4953 23.9842 58.9484C20.4611 60.3434 15.1436 62.4547 5.33174 60.9022C4.30987 60.7409 3.61049 59.7809 3.77362 58.7572C3.93487 57.7353 4.89862 57.0359 5.91862 57.1991C14.718 58.5903 19.2761 56.7809 22.6042 55.4609C27.1211 53.6722 30.1511 52.9072 35.238 59.5503C35.868 60.3716 35.7124 61.5491 34.8892 62.1791C34.5499 62.4416 34.1486 62.5672 33.7511 62.5672Z" fill="#3F6982"/>
<path d="M26.2471 58.0784C25.9714 58.0784 25.6883 58.0165 25.4239 57.8852C24.4939 57.4296 24.1114 56.3046 24.5671 55.3765L28.3171 47.7415C28.7727 46.8096 29.8958 46.4271 30.8258 46.8846C31.7558 47.3402 32.1383 48.4652 31.6827 49.3934L27.9327 57.0284C27.6064 57.694 26.9389 58.0784 26.2471 58.0784Z" fill="#3F6982"/>
<path d="M3.75 90.9268C2.71312 90.9268 1.875 90.0886 1.875 89.0518C1.875 84.9155 5.23875 81.5518 9.375 81.5518C10.4119 81.5518 11.25 82.3899 11.25 83.4268C11.25 84.4636 10.4119 85.3018 9.375 85.3018C7.30688 85.3018 5.625 86.9836 5.625 89.0518C5.625 90.0886 4.78688 90.9268 3.75 90.9268Z" fill="#3F6982"/>
<path d="M15 85.3125H9.375C8.33813 85.3125 7.5 84.4744 7.5 83.4375C7.5 82.4006 8.33813 81.5625 9.375 81.5625H15C16.0369 81.5625 16.875 82.4006 16.875 83.4375C16.875 84.4744 16.0369 85.3125 15 85.3125Z" fill="#3F6982"/>
<path d="M3.75 98.4343C2.71312 98.4343 1.875 97.5961 1.875 96.5593V89.0518C1.875 88.0149 2.71312 87.1768 3.75 87.1768C4.78687 87.1768 5.625 88.0149 5.625 89.0518V96.5593C5.625 97.5961 4.78687 98.4343 3.75 98.4343Z" fill="#3F6982"/>
<path d="M37.5 90.9268C36.4631 90.9268 35.625 90.0886 35.625 89.0518C35.625 86.9836 33.9431 85.3018 31.875 85.3018C30.8381 85.3018 30 84.4636 30 83.4268C30 82.3899 30.8381 81.5518 31.875 81.5518C36.0112 81.5518 39.375 84.9155 39.375 89.0518C39.375 90.0886 38.5369 90.9268 37.5 90.9268Z" fill="#3F6982"/>
<path d="M31.875 85.3125H26.25C25.2131 85.3125 24.375 84.4744 24.375 83.4375C24.375 82.4006 25.2131 81.5625 26.25 81.5625H31.875C32.9119 81.5625 33.75 82.4006 33.75 83.4375C33.75 84.4744 32.9119 85.3125 31.875 85.3125Z" fill="#3F6982"/>
<path d="M37.5 98.4343C36.4631 98.4343 35.625 97.5961 35.625 96.5593V89.0518C35.625 88.0149 36.4631 87.1768 37.5 87.1768C38.5369 87.1768 39.375 88.0149 39.375 89.0518V96.5593C39.375 97.5961 38.5369 98.4343 37.5 98.4343Z" fill="#3F6982"/>
<path d="M15 85.3128C13.9631 85.3128 13.125 84.4746 13.125 83.4378V78.4053C13.125 77.3684 13.9631 76.5303 15 76.5303C16.0369 76.5303 16.875 77.3684 16.875 78.4053V83.4378C16.875 84.4746 16.0369 85.3128 15 85.3128Z" fill="#3F6982"/>
<path d="M26.25 85.3015C25.2131 85.3015 24.375 84.4634 24.375 83.4265V78.4053C24.375 77.3684 25.2131 76.5303 26.25 76.5303C27.2869 76.5303 28.125 77.3684 28.125 78.4053V83.4265C28.125 84.4634 27.2869 85.3015 26.25 85.3015Z" fill="#3F6982"/>
<path d="M20.625 81.5443C12.3544 81.5443 5.625 74.8186 5.625 66.5518C5.625 65.5149 6.46312 64.6768 7.5 64.6768C8.53687 64.6768 9.375 65.5149 9.375 66.5518C9.375 72.7524 14.4206 77.7943 20.625 77.7943C26.8294 77.7943 31.875 72.7524 31.875 66.5518C31.875 65.5149 32.7131 64.6768 33.75 64.6768C34.7869 64.6768 35.625 65.5149 35.625 66.5518C35.625 74.8186 28.8956 81.5443 20.625 81.5443Z" fill="#3F6982"/>
<path d="M86.2461 68.4342C85.2092 68.4342 84.3711 67.5961 84.3711 66.5593V51.5518C84.3711 50.5149 85.2092 49.6768 86.2461 49.6768C87.283 49.6768 88.1211 50.5149 88.1211 51.5518V66.5593C88.1211 67.5961 87.283 68.4342 86.2461 68.4342Z" fill="#3F6982"/>
<path d="M112.496 68.4342C111.459 68.4342 110.621 67.596 110.621 66.5591V66.0098C110.621 64.9729 111.459 64.1348 112.496 64.1348C113.533 64.1348 114.371 64.9729 114.371 66.0098V66.5591C114.371 67.596 113.533 68.4342 112.496 68.4342Z" fill="#3F6982"/>
<path d="M82.4961 90.9268C81.4592 90.9268 80.6211 90.0886 80.6211 89.0518C80.6211 84.9155 83.9848 81.5518 88.1211 81.5518C89.158 81.5518 89.9961 82.3899 89.9961 83.4268C89.9961 84.4636 89.158 85.3018 88.1211 85.3018C86.053 85.3018 84.3711 86.9836 84.3711 89.0518C84.3711 90.0886 83.533 90.9268 82.4961 90.9268Z" fill="#3F6982"/>
<path d="M93.7461 85.3125H88.1211C87.0842 85.3125 86.2461 84.4744 86.2461 83.4375C86.2461 82.4006 87.0842 81.5625 88.1211 81.5625H93.7461C94.783 81.5625 95.6211 82.4006 95.6211 83.4375C95.6211 84.4744 94.783 85.3125 93.7461 85.3125Z" fill="#3F6982"/>
<path d="M82.4961 98.4343C81.4592 98.4343 80.6211 97.5961 80.6211 96.5593V89.0518C80.6211 88.0149 81.4592 87.1768 82.4961 87.1768C83.533 87.1768 84.3711 88.0149 84.3711 89.0518V96.5593C84.3711 97.5961 83.533 98.4343 82.4961 98.4343Z" fill="#3F6982"/>
<path d="M116.246 90.9268C115.209 90.9268 114.371 90.0886 114.371 89.0518C114.371 86.9836 112.689 85.3018 110.621 85.3018C109.584 85.3018 108.746 84.4636 108.746 83.4268C108.746 82.3899 109.584 81.5518 110.621 81.5518C114.757 81.5518 118.121 84.9155 118.121 89.0518C118.121 90.0886 117.283 90.9268 116.246 90.9268Z" fill="#3F6982"/>
<path d="M110.621 85.3125H104.996C103.959 85.3125 103.121 84.4744 103.121 83.4375C103.121 82.4006 103.959 81.5625 104.996 81.5625H110.621C111.658 81.5625 112.496 82.4006 112.496 83.4375C112.496 84.4744 111.658 85.3125 110.621 85.3125Z" fill="#3F6982"/>
<path d="M116.246 98.4343C115.209 98.4343 114.371 97.5961 114.371 96.5593V89.0518C114.371 88.0149 115.209 87.1768 116.246 87.1768C117.283 87.1768 118.121 88.0149 118.121 89.0518V96.5593C118.121 97.5961 117.283 98.4343 116.246 98.4343Z" fill="#3F6982"/>
<path d="M93.7461 85.3128C92.7092 85.3128 91.8711 84.4746 91.8711 83.4378V78.4053C91.8711 77.3684 92.7092 76.5303 93.7461 76.5303C94.783 76.5303 95.6211 77.3684 95.6211 78.4053V83.4378C95.6211 84.4746 94.783 85.3128 93.7461 85.3128Z" fill="#3F6982"/>
<path d="M104.996 85.3015C103.959 85.3015 103.121 84.4634 103.121 83.4265V78.4053C103.121 77.3684 103.959 76.5303 104.996 76.5303C106.033 76.5303 106.871 77.3684 106.871 78.4053V83.4265C106.871 84.4634 106.033 85.3015 104.996 85.3015Z" fill="#3F6982"/>
<path d="M99.3711 81.5443C91.1005 81.5443 84.3711 74.8186 84.3711 66.5518C84.3711 65.5149 85.2092 64.6768 86.2461 64.6768C87.283 64.6768 88.1211 65.5149 88.1211 66.5518C88.1211 72.7524 93.1667 77.7943 99.3711 77.7943C105.575 77.7943 110.621 72.7524 110.621 66.5518C110.621 65.5149 111.459 64.6768 112.496 64.6768C113.533 64.6768 114.371 65.5149 114.371 66.5518C114.371 74.8186 107.642 81.5443 99.3711 81.5443Z" fill="#3F6982"/>
<path d="M37.5 111.559C36.4631 111.559 35.625 110.72 35.625 109.684C35.625 103.479 40.6706 98.4336 46.875 98.4336C47.9119 98.4336 48.75 99.2717 48.75 100.309C48.75 101.345 47.9119 102.184 46.875 102.184C42.7387 102.184 39.375 105.547 39.375 109.684C39.375 110.72 38.5369 111.559 37.5 111.559Z" fill="#3F6982"/>
<path d="M52.5 102.184H46.875C45.8381 102.184 45 101.345 45 100.309C45 99.2717 45.8381 98.4336 46.875 98.4336H52.5C53.5369 98.4336 54.375 99.2717 54.375 100.309C54.375 101.345 53.5369 102.184 52.5 102.184Z" fill="#3F6982"/>
<path d="M37.5 119.059C36.4631 119.059 35.625 118.22 35.625 117.184V109.684C35.625 108.647 36.4631 107.809 37.5 107.809C38.5369 107.809 39.375 108.647 39.375 109.684V117.184C39.375 118.22 38.5369 119.059 37.5 119.059Z" fill="#3F6982"/>
<path d="M82.5 111.559C81.4631 111.559 80.625 110.72 80.625 109.684C80.625 105.547 77.2613 102.184 73.125 102.184C72.0881 102.184 71.25 101.345 71.25 100.309C71.25 99.2717 72.0881 98.4336 73.125 98.4336C79.3294 98.4336 84.375 103.479 84.375 109.684C84.375 110.72 83.5369 111.559 82.5 111.559Z" fill="#3F6982"/>
<path d="M73.125 102.184H67.5C66.4631 102.184 65.625 101.345 65.625 100.309C65.625 99.2717 66.4631 98.4336 67.5 98.4336H73.125C74.1619 98.4336 75 99.2717 75 100.309C75 101.345 74.1619 102.184 73.125 102.184Z" fill="#3F6982"/>
<path d="M82.5 119.059C81.4631 119.059 80.625 118.22 80.625 117.184V109.684C80.625 108.647 81.4631 107.809 82.5 107.809C83.5369 107.809 84.375 108.647 84.375 109.684V117.184C84.375 118.22 83.5369 119.059 82.5 119.059Z" fill="#3F6982"/>
<path d="M52.5 102.184C51.4631 102.184 50.625 101.346 50.625 100.309V92.9287C50.625 91.8918 51.4631 91.0537 52.5 91.0537C53.5369 91.0537 54.375 91.8918 54.375 92.9287V100.309C54.375 101.346 53.5369 102.184 52.5 102.184Z" fill="#3F6982"/>
<path d="M67.5 102.184C66.4631 102.184 65.625 101.346 65.625 100.309V92.9287C65.625 91.8918 66.4631 91.0537 67.5 91.0537C68.5369 91.0537 69.375 91.8918 69.375 92.9287V100.309C69.375 101.346 68.5369 102.184 67.5 102.184Z" fill="#3F6982"/>
<path d="M59.9981 96.5587C49.6594 96.5587 41.25 88.1494 41.25 77.8125C41.25 76.7756 42.0881 75.9375 43.125 75.9375C44.1619 75.9375 45 76.7756 45 77.8125C45 86.0812 51.7275 92.8087 59.9981 92.8087C68.2706 92.8087 75 86.0812 75 77.8125C75 76.7756 75.8381 75.9375 76.875 75.9375C77.9119 75.9375 78.75 76.7756 78.75 77.8125C78.75 88.1494 70.3388 96.5587 59.9981 96.5587Z" fill="#3F6982"/>
<path d="M43.125 79.7792C42.0881 79.7792 41.25 78.9411 41.25 77.9042V66.5586C41.25 65.5217 42.0881 64.6836 43.125 64.6836C44.1619 64.6836 45 65.5217 45 66.5586V77.9042C45 78.9411 44.1619 79.7792 43.125 79.7792Z" fill="#3F6982"/>
<path d="M76.875 79.6873C75.8381 79.6873 75 78.8492 75 77.8123V66.5586C75 65.5217 75.8381 64.6836 76.875 64.6836C77.9119 64.6836 78.75 65.5217 78.75 66.5586V77.8123C78.75 78.8492 77.9119 79.6873 76.875 79.6873Z" fill="#3F6982"/>
<path d="M76.875 68.4336C75.8381 68.4336 75 67.5955 75 66.5586C75 63.4573 72.4763 60.9336 69.375 60.9336C68.3381 60.9336 67.5 60.0955 67.5 59.0586C67.5 58.0217 68.3381 57.1836 69.375 57.1836C74.5444 57.1836 78.75 61.3892 78.75 66.5586C78.75 67.5955 77.9119 68.4336 76.875 68.4336Z" fill="#3F6982"/>
<path d="M69.375 60.9336C68.3381 60.9336 67.5 60.0955 67.5 59.0586V51.5586C67.5 50.5217 68.3381 49.6836 69.375 49.6836C70.4119 49.6836 71.25 50.5217 71.25 51.5586V59.0586C71.25 60.0955 70.4119 60.9336 69.375 60.9336Z" fill="#3F6982"/>
<path d="M69.375 53.46H58.125C57.0881 53.46 56.25 52.6218 56.25 51.585C56.25 50.5481 57.0881 49.71 58.125 49.71H69.375C70.4119 49.71 71.25 50.5481 71.25 51.585C71.25 52.6218 70.4119 53.46 69.375 53.46Z" fill="#3F6982"/>
<path d="M43.125 68.4336C42.0881 68.4336 41.25 67.5955 41.25 66.5586C41.25 57.253 48.8194 49.6836 58.125 49.6836C59.1619 49.6836 60 50.5217 60 51.5586C60 52.5955 59.1619 53.4336 58.125 53.4336C50.8894 53.4336 45 59.323 45 66.5586C45 67.5955 44.1619 68.4336 43.125 68.4336Z" fill="#3F6982"/>
<path d="M76.8685 74.1059C76.5086 74.1059 76.1429 74.0009 75.8204 73.7853L70.1954 69.9884C69.3367 69.4072 69.1117 68.2428 69.6892 67.384C70.2704 66.5253 71.4348 66.3022 72.2935 66.8778L77.9185 70.6747C78.7773 71.2559 79.0023 72.4203 78.4248 73.279C78.0629 73.8172 77.4704 74.1059 76.8685 74.1059Z" fill="#3F6982"/>
<path d="M60.935 72.1838C54.1625 72.1838 48.3969 70.2937 48.1569 70.2131C47.1762 69.885 46.6437 68.8256 46.9681 67.8431C47.2944 66.8625 48.3556 66.3281 49.3381 66.6525C49.3925 66.6712 54.7906 68.4319 60.9369 68.4319C66.8956 68.4319 70.3869 66.7669 70.4225 66.75C71.3469 66.3019 72.4737 66.6787 72.9294 67.6069C73.385 68.5331 73.01 69.6506 72.0875 70.1119C71.9131 70.1963 67.8462 72.1838 60.935 72.1838Z" fill="#3F6982"/>
<path d="M43.1232 74.1068C42.5213 74.1068 41.9288 73.8181 41.5669 73.2818C40.9876 72.4231 41.2145 71.2587 42.0732 70.6775L47.6982 66.8806C48.5588 66.3031 49.7232 66.5281 50.3026 67.3868C50.8819 68.2456 50.6551 69.41 49.7963 69.9912L44.1713 73.7881C43.8488 74.0037 43.4832 74.1068 43.1232 74.1068Z" fill="#3F6982"/>
<path d="M116.246 59.0518C115.209 59.0518 114.371 58.2136 114.371 57.1768C114.371 49.9411 108.482 44.0518 101.246 44.0518C97.9049 44.0518 94.9424 45.8668 93.0449 47.3893C92.2368 48.038 91.0574 47.9068 90.4087 47.1005C89.7599 46.2924 89.8912 45.1111 90.6974 44.4643C94.0912 41.7418 97.738 40.3018 101.246 40.3018C110.552 40.3018 118.121 47.8711 118.121 57.1768C118.121 58.2136 117.283 59.0518 116.246 59.0518Z" fill="#3F6982"/>
<path d="M116.246 77.8018C115.209 77.8018 114.371 76.9636 114.371 75.9268C114.371 68.6911 108.482 62.8018 101.246 62.8018C100.209 62.8018 99.3711 61.9636 99.3711 60.9268C99.3711 59.8899 100.209 59.0518 101.246 59.0518C110.552 59.0518 118.121 66.6211 118.121 75.9268C118.121 76.9636 117.283 77.8018 116.246 77.8018Z" fill="#3F6982"/>
<path d="M86.2461 62.8018C85.2092 62.8018 84.3711 61.9636 84.3711 60.9268C84.3711 59.8899 85.2092 59.0518 86.2461 59.0518C88.3142 59.0518 89.9961 57.3699 89.9961 55.3018C89.9961 54.2649 90.8342 53.4268 91.8711 53.4268C92.908 53.4268 93.7461 54.2649 93.7461 55.3018C93.7461 59.438 90.3823 62.8018 86.2461 62.8018Z" fill="#3F6982"/>
<path d="M86.2461 53.4531C85.2092 53.4531 84.3711 52.615 84.3711 51.5781C84.3711 47.4419 87.7348 44.0781 91.8711 44.0781C92.908 44.0781 93.7461 44.9163 93.7461 45.9531C93.7461 46.99 92.908 47.8281 91.8711 47.8281C89.803 47.8281 88.1211 49.51 88.1211 51.5781C88.1211 52.615 87.283 53.4531 86.2461 53.4531Z" fill="#3F6982"/>
<path d="M97.4961 62.8018C93.3598 62.8018 89.9961 59.438 89.9961 55.3018C89.9961 54.2649 90.8342 53.4268 91.8711 53.4268C92.908 53.4268 93.7461 54.2649 93.7461 55.3018C93.7461 57.3699 95.428 59.0518 97.4961 59.0518C98.533 59.0518 99.3711 59.8899 99.3711 60.9268C99.3711 61.9636 98.533 62.8018 97.4961 62.8018Z" fill="#3F6982"/>
<path d="M91.8711 57.1767C90.8342 57.1767 89.9961 56.3386 89.9961 55.3017V45.9268C89.9961 44.8899 90.8342 44.0518 91.8711 44.0518C92.908 44.0518 93.7461 44.8899 93.7461 45.9268V55.3017C93.7461 56.3386 92.908 57.1767 91.8711 57.1767Z" fill="#3F6982"/>
<path d="M116.246 77.8017C115.209 77.8017 114.371 76.9636 114.371 75.9267V57.1768C114.371 56.1399 115.209 55.3018 116.246 55.3018C117.283 55.3018 118.121 56.1399 118.121 57.1768V75.9267C118.121 76.9636 117.283 77.8017 116.246 77.8017Z" fill="#3F6982"/>
<path d="M101.246 62.8018H97.4961C96.4592 62.8018 95.6211 61.9636 95.6211 60.9268C95.6211 59.8899 96.4592 59.0518 97.4961 59.0518H101.246C102.283 59.0518 103.121 59.8899 103.121 60.9268C103.121 61.9636 102.283 62.8018 101.246 62.8018Z" fill="#3F6982"/>
<path d="M5.625 60.9261C4.58812 60.9261 3.75 60.088 3.75 59.0511V58.1211C3.75 57.0842 4.58812 56.2461 5.625 56.2461C6.66187 56.2461 7.5 57.0842 7.5 58.1211V59.0511C7.5 60.088 6.66187 60.9261 5.625 60.9261Z" fill="#3F6982"/>
<path d="M56.2477 104.048C55.9684 104.048 55.6834 103.986 55.4152 103.853L51.6652 101.989C50.739 101.528 50.3602 100.403 50.8215 99.4745C51.2827 98.5483 52.404 98.1658 53.3359 98.6308L57.0859 100.494C58.0121 100.956 58.3909 102.081 57.9296 103.009C57.6015 103.667 56.9377 104.048 56.2477 104.048Z" fill="#3F6982"/>
<path d="M56.2492 104.048C55.561 104.048 54.8973 103.667 54.5692 103.009C54.106 102.083 54.4829 100.956 55.4092 100.494L59.1592 98.6232C60.091 98.1563 61.2142 98.5388 61.6735 99.4632C62.1367 100.389 61.7598 101.516 60.8335 101.978L57.0835 103.849C56.8154 103.986 56.5285 104.048 56.2492 104.048Z" fill="#3F6982"/>
<path d="M63.7515 104.048C63.0615 104.048 62.3977 103.667 62.0715 103.007C61.6102 102.079 61.989 100.954 62.9152 100.493L66.6652 98.6288C67.5971 98.1638 68.7184 98.5463 69.1796 99.4725C69.6409 100.401 69.2621 101.526 68.3359 101.987L64.5859 103.851C64.3159 103.986 64.0309 104.048 63.7515 104.048Z" fill="#3F6982"/>
<path d="M63.7475 104.048C63.4681 104.048 63.1812 103.986 62.9131 103.851L59.1631 101.98C58.2368 101.518 57.8599 100.391 58.3231 99.4652C58.7843 98.5408 59.9093 98.1583 60.8374 98.6252L64.5875 100.496C65.5137 100.958 65.8906 102.085 65.4275 103.011C65.0993 103.667 64.4356 104.048 63.7475 104.048Z" fill="#3F6982"/>
<path d="M99.3734 89.0479C99.019 89.0479 98.6571 88.9467 98.3384 88.7348L92.7096 84.9998C91.8471 84.4279 91.6108 83.2635 92.1846 82.401C92.7565 81.5404 93.919 81.2967 94.7833 81.876L100.412 85.6111C101.275 86.1829 101.511 87.3473 100.937 88.2098C100.577 88.7535 99.9809 89.0479 99.3734 89.0479Z" fill="#3F6982"/>
<path d="M99.3694 89.0479C98.7619 89.0479 98.1657 88.7535 97.8057 88.2098C97.2319 87.3473 97.4682 86.1829 98.3307 85.6111L103.959 81.876C104.822 81.2967 105.986 81.5404 106.558 82.401C107.132 83.2635 106.896 84.4279 106.033 84.9998L100.404 88.7348C100.086 88.9467 99.7257 89.0479 99.3694 89.0479Z" fill="#3F6982"/>
<path d="M20.6231 89.0557C16.4194 89.0557 13.125 86.5863 13.125 83.4307C13.125 82.3938 13.9631 81.5557 15 81.5557C16.0369 81.5557 16.875 82.3938 16.875 83.4307C16.875 84.1957 18.3338 85.3057 20.6231 85.3057C22.9125 85.3057 24.3731 84.1957 24.3731 83.4307C24.3731 82.3938 25.2113 81.5557 26.2481 81.5557C27.285 81.5557 28.1231 82.3938 28.1231 83.4307C28.1231 86.5863 24.8288 89.0557 20.6231 89.0557Z" fill="#3F6982"/>
<path d="M49 23.0006C45.5 14.0006 49 6.50061 59.5028 8.00062C56.5 4.00061 48.4017 2.40062 42.0017 6.00062C35.6017 9.60062 37.0017 17.8339 38.5017 21.5006L60.5017 42.5006C60.1996 41.8963 68.8402 37.2541 68 34.0006C66.9879 30.0813 63 28.0006 63 28.0006L65.5 25.5006V20.5006L61 18.0006L56.5 18.5006L54.5 23.0006L56.5 28.0006L53.8077 32.0006C51.9487 29.0764 50.156 25.9731 49 23.0006Z" fill="#EDF6F9"/>
<path d="M60.0019 45.8421C59.5219 45.8421 59.0419 45.6584 58.6762 45.2927L40.0331 26.6534C37.1906 23.8127 35.625 20.0346 35.625 16.0127C35.625 11.9909 37.1906 8.21086 40.0331 5.36836C42.8775 2.51648 46.6594 0.945234 50.6812 0.945234C54.1069 0.945234 57.36 2.08336 60.0056 4.18711C62.6531 2.08336 65.9081 0.943359 69.3412 0.943359C73.3556 0.943359 77.13 2.50336 79.9744 5.34024C85.7944 11.1996 85.8262 20.6834 80.0775 26.5521C80.0437 26.5896 80.0119 26.6252 79.9762 26.6609L61.3312 45.2965C60.9619 45.6602 60.4819 45.8421 60.0019 45.8421ZM50.6794 4.69524C47.6625 4.69524 44.8237 5.87461 42.6844 8.01774C40.5506 10.1552 39.375 12.994 39.375 16.0127C39.375 19.0315 40.5506 21.8684 42.6844 24.0021L60.0019 41.3159L77.1825 24.1427C77.2537 24.0565 77.3306 23.9777 77.4131 23.9046C81.7162 19.4927 81.6825 12.3809 77.3156 7.98774C75.1875 5.86336 72.3525 4.69149 69.3375 4.69149C66.3131 4.69149 63.4706 5.87274 61.335 8.01586C60.6319 8.72274 59.3756 8.72461 58.6725 8.01774C56.5369 5.87461 53.6981 4.69524 50.6794 4.69524Z" fill="#1BA4CE"/>
<path d="M68.8025 37.0502C68.0375 37.0502 67.3193 36.5795 67.0418 35.8202C65.9656 32.8745 63.1325 30.8945 59.9975 30.8945C56.8662 30.8945 54.0368 32.8708 52.955 35.8089C52.5987 36.7839 51.5187 37.2808 50.5475 36.9208C49.5762 36.5645 49.0793 35.4845 49.4356 34.5133C51.0575 30.1052 55.3025 27.1445 59.9975 27.1445C64.7018 27.1445 68.9468 30.1127 70.565 34.5302C70.9193 35.5033 70.4206 36.5795 69.4475 36.9358C69.2356 37.0127 69.0181 37.0502 68.8025 37.0502Z" fill="#1BA4CE"/>
<path d="M60 30.8984C55.8637 30.8984 52.5 27.5347 52.5 23.3984C52.5 19.2622 55.8637 15.8984 60 15.8984C64.1363 15.8984 67.5 19.2622 67.5 23.3984C67.5 27.5347 64.1363 30.8984 60 30.8984ZM60 19.6484C57.9319 19.6484 56.25 21.3303 56.25 23.3984C56.25 25.4666 57.9319 27.1484 60 27.1484C62.0681 27.1484 63.75 25.4666 63.75 23.3984C63.75 21.3303 62.0681 19.6484 60 19.6484Z" fill="#1BA4CE"/>
</svg>
