<svg width="173" height="58" viewBox="0 0 173 58" fill="none" xmlns="http://www.w3.org/2000/svg">
<g clip-path="url(#clip0)">
<path d="M52.7394 8.93335H48.6108H43.55H28.3675C25.8371 8.93335 23.7063 10.5334 22.774 12.8L13.3183 38.8C12.5192 41.0667 10.2551 42.6667 7.85791 42.6667H11.9865H16.3814H32.3629C34.8933 42.6667 37.0242 41.0667 37.9564 38.8L47.4122 12.8C48.0781 10.4 50.3421 8.93335 52.7394 8.93335Z" fill="#D5AE75"/>
<path d="M21.0423 12.1333C22.1078 9.06667 25.0377 7.06667 28.3672 7.06667H30.7644L32.2294 3.2C32.8953 1.2 34.7598 0 36.7575 0H33.2948H29.1663H16.7806C14.7829 0 12.9184 1.2 12.2525 3.2L4.5281 24.5333C3.8622 26.4 1.99769 27.7333 0 27.7333H3.32948H6.92533H15.4488L21.0423 12.1333Z" fill="#E6D4B6"/>
<path d="M59.5312 20.5333H60.1971C60.7298 20.5333 61.1293 20.6667 61.5288 20.8C61.9284 20.9333 62.3279 21.2 62.5943 21.4667C62.8606 21.7333 63.127 22 63.2602 22.4C63.3934 22.8 63.5265 23.2 63.5265 23.7333C63.5265 24.2667 63.3934 24.6667 63.2602 25.0667C63.127 25.4667 62.8606 25.7333 62.4611 26C62.1947 26.2667 61.7952 26.5333 61.3957 26.6667C60.9961 26.8 60.5966 26.9333 60.0639 26.9333H59.398V28H57.5335V26.9333H56.8676C56.3349 26.9333 55.9353 26.8 55.5358 26.6667C55.1362 26.5333 54.7367 26.2667 54.4703 26C54.204 25.7333 53.9376 25.4667 53.8044 25.0667C53.6713 24.6667 53.5381 24.2667 53.5381 23.7333C53.5381 23.2 53.6713 22.8 53.8044 22.4C53.9376 22 54.204 21.7333 54.6035 21.4667C54.8699 21.2 55.2694 20.9333 55.669 20.8C56.0685 20.6667 56.468 20.5333 57.0007 20.5333H57.6666V19.4667H59.5312V20.5333ZM57.0007 22.1333C56.468 22.1333 56.0685 22.2667 55.8021 22.5333C55.5358 22.8 55.4026 23.2 55.4026 23.7333C55.4026 24.2667 55.5358 24.5333 55.8021 24.8C56.0685 25.0667 56.468 25.2 57.0007 25.2H57.6666V22.1333H57.0007ZM60.1971 25.3333C60.7298 25.3333 61.1293 25.2 61.3957 24.9333C61.662 24.6667 61.7952 24.2667 61.7952 23.7333C61.7952 23.2 61.662 22.9333 61.3957 22.6667C61.1293 22.4 60.7298 22.2667 60.1971 22.2667H59.5312V25.3333H60.1971Z" fill="white"/>
<path d="M71.3842 19.7333C71.9169 20 72.4496 20.2667 72.716 20.6667C73.1155 21.0667 73.3819 21.4667 73.6482 22C73.9146 22.5333 73.9146 23.0667 73.9146 23.7333C73.9146 24.2667 73.7814 24.9333 73.6482 25.4667C73.3819 26 73.1155 26.4 72.716 26.8C72.3164 27.2 71.9169 27.4667 71.3842 27.7333C70.8515 28 70.1856 28.1333 69.6529 28.1333C68.987 28.1333 68.4542 28 67.9215 27.8667C67.3888 27.6 66.8561 27.3333 66.5897 26.9333C66.1902 26.5333 65.9238 26.1333 65.6575 25.6C65.3911 25.0667 65.3911 24.5333 65.3911 23.8667C65.3911 23.3333 65.5243 22.6667 65.6575 22.1333C65.9238 21.6 66.1902 21.2 66.5897 20.8C66.9893 20.4 67.3888 20.1333 67.9215 19.8667C68.4542 19.6 68.987 19.4667 69.6529 19.4667C70.3187 19.4667 70.8515 19.6 71.3842 19.7333ZM68.5874 21.3333C68.3211 21.4667 68.0547 21.6 67.7883 21.8667C67.522 22.1333 67.3888 22.4 67.2556 22.6667C67.1224 22.9333 67.1224 23.3333 67.1224 23.7333C67.1224 24.1333 67.1224 24.4 67.2556 24.8C67.3888 25.0667 67.522 25.4667 67.7883 25.6C68.0547 25.8667 68.3211 26 68.5874 26.1333C68.8538 26.2667 69.2533 26.4 69.6529 26.4C70.0524 26.4 70.4519 26.2667 70.7183 26.1333C70.9846 26 71.251 25.8667 71.5174 25.6C71.7837 25.3333 71.9169 25.0667 72.0501 24.8C72.1833 24.5333 72.1833 24.1333 72.1833 23.7333C72.1833 23.3333 72.1833 22.9333 72.0501 22.6667C71.9169 22.4 71.7837 22 71.5174 21.8667C71.251 21.6 70.9846 21.4667 70.7183 21.3333C70.4519 21.2 70.0524 21.2 69.6529 21.2C69.2533 21.0667 68.8538 21.2 68.5874 21.3333Z" fill="white"/>
<path d="M77.7771 22.9333H81.373V19.7333H83.2375V28H81.373V24.6667H77.7771V28H75.9126V19.7333H77.7771V22.9333Z" fill="white"/>
<path d="M93.2254 26.2667H94.424V26.8L94.2908 29.7333H92.5595V28H86.966L86.8328 29.7333H85.1014L84.9683 26.8V26.2667H85.3678C85.501 26.2667 85.7673 26.2667 85.9005 26.1333C86.0337 26 86.1669 25.8667 86.3001 25.6C86.5664 25.0667 86.6996 24.4 86.8328 23.7333C86.9659 22.9333 86.966 22.1333 86.966 21.0667V19.7333H93.2254V26.2667ZM88.5641 24.2667C88.4309 25.0667 88.2977 25.7333 88.0314 26.2667H91.3609V21.3333H88.8305C88.8305 22.5333 88.6973 23.4667 88.5641 24.2667Z" fill="white"/>
<path d="M61.2625 42.8H59.398V36.2667H55.9353V42.8H54.0708V34.5333H61.2625V42.8Z" fill="white"/>
<path d="M68.5873 34.8C68.9868 34.9333 69.3864 35.2 69.6527 35.4667C69.9191 35.7333 70.1855 36 70.3186 36.4C70.4518 36.8 70.585 37.2 70.585 37.6C70.585 38.1333 70.4518 38.5333 70.3186 38.9333C70.1855 39.3333 69.9191 39.6 69.6527 39.8667C69.3864 40.1333 68.9868 40.2667 68.5873 40.4C68.1878 40.5333 67.6551 40.6667 67.2555 40.6667H65.5242V42.9333H63.6597V34.6667H67.3887C67.7882 34.5333 68.1878 34.6667 68.5873 34.8ZM67.1223 38.9333C67.6551 38.9333 68.0546 38.8 68.321 38.5333C68.5873 38.2667 68.7205 38 68.7205 37.4667C68.7205 37.0667 68.5873 36.6667 68.321 36.5333C68.0546 36.2667 67.6551 36.1333 67.1223 36.1333H65.391V38.8H67.1223V38.9333Z" fill="white"/>
<path d="M78.5758 36.2667H74.1809V37.8667H78.0431V39.4667H74.1809V41.2H78.709V42.9334H72.3164V34.6667H78.5758V36.2667Z" fill="white"/>
<path d="M84.968 37.6C85.1012 37.4667 85.2344 37.2 85.2344 37.0667C85.2344 36.8 85.1012 36.5333 84.968 36.4C84.7017 36.1333 84.3021 36 83.9026 36C83.1035 36 82.4376 36.2667 81.7717 36.8L80.8395 35.4667C81.239 35.0667 81.7717 34.8 82.3044 34.5333C82.8372 34.4 83.3699 34.2667 84.0358 34.2667C84.5685 34.2667 84.968 34.2667 85.3676 34.4C85.7671 34.5333 86.0335 34.6667 86.2998 34.9333C86.5662 35.2 86.8325 35.3333 86.9657 35.7333C87.0989 36 87.2321 36.4 87.2321 36.6667C87.2321 37.0667 87.0989 37.3333 86.9657 37.6C86.8325 37.8667 86.5662 38.1333 86.2998 38.2667V38.4C86.6994 38.5333 86.9657 38.8 87.2321 39.0667C87.4984 39.3333 87.6316 39.7333 87.6316 40.2667C87.6316 40.6667 87.4984 41.0667 87.3653 41.3333C87.2321 41.6 86.9657 42 86.6994 42.1333C86.433 42.4 86.0335 42.5333 85.6339 42.6667C85.2344 42.8 84.7017 42.9333 84.0358 42.9333C83.6362 42.9333 83.3699 42.9333 82.9703 42.8C82.704 42.8 82.3044 42.6667 82.0381 42.5333C81.7717 42.4 81.5054 42.2667 81.239 42.1333C80.9727 42 80.7063 41.7333 80.4399 41.6L81.3722 40.2667C81.7717 40.6667 82.1713 40.8 82.704 40.9333C83.1035 41.0667 83.6362 41.2 84.169 41.2C84.7017 41.2 85.1012 41.0667 85.3676 40.9333C85.6339 40.6667 85.7671 40.4 85.7671 40.1333C85.7671 39.6 85.3676 39.2 84.7017 39.2H82.5708V37.6H84.4353C84.5685 37.7333 84.8349 37.7333 84.968 37.6Z" fill="white"/>
<path d="M91.2282 40.1333L95.2235 34.5333H96.8217V42.8H94.9572V37.6L91.095 42.8H89.2305V34.5333H91.095V40.1333H91.2282Z" fill="white"/>
<path d="M106.81 41.2H108.008V41.7334L107.875 44.6667H106.144L106.011 42.9334H100.417L100.284 44.6667H98.5527V41.7334V41.2H98.9523C99.0855 41.2 99.3518 41.2 99.485 41.0667C99.6182 40.9334 99.7513 40.8 99.8845 40.5334C100.151 40 100.284 39.3334 100.417 38.6667C100.55 37.8667 100.55 37.0667 100.55 36V34.6667H106.81V41.2ZM102.149 39.2C102.015 40 101.882 40.6667 101.616 41.2H104.945V36.2667H102.415C102.282 37.3334 102.282 38.4 102.149 39.2Z" fill="white"/>
<path d="M115.999 36.2667H111.604V37.8667H115.466V39.4667H111.604V41.2H116.132V42.9334H109.74V34.6667H115.999V36.2667Z" fill="white"/>
<path d="M119.994 37.7333H123.59V34.5333H125.455V42.8H123.59V39.4667H119.994V42.8H118.13V34.5333H119.994V37.7333Z" fill="white"/>
<path d="M134.778 36.2667H131.981V42.9333H130.117V36.2667H127.32V34.5333H134.911V36.2667H134.778Z" fill="white"/>
<path d="M141.703 36.2667C141.303 36.1334 140.904 36 140.504 36C140.105 36 139.705 36 139.439 36.1334C139.173 36.2667 138.773 36.4 138.64 36.6667C138.373 36.9334 138.24 37.2 138.107 37.4667C137.974 37.7334 137.974 38.1334 137.974 38.5334C137.974 38.9334 137.974 39.3334 138.107 39.6C138.24 39.8667 138.373 40.1334 138.64 40.4C138.906 40.6667 139.173 40.8 139.439 40.9334C139.705 41.0667 140.105 41.0667 140.504 41.0667C141.037 41.0667 141.437 40.9334 141.836 40.8C142.236 40.6667 142.635 40.4 142.902 40.1334L143.967 41.4667C143.035 42.4 141.836 42.8 140.371 42.8C139.705 42.8 139.173 42.6667 138.64 42.5334C138.107 42.2667 137.708 42 137.308 41.6C136.908 41.2 136.642 40.8 136.376 40.2667C136.109 39.7334 136.109 39.2 136.109 38.5334C136.109 38 136.243 37.3334 136.376 36.8C136.642 36.2667 136.908 35.8667 137.308 35.4667C137.708 35.0667 138.24 34.8 138.773 34.5334C139.306 34.2667 139.972 34.1334 140.637 34.1334C141.303 34.1334 141.836 34.2667 142.369 34.4C142.902 34.5334 143.434 34.9334 143.834 35.2L142.768 36.5334C142.502 36.6667 142.102 36.4 141.703 36.2667Z" fill="white"/>
<path d="M147.562 37.7333L148.495 37.6L150.892 34.5333H153.156L150.093 38.4L153.422 42.8H151.025L148.495 39.2H147.562V42.8H145.698V34.5333H147.562V37.7333Z" fill="white"/>
<path d="M156.885 40.1333L160.881 34.5333H162.479V42.8H160.614V37.6L156.752 42.8H154.888V34.5333H156.752V40.1333H156.885Z" fill="white"/>
<path d="M168.472 37.4667L170.203 34.5333H172.467L169.804 38.6667L172.734 42.9333H170.337L168.472 39.7333H168.339L166.474 42.9333H164.077L167.007 38.6667L164.344 34.6667H166.608L168.472 37.4667Z" fill="white"/>
<path d="M60.3302 51.2H55.9353V57.8666H54.0708V49.6H60.3302V51.2Z" fill="white"/>
<path d="M66.9892 49.7334C67.3887 49.8667 67.7882 50.1334 68.0546 50.4C68.321 50.6667 68.5873 50.9334 68.7205 51.3334C68.8537 51.7334 68.9869 52.1334 68.9869 52.5334C68.9869 53.0667 68.8537 53.4667 68.7205 53.8667C68.5873 54.2667 68.321 54.5334 68.0546 54.8C67.7882 55.0667 67.3887 55.2 66.9892 55.3334C66.5896 55.4667 66.0569 55.6 65.6574 55.6H63.926V57.8667H62.0615V49.6H65.7906C66.1901 49.4667 66.5896 49.4667 66.9892 49.7334ZM65.5242 53.8667C66.0569 53.8667 66.4564 53.7334 66.7228 53.4667C66.9892 53.2 67.1223 52.9334 67.1223 52.4C67.1223 52 66.9892 51.6 66.7228 51.4667C66.4564 51.2 66.0569 51.0667 65.5242 51.0667H63.7929V53.7334H65.5242V53.8667Z" fill="white"/>
<path d="M78.4426 57.7333H76.4449L75.779 56.1333H72.1831L71.5172 57.7333H69.5195L72.9822 49.4667H74.9799L78.4426 57.7333ZM75.1131 54.5333L74.0476 51.3333H73.9144L72.849 54.5333H75.1131Z" fill="white"/>
<path d="M82.0383 52.6667H85.6342V49.4667H87.4987V57.7333H85.6342V54.4H82.0383V57.7333H80.1738V49.4667H82.0383V52.6667Z" fill="white"/>
<path d="M96.8217 51.2H94.0249V57.8667H92.1604V51.2H89.2305V49.4667H96.8217V51.2Z" fill="white"/>
<path d="M104.146 49.6C104.679 49.8667 105.212 50.1334 105.478 50.5334C105.878 50.9334 106.144 51.3334 106.41 51.8667C106.677 52.4 106.677 52.9334 106.677 53.6C106.677 54.1334 106.544 54.8 106.41 55.3334C106.144 55.8667 105.878 56.2667 105.478 56.6667C105.079 57.0667 104.679 57.3334 104.146 57.6C103.614 57.8667 102.948 58 102.415 58C101.749 58 101.216 57.8667 100.684 57.7334C100.151 57.4667 99.6183 57.2 99.3519 56.8C98.9524 56.4 98.686 56 98.4197 55.4667C98.1533 54.9334 98.1533 54.4 98.1533 53.7334C98.1533 53.2 98.2865 52.5334 98.4197 52C98.686 51.4667 98.9524 51.0667 99.3519 50.6667C99.7515 50.2667 100.151 50 100.684 49.7334C101.216 49.3334 101.749 49.3334 102.415 49.3334C103.081 49.3334 103.614 49.3334 104.146 49.6ZM101.35 51.2C101.083 51.3334 100.817 51.4667 100.551 51.7334C100.284 52 100.151 52.2667 100.018 52.5334C99.8847 52.9334 99.8847 53.2 99.8847 53.6C99.8847 54 99.8847 54.2667 100.018 54.6667C100.151 54.9334 100.284 55.3334 100.551 55.4667C100.817 55.7334 101.083 55.8667 101.35 56C101.616 56.1334 102.016 56.2667 102.415 56.2667C102.815 56.2667 103.214 56.1334 103.48 56C103.747 55.8667 104.013 55.6 104.28 55.4667C104.546 55.2 104.679 54.9334 104.812 54.6667C104.945 54.4 104.945 54 104.945 53.6C104.945 53.2 104.945 52.8 104.812 52.5334C104.679 52.2667 104.546 51.8667 104.28 51.7334C104.013 51.4667 103.747 51.3334 103.48 51.2C103.214 51.0667 102.815 51.0667 102.415 51.0667C102.016 50.9334 101.616 51.0667 101.35 51.2Z" fill="white"/>
<path d="M114.534 50C115.067 50.4 115.333 50.9334 115.333 51.6C115.333 52 115.2 52.2667 115.067 52.5334C114.933 52.8 114.667 53.0667 114.534 53.2V53.3334C114.933 53.4667 115.2 53.7334 115.466 54C115.733 54.4 115.866 54.8 115.866 55.2C115.866 55.6 115.866 55.8667 115.733 56.1334C115.599 56.4 115.466 56.6667 115.2 56.9334C114.933 57.2 114.667 57.3334 114.268 57.4667C113.868 57.6 113.469 57.6 112.936 57.6H108.94V49.3334H112.669C113.335 49.4667 114.001 49.6 114.534 50ZM112.403 52.6667C112.669 52.6667 112.936 52.5334 113.202 52.4C113.335 52.2667 113.469 52 113.469 51.7334C113.469 51.2 113.069 50.9334 112.403 50.9334H110.539V52.6667H112.403ZM112.669 56.1334C113.469 56.1334 113.868 55.8667 113.868 55.2C113.868 54.9334 113.735 54.6667 113.602 54.5334C113.335 54.4 113.069 54.2667 112.669 54.2667H110.539V56.2667H112.669V56.1334Z" fill="white"/>
</g>
<defs>
<clipPath id="clip0">
<rect width="173" height="58" fill="white"/>
</clipPath>
</defs>
</svg>
