<svg width="79" height="47" viewBox="0 0 79 47" fill="none" xmlns="http://www.w3.org/2000/svg">
<path d="M20.8445 4.14089C3.58923 6.68512 -1.61849 20.6541 0.416284 29.1071C2.68953 18.1957 20.3006 11.7275 27.7044 21.8228C28.9502 22.4575 30.8609 23.062 31.6095 24.936C9.24714 29.2885 23.0272 58.1236 42.8141 41.3484C39.5806 40.7439 35.6521 37.9632 35.3196 35.2127C37.1932 36.3612 45.8731 38.87 51.2824 37.4191C56.4921 36.0218 62.524 32.4622 65.5157 27.5656C49.2577 27.5656 47.9212 22.4575 47.9212 22.4575C47.9212 22.4575 61.8523 26.0544 68.1984 21.8228C74.6887 17.495 78.7148 11.4252 78.7148 0C50.8222 13.9642 35.728 1.94637 20.8445 4.14089Z" fill="url(#paint0_linear)"/>
<path d="M47.9214 22.4576C47.9214 22.4576 49.2277 27.5959 65.5159 27.5657C62.5242 32.4622 56.4923 36.0219 51.2826 37.4192C45.8733 38.87 37.1935 36.3613 35.3199 35.2127C35.6523 37.9632 39.5808 40.744 42.8143 41.3485C23.0274 58.1236 9.24736 29.2885 31.6097 24.936C30.8611 23.0621 28.9504 22.4576 27.7046 21.8228C20.5336 12.0449 3.78711 17.8054 0.675623 28.0915C0.585241 28.4235 0.498837 28.762 0.416504 29.1072C0.487979 28.7641 0.574617 28.4254 0.675623 28.0915C7.24053 3.97547 34.7932 14.1988 47.9214 22.4576Z" fill="url(#paint1_linear)"/>
<path d="M42.8141 41.3484C39.5806 40.7439 35.6521 37.9632 35.3197 35.2127C29.5849 31.3136 30.8239 25.7823 31.5189 24.9058C24.78 28.3817 24.508 33.1271 25.747 36.7844C27.8435 42.9727 36.3842 44.4617 42.8141 41.3484Z" fill="url(#paint2_linear)"/>
<path d="M65.5159 27.5656C49.4393 27.6563 47.9214 22.4575 47.9214 22.4575C36.5163 13.8433 6.10454 2.87142 0.416504 29.1071C5.54702 10.3674 24.0752 11.8135 30.2801 18.4678C35.7196 24.3013 39.2855 29.621 46.7799 32.039C55.7861 34.9448 63.0906 30.034 65.5159 27.5656Z" fill="url(#paint3_linear)"/>
<ellipse cx="22.2415" cy="22.4273" rx="1.20878" ry="1.20902" fill="white"/>
<g filter="url(#filter0_i)">
<path d="M20.8445 4.14089C3.58923 6.68512 -1.61849 20.6541 0.416284 29.1071C2.68953 18.1957 20.3006 11.7275 27.7044 21.8228C28.9502 22.4575 30.8609 23.062 31.6095 24.936C9.24714 29.2885 23.0272 58.1236 42.8141 41.3484C39.5806 40.7439 35.6521 37.9632 35.3196 35.2127C37.1932 36.3612 45.8731 38.87 51.2824 37.4191C56.4921 36.0218 62.524 32.4622 65.5157 27.5656C49.2275 27.5656 47.9212 22.4575 47.9212 22.4575C47.9212 22.4575 61.8523 26.0544 68.1984 21.8228C74.6887 17.495 78.7148 11.4252 78.7148 0C50.8222 13.9642 35.728 1.94637 20.8445 4.14089Z" fill="url(#paint4_linear)"/>
</g>
<defs>
<filter id="filter0_i" x="0" y="0" width="78.7148" height="46.544" filterUnits="userSpaceOnUse" color-interpolation-filters="sRGB">
<feFlood flood-opacity="0" result="BackgroundImageFix"/>
<feBlend mode="normal" in="SourceGraphic" in2="BackgroundImageFix" result="shape"/>
<feColorMatrix in="SourceAlpha" type="matrix" values="0 0 0 0 0 0 0 0 0 0 0 0 0 0 0 0 0 0 127 0" result="hardAlpha"/>
<feOffset dy="0.52585"/>
<feComposite in2="hardAlpha" operator="arithmetic" k2="-1" k3="1"/>
<feColorMatrix type="matrix" values="0 0 0 0 1 0 0 0 0 1 0 0 0 0 1 0 0 0 0.25 0"/>
<feBlend mode="normal" in2="shape" result="effect1_innerShadow"/>
</filter>
<linearGradient id="paint0_linear" x1="2.31358e-07" y1="28.7142" x2="69.3865" y2="5.87199" gradientUnits="userSpaceOnUse">
<stop stop-color="#79BEE4"/>
<stop offset="1" stop-color="white"/>
</linearGradient>
<linearGradient id="paint1_linear" x1="2.90128" y1="24.7547" x2="66.6991" y2="54.8796" gradientUnits="userSpaceOnUse">
<stop stop-color="#005585"/>
<stop offset="1" stop-color="#0093C1"/>
</linearGradient>
<linearGradient id="paint2_linear" x1="19.8162" y1="50.7594" x2="36.4754" y2="44.8559" gradientUnits="userSpaceOnUse">
<stop stop-color="#005585"/>
<stop offset="1" stop-color="#EAF5FB"/>
</linearGradient>
<linearGradient id="paint3_linear" x1="1.9947" y1="11.8786" x2="78.331" y2="32.394" gradientUnits="userSpaceOnUse">
<stop stop-color="#E8F4FA"/>
<stop offset="1" stop-color="white"/>
</linearGradient>
<linearGradient id="paint4_linear" x1="16.0163" y1="52.1692" x2="100.159" y2="-7.96361" gradientUnits="userSpaceOnUse">
<stop stop-color="white"/>
<stop offset="1" stop-color="white" stop-opacity="0.1"/>
</linearGradient>
</defs>
</svg>
