<svg width="56" height="56" viewBox="0 0 56 56" fill="none" xmlns="http://www.w3.org/2000/svg">
<path d="M28.2474 30.1589C27.9411 30.1589 27.6348 30.0395 27.4015 29.8021L15.5044 17.697C13.6905 15.8522 12.6914 13.3986 12.6914 10.7866C12.6914 8.17465 13.6905 5.71978 15.5044 3.87376C17.3196 2.02164 19.7329 1.00122 22.2995 1.00122C24.4855 1.00122 26.5615 1.74036 28.2498 3.10661C29.9393 1.74036 32.0164 1 34.2073 1C36.769 1 39.1776 2.01312 40.9928 3.85549C44.7068 7.66078 44.7271 13.8199 41.0586 17.6313C41.037 17.6556 41.0167 17.6787 40.994 17.7019L29.0957 29.8045C28.86 30.0408 28.5537 30.1589 28.2474 30.1589ZM22.2983 3.4366C20.3731 3.4366 18.5615 4.20253 17.1963 5.59436C15.8347 6.98253 15.0845 8.82611 15.0845 10.7866C15.0845 12.7471 15.8347 14.5895 17.1963 15.9752L28.2474 27.2194L39.2111 16.0665C39.2566 16.0105 39.3057 15.9594 39.3583 15.9119C42.1043 13.0466 42.0828 8.42793 39.2961 5.57487C37.938 4.19523 36.1289 3.43417 34.2049 3.43417C32.2749 3.43417 30.461 4.20132 29.0981 5.59314C28.6494 6.05221 27.8478 6.05343 27.3991 5.59436C26.0362 4.20253 24.2247 3.4366 22.2983 3.4366Z" fill="#1BA4CE"/>
<path d="M24.3535 13.6218L28.2483 17.5166L35.0451 10.7197" stroke="#1BA4CE" stroke-width="2" stroke-linecap="round" stroke-linejoin="round"/>
<path d="M47.6846 31.1311V30.7012C47.6846 29.5966 46.7892 28.7012 45.6846 28.7012H42.8809C41.7763 28.7012 40.8809 29.5966 40.8809 30.7012V51.9722C40.8809 53.0768 41.7763 53.9722 42.8809 53.9722H45.6846C46.7892 53.9722 47.6846 53.0768 47.6846 51.9722V50.5703M47.6846 31.1311H52.0024C53.1069 31.1311 54.0024 32.0265 54.0024 33.1311V48.5703C54.0024 49.6749 53.1069 50.5703 52.0024 50.5703H47.6846M47.6846 31.1311V50.5703" stroke="#3F6982" stroke-width="2"/>
<path d="M8.31736 31.1311V30.7012C8.31736 29.5966 9.21279 28.7012 10.3174 28.7012H13.1211C14.2257 28.7012 15.1211 29.5966 15.1211 30.7012V51.9722C15.1211 53.0768 14.2257 53.9722 13.1211 53.9722H10.3174C9.21279 53.9722 8.31736 53.0768 8.31736 51.9722V50.5703M8.31736 31.1311H3.9996C2.89503 31.1311 1.9996 32.0265 1.9996 33.1311V48.5703C1.9996 49.6749 2.89503 50.5703 3.9996 50.5703H8.31736M8.31736 31.1311V50.5703" stroke="#3F6982" stroke-width="2"/>
<rect x="15.6367" y="36.9902" width="25.215" height="7.71963" stroke="#3F6982" stroke-width="2"/>
</svg>
