<svg width="90" height="90" viewBox="0 0 90 90" fill="none" xmlns="http://www.w3.org/2000/svg">
<g clip-path="url(#clip0)">
<path d="M38.8177 6.22411C18.2972 12.0264 12.4503 25.9268 12.0255 33.5997C11.9899 34.2439 12.6048 34.6991 13.2359 34.565C20.0544 33.1162 25.8255 34.6731 29.34 36.3855C30.2147 36.8116 31.4491 35.9213 31.265 34.9659C28.915 22.7712 34.5564 13.4982 39.8638 8.32133C40.6555 7.54908 39.882 5.92319 38.8177 6.22411Z" fill="#EDF6F9"/>
<path d="M82.9688 40.7728C82.1911 40.7728 81.5625 40.1442 81.5625 39.3666C81.5625 19.2052 65.1614 2.80408 45 2.80408C24.8386 2.80408 8.4375 19.2052 8.4375 39.3666C8.4375 40.1442 7.80891 40.7728 7.03125 40.7728C6.25359 40.7728 5.625 40.1442 5.625 39.3666C5.625 17.6555 23.2889 -0.00842285 45 -0.00842285C66.7111 -0.00842285 84.375 17.6555 84.375 39.3666C84.375 40.1442 83.7464 40.7728 82.9688 40.7728Z" fill="#3F6982"/>
<path d="M82.9676 40.7671C82.5907 40.7671 82.2152 40.6181 81.9396 40.32C78.829 36.9815 74.6946 35.1421 70.2958 35.1421C65.9013 35.1421 61.7698 36.9801 58.6633 40.3171C58.1332 40.8881 57.1362 40.8881 56.606 40.3171C53.4968 36.9801 49.3666 35.1421 44.9735 35.1421C40.579 35.1421 36.4474 36.9801 33.3396 40.3171C33.0752 40.6026 32.7012 40.7643 32.3116 40.7643C31.9221 40.7643 31.548 40.6026 31.2837 40.3171C28.1758 36.9801 24.0457 35.1421 19.6512 35.1421C15.2805 35.1421 11.163 36.9604 8.05944 40.2637C7.52788 40.8318 6.63632 40.8572 6.07241 40.3256C5.5071 39.794 5.47757 38.9039 6.01054 38.3386C9.65132 34.4643 14.4944 32.3311 19.6512 32.3311C24.3621 32.3311 28.8058 34.1114 32.313 37.3725C35.8216 34.1114 40.2668 32.3311 44.9763 32.3311C49.6858 32.3311 54.1296 34.1114 57.6382 37.3725C61.1454 34.1114 65.5891 32.3311 70.3001 32.3311C75.4877 32.3311 80.3533 34.4868 84.0012 38.4032C84.5313 38.9714 84.499 39.8615 83.9308 40.3903C83.6552 40.642 83.3107 40.7671 82.9676 40.7671Z" fill="#3F6982"/>
<path d="M44.9955 61.8834C44.7635 61.8834 44.5286 61.8258 44.3121 61.7048L6.34615 40.5281C5.66834 40.1498 5.42505 39.2934 5.80333 38.6156C6.18162 37.9364 7.03802 37.6931 7.71583 38.0728L45.6818 59.2495C46.3596 59.6278 46.6029 60.4842 46.2246 61.162C45.9672 61.6233 45.4891 61.8834 44.9955 61.8834Z" fill="#3F6982"/>
<path d="M44.9987 61.8835C44.5206 61.8835 44.0551 61.6402 43.7921 61.2014L31.105 40.0823C30.7056 39.4172 30.9207 38.5523 31.5873 38.153C32.2553 37.7536 33.1173 37.9702 33.5167 38.6353L46.2038 59.7544C46.6032 60.4195 46.3881 61.2844 45.7215 61.6838C45.4951 61.8188 45.2448 61.8835 44.9987 61.8835Z" fill="#3F6982"/>
<path d="M44.9967 61.8835C44.7506 61.8835 44.5017 61.8188 44.2753 61.6838C43.6087 61.2844 43.3921 60.421 43.7901 59.7544L56.4267 38.6353C56.826 37.9688 57.6881 37.7536 58.356 38.1502C59.0226 38.5496 59.2392 39.413 58.8412 40.0796L46.2046 61.2C45.9417 61.6388 45.4748 61.8835 44.9967 61.8835Z" fill="#3F6982"/>
<path d="M44.9992 61.8834C44.5042 61.8834 44.0261 61.6219 43.7688 61.1606C43.3905 60.4814 43.6352 59.625 44.3144 59.2481L82.286 38.1318C82.968 37.7508 83.823 37.9997 84.1985 38.6775C84.5767 39.3567 84.3321 40.2131 83.6528 40.59L45.6813 61.7062C45.4647 61.8272 45.2299 61.8834 44.9992 61.8834Z" fill="#3F6982"/>
<path d="M63.2783 90.0084H35.1533C34.3757 90.0084 33.7471 89.3799 33.7471 88.6022V60.4772C33.7471 59.6995 34.3757 59.0709 35.1533 59.0709H63.2783C64.056 59.0709 64.6846 59.6995 64.6846 60.4772V88.6022C64.6846 89.3799 64.056 90.0084 63.2783 90.0084ZM36.5596 87.1959H61.8721V61.8834H36.5596V87.1959Z" fill="#3F6982"/>
<path d="M56.1605 69.8185C55.7757 69.4401 55.3188 69.14 54.8158 68.9352C54.3129 68.7304 53.7739 68.625 53.2295 68.625C52.6851 68.625 52.1461 68.7304 51.6432 68.9352C51.1403 69.14 50.6833 69.4401 50.2985 69.8185L49.4998 70.6034L48.7011 69.8185C47.9238 69.0546 46.8694 68.6254 45.7701 68.6254C44.6707 68.6254 43.6164 69.0546 42.8391 69.8185C42.0617 70.5824 41.625 71.6185 41.625 72.6989C41.625 73.7793 42.0617 74.8154 42.8391 75.5793L43.6378 76.3642L49.4998 82.125L55.3618 76.3642L56.1605 75.5793C56.5456 75.2011 56.851 74.7521 57.0594 74.2578C57.2677 73.7636 57.375 73.2339 57.375 72.6989C57.375 72.1639 57.2677 71.6342 57.0594 71.14C56.851 70.6457 56.5456 70.1967 56.1605 69.8185Z" fill="#1BA4CE" stroke="#1BA4CE" stroke-width="2.25" stroke-linecap="round" stroke-linejoin="round"/>
<rect x="29.25" y="60.75" width="5.625" height="24.75" rx="1" fill="#D5E2E7"/>
<path d="M35.1533 90.0084H26.7158C25.9382 90.0084 25.3096 89.3799 25.3096 88.6022V60.4772C25.3096 59.6995 25.9382 59.0709 26.7158 59.0709H35.1533C35.931 59.0709 36.5596 59.6995 36.5596 60.4772V88.6022C36.5596 89.3799 35.931 90.0084 35.1533 90.0084ZM28.1221 87.1959H33.7471V61.8834H28.1221V87.1959Z" fill="#3F6982"/>
</g>
<defs>
<clipPath id="clip0">
<rect width="90" height="90" fill="white"/>
</clipPath>
</defs>
</svg>
