<svg width="56" height="56" viewBox="0 0 56 56" fill="none" xmlns="http://www.w3.org/2000/svg">
<path d="M3.5 31.9364C3.01613 31.9364 2.625 31.5452 2.625 31.0614V27.6777C2.625 27.1939 3.01613 26.8027 3.5 26.8027C3.98388 26.8027 4.375 27.1939 4.375 27.6777V31.0614C4.375 31.5452 3.98388 31.9364 3.5 31.9364Z" fill="#3F6982"/>
<path d="M15.75 31.9355C15.2661 31.9355 14.875 31.5444 14.875 31.0605V27.123C14.875 26.6392 15.2661 26.248 15.75 26.248C16.2339 26.248 16.625 26.6392 16.625 27.123V31.0605C16.625 31.5444 16.2339 31.9355 15.75 31.9355Z" fill="#3F6982"/>
<path d="M15.75 27.998C15.2661 27.998 14.875 27.6069 14.875 27.123C14.875 23.987 12.3235 21.4355 9.18662 21.4355C6.05062 21.4355 3.5 23.987 3.5 27.123C3.5 27.6069 3.10887 27.998 2.625 27.998C2.14112 27.998 1.75 27.6069 1.75 27.123C1.75 23.0219 5.08637 19.6855 9.18662 19.6855C13.2886 19.6855 16.625 23.0219 16.625 27.123C16.625 27.6069 16.2339 27.998 15.75 27.998Z" fill="#3F6982"/>
<path d="M15.7505 29.198C15.4871 29.198 15.2273 29.0799 15.0549 28.855C13.3644 26.6474 12.9059 26.8311 11.1926 27.5093C9.54852 28.1603 7.06702 29.1455 2.48815 28.421C2.01127 28.3458 1.6849 27.8978 1.76102 27.42C1.83627 26.9431 2.28602 26.6168 2.76202 26.6929C6.8684 27.3421 8.99552 26.4978 10.5486 25.8818C12.6565 25.047 14.0705 24.69 16.4444 27.7901C16.7384 28.1734 16.6658 28.7229 16.2816 29.0169C16.1233 29.1394 15.936 29.198 15.7505 29.198Z" fill="#3F6982"/>
<path d="M12.2486 27.104C12.12 27.104 11.9879 27.0751 11.8645 27.0138C11.4305 26.8012 11.252 26.2762 11.4646 25.8431L13.2146 22.2801C13.4273 21.8452 13.9514 21.6667 14.3854 21.8802C14.8194 22.0928 14.9979 22.6178 14.7853 23.051L13.0353 26.614C12.883 26.9246 12.5715 27.104 12.2486 27.104Z" fill="#3F6982"/>
<path d="M1.75 42.4326C1.26612 42.4326 0.875 42.0415 0.875 41.5576C0.875 39.6274 2.44475 38.0576 4.375 38.0576C4.85888 38.0576 5.25 38.4487 5.25 38.9326C5.25 39.4165 4.85888 39.8076 4.375 39.8076C3.40988 39.8076 2.625 40.5925 2.625 41.5576C2.625 42.0415 2.23388 42.4326 1.75 42.4326Z" fill="#3F6982"/>
<path d="M7 39.8125H4.375C3.89113 39.8125 3.5 39.4214 3.5 38.9375C3.5 38.4536 3.89113 38.0625 4.375 38.0625H7C7.48388 38.0625 7.875 38.4536 7.875 38.9375C7.875 39.4214 7.48388 39.8125 7 39.8125Z" fill="#3F6982"/>
<path d="M1.75 45.9361C1.26612 45.9361 0.875 45.545 0.875 45.0611V41.5576C0.875 41.0737 1.26612 40.6826 1.75 40.6826C2.23387 40.6826 2.625 41.0737 2.625 41.5576V45.0611C2.625 45.545 2.23387 45.9361 1.75 45.9361Z" fill="#3F6982"/>
<path d="M17.5 42.4326C17.0161 42.4326 16.625 42.0415 16.625 41.5576C16.625 40.5925 15.8401 39.8076 14.875 39.8076C14.3911 39.8076 14 39.4165 14 38.9326C14 38.4487 14.3911 38.0576 14.875 38.0576C16.8052 38.0576 18.375 39.6274 18.375 41.5576C18.375 42.0415 17.9839 42.4326 17.5 42.4326Z" fill="#3F6982"/>
<path d="M14.875 39.8125H12.25C11.7661 39.8125 11.375 39.4214 11.375 38.9375C11.375 38.4536 11.7661 38.0625 12.25 38.0625H14.875C15.3589 38.0625 15.75 38.4536 15.75 38.9375C15.75 39.4214 15.3589 39.8125 14.875 39.8125Z" fill="#3F6982"/>
<path d="M17.5 45.9361C17.0161 45.9361 16.625 45.545 16.625 45.0611V41.5576C16.625 41.0737 17.0161 40.6826 17.5 40.6826C17.9839 40.6826 18.375 41.0737 18.375 41.5576V45.0611C18.375 45.545 17.9839 45.9361 17.5 45.9361Z" fill="#3F6982"/>
<path d="M7 39.8124C6.51613 39.8124 6.125 39.4212 6.125 38.9374V36.5889C6.125 36.105 6.51613 35.7139 7 35.7139C7.48388 35.7139 7.875 36.105 7.875 36.5889V38.9374C7.875 39.4212 7.48388 39.8124 7 39.8124Z" fill="#3F6982"/>
<path d="M12.25 39.8071C11.7661 39.8071 11.375 39.416 11.375 38.9321V36.5889C11.375 36.105 11.7661 35.7139 12.25 35.7139C12.7339 35.7139 13.125 36.105 13.125 36.5889V38.9321C13.125 39.416 12.7339 39.8071 12.25 39.8071Z" fill="#3F6982"/>
<path d="M9.625 38.0541C5.76537 38.0541 2.625 34.9155 2.625 31.0576C2.625 30.5737 3.01612 30.1826 3.5 30.1826C3.98387 30.1826 4.375 30.5737 4.375 31.0576C4.375 33.9512 6.72962 36.3041 9.625 36.3041C12.5204 36.3041 14.875 33.9512 14.875 31.0576C14.875 30.5737 15.2661 30.1826 15.75 30.1826C16.2339 30.1826 16.625 30.5737 16.625 31.0576C16.625 34.9155 13.4846 38.0541 9.625 38.0541Z" fill="#3F6982"/>
<path d="M40.248 31.9361C39.7642 31.9361 39.373 31.545 39.373 31.0611V24.0576C39.373 23.5737 39.7642 23.1826 40.248 23.1826C40.7319 23.1826 41.123 23.5737 41.123 24.0576V31.0611C41.123 31.545 40.7319 31.9361 40.248 31.9361Z" fill="#3F6982"/>
<path d="M52.498 31.9361C52.0142 31.9361 51.623 31.5449 51.623 31.0611V30.8047C51.623 30.3208 52.0142 29.9297 52.498 29.9297C52.9819 29.9297 53.373 30.3208 53.373 30.8047V31.0611C53.373 31.5449 52.9819 31.9361 52.498 31.9361Z" fill="#3F6982"/>
<path d="M38.498 42.4326C38.0142 42.4326 37.623 42.0415 37.623 41.5576C37.623 39.6274 39.1928 38.0576 41.123 38.0576C41.6069 38.0576 41.998 38.4487 41.998 38.9326C41.998 39.4165 41.6069 39.8076 41.123 39.8076C40.1579 39.8076 39.373 40.5925 39.373 41.5576C39.373 42.0415 38.9819 42.4326 38.498 42.4326Z" fill="#3F6982"/>
<path d="M43.748 39.8125H41.123C40.6392 39.8125 40.248 39.4214 40.248 38.9375C40.248 38.4536 40.6392 38.0625 41.123 38.0625H43.748C44.2319 38.0625 44.623 38.4536 44.623 38.9375C44.623 39.4214 44.2319 39.8125 43.748 39.8125Z" fill="#3F6982"/>
<path d="M38.498 45.9361C38.0142 45.9361 37.623 45.545 37.623 45.0611V41.5576C37.623 41.0737 38.0142 40.6826 38.498 40.6826C38.9819 40.6826 39.373 41.0737 39.373 41.5576V45.0611C39.373 45.545 38.9819 45.9361 38.498 45.9361Z" fill="#3F6982"/>
<path d="M54.248 42.4326C53.7642 42.4326 53.373 42.0415 53.373 41.5576C53.373 40.5925 52.5882 39.8076 51.623 39.8076C51.1392 39.8076 50.748 39.4165 50.748 38.9326C50.748 38.4487 51.1392 38.0576 51.623 38.0576C53.5533 38.0576 55.123 39.6274 55.123 41.5576C55.123 42.0415 54.7319 42.4326 54.248 42.4326Z" fill="#3F6982"/>
<path d="M51.623 39.8125H48.998C48.5142 39.8125 48.123 39.4214 48.123 38.9375C48.123 38.4536 48.5142 38.0625 48.998 38.0625H51.623C52.1069 38.0625 52.498 38.4536 52.498 38.9375C52.498 39.4214 52.1069 39.8125 51.623 39.8125Z" fill="#3F6982"/>
<path d="M54.248 45.9361C53.7642 45.9361 53.373 45.545 53.373 45.0611V41.5576C53.373 41.0737 53.7642 40.6826 54.248 40.6826C54.7319 40.6826 55.123 41.0737 55.123 41.5576V45.0611C55.123 45.545 54.7319 45.9361 54.248 45.9361Z" fill="#3F6982"/>
<path d="M43.748 39.8124C43.2642 39.8124 42.873 39.4212 42.873 38.9374V36.5889C42.873 36.105 43.2642 35.7139 43.748 35.7139C44.2319 35.7139 44.623 36.105 44.623 36.5889V38.9374C44.623 39.4212 44.2319 39.8124 43.748 39.8124Z" fill="#3F6982"/>
<path d="M48.998 39.8071C48.5142 39.8071 48.123 39.416 48.123 38.9321V36.5889C48.123 36.105 48.5142 35.7139 48.998 35.7139C49.4819 35.7139 49.873 36.105 49.873 36.5889V38.9321C49.873 39.416 49.4819 39.8071 48.998 39.8071Z" fill="#3F6982"/>
<path d="M46.373 38.0541C42.5134 38.0541 39.373 34.9155 39.373 31.0576C39.373 30.5737 39.7642 30.1826 40.248 30.1826C40.7319 30.1826 41.123 30.5737 41.123 31.0576C41.123 33.9512 43.4777 36.3041 46.373 36.3041C49.2684 36.3041 51.623 33.9512 51.623 31.0576C51.623 30.5737 52.0142 30.1826 52.498 30.1826C52.9819 30.1826 53.373 30.5737 53.373 31.0576C53.373 34.9155 50.2327 38.0541 46.373 38.0541Z" fill="#3F6982"/>
<path d="M17.5 52.0605C17.0161 52.0605 16.625 51.6694 16.625 51.1855C16.625 48.2902 18.9796 45.9355 21.875 45.9355C22.3589 45.9355 22.75 46.3267 22.75 46.8105C22.75 47.2944 22.3589 47.6855 21.875 47.6855C19.9447 47.6855 18.375 49.2553 18.375 51.1855C18.375 51.6694 17.9839 52.0605 17.5 52.0605Z" fill="#3F6982"/>
<path d="M24.5 47.6855H21.875C21.3911 47.6855 21 47.2944 21 46.8105C21 46.3267 21.3911 45.9355 21.875 45.9355H24.5C24.9839 45.9355 25.375 46.3267 25.375 46.8105C25.375 47.2944 24.9839 47.6855 24.5 47.6855Z" fill="#3F6982"/>
<path d="M17.5 55.5606C17.0161 55.5606 16.625 55.1694 16.625 54.6856V51.1855C16.625 50.7017 17.0161 50.3105 17.5 50.3105C17.9839 50.3105 18.375 50.7017 18.375 51.1855V54.6856C18.375 55.1694 17.9839 55.5606 17.5 55.5606Z" fill="#3F6982"/>
<path d="M38.5 52.0605C38.0161 52.0605 37.625 51.6694 37.625 51.1855C37.625 49.2553 36.0553 47.6855 34.125 47.6855C33.6411 47.6855 33.25 47.2944 33.25 46.8105C33.25 46.3267 33.6411 45.9355 34.125 45.9355C37.0204 45.9355 39.375 48.2902 39.375 51.1855C39.375 51.6694 38.9839 52.0605 38.5 52.0605Z" fill="#3F6982"/>
<path d="M34.125 47.6855H31.5C31.0161 47.6855 30.625 47.2944 30.625 46.8105C30.625 46.3267 31.0161 45.9355 31.5 45.9355H34.125C34.6089 45.9355 35 46.3267 35 46.8105C35 47.2944 34.6089 47.6855 34.125 47.6855Z" fill="#3F6982"/>
<path d="M38.5 55.5606C38.0161 55.5606 37.625 55.1694 37.625 54.6856V51.1855C37.625 50.7017 38.0161 50.3105 38.5 50.3105C38.9839 50.3105 39.375 50.7017 39.375 51.1855V54.6856C39.375 55.1694 38.9839 55.5606 38.5 55.5606Z" fill="#3F6982"/>
<path d="M24.5 47.6862C24.0161 47.6862 23.625 47.2951 23.625 46.8112V43.3672C23.625 42.8833 24.0161 42.4922 24.5 42.4922C24.9839 42.4922 25.375 42.8833 25.375 43.3672V46.8112C25.375 47.2951 24.9839 47.6862 24.5 47.6862Z" fill="#3F6982"/>
<path d="M31.5 47.6862C31.0161 47.6862 30.625 47.2951 30.625 46.8112V43.3672C30.625 42.8833 31.0161 42.4922 31.5 42.4922C31.9839 42.4922 32.375 42.8833 32.375 43.3672V46.8112C32.375 47.2951 31.9839 47.6862 31.5 47.6862Z" fill="#3F6982"/>
<path d="M27.9991 45.0607C23.1744 45.0607 19.25 41.1364 19.25 36.3125C19.25 35.8286 19.6411 35.4375 20.125 35.4375C20.6089 35.4375 21 35.8286 21 36.3125C21 40.1712 24.1395 43.3107 27.9991 43.3107C31.8596 43.3107 35 40.1712 35 36.3125C35 35.8286 35.3911 35.4375 35.875 35.4375C36.3589 35.4375 36.75 35.8286 36.75 36.3125C36.75 41.1364 32.8247 45.0607 27.9991 45.0607Z" fill="#3F6982"/>
<path d="M20.125 37.2302C19.6411 37.2302 19.25 36.839 19.25 36.3552V31.0605C19.25 30.5767 19.6411 30.1855 20.125 30.1855C20.6089 30.1855 21 30.5767 21 31.0605V36.3552C21 36.839 20.6089 37.2302 20.125 37.2302Z" fill="#3F6982"/>
<path d="M35.875 37.1873C35.3911 37.1873 35 36.7962 35 36.3123V31.0605C35 30.5767 35.3911 30.1855 35.875 30.1855C36.3589 30.1855 36.75 30.5767 36.75 31.0605V36.3123C36.75 36.7962 36.3589 37.1873 35.875 37.1873Z" fill="#3F6982"/>
<path d="M35.875 31.9355C35.3911 31.9355 35 31.5444 35 31.0605C35 29.6133 33.8223 28.4355 32.375 28.4355C31.8911 28.4355 31.5 28.0444 31.5 27.5605C31.5 27.0767 31.8911 26.6855 32.375 26.6855C34.7874 26.6855 36.75 28.6482 36.75 31.0605C36.75 31.5444 36.3589 31.9355 35.875 31.9355Z" fill="#3F6982"/>
<path d="M32.375 28.4355C31.8911 28.4355 31.5 28.0444 31.5 27.5605V24.0605C31.5 23.5767 31.8911 23.1855 32.375 23.1855C32.8589 23.1855 33.25 23.5767 33.25 24.0605V27.5605C33.25 28.0444 32.8589 28.4355 32.375 28.4355Z" fill="#3F6982"/>
<path d="M32.375 24.9482H27.125C26.6411 24.9482 26.25 24.5571 26.25 24.0732C26.25 23.5894 26.6411 23.1982 27.125 23.1982H32.375C32.8589 23.1982 33.25 23.5894 33.25 24.0732C33.25 24.5571 32.8589 24.9482 32.375 24.9482Z" fill="#3F6982"/>
<path d="M20.125 31.9355C19.6411 31.9355 19.25 31.5444 19.25 31.0605C19.25 26.7179 22.7824 23.1855 27.125 23.1855C27.6089 23.1855 28 23.5767 28 24.0605C28 24.5444 27.6089 24.9355 27.125 24.9355C23.7484 24.9355 21 27.6839 21 31.0605C21 31.5444 20.6089 31.9355 20.125 31.9355Z" fill="#3F6982"/>
<path d="M35.8708 34.5836C35.7028 34.5836 35.5322 34.5346 35.3817 34.434L32.7567 32.6621C32.3559 32.3909 32.2509 31.8475 32.5204 31.4467C32.7917 31.046 33.3351 30.9419 33.7358 31.2105L36.3608 32.9824C36.7616 33.2536 36.8666 33.797 36.5971 34.1977C36.4282 34.4489 36.1517 34.5836 35.8708 34.5836Z" fill="#3F6982"/>
<path d="M28.4372 33.6851C25.2767 33.6851 22.5861 32.8031 22.4741 32.7655C22.0165 32.6123 21.768 32.118 21.9194 31.6595C22.0716 31.2018 22.5669 30.9525 23.0254 31.1038C23.0507 31.1126 25.5699 31.9342 28.4381 31.9342C31.2189 31.9342 32.8481 31.1572 32.8647 31.1493C33.2961 30.9402 33.822 31.1161 34.0346 31.5492C34.2472 31.9815 34.0722 32.503 33.6417 32.7182C33.5604 32.7576 31.6625 33.6851 28.4372 33.6851Z" fill="#3F6982"/>
<path d="M20.124 34.5831C19.8432 34.5831 19.5667 34.4484 19.3978 34.1981C19.1274 33.7974 19.2333 33.254 19.634 32.9827L22.259 31.2109C22.6607 30.9414 23.204 31.0464 23.4744 31.4471C23.7448 31.8479 23.6389 32.3912 23.2382 32.6625L20.6132 34.4344C20.4627 34.535 20.292 34.5831 20.124 34.5831Z" fill="#3F6982"/>
<path d="M54.2481 27.5566C53.7642 27.5566 53.3731 27.1655 53.3731 26.6816C53.3731 23.305 50.6247 20.5566 47.2481 20.5566C45.6888 20.5566 44.3063 21.4036 43.4208 22.1141C43.0437 22.4169 42.4933 22.3556 42.1906 21.9794C41.8878 21.6023 41.9491 21.051 42.3253 20.7491C43.9091 19.4786 45.611 18.8066 47.2481 18.8066C51.5907 18.8066 55.1231 22.339 55.1231 26.6816C55.1231 27.1655 54.732 27.5566 54.2481 27.5566Z" fill="#3F6982"/>
<path d="M54.248 36.3076C53.7642 36.3076 53.373 35.9165 53.373 35.4326C53.373 32.056 50.6247 29.3076 47.248 29.3076C46.7642 29.3076 46.373 28.9165 46.373 28.4326C46.373 27.9487 46.7642 27.5576 47.248 27.5576C51.5907 27.5576 55.123 31.09 55.123 35.4326C55.123 35.9165 54.7319 36.3076 54.248 36.3076Z" fill="#3F6982"/>
<path d="M40.248 29.3076C39.7642 29.3076 39.373 28.9165 39.373 28.4326C39.373 27.9487 39.7642 27.5576 40.248 27.5576C41.2132 27.5576 41.998 26.7727 41.998 25.8076C41.998 25.3237 42.3892 24.9326 42.873 24.9326C43.3569 24.9326 43.748 25.3237 43.748 25.8076C43.748 27.7379 42.1783 29.3076 40.248 29.3076Z" fill="#3F6982"/>
<path d="M40.248 24.9453C39.7642 24.9453 39.373 24.5542 39.373 24.0703C39.373 22.1401 40.9428 20.5703 42.873 20.5703C43.3569 20.5703 43.748 20.9614 43.748 21.4453C43.748 21.9292 43.3569 22.3203 42.873 22.3203C41.9079 22.3203 41.123 23.1052 41.123 24.0703C41.123 24.5542 40.7319 24.9453 40.248 24.9453Z" fill="#3F6982"/>
<path d="M45.498 29.3076C43.5678 29.3076 41.998 27.7379 41.998 25.8076C41.998 25.3237 42.3892 24.9326 42.873 24.9326C43.3569 24.9326 43.748 25.3237 43.748 25.8076C43.748 26.7727 44.5329 27.5576 45.498 27.5576C45.9819 27.5576 46.373 27.9487 46.373 28.4326C46.373 28.9165 45.9819 29.3076 45.498 29.3076Z" fill="#3F6982"/>
<path d="M42.873 26.6826C42.3892 26.6826 41.998 26.2915 41.998 25.8076V21.4326C41.998 20.9487 42.3892 20.5576 42.873 20.5576C43.3569 20.5576 43.748 20.9487 43.748 21.4326V25.8076C43.748 26.2915 43.3569 26.6826 42.873 26.6826Z" fill="#3F6982"/>
<path d="M54.248 36.3076C53.7642 36.3076 53.373 35.9165 53.373 35.4326V26.6826C53.373 26.1987 53.7642 25.8076 54.248 25.8076C54.7319 25.8076 55.123 26.1987 55.123 26.6826V35.4326C55.123 35.9165 54.7319 36.3076 54.248 36.3076Z" fill="#3F6982"/>
<path d="M47.248 29.3076H45.498C45.0142 29.3076 44.623 28.9165 44.623 28.4326C44.623 27.9487 45.0142 27.5576 45.498 27.5576H47.248C47.7319 27.5576 48.123 27.9487 48.123 28.4326C48.123 28.9165 47.7319 29.3076 47.248 29.3076Z" fill="#3F6982"/>
<path d="M2.625 28.432C2.14112 28.432 1.75 28.0409 1.75 27.557V27.123C1.75 26.6392 2.14112 26.248 2.625 26.248C3.10887 26.248 3.5 26.6392 3.5 27.123V27.557C3.5 28.0409 3.10887 28.432 2.625 28.432Z" fill="#3F6982"/>
<path d="M26.2489 48.5559C26.1186 48.5559 25.9856 48.527 25.8604 48.4649L24.1104 47.5951C23.6782 47.3799 23.5014 46.8549 23.7167 46.4218C23.9319 45.9895 24.4552 45.811 24.8901 46.028L26.6401 46.8978C27.0723 47.113 27.2491 47.638 27.0338 48.0711C26.8807 48.3783 26.5709 48.5559 26.2489 48.5559Z" fill="#3F6982"/>
<path d="M26.2495 48.5561C25.9284 48.5561 25.6186 48.3784 25.4655 48.0713C25.2494 47.6391 25.4252 47.1132 25.8575 46.8979L27.6075 46.0247C28.0424 45.8068 28.5665 45.9853 28.7809 46.4167C28.997 46.8489 28.8211 47.3748 28.3889 47.5901L26.6389 48.4633C26.5137 48.5272 26.3799 48.5561 26.2495 48.5561Z" fill="#3F6982"/>
<path d="M29.7507 48.5558C29.4287 48.5558 29.1189 48.3782 28.9667 48.0702C28.7514 47.637 28.9282 47.112 29.3604 46.8968L31.1104 46.027C31.5453 45.81 32.0686 45.9885 32.2838 46.4208C32.4991 46.8539 32.3223 47.3789 31.8901 47.5942L30.1401 48.4639C30.0141 48.5269 29.8811 48.5558 29.7507 48.5558Z" fill="#3F6982"/>
<path d="M29.7488 48.5552C29.6184 48.5552 29.4846 48.5263 29.3594 48.4633L27.6094 47.5901C27.1772 47.3748 27.0013 46.8489 27.2174 46.4167C27.4327 45.9853 27.9577 45.8068 28.3908 46.0247L30.1408 46.8979C30.5731 47.1132 30.7489 47.6391 30.5328 48.0713C30.3797 48.3776 30.0699 48.5552 29.7488 48.5552Z" fill="#3F6982"/>
<path d="M46.3741 41.5556C46.2087 41.5556 46.0399 41.5084 45.8911 41.4095L43.2643 39.6665C42.8618 39.3996 42.7516 38.8563 43.0193 38.4538C43.2862 38.0521 43.8287 37.9384 44.2321 38.2088L46.8589 39.9518C47.2614 40.2186 47.3716 40.762 47.1039 41.1645C46.9359 41.4183 46.6576 41.5556 46.3741 41.5556Z" fill="#3F6982"/>
<path d="M46.3721 41.5556C46.0886 41.5556 45.8104 41.4183 45.6424 41.1645C45.3746 40.762 45.4849 40.2186 45.8874 39.9518L48.5141 38.2088C48.9166 37.9384 49.46 38.0521 49.7269 38.4538C49.9946 38.8563 49.8844 39.3996 49.4819 39.6665L46.8551 41.4095C46.7064 41.5084 46.5384 41.5556 46.3721 41.5556Z" fill="#3F6982"/>
<path d="M9.62413 41.5596C7.66238 41.5596 6.125 40.4072 6.125 38.9346C6.125 38.4507 6.51613 38.0596 7 38.0596C7.48388 38.0596 7.875 38.4507 7.875 38.9346C7.875 39.2916 8.55575 39.8096 9.62413 39.8096C10.6925 39.8096 11.3741 39.2916 11.3741 38.9346C11.3741 38.4507 11.7653 38.0596 12.2491 38.0596C12.733 38.0596 13.1241 38.4507 13.1241 38.9346C13.1241 40.4072 11.5868 41.5596 9.62413 41.5596Z" fill="#3F6982"/>
<path d="M28.0009 21.3932C27.7769 21.3932 27.5529 21.3074 27.3822 21.1368L18.6821 12.4384C17.3556 11.1128 16.625 9.34968 16.625 7.47281C16.625 5.59593 17.3556 3.83193 18.6821 2.50543C20.0095 1.17455 21.7744 0.441305 23.6512 0.441305C25.2499 0.441305 26.768 0.97243 28.0026 1.95418C29.2381 0.97243 30.7571 0.44043 32.3592 0.44043C34.2326 0.44043 35.994 1.16843 37.3214 2.49231C40.0374 5.22668 40.0522 9.65243 37.3695 12.3912C37.3537 12.4087 37.3389 12.4253 37.3222 12.4419L28.6212 21.1386C28.4489 21.3083 28.2249 21.3932 28.0009 21.3932ZM23.6504 2.19131C22.2425 2.19131 20.9177 2.74168 19.9194 3.74181C18.9236 4.73931 18.375 6.06406 18.375 7.47281C18.375 8.88156 18.9236 10.2054 19.9194 11.2012L28.0009 19.2809L36.0185 11.2668C36.0517 11.2266 36.0876 11.1898 36.1261 11.1557C38.1342 9.09681 38.1185 5.77793 36.0806 3.72781C35.0875 2.73643 33.7645 2.18956 32.3575 2.18956C30.9461 2.18956 29.6196 2.74081 28.623 3.74093C28.2949 4.07081 27.7086 4.07168 27.3805 3.74181C26.3839 2.74168 25.0591 2.19131 23.6504 2.19131Z" fill="#1BA4CE"/>
<path d="M32.1093 17.2896C31.7523 17.2896 31.4171 17.07 31.2876 16.7156C30.7854 15.341 29.4633 14.417 28.0003 14.417C26.539 14.417 25.2186 15.3392 24.7138 16.7104C24.5475 17.1654 24.0435 17.3972 23.5903 17.2292C23.137 17.063 22.9051 16.559 23.0714 16.1057C23.8283 14.0486 25.8093 12.667 28.0003 12.667C30.1956 12.667 32.1766 14.0521 32.9318 16.1136C33.0971 16.5677 32.8644 17.07 32.4103 17.2362C32.3114 17.2721 32.2099 17.2896 32.1093 17.2896Z" fill="#1BA4CE"/>
<path d="M28 14.4189C26.0697 14.4189 24.5 12.8492 24.5 10.9189C24.5 8.9887 26.0697 7.41895 28 7.41895C29.9303 7.41895 31.5 8.9887 31.5 10.9189C31.5 12.8492 29.9303 14.4189 28 14.4189ZM28 9.16895C27.0349 9.16895 26.25 9.95382 26.25 10.9189C26.25 11.8841 27.0349 12.6689 28 12.6689C28.9651 12.6689 29.75 11.8841 29.75 10.9189C29.75 9.95382 28.9651 9.16895 28 9.16895Z" fill="#1BA4CE"/>
</svg>
