<svg xmlns="http://www.w3.org/2000/svg" width="222" height="162" viewBox="0 0 222 162">
  <defs>
    <style>
      .cls-1 {
        fill: #3d0098;
        fill-rule: evenodd;
      }
    </style>
  </defs>
  <path id="иконка" class="cls-1" d="M20.339,1.051A18.675,18.675,0,0,0,1.687,19.712V142.34A18.675,18.675,0,0,0,20.339,161h181.2a18.675,18.675,0,0,0,18.652-18.66V19.712a18.674,18.674,0,0,0-18.652-18.66H20.339Zm0,5.331h181.2A13.239,13.239,0,0,1,214.86,19.712V142.34a13.239,13.239,0,0,1-13.323,13.329H20.339A13.239,13.239,0,0,1,7.016,142.34V19.712A13.239,13.239,0,0,1,20.339,6.382h0ZM31.5,32.957v0a2.666,2.666,0,0,0-1.749,4.666l44.134,41.9-44.134,44.9a2.666,2.666,0,1,0,3.747,3.749L77.8,83.192,98.2,102.52a18.339,18.339,0,0,0,25.314,0L144,83.111l44.382,45.07v0a2.666,2.666,0,1,0,3.748-3.749L147.909,79.444l44.218-41.821a2.681,2.681,0,0,0-3.664-3.914l-68.615,64.98a12.681,12.681,0,0,1-17.9,0L33.415,33.708h0a2.663,2.663,0,0,0-1.914-.749v0Z"/>
</svg>
