<svg xmlns="http://www.w3.org/2000/svg" width="143" height="232" viewBox="0 0 143 232">
  <defs>
    <style>
      .cls-1 {
        fill: #3d0098;
        fill-rule: evenodd;
      }
    </style>
  </defs>
  <path id="иконка" class="cls-1" d="M14.181,1.063a13.039,13.039,0,0,0-13,13.02V217.2a13.038,13.038,0,0,0,13,13.02H128.562a13.038,13.038,0,0,0,13-13.02V14.083a13.039,13.039,0,0,0-13-13.02H14.181Zm0,5.208H128.562a7.733,7.733,0,0,1,7.8,7.813V21.9H6.382V14.083a7.733,7.733,0,0,1,7.8-7.813h0ZM6.382,27.1H136.361v166.66H6.382V27.1Zm0,171.868H136.361V217.2a7.732,7.732,0,0,1-7.8,7.812H14.18a7.732,7.732,0,0,1-7.8-7.812V198.971Zm64.99,7.812a5.208,5.208,0,1,0,5.2,5.208A5.2,5.2,0,0,0,71.371,206.783Z"/>
</svg>
