<svg width="50" height="58" viewBox="0 0 50 58" fill="none" xmlns="http://www.w3.org/2000/svg">
<path fill-rule="evenodd" clip-rule="evenodd" d="M48.222 33.537C46.078 40.962 38.548 50.831 28.245 56.766C27.6525 57.0351 27.0344 57.2438 26.4 57.389C26.048 57.469 25.6 57.536 25.274 57.58C24.947 57.536 24.5 57.469 24.148 57.389C23.5136 57.2439 22.8955 57.0352 22.303 56.766C12 50.831 4.47001 40.962 2.32701 33.537C0.889381 29.8058 0.380304 25.7811 0.84363 21.8095C1.30696 17.8379 2.72879 14.0385 4.98668 10.7384C7.24457 7.43838 10.2708 4.73667 13.8048 2.86599C17.3387 0.995313 21.2745 0.0117442 25.273 0C29.2718 0.0112592 33.2079 0.994474 36.7422 2.86495C40.2766 4.73542 43.3033 7.43708 45.5615 10.7372C47.8197 14.0373 49.2418 17.8369 49.7053 21.8088C50.1688 25.7806 49.6597 29.8056 48.222 33.537ZM7.10001 29.275C7.10001 29.299 7.10001 29.32 7.10001 29.344H7.03201C7.03201 29.344 5.14501 43.671 21.632 43.878C21.432 27.388 7.10001 29.275 7.10001 29.275ZM43.5 29.34H43.432C43.432 29.316 43.432 29.295 43.432 29.271C43.432 29.271 29.105 27.384 28.898 43.871C45.4 43.668 43.509 29.34 43.509 29.34H43.5Z" fill="#3D0098"/>
</svg>
