<svg xmlns="http://www.w3.org/2000/svg" width="52" height="60" viewBox="0 0 52 60">
  <defs>
    <style>
      .cls-1 {
        fill: #baff00;
        fill-rule: evenodd;
      }
    </style>
  </defs>
  <path id="logotype" class="cls-1" d="M49.222,34.537c-2.144,7.425-9.674,17.294-19.977,23.229a9.685,9.685,0,0,1-1.845.623c-0.352.08-.8,0.147-1.126,0.191-0.327-.044-0.774-0.111-1.126-0.191a9.68,9.68,0,0,1-1.845-.623C13,51.831,5.47,41.962,3.327,34.537A24.668,24.668,0,0,1,26.273,1l0,0,0,0A24.668,24.668,0,0,1,49.222,34.537ZM8.1,30.275c0,0.024,0,.045,0,0.069l-0.068,0s-1.887,14.327,14.6,14.534C22.432,28.388,8.1,30.275,8.1,30.275Zm36.4,0.065-0.068,0c0-.024,0-0.045,0-0.069,0,0-14.327-1.887-14.534,14.6C46.4,44.668,44.509,30.34,44.509,30.34Z"/>
</svg>
