<svg xmlns="http://www.w3.org/2000/svg" width="228" height="267" viewBox="0 0 228 267">
  <defs>
    <style>
      .cls-1 {
        fill: #baff00;
        fill-rule: evenodd;
      }
    </style>
  </defs>
  <path id="logotype" class="cls-1" d="M218.792,155.289c-9.82,34.014-44.316,79.221-91.511,106.408a44.376,44.376,0,0,1-8.45,2.852c-1.616.368-3.662,0.676-5.16,0.877-1.5-.2-3.546-0.509-5.159-0.877a44.3,44.3,0,0,1-8.45-2.852C52.867,234.51,18.37,189.3,8.551,155.289A113,113,0,0,1,113.663,1.669l0.008-.011,0.009,0.011A113,113,0,0,1,218.792,155.289ZM30.438,135.768c0,0.107.013,0.207,0.015,0.315-0.106,0-.2-0.014-0.313-0.017,0,0-8.645,65.631,66.877,66.579C96.07,127.124,30.438,135.768,30.438,135.768Zm166.763,0.3c-0.107,0-.206.013-0.313,0.017,0-.108.013-0.208,0.015-0.315,0,0-65.63-8.644-66.578,66.877C205.846,201.7,197.2,136.066,197.2,136.066Z"/>
</svg>
