<svg xmlns="http://www.w3.org/2000/svg" width="68" height="82" viewBox="0 0 68 82">
  <defs>
    <style>
      .cls-1 {
        fill: #baff00;
        fill-rule: evenodd;
      }
    </style>
  </defs>
  <path id="иконка" class="cls-1" d="M14.438,58.6v0.074a0.253,0.253,0,0,0,.149-0.074H14.438ZM1.07,47.4V47.329c0.814-.859,1.2-1.972,2.763-2.09v0.149c-1.569,1-3.369,2.938-2.614,5.749,0.2,0.751.612,1.509,0.821,2.165V54.5c0.157,0.706.1,1.51,0.3,2.24,0.339,1.27.865,2.405,1.195,3.584,0.267,0.956-.15,1.914,0,2.763H3.684V63.01c0.306-.509.471-2.206,0.9-2.464V60.62a2.094,2.094,0,0,1,.3,2.091c-0.291.7-.789,1.36-1.046,2.165a8.07,8.07,0,0,0,.373,4.48c0.16,0.5.117,1.544,0.523,1.792,0.1-1.868.118-4.332,0.747-5.675H5.626a4.273,4.273,0,0,0,1.046,2.763H6.821V66.37A2.931,2.931,0,0,0,6.9,65.175a1.043,1.043,0,0,1,.3-0.075c0.4,0.763.554,1.791,0.9,2.613a0.254,0.254,0,0,0,.149-0.074,4.594,4.594,0,0,0,.075-0.971,4.74,4.74,0,0,1,.448-1.27c0.353-.571.964-0.967,1.344-1.493a5.071,5.071,0,0,0,.747-3.211h0.224c0.113,1.082.488,1.994,0.523,3.136H11.75c0.1-1.107.545-2.512,0.224-3.808-0.216-.872-0.739-1.588-0.9-2.39h0.149c0.269,0.258,2.61,1.167,3.062.9A4.346,4.346,0,0,1,10.331,54.8H10.48v0.075a1.469,1.469,0,0,1,.149.3H10.7V55.02c-0.41-.636-0.109-2.1-0.3-2.986a13.689,13.689,0,0,1-.448-2.091A3.719,3.719,0,0,1,13.766,47.4v0.149c-0.482.73,0.268,2.718,0.448,3.136a28.158,28.158,0,0,0,1.867,3.584l0.523,1.27c0.37,0.564,1.133.944,1.27,1.717-1.143,1.144-1.6,2.987-2.465,4.406a7.194,7.194,0,0,0-1.195,1.643c-0.227.8,0.35,1.129,0.448,1.643-1.458.925-.381,2.6,0.149,3.808,0.469,1.073,1.275,2.082,1.718,3.136l0.523,1.867c0.389,0.949.889,2.082,1.195,3.061q0.037,0.485.075,0.971c0.249,0.749,1.119.858,1.195,1.493,0.186,0.307.089,0.851,0.3,1.12C20.4,80.935,22,80.664,22.8,80.557a2.392,2.392,0,0,0-.747-1.942l-0.373-.3c-0.148-.305.012-0.641-0.149-0.9L19.965,76a10.476,10.476,0,0,1-.971-2.315,11.847,11.847,0,0,1-1.046-5.152H18.1V68.61a25.383,25.383,0,0,1,2.614,3.584c0.568,0.806,1.33,1.558,1.867,2.389,0.724,1.119.248,2.254,2.166,2.314a1.49,1.49,0,0,0,.672,1.344c0.6,0.562,2.345.271,2.987,0l-0.075-.224a12.094,12.094,0,0,0-1.2-1.493,2.917,2.917,0,0,1-.822-0.6c-0.187-.385-0.016-0.8-0.224-1.12a4.135,4.135,0,0,0-1.494-.822,5.549,5.549,0,0,1-.672-0.672,25.955,25.955,0,0,1-3.435-5.152,9.079,9.079,0,0,1-1.419-2.614c0.822-.644,1.342-1.818,2.241-2.464,3.747-2.695,6.646-5.78,7.842-11.051a10.508,10.508,0,0,0,0-2.464c5.747,0.059,9.663-3.287,12.024-6.646a21.068,21.068,0,0,0,2.016-3.509c0.273-.623.316-1.689,1.195-1.717a0.83,0.83,0,0,0,.6,0l0.747-.075c0.8-.3,1.038-1.082,1.568-1.643,0.386-.408.872-0.723,1.27-1.12,1.028-1.026,1.973-2.092,3.062-3.061,0.57-.508,1.146-1.489,2.017-1.643a7.538,7.538,0,0,0,1.045.971,11.717,11.717,0,0,1,1.792,2.315c0.452,0.782.214,1.871,0.821,2.464-0.063.224-.265,0.431-0.3,0.6l0.149,0.6c-0.046.16-.385,0.378-0.448,0.6a1.806,1.806,0,0,0,.9,1.941,1.709,1.709,0,0,0,1.27.523,0.273,0.273,0,0,1,.149-0.074l0.448-.971,0.149-.9a1.859,1.859,0,0,0,.523-1.195,27.781,27.781,0,0,1-1.419-3.136c-0.43-.828-0.915-1.728-1.419-2.539a4.563,4.563,0,0,1-.672-1.12h0.224a13.173,13.173,0,0,0,2.315.672c1.375,0.58,1.094,1.56,2.987,1.494a2.1,2.1,0,0,0,.3,1.419l0.373,0.224a12.067,12.067,0,0,0,.373,1.493c0.479,0.689,1.963.815,2.913,0.6a1.511,1.511,0,0,0,.224-0.672,4.662,4.662,0,0,1-.3-0.9,7.54,7.54,0,0,0-.821-1.494c-0.42-.565-1.234-0.757-1.643-1.344-0.367-.527-0.3-1.354-0.821-1.717a7.515,7.515,0,0,0-2.016-.6c-1.191-.382-2.426-0.949-3.585-1.419a18.782,18.782,0,0,1-2.39-.747c-0.505-.292-0.511-1-0.821-1.493a3.228,3.228,0,0,0-1.718-1.269,2.051,2.051,0,0,0-1.867.672,18.571,18.571,0,0,1-1.718,1.941c-1.258.936-2.849,1.692-3.585,3.136H44.983V30.156l-0.6-.971-0.6-.3-0.224-1.045a13.383,13.383,0,0,0-1.045-2.315c-0.5-.821-1.439-1.742-1.643-2.762H40.95c0.219,0.17.575,0.14,0.822,0.3a1.867,1.867,0,0,0,1.27.672,4.879,4.879,0,0,1,1.419-.746c1.032-.745.7-1.555,1.046-2.912a4.579,4.579,0,0,0,.3-0.971,14.006,14.006,0,0,1-2.614-4.181,4.625,4.625,0,0,1-.224-1.493v-0.9a21.1,21.1,0,0,1-1.046-2.016c0.08-.056,1.4-1.579,1.419-1.643-0.622-.47-0.239-1.318-0.075-1.942h0.224a3.218,3.218,0,0,0-.075,1.718h0.3a11.739,11.739,0,0,0,1.2-1.046l0.224-1.344a7.8,7.8,0,0,1,.822-1.568H46.1v0.15a4.136,4.136,0,0,0-.822,2.24h0.075a12.834,12.834,0,0,0,1.718-1.419,11.4,11.4,0,0,0,.747-1.718H47.97v0.3a1.753,1.753,0,0,0-.448.971H47.6a12.915,12.915,0,0,0,1.792-1.493l0.448-1.2h0.149V2.752a0.269,0.269,0,0,0-.075.15h0.149A14.143,14.143,0,0,1,51.7,1.333L51.63,1.184a4.949,4.949,0,0,0-1.045.448,2.019,2.019,0,0,1-.448.448,0.358,0.358,0,0,0-.075-0.224,18.563,18.563,0,0,1-1.494,1.12c-0.109-.19.016-0.084-0.224-0.149a12.4,12.4,0,0,1-1.27.821,4.08,4.08,0,0,1-.9.9A0.363,0.363,0,0,0,46.1,4.319a9.04,9.04,0,0,1-1.12.747,5.326,5.326,0,0,1-1.045,1.045c0.006-.3.122-0.178-0.075-0.3a8.3,8.3,0,0,1-1.195.522A5.157,5.157,0,0,1,39.9,7.456c-0.7-.86-3.885-1.713-5.6-1.344l-2.017-.075c-0.233.071-.385,0.292-0.672,0.374a0.74,0.74,0,0,0-.149-0.448V6.037H31.391a1.891,1.891,0,0,1-.6.821,0.471,0.471,0,0,1,0,.6H30.644a2.152,2.152,0,0,0-1.942-.9v0.15h0.075a3.463,3.463,0,0,1,.9.747H29c-0.989-.653-2.334.924-2.838,1.195V8.725h0.075V8.8a4.662,4.662,0,0,1,2.539-.672A0.667,0.667,0,0,0,29,8.352V8.427H28.926c-0.383.44-1.367,0.428-1.942,0.672a5.889,5.889,0,0,0-1.867,1.344l-0.373.523a3.173,3.173,0,0,0-1.046.373h0.747c0.042,0.013.2,0.218,0.224,0.224l0.747-.149a1.37,1.37,0,0,1,.075.448c-0.535.253-2.45,1.433-2.539,2.016a0.209,0.209,0,0,1,.075.075A4.01,4.01,0,0,1,24,13.205l1.494,0.075c-0.029.43-.138,0.633-0.149,1.12a2.488,2.488,0,0,1-.821-0.3v0.224a0.408,0.408,0,0,1,.224.3H24.52a4.194,4.194,0,0,0-.822-0.9v0.224c0.193,0.254.412,0.762,0.6,1.045a1.918,1.918,0,0,0-1.494.972,0.5,0.5,0,0,0-.075.3h0.149a1.473,1.473,0,0,1,1.195-.747v0.15a1.766,1.766,0,0,0-1.195.971H23.1a3.409,3.409,0,0,1,1.344-.6v0.149a4.754,4.754,0,0,0-1.195,1.195h1.12a1.4,1.4,0,0,1,.672-0.15v0.224a3.974,3.974,0,0,1-1.12.821,3.743,3.743,0,0,1-.822,0,0.212,0.212,0,0,0,.075.075c0.184,0.238.59,0.2,0.747,0.448a3.327,3.327,0,0,0-.971,2.539H23.1c0.062-.242-0.037-0.114.149-0.224V21.27a4.577,4.577,0,0,1,.3.672H23.7A2.793,2.793,0,0,1,24.222,20h0.149v0.672a7.514,7.514,0,0,0-.075,1.493,5.392,5.392,0,0,1-.523.971H24a5.27,5.27,0,0,1,.747-0.673v0.449a3.14,3.14,0,0,1-.448.821c-0.753.552-1.306,0.449-1.568,1.568h0.149a1.551,1.551,0,0,1,.9-0.821V24.7a1.363,1.363,0,0,0-.6,1.12,1.464,1.464,0,0,1,.149.3h0.149c0.012-.988.665-1.046,1.195-1.493a2.216,2.216,0,0,1,.6-0.672c0.21,1.538.016,1.293-.672,2.24h0.3a1.54,1.54,0,0,1,.6-0.3v0.224a2.348,2.348,0,0,1-1.419,1.12c-0.277.069-.624,0.011-0.822,0.075v0.149H23.4a2.508,2.508,0,0,0,1.867-.075v0.224a7.205,7.205,0,0,0-.747.821h0.373a2.868,2.868,0,0,1,.747-0.448v0.149a2.531,2.531,0,0,1-.6.821c-0.711.588-1.52-.119-2.091-0.3v0.224a2.475,2.475,0,0,0,.971.747c0.438,0.13,1-.134,1.2.149l-0.523,1.046a5.728,5.728,0,0,1-.822.672,2.742,2.742,0,0,0-.448-0.224V31.5a0.708,0.708,0,0,0,.6.373,0.873,0.873,0,0,1,.373-0.149,2.926,2.926,0,0,0,.075,1.344H24.52a4.572,4.572,0,0,1,.448-1.792h0.149a3.778,3.778,0,0,0,1.046,2.912h0.149V34.038a2.267,2.267,0,0,1-.448-1.27h0.149a0.8,0.8,0,0,0,.3.374V32.769a4.329,4.329,0,0,1,0-1.941h0.149a1.822,1.822,0,0,0,.224.672h0.075q0.075-.6.149-1.195h0.149v0.9a2.7,2.7,0,0,1-.224,2.016h0.149c0.7-1.057.678-1.833,0.672-3.584h0.149v0.075c0.332,0.314.568,0.727,0.9,1.046a2.409,2.409,0,0,1-.523,1.493H28.4a0.527,0.527,0,0,1,.373-0.224v0.3c-0.234.356-.221,0.847-0.448,1.194a5.427,5.427,0,0,0-.523.6H28.03a0.385,0.385,0,0,1,.224-0.075v0.149a4.592,4.592,0,0,1-.971,1.045,2.2,2.2,0,0,0-.971.224c0.351,0.022.529,0.035,0.6,0.373-0.447.293-.706,0.807-1.12,1.12a38.3,38.3,0,0,1-3.137,2.464c-0.636.384-1.807,0.211-2.539,0.448a11.988,11.988,0,0,0-3.137,1.867,7.587,7.587,0,0,0-1.942,2.016c-0.232.374-.19,0.992-0.672,1.121-1.588-2.415-5.394-3.153-9.036-2.315v0.074h0.3c0.579-.394,1.768-0.167,2.539-0.149v0.149c-1.273.115-3.038,0.325-3.659,1.12H4.431V43.82H4.58a2.245,2.245,0,0,1,1.195-.448v0.15H5.7a6.908,6.908,0,0,1-2.315,1.12A5.386,5.386,0,0,0,1,47.4H1.07Z"/>
</svg>
