<svg width="68" height="82" viewBox="0 0 68 82" fill="none" xmlns="http://www.w3.org/2000/svg">
<path fill-rule="evenodd" clip-rule="evenodd" d="M14.438 58.6V58.674C14.4946 58.6668 14.5471 58.6407 14.587 58.6H14.438ZM1.07 47.4V47.329C1.884 46.47 2.27 45.357 3.833 45.239V45.388C2.264 46.388 0.464 48.326 1.219 51.137C1.419 51.888 1.831 52.646 2.04 53.302V54.5C2.197 55.206 2.14 56.01 2.34 56.74C2.679 58.01 3.205 59.145 3.535 60.324C3.802 61.28 3.385 62.238 3.535 63.087H3.684V63.01C3.99 62.501 4.155 60.804 4.584 60.546V60.62C4.81484 60.9107 4.96428 61.2575 5.01699 61.6249C5.06971 61.9923 5.02381 62.3671 4.884 62.711C4.593 63.411 4.095 64.071 3.838 64.876C3.53549 66.3745 3.66484 67.9281 4.211 69.356C4.371 69.856 4.328 70.9 4.734 71.148C4.834 69.28 4.852 66.816 5.481 65.473H5.626C5.63506 66.4891 6.0059 67.4687 6.672 68.236H6.821V66.37C6.9293 65.9813 6.95619 65.5745 6.9 65.175C6.99572 65.1352 7.09683 65.1099 7.2 65.1C7.6 65.863 7.754 66.891 8.1 67.713C8.15657 67.7057 8.20905 67.6797 8.249 67.639C8.30833 67.3189 8.33348 66.9934 8.324 66.668C8.41213 66.2255 8.56298 65.7978 8.772 65.398C9.125 64.827 9.736 64.431 10.116 63.905C10.7157 62.9477 10.9786 61.8177 10.863 60.694H11.087C11.2 61.776 11.575 62.688 11.61 63.83H11.75C11.85 62.723 12.295 61.318 11.974 60.022C11.758 59.15 11.235 58.434 11.074 57.632H11.223C11.492 57.89 13.833 58.799 14.285 58.532C13.2998 58.4523 12.3711 58.0391 11.6523 57.3607C10.9335 56.6822 10.4674 55.779 10.331 54.8H10.48V54.875C10.5409 54.969 10.5909 55.0696 10.629 55.175H10.7V55.02C10.29 54.384 10.591 52.92 10.4 52.034C10.1964 51.3497 10.0466 50.6506 9.952 49.943C10.2123 49.154 10.7293 48.4749 11.4206 48.014C12.1119 47.5531 12.9376 47.3369 13.766 47.4V47.549C13.284 48.279 14.034 50.267 14.214 50.685C14.7497 51.9228 15.3736 53.1206 16.081 54.269L16.604 55.539C16.974 56.103 17.737 56.483 17.874 57.256C16.731 58.4 16.274 60.243 15.409 61.662C14.935 62.1504 14.5326 62.7036 14.214 63.305C13.987 64.105 14.564 64.434 14.662 64.948C13.204 65.873 14.281 67.548 14.811 68.756C15.28 69.829 16.086 70.838 16.529 71.892L17.052 73.759C17.441 74.708 17.941 75.841 18.247 76.82C18.2717 77.1433 18.2967 77.467 18.322 77.791C18.571 78.54 19.441 78.649 19.517 79.284C19.703 79.591 19.606 80.135 19.817 80.404C20.4 80.935 22 80.664 22.8 80.557C22.8298 80.1979 22.7781 79.8368 22.6487 79.5005C22.5194 79.1642 22.3157 78.8615 22.053 78.615L21.68 78.315C21.532 78.01 21.692 77.674 21.531 77.415L19.965 76C19.5497 75.27 19.2237 74.4928 18.994 73.685C18.2639 72.0677 17.9064 70.307 17.948 68.533H18.1V68.61C19.0743 69.7261 19.9489 70.9253 20.714 72.194C21.282 73 22.044 73.752 22.581 74.583C23.305 75.702 22.829 76.837 24.747 76.897C24.7299 77.1605 24.7831 77.4238 24.9012 77.6599C25.0192 77.8961 25.198 78.0966 25.419 78.241C26.019 78.803 27.764 78.512 28.406 78.241L28.331 78.017C27.9711 77.4884 27.5698 76.9892 27.131 76.524C26.824 76.3737 26.5457 76.1706 26.309 75.924C26.122 75.539 26.293 75.124 26.085 74.804C25.6495 74.4292 25.1407 74.1492 24.591 73.982C24.3482 73.7776 24.1234 73.5528 23.919 73.31C22.5725 71.7359 21.4193 70.0062 20.484 68.158C19.8705 67.3706 19.3911 66.4874 19.065 65.544C19.887 64.9 20.407 63.726 21.306 63.08C25.053 60.385 27.952 57.3 29.148 52.029C29.2446 51.2105 29.2446 50.3835 29.148 49.565C34.895 49.624 38.811 46.278 41.172 42.919C41.955 41.8167 42.6302 40.6416 43.188 39.41C43.461 38.787 43.504 37.721 44.383 37.693C44.576 37.7678 44.79 37.7678 44.983 37.693L45.73 37.618C46.53 37.318 46.768 36.536 47.298 35.975C47.684 35.567 48.17 35.252 48.568 34.855C49.596 33.829 50.541 32.763 51.63 31.794C52.2 31.286 52.776 30.305 53.647 30.151C53.9639 30.507 54.3138 30.8321 54.692 31.122C55.3838 31.8157 55.9858 32.5934 56.484 33.437C56.936 34.219 56.698 35.308 57.305 35.901C57.242 36.125 57.04 36.332 57.005 36.501L57.154 37.101C57.108 37.261 56.769 37.479 56.706 37.701C56.6296 38.0782 56.6757 38.4699 56.8376 38.8191C56.9995 39.1683 57.2687 39.4566 57.606 39.642C57.77 39.8123 57.9675 39.9467 58.1861 40.0367C58.4048 40.1267 58.6396 40.1704 58.876 40.165C58.9168 40.1254 58.9688 40.0996 59.025 40.091L59.473 39.12L59.622 38.22C59.935 37.8979 60.1207 37.4734 60.145 37.025C59.6076 36.01 59.1337 34.9627 58.726 33.889C58.296 33.061 57.811 32.161 57.307 31.35C57.0304 31.0108 56.8041 30.6336 56.635 30.23H56.859C57.6085 30.5243 58.3834 30.7492 59.174 30.902C60.549 31.482 60.268 32.462 62.161 32.396C62.0893 32.8896 62.1956 33.3926 62.461 33.815L62.834 34.039C62.9264 34.5441 63.051 35.0428 63.207 35.532C63.686 36.221 65.17 36.347 66.12 36.132C66.2469 35.9289 66.3236 35.6986 66.344 35.46C66.2137 35.171 66.1131 34.8694 66.044 34.56C65.8277 34.0326 65.5523 33.5314 65.223 33.066C64.803 32.501 63.989 32.309 63.58 31.722C63.213 31.195 63.28 30.368 62.759 30.005C62.1184 29.7115 61.4398 29.5095 60.743 29.405C59.552 29.023 58.317 28.456 57.158 27.986C56.3456 27.7904 55.5472 27.5409 54.768 27.239C54.263 26.947 54.257 26.239 53.947 25.746C53.5349 25.1403 52.9291 24.6928 52.229 24.477C51.8864 24.4219 51.5354 24.4547 51.2088 24.5722C50.8823 24.6897 50.5909 24.8882 50.362 25.149C49.8352 25.8352 49.2612 26.4838 48.644 27.09C47.386 28.026 45.795 28.782 45.059 30.226H44.983V30.156L44.383 29.185L43.783 28.885L43.559 27.84C43.2848 27.0369 42.9349 26.2618 42.514 25.525C42.014 24.704 41.075 23.783 40.871 22.763H40.95C41.169 22.933 41.525 22.903 41.772 23.063C41.9288 23.2533 42.1218 23.4107 42.3398 23.5261C42.5577 23.6414 42.7964 23.7124 43.042 23.735C43.4706 23.4098 43.9501 23.1577 44.461 22.989C45.493 22.244 45.161 21.434 45.507 20.077C45.6427 19.7655 45.7433 19.4398 45.807 19.106C44.6953 17.8779 43.8102 16.4623 43.193 14.925C43.0371 14.443 42.9614 13.9386 42.969 13.432V12.532C42.5844 11.8793 42.2352 11.2063 41.923 10.516C42.003 10.46 43.323 8.93699 43.342 8.87299C42.72 8.40299 43.103 7.55499 43.267 6.93099H43.491C43.3106 7.48625 43.2847 8.08012 43.416 8.64899H43.716C44.1392 8.32788 44.5401 7.97841 44.916 7.60299L45.14 6.25899C45.3536 5.70682 45.6294 5.18077 45.962 4.69099H46.1V4.84099C45.6119 5.49069 45.326 6.26979 45.278 7.08099H45.353C45.9657 6.65869 46.5406 6.1839 47.071 5.66199C47.3667 5.11079 47.6166 4.53618 47.818 3.94399H47.97V4.24399C47.7232 4.5131 47.5666 4.85256 47.522 5.21499H47.6C48.2411 4.77239 48.8409 4.27269 49.392 3.72199L49.84 2.52199H49.989V2.75199C49.9487 2.79272 49.9224 2.84528 49.914 2.90199H50.063C50.5658 2.33602 51.1132 1.81133 51.7 1.33299L51.63 1.18399C51.2656 1.29268 50.915 1.44301 50.585 1.63199C50.4602 1.80397 50.309 1.95516 50.137 2.07999C50.1381 1.99899 50.1116 1.92002 50.062 1.85599C49.5831 2.25415 49.0845 2.62796 48.568 2.97599C48.459 2.78599 48.584 2.89199 48.344 2.82699C47.9378 3.12624 47.5136 3.40042 47.074 3.64799C46.8229 3.99323 46.5192 4.29692 46.174 4.54799C46.1761 4.46546 46.15 4.38469 46.1 4.31899C45.7458 4.59548 45.3714 4.84517 44.98 5.06599C44.6819 5.46119 44.3302 5.81291 43.935 6.11099C43.941 5.81099 44.057 5.93299 43.86 5.81099C43.476 6.01606 43.0764 6.1906 42.665 6.33299C41.8742 6.97166 40.9122 7.36235 39.9 7.45599C39.2 6.59599 36.015 5.74299 34.3 6.11199L32.283 6.03699C32.05 6.10799 31.898 6.32899 31.611 6.41099C31.6116 6.24939 31.5593 6.09205 31.462 5.96299V6.03699H31.391C31.2697 6.36031 31.0622 6.64424 30.791 6.85799C30.8607 6.94241 30.8989 7.04849 30.8989 7.15799C30.8989 7.26749 30.8607 7.37357 30.791 7.45799H30.644C30.427 7.15159 30.1335 6.90731 29.7928 6.74943C29.4521 6.59154 29.0761 6.52554 28.702 6.55799V6.70799H28.777C29.1172 6.90416 29.4215 7.15676 29.677 7.45499H29C28.011 6.80199 26.666 8.37899 26.162 8.64999V8.72499H26.237V8.79999C27.0014 8.33729 27.8828 8.10404 28.776 8.12799C28.8316 8.21956 28.9084 8.2964 29 8.35199V8.42699H28.926C28.543 8.86699 27.559 8.85499 26.984 9.09899C26.2794 9.4199 25.6449 9.87661 25.117 10.443L24.744 10.966C24.3761 11.0279 24.022 11.1541 23.698 11.339H24.445C24.487 11.352 24.645 11.557 24.669 11.563L25.416 11.414C25.4658 11.5581 25.4911 11.7095 25.491 11.862C24.956 12.115 23.041 13.295 22.952 13.878C22.983 13.8961 23.0089 13.922 23.027 13.953C23.311 13.6552 23.6392 13.4029 24 13.205L25.494 13.28C25.465 13.71 25.356 13.913 25.345 14.4C25.0558 14.3492 24.7778 14.2477 24.524 14.1V14.324C24.5826 14.3525 24.6335 14.3946 24.6724 14.4468C24.7114 14.499 24.7373 14.5597 24.748 14.624H24.52C24.2913 14.2856 24.0144 13.9824 23.698 13.724V13.948C23.891 14.202 24.11 14.71 24.298 14.993C23.9889 15.022 23.6915 15.1256 23.4312 15.2949C23.171 15.4642 22.9558 15.6942 22.804 15.965C22.7479 16.0546 22.7217 16.1596 22.729 16.265H22.878C22.9989 16.0505 23.1716 15.8698 23.3804 15.7393C23.5891 15.6088 23.8273 15.5327 24.073 15.518V15.668C23.8134 15.7291 23.5711 15.8482 23.3641 16.0164C23.1571 16.1846 22.9909 16.3974 22.878 16.639H23.1C23.499 16.3435 23.9577 16.1387 24.444 16.039V16.188C23.9775 16.5118 23.5728 16.9165 23.249 17.383H24.369C24.577 17.2778 24.808 17.2263 25.041 17.233V17.457C24.7187 17.7943 24.3396 18.0722 23.921 18.278C23.6478 18.3082 23.3722 18.3082 23.099 18.278C23.1172 18.3089 23.143 18.3347 23.174 18.353C23.358 18.591 23.764 18.553 23.921 18.801C23.5895 19.132 23.3317 19.5293 23.1644 19.9668C22.997 20.4043 22.924 20.8723 22.95 21.34H23.1C23.162 21.098 23.063 21.226 23.249 21.116V21.27C23.3669 21.4856 23.4672 21.7103 23.549 21.942H23.7C23.6268 21.2523 23.8129 20.5601 24.222 20H24.371V20.672C24.2964 21.1659 24.2713 21.6661 24.296 22.165C24.1553 22.5057 23.9801 22.8311 23.773 23.136H24C24.227 22.8884 24.4771 22.663 24.747 22.463V22.912C24.6395 23.2065 24.4885 23.4832 24.299 23.733C23.546 24.285 22.993 24.182 22.731 25.301H22.88C22.9668 25.1105 23.0913 24.9395 23.246 24.7984C23.4007 24.6573 23.5823 24.549 23.78 24.48V24.7C23.5966 24.8239 23.4461 24.9907 23.3415 25.1858C23.237 25.3809 23.1815 25.5986 23.18 25.82C23.241 25.914 23.291 26.0146 23.329 26.12H23.478C23.49 25.132 24.143 25.074 24.673 24.627C24.8249 24.3643 25.0291 24.1355 25.273 23.955C25.483 25.493 25.289 25.248 24.601 26.195H24.901C25.0765 26.0521 25.2814 25.9497 25.501 25.895V26.119C25.3502 26.3902 25.1472 26.6288 24.9036 26.821C24.66 27.0133 24.3808 27.1553 24.082 27.239C23.805 27.308 23.458 27.25 23.26 27.314V27.463H23.4C24.0088 27.6794 24.6776 27.6525 25.267 27.388V27.612C24.9973 27.866 24.7475 28.1405 24.52 28.433H24.893C25.1177 28.2465 25.3696 28.0954 25.64 27.985V28.134C25.4976 28.4454 25.2935 28.7247 25.04 28.955C24.329 29.543 23.52 28.836 22.949 28.655V28.879C23.205 29.2054 23.5388 29.4623 23.92 29.626C24.358 29.756 24.92 29.492 25.12 29.775L24.597 30.821C24.3444 31.07 24.0692 31.2949 23.775 31.493C23.6328 31.4048 23.4829 31.3298 23.327 31.269V31.5C23.3856 31.6093 23.4719 31.7012 23.5772 31.7667C23.6824 31.8321 23.8031 31.8688 23.927 31.873C24.0381 31.795 24.1658 31.744 24.3 31.724C24.2202 32.1717 24.2459 32.6319 24.375 33.068H24.52C24.5459 32.4464 24.6983 31.8366 24.968 31.276H25.117C25.0759 31.8077 25.1479 32.3421 25.3282 32.844C25.5085 33.3459 25.793 33.8039 26.163 34.188H26.312V34.038C26.0375 33.6698 25.8812 33.2269 25.864 32.768H26.013C26.0724 32.9204 26.1771 33.0509 26.313 33.142V32.769C26.1661 32.1303 26.1661 31.4666 26.313 30.828H26.462C26.492 31.0645 26.5681 31.2928 26.686 31.5H26.761C26.811 31.1 26.8607 30.7017 26.91 30.305H27.059V31.205C27.2492 31.8806 27.1688 32.6036 26.835 33.221H26.984C27.684 32.164 27.662 31.388 27.656 29.637H27.805V29.712C28.137 30.026 28.373 30.439 28.705 30.758C28.7037 31.3003 28.5194 31.8264 28.182 32.251H28.4C28.4426 32.1893 28.498 32.1373 28.5623 32.0987C28.6266 32.0601 28.6985 32.0356 28.773 32.027V32.327C28.539 32.683 28.552 33.174 28.325 33.521C28.1362 33.7079 27.9614 33.9085 27.802 34.121H28.03C28.095 34.0731 28.1733 34.0469 28.254 34.046V34.195C27.9867 34.5918 27.6591 34.9444 27.283 35.24C26.9465 35.2394 26.6143 35.316 26.312 35.464C26.663 35.486 26.841 35.499 26.912 35.837C26.465 36.13 26.206 36.644 25.792 36.957C24.7898 37.8323 23.7428 38.6547 22.655 39.421C22.019 39.805 20.848 39.632 20.116 39.869C18.9812 40.3275 17.9232 40.9572 16.979 41.736C16.2122 42.2817 15.5537 42.9654 15.037 43.752C14.805 44.126 14.847 44.744 14.365 44.873C12.777 42.458 8.971 41.72 5.329 42.558V42.632H5.629C6.208 42.238 7.397 42.465 8.168 42.483V42.632C6.895 42.747 5.13 42.957 4.509 43.752H4.431V43.82H4.58C4.92661 43.5582 5.34171 43.4026 5.775 43.372V43.522H5.7C5.00524 44.0369 4.21997 44.4169 3.385 44.642C2.29353 45.2561 1.45017 46.2313 1 47.4H1.07Z" fill="black"/>
</svg>
