<svg width="35" height="35" viewBox="0 0 35 35" fill="none" xmlns="http://www.w3.org/2000/svg">
<path d="M30.625 2.1875H17.5C16.92 2.18808 16.364 2.41873 15.9538 2.82884C15.5437 3.23895 15.3131 3.79502 15.3125 4.375V15.3125H4.375C3.79502 15.3131 3.23895 15.5437 2.82884 15.9538C2.41873 16.364 2.18808 16.92 2.1875 17.5V32.8125H32.8125V4.375C32.8119 3.79502 32.5813 3.23895 32.1712 2.82884C31.761 2.41873 31.205 2.18808 30.625 2.1875ZM9.84375 30.625V22.9688H14.2188V30.625H9.84375ZM30.625 30.625H16.4062V21.875C16.4062 21.5849 16.291 21.3067 16.0859 21.1016C15.8808 20.8965 15.6026 20.7812 15.3125 20.7812H8.75C8.45992 20.7812 8.18172 20.8965 7.9766 21.1016C7.77148 21.3067 7.65625 21.5849 7.65625 21.875V30.625H4.375V17.5H17.5V4.375H30.625V30.625Z" fill="#FF5555"/>
<path d="M19.6875 8.75H21.875V10.9375H19.6875V8.75ZM26.25 8.75H28.4375V10.9375H26.25V8.75ZM19.6875 15.3125H21.875V17.5H19.6875V15.3125ZM26.25 15.3125H28.4375V17.5H26.25V15.3125ZM19.6875 21.875H21.875V24.0625H19.6875V21.875ZM26.25 21.875H28.4375V24.0625H26.25V21.875Z" fill="#FF5555"/>
</svg>
