<svg width="32" height="21" viewBox="0 0 32 21" fill="none" xmlns="http://www.w3.org/2000/svg">
<path d="M31.2442 9.20937L19.7775 0.389936C19.4502 0.138185 19.014 0 18.5488 0C18.0831 0 17.6471 0.138384 17.3198 0.389936L16.2787 1.19085C15.9516 1.44221 15.7714 1.77794 15.7714 2.13591C15.7714 2.49369 15.9516 2.84074 16.2787 3.09209L22.9682 8.24843H1.71535C0.75713 8.24843 0 8.82539 0 9.56258V10.6949C0 11.432 0.75713 12.0672 1.71535 12.0672H23.0441L16.2789 17.2523C15.9519 17.5041 15.7717 17.8307 15.7717 18.1886C15.7717 18.5462 15.9519 18.8776 16.2789 19.1291L17.32 19.9275C17.6473 20.1792 18.0834 20.3164 18.549 20.3164C19.0142 20.3164 19.4505 20.1774 19.7778 19.9257L31.2445 11.1064C31.5726 10.8539 31.753 10.5168 31.7517 10.1584C31.7527 9.79884 31.5726 9.46152 31.2442 9.20937Z" fill="white" fill-opacity="0.85"/>
</svg>
