<svg width="21" height="21" viewBox="0 0 21 21" fill="none" xmlns="http://www.w3.org/2000/svg">
<path d="M20.7858 10.1821L0.560159 0.0403182C0.477951 -0.000790608 0.383653 -0.0104632 0.294192 0.0113003C0.0886714 0.0620817 -0.0394767 0.270044 0.0112989 0.478006L2.09552 8.99478C2.12695 9.12294 2.22125 9.22692 2.34698 9.26803L5.91819 10.494L2.34939 11.72C2.22366 11.7636 2.12937 11.8651 2.10035 11.9933L0.0112989 20.5222C-0.010462 20.6116 -0.000790385 20.7059 0.0403137 20.7857C0.134611 20.9768 0.366728 21.0542 0.560159 20.9599L20.7858 10.8761C20.8607 10.8398 20.9212 10.777 20.9599 10.7044C21.0542 10.511 20.9768 10.2788 20.7858 10.1821ZM2.39533 18.0992L3.61153 13.1274L10.7491 10.6778C10.8047 10.6585 10.8507 10.6149 10.87 10.5569C10.9039 10.4553 10.8507 10.3465 10.7491 10.3103L3.61153 7.86308L2.40017 2.91068L17.5845 10.5255L2.39533 18.0992Z" fill="#777E8C"/>
</svg>
