<svg width="24" height="24" viewBox="0 0 24 24" fill="none" xmlns="http://www.w3.org/2000/svg">
<path d="M11.0002 12.0001V13.0001H10.0002C9.73498 13.0001 9.48063 13.1055 9.2931 13.293C9.10556 13.4805 9.0002 13.7349 9.0002 14.0001C9.0002 14.2653 9.10556 14.5197 9.2931 14.7072C9.48063 14.8948 9.73498 15.0001 10.0002 15.0001H11.0002V16.0001C11.0002 16.2653 11.1056 16.5197 11.2931 16.7072C11.4806 16.8948 11.735 17.0001 12.0002 17.0001C12.2654 17.0001 12.5198 16.8948 12.7073 16.7072C12.8948 16.5197 13.0002 16.2653 13.0002 16.0001V15.0001H14.0002C14.2654 15.0001 14.5198 14.8948 14.7073 14.7072C14.8948 14.5197 15.0002 14.2653 15.0002 14.0001C15.0002 13.7349 14.8948 13.4805 14.7073 13.293C14.5198 13.1055 14.2654 13.0001 14.0002 13.0001H13.0002V12.0001C13.0002 11.7349 12.8948 11.4805 12.7073 11.293C12.5198 11.1055 12.2654 11.0001 12.0002 11.0001C11.735 11.0001 11.4806 11.1055 11.2931 11.293C11.1056 11.4805 11.0002 11.7349 11.0002 12.0001ZM21.6642 10.2521L12.6642 2.25212C12.4813 2.0894 12.245 1.99951 12.0002 1.99951C11.7554 1.99951 11.5191 2.0894 11.3362 2.25212L2.3362 10.2521C2.13782 10.4282 2.01752 10.6759 2.00177 10.9407C1.98601 11.2055 2.0761 11.4657 2.2522 11.6641C2.42831 11.8625 2.676 11.9828 2.9408 11.9986C3.20561 12.0143 3.46582 11.9242 3.6642 11.7481L4.0002 11.4491V21.0001C4.0002 21.2653 4.10556 21.5197 4.29309 21.7072C4.48063 21.8948 4.73498 22.0001 5.0002 22.0001H19.0002C19.2654 22.0001 19.5198 21.8948 19.7073 21.7072C19.8948 21.5197 20.0002 21.2653 20.0002 21.0001V11.4491L20.3362 11.7481C20.5346 11.9242 20.7948 12.0143 21.0596 11.9986C21.1907 11.9908 21.319 11.9572 21.4372 11.8998C21.5553 11.8424 21.661 11.7623 21.7482 11.6641C21.8354 11.5659 21.9024 11.4514 21.9454 11.3273C21.9883 11.2032 22.0064 11.0718 21.9986 10.9407C21.9908 10.8096 21.9573 10.6813 21.8999 10.5632C21.8425 10.445 21.7624 10.3393 21.6642 10.2521ZM18.0002 20.0001H6.0002V9.67112L12.0002 4.33812L18.0002 9.67112V20.0001Z" fill="white"/>
</svg>
