<svg width="16" height="16" viewBox="0 0 16 16" fill="none" xmlns="http://www.w3.org/2000/svg">
<path d="M13.5999 0H3.41537C2.8539 0.000187123 2.31025 0.197207 1.87904 0.55678C1.44782 0.916353 1.15632 1.41572 1.05525 1.968L0.0392022 7.56798C-0.0241063 7.91393 -0.0106045 8.26957 0.0787519 8.60972C0.168108 8.94988 0.331135 9.26624 0.556297 9.53642C0.781458 9.8066 1.06325 10.024 1.38173 10.1732C1.70022 10.3224 2.04761 10.3999 2.39932 10.4H6.0475L5.59948 11.544C5.41313 12.0449 5.35106 12.5835 5.41862 13.1136C5.48618 13.6438 5.68133 14.1496 5.98735 14.5878C6.29337 15.0259 6.70111 15.3833 7.17561 15.6293C7.6501 15.8753 8.17718 16.0024 8.71164 16C8.86553 15.9996 9.01607 15.9549 9.1452 15.8712C9.27433 15.7875 9.37658 15.6683 9.43967 15.528L11.7198 10.4H13.5999C14.2364 10.4 14.8469 10.1471 15.297 9.69703C15.7471 9.24695 16 8.6365 16 7.99998V2.39999C16 1.76348 15.7471 1.15303 15.297 0.702942C14.8469 0.252856 14.2364 0 13.5999 0ZM10.3997 9.43198L8.22361 14.328C8.00095 14.2606 7.79445 14.1484 7.61681 13.9982C7.43918 13.848 7.29418 13.663 7.19075 13.4546C7.08731 13.2463 7.02764 13.019 7.01539 12.7867C7.00315 12.5544 7.0386 12.322 7.11956 12.104L7.54358 10.96C7.63393 10.7182 7.66443 10.4581 7.63248 10.202C7.60053 9.94581 7.50708 9.70119 7.3601 9.48899C7.21312 9.27678 7.01698 9.10329 6.78841 8.98331C6.55985 8.86333 6.30565 8.80043 6.0475 8.79998H2.39932C2.28179 8.80017 2.16565 8.77446 2.05918 8.72469C1.95271 8.67491 1.85851 8.60229 1.78329 8.51198C1.70622 8.42292 1.64976 8.31795 1.61796 8.20455C1.58615 8.09115 1.57977 7.97213 1.59928 7.85598L2.61533 2.256C2.64941 2.06963 2.74853 1.90141 2.89503 1.78128C3.04154 1.66115 3.22593 1.59691 3.41537 1.6H10.3997V9.43198ZM14.3999 7.99998C14.3999 8.21216 14.3156 8.41564 14.1656 8.56567C14.0156 8.7157 13.8121 8.79998 13.5999 8.79998H11.9998V1.6H13.5999C13.8121 1.6 14.0156 1.68428 14.1656 1.83431C14.3156 1.98434 14.3999 2.18782 14.3999 2.39999V7.99998Z" fill="#FF5555"/>
</svg>
