<svg width="18" height="18" viewBox="0 0 18 18" fill="none" xmlns="http://www.w3.org/2000/svg">
<path d="M15.75 4.5C15.5511 4.5 15.3603 4.57902 15.2197 4.71967C15.079 4.86032 15 5.05109 15 5.25V12.75C15 13.3467 14.7629 13.919 14.341 14.341C13.919 14.7629 13.3467 15 12.75 15H5.25C5.05109 15 4.86032 15.079 4.71967 15.2197C4.57902 15.3603 4.5 15.5511 4.5 15.75C4.5 15.9489 4.57902 16.1397 4.71967 16.2803C4.86032 16.421 5.05109 16.5 5.25 16.5H12.75C13.7446 16.5 14.6984 16.1049 15.4017 15.4017C16.1049 14.6984 16.5 13.7446 16.5 12.75V5.25C16.5 5.05109 16.421 4.86032 16.2803 4.71967C16.1397 4.57902 15.9489 4.5 15.75 4.5ZM13.5 11.25V3.75C13.5 3.15326 13.2629 2.58097 12.841 2.15901C12.419 1.73705 11.8467 1.5 11.25 1.5H3.75C3.15326 1.5 2.58097 1.73705 2.15901 2.15901C1.73705 2.58097 1.5 3.15326 1.5 3.75V11.25C1.5 11.8467 1.73705 12.419 2.15901 12.841C2.58097 13.2629 3.15326 13.5 3.75 13.5H11.25C11.8467 13.5 12.419 13.2629 12.841 12.841C13.2629 12.419 13.5 11.8467 13.5 11.25V11.25ZM7.5 3H9V6.645L8.73 6.42C8.59523 6.30775 8.42539 6.24628 8.25 6.24628C8.07461 6.24628 7.90477 6.30775 7.77 6.42L7.5 6.645V3ZM3 11.25V3.75C3 3.55109 3.07902 3.36032 3.21967 3.21967C3.36032 3.07902 3.55109 3 3.75 3H6V8.25C5.99999 8.39337 6.04108 8.53375 6.11839 8.65449C6.1957 8.77523 6.30601 8.87128 6.43623 8.93126C6.56645 8.99124 6.71114 9.01264 6.85315 8.99292C6.99516 8.9732 7.12855 8.91319 7.2375 8.82L8.25 7.9725L9.2625 8.82C9.39836 8.93618 9.57124 9.00001 9.75 9C9.85851 8.99923 9.96571 8.97626 10.065 8.9325C10.1952 8.87225 10.3054 8.77593 10.3825 8.65496C10.4596 8.53399 10.5004 8.39345 10.5 8.25V3H11.25C11.4489 3 11.6397 3.07902 11.7803 3.21967C11.921 3.36032 12 3.55109 12 3.75V11.25C12 11.4489 11.921 11.6397 11.7803 11.7803C11.6397 11.921 11.4489 12 11.25 12H3.75C3.55109 12 3.36032 11.921 3.21967 11.7803C3.07902 11.6397 3 11.4489 3 11.25Z" fill="#515687"/>
</svg>
