<svg width="14" height="14" viewBox="0 0 14 14" fill="none" xmlns="http://www.w3.org/2000/svg">
<path d="M12.664 11.8357L10.4998 9.68899C11.3399 8.64156 11.7467 7.31208 11.6366 5.97391C11.5266 4.63575 10.908 3.39061 9.90804 2.49453C8.90812 1.59845 7.60288 1.11954 6.26069 1.15626C4.91851 1.19299 3.64141 1.74257 2.69199 2.69199C1.74257 3.64141 1.19299 4.91851 1.15626 6.26069C1.11954 7.60288 1.59845 8.90812 2.49453 9.90804C3.39061 10.908 4.63575 11.5266 5.97391 11.6366C7.31208 11.7467 8.64156 11.3399 9.68899 10.4998L11.8357 12.6465C11.8899 12.7012 11.9544 12.7446 12.0255 12.7742C12.0966 12.8038 12.1728 12.819 12.2498 12.819C12.3268 12.819 12.4031 12.8038 12.4742 12.7742C12.5452 12.7446 12.6098 12.7012 12.664 12.6465C12.7691 12.5377 12.8279 12.3924 12.8279 12.2411C12.8279 12.0898 12.7691 11.9444 12.664 11.8357ZM6.41649 10.4998C5.60888 10.4998 4.81941 10.2603 4.14791 9.81166C3.47641 9.36297 2.95304 8.72524 2.64398 7.97911C2.33492 7.23298 2.25406 6.41196 2.41162 5.61987C2.56917 4.82778 2.95807 4.1002 3.52914 3.52914C4.1002 2.95807 4.82778 2.56917 5.61987 2.41162C6.41196 2.25406 7.23298 2.33492 7.97911 2.64398C8.72524 2.95304 9.36297 3.47641 9.81166 4.14791C10.2603 4.81941 10.4998 5.60888 10.4998 6.41649C10.4998 7.49946 10.0696 8.53807 9.30384 9.30384C8.53807 10.0696 7.49946 10.4998 6.41649 10.4998Z" fill="#777E8C"/>
</svg>
