<svg width="14" height="14" viewBox="0 0 14 14" fill="none" xmlns="http://www.w3.org/2000/svg">
<path d="M12.7871 6.76683C11.6087 4.031 9.39207 2.3335 7.00041 2.3335C4.60874 2.3335 2.39207 4.031 1.21374 6.76683C1.18162 6.84043 1.16504 6.91986 1.16504 7.00016C1.16504 7.08046 1.18162 7.1599 1.21374 7.2335C2.39207 9.96933 4.60874 11.6668 7.00041 11.6668C9.39207 11.6668 11.6087 9.96933 12.7871 7.2335C12.8192 7.1599 12.8358 7.08046 12.8358 7.00016C12.8358 6.91986 12.8192 6.84043 12.7871 6.76683ZM7.00041 10.5002C5.15124 10.5002 3.40124 9.16433 2.39207 7.00016C3.40124 4.836 5.15124 3.50016 7.00041 3.50016C8.84957 3.50016 10.5996 4.836 11.6087 7.00016C10.5996 9.16433 8.84957 10.5002 7.00041 10.5002ZM7.00041 4.66683C6.53892 4.66683 6.08779 4.80368 5.70408 5.06007C5.32036 5.31646 5.02129 5.68087 4.84469 6.10723C4.66808 6.5336 4.62187 7.00275 4.71191 7.45537C4.80194 7.908 5.02417 8.32376 5.35049 8.65008C5.67681 8.9764 6.09257 9.19863 6.54519 9.28866C6.99782 9.37869 7.46697 9.33249 7.89333 9.15588C8.31969 8.97928 8.68411 8.68021 8.9405 8.29649C9.19689 7.91278 9.33374 7.46165 9.33374 7.00016C9.33374 6.38132 9.08791 5.78783 8.65032 5.35025C8.21274 4.91266 7.61924 4.66683 7.00041 4.66683ZM7.00041 8.16683C6.76966 8.16683 6.5441 8.09841 6.35224 7.97021C6.16038 7.84202 6.01085 7.65981 5.92255 7.44663C5.83424 7.23345 5.81114 6.99887 5.85616 6.77256C5.90117 6.54625 6.01229 6.33837 6.17545 6.1752C6.33861 6.01204 6.54649 5.90093 6.7728 5.85591C6.99911 5.8109 7.23369 5.834 7.44687 5.9223C7.66005 6.01061 7.84226 6.16014 7.97045 6.352C8.09865 6.54385 8.16707 6.76942 8.16707 7.00016C8.16707 7.30958 8.04416 7.60633 7.82536 7.82512C7.60657 8.04391 7.30982 8.16683 7.00041 8.16683Z" fill="#1E2139"/>
</svg>
