<svg width="14" height="14" viewBox="0 0 14 14" fill="none" xmlns="http://www.w3.org/2000/svg">
<path d="M12.2501 7.00005C12.0954 7.00005 11.947 7.0615 11.8376 7.1709C11.7282 7.2803 11.6667 7.42867 11.6667 7.58338V11.0834C11.6667 11.2381 11.6053 11.3865 11.4959 11.4959C11.3865 11.6053 11.2381 11.6667 11.0834 11.6667H2.91675C2.76204 11.6667 2.61367 11.6053 2.50427 11.4959C2.39487 11.3865 2.33341 11.2381 2.33341 11.0834V2.91671C2.33341 2.762 2.39487 2.61363 2.50427 2.50423C2.61367 2.39484 2.76204 2.33338 2.91675 2.33338H6.41675C6.57146 2.33338 6.71983 2.27192 6.82923 2.16252C6.93862 2.05313 7.00008 1.90476 7.00008 1.75005C7.00008 1.59534 6.93862 1.44696 6.82923 1.33757C6.71983 1.22817 6.57146 1.16671 6.41675 1.16671H2.91675C2.45262 1.16671 2.0075 1.35109 1.67931 1.67928C1.35112 2.00746 1.16675 2.45258 1.16675 2.91671V11.0834C1.16675 11.5475 1.35112 11.9926 1.67931 12.3208C2.0075 12.649 2.45262 12.8334 2.91675 12.8334H11.0834C11.5475 12.8334 11.9927 12.649 12.3209 12.3208C12.649 11.9926 12.8334 11.5475 12.8334 11.0834V7.58338C12.8334 7.42867 12.772 7.2803 12.6626 7.1709C12.5532 7.0615 12.4048 7.00005 12.2501 7.00005ZM3.50008 7.44338V9.91671C3.50008 10.0714 3.56154 10.2198 3.67094 10.3292C3.78033 10.4386 3.9287 10.5 4.08341 10.5H6.55675C6.63352 10.5005 6.70962 10.4858 6.78069 10.4567C6.85177 10.4277 6.91641 10.3849 6.97091 10.3309L11.0076 6.28838L12.6642 4.66671C12.7189 4.61248 12.7623 4.54797 12.7919 4.47688C12.8215 4.4058 12.8368 4.32955 12.8368 4.25255C12.8368 4.17554 12.8215 4.09929 12.7919 4.02821C12.7623 3.95712 12.7189 3.89261 12.6642 3.83838L10.1909 1.33588C10.1367 1.2812 10.0722 1.23781 10.0011 1.20819C9.93 1.17858 9.85375 1.16333 9.77675 1.16333C9.69974 1.16333 9.6235 1.17858 9.55241 1.20819C9.48133 1.23781 9.41681 1.2812 9.36258 1.33588L7.71758 2.98671L3.66925 7.02921C3.61518 7.08372 3.57241 7.14836 3.54338 7.21943C3.51435 7.29051 3.49964 7.36661 3.50008 7.44338ZM9.77675 2.57255L11.4276 4.22338L10.5992 5.05171L8.94841 3.40088L9.77675 2.57255ZM4.66675 7.68255L8.12591 4.22338L9.77675 5.87421L6.31758 9.33338H4.66675V7.68255Z" fill="#1E2139"/>
</svg>
