<svg width="14" height="14" viewBox="0 0 14 14" fill="none" xmlns="http://www.w3.org/2000/svg">
<path d="M5.83333 10.5001C5.98804 10.5001 6.13642 10.4386 6.24581 10.3292C6.35521 10.2198 6.41667 10.0715 6.41667 9.91675V6.41675C6.41667 6.26204 6.35521 6.11367 6.24581 6.00427C6.13642 5.89487 5.98804 5.83342 5.83333 5.83342C5.67862 5.83342 5.53025 5.89487 5.42085 6.00427C5.31146 6.11367 5.25 6.26204 5.25 6.41675V9.91675C5.25 10.0715 5.31146 10.2198 5.42085 10.3292C5.53025 10.4386 5.67862 10.5001 5.83333 10.5001ZM11.6667 3.50008H9.33333V2.91675C9.33333 2.45262 9.14896 2.0075 8.82077 1.67931C8.49258 1.35112 8.04746 1.16675 7.58333 1.16675H6.41667C5.95254 1.16675 5.50742 1.35112 5.17923 1.67931C4.85104 2.0075 4.66667 2.45262 4.66667 2.91675V3.50008H2.33333C2.17862 3.50008 2.03025 3.56154 1.92085 3.67094C1.81146 3.78033 1.75 3.92871 1.75 4.08342C1.75 4.23812 1.81146 4.3865 1.92085 4.49589C2.03025 4.60529 2.17862 4.66675 2.33333 4.66675H2.91667V11.0834C2.91667 11.5475 3.10104 11.9927 3.42923 12.3209C3.75742 12.649 4.20254 12.8334 4.66667 12.8334H9.33333C9.79746 12.8334 10.2426 12.649 10.5708 12.3209C10.899 11.9927 11.0833 11.5475 11.0833 11.0834V4.66675H11.6667C11.8214 4.66675 11.9697 4.60529 12.0791 4.49589C12.1885 4.3865 12.25 4.23812 12.25 4.08342C12.25 3.92871 12.1885 3.78033 12.0791 3.67094C11.9697 3.56154 11.8214 3.50008 11.6667 3.50008ZM5.83333 2.91675C5.83333 2.76204 5.89479 2.61367 6.00419 2.50427C6.11358 2.39487 6.26196 2.33341 6.41667 2.33341H7.58333C7.73804 2.33341 7.88642 2.39487 7.99581 2.50427C8.10521 2.61367 8.16667 2.76204 8.16667 2.91675V3.50008H5.83333V2.91675ZM9.91667 11.0834C9.91667 11.2381 9.85521 11.3865 9.74581 11.4959C9.63642 11.6053 9.48804 11.6667 9.33333 11.6667H4.66667C4.51196 11.6667 4.36358 11.6053 4.25419 11.4959C4.14479 11.3865 4.08333 11.2381 4.08333 11.0834V4.66675H9.91667V11.0834ZM8.16667 10.5001C8.32138 10.5001 8.46975 10.4386 8.57915 10.3292C8.68854 10.2198 8.75 10.0715 8.75 9.91675V6.41675C8.75 6.26204 8.68854 6.11367 8.57915 6.00427C8.46975 5.89487 8.32138 5.83342 8.16667 5.83342C8.01196 5.83342 7.86358 5.89487 7.75419 6.00427C7.64479 6.11367 7.58333 6.26204 7.58333 6.41675V9.91675C7.58333 10.0715 7.64479 10.2198 7.75419 10.3292C7.86358 10.4386 8.01196 10.5001 8.16667 10.5001Z" fill="#1E2139"/>
</svg>
