<svg width="16" height="16" viewBox="0 0 16 16" fill="none" xmlns="http://www.w3.org/2000/svg">
<path d="M12.666 7.33335H8.66602V3.33335C8.66602 3.15654 8.59578 2.98697 8.47075 2.86195C8.34573 2.73693 8.17616 2.66669 7.99935 2.66669C7.82254 2.66669 7.65297 2.73693 7.52794 2.86195C7.40292 2.98697 7.33268 3.15654 7.33268 3.33335V7.33335H3.33268C3.15587 7.33335 2.9863 7.40359 2.86128 7.52862C2.73625 7.65364 2.66602 7.82321 2.66602 8.00002C2.66602 8.17683 2.73625 8.3464 2.86128 8.47143C2.9863 8.59645 3.15587 8.66669 3.33268 8.66669H7.33268V12.6667C7.33268 12.8435 7.40292 13.0131 7.52794 13.1381C7.65297 13.2631 7.82254 13.3334 7.99935 13.3334C8.17616 13.3334 8.34573 13.2631 8.47075 13.1381C8.59578 13.0131 8.66602 12.8435 8.66602 12.6667V8.66669H12.666C12.8428 8.66669 13.0124 8.59645 13.1374 8.47143C13.2624 8.3464 13.3327 8.17683 13.3327 8.00002C13.3327 7.82321 13.2624 7.65364 13.1374 7.52862C13.0124 7.40359 12.8428 7.33335 12.666 7.33335Z" fill="white"/>
</svg>
