<svg width="14" height="14" viewBox="0 0 14 14" fill="none" xmlns="http://www.w3.org/2000/svg">
<path d="M10.4528 3.86167C10.3936 3.71913 10.2803 3.60586 10.1378 3.54667C10.0677 3.51678 9.99237 3.50092 9.91614 3.5H4.08281C3.9281 3.5 3.77973 3.56146 3.67033 3.67085C3.56093 3.78025 3.49948 3.92862 3.49948 4.08333C3.49948 4.23804 3.56093 4.38642 3.67033 4.49581C3.77973 4.60521 3.9281 4.66667 4.08281 4.66667H8.51031L3.66864 9.5025C3.61397 9.55673 3.57057 9.62125 3.54096 9.69233C3.51134 9.76341 3.49609 9.83966 3.49609 9.91667C3.49609 9.99367 3.51134 10.0699 3.54096 10.141C3.57057 10.2121 3.61397 10.2766 3.66864 10.3308C3.72287 10.3855 3.78739 10.4289 3.85847 10.4585C3.92956 10.4881 4.0058 10.5034 4.08281 10.5034C4.15982 10.5034 4.23606 10.4881 4.30715 10.4585C4.37823 10.4289 4.44275 10.3855 4.49698 10.3308L9.33281 5.48917V9.91667C9.33281 10.0714 9.39427 10.2197 9.50366 10.3291C9.61306 10.4385 9.76143 10.5 9.91614 10.5C10.0709 10.5 10.2192 10.4385 10.3286 10.3291C10.438 10.2197 10.4995 10.0714 10.4995 9.91667V4.08333C10.4986 4.0071 10.4827 3.9318 10.4528 3.86167Z" fill="#FF5555"/>
</svg>
