<svg width="13" height="13" viewBox="0 0 13 13" fill="none" xmlns="http://www.w3.org/2000/svg">
<path d="M10.4117 3.20706C10.5687 3.34521 10.6602 3.53573 10.6663 3.73673C10.6724 3.93774 10.5926 4.13278 10.4443 4.27897L5.82922 8.82949C5.75442 8.90311 5.66454 8.96202 5.56488 9.00275C5.46522 9.04347 5.3578 9.06518 5.24898 9.06659C5.14016 9.06801 5.03214 9.0491 4.9313 9.01098C4.83046 8.97286 4.73884 8.91631 4.66187 8.84466L2.21858 6.5694C2.07472 6.42563 1.9964 6.23547 2.00013 6.03898C2.00385 5.8425 2.08932 5.65504 2.23854 5.51608C2.38776 5.37712 2.58907 5.29753 2.80006 5.29406C3.01105 5.29059 3.21525 5.36353 3.36964 5.49749L5.22111 7.22063L9.26068 3.2374C9.40902 3.09128 9.61361 3.00599 9.82946 3.0003C10.0453 2.99462 10.2548 3.06899 10.4117 3.20706Z" fill="#353961"/>
</svg>
