<svg width="24" height="24" viewBox="0 0 24 24" fill="none" xmlns="http://www.w3.org/2000/svg">
<g clip-path="url(#clip0_2371_35955)">
<path d="M12.9797 11.967L17.8397 7.10697C17.9489 6.97944 18.006 6.81539 17.9995 6.6476C17.993 6.47982 17.9235 6.32066 17.8047 6.20193C17.686 6.0832 17.5268 6.01364 17.3591 6.00716C17.1913 6.00068 17.0272 6.05775 16.8997 6.16697L12.0397 11.027L7.1797 6.1603C7.05216 6.05109 6.88811 5.99402 6.72033 6.0005C6.55254 6.00698 6.39338 6.07653 6.27465 6.19526C6.15592 6.31399 6.08637 6.47315 6.07989 6.64094C6.07341 6.80872 6.13048 6.97277 6.2397 7.1003L11.0997 11.967L6.23303 16.827C6.16324 16.8867 6.10656 16.9603 6.06655 17.043C6.02653 17.1257 6.00404 17.2158 6.0005 17.3076C5.99695 17.3994 6.01242 17.491 6.04594 17.5765C6.07945 17.6621 6.13029 17.7398 6.19526 17.8047C6.26023 17.8697 6.33793 17.9205 6.42348 17.9541C6.50903 17.9876 6.60059 18.003 6.6924 17.9995C6.78421 17.996 6.8743 17.9735 6.95701 17.9335C7.03972 17.8934 7.11326 17.8368 7.17303 17.767L12.0397 12.907L16.8997 17.767C17.0272 17.8762 17.1913 17.9333 17.3591 17.9268C17.5268 17.9203 17.686 17.8507 17.8047 17.732C17.9235 17.6133 17.993 17.4541 17.9995 17.2863C18.006 17.1186 17.9489 16.9545 17.8397 16.827L12.9797 11.967Z" fill="#1E2139"/>
</g>
<defs>
<clipPath id="clip0_2371_35955">
<rect width="24" height="24" fill="white"/>
</clipPath>
</defs>
</svg>
