<svg width="14" height="14" viewBox="0 0 14 14" fill="none" xmlns="http://www.w3.org/2000/svg">
<path d="M9.33333 11.6665H4.66667C4.20254 11.6665 3.75742 11.4821 3.42923 11.1539C3.10104 10.8258 2.91667 10.3806 2.91667 9.9165V4.08317C2.91667 3.92846 2.85521 3.78009 2.74581 3.67069C2.63642 3.5613 2.48804 3.49984 2.33333 3.49984C2.17862 3.49984 2.03025 3.5613 1.92085 3.67069C1.81146 3.78009 1.75 3.92846 1.75 4.08317V9.9165C1.75 10.6901 2.05729 11.4319 2.60427 11.9789C3.15125 12.5259 3.89312 12.8332 4.66667 12.8332H9.33333C9.48804 12.8332 9.63642 12.7717 9.74581 12.6623C9.85521 12.5529 9.91667 12.4045 9.91667 12.2498C9.91667 12.0951 9.85521 11.9468 9.74581 11.8374C9.63642 11.728 9.48804 11.6665 9.33333 11.6665ZM12.25 5.21484C12.2439 5.16125 12.2322 5.10846 12.215 5.05734V5.00484C12.187 4.94486 12.1495 4.88973 12.1042 4.8415L8.60417 1.3415C8.55595 1.29613 8.50081 1.25872 8.44083 1.23067H8.38833L8.20167 1.1665H5.83333C5.3692 1.1665 4.92409 1.35088 4.5959 1.67907C4.26771 2.00726 4.08333 2.45238 4.08333 2.9165V8.74984C4.08333 9.21397 4.26771 9.65909 4.5959 9.98728C4.92409 10.3155 5.3692 10.4998 5.83333 10.4998H10.5C10.9641 10.4998 11.4092 10.3155 11.7374 9.98728C12.0656 9.65909 12.25 9.21397 12.25 8.74984V5.21484ZM8.75 3.15567L10.2608 4.6665H9.33333C9.17862 4.6665 9.03025 4.60505 8.92085 4.49565C8.81146 4.38625 8.75 4.23788 8.75 4.08317V3.15567ZM11.0833 8.74984C11.0833 8.90455 11.0219 9.05292 10.9125 9.16232C10.8031 9.27171 10.6547 9.33317 10.5 9.33317H5.83333C5.67862 9.33317 5.53025 9.27171 5.42085 9.16232C5.31146 9.05292 5.25 8.90455 5.25 8.74984V2.9165C5.25 2.76179 5.31146 2.61342 5.42085 2.50403C5.53025 2.39463 5.67862 2.33317 5.83333 2.33317H7.58333V4.08317C7.58333 4.5473 7.76771 4.99242 8.0959 5.32061C8.42408 5.6488 8.8692 5.83317 9.33333 5.83317H11.0833V8.74984Z" fill="#3D4658"/>
</svg>
