<svg width="194" height="195" viewBox="0 0 194 195" fill="none" xmlns="http://www.w3.org/2000/svg">
<path d="M194 97.5483C194 151.156 150.572 194.614 97 194.614C43.4284 194.614 0 151.156 0 97.5483C0 43.9403 43.4284 0.482422 97 0.482422C150.572 0.482422 194 43.9403 194 97.5483ZM27.16 97.5483C27.16 136.146 58.4284 167.436 97 167.436C135.572 167.436 166.84 136.146 166.84 97.5483C166.84 58.9505 135.572 27.6609 97 27.6609C58.4284 27.6609 27.16 58.9505 27.16 97.5483Z" fill="#777E8C"/>
<path d="M67.668 5.0267C52.1279 9.96005 38.0811 18.7334 26.8256 30.536C15.5701 42.3386 7.46905 56.7897 3.27097 72.554L29.5151 79.5524C32.5377 68.2021 38.3705 57.7973 46.4744 49.2994C54.5784 40.8016 64.6921 34.4848 75.8809 30.9328L67.668 5.0267Z" fill="#6FCF97"/>
<path d="M4.15502 69.4435C-2.13312 90.2447 -1.26354 112.556 6.62449 132.804L31.9296 122.932C26.2502 108.354 25.6241 92.2897 30.1516 77.3128L4.15502 69.4435Z" fill="#F2994A"/>
<path d="M6.43917 132.324C8.75453 138.362 11.6671 144.153 15.1334 149.611L38.056 135.034C35.5603 131.104 33.4633 126.934 31.7962 122.587L6.43917 132.324Z" fill="#EB5757"/>
<path d="M84.1883 1.33281C78.282 2.12034 72.4608 3.45077 66.7985 5.30724L75.2549 31.1347C79.3318 29.7981 83.523 28.8402 87.7756 28.2732L84.1883 1.33281Z" fill="#F2C94C"/>
<path d="M15.3276 149.916C22.9597 161.835 33.1049 171.94 45.0518 179.521C56.9987 187.102 70.4582 191.977 84.4866 193.803C98.5151 195.629 112.773 194.363 126.261 190.093C139.748 185.822 152.139 178.651 162.565 169.083L144.207 149.053C136.7 155.943 127.779 161.106 118.068 164.18C108.356 167.255 98.0909 168.167 87.9904 166.852C77.8899 165.537 68.1991 162.027 59.5973 156.569C50.9955 151.11 43.691 143.835 38.1959 135.253L15.3276 149.916Z" fill="#56CCF2"/>
<path d="M90.5255 0.698886C87.9443 0.871678 85.371 1.14773 82.8119 1.52639L86.7845 28.4125C88.6271 28.1399 90.4799 27.9411 92.3384 27.8167L90.5255 0.698886Z" fill="#BB6BD9"/>
</svg>
