<svg width="14" height="14" viewBox="0 0 14 14" fill="none" xmlns="http://www.w3.org/2000/svg">
<path d="M11.8999 0H2.98845C2.49716 0.000163732 2.02147 0.172556 1.64416 0.487182C1.26684 0.801809 1.01178 1.23875 0.923346 1.722L0.0343019 6.62199C-0.021093 6.92469 -0.00927894 7.23587 0.0689079 7.53351C0.147095 7.83115 0.289744 8.10796 0.48676 8.34437C0.683776 8.58078 0.930345 8.771 1.20902 8.90157C1.48769 9.03214 1.79166 9.09988 2.09941 9.09998H5.29156L4.89954 10.101C4.73648 10.5393 4.68218 11.0106 4.74129 11.4744C4.8004 11.9383 4.97117 12.3809 5.23893 12.7643C5.5067 13.1477 5.86347 13.4604 6.27866 13.6756C6.69384 13.8908 7.15503 14.0021 7.62268 14C7.75734 13.9997 7.88906 13.9606 8.00205 13.8873C8.11504 13.8141 8.2045 13.7098 8.25971 13.587L10.2548 9.09998H11.8999C12.4569 9.09998 12.991 8.87873 13.3849 8.48491C13.7787 8.09108 14 7.55694 14 6.99998V2.1C14 1.54304 13.7787 1.0089 13.3849 0.615074C12.991 0.221249 12.4569 0 11.8999 0ZM9.09976 8.25298L7.19566 12.537C7.00083 12.478 6.82014 12.3798 6.66471 12.2484C6.50928 12.117 6.38241 11.9551 6.2919 11.7728C6.2014 11.5905 6.14918 11.3916 6.13847 11.1883C6.12776 10.9851 6.15877 10.7818 6.22961 10.591L6.60063 9.58998C6.67969 9.3784 6.70638 9.15084 6.67842 8.92671C6.65047 8.70258 6.5687 8.48854 6.44009 8.30286C6.31148 8.11718 6.13986 7.96538 5.93986 7.8604C5.73987 7.75541 5.51744 7.70038 5.29156 7.69998H2.09941C1.99656 7.70015 1.89495 7.67766 1.80178 7.6341C1.70862 7.59055 1.6262 7.527 1.56038 7.44798C1.49294 7.37006 1.44354 7.2782 1.41571 7.17898C1.38788 7.07976 1.3823 6.97561 1.39937 6.87398L2.28841 1.974C2.31823 1.81093 2.40496 1.66373 2.53315 1.55862C2.66135 1.4535 2.82269 1.39729 2.98845 1.4H9.09976V8.25298ZM12.5999 6.99998C12.5999 7.18564 12.5262 7.36368 12.3949 7.49496C12.2636 7.62623 12.0856 7.69998 11.8999 7.69998H10.4998V1.4H11.8999C12.0856 1.4 12.2636 1.47375 12.3949 1.60502C12.5262 1.7363 12.5999 1.91434 12.5999 2.1V6.99998Z" fill="#848B99"/>
</svg>
