<svg width="160" height="61" viewBox="0 0 160 61" fill="none" xmlns="http://www.w3.org/2000/svg">
<path d="M20.1484 52.5441C20.1484 51.9003 20.6703 51.3784 21.3142 51.3784H30.5164C31.1602 51.3784 31.6822 51.9003 31.6822 52.5441V55.947H20.1484V52.5441Z" fill="#56CCF2"/>
<path d="M36.4531 50.6408C36.4531 49.997 36.975 49.4751 37.6188 49.4751H46.4234C47.0672 49.4751 47.5891 49.997 47.5891 50.6408V55.9473H36.4531V50.6408Z" fill="#FF5555"/>
<path d="M52.3633 54.4475C52.3633 53.8036 52.8852 53.2817 53.529 53.2817H62.3336C62.9774 53.2817 63.4993 53.8036 63.4993 54.4475V55.9462H52.3633V54.4475Z" fill="#6FCF97"/>
<path d="M68.2734 54.4475C68.2734 53.8036 68.7953 53.2817 69.4392 53.2817H78.6414C79.2852 53.2817 79.8072 53.8036 79.8072 54.4475V55.9462H68.2734V54.4475Z" fill="#E0E7ED"/>
<path d="M84.1797 52.1638C84.1797 51.52 84.7016 50.998 85.3454 50.998H94.5477C95.1915 50.998 95.7134 51.52 95.7134 52.1638V55.9474H84.1797V52.1638Z" fill="#6FCF97"/>
<path d="M100.484 52.1633C100.484 51.5195 101.006 50.9976 101.65 50.9976H110.455C111.098 50.9976 111.62 51.5195 111.62 52.1633V55.9469H100.484V52.1633Z" fill="#F2C94C"/>
<path d="M116.398 49.8786C116.398 49.2348 116.92 48.7129 117.564 48.7129H126.369C127.013 48.7129 127.534 49.2348 127.534 49.8786V55.9465H116.398V49.8786Z" fill="#56CCF2"/>
<path d="M132.305 52.1633C132.305 51.5195 132.827 50.9976 133.47 50.9976H142.673C143.316 50.9976 143.838 51.5195 143.838 52.1633V55.9469H132.305V52.1633Z" fill="#966DB6"/>
<path d="M148.609 4.95429C148.609 4.31048 149.131 3.78857 149.775 3.78857H158.58C159.223 3.78857 159.745 4.31048 159.745 4.95429V55.9469H148.609V4.95429Z" fill="#F2994A"/>
<rect x="16.5703" y="55.415" width="143.177" height="0.531867" fill="#777E8C"/>
<rect x="17.7344" y="55.7275" width="51.6841" height="0.397714" transform="rotate(-90 17.7344 55.7275)" fill="#777E8C"/>
<path d="M0.40736 5.06256C0.40736 4.81096 0.473256 4.5933 0.605049 4.40959C0.736841 4.22188 0.942518 4.05215 1.22208 3.90039C1.12224 3.84048 1.02838 3.77858 0.940521 3.71468C0.856653 3.64679 0.780772 3.57091 0.712879 3.48704C0.64898 3.40317 0.597061 3.30932 0.557124 3.20548C0.521181 3.10164 0.503209 2.98183 0.503209 2.84605C0.503209 2.69029 0.529168 2.54851 0.581086 2.42072C0.636998 2.29292 0.714876 2.18309 0.814719 2.09123C0.918556 1.99938 1.04036 1.92749 1.18014 1.87557C1.32392 1.82365 1.48566 1.79769 1.66538 1.79769C1.83312 1.79769 1.98488 1.82166 2.12067 1.86958C2.25645 1.91751 2.37027 1.9834 2.46213 2.06727C2.55798 2.15114 2.63186 2.25098 2.68378 2.3668C2.7357 2.48262 2.76166 2.61042 2.76166 2.7502C2.76166 2.97784 2.70974 3.17952 2.6059 3.35525C2.50207 3.52698 2.33034 3.69671 2.09071 3.86445C2.19455 3.92435 2.2924 3.99025 2.38425 4.06213C2.4801 4.13402 2.56197 4.2139 2.62986 4.30176C2.70175 4.38962 2.75766 4.48946 2.7976 4.60129C2.83754 4.70912 2.85751 4.83292 2.85751 4.9727C2.85751 5.14443 2.82955 5.30218 2.77364 5.44596C2.71773 5.58574 2.63586 5.70755 2.52803 5.81138C2.42019 5.91123 2.2884 5.9911 2.13265 6.05101C1.97689 6.10692 1.79917 6.13488 1.59949 6.13488C1.40779 6.13488 1.23805 6.10692 1.09029 6.05101C0.942518 5.9951 0.816716 5.91921 0.712879 5.82337C0.613036 5.72752 0.537155 5.61569 0.485237 5.48789C0.433319 5.3561 0.40736 5.21432 0.40736 5.06256ZM2.39024 5.00266C2.39024 4.88284 2.36628 4.77901 2.31835 4.69115C2.27043 4.59929 2.20653 4.51742 2.12666 4.44553C2.05078 4.36965 1.96291 4.30176 1.86307 4.24185C1.76323 4.18195 1.65939 4.12404 1.55156 4.06812C1.30794 4.20391 1.13422 4.35567 1.03038 4.52341C0.926543 4.69115 0.874625 4.85089 0.874625 5.00266C0.874625 5.0985 0.8906 5.19036 0.922549 5.27822C0.954499 5.36608 1.00242 5.44196 1.06632 5.50586C1.13022 5.56976 1.2081 5.62168 1.29996 5.66162C1.39581 5.69756 1.50563 5.71553 1.62944 5.71553C1.72928 5.71553 1.82513 5.70156 1.91699 5.6736C2.00884 5.64165 2.08872 5.59772 2.15661 5.54181C2.2285 5.4819 2.28441 5.40802 2.32435 5.32016C2.36828 5.2283 2.39024 5.12247 2.39024 5.00266ZM0.970474 2.83407C0.970474 2.94589 0.99244 3.04573 1.03637 3.13359C1.0803 3.21746 1.13821 3.29334 1.2101 3.36124C1.28598 3.42913 1.37184 3.49303 1.46769 3.55293C1.56354 3.60885 1.66338 3.66276 1.76722 3.71468C1.94694 3.5749 2.07873 3.43712 2.1626 3.30133C2.25046 3.16554 2.29439 3.01578 2.29439 2.85204C2.29439 2.64836 2.23049 2.4926 2.10269 2.38477C1.97889 2.27295 1.82912 2.21704 1.6534 2.21704C1.54557 2.21704 1.44972 2.23501 1.36585 2.27095C1.28198 2.30689 1.2101 2.35282 1.15019 2.40873C1.09029 2.46465 1.04436 2.53054 1.01241 2.60642C0.984452 2.67831 0.970474 2.75419 0.970474 2.83407ZM3.52199 3.96628C3.52199 3.24742 3.63781 2.70627 3.86945 2.34284C4.10508 1.97941 4.44654 1.79769 4.89384 1.79769C5.37708 1.79769 5.72653 1.97741 5.94219 2.33685C6.16184 2.69229 6.27167 3.23543 6.27167 3.96628C6.27167 4.68515 6.15386 5.2263 5.91823 5.58973C5.68659 5.95316 5.34513 6.13488 4.89384 6.13488C4.41858 6.13488 4.07113 5.94517 3.85148 5.56577C3.63182 5.18637 3.52199 4.6532 3.52199 3.96628ZM4.01921 3.96628C4.01921 4.22588 4.03519 4.4635 4.06714 4.67916C4.10308 4.89083 4.15699 5.07454 4.22888 5.2303C4.30077 5.38206 4.39063 5.50187 4.49846 5.58973C4.61028 5.6736 4.74207 5.71553 4.89384 5.71553C5.19736 5.71553 5.41901 5.57575 5.55879 5.29619C5.70256 5.01264 5.77445 4.56934 5.77445 3.96628C5.77445 3.71069 5.75848 3.47506 5.72653 3.2594C5.69857 3.04374 5.64865 2.85803 5.57676 2.70227C5.50887 2.54652 5.41901 2.42671 5.30719 2.34284C5.19536 2.25897 5.05758 2.21704 4.89384 2.21704C4.59431 2.21704 4.37266 2.35881 4.22888 2.64237C4.0891 2.92592 4.01921 3.36723 4.01921 3.96628ZM6.78639 3.96628C6.78639 3.24742 6.90221 2.70627 7.13385 2.34284C7.36947 1.97941 7.71094 1.79769 8.15823 1.79769C8.64147 1.79769 8.99093 1.97741 9.20659 2.33685C9.42624 2.69229 9.53607 3.23543 9.53607 3.96628C9.53607 4.68515 9.41825 5.2263 9.18262 5.58973C8.95099 5.95316 8.60953 6.13488 8.15823 6.13488C7.68298 6.13488 7.33553 5.94517 7.11587 5.56577C6.89622 5.18637 6.78639 4.6532 6.78639 3.96628ZM7.28361 3.96628C7.28361 4.22588 7.29958 4.4635 7.33153 4.67916C7.36748 4.89083 7.42139 5.07454 7.49328 5.2303C7.56517 5.38206 7.65503 5.50187 7.76286 5.58973C7.87468 5.6736 8.00647 5.71553 8.15823 5.71553C8.46176 5.71553 8.68341 5.57575 8.82319 5.29619C8.96696 5.01264 9.03885 4.56934 9.03885 3.96628C9.03885 3.71069 9.02288 3.47506 8.99093 3.2594C8.96297 3.04374 8.91305 2.85803 8.84116 2.70227C8.77327 2.54652 8.68341 2.42671 8.57158 2.34284C8.45976 2.25897 8.32198 2.21704 8.15823 2.21704C7.85871 2.21704 7.63705 2.35881 7.49328 2.64237C7.3535 2.92592 7.28361 3.36723 7.28361 3.96628Z" fill="#777E8C"/>
<path d="M2.94737 21.2985C2.94737 21.4822 2.91941 21.6559 2.8635 21.8197C2.80759 21.9794 2.72571 22.1212 2.61788 22.245C2.51005 22.3648 2.37626 22.4607 2.21651 22.5325C2.05677 22.6004 1.87505 22.6344 1.67137 22.6344C1.47169 22.6344 1.29197 22.6024 1.13222 22.5385C0.972471 22.4746 0.834688 22.3808 0.71887 22.257C0.603052 22.1292 0.513193 21.9734 0.449294 21.7897C0.389388 21.606 0.359435 21.3943 0.359435 21.1547C0.359435 20.7593 0.409356 20.3959 0.509199 20.0644C0.613036 19.729 0.754813 19.4374 0.934531 19.1898C1.11425 18.9422 1.32592 18.7425 1.56953 18.5907C1.81714 18.435 2.08472 18.3371 2.37227 18.2972L2.47411 18.6806C2.25046 18.7205 2.04678 18.7964 1.86307 18.9082C1.67936 19.0201 1.51761 19.1579 1.37783 19.3216C1.24205 19.4853 1.13022 19.669 1.04236 19.8727C0.954499 20.0764 0.894593 20.2861 0.862644 20.5017C0.926543 20.3939 1.03437 20.2961 1.18614 20.2082C1.3379 20.1163 1.5236 20.0704 1.74326 20.0704C2.11867 20.0704 2.41221 20.1782 2.62387 20.3939C2.83954 20.6096 2.94737 20.9111 2.94737 21.2985ZM2.45015 21.3464C2.45015 21.0629 2.38425 20.8492 2.25246 20.7054C2.12067 20.5616 1.91699 20.4898 1.64142 20.4898C1.44573 20.4898 1.27599 20.5377 1.13222 20.6335C0.99244 20.7294 0.894593 20.8372 0.838681 20.957C0.830694 21.0129 0.8267 21.0589 0.8267 21.0948C0.8267 21.1308 0.8267 21.1707 0.8267 21.2146C0.8267 21.3384 0.842675 21.4602 0.874625 21.58C0.910568 21.6999 0.964483 21.8077 1.03637 21.9035C1.10826 21.9954 1.19612 22.0713 1.29996 22.1312C1.40779 22.1871 1.53359 22.215 1.67736 22.215C1.79318 22.215 1.89702 22.1931 1.98887 22.1491C2.08472 22.1052 2.16659 22.0453 2.23449 21.9694C2.30238 21.8936 2.3543 21.8017 2.39024 21.6939C2.43018 21.586 2.45015 21.4702 2.45015 21.3464ZM3.52199 20.4658C3.52199 19.7469 3.63781 19.2058 3.86945 18.8423C4.10508 18.4789 4.44654 18.2972 4.89384 18.2972C5.37708 18.2972 5.72653 18.4769 5.94219 18.8364C6.16184 19.1918 6.27167 19.7349 6.27167 20.4658C6.27167 21.1847 6.15386 21.7258 5.91823 22.0892C5.68659 22.4527 5.34513 22.6344 4.89384 22.6344C4.41858 22.6344 4.07113 22.4447 3.85148 22.0653C3.63182 21.6859 3.52199 21.1527 3.52199 20.4658ZM4.01921 20.4658C4.01921 20.7254 4.03519 20.963 4.06714 21.1787C4.10308 21.3903 4.15699 21.5741 4.22888 21.7298C4.30077 21.8816 4.39063 22.0014 4.49846 22.0892C4.61028 22.1731 4.74207 22.215 4.89384 22.215C5.19736 22.215 5.41901 22.0753 5.55879 21.7957C5.70256 21.5122 5.77445 21.0688 5.77445 20.4658C5.77445 20.2102 5.75848 19.9746 5.72653 19.7589C5.69857 19.5432 5.64865 19.3575 5.57676 19.2018C5.50887 19.046 5.41901 18.9262 5.30719 18.8423C5.19536 18.7585 5.05758 18.7165 4.89384 18.7165C4.59431 18.7165 4.37266 18.8583 4.22888 19.1419C4.0891 19.4254 4.01921 19.8667 4.01921 20.4658ZM6.78639 20.4658C6.78639 19.7469 6.90221 19.2058 7.13385 18.8423C7.36947 18.4789 7.71094 18.2972 8.15823 18.2972C8.64147 18.2972 8.99093 18.4769 9.20659 18.8364C9.42624 19.1918 9.53607 19.7349 9.53607 20.4658C9.53607 21.1847 9.41825 21.7258 9.18262 22.0892C8.95099 22.4527 8.60953 22.6344 8.15823 22.6344C7.68298 22.6344 7.33553 22.4447 7.11587 22.0653C6.89622 21.6859 6.78639 21.1527 6.78639 20.4658ZM7.28361 20.4658C7.28361 20.7254 7.29958 20.963 7.33153 21.1787C7.36748 21.3903 7.42139 21.5741 7.49328 21.7298C7.56517 21.8816 7.65503 22.0014 7.76286 22.0892C7.87468 22.1731 8.00647 22.215 8.15823 22.215C8.46176 22.215 8.68341 22.0753 8.82319 21.7957C8.96696 21.5122 9.03885 21.0688 9.03885 20.4658C9.03885 20.2102 9.02288 19.9746 8.99093 19.7589C8.96297 19.5432 8.91305 19.3575 8.84116 19.2018C8.77327 19.046 8.68341 18.9262 8.57158 18.8423C8.45976 18.7585 8.32198 18.7165 8.15823 18.7165C7.85871 18.7165 7.63705 18.8583 7.49328 19.1419C7.3535 19.4254 7.28361 19.8667 7.28361 20.4658Z" fill="#777E8C"/>
<path d="M2.6718 35.8206C2.6718 36.0323 2.63186 36.2499 2.55199 36.4736C2.47611 36.6932 2.37427 36.9149 2.24647 37.1385C2.12266 37.3622 1.98288 37.5818 1.82713 37.7975C1.67137 38.0092 1.51562 38.2109 1.35986 38.4026L1.06632 38.6602V38.6841L1.44972 38.6182H2.75567V39.0615H0.371416V38.8878C0.459278 38.7959 0.565111 38.6821 0.688917 38.5463C0.812722 38.4105 0.940521 38.2608 1.07231 38.097C1.2081 37.9293 1.33989 37.7536 1.46769 37.5699C1.59949 37.3822 1.7173 37.1925 1.82114 37.0008C1.92897 36.8091 2.01483 36.6194 2.07873 36.4317C2.14263 36.244 2.17458 36.0662 2.17458 35.8985C2.17458 35.7028 2.11867 35.5411 2.00684 35.4133C1.89502 35.2815 1.72529 35.2156 1.49765 35.2156C1.34588 35.2156 1.19812 35.2475 1.05434 35.3114C0.910568 35.3713 0.786763 35.4412 0.682926 35.5211L0.485237 35.1796C0.625017 35.0598 0.790757 34.966 0.982455 34.8981C1.17415 34.8302 1.37983 34.7962 1.59949 34.7962C1.77122 34.7962 1.92298 34.8222 2.05477 34.8741C2.18656 34.922 2.29839 34.9919 2.39024 35.0838C2.4821 35.1756 2.55199 35.2855 2.59991 35.4133C2.64784 35.5371 2.6718 35.6729 2.6718 35.8206ZM3.52199 36.9648C3.52199 36.246 3.63781 35.7048 3.86945 35.3414C4.10508 34.9779 4.44654 34.7962 4.89384 34.7962C5.37708 34.7962 5.72653 34.9759 5.94219 35.3354C6.16184 35.6908 6.27167 36.234 6.27167 36.9648C6.27167 37.6837 6.15386 38.2248 5.91823 38.5883C5.68659 38.9517 5.34513 39.1334 4.89384 39.1334C4.41858 39.1334 4.07113 38.9437 3.85148 38.5643C3.63182 38.1849 3.52199 37.6517 3.52199 36.9648ZM4.01921 36.9648C4.01921 37.2244 4.03519 37.462 4.06714 37.6777C4.10308 37.8894 4.15699 38.0731 4.22888 38.2288C4.30077 38.3806 4.39063 38.5004 4.49846 38.5883C4.61028 38.6721 4.74207 38.7141 4.89384 38.7141C5.19736 38.7141 5.41901 38.5743 5.55879 38.2947C5.70256 38.0112 5.77445 37.5679 5.77445 36.9648C5.77445 36.7092 5.75848 36.4736 5.72653 36.2579C5.69857 36.0423 5.64865 35.8566 5.57676 35.7008C5.50887 35.5451 5.41901 35.4252 5.30719 35.3414C5.19536 35.2575 5.05758 35.2156 4.89384 35.2156C4.59431 35.2156 4.37266 35.3573 4.22888 35.6409C4.0891 35.9245 4.01921 36.3658 4.01921 36.9648ZM6.78639 36.9648C6.78639 36.246 6.90221 35.7048 7.13385 35.3414C7.36947 34.9779 7.71094 34.7962 8.15823 34.7962C8.64147 34.7962 8.99093 34.9759 9.20659 35.3354C9.42624 35.6908 9.53607 36.234 9.53607 36.9648C9.53607 37.6837 9.41825 38.2248 9.18262 38.5883C8.95099 38.9517 8.60953 39.1334 8.15823 39.1334C7.68298 39.1334 7.33553 38.9437 7.11587 38.5643C6.89622 38.1849 6.78639 37.6517 6.78639 36.9648ZM7.28361 36.9648C7.28361 37.2244 7.29958 37.462 7.33153 37.6777C7.36748 37.8894 7.42139 38.0731 7.49328 38.2288C7.56517 38.3806 7.65503 38.5004 7.76286 38.5883C7.87468 38.6721 8.00647 38.7141 8.15823 38.7141C8.46176 38.7141 8.68341 38.5743 8.82319 38.2947C8.96696 38.0112 9.03885 37.5679 9.03885 36.9648C9.03885 36.7092 9.02288 36.4736 8.99093 36.2579C8.96297 36.0423 8.91305 35.8566 8.84116 35.7008C8.77327 35.5451 8.68341 35.4252 8.57158 35.3414C8.45976 35.2575 8.32198 35.2156 8.15823 35.2156C7.85871 35.2156 7.63705 35.3573 7.49328 35.6409C7.3535 35.9245 7.28361 36.3658 7.28361 36.9648Z" fill="#777E8C"/>
<rect x="16.0859" y="38.395" width="1.64849" height="0.531867" fill="#777E8C"/>
<rect x="16.0859" y="21.061" width="1.64849" height="0.531867" fill="#777E8C"/>
<path d="M4.32132 56.6567C4.32132 55.9378 4.43714 55.3967 4.66878 55.0333C4.9044 54.6698 5.24587 54.4881 5.69316 54.4881C6.1764 54.4881 6.52586 54.6678 6.74152 55.0273C6.96117 55.3827 7.071 55.9259 7.071 56.6567C7.071 57.3756 6.95318 57.9167 6.71755 58.2802C6.48592 58.6436 6.14446 58.8253 5.69316 58.8253C5.21791 58.8253 4.87046 58.6356 4.6508 58.2562C4.43115 57.8768 4.32132 57.3436 4.32132 56.6567ZM4.81854 56.6567C4.81854 56.9163 4.83451 57.1539 4.86646 57.3696C4.90241 57.5813 4.95632 57.765 5.02821 57.9207C5.1001 58.0725 5.18996 58.1923 5.29779 58.2802C5.40961 58.364 5.5414 58.406 5.69316 58.406C5.99669 58.406 6.21834 58.2662 6.35812 57.9866C6.50189 57.7031 6.57378 57.2598 6.57378 56.6567C6.57378 56.4011 6.55781 56.1655 6.52586 55.9498C6.4979 55.7342 6.44798 55.5485 6.37609 55.3927C6.3082 55.2369 6.21834 55.1171 6.10651 55.0333C5.99469 54.9494 5.85691 54.9075 5.69316 54.9075C5.39364 54.9075 5.17198 55.0492 5.02821 55.3328C4.88843 55.6164 4.81854 56.0577 4.81854 56.6567Z" fill="#777E8C"/>
<rect x="16.0859" y="4.04443" width="1.64849" height="0.531867" fill="#777E8C"/>
</svg>
