<svg width="162" height="61" viewBox="0 0 162 61" fill="none" xmlns="http://www.w3.org/2000/svg">
<path d="M11.2031 46.8928L17.9259 43.6066L34.4033 35.9386L43.8943 43.6066L59.449 40.4572L66.8309 43.6066L84.2311 27.9968L94.1175 40.4572L105.586 37.8556L118.636 29.9138L131.422 27.9968L143.945 13.7563L156.6 1.02197" stroke="#3B51FF" stroke-width="1.00978"/>
<rect x="9.52734" y="47.2842" width="149.144" height="0.430053" fill="#777E8C"/>
<rect x="10.7383" y="47.5371" width="41.7904" height="0.414289" transform="rotate(-90 10.7383 47.5371)" fill="#777E8C"/>
<path d="M0.40736 7.52741C0.40736 7.2758 0.473256 7.05814 0.605049 6.87443C0.736841 6.68673 0.942518 6.51699 1.22208 6.36523C1.12224 6.30533 1.02838 6.24342 0.940521 6.17952C0.856653 6.11163 0.780772 6.03575 0.712879 5.95188C0.64898 5.86801 0.597061 5.77416 0.557124 5.67032C0.521181 5.56649 0.503209 5.44668 0.503209 5.31089C0.503209 5.15514 0.529168 5.01336 0.581086 4.88556C0.636998 4.75776 0.714876 4.64793 0.814719 4.55608C0.918556 4.46422 1.04036 4.39233 1.18014 4.34042C1.32392 4.2885 1.48566 4.26254 1.66538 4.26254C1.83312 4.26254 1.98488 4.2865 2.12067 4.33443C2.25645 4.38235 2.37027 4.44825 2.46213 4.53211C2.55798 4.61598 2.63186 4.71583 2.68378 4.83164C2.7357 4.94746 2.76166 5.07526 2.76166 5.21504C2.76166 5.44268 2.70974 5.64437 2.6059 5.82009C2.50207 5.99182 2.33034 6.16155 2.09071 6.32929C2.19455 6.38919 2.2924 6.45509 2.38425 6.52698C2.4801 6.59886 2.56197 6.67874 2.62986 6.7666C2.70175 6.85446 2.75766 6.95431 2.7976 7.06613C2.83754 7.17396 2.85751 7.29777 2.85751 7.43755C2.85751 7.60928 2.82955 7.76703 2.77364 7.9108C2.71773 8.05058 2.63586 8.17239 2.52803 8.27623C2.42019 8.37607 2.2884 8.45595 2.13265 8.51585C1.97689 8.57176 1.79917 8.59972 1.59949 8.59972C1.40779 8.59972 1.23805 8.57176 1.09029 8.51585C0.942518 8.45994 0.816716 8.38406 0.712879 8.28821C0.613036 8.19236 0.537155 8.08054 0.485237 7.95274C0.433319 7.82094 0.40736 7.67917 0.40736 7.52741ZM2.39024 7.4675C2.39024 7.34769 2.36628 7.24385 2.31835 7.15599C2.27043 7.06413 2.20653 6.98226 2.12666 6.91038C2.05078 6.83449 1.96291 6.7666 1.86307 6.7067C1.76323 6.64679 1.65939 6.58888 1.55156 6.53297C1.30794 6.66876 1.13422 6.82052 1.03038 6.98825C0.926543 7.15599 0.874625 7.31574 0.874625 7.4675C0.874625 7.56335 0.8906 7.6552 0.922549 7.74307C0.954499 7.83093 1.00242 7.90681 1.06632 7.97071C1.13022 8.03461 1.2081 8.08653 1.29996 8.12646C1.39581 8.16241 1.50563 8.18038 1.62944 8.18038C1.72928 8.18038 1.82513 8.1664 1.91699 8.13844C2.00884 8.10649 2.08872 8.06256 2.15661 8.00665C2.2285 7.94675 2.28441 7.87286 2.32435 7.785C2.36828 7.69314 2.39024 7.58731 2.39024 7.4675ZM0.970474 5.29891C0.970474 5.41073 0.99244 5.51058 1.03637 5.59844C1.0803 5.68231 1.13821 5.75819 1.2101 5.82608C1.28598 5.89397 1.37184 5.95787 1.46769 6.01778C1.56354 6.07369 1.66338 6.12761 1.76722 6.17952C1.94694 6.03974 2.07873 5.90196 2.1626 5.76617C2.25046 5.63039 2.29439 5.48062 2.29439 5.31688C2.29439 5.1132 2.23049 4.95745 2.10269 4.84962C1.97889 4.73779 1.82912 4.68188 1.6534 4.68188C1.54557 4.68188 1.44972 4.69985 1.36585 4.73579C1.28198 4.77174 1.2101 4.81767 1.15019 4.87358C1.09029 4.92949 1.04436 4.99539 1.01241 5.07127C0.984452 5.14315 0.970474 5.21903 0.970474 5.29891ZM3.52199 6.43113C3.52199 5.71226 3.63781 5.17111 3.86945 4.80768C4.10508 4.44425 4.44654 4.26254 4.89384 4.26254C5.37708 4.26254 5.72653 4.44226 5.94219 4.80169C6.16184 5.15713 6.27167 5.70028 6.27167 6.43113C6.27167 7.15 6.15386 7.69115 5.91823 8.05458C5.68659 8.418 5.34513 8.59972 4.89384 8.59972C4.41858 8.59972 4.07113 8.41002 3.85148 8.03061C3.63182 7.65121 3.52199 7.11805 3.52199 6.43113ZM4.01921 6.43113C4.01921 6.69072 4.03519 6.92835 4.06714 7.14401C4.10308 7.35568 4.15699 7.53939 4.22888 7.69514C4.30077 7.8469 4.39063 7.96671 4.49846 8.05458C4.61028 8.13844 4.74207 8.18038 4.89384 8.18038C5.19736 8.18038 5.41901 8.0406 5.55879 7.76104C5.70256 7.47748 5.77445 7.03418 5.77445 6.43113C5.77445 6.17553 5.75848 5.9399 5.72653 5.72424C5.69857 5.50858 5.64865 5.32287 5.57676 5.16712C5.50887 5.01136 5.41901 4.89155 5.30719 4.80768C5.19536 4.72381 5.05758 4.68188 4.89384 4.68188C4.59431 4.68188 4.37266 4.82366 4.22888 5.10721C4.0891 5.39076 4.01921 5.83207 4.01921 6.43113ZM6.78639 6.43113C6.78639 5.71226 6.90221 5.17111 7.13385 4.80768C7.36947 4.44425 7.71094 4.26254 8.15823 4.26254C8.64147 4.26254 8.99093 4.44226 9.20659 4.80169C9.42624 5.15713 9.53607 5.70028 9.53607 6.43113C9.53607 7.15 9.41825 7.69115 9.18262 8.05458C8.95099 8.418 8.60953 8.59972 8.15823 8.59972C7.68298 8.59972 7.33553 8.41002 7.11587 8.03061C6.89622 7.65121 6.78639 7.11805 6.78639 6.43113ZM7.28361 6.43113C7.28361 6.69072 7.29958 6.92835 7.33153 7.14401C7.36748 7.35568 7.42139 7.53939 7.49328 7.69514C7.56517 7.8469 7.65503 7.96671 7.76286 8.05458C7.87468 8.13844 8.00647 8.18038 8.15823 8.18038C8.46176 8.18038 8.68341 8.0406 8.82319 7.76104C8.96696 7.47748 9.03885 7.03418 9.03885 6.43113C9.03885 6.17553 9.02288 5.9399 8.99093 5.72424C8.96297 5.50858 8.91305 5.32287 8.84116 5.16712C8.77327 5.01136 8.68341 4.89155 8.57158 4.80768C8.45976 4.72381 8.32198 4.68188 8.15823 4.68188C7.85871 4.68188 7.63705 4.82366 7.49328 5.10721C7.3535 5.39076 7.28361 5.83207 7.28361 6.43113Z" fill="#353961"/>
<path d="M2.94737 20.6046C2.94737 20.7884 2.91941 20.9621 2.8635 21.1258C2.80759 21.2856 2.72571 21.4273 2.61788 21.5512C2.51005 21.671 2.37626 21.7668 2.21651 21.8387C2.05677 21.9066 1.87505 21.9405 1.67137 21.9405C1.47169 21.9405 1.29197 21.9086 1.13222 21.8447C0.972471 21.7808 0.834688 21.6869 0.71887 21.5631C0.603052 21.4353 0.513193 21.2796 0.449294 21.0959C0.389388 20.9122 0.359435 20.7005 0.359435 20.4609C0.359435 20.0655 0.409356 19.7021 0.509199 19.3706C0.613036 19.0351 0.754813 18.7436 0.934531 18.496C1.11425 18.2483 1.32592 18.0487 1.56953 17.8969C1.81714 17.7411 2.08472 17.6433 2.37227 17.6034L2.47411 17.9868C2.25046 18.0267 2.04678 18.1026 1.86307 18.2144C1.67936 18.3262 1.51761 18.464 1.37783 18.6277C1.24205 18.7915 1.13022 18.9752 1.04236 19.1789C0.954499 19.3826 0.894593 19.5922 0.862644 19.8079C0.926543 19.7001 1.03437 19.6022 1.18614 19.5144C1.3379 19.4225 1.5236 19.3766 1.74326 19.3766C2.11867 19.3766 2.41221 19.4844 2.62387 19.7001C2.83954 19.9157 2.94737 20.2172 2.94737 20.6046ZM2.45015 20.6526C2.45015 20.369 2.38425 20.1553 2.25246 20.0116C2.12067 19.8678 1.91699 19.7959 1.64142 19.7959C1.44573 19.7959 1.27599 19.8438 1.13222 19.9397C0.99244 20.0355 0.894593 20.1434 0.838681 20.2632C0.830694 20.3191 0.8267 20.365 0.8267 20.401C0.8267 20.4369 0.8267 20.4768 0.8267 20.5208C0.8267 20.6446 0.842675 20.7664 0.874625 20.8862C0.910568 21.006 0.964483 21.1138 1.03637 21.2097C1.10826 21.3015 1.19612 21.3774 1.29996 21.4373C1.40779 21.4932 1.53359 21.5212 1.67736 21.5212C1.79318 21.5212 1.89702 21.4992 1.98887 21.4553C2.08472 21.4114 2.16659 21.3515 2.23449 21.2756C2.30238 21.1997 2.3543 21.1078 2.39024 21C2.43018 20.8922 2.45015 20.7764 2.45015 20.6526ZM3.52199 19.7719C3.52199 19.0531 3.63781 18.5119 3.86945 18.1485C4.10508 17.7851 4.44654 17.6034 4.89384 17.6034C5.37708 17.6034 5.72653 17.7831 5.94219 18.1425C6.16184 18.498 6.27167 19.0411 6.27167 19.7719C6.27167 20.4908 6.15386 21.032 5.91823 21.3954C5.68659 21.7588 5.34513 21.9405 4.89384 21.9405C4.41858 21.9405 4.07113 21.7508 3.85148 21.3714C3.63182 20.992 3.52199 20.4589 3.52199 19.7719ZM4.01921 19.7719C4.01921 20.0315 4.03519 20.2692 4.06714 20.4848C4.10308 20.6965 4.15699 20.8802 4.22888 21.036C4.30077 21.1877 4.39063 21.3075 4.49846 21.3954C4.61028 21.4793 4.74207 21.5212 4.89384 21.5212C5.19736 21.5212 5.41901 21.3814 5.55879 21.1019C5.70256 20.8183 5.77445 20.375 5.77445 19.7719C5.77445 19.5164 5.75848 19.2807 5.72653 19.0651C5.69857 18.8494 5.64865 18.6637 5.57676 18.5079C5.50887 18.3522 5.41901 18.2324 5.30719 18.1485C5.19536 18.0646 5.05758 18.0227 4.89384 18.0227C4.59431 18.0227 4.37266 18.1645 4.22888 18.448C4.0891 18.7316 4.01921 19.1729 4.01921 19.7719ZM6.78639 19.7719C6.78639 19.0531 6.90221 18.5119 7.13385 18.1485C7.36947 17.7851 7.71094 17.6034 8.15823 17.6034C8.64147 17.6034 8.99093 17.7831 9.20659 18.1425C9.42624 18.498 9.53607 19.0411 9.53607 19.7719C9.53607 20.4908 9.41825 21.032 9.18262 21.3954C8.95099 21.7588 8.60953 21.9405 8.15823 21.9405C7.68298 21.9405 7.33553 21.7508 7.11587 21.3714C6.89622 20.992 6.78639 20.4589 6.78639 19.7719ZM7.28361 19.7719C7.28361 20.0315 7.29958 20.2692 7.33153 20.4848C7.36748 20.6965 7.42139 20.8802 7.49328 21.036C7.56517 21.1877 7.65503 21.3075 7.76286 21.3954C7.87468 21.4793 8.00647 21.5212 8.15823 21.5212C8.46176 21.5212 8.68341 21.3814 8.82319 21.1019C8.96696 20.8183 9.03885 20.375 9.03885 19.7719C9.03885 19.5164 9.02288 19.2807 8.99093 19.0651C8.96297 18.8494 8.91305 18.6637 8.84116 18.5079C8.77327 18.3522 8.68341 18.2324 8.57158 18.1485C8.45976 18.0646 8.32198 18.0227 8.15823 18.0227C7.85871 18.0227 7.63705 18.1645 7.49328 18.448C7.3535 18.7316 7.28361 19.1729 7.28361 19.7719Z" fill="#353961"/>
<path d="M2.6718 31.9686C2.6718 32.1802 2.63186 32.3979 2.55199 32.6215C2.47611 32.8412 2.37427 33.0628 2.24647 33.2865C2.12266 33.5101 1.98288 33.7298 1.82713 33.9455C1.67137 34.1571 1.51562 34.3588 1.35986 34.5505L1.06632 34.8081V34.8321L1.44972 34.7662H2.75567V35.2095H0.371416V35.0357C0.459278 34.9439 0.565111 34.8301 0.688917 34.6943C0.812722 34.5585 0.940521 34.4087 1.07231 34.245C1.2081 34.0773 1.33989 33.9015 1.46769 33.7178C1.59949 33.5301 1.7173 33.3404 1.82114 33.1487C1.92897 32.957 2.01483 32.7673 2.07873 32.5796C2.14263 32.3919 2.17458 32.2142 2.17458 32.0464C2.17458 31.8508 2.11867 31.689 2.00684 31.5612C1.89502 31.4294 1.72529 31.3635 1.49765 31.3635C1.34588 31.3635 1.19812 31.3955 1.05434 31.4594C0.910568 31.5193 0.786763 31.5892 0.682926 31.669L0.485237 31.3276C0.625017 31.2078 0.790757 31.1139 0.982455 31.046C1.17415 30.9781 1.37983 30.9442 1.59949 30.9442C1.77122 30.9442 1.92298 30.9701 2.05477 31.0221C2.18656 31.07 2.29839 31.1399 2.39024 31.2317C2.4821 31.3236 2.55199 31.4334 2.59991 31.5612C2.64784 31.685 2.6718 31.8208 2.6718 31.9686ZM3.52199 33.1128C3.52199 32.3939 3.63781 31.8528 3.86945 31.4893C4.10508 31.1259 4.44654 30.9442 4.89384 30.9442C5.37708 30.9442 5.72653 31.1239 5.94219 31.4833C6.16184 31.8388 6.27167 32.3819 6.27167 33.1128C6.27167 33.8316 6.15386 34.3728 5.91823 34.7362C5.68659 35.0996 5.34513 35.2814 4.89384 35.2814C4.41858 35.2814 4.07113 35.0917 3.85148 34.7123C3.63182 34.3329 3.52199 33.7997 3.52199 33.1128ZM4.01921 33.1128C4.01921 33.3724 4.03519 33.61 4.06714 33.8256C4.10308 34.0373 4.15699 34.221 4.22888 34.3768C4.30077 34.5285 4.39063 34.6484 4.49846 34.7362C4.61028 34.8201 4.74207 34.862 4.89384 34.862C5.19736 34.862 5.41901 34.7222 5.55879 34.4427C5.70256 34.1591 5.77445 33.7158 5.77445 33.1128C5.77445 32.8572 5.75848 32.6215 5.72653 32.4059C5.69857 32.1902 5.64865 32.0045 5.57676 31.8488C5.50887 31.693 5.41901 31.5732 5.30719 31.4893C5.19536 31.4055 5.05758 31.3635 4.89384 31.3635C4.59431 31.3635 4.37266 31.5053 4.22888 31.7889C4.0891 32.0724 4.01921 32.5137 4.01921 33.1128ZM6.78639 33.1128C6.78639 32.3939 6.90221 31.8528 7.13385 31.4893C7.36947 31.1259 7.71094 30.9442 8.15823 30.9442C8.64147 30.9442 8.99093 31.1239 9.20659 31.4833C9.42624 31.8388 9.53607 32.3819 9.53607 33.1128C9.53607 33.8316 9.41825 34.3728 9.18262 34.7362C8.95099 35.0996 8.60953 35.2814 8.15823 35.2814C7.68298 35.2814 7.33553 35.0917 7.11587 34.7123C6.89622 34.3329 6.78639 33.7997 6.78639 33.1128ZM7.28361 33.1128C7.28361 33.3724 7.29958 33.61 7.33153 33.8256C7.36748 34.0373 7.42139 34.221 7.49328 34.3768C7.56517 34.5285 7.65503 34.6484 7.76286 34.7362C7.87468 34.8201 8.00647 34.862 8.15823 34.862C8.46176 34.862 8.68341 34.7222 8.82319 34.4427C8.96696 34.1591 9.03885 33.7158 9.03885 33.1128C9.03885 32.8572 9.02288 32.6215 8.99093 32.4059C8.96297 32.1902 8.91305 32.0045 8.84116 31.8488C8.77327 31.693 8.68341 31.5732 8.57158 31.4893C8.45976 31.4055 8.32198 31.3635 8.15823 31.3635C7.85871 31.3635 7.63705 31.5053 7.49328 31.7889C7.3535 32.0724 7.28361 32.5137 7.28361 33.1128Z" fill="#353961"/>
<path d="M30.6171 54.0335C30.6171 54.2452 30.5772 54.4628 30.4973 54.6865C30.4214 54.9061 30.3196 55.1278 30.1918 55.3514C30.068 55.5751 29.9282 55.7947 29.7724 56.0104C29.6167 56.2221 29.4609 56.4238 29.3052 56.6155L29.0116 56.873V56.897L29.395 56.8311H30.701V57.2744H28.3167V57.1007C28.4046 57.0088 28.5104 56.895 28.6342 56.7592C28.758 56.6234 28.8858 56.4737 29.0176 56.3099C29.1534 56.1422 29.2852 55.9665 29.413 55.7828C29.5448 55.5951 29.6626 55.4054 29.7664 55.2137C29.8743 55.022 29.9601 54.8323 30.024 54.6445C30.0879 54.4568 30.1199 54.2791 30.1199 54.1114C30.1199 53.9157 30.064 53.7539 29.9522 53.6262C29.8403 53.4944 29.6706 53.4285 29.443 53.4285C29.2912 53.4285 29.1434 53.4604 28.9997 53.5243C28.8559 53.5842 28.7321 53.6541 28.6282 53.734L28.4305 53.3925C28.5703 53.2727 28.7361 53.1789 28.9278 53.111C29.1195 53.0431 29.3251 53.0091 29.5448 53.0091C29.7165 53.0091 29.8683 53.0351 30.0001 53.087C30.1319 53.1349 30.2437 53.2048 30.3356 53.2967C30.4274 53.3885 30.4973 53.4984 30.5452 53.6262C30.5931 53.75 30.6171 53.8857 30.6171 54.0335ZM31.4673 55.1777C31.4673 54.4588 31.5831 53.9177 31.8148 53.5543C32.0504 53.1908 32.3919 53.0091 32.8391 53.0091C33.3224 53.0091 33.6718 53.1888 33.8875 53.5483C34.1072 53.9037 34.217 54.4469 34.217 55.1777C34.217 55.8966 34.0992 56.4377 33.8635 56.8012C33.6319 57.1646 33.2904 57.3463 32.8391 57.3463C32.3639 57.3463 32.0164 57.1566 31.7968 56.7772C31.5771 56.3978 31.4673 55.8646 31.4673 55.1777ZM31.9645 55.1777C31.9645 55.4373 31.9805 55.6749 32.0124 55.8906C32.0484 56.1023 32.1023 56.286 32.1742 56.4417C32.2461 56.5935 32.3359 56.7133 32.4438 56.8012C32.5556 56.885 32.6874 56.927 32.8391 56.927C33.1427 56.927 33.3643 56.7872 33.5041 56.5076C33.6479 56.2241 33.7198 55.7808 33.7198 55.1777C33.7198 54.9221 33.7038 54.6865 33.6718 54.4708C33.6439 54.2552 33.594 54.0695 33.5221 53.9137C33.4542 53.7579 33.3643 53.6381 33.2525 53.5543C33.1407 53.4704 33.0029 53.4285 32.8391 53.4285C32.5396 53.4285 32.318 53.5702 32.1742 53.8538C32.0344 54.1373 31.9645 54.5787 31.9645 55.1777ZM34.7317 55.1777C34.7317 54.4588 34.8475 53.9177 35.0792 53.5543C35.3148 53.1908 35.6563 53.0091 36.1035 53.0091C36.5868 53.0091 36.9362 53.1888 37.1519 53.5483C37.3716 53.9037 37.4814 54.4469 37.4814 55.1777C37.4814 55.8966 37.3636 56.4377 37.1279 56.8012C36.8963 57.1646 36.5548 57.3463 36.1035 57.3463C35.6283 57.3463 35.2808 57.1566 35.0612 56.7772C34.8415 56.3978 34.7317 55.8646 34.7317 55.1777ZM35.2289 55.1777C35.2289 55.4373 35.2449 55.6749 35.2768 55.8906C35.3128 56.1023 35.3667 56.286 35.4386 56.4417C35.5105 56.5935 35.6003 56.7133 35.7082 56.8012C35.82 56.885 35.9518 56.927 36.1035 56.927C36.4071 56.927 36.6287 56.7872 36.7685 56.5076C36.9123 56.2241 36.9842 55.7808 36.9842 55.1777C36.9842 54.9221 36.9682 54.6865 36.9362 54.4708C36.9083 54.2552 36.8584 54.0695 36.7865 53.9137C36.7186 53.7579 36.6287 53.6381 36.5169 53.5543C36.4051 53.4704 36.2673 53.4285 36.1035 53.4285C35.804 53.4285 35.5824 53.5702 35.4386 53.8538C35.2988 54.1373 35.2289 54.5787 35.2289 55.1777ZM38.1459 56.274C38.1459 56.0224 38.2118 55.8047 38.3436 55.621C38.4753 55.4333 38.681 55.2636 38.9606 55.1118C38.8607 55.0519 38.7669 54.99 38.679 54.9261C38.5952 54.8582 38.5193 54.7823 38.4514 54.6985C38.3875 54.6146 38.3356 54.5207 38.2956 54.4169C38.2597 54.3131 38.2417 54.1933 38.2417 54.0575C38.2417 53.9017 38.2677 53.7599 38.3196 53.6321C38.3755 53.5043 38.4534 53.3945 38.5532 53.3027C38.6571 53.2108 38.7789 53.1389 38.9187 53.087C39.0624 53.0351 39.2242 53.0091 39.4039 53.0091C39.5716 53.0091 39.7234 53.0331 39.8592 53.081C39.995 53.1289 40.1088 53.1948 40.2006 53.2787C40.2965 53.3626 40.3704 53.4624 40.4223 53.5782C40.4742 53.694 40.5002 53.8218 40.5002 53.9616C40.5002 54.1893 40.4482 54.3909 40.3444 54.5667C40.2406 54.7384 40.0688 54.9081 39.8292 55.0759C39.9331 55.1358 40.0309 55.2017 40.1228 55.2736C40.2186 55.3454 40.3005 55.4253 40.3684 55.5132C40.4403 55.601 40.4962 55.7009 40.5361 55.8127C40.576 55.9205 40.596 56.0443 40.596 56.1841C40.596 56.3559 40.5681 56.5136 40.5121 56.6574C40.4562 56.7972 40.3744 56.919 40.2665 57.0228C40.1587 57.1227 40.0269 57.2025 39.8712 57.2624C39.7154 57.3183 39.5377 57.3463 39.338 57.3463C39.1463 57.3463 38.9766 57.3183 38.8288 57.2624C38.681 57.2065 38.5552 57.1306 38.4514 57.0348C38.3515 56.9389 38.2757 56.8271 38.2237 56.6993C38.1718 56.5675 38.1459 56.4257 38.1459 56.274ZM40.1287 56.2141C40.1287 56.0943 40.1048 55.9904 40.0569 55.9026C40.0089 55.8107 39.945 55.7288 39.8652 55.657C39.7893 55.5811 39.7014 55.5132 39.6016 55.4533C39.5017 55.3934 39.3979 55.3355 39.2901 55.2796C39.0465 55.4153 38.8727 55.5671 38.7689 55.7348C38.6651 55.9026 38.6131 56.0623 38.6131 56.2141C38.6131 56.3099 38.6291 56.4018 38.6611 56.4896C38.693 56.5775 38.7409 56.6534 38.8048 56.7173C38.8687 56.7812 38.9466 56.8331 39.0385 56.873C39.1343 56.909 39.2441 56.927 39.3679 56.927C39.4678 56.927 39.5636 56.913 39.6555 56.885C39.7473 56.8531 39.8272 56.8091 39.8951 56.7532C39.967 56.6933 40.0229 56.6194 40.0629 56.5316C40.1068 56.4397 40.1287 56.3339 40.1287 56.2141ZM38.709 54.0455C38.709 54.1573 38.7309 54.2572 38.7749 54.345C38.8188 54.4289 38.8767 54.5048 38.9486 54.5727C39.0245 54.6406 39.1104 54.7045 39.2062 54.7644C39.302 54.8203 39.4019 54.8742 39.5057 54.9261C39.6854 54.7863 39.8172 54.6485 39.9011 54.5128C39.989 54.377 40.0329 54.2272 40.0329 54.0635C40.0329 53.8598 39.969 53.704 39.8412 53.5962C39.7174 53.4844 39.5676 53.4285 39.3919 53.4285C39.2841 53.4285 39.1882 53.4464 39.1044 53.4824C39.0205 53.5183 38.9486 53.5642 38.8887 53.6202C38.8288 53.6761 38.7829 53.742 38.7509 53.8178C38.723 53.8897 38.709 53.9656 38.709 54.0455Z" fill="#353961"/>
<path d="M71.4843 54.0335C71.4843 54.2452 71.4444 54.4628 71.3645 54.6865C71.2886 54.9061 71.1868 55.1278 71.059 55.3514C70.9352 55.5751 70.7954 55.7947 70.6396 56.0104C70.4839 56.2221 70.3281 56.4238 70.1724 56.6155L69.8788 56.873V56.897L70.2622 56.8311H71.5682V57.2744H69.1839V57.1007C69.2718 57.0088 69.3776 56.895 69.5014 56.7592C69.6252 56.6234 69.753 56.4737 69.8848 56.3099C70.0206 56.1422 70.1524 55.9665 70.2802 55.7828C70.412 55.5951 70.5298 55.4054 70.6336 55.2137C70.7415 55.022 70.8273 54.8323 70.8912 54.6445C70.9551 54.4568 70.9871 54.2791 70.9871 54.1114C70.9871 53.9157 70.9312 53.7539 70.8193 53.6262C70.7075 53.4944 70.5378 53.4285 70.3101 53.4285C70.1584 53.4285 70.0106 53.4604 69.8668 53.5243C69.7231 53.5842 69.5993 53.6541 69.4954 53.734L69.2977 53.3925C69.4375 53.2727 69.6033 53.1789 69.795 53.111C69.9867 53.0431 70.1923 53.0091 70.412 53.0091C70.5837 53.0091 70.7355 53.0351 70.8673 53.087C70.9991 53.1349 71.1109 53.2048 71.2027 53.2967C71.2946 53.3885 71.3645 53.4984 71.4124 53.6262C71.4603 53.75 71.4843 53.8857 71.4843 54.0335ZM72.3345 55.1777C72.3345 54.4588 72.4503 53.9177 72.6819 53.5543C72.9176 53.1908 73.259 53.0091 73.7063 53.0091C74.1896 53.0091 74.539 53.1888 74.7547 53.5483C74.9743 53.9037 75.0842 54.4469 75.0842 55.1777C75.0842 55.8966 74.9664 56.4377 74.7307 56.8012C74.4991 57.1646 74.1576 57.3463 73.7063 57.3463C73.2311 57.3463 72.8836 57.1566 72.664 56.7772C72.4443 56.3978 72.3345 55.8646 72.3345 55.1777ZM72.8317 55.1777C72.8317 55.4373 72.8477 55.6749 72.8796 55.8906C72.9156 56.1023 72.9695 56.286 73.0414 56.4417C73.1133 56.5935 73.2031 56.7133 73.311 56.8012C73.4228 56.885 73.5546 56.927 73.7063 56.927C74.0099 56.927 74.2315 56.7872 74.3713 56.5076C74.5151 56.2241 74.587 55.7808 74.587 55.1777C74.587 54.9221 74.571 54.6865 74.539 54.4708C74.5111 54.2552 74.4611 54.0695 74.3893 53.9137C74.3214 53.7579 74.2315 53.6381 74.1197 53.5543C74.0079 53.4704 73.8701 53.4285 73.7063 53.4285C73.4068 53.4285 73.1852 53.5702 73.0414 53.8538C72.9016 54.1373 72.8317 54.5787 72.8317 55.1777ZM75.9883 56.8311H76.827V53.9317L76.8869 53.5782L76.6472 53.8598L75.9883 54.333L75.7606 54.0275L77.0786 53.0091H77.2942V56.8311H78.1149V57.2744H75.9883V56.8311ZM81.5531 56.0104C81.5531 56.1941 81.5251 56.3678 81.4692 56.5316C81.4133 56.6913 81.3314 56.8331 81.2236 56.9569C81.1157 57.0767 80.982 57.1726 80.8222 57.2445C80.6625 57.3124 80.4807 57.3463 80.2771 57.3463C80.0774 57.3463 79.8977 57.3144 79.7379 57.2505C79.5782 57.1866 79.4404 57.0927 79.3246 56.9689C79.2087 56.8411 79.1189 56.6853 79.055 56.5016C78.9951 56.3179 78.9651 56.1063 78.9651 55.8666C78.9651 55.4712 79.0151 55.1078 79.1149 54.7763C79.2187 54.4409 79.3605 54.1493 79.5402 53.9017C79.7199 53.6541 79.9316 53.4544 80.1752 53.3027C80.4228 53.1469 80.6904 53.0491 80.978 53.0091L81.0798 53.3925C80.8562 53.4325 80.6525 53.5083 80.4688 53.6202C80.2851 53.732 80.1233 53.8698 79.9835 54.0335C79.8477 54.1973 79.7359 54.381 79.6481 54.5846C79.5602 54.7883 79.5003 54.998 79.4683 55.2137C79.5322 55.1058 79.6401 55.008 79.7918 54.9201C79.9436 54.8283 80.1293 54.7823 80.349 54.7823C80.7244 54.7823 81.0179 54.8902 81.2296 55.1058C81.4452 55.3215 81.5531 55.623 81.5531 56.0104ZM81.0558 56.0583C81.0558 55.7748 80.9899 55.5611 80.8582 55.4173C80.7264 55.2736 80.5227 55.2017 80.2471 55.2017C80.0514 55.2017 79.8817 55.2496 79.7379 55.3454C79.5981 55.4413 79.5003 55.5491 79.4444 55.6689C79.4364 55.7249 79.4324 55.7708 79.4324 55.8067C79.4324 55.8427 79.4324 55.8826 79.4324 55.9265C79.4324 56.0503 79.4484 56.1721 79.4803 56.292C79.5163 56.4118 79.5702 56.5196 79.6421 56.6155C79.714 56.7073 79.8018 56.7832 79.9057 56.8431C80.0135 56.899 80.1393 56.927 80.2831 56.927C80.3989 56.927 80.5027 56.905 80.5946 56.8611C80.6904 56.8171 80.7723 56.7572 80.8402 56.6813C80.9081 56.6055 80.96 56.5136 80.9959 56.4058C81.0359 56.2979 81.0558 56.1821 81.0558 56.0583Z" fill="#353961"/>
<path d="M110.766 54.0335C110.766 54.2452 110.726 54.4628 110.646 54.6865C110.57 54.9061 110.468 55.1278 110.34 55.3514C110.216 55.5751 110.077 55.7947 109.921 56.0104C109.765 56.2221 109.609 56.4238 109.454 56.6155L109.16 56.873V56.897L109.543 56.8311H110.849V57.2744H108.465V57.1007C108.553 57.0088 108.659 56.895 108.783 56.7592C108.906 56.6234 109.034 56.4737 109.166 56.3099C109.302 56.1422 109.434 55.9665 109.561 55.7828C109.693 55.5951 109.811 55.4054 109.915 55.2137C110.023 55.022 110.109 54.8323 110.172 54.6445C110.236 54.4568 110.268 54.2791 110.268 54.1114C110.268 53.9157 110.212 53.7539 110.101 53.6262C109.989 53.4944 109.819 53.4285 109.591 53.4285C109.44 53.4285 109.292 53.4604 109.148 53.5243C109.004 53.5842 108.881 53.6541 108.777 53.734L108.579 53.3925C108.719 53.2727 108.885 53.1789 109.076 53.111C109.268 53.0431 109.474 53.0091 109.693 53.0091C109.865 53.0091 110.017 53.0351 110.149 53.087C110.28 53.1349 110.392 53.2048 110.484 53.2967C110.576 53.3885 110.646 53.4984 110.694 53.6262C110.742 53.75 110.766 53.8857 110.766 54.0335ZM111.616 55.1777C111.616 54.4588 111.732 53.9177 111.963 53.5543C112.199 53.1908 112.54 53.0091 112.988 53.0091C113.471 53.0091 113.82 53.1888 114.036 53.5483C114.256 53.9037 114.365 54.4469 114.365 55.1777C114.365 55.8966 114.248 56.4377 114.012 56.8012C113.78 57.1646 113.439 57.3463 112.988 57.3463C112.512 57.3463 112.165 57.1566 111.945 56.7772C111.726 56.3978 111.616 55.8646 111.616 55.1777ZM112.113 55.1777C112.113 55.4373 112.129 55.6749 112.161 55.8906C112.197 56.1023 112.251 56.286 112.323 56.4417C112.395 56.5935 112.484 56.7133 112.592 56.8012C112.704 56.885 112.836 56.927 112.988 56.927C113.291 56.927 113.513 56.7872 113.653 56.5076C113.796 56.2241 113.868 55.7808 113.868 55.1777C113.868 54.9221 113.852 54.6865 113.82 54.4708C113.792 54.2552 113.742 54.0695 113.671 53.9137C113.603 53.7579 113.513 53.6381 113.401 53.5543C113.289 53.4704 113.151 53.4285 112.988 53.4285C112.688 53.4285 112.466 53.5702 112.323 53.8538C112.183 54.1373 112.113 54.5787 112.113 55.1777ZM115.27 56.8311H116.108V53.9317L116.168 53.5782L115.928 53.8598L115.27 54.333L115.042 54.0275L116.36 53.0091H116.575V56.8311H117.396V57.2744H115.27V56.8311ZM118.198 54.351C118.198 54.1593 118.226 53.9816 118.282 53.8178C118.338 53.6541 118.42 53.5123 118.528 53.3925C118.636 53.2727 118.77 53.1789 118.929 53.111C119.093 53.0431 119.283 53.0091 119.498 53.0091C119.906 53.0091 120.223 53.1409 120.451 53.4045C120.679 53.6681 120.792 54.0395 120.792 54.5187C120.792 54.97 120.74 55.3654 120.637 55.7049C120.537 56.0404 120.397 56.3239 120.217 56.5555C120.038 56.7872 119.824 56.9689 119.576 57.1007C119.333 57.2285 119.067 57.3104 118.78 57.3463L118.672 56.9629C118.903 56.927 119.111 56.8591 119.295 56.7592C119.482 56.6594 119.642 56.5336 119.774 56.3818C119.91 56.2301 120.02 56.0583 120.103 55.8666C120.187 55.6709 120.245 55.4593 120.277 55.2316C120.169 55.3594 120.05 55.4493 119.918 55.5012C119.79 55.5491 119.62 55.5731 119.409 55.5731C119.245 55.5731 119.089 55.5471 118.941 55.4952C118.798 55.4393 118.67 55.3594 118.558 55.2556C118.446 55.1518 118.358 55.024 118.294 54.8722C118.23 54.7204 118.198 54.5467 118.198 54.351ZM118.696 54.3031C118.696 54.5866 118.77 54.8003 118.917 54.9441C119.069 55.0839 119.267 55.1537 119.51 55.1537C119.706 55.1537 119.874 55.1218 120.014 55.0579C120.153 54.994 120.253 54.9101 120.313 54.8063C120.321 54.7544 120.325 54.7084 120.325 54.6685C120.325 54.6286 120.325 54.5866 120.325 54.5427C120.325 54.3989 120.307 54.2612 120.271 54.1294C120.239 53.9936 120.189 53.8738 120.121 53.7699C120.054 53.6621 119.964 53.5782 119.852 53.5183C119.744 53.4584 119.616 53.4285 119.468 53.4285C119.225 53.4285 119.035 53.5063 118.899 53.6621C118.764 53.8139 118.696 54.0275 118.696 54.3031Z" fill="#353961"/>
<path d="M150.047 54.0335C150.047 54.2452 150.007 54.4628 149.927 54.6865C149.851 54.9061 149.749 55.1278 149.621 55.3514C149.498 55.5751 149.358 55.7947 149.202 56.0104C149.046 56.2221 148.891 56.4238 148.735 56.6155L148.441 56.873V56.897L148.825 56.8311H150.131V57.2744H147.746V57.1007C147.834 57.0088 147.94 56.895 148.064 56.7592C148.188 56.6234 148.316 56.4737 148.447 56.3099C148.583 56.1422 148.715 55.9665 148.843 55.7828C148.974 55.5951 149.092 55.4054 149.196 55.2137C149.304 55.022 149.39 54.8323 149.454 54.6445C149.518 54.4568 149.55 54.2791 149.55 54.1114C149.55 53.9157 149.494 53.7539 149.382 53.6262C149.27 53.4944 149.1 53.4285 148.873 53.4285C148.721 53.4285 148.573 53.4604 148.429 53.5243C148.286 53.5842 148.162 53.6541 148.058 53.734L147.86 53.3925C148 53.2727 148.166 53.1789 148.357 53.111C148.549 53.0431 148.755 53.0091 148.974 53.0091C149.146 53.0091 149.298 53.0351 149.43 53.087C149.562 53.1349 149.673 53.2048 149.765 53.2967C149.857 53.3885 149.927 53.4984 149.975 53.6262C150.023 53.75 150.047 53.8857 150.047 54.0335ZM150.897 55.1777C150.897 54.4588 151.013 53.9177 151.244 53.5543C151.48 53.1908 151.822 53.0091 152.269 53.0091C152.752 53.0091 153.102 53.1888 153.317 53.5483C153.537 53.9037 153.647 54.4469 153.647 55.1777C153.647 55.8966 153.529 56.4377 153.293 56.8012C153.062 57.1646 152.72 57.3463 152.269 57.3463C151.794 57.3463 151.446 57.1566 151.226 56.7772C151.007 56.3978 150.897 55.8646 150.897 55.1777ZM151.394 55.1777C151.394 55.4373 151.41 55.6749 151.442 55.8906C151.478 56.1023 151.532 56.286 151.604 56.4417C151.676 56.5935 151.766 56.7133 151.873 56.8012C151.985 56.885 152.117 56.927 152.269 56.927C152.572 56.927 152.794 56.7872 152.934 56.5076C153.078 56.2241 153.149 55.7808 153.149 55.1777C153.149 54.9221 153.133 54.6865 153.102 54.4708C153.074 54.2552 153.024 54.0695 152.952 53.9137C152.884 53.7579 152.794 53.6381 152.682 53.5543C152.57 53.4704 152.433 53.4285 152.269 53.4285C151.969 53.4285 151.748 53.5702 151.604 53.8538C151.464 54.1373 151.394 54.5787 151.394 55.1777ZM156.576 54.0335C156.576 54.2452 156.536 54.4628 156.456 54.6865C156.38 54.9061 156.278 55.1278 156.15 55.3514C156.026 55.5751 155.887 55.7947 155.731 56.0104C155.575 56.2221 155.419 56.4238 155.264 56.6155L154.97 56.873V56.897L155.354 56.8311H156.659V57.2744H154.275V57.1007C154.363 57.0088 154.469 56.895 154.593 56.7592C154.717 56.6234 154.844 56.4737 154.976 56.3099C155.112 56.1422 155.244 55.9665 155.371 55.7828C155.503 55.5951 155.621 55.4054 155.725 55.2137C155.833 55.022 155.919 54.8323 155.983 54.6445C156.046 54.4568 156.078 54.2791 156.078 54.1114C156.078 53.9157 156.022 53.7539 155.911 53.6262C155.799 53.4944 155.629 53.4285 155.401 53.4285C155.25 53.4285 155.102 53.4604 154.958 53.5243C154.814 53.5842 154.691 53.6541 154.587 53.734L154.389 53.3925C154.529 53.2727 154.695 53.1789 154.886 53.111C155.078 53.0431 155.284 53.0091 155.503 53.0091C155.675 53.0091 155.827 53.0351 155.959 53.087C156.09 53.1349 156.202 53.2048 156.294 53.2967C156.386 53.3885 156.456 53.4984 156.504 53.6262C156.552 53.75 156.576 53.8857 156.576 54.0335ZM159.84 54.0335C159.84 54.2452 159.8 54.4628 159.72 54.6865C159.644 54.9061 159.542 55.1278 159.415 55.3514C159.291 55.5751 159.151 55.7947 158.995 56.0104C158.84 56.2221 158.684 56.4238 158.528 56.6155L158.235 56.873V56.897L158.618 56.8311H159.924V57.2744H157.54V57.1007C157.627 57.0088 157.733 56.895 157.857 56.7592C157.981 56.6234 158.109 56.4737 158.241 56.3099C158.376 56.1422 158.508 55.9665 158.636 55.7828C158.768 55.5951 158.885 55.4054 158.989 55.2137C159.097 55.022 159.183 54.8323 159.247 54.6445C159.311 54.4568 159.343 54.2791 159.343 54.1114C159.343 53.9157 159.287 53.7539 159.175 53.6262C159.063 53.4944 158.893 53.4285 158.666 53.4285C158.514 53.4285 158.366 53.4604 158.223 53.5243C158.079 53.5842 157.955 53.6541 157.851 53.734L157.653 53.3925C157.793 53.2727 157.959 53.1789 158.151 53.111C158.342 53.0431 158.548 53.0091 158.768 53.0091C158.939 53.0091 159.091 53.0351 159.223 53.087C159.355 53.1349 159.467 53.2048 159.558 53.2967C159.65 53.3885 159.72 53.4984 159.768 53.6262C159.816 53.75 159.84 53.8857 159.84 54.0335Z" fill="#353961"/>
<rect x="9.02344" y="33.522" width="1.71719" height="0.430053" fill="#777E8C"/>
<rect x="9.02344" y="19.5068" width="1.71719" height="0.430053" fill="#777E8C"/>
<path d="M1.5377 49.0356C1.5377 48.3168 1.65352 47.7756 1.88515 47.4122C2.12078 47.0487 2.46224 46.867 2.90954 46.867C3.39278 46.867 3.74223 47.0467 3.95789 47.4062C4.17755 47.7616 4.28738 48.3048 4.28738 49.0356C4.28738 49.7545 4.16956 50.2956 3.93393 50.6591C3.70229 51.0225 3.36083 51.2042 2.90954 51.2042C2.43429 51.2042 2.08684 51.0145 1.86718 50.6351C1.64753 50.2557 1.5377 49.7225 1.5377 49.0356ZM2.03492 49.0356C2.03492 49.2952 2.05089 49.5328 2.08284 49.7485C2.11878 49.9602 2.1727 50.1439 2.24459 50.2996C2.31647 50.4514 2.40633 50.5712 2.51416 50.6591C2.62599 50.7429 2.75778 50.7849 2.90954 50.7849C3.21306 50.7849 3.43472 50.6451 3.5745 50.3655C3.71827 50.082 3.79016 49.6387 3.79016 49.0356C3.79016 48.78 3.77418 48.5444 3.74223 48.3287C3.71428 48.1131 3.66435 47.9274 3.59247 47.7716C3.52457 47.6159 3.43472 47.496 3.32289 47.4122C3.21107 47.3283 3.07328 47.2864 2.90954 47.2864C2.61001 47.2864 2.38836 47.4281 2.24459 47.7117C2.10481 47.9953 2.03492 48.4366 2.03492 49.0356Z" fill="#353961"/>
<rect x="9.02344" y="5.74756" width="1.71719" height="0.430053" fill="#777E8C"/>
<path d="M34.8939 36.2121C34.8939 36.7302 34.4912 37.1392 34.0077 37.1392C33.5242 37.1392 33.1214 36.7302 33.1214 36.2121C33.1214 35.694 33.5242 35.285 34.0077 35.285C34.4912 35.285 34.8939 35.694 34.8939 36.2121Z" fill="#56CCF2" stroke="white" stroke-width="0.336594"/>
<path d="M44.6518 43.0583C44.6518 43.5764 44.249 43.9854 43.7655 43.9854C43.282 43.9854 42.8792 43.5764 42.8792 43.0583C42.8792 42.5402 43.282 42.1312 43.7655 42.1312C44.249 42.1312 44.6518 42.5402 44.6518 43.0583Z" fill="#3B51FF" stroke="white" stroke-width="0.336594"/>
<path d="M59.9408 40.0461C59.9408 40.5642 59.538 40.9732 59.0546 40.9732C58.5711 40.9732 58.1683 40.5642 58.1683 40.0461C58.1683 39.528 58.5711 39.119 59.0546 39.119C59.538 39.119 59.9408 39.528 59.9408 40.0461Z" fill="#56CCF2" stroke="white" stroke-width="0.336594"/>
<path d="M67.3236 43.0583C67.3236 43.5764 66.9209 43.9854 66.4374 43.9854C65.9539 43.9854 65.5511 43.5764 65.5511 43.0583C65.5511 42.5402 65.9539 42.1312 66.4374 42.1312C66.9209 42.1312 67.3236 42.5402 67.3236 43.0583Z" fill="#3B51FF" stroke="white" stroke-width="0.336594"/>
<path d="M84.9877 27.9963C84.9877 28.5144 84.5849 28.9234 84.1014 28.9234C83.6179 28.9234 83.2152 28.5144 83.2152 27.9963C83.2152 27.4782 83.6179 27.0692 84.1014 27.0692C84.5849 27.0692 84.9877 27.4782 84.9877 27.9963Z" fill="#56CCF2" stroke="white" stroke-width="0.336594"/>
<path d="M95.0072 40.0461C95.0072 40.5642 94.6045 40.9732 94.121 40.9732C93.6375 40.9732 93.2347 40.5642 93.2347 40.0461C93.2347 39.528 93.6375 39.119 94.121 39.119C94.6045 39.119 95.0072 39.528 95.0072 40.0461Z" fill="#3B51FF" stroke="white" stroke-width="0.336594"/>
<path d="M106.605 37.8557C106.605 38.3738 106.202 38.7828 105.719 38.7828C105.235 38.7828 104.832 38.3738 104.832 37.8557C104.832 37.3376 105.235 36.9286 105.719 36.9286C106.202 36.9286 106.605 37.3376 106.605 37.8557Z" fill="#3B51FF" stroke="white" stroke-width="0.336594"/>
<path d="M119.523 30.1872C119.523 30.7053 119.12 31.1143 118.637 31.1143C118.153 31.1143 117.75 30.7053 117.75 30.1872C117.75 29.6691 118.153 29.2601 118.637 29.2601C119.12 29.2601 119.523 29.6691 119.523 30.1872Z" fill="#3B51FF" stroke="white" stroke-width="0.336594"/>
<path d="M132.706 27.9963C132.706 28.5144 132.304 28.9234 131.82 28.9234C131.337 28.9234 130.934 28.5144 130.934 27.9963C130.934 27.4782 131.337 27.0692 131.82 27.0692C132.304 27.0692 132.706 27.4782 132.706 27.9963Z" fill="#3B51FF" stroke="white" stroke-width="0.336594"/>
<path d="M144.831 13.4821C144.831 14.0003 144.429 14.4093 143.945 14.4093C143.462 14.4093 143.059 14.0003 143.059 13.4821C143.059 12.964 143.462 12.555 143.945 12.555C144.429 12.555 144.831 12.964 144.831 13.4821Z" fill="#3B51FF" stroke="white" stroke-width="0.336594"/>
<path d="M157.488 1.1589C157.488 1.67703 157.085 2.08603 156.601 2.08603C156.118 2.08603 155.715 1.67703 155.715 1.1589C155.715 0.640774 156.118 0.231773 156.601 0.231773C157.085 0.231773 157.488 0.640774 157.488 1.1589Z" fill="#3B51FF" stroke="white" stroke-width="0.336594"/>
</svg>
