<svg width="160" height="61" viewBox="0 0 160 61" fill="none" xmlns="http://www.w3.org/2000/svg">
<rect y="48.2393" width="158" height="0.50149" fill="#777E8C"/>
<rect x="3.08984" y="49.7446" width="49.6812" height="1.02931" transform="rotate(-90 3.08984 49.7446)" fill="#777E8C"/>
<path d="M3.29516 56.1567C3.29516 55.4378 3.41098 54.8967 3.64261 54.5333C3.87824 54.1698 4.21971 53.9881 4.667 53.9881C5.15024 53.9881 5.49969 54.1678 5.71535 54.5273C5.93501 54.8827 6.04484 55.4259 6.04484 56.1567C6.04484 56.8756 5.92702 57.4167 5.69139 57.7802C5.45976 58.1436 5.11829 58.3253 4.667 58.3253C4.19175 58.3253 3.8443 58.1356 3.62464 57.7562C3.40499 57.3768 3.29516 56.8436 3.29516 56.1567ZM3.79238 56.1567C3.79238 56.4163 3.80835 56.6539 3.8403 56.8696C3.87625 57.0813 3.93016 57.265 4.00205 57.4207C4.07393 57.5725 4.16379 57.6923 4.27162 57.7802C4.38345 57.864 4.51524 57.906 4.667 57.906C4.97053 57.906 5.19218 57.7662 5.33196 57.4866C5.47573 57.2031 5.54762 56.7598 5.54762 56.1567C5.54762 55.9011 5.53164 55.6655 5.49969 55.4498C5.47174 55.2342 5.42182 55.0485 5.34993 54.8927C5.28204 54.7369 5.19218 54.6171 5.08035 54.5333C4.96853 54.4494 4.83075 54.4075 4.667 54.4075C4.36747 54.4075 4.14582 54.5492 4.00205 54.8328C3.86227 55.1164 3.79238 55.5577 3.79238 56.1567Z" fill="#353961"/>
<path d="M35.1937 55.0125C35.1937 55.2242 35.1538 55.4418 35.0739 55.6655C34.998 55.8851 34.8962 56.1068 34.7684 56.3304C34.6446 56.5541 34.5048 56.7737 34.3491 56.9894C34.1933 57.2011 34.0376 57.4028 33.8818 57.5945L33.5883 57.852V57.876L33.9717 57.8101H35.2776V58.2534H32.8934V58.0797C32.9812 57.9878 33.0871 57.874 33.2109 57.7382C33.3347 57.6024 33.4625 57.4527 33.5943 57.2889C33.73 57.1212 33.8618 56.9455 33.9896 56.7618C34.1214 56.5741 34.2392 56.3844 34.3431 56.1927C34.4509 56.001 34.5368 55.8113 34.6007 55.6236C34.6646 55.4358 34.6965 55.2581 34.6965 55.0904C34.6965 54.8947 34.6406 54.733 34.5288 54.6052C34.417 54.4734 34.2472 54.4075 34.0196 54.4075C33.8678 54.4075 33.7201 54.4394 33.5763 54.5033C33.4325 54.5632 33.3087 54.6331 33.2049 54.713L33.0072 54.3715C33.147 54.2517 33.3127 54.1579 33.5044 54.09C33.6961 54.0221 33.9018 53.9881 34.1214 53.9881C34.2932 53.9881 34.4449 54.0141 34.5767 54.066C34.7085 54.1139 34.8203 54.1838 34.9122 54.2757C35.004 54.3675 35.0739 54.4774 35.1219 54.6052C35.1698 54.729 35.1937 54.8647 35.1937 55.0125Z" fill="#353961"/>
<path d="M66.3915 56.9654H65.6846V58.2534H65.2173V56.9654H63.3722V56.7678L65.3611 53.9941H65.6846V56.5461H66.3915V56.9654ZM65.2173 55.2402L65.2772 54.7489H65.2593L65.0496 55.1563L64.2049 56.3005L63.9174 56.594L64.3367 56.5461H65.2173V55.2402Z" fill="#353961"/>
<path d="M95.9185 56.9894C95.9185 57.1731 95.8906 57.3468 95.8347 57.5106C95.7787 57.6703 95.6969 57.8121 95.589 57.9359C95.4812 58.0557 95.3474 58.1516 95.1877 58.2235C95.0279 58.2914 94.8462 58.3253 94.6425 58.3253C94.4428 58.3253 94.2631 58.2934 94.1034 58.2295C93.9436 58.1656 93.8058 58.0717 93.69 57.9479C93.5742 57.8201 93.4844 57.6643 93.4205 57.4806C93.3605 57.2969 93.3306 57.0853 93.3306 56.8456C93.3306 56.4503 93.3805 56.0868 93.4804 55.7553C93.5842 55.4199 93.726 55.1283 93.9057 54.8807C94.0854 54.6331 94.2971 54.4334 94.5407 54.2817C94.7883 54.1259 95.0559 54.0281 95.3434 53.9881L95.4453 54.3715C95.2216 54.4115 95.0179 54.4873 94.8342 54.5992C94.6505 54.711 94.4888 54.8488 94.349 55.0125C94.2132 55.1763 94.1014 55.36 94.0135 55.5636C93.9257 55.7673 93.8658 55.977 93.8338 56.1927C93.8977 56.0848 94.0055 55.987 94.1573 55.8991C94.3091 55.8073 94.4948 55.7613 94.7144 55.7613C95.0898 55.7613 95.3834 55.8692 95.595 56.0848C95.8107 56.3005 95.9185 56.602 95.9185 56.9894ZM95.4213 57.0373C95.4213 56.7538 95.3554 56.5401 95.2236 56.3963C95.0918 56.2526 94.8881 56.1807 94.6126 56.1807C94.4169 56.1807 94.2472 56.2286 94.1034 56.3245C93.9636 56.4203 93.8658 56.5281 93.8098 56.6479C93.8019 56.7039 93.7979 56.7498 93.7979 56.7857C93.7979 56.8217 93.7979 56.8616 93.7979 56.9055C93.7979 57.0293 93.8138 57.1512 93.8458 57.271C93.8817 57.3908 93.9356 57.4986 94.0075 57.5945C94.0794 57.6863 94.1673 57.7622 94.2711 57.8221C94.3789 57.878 94.5047 57.906 94.6485 57.906C94.7643 57.906 94.8682 57.884 94.96 57.8401C95.0559 57.7961 95.1378 57.7362 95.2056 57.6604C95.2735 57.5845 95.3255 57.4926 95.3614 57.3848C95.4013 57.277 95.4213 57.1611 95.4213 57.0373Z" fill="#353961"/>
<path d="M123.875 57.253C123.875 57.0014 123.941 56.7837 124.072 56.6C124.204 56.4123 124.41 56.2426 124.689 56.0908C124.589 56.0309 124.496 55.969 124.408 55.9051C124.324 55.8372 124.248 55.7613 124.18 55.6775C124.116 55.5936 124.064 55.4997 124.024 55.3959C123.988 55.2921 123.97 55.1723 123.97 55.0365C123.97 54.8807 123.996 54.7389 124.048 54.6111C124.104 54.4833 124.182 54.3735 124.282 54.2817C124.386 54.1898 124.508 54.1179 124.647 54.066C124.791 54.0141 124.953 53.9881 125.133 53.9881C125.3 53.9881 125.452 54.0121 125.588 54.06C125.724 54.1079 125.838 54.1738 125.929 54.2577C126.025 54.3416 126.099 54.4414 126.151 54.5572C126.203 54.673 126.229 54.8008 126.229 54.9406C126.229 55.1683 126.177 55.37 126.073 55.5457C125.969 55.7174 125.798 55.8871 125.558 56.0549C125.662 56.1148 125.76 56.1807 125.852 56.2526C125.947 56.3245 126.029 56.4043 126.097 56.4922C126.169 56.58 126.225 56.6799 126.265 56.7917C126.305 56.8995 126.325 57.0234 126.325 57.1631C126.325 57.3349 126.297 57.4926 126.241 57.6364C126.185 57.7762 126.103 57.898 125.995 58.0018C125.887 58.1017 125.756 58.1815 125.6 58.2414C125.444 58.2973 125.266 58.3253 125.067 58.3253C124.875 58.3253 124.705 58.2973 124.558 58.2414C124.41 58.1855 124.284 58.1096 124.18 58.0138C124.08 57.9179 124.004 57.8061 123.952 57.6783C123.901 57.5465 123.875 57.4048 123.875 57.253ZM125.857 57.1931C125.857 57.0733 125.834 56.9694 125.786 56.8816C125.738 56.7897 125.674 56.7078 125.594 56.636C125.518 56.5601 125.43 56.4922 125.33 56.4323C125.23 56.3724 125.127 56.3145 125.019 56.2586C124.775 56.3943 124.601 56.5461 124.498 56.7138C124.394 56.8816 124.342 57.0413 124.342 57.1931C124.342 57.2889 124.358 57.3808 124.39 57.4687C124.422 57.5565 124.47 57.6324 124.534 57.6963C124.597 57.7602 124.675 57.8121 124.767 57.852C124.863 57.888 124.973 57.906 125.097 57.906C125.197 57.906 125.292 57.892 125.384 57.864C125.476 57.8321 125.556 57.7881 125.624 57.7322C125.696 57.6723 125.752 57.5984 125.792 57.5106C125.836 57.4187 125.857 57.3129 125.857 57.1931ZM124.438 55.0245C124.438 55.1363 124.46 55.2362 124.504 55.324C124.548 55.4079 124.605 55.4838 124.677 55.5517C124.753 55.6196 124.839 55.6835 124.935 55.7434C125.031 55.7993 125.131 55.8532 125.234 55.9051C125.414 55.7653 125.546 55.6275 125.63 55.4918C125.718 55.356 125.762 55.2062 125.762 55.0425C125.762 54.8388 125.698 54.683 125.57 54.5752C125.446 54.4634 125.296 54.4075 125.121 54.4075C125.013 54.4075 124.917 54.4254 124.833 54.4614C124.749 54.4973 124.677 54.5433 124.617 54.5992C124.558 54.6551 124.512 54.721 124.48 54.7969C124.452 54.8687 124.438 54.9446 124.438 55.0245Z" fill="#353961"/>
<path d="M153.869 57.8101H154.707V54.9107L154.767 54.5572L154.527 54.8388L153.869 55.312L153.641 55.0065L154.959 53.9881H155.174V57.8101H155.995V58.2534H153.869V57.8101ZM156.744 56.1567C156.744 55.4378 156.859 54.8967 157.091 54.5333C157.327 54.1698 157.668 53.9881 158.115 53.9881C158.599 53.9881 158.948 54.1678 159.164 54.5273C159.383 54.8827 159.493 55.4259 159.493 56.1567C159.493 56.8756 159.375 57.4167 159.14 57.7802C158.908 58.1436 158.567 58.3253 158.115 58.3253C157.64 58.3253 157.293 58.1356 157.073 57.7562C156.853 57.3768 156.744 56.8436 156.744 56.1567ZM157.241 56.1567C157.241 56.4163 157.257 56.6539 157.289 56.8696C157.325 57.0813 157.379 57.265 157.45 57.4207C157.522 57.5725 157.612 57.6923 157.72 57.7802C157.832 57.864 157.964 57.906 158.115 57.906C158.419 57.906 158.641 57.7662 158.78 57.4866C158.924 57.2031 158.996 56.7598 158.996 56.1567C158.996 55.9011 158.98 55.6655 158.948 55.4498C158.92 55.2342 158.87 55.0485 158.798 54.8927C158.73 54.7369 158.641 54.6171 158.529 54.5333C158.417 54.4494 158.279 54.4075 158.115 54.4075C157.816 54.4075 157.594 54.5492 157.45 54.8328C157.311 55.1164 157.241 55.5577 157.241 56.1567Z" fill="#353961"/>
<rect y="32.1802" width="3.08794" height="0.50149" fill="#777E8C"/>
<rect y="16.1216" width="3.08794" height="0.50149" fill="#777E8C"/>
<rect y="0.0634766" width="3.08794" height="0.50149" fill="#777E8C"/>
<rect x="4.11719" y="33.686" width="153.882" height="13.5494" fill="#777E8C"/>
<rect x="4.11719" y="17.6274" width="153.882" height="13.5494" fill="#56CCF2"/>
<rect x="4.11719" y="1.56885" width="136.899" height="13.5494" fill="#6FCF97"/>
</svg>
