<svg width="14" height="14" viewBox="0 0 14 14" fill="none" xmlns="http://www.w3.org/2000/svg">
<path d="M12.438 2.94601L8.93797 1.77934H8.89714C8.86998 1.77661 8.84262 1.77661 8.81547 1.77934H8.56464L5.2513 2.91684L1.93797 1.77934C1.85025 1.75041 1.75691 1.74273 1.66563 1.75693C1.57436 1.77113 1.48776 1.8068 1.41297 1.86101C1.33758 1.91468 1.27604 1.98553 1.23344 2.06769C1.19084 2.14985 1.1684 2.24096 1.16797 2.33351V10.5002C1.16766 10.6225 1.20578 10.7418 1.27696 10.8412C1.34814 10.9406 1.44878 11.0152 1.56464 11.0543L5.06464 12.221C5.18215 12.2593 5.30879 12.2593 5.4263 12.221L8.7513 11.1127L12.0646 12.2502C12.1266 12.2586 12.1894 12.2586 12.2513 12.2502C12.3733 12.2519 12.4923 12.2129 12.5896 12.1393C12.665 12.0857 12.7266 12.0148 12.7692 11.9327C12.8118 11.8505 12.8342 11.7594 12.8346 11.6668V3.50017C12.835 3.37788 12.7968 3.25858 12.7256 3.15914C12.6545 3.0597 12.5538 2.98514 12.438 2.94601ZM4.66797 10.856L2.33464 10.0802V3.14434L4.66797 3.92017V10.856ZM8.16797 10.0802L5.83464 10.856V3.92017L8.16797 3.14434V10.0802ZM11.668 10.856L9.33464 10.0802V3.14434L11.668 3.92017V10.856Z" fill="#3D4658"/>
</svg>
