<svg width="12" height="12" viewBox="0 0 12 12" fill="none" xmlns="http://www.w3.org/2000/svg">
<g clip-path="url(#clip0_915_16516)">
<path fill-rule="evenodd" clip-rule="evenodd" d="M1.3125 1.125C1.26277 1.125 1.21508 1.14475 1.17992 1.17992C1.14475 1.21508 1.125 1.26277 1.125 1.3125V8.4375C1.125 8.541 1.209 8.625 1.3125 8.625H2.8125C2.96168 8.625 3.10476 8.68426 3.21025 8.78975C3.31574 8.89524 3.375 9.03832 3.375 9.1875V10.83L5.415 8.79C5.52039 8.68448 5.66337 8.62513 5.8125 8.625H10.6875C10.7372 8.625 10.7849 8.60525 10.8201 8.57008C10.8552 8.53492 10.875 8.48723 10.875 8.4375V1.3125C10.875 1.26277 10.8552 1.21508 10.8201 1.17992C10.7849 1.14475 10.7372 1.125 10.6875 1.125H1.3125ZM0 1.3125C0 0.588 0.588 0 1.3125 0H10.6875C11.412 0 12 0.588 12 1.3125V8.4375C12 8.7856 11.8617 9.11944 11.6156 9.36558C11.3694 9.61172 11.0356 9.75 10.6875 9.75H6.045L4.11525 11.6798C3.96243 11.8325 3.76775 11.9365 3.55583 11.9786C3.34391 12.0208 3.12425 11.9991 2.92462 11.9165C2.725 11.8338 2.55436 11.6938 2.43428 11.5142C2.31421 11.3345 2.25008 11.1233 2.25 10.9073V9.75H1.3125C0.964403 9.75 0.630564 9.61172 0.384422 9.36558C0.138281 9.11944 0 8.7856 0 8.4375L0 1.3125ZM6.75 6.75C6.75 6.94891 6.67098 7.13968 6.53033 7.28033C6.38968 7.42098 6.19891 7.5 6 7.5C5.80109 7.5 5.61032 7.42098 5.46967 7.28033C5.32902 7.13968 5.25 6.94891 5.25 6.75C5.25 6.55109 5.32902 6.36032 5.46967 6.21967C5.61032 6.07902 5.80109 6 6 6C6.19891 6 6.38968 6.07902 6.53033 6.21967C6.67098 6.36032 6.75 6.55109 6.75 6.75ZM6.5625 2.8125C6.5625 2.66332 6.50324 2.52024 6.39775 2.41475C6.29226 2.30926 6.14918 2.25 6 2.25C5.85082 2.25 5.70774 2.30926 5.60225 2.41475C5.49676 2.52024 5.4375 2.66332 5.4375 2.8125V4.6875C5.4375 4.83668 5.49676 4.97976 5.60225 5.08525C5.70774 5.19074 5.85082 5.25 6 5.25C6.14918 5.25 6.29226 5.19074 6.39775 5.08525C6.50324 4.97976 6.5625 4.83668 6.5625 4.6875V2.8125Z" fill="#1E2139"/>
</g>
<defs>
<clipPath id="clip0_915_16516">
<rect width="12" height="12" fill="white"/>
</clipPath>
</defs>
</svg>
