<svg width="87" height="87" viewBox="0 0 87 87" fill="none" xmlns="http://www.w3.org/2000/svg">
<rect x="0.5" y="0.5" width="86" height="86" rx="43" fill="white" stroke="#E0E7ED"/>
<g clip-path="url(#clip0_909_16238)">
<rect width="42.0874" height="67.6699" transform="translate(22.25 9.5)" fill="white"/>
<path d="M45.7714 21.6743H41.8031C41.571 21.6595 41.3469 21.5836 41.1534 21.4542C40.9598 21.3248 40.8038 21.1465 40.7008 20.9373L38.7902 16.4416C38.6991 16.269 38.6552 16.0753 38.663 15.8802C38.6708 15.6851 38.7299 15.4956 38.8344 15.3308C38.939 15.1661 39.0851 15.0321 39.2581 14.9424C39.431 14.8527 39.6246 14.8105 39.819 14.8202H47.7555C47.95 14.8105 48.1435 14.8527 48.3164 14.9424C48.4894 15.0321 48.6355 15.1661 48.7401 15.3308C48.8446 15.4956 48.9038 15.6851 48.9115 15.8802C48.9193 16.0753 48.8754 16.269 48.7843 16.4416L46.8737 20.9373C46.7708 21.1465 46.6147 21.3248 46.4211 21.4542C46.2276 21.5836 46.0035 21.6595 45.7714 21.6743Z" fill="#363960"/>
<path d="M47.5358 35.0869L39.3789 40.6144L41.51 24.253C41.546 23.9665 41.6856 23.7031 41.9023 23.513C42.119 23.3228 42.3978 23.219 42.6858 23.2212H44.9638C45.2518 23.219 45.5306 23.3228 45.7473 23.513C45.964 23.7031 46.1036 23.9665 46.1396 24.253L47.5358 35.0869Z" fill="#363960"/>
<path d="M48.0515 39.5089L38.7188 45.9208L39.0862 43.415L47.831 37.3716L48.0515 39.5089Z" fill="#363960"/>
<path d="M51.2102 70.3163L45.1109 76.1386C44.9395 76.3169 44.734 76.4588 44.5067 76.5556C44.2795 76.6525 44.0351 76.7024 43.7881 76.7024C43.5412 76.7024 43.2967 76.6525 43.0695 76.5556C42.8422 76.4588 42.6367 76.3169 42.4654 76.1386L36.4395 70.3163C36.2265 70.1076 36.063 69.8535 35.9613 69.5728C35.8595 69.2921 35.822 68.9921 35.8516 68.6949L37.3214 57.124L49.2261 48.8696L51.7246 68.6949C51.7889 68.9867 51.7753 69.2903 51.6849 69.575C51.5946 69.8598 51.4308 70.1155 51.2102 70.3163Z" fill="#363960"/>
<path fill-rule="evenodd" clip-rule="evenodd" d="M43.7864 58.6708C45.3651 58.6708 46.8791 59.2998 47.9954 60.4193C49.1117 61.5388 49.7388 63.0573 49.7388 64.6405C49.7448 65.6467 49.4907 66.6372 49.0013 67.5155C48.5119 68.3938 47.8039 69.1299 46.9463 69.6521V65.3775C47.1668 63.1665 43.9334 61.5451 42.0963 64.3457V58.9656C42.6585 58.7496 43.2583 58.6493 43.8599 58.6708H43.7864ZM45.6236 70.3154C45.026 70.4906 44.4087 70.5896 43.7864 70.6102C43.1876 70.5963 42.5938 70.497 42.0228 70.3154V64.7879C42.9781 63.8298 44.7418 63.535 45.4031 64.9353H45.4766V70.3154H45.6236ZM40.6266 69.6521C39.769 69.1299 39.061 68.3938 38.5716 67.5155C38.0822 66.6372 37.8281 65.6467 37.8341 64.6405C37.8301 63.7682 38.0192 62.9059 38.3878 62.1157C38.7563 61.3255 39.295 60.6272 39.9652 60.0711C40.3326 60.0711 40.6266 60.1448 40.6266 60.5133V69.6521Z" fill="white"/>
<path d="M36.807 15.7781L34.235 20.9371C34.143 21.1094 34.012 21.2578 33.8526 21.3702C33.6931 21.4827 33.5097 21.5562 33.3169 21.5849C33.1241 21.6135 32.9272 21.5965 32.7421 21.5352C32.557 21.4739 32.3888 21.3701 32.2509 21.2319L26.1516 15.1885C25.9718 14.9932 25.8547 14.7483 25.8154 14.4855C25.7761 14.2227 25.8164 13.9541 25.9311 13.7145L27.0334 11.5772C27.1858 11.318 27.4216 11.1184 27.702 11.0112C27.9824 10.9041 28.2908 10.8958 28.5766 10.9876L36.1456 14.0093C36.3057 14.0809 36.4499 14.1837 36.57 14.3117C36.6901 14.4397 36.7837 14.5904 36.8452 14.755C36.9067 14.9196 36.935 15.0948 36.9285 15.2704C36.9219 15.446 36.8806 15.6186 36.807 15.7781Z" fill="#363960"/>
<path d="M50.7708 15.7781L53.3428 20.9371C53.4349 21.1094 53.5658 21.2578 53.7253 21.3702C53.8847 21.4827 54.0682 21.5562 54.261 21.5849C54.4538 21.6135 54.6506 21.5965 54.8357 21.5352C55.0208 21.4739 55.1891 21.3701 55.327 21.2319L61.4263 15.1885C61.606 14.9932 61.7231 14.7483 61.7624 14.4855C61.8017 14.2227 61.7614 13.9541 61.6467 13.7145L60.5445 11.5772C60.3921 11.318 60.1563 11.1184 59.8759 11.0112C59.5954 10.9041 59.287 10.8958 59.0013 10.9876L51.4322 14.0093C51.2722 14.0809 51.1279 14.1837 51.0078 14.3117C50.8877 14.4397 50.7942 14.5904 50.7327 14.755C50.6711 14.9196 50.6428 15.0948 50.6494 15.2704C50.6559 15.446 50.6972 15.6186 50.7708 15.7781Z" fill="#363960"/>
</g>
<defs>
<clipPath id="clip0_909_16238">
<rect width="42.0874" height="67.6699" fill="white" transform="translate(22.25 9.5)"/>
</clipPath>
</defs>
</svg>
