<svg width="16" height="16" viewBox="0 0 16 16" fill="none" xmlns="http://www.w3.org/2000/svg">
<g clip-path="url(#clip0_1871_31625)">
<path d="M2.86465 14.8492C2.78665 15.2932 3.22465 15.6402 3.61065 15.4422L8.00065 13.1862L12.3897 15.4422C12.7757 15.6402 13.2137 15.2932 13.1357 14.8502L12.3057 10.1202L15.8277 6.76419C16.1577 6.45019 15.9877 5.87619 15.5457 5.81419L10.6477 5.11819L8.46365 0.791191C8.42205 0.703479 8.35641 0.629374 8.27436 0.577483C8.19232 0.525592 8.09723 0.498047 8.00015 0.498047C7.90308 0.498047 7.80799 0.525592 7.72594 0.577483C7.6439 0.629374 7.57826 0.703479 7.53665 0.791191L5.35265 5.11919L0.454653 5.81519C0.0136534 5.87719 -0.157347 6.45119 0.171653 6.76519L3.69465 10.1212L2.86465 14.8512V14.8492ZM7.76965 12.0822L4.08365 13.9762L4.77765 10.0192C4.79391 9.9281 4.78755 9.83442 4.75913 9.74636C4.73071 9.65831 4.6811 9.57858 4.61465 9.51419L1.70865 6.74419L5.76065 6.16819C5.84456 6.15552 5.92414 6.1227 5.99259 6.07254C6.06103 6.02238 6.1163 5.95638 6.15365 5.88019L7.99865 2.22219L9.84565 5.88019C9.88301 5.95638 9.93828 6.02238 10.0067 6.07254C10.0752 6.1227 10.1547 6.15552 10.2387 6.16819L14.2907 6.74319L11.3847 9.51319C11.3181 9.57769 11.2684 9.65758 11.2399 9.74582C11.2115 9.83407 11.2052 9.92795 11.2217 10.0192L11.9157 13.9762L8.22965 12.0822C8.15838 12.0454 8.07935 12.0263 7.99915 12.0263C7.91896 12.0263 7.83993 12.0454 7.76865 12.0822H7.76965Z" fill="#777E8C"/>
</g>
<defs>
<clipPath id="clip0_1871_31625">
<rect width="16" height="16" fill="white"/>
</clipPath>
</defs>
</svg>
