<svg width="12" height="10" viewBox="0 0 12 10" fill="none" xmlns="http://www.w3.org/2000/svg">
<path d="M0.824938 4.13278C4.04616 2.77801 6.19414 1.88486 7.26889 1.45333C10.3375 0.221238 10.9751 0.00721118 11.3907 6.85159e-05C11.4822 -0.00141051 11.6865 0.0204574 11.8189 0.124157C11.9307 0.211719 11.9615 0.330003 11.9762 0.413022C11.9909 0.49604 12.0092 0.685158 11.9947 0.83293C11.8284 2.51957 11.1088 6.6126 10.7428 8.50167C10.5879 9.301 10.2829 9.56901 9.98764 9.59524C9.34596 9.65224 8.8587 9.18588 8.2372 8.79261C7.26468 8.17721 6.71527 7.79413 5.77127 7.19362C4.68032 6.49962 5.38754 6.11819 6.00927 5.49483C6.17198 5.33169 8.99923 2.84925 9.05395 2.62406C9.06079 2.59589 9.06714 2.49091 9.00253 2.43547C8.93793 2.38004 8.84257 2.399 8.77376 2.41407C8.67622 2.43544 7.1226 3.42672 4.11292 5.3879C3.67193 5.68021 3.2725 5.82264 2.91462 5.81518C2.52009 5.80695 1.76117 5.59984 1.19699 5.4228C0.504996 5.20566 -0.0449838 5.09086 0.00290711 4.72209C0.0278516 4.53001 0.301862 4.33357 0.824938 4.13278Z" fill="#353961"/>
</svg>
