<svg width="14" height="14" viewBox="0 0 14 14" fill="none" xmlns="http://www.w3.org/2000/svg">
<path d="M9.16293 4.83606C9.1087 4.78139 9.04419 4.73799 8.9731 4.70838C8.90202 4.67876 8.82577 4.66351 8.74876 4.66351C8.67176 4.66351 8.59551 4.67876 8.52443 4.70838C8.45334 4.73799 8.38883 4.78139 8.3346 4.83606L6.99876 6.17773L5.66293 4.83606C5.55309 4.72622 5.40411 4.66451 5.24876 4.66451C5.09342 4.66451 4.94444 4.72622 4.8346 4.83606C4.72475 4.94591 4.66304 5.09489 4.66304 5.25023C4.66304 5.40557 4.72475 5.55455 4.8346 5.6644L6.17626 7.00023L4.8346 8.33606C4.77992 8.39029 4.73653 8.45481 4.70691 8.52589C4.6773 8.59698 4.66205 8.67322 4.66205 8.75023C4.66205 8.82724 4.6773 8.90348 4.70691 8.97457C4.73653 9.04565 4.77992 9.11017 4.8346 9.1644C4.88883 9.21907 4.95334 9.26247 5.02443 9.29208C5.09551 9.3217 5.17176 9.33694 5.24876 9.33694C5.32577 9.33694 5.40202 9.3217 5.4731 9.29208C5.54419 9.26247 5.6087 9.21907 5.66293 9.1644L6.99876 7.82273L8.3346 9.1644C8.38883 9.21907 8.45334 9.26247 8.52443 9.29208C8.59551 9.3217 8.67176 9.33694 8.74876 9.33694C8.82577 9.33694 8.90202 9.3217 8.9731 9.29208C9.04419 9.26247 9.1087 9.21907 9.16293 9.1644C9.21761 9.11017 9.261 9.04565 9.29062 8.97457C9.32023 8.90348 9.33548 8.82724 9.33548 8.75023C9.33548 8.67322 9.32023 8.59698 9.29062 8.52589C9.261 8.45481 9.21761 8.39029 9.16293 8.33606L7.82126 7.00023L9.16293 5.6644C9.21761 5.61017 9.261 5.54565 9.29062 5.47457C9.32023 5.40348 9.33548 5.32724 9.33548 5.25023C9.33548 5.17322 9.32023 5.09698 9.29062 5.02589C9.261 4.95481 9.21761 4.89029 9.16293 4.83606ZM11.1229 2.87606C10.5848 2.31892 9.94115 1.87452 9.22946 1.5688C8.51777 1.26309 7.75232 1.10217 6.97777 1.09544C6.20323 1.0887 5.43509 1.2363 4.7182 1.5296C4.0013 1.82291 3.35 2.25605 2.80229 2.80376C2.25459 3.35147 1.82144 4.00277 1.52814 4.71966C1.23483 5.43656 1.08724 6.20469 1.09397 6.97924C1.1007 7.75378 1.26162 8.51923 1.56734 9.23092C1.87306 9.94261 2.31745 10.5863 2.8746 11.1244C3.4127 11.6815 4.05638 12.1259 4.76807 12.4317C5.47976 12.7374 6.24521 12.8983 7.01976 12.905C7.7943 12.9118 8.56243 12.7642 9.27933 12.4709C9.99622 12.1776 10.6475 11.7444 11.1952 11.1967C11.7429 10.649 12.1761 9.99769 12.4694 9.28079C12.7627 8.5639 12.9103 7.79577 12.9036 7.02122C12.8968 6.24668 12.7359 5.48123 12.4302 4.76954C12.1245 4.05785 11.6801 3.41417 11.1229 2.87606ZM10.3004 10.3019C9.53745 11.0657 8.53325 11.5414 7.45889 11.6478C6.38454 11.7543 5.30652 11.4849 4.40849 10.8857C3.51045 10.2864 2.84797 9.39435 2.53392 8.36143C2.21986 7.32851 2.27365 6.21865 2.68613 5.22094C3.09861 4.22323 3.84426 3.3994 4.79603 2.88981C5.74781 2.38022 6.84683 2.21639 7.90585 2.42624C8.96487 2.63609 9.91838 3.20663 10.6039 4.04066C11.2894 4.8747 11.6646 5.92062 11.6654 7.00023C11.6675 7.61348 11.5479 8.22106 11.3136 8.78779C11.0793 9.35452 10.735 9.86915 10.3004 10.3019Z" fill="#1E2139"/>
</svg>
