<?xml version="1.0" encoding="utf-8"?>
<!-- Generator: Adobe Illustrator 24.3.0, SVG Export Plug-In . SVG Version: 6.00 Build 0)  -->
<svg version="1.1" id="Слой_1" xmlns="http://www.w3.org/2000/svg" xmlns:xlink="http://www.w3.org/1999/xlink" x="0px" y="0px"
	 viewBox="0 0 340 829.3" style="enable-background:new 0 0 340 829.3;" xml:space="preserve">
<style type="text/css">
	.st0{opacity:0.2;fill:url(#SVGID_1_);enable-background:new    ;}
	.st1{fill:url(#SVGID_2_);}
</style>
<linearGradient id="SVGID_1_" gradientUnits="userSpaceOnUse" x1="-38.5335" y1="14.3381" x2="205.9501" y2="785.4062" gradientTransform="matrix(1 0 0 -1 0 960)">
	<stop  offset="0" style="stop-color:#FB55B9"/>
	<stop  offset="1" style="stop-color:#600F8E"/>
</linearGradient>
<path class="st0" d="M347.4,807c-38.3,24.4-115.4,24.7-179.5,6.9c-48.1-13.3-98.1-25.2-141.6-13.1c-51.6,14.3-134.6,53.1-137.4,5.2
	c-3.9-69.8,21.8-311.1,21.8-311.1L-116.8,8l378.1-21.4l91-5.1l16.2,287l16.3,288.5l10,177.4l1.4,24.5
	C396.3,758.8,365,795.8,347.4,807z"/>
<linearGradient id="SVGID_2_" gradientUnits="userSpaceOnUse" x1="-68.7173" y1="44.0704" x2="218.8994" y2="800.1093" gradientTransform="matrix(1 0 0 -1 0 960)">
	<stop  offset="0" style="stop-color:#FB55B9"/>
	<stop  offset="1" style="stop-color:#600F8E"/>
</linearGradient>
<path class="st1" d="M324.4,799.3c-39.6,22.2-116.6,18.2-179.6-3.2c-47.3-16-96.5-30.7-140.6-21.1c-52.4,11.4-137.4,45.4-137.4-2.6
	c0-69.9,39.4-309.4,39.4-309.4l0-487.7h378.7l91.1,0v287.5v288.9v177.7l0,24.5C375.9,753.9,342.6,789.1,324.4,799.3z"/>
</svg>
