<svg width="22" height="22" viewBox="0 0 22 22" fill="none" xmlns="http://www.w3.org/2000/svg">
<path d="M11.0042 5.35156C7.88479 5.35156 5.35938 7.87973 5.35938 10.9964C5.35938 14.1158 7.88754 16.6412 11.0042 16.6412C14.1236 16.6412 16.649 14.1131 16.649 10.9964C16.649 7.87698 14.1209 5.35156 11.0042 5.35156ZM11.0042 14.6603C8.97929 14.6603 7.34029 13.0204 7.34029 10.9964C7.34029 8.9724 8.98021 7.33248 11.0042 7.33248C13.0282 7.33248 14.6681 8.9724 14.6681 10.9964C14.669 13.0204 13.0291 14.6603 11.0042 14.6603Z" fill="#B837A7"/>
<path d="M15.5359 0.0691044C13.5119 -0.0253122 8.49862 -0.0207289 6.47279 0.0691044C4.69263 0.152521 3.12238 0.582438 1.85646 1.84835C-0.259208 3.96402 0.0112083 6.81486 0.0112083 10.9958C0.0112083 15.2748 -0.227125 18.0596 1.85646 20.1432C3.98037 22.2662 6.87246 21.9884 11.0039 21.9884C15.2425 21.9884 16.7055 21.9912 18.2043 21.4109C20.242 20.6199 21.7802 18.7984 21.9305 15.5269C22.0259 13.5019 22.0204 8.4896 21.9305 6.46377C21.749 2.60185 19.6765 0.259771 15.5359 0.0691044ZM18.7396 18.7434C17.3527 20.1304 15.4286 20.0066 10.9773 20.0066C6.39396 20.0066 4.55604 20.0744 3.21496 18.7297C1.67037 17.1924 1.94996 14.7239 1.94996 10.9811C1.94996 5.91652 1.43021 2.2691 6.51312 2.00877C7.68096 1.96752 8.02471 1.95377 10.9645 1.95377L11.0057 1.98127C15.8906 1.98127 19.7232 1.46977 19.9533 6.55177C20.0055 7.71135 20.0175 8.05969 20.0175 10.9949C20.0165 15.525 20.1027 17.3739 18.7396 18.7434Z" fill="#B837A7"/>
<g filter="url(#filter0_d)">
<path d="M16.8718 6.44675C17.6003 6.44675 18.1909 5.85618 18.1909 5.12767C18.1909 4.39917 17.6003 3.80859 16.8718 3.80859C16.1433 3.80859 15.5527 4.39917 15.5527 5.12767C15.5527 5.85618 16.1433 6.44675 16.8718 6.44675Z" fill="#B837A7"/>
<path d="M17.6909 5.12767C17.6909 5.58004 17.3242 5.94675 16.8718 5.94675C16.4194 5.94675 16.0527 5.58004 16.0527 5.12767C16.0527 4.67531 16.4194 4.30859 16.8718 4.30859C17.3242 4.30859 17.6909 4.67531 17.6909 5.12767Z" stroke="black"/>
</g>
<defs>
<filter id="filter0_d" x="11.5527" y="3.80859" width="10.6382" height="10.6382" filterUnits="userSpaceOnUse" color-interpolation-filters="sRGB">
<feFlood flood-opacity="0" result="BackgroundImageFix"/>
<feColorMatrix in="SourceAlpha" type="matrix" values="0 0 0 0 0 0 0 0 0 0 0 0 0 0 0 0 0 0 127 0"/>
<feOffset dy="4"/>
<feGaussianBlur stdDeviation="2"/>
<feColorMatrix type="matrix" values="0 0 0 0 0 0 0 0 0 0 0 0 0 0 0 0 0 0 0.25 0"/>
<feBlend mode="normal" in2="BackgroundImageFix" result="effect1_dropShadow"/>
<feBlend mode="normal" in="SourceGraphic" in2="effect1_dropShadow" result="shape"/>
</filter>
</defs>
</svg>
