<svg width="35" height="35" viewBox="0 0 35 35" fill="none" xmlns="http://www.w3.org/2000/svg">
<path d="M21.5382 8.56042C21.8731 8.75054 22.2696 8.80051 22.6411 8.69943C23.0127 8.59834 23.3292 8.3544 23.5216 8.02083C23.6808 7.73989 23.9287 7.51974 24.2265 7.39489C24.5243 7.27004 24.8551 7.24755 25.1671 7.33096C25.479 7.41437 25.7544 7.59895 25.9502 7.85577C26.1459 8.11258 26.2509 8.4271 26.2487 8.75C26.2487 9.13677 26.095 9.50771 25.8215 9.7812C25.548 10.0547 25.1771 10.2083 24.7903 10.2083C24.4035 10.2083 24.0326 10.362 23.7591 10.6355C23.4856 10.909 23.332 11.2799 23.332 11.6667C23.332 12.0534 23.4856 12.4244 23.7591 12.6979C24.0326 12.9714 24.4035 13.125 24.7903 13.125C25.5582 13.1245 26.3124 12.9219 26.9771 12.5376C27.6419 12.1533 28.1938 11.6008 28.5774 10.9357C28.961 10.2705 29.1628 9.5161 29.1625 8.74825C29.1622 7.98039 28.9598 7.22614 28.5757 6.56129C28.1915 5.89643 27.6392 5.34438 26.9741 4.96061C26.309 4.57685 25.5547 4.37488 24.7868 4.375C24.019 4.37512 23.2647 4.57733 22.5997 4.96131C21.9348 5.34529 21.3826 5.89752 20.9987 6.5625C20.9022 6.72894 20.8397 6.91282 20.8146 7.10354C20.7896 7.29426 20.8025 7.48805 20.8526 7.67375C20.9028 7.85946 20.9892 8.03341 21.1069 8.18558C21.2245 8.33775 21.3711 8.46514 21.5382 8.56042ZM27.8091 18.9583C27.4263 18.9086 27.0394 19.0128 26.7332 19.2479C26.427 19.483 26.2266 19.8298 26.1757 20.2125C25.8697 22.6846 24.6703 24.9595 22.8035 26.6087C20.9367 28.258 18.5313 29.1677 16.0403 29.1667H7.88824L8.83616 28.2188C9.10777 27.9455 9.26023 27.5759 9.26023 27.1906C9.26023 26.8054 9.10777 26.4357 8.83616 26.1625C7.41421 24.735 6.44651 22.9185 6.05496 20.9421C5.66341 18.9656 5.86551 16.9174 6.63582 15.0556C7.40613 13.1937 8.71019 11.6015 10.3837 10.4794C12.0573 9.35734 14.0254 8.7556 16.0403 8.75C16.4271 8.75 16.798 8.59635 17.0715 8.32286C17.345 8.04937 17.4987 7.67844 17.4987 7.29167C17.4987 6.90489 17.345 6.53396 17.0715 6.26047C16.798 5.98698 16.4271 5.83333 16.0403 5.83333C13.5746 5.84362 11.1617 6.54826 9.07794 7.86653C6.99421 9.1848 5.32395 11.0634 4.25854 13.2871C3.19313 15.5107 2.77565 17.9895 3.05393 20.4395C3.33221 22.8895 4.295 25.2115 5.83199 27.1396L3.33824 29.5896C3.13589 29.7947 2.99881 30.0551 2.9443 30.338C2.8898 30.6209 2.92031 30.9136 3.03199 31.1792C3.14139 31.4455 3.32718 31.6735 3.56594 31.8344C3.8047 31.9953 4.08575 32.0819 4.37366 32.0833H16.0403C19.2362 32.0838 22.3224 30.9181 24.7201 28.8051C27.1177 26.6921 28.662 23.7768 29.0632 20.6062C29.0899 20.4156 29.0786 20.2215 29.0299 20.0353C28.9811 19.849 28.896 19.6742 28.7794 19.521C28.6628 19.3678 28.5171 19.2392 28.3505 19.1427C28.184 19.0461 28 18.9834 27.8091 18.9583ZM25.3445 14.6854C25.079 14.568 24.7845 14.5324 24.4987 14.5833L24.2362 14.6708L23.9737 14.8021L23.7549 14.9917C23.6237 15.1261 23.5197 15.2845 23.4487 15.4583C23.3624 15.6402 23.3224 15.8406 23.332 16.0417C23.3277 16.2362 23.3625 16.4295 23.4341 16.6104C23.5095 16.7854 23.6185 16.944 23.7549 17.0771C23.8912 17.2122 24.0528 17.3192 24.2305 17.3917C24.4081 17.4643 24.5984 17.5011 24.7903 17.5C25.1771 17.5 25.548 17.3464 25.8215 17.0729C26.095 16.7994 26.2487 16.4284 26.2487 16.0417C26.2536 15.8504 26.2136 15.6606 26.132 15.4875C25.9753 15.1371 25.6949 14.8567 25.3445 14.7V14.6854Z" fill="#3B51FF"/>
</svg>
