<svg width="297" height="290" viewBox="0 0 297 290" fill="none" xmlns="http://www.w3.org/2000/svg">
<g clip-path="url(#clip0)">
<path d="M12.9798 226.876L15.0518 236.088L16.3678 242.472H16.4238L17.6558 236.088L19.5598 226.876H22.6118L18.0758 246H14.7438L11.3278 230.992H11.2718L7.77183 246H4.41183L-0.0401749 226.876H3.09583L4.99983 236.088L6.23183 242.528H6.28783L7.65983 236.088L9.75983 226.876H12.9798ZM39.58 246H36.668V226.876H39.58V246ZM56.0473 246V226.008H58.5673V243.76H67.3033V246H56.0473ZM79.9989 229.368L80.1389 226.876H93.4949L93.3269 229.368H88.2029V246H85.2629V229.368H79.9989ZM125.64 235.976C125.64 238.048 125.286 239.859 124.576 241.408C123.886 242.939 122.859 244.133 121.496 244.992C120.134 245.851 118.444 246.28 116.428 246.28C114.356 246.28 112.63 245.851 111.248 244.992C109.886 244.133 108.868 242.929 108.196 241.38C107.524 239.831 107.188 238.02 107.188 235.948C107.188 233.895 107.524 232.103 108.196 230.572C108.868 229.041 109.886 227.847 111.248 226.988C112.63 226.129 114.366 225.7 116.456 225.7C118.454 225.7 120.134 226.129 121.496 226.988C122.859 227.828 123.886 229.023 124.576 230.572C125.286 232.103 125.64 233.904 125.64 235.976ZM109.848 235.976C109.848 238.496 110.38 240.484 111.444 241.94C112.508 243.377 114.17 244.096 116.428 244.096C118.706 244.096 120.367 243.377 121.412 241.94C122.458 240.484 122.98 238.496 122.98 235.976C122.98 233.456 122.458 231.487 121.412 230.068C120.367 228.631 118.715 227.912 116.456 227.912C114.198 227.912 112.527 228.631 111.444 230.068C110.38 231.487 109.848 233.456 109.848 235.976ZM157.679 246H154.739L144.043 229.396H143.931C143.969 230.049 144.015 230.861 144.071 231.832C144.127 232.803 144.155 233.801 144.155 234.828V246H141.831V226.008H144.743L155.411 242.556H155.523C155.505 242.257 155.477 241.809 155.439 241.212C155.421 240.615 155.393 239.961 155.355 239.252C155.337 238.543 155.327 237.889 155.327 237.292V226.008H157.679V246ZM198.655 238.468C198.506 238.468 198.319 238.468 198.095 238.468C197.871 238.468 197.629 238.468 197.367 238.468C197.125 238.449 196.891 238.44 196.667 238.44C196.443 238.421 196.266 238.403 196.135 238.384V246H193.251V227.044C194.67 226.876 196.406 226.792 198.459 226.792C199.467 226.792 200.391 226.895 201.231 227.1C202.09 227.305 202.837 227.641 203.471 228.108C204.106 228.556 204.601 229.144 204.955 229.872C205.31 230.581 205.487 231.44 205.487 232.448C205.487 233.437 205.319 234.315 204.983 235.08C204.666 235.827 204.199 236.452 203.583 236.956C202.986 237.46 202.267 237.843 201.427 238.104C200.587 238.347 199.663 238.468 198.655 238.468ZM196.135 236.004C196.397 236.041 196.677 236.069 196.975 236.088C197.274 236.107 197.591 236.116 197.927 236.116C199.346 236.116 200.466 235.836 201.287 235.276C202.109 234.716 202.519 233.801 202.519 232.532C202.519 231.3 202.155 230.432 201.427 229.928C200.699 229.405 199.663 229.144 198.319 229.144C197.853 229.144 197.433 229.153 197.059 229.172C196.705 229.191 196.397 229.219 196.135 229.256V236.004ZM232.609 246H229.445L227.737 240.512H221.577C221.558 240.624 221.502 240.82 221.409 241.1C221.334 241.38 221.231 241.707 221.101 242.08C220.989 242.453 220.867 242.845 220.737 243.256C220.606 243.667 220.485 244.059 220.373 244.432C220.261 244.805 220.158 245.132 220.065 245.412C219.971 245.692 219.915 245.888 219.897 246H216.817L222.893 226.848H226.533L232.609 246ZM224.629 229.368L223.845 232.168L222.137 238.188H227.177L225.469 232.168L224.685 229.368H224.629ZM253.094 226.008C255.577 226.008 257.406 226.484 258.582 227.436C259.777 228.369 260.374 229.788 260.374 231.692C260.374 232.756 260.178 233.643 259.786 234.352C259.394 235.061 258.89 235.631 258.274 236.06C257.677 236.471 257.042 236.797 256.37 237.04L261.858 246H258.918L254.074 237.74H250.098V246H247.578V226.008H253.094ZM252.954 228.192H250.098V235.612H253.094C254.718 235.612 255.904 235.295 256.65 234.66C257.397 234.007 257.77 233.055 257.77 231.804C257.77 230.497 257.378 229.573 256.594 229.032C255.81 228.472 254.597 228.192 252.954 228.192ZM291.372 246H288.404L281.32 236.452L279.276 238.244V246H276.756V226.008H279.276V235.864C279.836 235.229 280.406 234.595 280.984 233.96C281.563 233.325 282.142 232.691 282.72 232.056L288.124 226.008H291.064L283.14 234.716L291.372 246ZM21.1597 261.008C23.6423 261.008 25.4717 261.484 26.6477 262.436C27.8423 263.369 28.4397 264.788 28.4397 266.692C28.4397 267.756 28.2437 268.643 27.8517 269.352C27.4597 270.061 26.9557 270.631 26.3397 271.06C25.7423 271.471 25.1077 271.797 24.4357 272.04L29.9237 281H26.9837L22.1397 272.74H18.1637V281H15.6437V261.008H21.1597ZM21.0197 263.192H18.1637V270.612H21.1597C22.7837 270.612 23.969 270.295 24.7157 269.66C25.4623 269.007 25.8357 268.055 25.8357 266.804C25.8357 265.497 25.4437 264.573 24.6597 264.032C23.8757 263.472 22.6623 263.192 21.0197 263.192ZM55.9936 281H44.8216V261.008H55.9936V263.22H47.3416V269.464H55.4896V271.648H47.3416V278.788H55.9936V281ZM83.4802 275.652C83.4802 277.425 82.8362 278.807 81.5482 279.796C80.2602 280.785 78.5242 281.28 76.3402 281.28C75.2202 281.28 74.1842 281.196 73.2322 281.028C72.2802 280.86 71.4869 280.627 70.8522 280.328V277.92C71.5242 278.219 72.3549 278.489 73.3442 278.732C74.3522 278.975 75.3882 279.096 76.4522 279.096C77.9456 279.096 79.0656 278.807 79.8122 278.228C80.5776 277.649 80.9602 276.865 80.9602 275.876C80.9602 275.223 80.8202 274.672 80.5402 274.224C80.2602 273.776 79.7749 273.365 79.0842 272.992C78.4122 272.6 77.4696 272.189 76.2562 271.76C74.5576 271.144 73.2696 270.388 72.3922 269.492C71.5336 268.596 71.1042 267.373 71.1042 265.824C71.1042 264.76 71.3749 263.855 71.9162 263.108C72.4576 262.343 73.2042 261.755 74.1562 261.344C75.1269 260.933 76.2376 260.728 77.4882 260.728C78.5896 260.728 79.5976 260.831 80.5122 261.036C81.4269 261.241 82.2576 261.512 83.0042 261.848L82.2202 264.004C81.5296 263.705 80.7736 263.453 79.9522 263.248C79.1496 263.043 78.3096 262.94 77.4322 262.94C76.1816 262.94 75.2389 263.211 74.6042 263.752C73.9696 264.275 73.6522 264.975 73.6522 265.852C73.6522 266.524 73.7922 267.084 74.0722 267.532C74.3522 267.98 74.8096 268.381 75.4442 268.736C76.0789 269.091 76.9376 269.473 78.0202 269.884C79.1962 270.313 80.1856 270.78 80.9882 271.284C81.8096 271.769 82.4256 272.357 82.8362 273.048C83.2656 273.739 83.4802 274.607 83.4802 275.652ZM101.423 281H98.5114V261.876H101.423V281ZM133.907 270.808C133.907 274.187 132.983 276.735 131.135 278.452C129.305 280.151 126.748 281 123.463 281H117.891V261.008H124.051C126.067 261.008 127.812 261.381 129.287 262.128C130.761 262.875 131.9 263.976 132.703 265.432C133.505 266.869 133.907 268.661 133.907 270.808ZM131.247 270.892C131.247 268.223 130.584 266.272 129.259 265.04C127.952 263.789 126.095 263.164 123.687 263.164H120.411V278.844H123.127C128.54 278.844 131.247 276.193 131.247 270.892ZM161.276 281H150.104V261.008H161.276V263.22H152.624V269.464H160.772V271.648H152.624V278.788H161.276V281ZM193.27 281H190.33L179.634 264.396H179.522C179.56 265.049 179.606 265.861 179.662 266.832C179.718 267.803 179.746 268.801 179.746 269.828V281H177.422V261.008H180.334L191.002 277.556H191.114C191.096 277.257 191.068 276.809 191.03 276.212C191.012 275.615 190.984 274.961 190.946 274.252C190.928 273.543 190.918 272.889 190.918 272.292V261.008H193.27V281ZM211.856 271.48C211.856 272.581 211.996 273.589 212.276 274.504C212.556 275.4 212.957 276.175 213.48 276.828C214.021 277.463 214.684 277.957 215.468 278.312C216.252 278.648 217.157 278.816 218.184 278.816C218.931 278.816 219.668 278.751 220.396 278.62C221.143 278.489 221.796 278.303 222.356 278.06L222.692 280.44C222.169 280.664 221.479 280.86 220.62 281.028C219.78 281.196 218.837 281.28 217.792 281.28C216.355 281.28 215.076 281.047 213.956 280.58C212.855 280.095 211.921 279.432 211.156 278.592C210.391 277.733 209.803 276.716 209.392 275.54C209 274.345 208.804 273.029 208.804 271.592C208.804 270.136 209.019 268.801 209.448 267.588C209.877 266.356 210.484 265.301 211.268 264.424C212.071 263.528 213.041 262.837 214.18 262.352C215.337 261.848 216.644 261.596 218.1 261.596C219.164 261.596 220.097 261.689 220.9 261.876C221.703 262.044 222.319 262.231 222.748 262.436L222.328 264.816C221.749 264.573 221.115 264.387 220.424 264.256C219.752 264.107 219.015 264.032 218.212 264.032C217.223 264.032 216.336 264.209 215.552 264.564C214.768 264.9 214.105 265.395 213.564 266.048C213.023 266.683 212.603 267.457 212.304 268.372C212.005 269.287 211.856 270.323 211.856 271.48ZM249.275 281H238.103V261.008H249.275V263.22H240.623V269.464H248.771V271.648H240.623V278.788H249.275V281ZM276.761 275.652C276.761 277.425 276.117 278.807 274.829 279.796C273.541 280.785 271.805 281.28 269.621 281.28C268.501 281.28 267.465 281.196 266.513 281.028C265.561 280.86 264.768 280.627 264.133 280.328V277.92C264.805 278.219 265.636 278.489 266.625 278.732C267.633 278.975 268.669 279.096 269.733 279.096C271.226 279.096 272.346 278.807 273.093 278.228C273.858 277.649 274.241 276.865 274.241 275.876C274.241 275.223 274.101 274.672 273.821 274.224C273.541 273.776 273.056 273.365 272.365 272.992C271.693 272.6 270.75 272.189 269.537 271.76C267.838 271.144 266.55 270.388 265.673 269.492C264.814 268.596 264.385 267.373 264.385 265.824C264.385 264.76 264.656 263.855 265.197 263.108C265.738 262.343 266.485 261.755 267.437 261.344C268.408 260.933 269.518 260.728 270.769 260.728C271.87 260.728 272.878 260.831 273.793 261.036C274.708 261.241 275.538 261.512 276.285 261.848L275.501 264.004C274.81 263.705 274.054 263.453 273.233 263.248C272.43 263.043 271.59 262.94 270.713 262.94C269.462 262.94 268.52 263.211 267.885 263.752C267.25 264.275 266.933 264.975 266.933 265.852C266.933 266.524 267.073 267.084 267.353 267.532C267.633 267.98 268.09 268.381 268.725 268.736C269.36 269.091 270.218 269.473 271.301 269.884C272.477 270.313 273.466 270.78 274.269 271.284C275.09 271.769 275.706 272.357 276.117 273.048C276.546 273.739 276.761 274.607 276.761 275.652Z" fill="white"/>
</g>
<g clip-path="url(#clip1)">
<path d="M148.69 99.8999C149.74 97.6799 150.48 96.2499 151.11 94.7799C160.483 72.8999 169.853 51.0232 179.22 29.1499C181.65 23.4999 185.49 21.1499 190.88 21.7899C195.42 22.2999 199.57 25.9099 199.82 30.4599C199.871 33.2632 199.3 36.043 198.15 38.5999C186.15 66.7732 174.043 94.8965 161.83 122.97C161.143 124.353 160.785 125.876 160.785 127.42C160.785 128.964 161.143 130.487 161.83 131.87C166.1 141.61 170.02 151.51 174.45 162.24C175.54 159.77 176.34 158.09 177.03 156.37C193.997 114.41 210.963 72.4499 227.93 30.4899C231.69 21.2099 239.59 18.9299 246.38 25.1999C250.55 29.0599 250.2 33.6799 248.21 38.5199C239.85 58.8399 231.517 79.1732 223.21 99.5199C210.917 129.733 198.657 159.953 186.43 190.18C186.18 190.8 185.9 191.4 185.69 192.03C183.97 197.29 180.39 200.98 174.9 200.94C169.41 200.9 166 197.34 163.95 192.17C159.54 181.03 154.84 170 150.25 158.94C149.76 157.76 149.17 156.62 148.33 154.82C142.42 168.51 136.73 181.62 131.11 194.76C129.21 199.21 125.93 201.76 121.17 201.84C116.41 201.92 113.03 199.3 111.17 194.91C110.77 193.99 110.4 193.07 110.01 192.15C92.01 149.703 74.01 107.26 56.01 64.8199C52.43 56.3899 48.72 48.0199 45.2 39.5799C41.13 29.7999 45.65 22.9699 56.2 22.8799C66.54 22.7999 76.88 23.1299 87.2 22.8099C100.67 22.3899 111.2 28.1899 119.29 38.2099C124.029 44.2108 128.003 50.7778 131.12 57.7599C137.26 71.3299 142.63 85.2699 148.69 99.8999ZM70.31 44.1599C87.31 84.4699 104.04 123.98 121.15 164.46C126.26 152.57 131.01 141.95 135.31 131.16C136.249 128.636 136.281 125.864 135.4 123.32C127.8 104.353 120 85.4699 112 66.6699C109.935 61.9545 107.385 57.467 104.39 53.2799C100.98 48.4199 96.47 44.5199 90.14 44.2199C83.81 43.9199 77.49 44.1599 70.31 44.1599Z" fill="white"/>
</g>
<defs>
<clipPath id="clip0">
<rect width="297" height="271" fill="white" transform="translate(0 19)"/>
</clipPath>
<clipPath id="clip1">
<rect width="241" height="210" fill="white" transform="translate(25)"/>
</clipPath>
</defs>
</svg>
