<svg width="58" height="48" viewBox="0 0 58 48" fill="none" xmlns="http://www.w3.org/2000/svg">
<path d="M57.5386 15.8257C56.8945 12.8121 55.6146 10.1015 53.7386 7.77519L53.7242 7.75751C53.3341 7.27154 52.6242 7.19156 52.1358 7.58C51.6461 7.96946 51.5648 8.68212 51.9541 9.17172L51.9702 9.19132C53.6258 11.2447 54.7538 13.6361 55.3231 16.2993C55.8975 18.9873 55.8699 21.8208 55.2406 24.7208C54.0531 30.194 50.8277 35.3209 46.1591 39.1572C41.4726 43.008 35.8554 45.1288 30.3422 45.1288C27.4969 45.1288 24.8323 44.5689 22.4222 43.4649C20.0441 42.3752 18.0208 40.8089 16.4084 38.8092C14.7908 36.8029 13.6783 34.4734 13.0972 31.8842H15.4174C15.9411 33.9038 16.864 35.7647 18.172 37.3871C21.0193 40.9183 25.3414 42.8631 30.3422 42.8631C30.5682 42.8631 30.7944 42.8578 31.0209 42.8499C31.0759 42.8579 31.1307 42.8634 31.185 42.8634C31.2771 42.8634 31.3674 42.8515 31.4546 42.83C36.0854 42.5656 40.7564 40.6642 44.7206 37.4066C48.9969 33.8927 51.9466 29.2169 53.0263 24.2404C53.0268 24.2385 53.0271 24.2365 53.0274 24.2346C53.0283 24.2305 53.0291 24.2265 53.0299 24.2223C54.1404 19.082 53.138 14.2494 50.2063 10.6132C47.3628 7.08666 43.0483 5.14264 38.0556 5.13755C38.0506 5.13743 38.0457 5.13743 38.0407 5.13732C38.0392 5.13732 38.0377 5.13732 38.0361 5.13732C33.0462 5.13732 27.9398 7.07511 23.6577 10.5937C19.3814 14.1076 16.4317 18.7834 15.3519 23.76C15.3515 23.7622 15.351 23.7645 15.3505 23.7669C15.3499 23.7703 15.3492 23.7737 15.3485 23.7771C14.9136 25.7894 14.804 27.754 15.0057 29.6186H12.734C12.5346 27.5643 12.6691 25.4405 13.1379 23.2797C14.3255 17.8066 17.5506 12.6797 22.2194 8.84332C26.9058 4.99243 32.523 2.8717 38.0361 2.8717C40.2724 2.8717 42.4125 3.22139 44.3968 3.91116C44.9878 4.11677 45.6332 3.804 45.8387 3.21301C46.0441 2.62202 45.7317 1.97643 45.1407 1.77105C42.9165 0.998023 40.5263 0.605957 38.0361 0.605957C32.3504 0.605957 26.5839 2.65034 21.6791 6.3833H7.58976C6.96411 6.3833 6.45695 6.89046 6.45695 7.51611C6.45695 8.14177 6.96411 8.64892 7.58976 8.64892H19.0292C14.9125 12.5955 12.0637 17.5455 10.9239 22.7991C10.4212 25.1154 10.2678 27.3992 10.4602 29.6185H6.22461C5.59896 29.6185 5.0918 30.1257 5.0918 30.7513C5.0918 31.377 5.59896 31.8842 6.22461 31.8842H10.782C10.8013 31.981 10.8193 32.0781 10.8399 32.1746C11.4839 35.1881 12.7641 37.8987 14.6448 40.2313C16.4794 42.5065 18.7787 44.2875 21.4787 45.5247C24.1869 46.7653 27.1691 47.3944 30.3423 47.3944C36.3787 47.3944 42.5068 45.0907 47.5975 40.9076C52.6588 36.7488 56.1594 31.1708 57.4548 25.2011C58.1525 21.9848 58.1808 18.8304 57.5386 15.8257ZM17.3964 25.133H18.6705C19.2961 25.133 19.8033 24.6259 19.8033 24.0002C19.8033 23.3746 19.2961 22.8674 18.6705 22.8674H17.9204C19.102 18.9026 21.6118 15.2073 25.0961 12.3443C28.5646 9.49412 32.6074 7.79059 36.6184 7.46242L36.4494 8.24134C36.3168 8.85272 36.7049 9.45594 37.3162 9.58859C37.3972 9.60615 37.478 9.61453 37.5575 9.61453C38.0791 9.61453 38.5484 9.25215 38.6635 8.72165L38.944 7.42866C42.8569 7.64457 46.2053 9.26042 48.4426 12.0354C50.7721 14.9246 51.6601 18.743 50.982 22.8674H49.708C49.0824 22.8674 48.5751 23.3746 48.5751 24.0002C48.5751 24.6259 49.0824 25.133 49.708 25.133H50.458C49.2765 29.0979 46.7667 32.7931 43.2823 35.6562C40.0621 38.3023 36.3469 39.96 32.6216 40.4465L32.7708 39.7591C32.9035 39.1477 32.5154 38.5445 31.9041 38.4119C31.2926 38.2788 30.6893 38.6672 30.5567 39.2787L30.2707 40.5967C25.9993 40.5785 22.3311 38.9358 19.9357 35.9651C18.9586 34.7532 18.2362 33.3772 17.7753 31.8843H22.6075C23.2331 31.8843 23.7403 31.3771 23.7403 30.7515C23.7403 30.1258 23.2331 29.6186 22.6075 29.6186H17.2892C17.1086 28.1886 17.1416 26.6826 17.3964 25.133Z" fill="#828282"/>
<path d="M29.6759 28.8423C29.929 28.8423 30.1835 28.7579 30.3945 28.5847L34.9086 24.8754C35.1057 24.7134 35.2423 24.4897 35.2965 24.2404L37.5692 13.7651C37.7019 13.1537 37.3138 12.5505 36.7024 12.4179C36.0913 12.2851 35.4878 12.6733 35.3552 13.2847L33.1659 23.375L28.9561 26.8342C28.4728 27.2313 28.4029 27.9452 28.8001 28.4286C29.024 28.7012 29.3487 28.8423 29.6759 28.8423Z" fill="#FF4264"/>
<path d="M1.13281 18.4041H8.86652C9.49218 18.4041 9.99934 17.8969 9.99934 17.2712C9.99934 16.6456 9.49218 16.1384 8.86652 16.1384H1.13281C0.50716 16.1384 0 16.6456 0 17.2712C0 17.8969 0.50716 18.4041 1.13281 18.4041Z" fill="#FF4264"/>
<path d="M10.0106 39.9275H4.11401C3.48836 39.9275 2.9812 40.4347 2.9812 41.0603C2.9812 41.686 3.48836 42.1931 4.11401 42.1931H10.0106C10.6363 42.1931 11.1435 41.686 11.1435 41.0603C11.1435 40.4347 10.6363 39.9275 10.0106 39.9275Z" fill="#FF4264"/>
<path d="M2.17851 30.3182C1.78871 29.3824 0.412794 29.4153 0.0671733 30.3698C-0.0965181 30.822 0.0557319 31.3499 0.436244 31.6445C0.805201 31.9302 1.3204 31.9611 1.71983 31.72C2.19165 31.4349 2.39068 30.8272 2.17851 30.3182Z" fill="#FF4264"/>
<path d="M48.2771 5.62869C48.5142 6.19792 49.1859 6.47841 49.7566 6.24154C50.3272 6.00478 50.6051 5.33268 50.3694 4.76208C50.1339 4.19194 49.4599 3.9127 48.89 4.14923C48.3185 4.38644 48.0429 5.05718 48.2771 5.62869Z" fill="#FF4264"/>
</svg>
