<svg width="14" height="14" viewBox="0 0 14 14" fill="none" xmlns="http://www.w3.org/2000/svg">
<g clip-path="url(#clip0)">
<path d="M8.16667 5.30249L13.3058 6.32332C13.72 6.41082 14 6.76082 14 7.17499V13.125C14 13.6092 13.6092 14 13.125 14H7.875C8.03833 14 8.16667 13.8717 8.16667 13.7083V13.4167H13.125C13.2825 13.4167 13.4167 13.2883 13.4167 13.125V7.17499C13.4167 7.04082 13.3233 6.91832 13.1892 6.88916L8.16667 5.89749V5.30249Z" fill="#828282"/>
<path d="M11.3753 8.1665C11.5387 8.1665 11.667 8.29484 11.667 8.45817C11.667 8.6215 11.5387 8.74983 11.3753 8.74983H10.2087C10.0453 8.74983 9.91699 8.6215 9.91699 8.45817C9.91699 8.29484 10.0453 8.1665 10.2087 8.1665H11.3753Z" fill="#828282"/>
<path d="M11.3753 9.9165C11.5387 9.9165 11.667 10.0448 11.667 10.2082C11.667 10.3715 11.5387 10.4998 11.3753 10.4998H10.2087C10.0453 10.4998 9.91699 10.3715 9.91699 10.2082C9.91699 10.0448 10.0453 9.9165 10.2087 9.9165H11.3753Z" fill="#828282"/>
<path d="M11.3753 11.6665C11.5387 11.6665 11.667 11.7948 11.667 11.9582C11.667 12.1215 11.5387 12.2498 11.3753 12.2498H10.2087C10.0453 12.2498 9.91699 12.1215 9.91699 11.9582C9.91699 11.7948 10.0453 11.6665 10.2087 11.6665H11.3753Z" fill="#828282"/>
<path d="M8.16633 13.7082C8.16633 13.8716 8.038 13.9999 7.87467 13.9999C7.71134 13.9999 7.58301 13.8716 7.58301 13.7082V13.4166V5.54158C7.58301 5.45408 7.62384 5.37241 7.68801 5.31408C7.75801 5.26158 7.8455 5.23825 7.933 5.25575L8.16633 5.30241V5.89741V13.4166V13.7082Z" fill="#828282"/>
<path d="M7.58365 13.4165V13.7082C7.58365 13.8715 7.71199 13.9999 7.87532 13.9999H5.54199C5.70532 13.9999 5.83366 13.8715 5.83366 13.7082V13.4165H7.58365Z" fill="#828282"/>
<path d="M6.12533 2.9165C6.28866 2.9165 6.41699 3.04484 6.41699 3.20817C6.41699 3.3715 6.28866 3.49984 6.12533 3.49984H4.95866C4.79533 3.49984 4.66699 3.3715 4.66699 3.20817C4.66699 3.04484 4.79533 2.9165 4.95866 2.9165H6.12533Z" fill="#828282"/>
<path d="M6.41699 4.95817C6.41699 5.12151 6.28866 5.24984 6.12533 5.24984H4.95866C4.79533 5.24984 4.66699 5.12151 4.66699 4.95817C4.66699 4.79484 4.79533 4.6665 4.95866 4.6665H6.12533C6.28866 4.6665 6.41699 4.79484 6.41699 4.95817Z" fill="#828282"/>
<path d="M6.12533 6.4165C6.28866 6.4165 6.41699 6.54484 6.41699 6.70817C6.41699 6.8715 6.28866 6.99983 6.12533 6.99983H4.95866C4.79533 6.99983 4.66699 6.8715 4.66699 6.70817C4.66699 6.54484 4.79533 6.4165 4.95866 6.4165H6.12533Z" fill="#828282"/>
<path d="M6.12533 8.1665C6.28866 8.1665 6.41699 8.29484 6.41699 8.45817C6.41699 8.6215 6.28866 8.74983 6.12533 8.74983H4.95866C4.79533 8.74983 4.66699 8.6215 4.66699 8.45817C4.66699 8.29484 4.79533 8.1665 4.95866 8.1665H6.12533Z" fill="#828282"/>
<path d="M3.5 8.45817C3.5 8.6215 3.37167 8.74983 3.20833 8.74983H2.04167C1.87833 8.74983 1.75 8.6215 1.75 8.45817C1.75 8.29484 1.87833 8.1665 2.04167 8.1665H3.20833C3.37167 8.1665 3.5 8.29484 3.5 8.45817Z" fill="#828282"/>
<path d="M3.20833 2.9165C3.37167 2.9165 3.5 3.04484 3.5 3.20817C3.5 3.3715 3.37167 3.49984 3.20833 3.49984H2.04167C1.87833 3.49984 1.75 3.3715 1.75 3.20817C1.75 3.04484 1.87833 2.9165 2.04167 2.9165H3.20833Z" fill="#828282"/>
<path d="M3.20833 4.6665C3.37167 4.6665 3.5 4.79484 3.5 4.95817C3.5 5.12151 3.37167 5.24984 3.20833 5.24984H2.04167C1.87833 5.24984 1.75 5.12151 1.75 4.95817C1.75 4.79484 1.87833 4.6665 2.04167 4.6665H3.20833Z" fill="#828282"/>
<path d="M3.20833 6.4165C3.37167 6.4165 3.5 6.54484 3.5 6.70817C3.5 6.8715 3.37167 6.99983 3.20833 6.99983H2.04167C1.87833 6.99983 1.75 6.8715 1.75 6.70817C1.75 6.54484 1.87833 6.4165 2.04167 6.4165H3.20833Z" fill="#828282"/>
<path d="M5.24967 10.7915C5.24967 10.6282 5.11551 10.4998 4.95801 10.4998H3.20801C3.04467 10.4998 2.91634 10.6282 2.91634 10.7915V13.4165H2.33301V10.7915C2.33301 10.3073 2.72384 9.9165 3.20801 9.9165H4.95801C5.44217 9.9165 5.83301 10.3073 5.83301 10.7915V13.4165H5.24967V10.7915Z" fill="#828282"/>
<path d="M2.91634 13.4165H5.24967H5.83301V13.7082C5.83301 13.8715 5.70467 13.9999 5.54134 13.9999H2.62467C2.46134 13.9999 2.33301 13.8715 2.33301 13.7082V13.4165H2.91634Z" fill="#828282"/>
<path d="M1.02083 0.116582L7.43167 1.09075C7.8575 1.16075 8.16667 1.52241 8.16667 1.95408V5.30241L7.93333 5.25575C7.84583 5.23825 7.75833 5.26158 7.68833 5.31408C7.62417 5.37241 7.58333 5.45408 7.58333 5.54158V1.95408C7.58333 1.80825 7.47833 1.68575 7.33833 1.66241L0.9275 0.694082C0.91 0.688248 0.8925 0.688248 0.875 0.688248C0.805 0.688248 0.740833 0.711581 0.688333 0.758248C0.618333 0.816581 0.583333 0.892415 0.583333 0.979915V13.1249C0.583333 13.2882 0.7175 13.4166 0.875 13.4166H2.33333V13.7082C2.33333 13.8716 2.46167 13.9999 2.625 13.9999H0.875C0.390833 13.9999 0 13.6091 0 13.1249V0.979915C0 0.723248 0.110833 0.478248 0.309167 0.314915C0.5075 0.145748 0.764167 0.0757482 1.02083 0.116582Z" fill="#828282"/>
</g>
<defs>
<clipPath id="clip0">
<rect width="14" height="14" fill="white"/>
</clipPath>
</defs>
</svg>
