<svg width="14" height="14" viewBox="0 0 14 14" fill="none" xmlns="http://www.w3.org/2000/svg">
<g clip-path="url(#clip0)">
<path d="M13.5342 3.20721C13.2548 2.91443 12.8688 2.74143 12.4297 2.74143H10.2205V2.71481C10.2205 2.38211 10.0875 2.06272 9.86122 1.84979C9.63498 1.62356 9.3289 1.49048 8.9962 1.49048H5.0038C4.65779 1.49048 4.35171 1.62356 4.12548 1.84979C3.89924 2.07603 3.76616 2.38211 3.76616 2.71481V2.74143H1.57034C1.13118 2.74143 0.745247 2.91443 0.465779 3.20721C0.186312 3.48668 0 3.88592 0 4.31177V10.9391C0 11.3783 0.173004 11.7642 0.465779 12.0437C0.745247 12.3232 1.14449 12.5095 1.57034 12.5095H12.4297C12.8688 12.5095 13.2548 12.3365 13.5342 12.0437C13.8137 11.7642 14 11.365 14 10.9391V4.31177C14 3.87261 13.827 3.48668 13.5342 3.20721ZM13.308 10.9391H13.2947C13.2947 11.1787 13.2015 11.3916 13.0418 11.5513C12.8821 11.711 12.6692 11.8042 12.4297 11.8042H1.57034C1.3308 11.8042 1.11787 11.711 0.958175 11.5513C0.798479 11.3916 0.705323 11.1787 0.705323 10.9391V4.31177C0.705323 4.07223 0.798479 3.8593 0.958175 3.6996C1.11787 3.53991 1.3308 3.44675 1.57034 3.44675H4.13878C4.3384 3.44675 4.4981 3.28706 4.4981 3.08744V2.70151C4.4981 2.55512 4.55133 2.42204 4.64449 2.32888C4.73764 2.23573 4.87072 2.18249 5.01711 2.18249H8.9962C9.14259 2.18249 9.27567 2.23573 9.36882 2.32888C9.46198 2.42204 9.51521 2.55512 9.51521 2.70151V3.08744C9.51521 3.28706 9.6749 3.44675 9.87453 3.44675H12.443C12.6825 3.44675 12.8954 3.53991 13.0551 3.6996C13.2148 3.8593 13.308 4.07223 13.308 4.31177V10.9391Z" fill="#828282"/>
<path d="M7.00033 4.35181C6.09539 4.35181 5.27029 4.72443 4.68474 5.30998C4.08588 5.90884 3.72656 6.72063 3.72656 7.62558C3.72656 8.53052 4.09919 9.35562 4.68474 9.94117C5.2836 10.54 6.09539 10.8994 7.00033 10.8994C7.90527 10.8994 8.73037 10.5267 9.31592 9.94117C9.91478 9.34231 10.2741 8.53052 10.2741 7.62558C10.2741 6.72063 9.90147 5.89554 9.31592 5.30998C8.73037 4.72443 7.90527 4.35181 7.00033 4.35181ZM8.81022 9.44878C8.34444 9.90125 7.70565 10.194 7.00033 10.194C6.29501 10.194 5.65622 9.90125 5.19044 9.44878C4.72466 8.983 4.44519 8.34421 4.44519 7.63889C4.44519 6.93356 4.73797 6.29478 5.19044 5.829C5.65622 5.36322 6.29501 5.08375 7.00033 5.08375C7.70565 5.08375 8.34444 5.37652 8.81022 5.829C9.276 6.29478 9.55547 6.93356 9.55547 7.63889C9.56877 8.34421 9.276 8.983 8.81022 9.44878Z" fill="#828282"/>
<path d="M11.7371 5.64256C12.0972 5.64256 12.3891 5.35061 12.3891 4.99047C12.3891 4.63033 12.0972 4.33838 11.7371 4.33838C11.3769 4.33838 11.085 4.63033 11.085 4.99047C11.085 5.35061 11.3769 5.64256 11.7371 5.64256Z" fill="#828282"/>
</g>
<defs>
<clipPath id="clip0">
<rect width="14" height="14" fill="white"/>
</clipPath>
</defs>
</svg>
