<svg width="16" height="16" viewBox="0 0 16 16" fill="none" xmlns="http://www.w3.org/2000/svg">
<path d="M7.0625 16C5.51169 16 4.25 14.7383 4.25 13.1875V3.75C4.25 1.68225 5.93225 0 8 0C10.0677 0 11.75 1.68225 11.75 3.75V13.1875H10.8125V3.75C10.8125 2.19919 9.55081 0.9375 8 0.9375C6.44919 0.9375 5.1875 2.19919 5.1875 3.75V13.1875C5.1875 14.2214 6.02863 15.0625 7.0625 15.0625C8.09637 15.0625 8.9375 14.2214 8.9375 13.1875V5.625C8.9375 5.10806 8.51694 4.6875 8 4.6875C7.48306 4.6875 7.0625 5.10806 7.0625 5.625V13.1875H6.125V5.625C6.125 4.59113 6.96613 3.75 8 3.75C9.03387 3.75 9.875 4.59113 9.875 5.625V13.1875C9.875 14.7383 8.61331 16 7.0625 16Z" fill="black"/>
</svg>
