<svg width="70" height="70" viewBox="0 0 70 70" fill="none" xmlns="http://www.w3.org/2000/svg">
<path d="M27 40C19.2806 40 13 33.7194 13 26C13 18.2806 19.2806 12 27 12C34.7194 12 41 18.2806 41 26C41 33.7194 34.7194 40 27 40ZM27 14.1538C20.4685 14.1538 15.1538 19.4685 15.1538 26C15.1538 32.5315 20.4685 37.8462 27 37.8462C33.5315 37.8462 38.8462 32.5315 38.8462 26C38.8462 19.4685 33.5315 14.1538 27 14.1538Z" fill="#FF4264"/>
<path d="M27 44C19.2806 44 13 38.168 13 31C13 30.4473 13.4811 30 14.0769 30C14.6727 30 15.1538 30.4473 15.1538 31C15.1538 37.0649 20.4685 42 27 42C33.5315 42 38.8462 37.0649 38.8462 31C38.8462 30.4473 39.3273 30 39.9231 30C40.5189 30 41 30.4473 41 31C41 38.168 34.7194 44 27 44Z" fill="#FF4264"/>
<path d="M40 32C39.4468 32 39 31.5527 39 31V27C39 26.4468 39.4468 26 40 26C40.5532 26 41 26.4468 41 27V31C41 31.5527 40.5532 32 40 32Z" fill="#FF0044"/>
<path d="M14 32C13.4468 32 13 31.5527 13 31V27C13 26.4468 13.4468 26 14 26C14.5532 26 15 26.4468 15 27V31C15 31.5527 14.5532 32 14 32Z" fill="#FF0044"/>
<path d="M23 43C22.4468 43 22 42.5539 22 42.0015V37.9985C22 37.4461 22.4468 37 23 37C23.5532 37 24 37.4461 24 37.9985V42.0015C24 42.5539 23.5532 43 23 43Z" fill="#FF4264"/>
<path d="M33 43C32.4468 43 32 42.5539 32 42.0016V37.9984C32 37.4461 32.4468 37 33 37C33.5532 37 34 37.4461 34 37.9984V42.0016C34 42.5539 33.5532 43 33 43Z" fill="#FF4264"/>
<path d="M28 44C27.4468 44 27 43.5539 27 43.0015V38.9985C27 38.4461 27.4468 38 28 38C28.5532 38 29 38.4461 29 38.9985V43.0015C29 43.5539 28.5532 44 28 44Z" fill="#FF4264"/>
<path d="M30 33C29.4468 33 29 32.5532 29 32V21C29 20.4473 29.4468 20 30 20C30.5532 20 31 20.4473 31 21V32C31 32.5532 30.5532 33 30 33Z" fill="#FF4264"/>
<path d="M26 33C25.4468 33 25 32.5364 25 31.9623V23.0377C25 22.4641 25.4468 22 26 22C26.5532 22 27 22.4641 27 23.0377V31.9623C27 32.5364 26.5532 33 26 33Z" fill="#FF4264"/>
<path d="M25.0006 25C24.6608 25 24.3297 24.8271 24.1427 24.5151C23.8586 24.041 24.0119 23.4271 24.4855 23.1429L29.4853 20.1427C29.9603 19.8585 30.5746 20.0119 30.8573 20.486C31.1414 20.9597 30.9881 21.574 30.5145 21.8577L25.5147 24.8579C25.3536 24.9541 25.1754 25 25.0006 25Z" fill="#FF4264"/>
<path d="M31 33H25C24.4468 33 24 32.5532 24 32C24 31.4473 24.4468 31 25 31H31C31.5532 31 32 31.4473 32 32C32 32.5532 31.5532 33 31 33Z" fill="#FF4264"/>
<path d="M27.0054 51C20.8599 51 15.0835 48.6078 10.7373 44.264C6.39265 39.9207 4 34.1454 4 28C4 21.8556 6.39265 16.0804 10.7373 11.736C15.0835 7.3922 20.8599 5 27.0054 5C33.151 5 38.9273 7.3922 43.2735 11.736C52.2422 20.7034 52.2422 35.2955 43.2735 44.263C38.9273 48.6078 33.151 51 27.0054 51ZM27.0054 7.091C21.4185 7.091 16.1665 9.26573 12.216 13.2144C8.26654 17.1631 6.0914 22.4136 6.0914 28C6.0914 33.5859 8.26654 38.8364 12.216 42.7856C16.1655 46.7343 21.4185 48.909 27.0054 48.909C32.5924 48.909 37.8444 46.7343 41.7948 42.7856C49.9491 34.6324 49.9491 21.3681 41.7948 13.2155C37.8444 9.26573 32.5924 7.091 27.0054 7.091Z" fill="#828282"/>
<path d="M27.0064 55C19.7922 55 13.0105 52.1918 7.90939 47.0927C2.80877 41.9941 0.00105494 35.2122 0 28C0 20.7872 2.80983 14.0069 7.90939 8.90783C13.0116 3.80927 19.7938 1 27.0064 1C34.2206 1 41.0023 3.80927 46.1034 8.90783C56.6322 19.4351 56.6322 36.5639 46.1034 47.0916C41.0012 52.1918 34.219 55 27.0064 55ZM27.0064 3.16008C20.3703 3.16008 14.1309 5.7447 9.43694 10.4351C4.74564 15.127 2.16051 21.3642 2.16051 28C2.16157 34.6358 4.74564 40.874 9.43694 45.566C14.1288 50.2574 20.3693 52.8399 27.0064 52.8399C33.6425 52.8399 39.8819 50.2564 44.5759 45.566C54.2623 35.8799 54.2623 20.1201 44.5759 10.4361C39.883 5.7447 33.6435 3.16008 27.0064 3.16008Z" fill="#828282"/>
<path d="M48.0778 54C47.8419 54 47.6061 53.8945 47.426 53.6849L43.2704 48.8361C42.9099 48.4155 42.9099 47.7355 43.2704 47.3155C43.631 46.8948 44.2134 46.8948 44.574 47.3155L48.7296 52.1642C49.0901 52.5849 49.0901 53.2643 48.7296 53.6849C48.55 53.8945 48.3141 54 48.0778 54Z" fill="#828282"/>
<path d="M51.9251 50C51.6502 50 51.3747 49.9101 51.1654 49.7302L46.3148 45.5724C45.8951 45.2122 45.8951 44.6299 46.3148 44.2701C46.7351 43.91 47.4145 43.91 47.8342 44.2701L52.6848 48.4279C53.1051 48.7881 53.1051 49.37 52.6848 49.7302C52.4755 49.9101 52.2 50 51.9251 50Z" fill="#828282"/>
<path d="M47.1755 56C46.8747 56 46.574 55.8847 46.3444 55.6557C45.8852 55.1961 45.8852 54.4535 46.3444 53.9939L52.993 47.3443C53.4528 46.8852 54.1955 46.8852 54.6552 47.3443C55.1149 47.8039 55.1149 48.5465 54.6552 49.0061L48.0065 55.6557C47.7775 55.8847 47.4768 56 47.1755 56Z" fill="#828282"/>
<path d="M60.9022 69C60.6215 69 60.3407 68.899 60.1264 68.6986L46.3215 55.7565C45.8928 55.3542 45.8928 54.7041 46.3215 54.3018C46.7507 53.8994 47.4446 53.8994 47.8732 54.3018L61.6781 67.2438C62.1073 67.6462 62.1073 68.2962 61.6781 68.6986C61.4643 68.899 61.1835 69 60.9022 69Z" fill="#828282"/>
<path d="M66.9712 63C66.7075 63 66.4443 62.8929 66.2438 62.6786L53.3018 48.8729C52.8994 48.4438 52.8994 47.7506 53.3018 47.3214C53.7041 46.8929 54.3542 46.8929 54.7565 47.3214L67.6986 61.1271C68.1005 61.5562 68.1005 62.2494 67.6986 62.6786C67.4977 62.8929 67.2344 63 66.9712 63Z" fill="#828282"/>
<path d="M63.9037 70C62.5417 70 61.2614 69.4688 60.2987 68.5065C59.9004 68.1077 59.9004 67.4635 60.2987 67.0647C60.6974 66.6659 61.3415 66.6659 61.7403 67.0647C62.8946 68.2187 64.9097 68.2227 66.064 67.0647C66.642 66.4877 66.9611 65.7186 66.9611 64.9011C66.9611 64.0846 66.643 63.3175 66.066 62.7415C65.6663 62.3432 65.6663 61.6985 66.064 61.2997C66.4628 60.8994 67.1089 60.9014 67.5056 61.2977C68.4689 62.2595 69 63.539 69 64.9011C69 66.2632 68.4689 67.5436 67.5066 68.5065C66.5449 69.4688 65.2656 70 63.9037 70Z" fill="#828282"/>
</svg>
