<svg width="40" height="40" viewBox="0 0 40 40" fill="none" xmlns="http://www.w3.org/2000/svg">
<g clip-path="url(#clip0)">
<path d="M26.4478 11.2158H5.35522C5.03163 11.2158 4.76929 11.4781 4.76929 11.8018C4.76929 12.1254 5.03163 12.3877 5.35522 12.3877H26.4478C26.7715 12.3877 27.0337 12.1254 27.0337 11.8018C27.0337 11.4782 26.7715 11.2158 26.4478 11.2158Z" fill="#828282"/>
<path d="M0.645752 33.6507C0.969346 33.6507 1.23169 33.3884 1.23169 33.0648V2.57766C1.23169 1.8025 1.86231 1.17188 2.63747 1.17188H29.1655C29.9407 1.17188 30.5713 1.8025 30.5713 2.57766V5.44555C30.5713 5.76922 30.8336 6.03149 31.1572 6.03149C31.4809 6.03149 31.7432 5.76922 31.7432 5.44555V2.57766C31.7432 1.15633 30.5868 0 29.1655 0H2.63747C1.21614 0 0.0598145 1.15633 0.0598145 2.57766V33.0648C0.0598145 33.3884 0.322158 33.6507 0.645752 33.6507Z" fill="#828282"/>
<path d="M26.4478 15.7002H5.35522C5.03163 15.7002 4.76929 15.9625 4.76929 16.2861C4.76929 16.6098 5.03163 16.8721 5.35522 16.8721H26.4478C26.7715 16.8721 27.0337 16.6098 27.0337 16.2861C27.0337 15.9625 26.7715 15.7002 26.4478 15.7002Z" fill="#828282"/>
<path d="M10.1398 29.2015C9.02179 28.5944 6.70991 29.6284 5.8739 30.3716C5.63202 30.5866 5.6103 30.9569 5.82523 31.1987C6.04015 31.4405 6.41046 31.4625 6.65241 31.2474C6.99468 30.9431 7.68304 30.5845 8.32632 30.3752C9.14327 30.1095 9.50991 30.1888 9.58116 30.2312C9.58624 30.2515 9.59163 30.303 9.57827 30.3911C9.48429 31.0105 9.62187 31.4458 9.98726 31.6853C10.1531 31.794 10.3373 31.8444 10.5437 31.8444C11.28 31.8443 12.2995 31.2034 13.7762 30.2751C14.0131 30.1261 14.2562 29.9733 14.5031 29.8205C14.7783 29.6501 14.8632 29.289 14.6929 29.0139C14.5226 28.7387 14.1616 28.6539 13.8862 28.8241C13.637 28.9784 13.3916 29.1326 13.1524 29.283C12.3709 29.7743 11.2409 30.4848 10.7273 30.6404C10.7297 30.6183 10.7328 30.5937 10.7369 30.5669C10.8298 29.9555 10.6122 29.4579 10.1398 29.2015Z" fill="#FF4264"/>
<path d="M39.6027 13.7756L37.1429 11.3158C36.925 11.098 36.6354 10.978 36.3273 10.978C36.0193 10.978 35.7297 11.098 35.5118 11.3158L34.6122 12.2154L34.4902 12.0934C34.0242 11.6276 33.2661 11.6275 32.8 12.0934L31.7433 13.1501V8.23633C31.7433 7.91266 31.4811 7.65039 31.1574 7.65039C30.8337 7.65039 30.5715 7.91266 30.5715 8.23633V14.322L24.71 20.1834H5.35528C5.03169 20.1834 4.76935 20.4457 4.76935 20.7694C4.76935 21.093 5.03169 21.3553 5.35528 21.3553H23.5381L19.5043 25.3892C19.2785 25.615 19.1542 25.9151 19.1542 26.2343C19.1542 26.5113 19.2481 26.7737 19.4204 26.9859C18.752 27.7526 18.1492 28.6978 17.7904 29.5597C17.2146 30.943 17.334 31.8534 17.6499 32.4399L17.1757 32.9141C16.9468 33.143 16.9468 33.514 17.1757 33.7428C17.29 33.8572 17.44 33.9144 17.59 33.9144C17.7399 33.9144 17.8899 33.8572 18.0043 33.7428L18.4788 33.2683C18.7685 33.4244 19.1367 33.5328 19.6025 33.5328C20.0797 33.5328 20.6586 33.4195 21.3587 33.128C22.2205 32.7693 23.1658 32.1665 23.9325 31.4981C24.1446 31.6704 24.407 31.7643 24.6841 31.7643C25.0033 31.7643 25.3035 31.6399 25.5291 31.4143L30.5714 26.372V31.2557C29.8692 31.8535 28.9854 32.1808 28.056 32.1808H26.5015C25.0802 32.1808 23.9239 33.3371 23.9239 34.7584V36.3129C23.9239 37.2423 23.5965 38.1261 22.9988 38.8283H2.63755C1.86239 38.8283 1.23169 38.1977 1.23169 37.4225V35.8619C1.23169 35.5383 0.969346 35.276 0.645752 35.276C0.322158 35.276 0.0598145 35.5383 0.0598145 35.8619V37.4225C0.0598926 38.8439 1.21622 40.0002 2.63755 40.0002H24.536C28.51 40.0002 31.7432 36.7671 31.7432 32.793V25.2002L36.6745 20.2689C36.6744 20.2689 36.6746 20.2688 36.6745 20.2689L38.825 18.1184C39.2909 17.6524 39.2909 16.8943 38.825 16.4283L38.7031 16.3063L39.6028 15.4066C40.0523 14.957 40.0523 14.2253 39.6027 13.7756ZM24.536 38.8284H24.4275C24.8632 38.0701 25.0957 37.2075 25.0957 36.313V34.7585C25.0957 33.9834 25.7263 33.3527 26.5015 33.3527H28.0559C28.9504 33.3527 29.813 33.1202 30.5713 32.6845V32.793C30.5713 36.1209 27.864 38.8284 24.536 38.8284ZM31.064 15.4868L32.3485 16.7713L26.9734 22.1465L25.6888 20.8619L31.064 15.4868ZM18.8322 32.0862C18.3258 31.5799 18.64 30.568 18.8722 30.0101C19.1706 29.2933 19.6847 28.4811 20.2465 27.8218L23.096 30.6712C21.733 31.8287 19.6108 32.8648 18.8322 32.0862ZM24.7004 30.5856C24.6982 30.5878 24.6936 30.5924 24.6841 30.5924C24.6745 30.5924 24.6699 30.5878 24.6677 30.5855L20.3329 26.2508C20.3307 26.2486 20.3261 26.244 20.3261 26.2344C20.3261 26.2248 20.3307 26.2202 20.3329 26.218L24.8603 21.6905L26.2297 23.0598C26.4347 23.2648 26.7041 23.3674 26.9735 23.3673C27.2429 23.3673 27.5124 23.2648 27.7175 23.0598L33.1772 17.6001L35.4317 19.8545L24.7004 30.5856ZM37.9963 17.2898L36.2603 19.0258L31.8926 14.6581L33.6286 12.9222C33.6332 12.9177 33.6391 12.9154 33.645 12.9154C33.651 12.9154 33.6569 12.9176 33.6615 12.9222L37.9963 17.257C38.0054 17.266 38.0054 17.2807 37.9963 17.2898ZM37.8744 15.4777L35.4408 13.044L36.3272 12.1574L38.7609 14.5911L37.8744 15.4777Z" fill="#828282"/>
<path d="M13.3235 33.6084H6.99194C6.66835 33.6084 6.40601 33.8707 6.40601 34.1943C6.40601 34.518 6.66835 34.7803 6.99194 34.7803H13.3235C13.6471 34.7803 13.9094 34.518 13.9094 34.1943C13.9094 33.8707 13.6471 33.6084 13.3235 33.6084Z" fill="#FF4264"/>
<path d="M5.35522 7.90527H16.5569C16.8805 7.90527 17.1429 7.64301 17.1429 7.31934C17.1429 6.99566 16.8805 6.7334 16.5569 6.7334H5.35522C5.03163 6.7334 4.76929 6.99566 4.76929 7.31934C4.76929 7.64293 5.03163 7.90527 5.35522 7.90527Z" fill="#828282"/>
</g>
<defs>
<clipPath id="clip0">
<rect width="40" height="40" fill="white"/>
</clipPath>
</defs>
</svg>
