<svg width="70" height="70" viewBox="0 0 70 70" fill="none" xmlns="http://www.w3.org/2000/svg">
<g clip-path="url(#clip0)">
<path d="M58.6578 54.2725L35.7693 46.7575C35.8918 45.1893 35.2077 43.6662 33.9539 42.716C32.7008 41.7659 31.0494 41.5193 29.5724 42.061L13.5906 28.2511C13.3274 28.0232 12.9765 27.9253 12.6336 27.9828C12.2907 28.0403 11.9911 28.2482 11.8173 28.5496L10.0207 31.67C6.82118 30.4743 3.2263 31.7668 1.52086 34.7265L0.937568 35.7359C0.00452882 37.3519 -0.244396 39.2744 0.246048 41.0755C0.737061 42.8761 1.92643 44.4067 3.55099 45.3261L21.3619 54.4559C21.0349 55.8282 21.3454 57.2744 22.2066 58.392L18.5332 64.7547C18.2973 65.1631 18.3304 65.6735 18.618 66.0483C18.9051 66.4225 19.3899 66.5871 19.8456 66.4647L23.5003 65.4849L24.4794 69.1396C24.6013 69.5947 24.9853 69.9314 25.4523 69.9935C25.503 70.0003 25.5537 70.0037 25.605 70.0043C26.022 70.0043 26.4076 69.7822 26.6166 69.421L31.647 60.7075L43.9109 68.6298C45.5195 69.5589 47.4317 69.8106 49.226 69.3293C51.0203 68.848 52.5498 67.6728 53.4771 66.0631L54.0604 65.0543L59.31 55.9609C59.4855 55.6561 59.5145 55.2893 59.3892 54.9606C59.2633 54.6325 58.9962 54.3785 58.6624 54.2691L58.6578 54.2725ZM32.2929 44.4129C33.4082 45.0572 33.7905 46.4841 33.1456 47.6L27.896 56.6991C27.2478 57.8059 25.8277 58.1813 24.717 57.5399C23.6062 56.8985 23.2211 55.4807 23.8551 54.3659L29.1048 45.2736C29.4129 44.7348 29.9233 44.3406 30.5231 44.1794C31.1223 44.0176 31.7615 44.1019 32.2986 44.4129H32.2929ZM13.1377 30.9386L24.8201 41.0368L12.0634 32.7984L13.1377 30.9386ZM2.49149 40.4438C2.16852 39.2482 2.33656 37.9734 2.95801 36.9025L3.54131 35.8931C4.8184 33.6802 7.63688 32.9055 9.86524 34.1552L26.5967 44.9598L22.3411 52.3324L4.6646 43.2766C3.59086 42.6608 2.8082 41.6406 2.49149 40.4438ZM26.0026 65.8147L25.4523 63.7544C25.2854 63.1324 24.6458 62.7627 24.0232 62.9302L21.9617 63.4816L24.0733 59.8258C25.7349 60.5281 27.6534 60.204 28.9914 58.9941L29.6835 59.4395L26.0026 65.8147ZM45.1276 66.6396L30.3613 57.1007L34.7349 49.5259L50.3271 57.5216C52.5589 58.8101 53.3239 61.6639 52.0354 63.8957L51.4521 64.9051C50.1739 67.1163 47.3554 67.8899 45.1276 66.6396ZM54.626 59.4071C54.0969 57.7415 52.9616 56.3363 51.4447 55.4687L45.4227 52.3888L56.5662 56.0469L54.626 59.4071Z" fill="#FF4264"/>
<path d="M68.4889 12.8418L69.9363 8.3691C70.1129 7.82227 69.8657 7.22815 69.353 6.96898L65.1709 4.83176L63.0325 0.645046C62.7733 0.132387 62.1792 -0.115398 61.6324 0.0617539L57.1608 1.51429L52.687 0.0663109C52.1408 -0.110272 51.5467 0.136944 51.2875 0.649603L49.1514 4.83176L44.9647 6.97012C44.9459 6.98037 44.9328 6.99803 44.9146 7.00885H24.4965C21.277 7.01227 18.6676 9.6217 18.6636 12.8418V28.8823C18.6636 29.5265 19.1859 30.0489 19.8302 30.0489C20.475 30.0489 20.9967 29.5265 20.9967 28.8823V12.8418C20.9967 10.9085 22.5638 9.34202 24.4965 9.34202H44.701L45.8334 12.8418L44.386 17.3144C44.2088 17.8607 44.4566 18.4548 44.9692 18.714L49.156 20.8523L51.2943 25.0391C51.5535 25.5517 52.1476 25.7995 52.6944 25.6223L57.1608 24.1692L58.3274 24.5469V50.1724C58.3274 50.8167 58.8498 51.339 59.494 51.339C60.1388 51.339 60.6606 50.8167 60.6606 50.1724V25.3017L61.6352 25.6167C62.1815 25.7938 62.7756 25.546 63.0348 25.0334L65.1731 20.8466L69.3599 18.7083C69.8725 18.4491 70.1203 17.855 69.9431 17.3082L68.4889 12.8418ZM66.1557 13.2006L67.4129 17.0866L63.7759 18.9453C63.5571 19.0569 63.3794 19.2352 63.2683 19.4539L61.4074 23.091L57.5203 21.8338C57.2873 21.7575 57.0361 21.7575 56.8031 21.8338L52.916 23.091L51.0574 19.4539C50.9457 19.2346 50.768 19.0569 50.5487 18.9453L46.9117 17.0866L48.1688 13.2006C48.2463 12.9677 48.2463 12.7153 48.1688 12.4823L46.9117 8.59638L50.5487 6.73771C50.768 6.62606 50.9457 6.44834 51.0574 6.22961L52.916 2.59201L56.8031 3.84973C57.0361 3.92549 57.2873 3.92549 57.5203 3.84973L61.4074 2.59201L63.266 6.22961C63.3771 6.44777 63.5548 6.62606 63.7736 6.73771L67.4106 8.59638L66.1529 12.4823C66.0777 12.7159 66.0777 12.9671 66.1529 13.2006H66.1557Z" fill="#828282"/>
<path d="M57.1608 7.00885C53.9396 7.00885 51.3279 9.61999 51.3279 12.8418C51.3279 16.063 53.9396 18.6747 57.1608 18.6747C60.3826 18.6747 62.9937 16.063 62.9937 12.8418C62.9903 9.6217 60.3809 7.01227 57.1608 7.00885ZM57.1608 16.3415C55.2281 16.3415 53.661 14.7745 53.661 12.8418C53.661 10.9085 55.2281 9.34202 57.1608 9.34202C59.0941 9.34202 60.6606 10.9085 60.6606 12.8418C60.6606 14.7745 59.0941 16.3415 57.1608 16.3415Z" fill="#FF4264"/>
<path d="M29.1629 30.3405H48.9948C49.6396 30.3405 50.1614 29.8181 50.1614 29.1739C50.1614 28.5297 49.6396 28.0073 48.9948 28.0073H29.1629C28.5187 28.0073 27.9963 28.5297 27.9963 29.1739C27.9963 29.8181 28.5187 30.3405 29.1629 30.3405Z" fill="#828282"/>
<path d="M48.9948 33.8403H32.6627C32.0184 33.8403 31.4961 34.3626 31.4961 35.0069C31.4961 35.6511 32.0184 36.1734 32.6627 36.1734H48.9948C49.6396 36.1734 50.1614 35.6511 50.1614 35.0069C50.1614 34.3626 49.6396 33.8403 48.9948 33.8403Z" fill="#828282"/>
<path d="M48.9948 39.6732H40.8287C40.1845 39.6732 39.6621 40.1955 39.6621 40.8397C39.6621 41.484 40.1845 42.0063 40.8287 42.0063H48.9948C49.6396 42.0063 50.1614 41.484 50.1614 40.8397C50.1614 40.1955 49.6396 39.6732 48.9948 39.6732Z" fill="#828282"/>
<path d="M31.4961 18.6747H38.4956C39.1404 18.6747 39.6622 18.1523 39.6622 17.5081C39.6622 16.8638 39.1404 16.3415 38.4956 16.3415H31.4961C29.5634 16.3415 27.9963 17.9079 27.9963 19.8412C27.9963 21.774 29.5634 23.341 31.4961 23.341H38.4956C39.1404 23.341 39.6622 22.8186 39.6622 22.1744C39.6622 21.5302 39.1404 21.0078 38.4956 21.0078H31.4961C30.8518 21.0078 30.3295 20.4855 30.3295 19.8412C30.3295 19.197 30.8518 18.6747 31.4961 18.6747Z" fill="#828282"/>
</g>
<defs>
<clipPath id="clip0">
<rect width="70" height="70" fill="white"/>
</clipPath>
</defs>
</svg>
