<svg width="40" height="40" viewBox="0 0 40 40" fill="none" xmlns="http://www.w3.org/2000/svg">
<path d="M20 5C11.7287 5 5 11.7287 5 20C5 28.2712 11.7287 35 20 35C28.2712 35 35 28.2712 35 20C35 11.7287 28.2712 5 20 5ZM20 32.5C13.1075 32.5 7.5 26.8925 7.5 20C7.5 13.1075 13.1075 7.5 20 7.5C26.8925 7.5 32.5 13.1075 32.5 20C32.5 26.8925 26.8925 32.5 20 32.5Z" fill="#FF4264"/>
<path d="M24.6644 15.45L19.2906 21.8981L16.5081 19.1163C16.0206 18.6281 15.2281 18.6281 14.7406 19.1163C14.2525 19.6044 14.2525 20.3956 14.7406 20.8838L18.4906 24.6337C18.7262 24.8687 19.0444 25 19.375 25C19.3937 25 19.4131 25 19.4319 24.9987C19.7825 24.9831 20.1106 24.82 20.3356 24.55L26.5856 17.05C27.0275 16.5194 26.9556 15.7319 26.4256 15.2894C25.895 14.8481 25.1062 14.9194 24.6644 15.45Z" fill="#FF4264"/>
</svg>
