<svg width="43" height="43" viewBox="0 0 43 43" fill="none" xmlns="http://www.w3.org/2000/svg">
<g clip-path="url(#clip0)">
<path d="M38.3421 5.20215H21.3322C20.4781 5.20215 19.7514 5.75611 19.4911 6.52347H13.6355C12.4333 6.52347 11.4487 7.47292 11.392 8.66138H8.91461C7.06552 8.66138 5.56128 10.1647 5.56128 12.0124V12.3372H0.629883C0.281936 12.3372 0 12.6192 0 12.9671C0 13.315 0.281936 13.597 0.629883 13.597H5.56128V13.9194C5.56128 15.7685 7.06552 17.2728 8.91461 17.2728H11.392C11.4488 18.4599 12.4334 19.4084 13.6355 19.4084H19.4903C19.7499 20.1769 20.4772 20.732 21.3323 20.732H25.8568C25.7038 21.375 25.3094 22.0238 24.9507 22.6129C24.4333 23.4625 23.9865 24.1962 24.1818 24.9387C24.6034 26.5613 25.7942 26.6566 28.5824 26.6602V31.3474H25.2271C23.4489 31.3474 22.0022 32.7941 22.0022 34.5723V36.6483C22.0022 37.2818 22.5165 37.7972 23.1487 37.7972H35.9043C36.5365 37.7972 37.0508 37.2818 37.0508 36.6483V32.4678C37.0508 31.8501 36.5482 31.3474 35.9304 31.3474H35.2724V27.3444C35.2724 26.9965 34.9905 26.7145 34.6425 26.7145C34.2946 26.7145 34.0127 26.9965 34.0127 27.3444V31.3474H29.8422V20.732H34.0127V24.4351C34.0127 24.7829 34.2946 25.065 34.6425 25.065C34.9905 25.065 35.2724 24.7829 35.2724 24.4351V20.732H38.3421C40.9106 20.732 43.0001 18.6424 43.0001 16.0739V9.86026C43 7.29176 40.9105 5.20215 38.3421 5.20215ZM35.7909 36.5374H23.2619V34.5723C23.2619 33.4888 24.1434 32.6072 25.227 32.6072H35.7909V36.5374ZM6.82104 13.9194V12.0124C6.82104 10.8593 7.76024 9.92115 8.91461 9.92115H11.3892V12.3373H9.51929C9.17135 12.3373 8.88941 12.6193 8.88941 12.9672C8.88941 13.315 9.17135 13.5971 9.51929 13.5971H11.3892V16.0131H8.91461C7.76016 16.013 6.82104 15.0738 6.82104 13.9194ZM12.6489 17.1643V8.7698C12.6489 8.22575 13.0915 7.78316 13.6355 7.78316H15.3886V18.1485H13.6355C13.0915 18.1486 12.6489 17.7071 12.6489 17.1643ZM20.6479 18.788V14.3789C20.6479 14.031 20.366 13.749 20.018 13.749C19.6701 13.749 19.3881 14.031 19.3881 14.3789V18.1486H16.6484V7.78324H19.3881V11.3124C19.3881 11.6603 19.6701 11.9423 20.018 11.9423C20.366 11.9423 20.6479 11.6603 20.6479 11.3124V7.14622C20.6479 6.76888 20.9549 6.46191 21.3321 6.46191H36.5336V19.4723H21.3322C20.9549 19.4723 20.6479 19.1653 20.6479 18.788ZM28.5823 25.4C25.8616 25.393 25.5758 25.2947 25.4004 24.62C25.3409 24.3938 25.7372 23.7431 26.0265 23.268C26.4647 22.5484 26.99 21.6852 27.1403 20.7319H28.5823V25.4ZM41.7402 16.0739C41.7402 17.9478 40.2158 19.4723 38.3421 19.4723H37.7935V6.46191H38.3421C40.2158 6.46191 41.7402 7.9864 41.7402 9.86026V16.0739Z" fill="#828282"/>
<path d="M27.2004 10.4941H33.6258C33.9738 10.4941 34.2557 10.2121 34.2557 9.86426C34.2557 9.51639 33.9738 9.23438 33.6258 9.23438H27.2004C26.8525 9.23438 26.5706 9.51639 26.5706 9.86426C26.5706 10.2121 26.8525 10.4941 27.2004 10.4941Z" fill="#FF4264"/>
<path d="M27.2004 13.2637H33.6258C33.9738 13.2637 34.2557 12.9817 34.2557 12.6338C34.2557 12.2859 33.9738 12.0039 33.6258 12.0039H27.2004C26.8525 12.0039 26.5706 12.2859 26.5706 12.6338C26.5706 12.9817 26.8525 13.2637 27.2004 13.2637Z" fill="#FF4264"/>
<path d="M34.2557 15.4023C34.2557 15.0545 33.9738 14.7725 33.6258 14.7725H27.2004C26.8525 14.7725 26.5706 15.0545 26.5706 15.4023C26.5706 15.7502 26.8525 16.0322 27.2004 16.0322H33.6258C33.9737 16.0322 34.2557 15.7502 34.2557 15.4023Z" fill="#FF4264"/>
</g>
<defs>
<clipPath id="clip0">
<rect width="43" height="43" fill="white"/>
</clipPath>
</defs>
</svg>
