<svg width="58" height="58" viewBox="0 0 58 58" fill="none" xmlns="http://www.w3.org/2000/svg">
<path d="M45.3172 22.0014C45.3125 21.995 45.3078 21.9888 45.3029 21.9824L29.9133 2.12376C29.712 1.86388 29.402 1.71144 29.0732 1.71069H29.0708C28.743 1.71069 28.4333 1.86153 28.2312 2.11982L12.7737 21.8745C12.7499 21.9049 12.728 21.9364 12.7079 21.9687C9.67083 25.707 8 30.4161 8 35.2467C8 46.8496 17.4206 56.2894 29 56.2894C40.5794 56.2894 50 46.8496 50 35.2467C50 30.4347 48.3374 25.7331 45.3172 22.0014ZM29 54.1574C18.5962 54.1574 10.132 45.6741 10.132 35.2467C10.132 30.8601 11.6646 26.5851 14.4473 23.2096C14.4831 23.1662 14.515 23.1206 14.5429 23.0731L29.0667 4.51169L43.588 23.2498C43.6019 23.2696 43.6166 23.289 43.6321 23.308C46.3637 26.6668 47.868 30.9068 47.868 35.2467C47.868 45.6741 39.4038 54.1574 29 54.1574Z" fill="#828282"/>
<path d="M45.7889 31.5603L45.7861 31.5504C45.6986 31.2005 45.4376 30.9138 45.0878 30.7976C45.0038 30.7698 42.9952 30.1168 40.155 30.3157C37.5439 30.499 33.6851 31.4634 30.1302 35.0181C27.4888 37.6595 26.2783 40.4683 25.7552 42.8089L20.3525 37.4062C19.9362 36.9901 19.2614 36.9901 18.8449 37.4062C18.4286 37.8225 18.4286 38.4975 18.8449 38.9139L25.1589 45.2278C25.2341 45.3031 25.318 45.3642 25.407 45.4122C25.2856 48.0559 25.8834 49.8952 25.9101 49.9755C26.0162 50.2949 26.2667 50.5454 26.586 50.6515C26.659 50.6757 28.1818 51.1714 30.441 51.1713C30.784 51.1713 31.1443 51.1598 31.5187 51.1335C34.1298 50.9505 37.9886 49.9861 41.5435 46.4314C47.8376 40.1371 46.1843 32.9392 45.7889 31.5603ZM40.0358 44.9238C37.5798 47.3799 34.6943 48.7514 31.4593 49.0002C30.5605 49.0693 29.7573 49.0377 29.0991 48.97L39.6773 38.3918C40.0936 37.9755 40.0936 37.3005 39.6773 36.8841C39.261 36.468 38.5862 36.468 38.1697 36.8841L27.5915 47.4624C27.5238 46.8039 27.492 46.0008 27.5612 45.1022C27.81 41.8672 29.1815 38.9817 31.6376 36.5256C34.0937 34.0695 36.9793 32.698 40.2143 32.4491C41.851 32.3226 43.174 32.5308 43.8733 32.683C44.2985 34.6211 44.9072 40.0525 40.0358 44.9238Z" fill="#FF4264"/>
<path d="M26.8014 34.0315C20.2444 28.4536 13.2087 30.6995 12.9122 30.7978C12.5623 30.914 12.3015 31.2007 12.2138 31.5507L12.2112 31.5604C11.8158 32.9395 10.1625 40.1374 16.4566 46.4316C17.861 47.836 19.4233 48.9477 21.1003 49.7359C21.2468 49.8047 21.4011 49.8375 21.553 49.8374C21.9533 49.8374 22.3369 49.6108 22.5185 49.2246C22.769 48.6918 22.54 48.0568 22.0072 47.8064C20.554 47.1233 19.1937 46.1535 17.9642 44.924C13.0919 40.0517 13.702 34.619 14.1269 32.682C15.7515 32.3269 20.7463 31.6795 25.42 35.6555C25.8685 36.0371 26.5412 35.9827 26.9227 35.5342C27.3041 35.0858 27.2498 34.413 26.8014 34.0315Z" fill="#FF4264"/>
<path d="M37.4532 19.8143L31.3295 11.9122C30.9688 11.4467 30.299 11.3618 29.834 11.7226C29.3686 12.0832 29.2837 12.7527 29.6444 13.218L35.768 21.1201C35.9781 21.3913 36.293 21.5332 36.6113 21.5332C36.8395 21.5332 37.0694 21.4603 37.2635 21.3098C37.7289 20.9491 37.8138 20.2796 37.4532 19.8143Z" fill="#828282"/>
<path d="M39.5643 22.5376L39.5341 22.4987C39.1734 22.0335 38.5039 21.9488 38.0385 22.3096C37.5733 22.6703 37.4886 23.34 37.8494 23.8052L37.8796 23.8441C38.0897 24.115 38.4045 24.2568 38.7227 24.2568C38.9509 24.2568 39.1808 24.1838 39.3752 24.0332C39.8404 23.6724 39.9251 23.0028 39.5643 22.5376Z" fill="#828282"/>
</svg>
