<svg width="15" height="15" viewBox="0 0 15 15" fill="none" xmlns="http://www.w3.org/2000/svg">
<path d="M2.64548 12.1203C2.66323 12.1203 2.68092 12.1183 2.69822 12.1143L4.85268 11.6171C4.89548 11.6072 4.93464 11.5855 4.96571 11.5544L12.3054 4.21473C12.4142 4.10591 12.5006 3.97672 12.5595 3.83454C12.6184 3.69236 12.6487 3.53997 12.6487 3.38608C12.6487 3.23219 12.6184 3.0798 12.5595 2.93762C12.5006 2.79544 12.4142 2.66625 12.3054 2.55743L11.974 2.226C11.754 2.00655 11.456 1.8833 11.1453 1.8833C10.8346 1.8833 10.5366 2.00655 10.3167 2.226L2.97692 9.56572C2.94588 9.59679 2.92418 9.63595 2.91431 9.67874L2.41714 11.8332C2.40921 11.8676 2.40913 11.9033 2.41692 11.9377C2.42471 11.9721 2.44016 12.0043 2.46213 12.0319C2.48409 12.0595 2.51201 12.0818 2.54378 12.0971C2.57556 12.1124 2.61038 12.1203 2.64566 12.1203L2.64548 12.1203ZM10.1509 3.05463L11.4767 4.38046L5.13141 10.7258L3.80561 9.39998L10.1509 3.05463ZM11.6425 2.55743L11.9739 2.8889C12.1058 3.02076 12.1799 3.1996 12.1799 3.38608C12.1799 3.57256 12.1058 3.7514 11.9739 3.88326L11.8082 4.04899L10.4824 2.72316L10.6481 2.55743C10.7801 2.42578 10.9589 2.35184 11.1453 2.35184C11.3317 2.35184 11.5105 2.42578 11.6425 2.55743ZM3.35593 9.8496L3.47412 9.73142L4.79994 11.0572L4.68176 11.1754L2.9582 11.5732L3.35593 9.8496Z" fill="#828282"/>
<path d="M6.06446 8.70094C6.09525 8.70097 6.12574 8.69493 6.15418 8.68315C6.18262 8.67137 6.20845 8.65409 6.23019 8.63229L9.98509 4.87742C10.0071 4.8557 10.0245 4.82985 10.0365 4.80136C10.0484 4.77287 10.0546 4.74229 10.0547 4.71139C10.0548 4.6805 10.0488 4.64988 10.037 4.62132C10.0252 4.59276 10.0079 4.56681 9.98608 4.54496C9.96423 4.52311 9.93828 4.5058 9.90971 4.49402C9.88115 4.48224 9.85054 4.47622 9.81964 4.47632C9.78874 4.47641 9.75817 4.48262 9.72967 4.49457C9.70118 4.50653 9.67534 4.524 9.65362 4.54598L5.89873 8.30083C5.86595 8.33361 5.84363 8.37537 5.83458 8.42084C5.82554 8.4663 5.83018 8.51343 5.84792 8.55625C5.86566 8.59908 5.8957 8.63569 5.93425 8.66144C5.97279 8.68719 6.01811 8.70094 6.06446 8.70094Z" fill="#828282"/>
<path d="M5.29688 9.46886C5.32766 9.4689 5.35815 9.46286 5.38658 9.45108C5.41502 9.4393 5.44085 9.42201 5.46258 9.40022L5.62832 9.23449C5.65048 9.21282 5.66813 9.18696 5.68023 9.15842C5.69234 9.12989 5.69866 9.09923 5.69884 9.06823C5.69901 9.03723 5.69304 9.0065 5.68126 8.97783C5.66948 8.94916 5.65213 8.9231 5.63021 8.90118C5.60829 8.87926 5.58224 8.8619 5.55357 8.85012C5.5249 8.83833 5.49418 8.83235 5.46318 8.83252C5.43218 8.83269 5.40152 8.83901 5.37298 8.85111C5.34444 8.86321 5.31859 8.88085 5.29691 8.90302L5.13115 9.06875C5.09837 9.10153 5.07605 9.14329 5.067 9.18876C5.05796 9.23422 5.0626 9.28135 5.08034 9.32418C5.09808 9.36701 5.12812 9.40361 5.16667 9.42937C5.20521 9.45512 5.25053 9.46887 5.29688 9.46886Z" fill="#828282"/>
<path d="M13.5938 12.4219H0.46875C0.40659 12.4219 0.346976 12.4466 0.303022 12.4905C0.259068 12.5345 0.234375 12.5941 0.234375 12.6562C0.234375 12.7184 0.259068 12.778 0.303022 12.822C0.346976 12.8659 0.40659 12.8906 0.46875 12.8906H13.5938C13.6559 12.8906 13.7155 12.8659 13.7595 12.822C13.8034 12.778 13.8281 12.7184 13.8281 12.6562C13.8281 12.5941 13.8034 12.5345 13.7595 12.4905C13.7155 12.4466 13.6559 12.4219 13.5938 12.4219Z" fill="#828282"/>
<path d="M14.5312 12.4219H14.2969C14.2347 12.4219 14.1751 12.4466 14.1311 12.4905C14.0872 12.5345 14.0625 12.5941 14.0625 12.6562C14.0625 12.7184 14.0872 12.778 14.1311 12.822C14.1751 12.8659 14.2347 12.8906 14.2969 12.8906H14.5312C14.5934 12.8906 14.653 12.8659 14.697 12.822C14.7409 12.778 14.7656 12.7184 14.7656 12.6562C14.7656 12.5941 14.7409 12.5345 14.697 12.4905C14.653 12.4466 14.5934 12.4219 14.5312 12.4219Z" fill="#828282"/>
</svg>
