<svg width="42" height="54" viewBox="0 0 42 54" fill="none" xmlns="http://www.w3.org/2000/svg">
<path d="M38.6772 53.5062C39.5494 53.7656 40.47 53.2696 40.6951 52.388C42.1601 46.649 42.3961 40.6585 41.3801 34.8107C40.27 28.4212 37.6954 22.3756 33.8579 17.1476C30.0204 11.9196 25.0244 7.65127 19.2614 4.67712C13.987 1.9551 8.20119 0.384808 2.28697 0.0623076C1.3784 0.0127634 0.629208 0.742436 0.615334 1.65225C0.60146 2.56207 1.32817 3.30721 2.23657 3.35979C7.6419 3.67265 12.928 5.11663 17.7503 7.60529C23.0611 10.3461 27.6652 14.2796 31.2016 19.0974C34.738 23.9152 37.1106 29.4865 38.1336 35.3748C39.0625 40.7212 38.8557 46.1971 37.5341 51.4477C37.312 52.3301 37.8051 53.2467 38.6772 53.5062Z" fill="#FF4264"/>
</svg>
