<svg width="84" height="84" viewBox="0 0 84 84" fill="none" xmlns="http://www.w3.org/2000/svg">
<path d="M4.66766 26.6828C3.82584 26.3374 2.86016 26.7389 2.54804 27.5936C-0.342466 35.5089 -0.789267 44.1247 1.28704 52.3177C3.49848 61.0439 8.45509 68.8286 15.4262 74.5243C22.3972 80.22 31.0138 83.5252 40.0057 83.9526C48.9976 84.3801 57.8889 81.9071 65.3688 76.8984C72.8487 71.8897 78.5214 64.6102 81.5507 56.1332C84.5799 47.6561 84.8053 38.4301 82.1937 29.8152C79.5821 21.2003 74.2716 13.6525 67.0452 8.28448C60.2604 3.24444 52.1237 0.376346 43.7041 0.0345695C42.7949 -0.00233634 42.0559 0.737676 42.0547 1.6476C42.0534 2.55752 42.7905 3.2925 43.6995 3.33244C51.4127 3.67134 58.8625 6.31079 65.0803 10.9296C71.7397 15.8765 76.6335 22.8322 79.0403 30.7712C81.447 38.7102 81.2393 47.2124 78.4477 55.0243C75.6561 62.8363 70.4285 69.5447 63.5354 74.1604C56.6423 78.7762 48.4486 81.0551 40.1622 80.6612C31.8758 80.2673 23.9352 77.2214 17.511 71.9726C11.0869 66.7238 6.51913 59.5498 4.48119 51.5082C2.5784 44 2.97502 36.1063 5.5991 28.8454C5.90837 27.9896 5.50948 27.0282 4.66766 26.6828Z" fill="#FF4264"/>
</svg>
