<svg width="76" height="84" viewBox="0 0 76 84" fill="none" xmlns="http://www.w3.org/2000/svg">
<path d="M1.62277 66.0839C0.892681 66.627 0.738592 67.6614 1.30988 68.3696C5.45956 73.514 10.7703 77.6128 16.8153 80.3234C23.362 83.2591 30.5516 84.4687 37.6985 83.8368C44.8455 83.205 51.7114 80.7529 57.6415 76.7142C63.5717 72.6756 68.3684 67.1851 71.5742 60.7664C74.7801 54.3476 76.2881 47.2146 75.9546 40.0476C75.6211 32.8806 73.4571 25.9185 69.669 19.8252C65.8809 13.7319 60.5951 8.71066 54.3154 5.2402C48.5171 2.03573 42.05 0.252135 35.4445 0.0248435C34.5351 -0.00644779 33.8007 0.738119 33.8051 1.64803C33.8095 2.55794 34.5511 3.28835 35.4604 3.32268C41.5028 3.55079 47.416 5.19203 52.7216 8.1242C58.5085 11.3224 63.3797 15.9497 66.8706 21.5649C70.3615 27.1802 72.3557 33.5961 72.663 40.2008C72.9704 46.8055 71.5807 53.3789 68.6263 59.2941C65.672 65.2092 61.2516 70.2689 55.7867 73.9907C50.3218 77.7125 43.9946 79.9723 37.4084 80.5545C30.8222 81.1368 24.1966 80.0221 18.1635 77.3168C12.6322 74.8364 7.76799 71.0949 3.95591 66.4012C3.38226 65.6949 2.35285 65.5408 1.62277 66.0839Z" fill="#FF4264"/>
</svg>
