<svg width="42" height="84" viewBox="0 0 42 84" fill="none" xmlns="http://www.w3.org/2000/svg">
<path d="M0 82.3524C0 83.2624 0.738243 84.0034 1.64746 83.9677C12.1879 83.5543 22.2111 79.1858 29.6985 71.6985C37.575 63.822 42 53.1391 42 42C42 30.8609 37.575 20.178 29.6985 12.3015C22.2111 4.81416 12.1879 0.445691 1.64748 0.0322895C0.738251 -0.00337073 7.62939e-06 0.737638 7.62939e-06 1.64756C7.62939e-06 2.55748 0.738235 3.29146 1.64734 3.33016C11.3135 3.74158 20.4991 7.76216 27.3685 14.6315C34.6271 21.8901 38.7049 31.7348 38.7049 42C38.7049 52.2652 34.6271 62.1099 27.3685 69.3685C20.4991 76.2378 11.3135 80.2584 1.64732 80.6698C0.738224 80.7085 0 81.4425 0 82.3524Z" fill="#FF4264"/>
</svg>
