<svg width="21" height="21" viewBox="0 0 21 21" fill="none" xmlns="http://www.w3.org/2000/svg">
<path d="M20.281 0.5C20.6781 0.5 21.0013 0.82201 20.9874 1.21885C20.9015 3.66571 20.378 6.07944 19.4395 8.34501C18.4093 10.8322 16.8993 13.0921 14.9957 14.9957C13.0921 16.8993 10.8322 18.4093 8.34501 19.4395C6.07944 20.378 3.66571 20.9015 1.21885 20.9874C0.82201 21.0013 0.5 20.6781 0.5 20.281C0.5 19.8839 0.82202 19.5634 1.21882 19.5485C3.47679 19.4633 5.70362 18.9772 7.79472 18.111C10.1074 17.1531 12.2088 15.749 13.9789 13.9789C15.749 12.2088 17.1531 10.1074 18.111 7.79472C18.9772 5.70362 19.4633 3.47679 19.5485 1.21882C19.5634 0.822021 19.8839 0.5 20.281 0.5Z" fill="#FF4264"/>
</svg>
