<svg width="14" height="14" viewBox="0 0 14 14" fill="none" xmlns="http://www.w3.org/2000/svg">
<path d="M0.485065 2.39192C0.652328 2.22466 0.853045 2.10757 1.07049 2.02394C1.07049 2.02394 1.07049 2.02394 1.08722 2.02394C1.1374 2.00722 1.18757 1.99049 1.23775 1.97376C1.25448 1.97376 1.25448 1.97376 1.27121 1.97376C1.32139 1.95704 1.37156 1.95704 1.42174 1.94031C1.43847 1.94031 1.4552 1.94031 1.4552 1.94031C1.5221 1.94031 1.57228 1.92358 1.63919 1.92358H12.3441C12.411 1.92358 12.4612 1.92358 12.5281 1.94031C12.5448 1.94031 12.5615 1.94031 12.5615 1.94031C12.6117 1.94031 12.6619 1.95704 12.7121 1.97376C12.7288 1.97376 12.7288 1.97376 12.7455 1.97376C12.7957 1.99049 12.8459 2.00722 12.8961 2.02394C12.8961 2.02394 12.8961 2.02394 12.9128 2.02394C13.1302 2.10757 13.3309 2.24139 13.4982 2.39192C13.5149 2.39192 13.5149 2.40865 13.5317 2.42538C13.5484 2.4421 13.5651 2.45883 13.5818 2.47556C13.5986 2.50901 13.632 2.52573 13.6487 2.55919C13.6655 2.57591 13.6655 2.57591 13.6822 2.59264C13.6822 2.59264 13.6822 2.60937 13.6989 2.60937C13.8829 2.87699 14 3.19479 14 3.54605V10.4373C14 10.8722 13.8327 11.2736 13.5484 11.558C13.5484 11.5747 13.5317 11.5747 13.5317 11.5914C13.2306 11.8925 12.8292 12.0765 12.3775 12.0765H1.63919C1.18757 12.0765 0.78614 11.8925 0.485065 11.5914C0.18399 11.2904 0 10.8889 0 10.4373V3.54605C0 3.09443 0.18399 2.693 0.485065 2.39192ZM12.5114 2.77663C12.4612 2.7599 12.411 2.7599 12.3608 2.7599H1.63919C1.58901 2.7599 1.53883 2.7599 1.48865 2.77663C1.43847 2.79336 1.38829 2.81008 1.33811 2.82681L3.8638 4.90088L6.69056 7.1924L6.70729 7.20913C6.79092 7.27603 6.89128 7.30949 6.99164 7.30949C7.09199 7.30949 7.19235 7.27603 7.27599 7.20913L10.1195 4.90088L12.6619 2.82681C12.6117 2.81008 12.5615 2.79336 12.5114 2.77663ZM0.853046 10.4373C0.853046 10.6548 0.936679 10.8388 1.08722 10.9893C1.22103 11.1231 1.42174 11.2235 1.63919 11.2235H12.3441C12.5615 11.2235 12.7455 11.1398 12.8961 10.9893L12.9128 10.9726C13.0466 10.8388 13.1302 10.6548 13.1302 10.4373V3.56277L10.6547 5.56994L9.09916 6.84115L11.5412 9.16612C11.7085 9.33338 11.7252 9.60101 11.5579 9.76827C11.3907 9.93553 11.1231 9.95226 10.9558 9.785L8.43011 7.37639L7.81123 7.87819C7.56033 8.0789 7.27599 8.17926 6.99164 8.16253C6.69056 8.16253 6.40621 8.06218 6.17204 7.86146L6.15532 7.84473L5.55317 7.35967L3.01075 9.785C2.84349 9.95226 2.57586 9.93553 2.4086 9.76827C2.24134 9.60101 2.25806 9.33338 2.42533 9.16612L4.88411 6.82442L3.32855 5.56994L0.853046 3.56277V10.4373Z" fill="#828282"/>
</svg>
