<svg width="30" height="30" viewBox="0 0 30 30" fill="none" xmlns="http://www.w3.org/2000/svg">
<path d="M28.9606 5.12544C28.6022 4.76702 28.172 4.51612 27.7061 4.33691C27.7061 4.33691 27.7061 4.33691 27.6703 4.33691C27.5627 4.30107 27.4552 4.26523 27.3477 4.22938C27.3118 4.22938 27.3118 4.22938 27.276 4.22938C27.1685 4.19354 27.0609 4.19354 26.9534 4.1577C26.9176 4.1577 26.8817 4.1577 26.8817 4.1577C26.7384 4.1577 26.6308 4.12186 26.4875 4.12186H3.54839C3.40502 4.12186 3.29749 4.12186 3.15412 4.1577C3.11828 4.1577 3.08244 4.1577 3.08244 4.1577C2.97491 4.1577 2.86738 4.19354 2.75986 4.22938C2.72401 4.22938 2.72401 4.22938 2.68817 4.22938C2.58065 4.26523 2.47312 4.30107 2.36559 4.33691C2.36559 4.33691 2.36559 4.33691 2.32975 4.33691C1.8638 4.51612 1.43369 4.80286 1.07527 5.12544C1.03943 5.12544 1.03943 5.16128 1.00358 5.19713C0.967742 5.23297 0.9319 5.26881 0.896057 5.30465C0.860215 5.37634 0.78853 5.41218 0.752688 5.48386C0.716846 5.51971 0.716846 5.51971 0.681004 5.55555C0.681004 5.55555 0.681004 5.59139 0.645161 5.59139C0.250896 6.16487 0 6.84587 0 7.59856V22.3656C0 23.2975 0.358423 24.1577 0.967742 24.767C0.967742 24.8029 1.00358 24.8029 1.00358 24.8387C1.64875 25.4839 2.50896 25.8781 3.4767 25.8781H26.4875C27.4552 25.8781 28.3154 25.4839 28.9606 24.8387C29.6057 24.1935 30 23.3333 30 22.3656V7.59856C30 6.63082 29.6057 5.7706 28.9606 5.12544ZM3.18996 5.94981C3.29749 5.91397 3.40502 5.91397 3.51255 5.91397H26.4875C26.595 5.91397 26.7025 5.91397 26.81 5.94981C26.9176 5.98566 27.0251 6.0215 27.1326 6.05734L21.7204 10.5018L15.6631 15.4122L15.6272 15.448C15.448 15.5914 15.233 15.6631 15.0179 15.6631C14.8029 15.6631 14.5878 15.5914 14.4086 15.448L8.31541 10.5018L2.86738 6.05734C2.97491 6.0215 3.08244 5.98566 3.18996 5.94981ZM28.172 22.3656C28.172 22.8315 27.9928 23.2258 27.6703 23.5484C27.3835 23.8351 26.9534 24.0502 26.4875 24.0502H3.54839C3.08244 24.0502 2.68817 23.871 2.36559 23.5484L2.32975 23.5125C2.04301 23.2258 1.8638 22.8315 1.8638 22.3656V7.6344L7.16846 11.9355L10.5018 14.6595L5.26882 19.6416C4.91039 20 4.87455 20.5735 5.23298 20.9319C5.5914 21.2903 6.16488 21.3262 6.5233 20.9677L11.9355 15.8064L13.2617 16.8817C13.7993 17.3118 14.4086 17.5269 15.0179 17.491C15.6631 17.491 16.2724 17.276 16.7742 16.8459L16.81 16.81L18.1004 15.7706L23.5484 20.9677C23.9068 21.3262 24.4803 21.2903 24.8387 20.9319C25.1971 20.5735 25.1613 20 24.8029 19.6416L19.5341 14.6237L22.8674 11.9355L28.172 7.6344V22.3656Z" fill="#FF4264"/>
</svg>
