<svg width="58" height="58" viewBox="0 0 58 58" fill="none" xmlns="http://www.w3.org/2000/svg">
<path d="M40.7813 11.4187C40.2808 11.4187 39.8751 11.8244 39.8751 12.325V17.3872L37.7971 15.3092C37.4413 14.9658 36.8763 14.9708 36.5265 15.3202C36.1771 15.6699 36.1722 16.2349 36.5156 16.5907L40.1406 20.2157C40.3105 20.386 40.5413 20.4819 40.782 20.4819C41.0227 20.4819 41.2539 20.386 41.4238 20.2157L45.0488 16.5907C45.3922 16.2349 45.3873 15.6699 45.0379 15.3202C44.6881 14.9708 44.1231 14.9658 43.7673 15.3092L41.6876 17.3872V12.325C41.6876 11.8244 41.2819 11.4187 40.7813 11.4187Z" fill="#FF4264"/>
<path d="M19.1208 28.64C19.7044 27.8066 20.0648 27.3333 20.7542 27.3333C21.4434 27.3333 21.8031 27.8057 22.3841 28.6416C23.0101 29.5433 23.7891 30.6667 25.3841 30.6667C26.9792 30.6667 27.7572 29.5433 28.3844 28.6416C28.9674 27.8083 29.3258 27.3333 30.013 27.3333C30.7008 27.3333 31.0635 27.8057 31.6432 28.6416C32.2699 29.5433 33.0492 30.6667 34.6432 30.6667C36.2376 30.6667 37.015 29.5433 37.6432 28.6416C38.2266 27.8083 38.585 27.3333 39.2718 27.3333C39.9583 27.3333 40.3223 27.8057 40.9036 28.6416C41.5299 29.5439 42.3102 30.6667 43.903 30.6667C45.4967 30.6667 46.2773 29.5439 46.9033 28.6423C47.4867 27.8089 47.847 27.3333 48.5365 27.3333C49.2266 27.3333 49.5885 27.8057 50.1689 28.6416C50.7917 29.5439 51.5723 30.6667 53.1667 30.6667C53.627 30.6667 54 30.2936 54 29.8333C54 29.373 53.627 29 53.1667 29C52.4772 29 52.1149 28.5277 51.5342 27.6917C50.9076 26.7894 50.1276 25.6667 48.5342 25.6667C46.9408 25.6667 46.1598 26.7894 45.5339 27.6917C44.9508 28.5251 44.5908 29 43.9017 29C43.2126 29 42.8509 28.5277 42.2708 27.6917C41.6439 26.79 40.8639 25.6667 39.2708 25.6667C37.6777 25.6667 36.9001 26.7894 36.2708 27.6917C35.6875 28.5251 35.3294 29 34.6416 29C33.9541 29 33.5905 28.5277 33.0107 27.6917C32.3841 26.7894 31.6042 25.6667 30.0107 25.6667C28.4173 25.6667 27.6387 26.7894 27.0107 27.6917C26.4277 28.5251 26.0684 29 25.3809 29C24.6934 29 24.3307 28.5277 23.751 27.6917C23.125 26.7894 22.346 25.6667 20.751 25.6667C19.1559 25.6667 18.3776 26.7878 17.7507 27.6875C17.6634 27.8135 17.5768 27.9375 17.4899 28.0553C14.5 18.5667 11.3275 9 4.83333 9C4.37305 9 4 9.37305 4 9.83333C4 10.2936 4.37305 10.6667 4.83333 10.6667C10.2643 10.6667 13.2415 20.1139 16.1217 29.25C16.1826 29.4434 16.2441 29.6377 16.305 29.8333C19.109 38.7217 22.0049 47.8916 27.9043 48.9023L27.9655 48.9108C28.3073 48.9681 28.6533 48.998 29 49H53.1667C53.627 49 54 48.627 54 48.1667C54 47.7064 53.627 47.3333 53.1667 47.3333H29C28.7786 47.3307 28.5576 47.3132 28.3392 47.2793C28.2643 47.2682 28.1891 47.2578 28.1143 47.2425C27.9701 47.2142 27.8275 47.1751 27.6855 47.1331C27.5013 47.0781 27.32 47.0124 27.1432 46.9359L27.0964 46.915C25.8148 46.2562 24.7279 45.2725 23.945 44.0625L23.8841 43.9792C23.8011 43.8594 23.7174 43.7344 23.6341 43.6091C23.5898 43.5417 23.5449 43.4753 23.5007 43.4069C23.4434 43.3177 23.3877 43.2249 23.3343 43.1335C23.2627 43.0173 23.1908 42.9017 23.1208 42.7826C23.0924 42.735 23.0651 42.6855 23.0378 42.6387C22.7533 42.1465 22.4782 41.624 22.21 41.0768C22.1393 40.9316 22.0677 40.7874 21.9977 40.638C21.9277 40.4893 21.8643 40.3548 21.7982 40.2103C21.6549 39.8958 21.5133 39.5758 21.3727 39.2441C21.3434 39.1764 21.3148 39.1074 21.2891 39.0384C20.9525 38.2367 20.6191 37.389 20.2891 36.4951L20.2757 36.4609C20.1182 36.0316 19.9606 35.5911 19.804 35.1426L19.7142 34.8857C19.5758 34.4876 19.4368 34.0817 19.2975 33.6683C19.2773 33.6074 19.2575 33.5469 19.237 33.4857C19.75 32.75 20.1107 32.3333 20.7542 32.3333C21.4427 32.3333 21.8031 32.8057 22.3841 33.6416C23.0101 34.5433 23.7891 35.6667 25.3841 35.6667C26.9792 35.6667 27.7572 34.5433 28.3844 33.6416C28.9674 32.8083 29.3258 32.3333 30.013 32.3333C30.7008 32.3333 31.0635 32.8057 31.6432 33.6416C32.2699 34.5433 33.0492 35.6667 34.6432 35.6667C36.2376 35.6667 37.015 34.5433 37.6432 33.6416C38.2266 32.8083 38.585 32.3333 39.2718 32.3333C39.9583 32.3333 40.3223 32.8057 40.9036 33.6416C41.5299 34.5439 42.3102 35.6667 43.903 35.6667C45.4967 35.6667 46.2773 34.5439 46.9033 33.6423C47.4867 32.8089 47.847 32.3333 48.5365 32.3333C49.2266 32.3333 49.5885 32.8057 50.1689 33.6416C50.7917 34.5439 51.5723 35.6667 53.1667 35.6667C53.627 35.6667 54 35.2936 54 34.8333C54 34.373 53.627 34 53.1667 34C52.4772 34 52.1149 33.5277 51.5342 32.6917C50.9076 31.7894 50.1276 30.6667 48.5342 30.6667C46.9408 30.6667 46.1598 31.7894 45.5339 32.6917C44.9508 33.5251 44.5908 34 43.9017 34C43.2126 34 42.8509 33.5277 42.2708 32.6917C41.6439 31.79 40.8639 30.6667 39.2708 30.6667C37.6777 30.6667 36.9001 31.7894 36.2708 32.6917C35.6875 33.5251 35.3294 34 34.6416 34C33.9541 34 33.5905 33.5277 33.0107 32.6917C32.3841 31.7894 31.6042 30.6667 30.0107 30.6667C28.4173 30.6667 27.6387 31.7894 27.0107 32.6917C26.4277 33.5251 26.0684 34 25.3809 34C24.6934 34 24.3307 33.5277 23.751 32.6917C23.125 31.7894 22.346 30.6667 20.751 30.6667C19.9382 30.6615 19.1615 31.0003 18.6133 31.6003C18.4329 31.0365 18.2529 30.4717 18.0736 29.9049C18.4714 29.5267 18.8229 29.1016 19.1208 28.64Z" fill="#828282"/>
</svg>
