<svg width="58" height="58" viewBox="0 0 58 58" fill="none" xmlns="http://www.w3.org/2000/svg">
<path d="M18.408 47.0725V47.5692C18.408 47.9888 18.7481 48.3289 19.1676 48.3289H38.8324C39.2519 48.3289 39.5921 47.9888 39.5921 47.5692V47.0725C39.5921 44.4199 38.2318 41.8395 35.7618 39.8068C33.8809 38.2588 31.4795 37.4062 28.9999 37.4062C26.5203 37.4062 24.1189 38.2587 22.2381 39.8067C19.7682 41.8393 18.408 44.4197 18.408 47.0725ZM23.2036 40.9798C24.8132 39.6551 26.8717 38.9256 28.9999 38.9256C31.1281 38.9256 33.1867 39.6552 34.7963 40.9799C36.855 42.6742 37.9815 44.6847 38.0674 46.8096H19.9326C20.0186 44.6845 21.1451 42.6739 23.2036 40.9798Z" fill="#FF4264"/>
<path d="M15.4584 8.18823V11.1642C15.4584 14.5743 16.3778 17.9426 18.1172 20.9051C18.3296 21.2668 18.7952 21.388 19.157 21.1756C19.5188 20.9631 19.6399 20.4976 19.4274 20.1357C17.8249 17.4064 16.9778 14.304 16.9778 11.1642V8.19005L41.0226 8.19015V11.1644C41.0226 15.8658 39.174 20.3233 35.8176 23.7156C35.8176 23.7155 35.8176 23.7157 35.8176 23.7156C35.1366 24.404 34.3927 25.0456 33.6066 25.6226C32.5297 26.4131 31.8868 27.6759 31.8868 29.0009C31.8868 30.3261 32.5276 31.5873 33.6008 32.3747C36.629 34.5964 38.8632 37.6142 40.0618 41.1019C40.1701 41.417 40.4648 41.6149 40.7802 41.6149C40.862 41.6149 40.9454 41.6015 41.0271 41.5735C41.4239 41.4371 41.635 41.0049 41.4986 40.6081C40.199 36.826 37.7786 33.5553 34.4995 31.1497C33.8148 30.6474 33.4061 29.844 33.4061 29.0008C33.4061 28.1577 33.8172 27.3528 34.5055 26.8474C35.3557 26.2235 36.1605 25.5292 36.8975 24.7843C40.5373 21.1055 42.5419 16.2686 42.5419 11.1644V8.18823C43.9036 8.14974 45 7.01719 45 5.62969C45 4.21789 43.8653 3.06934 42.4705 3.06934H15.5297C14.1294 3.06934 13 4.21667 13.0002 5.6299C13.0003 7.01739 14.0967 8.14974 15.4584 8.18823ZM15.5297 4.58872H42.4705C43.0275 4.58872 43.4807 5.05567 43.4807 5.62959C43.4807 6.20361 43.0275 6.67057 42.4705 6.67057H15.5297C14.9727 6.67057 14.5196 6.20361 14.5195 5.62979C14.5196 5.04534 14.9808 4.58872 15.5297 4.58872Z" fill="#828282"/>
<path d="M42.5417 49.8116C42.5417 46.681 42.5852 45.8194 42.3573 44.1912C42.2992 43.7757 41.916 43.4866 41.4997 43.5442C41.0842 43.6023 40.7945 43.9863 40.8526 44.4019C41.061 45.8902 41.0223 46.6264 41.0223 49.8098H28.9999L16.9776 49.8097C16.9776 46.5174 16.7707 43.8157 18.3369 40.0501L18.3376 40.0483C19.602 37.0092 21.6979 34.3557 24.3988 32.3743C25.4723 31.5867 26.1133 30.3254 26.1133 29.0002C26.1133 27.6752 25.4706 26.4123 24.3941 25.6223C23.3015 24.8203 22.2993 23.9011 21.4149 22.8899C21.1386 22.5742 20.6587 22.542 20.3429 22.8182C20.0271 23.0944 19.995 23.5743 20.2712 23.8902C21.2285 24.9848 22.3132 25.9796 23.4951 26.847C24.1832 27.352 24.5939 28.1569 24.5939 29.0001C24.5939 29.8432 24.185 30.6467 23.5002 31.1491C20.5759 33.2943 18.3056 36.1696 16.9348 39.4645L16.934 39.4666C15.2535 43.5072 15.4582 46.387 15.4582 49.8114C14.8069 49.8296 14.1978 50.0948 13.7364 50.5643C13.2617 51.0475 13.0001 51.6887 13.0002 52.3702C13.0003 53.782 14.1351 54.9305 15.5297 54.9305H42.4705C43.8653 54.9305 45.0001 53.7819 45.0001 52.3702C45 50.9826 43.9036 49.85 42.5417 49.8116ZM42.4705 53.4111H15.5297C14.9727 53.4111 14.5196 52.9443 14.5195 52.3703C14.5195 51.7871 14.9794 51.3293 15.5297 51.3293H28.9999H42.4705C43.0275 51.3293 43.4807 51.7962 43.4807 52.3702C43.4806 52.9442 43.0275 53.4111 42.4705 53.4111Z" fill="#828282"/>
<path d="M29.7596 26.6196C29.7596 26.1999 29.4195 25.8599 28.9999 25.8599C28.5804 25.8599 28.2402 26.1999 28.2402 26.6196V27.6325C28.2402 28.0521 28.5804 28.3922 28.9999 28.3922C29.4195 28.3922 29.7596 28.0521 29.7596 27.6325V26.6196Z" fill="#FF4264"/>
<path d="M28.9999 36.293C29.4195 36.293 29.7596 35.953 29.7596 35.5334V34.5204C29.7596 34.1008 29.4195 33.7607 28.9999 33.7607C28.5804 33.7607 28.2402 34.1008 28.2402 34.5204V35.5334C28.2402 35.953 28.5804 36.293 28.9999 36.293Z" fill="#FF4264"/>
<path d="M28.9999 29.8105C28.5804 29.8105 28.2402 30.1506 28.2402 30.5702V31.5832C28.2402 32.0028 28.5804 32.3428 28.9999 32.3428C29.4195 32.3428 29.7596 32.0028 29.7596 31.5832V30.5702C29.7596 30.1506 29.4195 29.8105 28.9999 29.8105Z" fill="#FF4264"/>
<path d="M39.4126 13.5731C39.4815 13.1144 39.1258 12.7007 38.6613 12.7007H19.339C18.875 12.7007 18.5187 13.1138 18.5877 13.5731C19.0993 16.9803 20.667 20.1015 23.1213 22.5995C24.662 24.1674 26.8048 25.0668 29.0003 25.0668C31.1956 25.0668 33.3384 24.1675 34.8791 22.5996C37.3334 20.1017 38.9011 16.9805 39.4126 13.5731ZM29.0002 23.5475C27.2097 23.5475 25.4619 22.8139 24.205 21.5348C22.1884 19.4822 20.8314 16.9682 20.248 14.2201H37.7521C37.1689 16.9684 35.8119 19.4824 33.7953 21.5348C32.5384 22.814 30.7906 23.5475 29.0002 23.5475Z" fill="#FF4264"/>
</svg>
