<svg width="20" height="20" viewBox="0 0 20 20" fill="none" xmlns="http://www.w3.org/2000/svg">
<g clip-path="url(#clip0)">
<path d="M10.1968 20.0009C10.1306 20.0009 10.0644 20.0009 9.99771 20.0006C8.43002 20.0044 6.98151 19.9646 5.57281 19.8789C4.28131 19.8003 3.10242 19.3539 2.16339 18.5883C1.25732 17.8494 0.63858 16.8504 0.324402 15.6194C0.0509644 14.5476 0.0364685 13.4955 0.022583 12.4779C0.0125122 11.7477 0.00213623 10.8826 0 10.0028C0.00213623 9.11927 0.0125122 8.25409 0.022583 7.52396C0.0364685 6.50651 0.0509644 5.45441 0.324402 4.38248C0.63858 3.1514 1.25732 2.15241 2.16339 1.41358C3.10242 0.647893 4.28131 0.201574 5.57297 0.122991C6.98166 0.037389 8.43048 -0.00258907 10.0015 0.00122563C11.5697 -0.0021313 13.0177 0.037389 14.4264 0.122991C15.7179 0.201574 16.8968 0.647893 17.8358 1.41358C18.7421 2.15241 19.3607 3.1514 19.6748 4.38248C19.9483 5.45426 19.9628 6.50651 19.9767 7.52396C19.9867 8.25409 19.9973 9.11927 19.9992 9.99909V10.0028C19.9973 10.8826 19.9867 11.7477 19.9767 12.4779C19.9628 13.4953 19.9484 14.5474 19.6748 15.6194C19.3607 16.8504 18.7421 17.8494 17.8358 18.5883C16.8968 19.3539 15.7179 19.8003 14.4264 19.8789C13.0774 19.9609 11.6916 20.0009 10.1968 20.0009ZM9.99771 18.4381C11.5399 18.4418 12.9559 18.4029 14.3315 18.3193C15.3081 18.2599 16.1548 17.943 16.8484 17.3773C17.4896 16.8544 17.9312 16.133 18.1609 15.233C18.3885 14.3408 18.4016 13.3829 18.4143 12.4565C18.4242 11.7313 18.4346 10.8722 18.4367 10.0009C18.4346 9.12949 18.4242 8.27057 18.4143 7.54532C18.4016 6.61896 18.3885 5.66102 18.1609 4.76868C17.9312 3.86872 17.4896 3.14728 16.8484 2.62436C16.1548 2.05887 15.3081 1.74195 14.3315 1.68259C12.9559 1.59882 11.5399 1.56022 10.0014 1.56357C8.45947 1.55991 7.0433 1.59882 5.66772 1.68259C4.69116 1.74195 3.84445 2.05887 3.15079 2.62436C2.50961 3.14728 2.06802 3.86872 1.83838 4.76868C1.61072 5.66102 1.5976 6.61881 1.58493 7.54532C1.57501 8.27118 1.56464 9.13071 1.5625 10.0028C1.56464 10.871 1.57501 11.7307 1.58493 12.4565C1.5976 13.3829 1.61072 14.3408 1.83838 15.233C2.06802 16.133 2.50961 16.8544 3.15079 17.3773C3.84445 17.9428 4.69116 18.2597 5.66772 18.3191C7.0433 18.4029 8.45978 18.4419 9.99771 18.4381ZM9.96048 14.8837C7.26822 14.8837 5.07767 12.6933 5.07767 10.0009C5.07767 7.30851 7.26822 5.11811 9.96048 5.11811C12.6529 5.11811 14.8433 7.30851 14.8433 10.0009C14.8433 12.6933 12.6529 14.8837 9.96048 14.8837ZM9.96048 6.68061C8.12973 6.68061 6.64017 8.17017 6.64017 10.0009C6.64017 11.8317 8.12973 13.3212 9.96048 13.3212C11.7914 13.3212 13.2808 11.8317 13.2808 10.0009C13.2808 8.17017 11.7914 6.68061 9.96048 6.68061ZM15.3902 3.55561C14.743 3.55561 14.2183 4.0802 14.2183 4.72748C14.2183 5.37476 14.743 5.89936 15.3902 5.89936C16.0374 5.89936 16.562 5.37476 16.562 4.72748C16.562 4.0802 16.0374 3.55561 15.3902 3.55561Z" fill="white"/>
</g>
<defs>
<clipPath id="clip0">
<rect width="20" height="20" fill="white"/>
</clipPath>
</defs>
</svg>
