<svg width="30" height="30" viewBox="0 0 30 30" fill="none" xmlns="http://www.w3.org/2000/svg">
<path d="M24.1528 3.80219C21.701 1.35017 18.441 0 14.9737 0C11.5061 0 8.24615 1.3504 5.79437 3.80219C3.34259 6.25397 1.99219 9.51393 1.99219 12.9813C1.99219 16.4488 3.34259 19.7088 5.79437 22.1606L12.691 29.0575C13.299 29.6651 14.1094 30 14.9734 30C15.8372 30 16.6477 29.6651 17.2556 29.0575L24.1528 22.1606C26.6048 19.7088 27.9549 16.4488 27.9549 12.9813C27.9549 9.51393 26.6045 6.25397 24.1528 3.80219ZM22.9099 20.9175L16.0126 27.8146C15.737 28.0902 15.3678 28.2422 14.9734 28.2422C14.5791 28.2422 14.2099 28.0902 13.9341 27.8146L7.03743 20.9175C4.91753 18.7978 3.75 15.9792 3.75 12.9813C3.75 9.98337 4.91753 7.16492 7.03743 5.04501C9.15733 2.92534 11.9756 1.75781 14.9737 1.75781C17.9716 1.75781 20.79 2.92534 22.9099 5.04501C27.2859 9.42123 27.2859 16.5417 22.9099 20.9175Z" fill="#FF4264"/>
<path d="M14.967 8.33679C12.4058 8.33679 10.3223 10.4203 10.3223 12.9815C10.3223 15.5424 12.4058 17.626 14.967 17.626C17.5279 17.626 19.6114 15.5424 19.6114 12.9815C19.6114 10.4203 17.5279 8.33679 14.967 8.33679ZM14.967 15.8681C13.3751 15.8681 12.0801 14.5731 12.0801 12.9813C12.0801 11.3896 13.3751 10.0946 14.967 10.0946C16.5586 10.0946 17.8536 11.3896 17.8536 12.9813C17.8536 14.5731 16.5586 15.8681 14.967 15.8681Z" fill="#FF4264"/>
</svg>
