<svg width="14" height="14" viewBox="0 0 14 14" fill="none" xmlns="http://www.w3.org/2000/svg">
<path d="M11.2713 1.77435C10.1271 0.630081 8.6058 0 6.98772 0C5.36952 0 3.84821 0.630188 2.70404 1.77435C1.55988 2.91852 0.929688 4.43983 0.929688 6.05792C0.929688 7.67612 1.55988 9.19743 2.70404 10.3416L5.92249 13.5602C6.20618 13.8437 6.5844 14 6.98761 14C7.39072 14 7.76894 13.8437 8.05263 13.5602L11.2713 10.3416C12.4156 9.19743 13.0456 7.67612 13.0456 6.05792C13.0456 4.43983 12.4155 2.91852 11.2713 1.77435ZM10.6913 9.76151L7.47253 12.9802C7.34393 13.1088 7.17165 13.1797 6.98761 13.1797C6.80357 13.1797 6.63129 13.1088 6.50258 12.9802L3.28413 9.76151C2.29485 8.77232 1.75 7.45694 1.75 6.05792C1.75 4.65891 2.29485 3.34363 3.28413 2.35434C4.27342 1.36516 5.58859 0.820312 6.98772 0.820312C8.38673 0.820312 9.70201 1.36516 10.6913 2.35434C12.7334 4.39658 12.7334 7.71948 10.6913 9.76151Z" fill="#828282"/>
<path d="M6.98784 3.89038C5.79262 3.89038 4.82031 4.86269 4.82031 6.05791C4.82031 7.25302 5.79262 8.22533 6.98784 8.22533C8.18295 8.22533 9.15526 7.25302 9.15526 6.05791C9.15526 4.86269 8.18295 3.89038 6.98784 3.89038ZM6.98784 7.40501C6.24496 7.40501 5.64062 6.80067 5.64062 6.0578C5.64062 5.31503 6.24496 4.71069 6.98784 4.71069C7.73061 4.71069 8.33495 5.31503 8.33495 6.0578C8.33495 6.80067 7.73061 7.40501 6.98784 7.40501Z" fill="#828282"/>
</svg>
