<svg width="14" height="14" viewBox="0 0 14 14" fill="none" xmlns="http://www.w3.org/2000/svg">
<path d="M11.4294 8.21833C11.3793 8.21833 11.3311 8.1984 11.2956 8.16292C11.2602 8.12744 11.2402 8.07932 11.2402 8.02915V7.46726C11.2402 7.41709 11.2602 7.36897 11.2956 7.33349C11.3311 7.29801 11.3793 7.27808 11.4294 7.27808C11.4796 7.27808 11.5277 7.29801 11.5632 7.33349C11.5987 7.36897 11.6186 7.41709 11.6186 7.46726V8.02915C11.6186 8.07932 11.5987 8.12744 11.5632 8.16292C11.5277 8.1984 11.4796 8.21833 11.4294 8.21833Z" fill="#828282"/>
<path d="M5.38841 13.6216C5.33823 13.6216 5.29011 13.6017 5.25463 13.5662C5.21915 13.5307 5.19922 13.4826 5.19922 13.4324V0.567579C5.19909 0.541059 5.20453 0.514807 5.2152 0.490527C5.22587 0.466247 5.24152 0.444481 5.26115 0.426642C5.28077 0.408802 5.30392 0.395288 5.32911 0.386975C5.35429 0.378663 5.38094 0.375738 5.40733 0.37839L11.4482 0.989471C11.495 0.994177 11.5384 1.01617 11.5699 1.05115C11.6013 1.08613 11.6187 1.1316 11.6184 1.17866V4.26812C11.6184 4.3183 11.5985 4.36642 11.563 4.4019C11.5275 4.43738 11.4794 4.45731 11.4292 4.45731C11.3791 4.45731 11.3309 4.43738 11.2955 4.4019C11.26 4.36642 11.24 4.3183 11.24 4.26812V1.34969L5.5776 0.776822V13.2158L11.24 12.4487V9.35353C11.24 9.30335 11.26 9.25523 11.2955 9.21975C11.3309 9.18427 11.3791 9.16434 11.4292 9.16434C11.4794 9.16434 11.5275 9.18427 11.563 9.21975C11.5985 9.25523 11.6184 9.30335 11.6184 9.35353V12.6133C11.6184 12.659 11.6019 12.7032 11.5718 12.7377C11.5417 12.7722 11.5001 12.7946 11.4548 12.8007L5.41395 13.6199C5.40548 13.6211 5.39695 13.6216 5.38841 13.6216Z" fill="#828282"/>
<path d="M11.4294 6.33224C11.3793 6.33224 11.3311 6.3123 11.2956 6.27682C11.2602 6.24134 11.2402 6.19322 11.2402 6.14305V5.59251C11.2402 5.54233 11.2602 5.49421 11.2956 5.45873C11.3311 5.42325 11.3793 5.40332 11.4294 5.40332C11.4796 5.40332 11.5277 5.42325 11.5632 5.45873C11.5987 5.49421 11.6186 5.54233 11.6186 5.59251V6.14305C11.6186 6.19322 11.5987 6.24134 11.5632 6.27682C11.5277 6.3123 11.4796 6.33224 11.4294 6.33224Z" fill="#828282"/>
<path d="M2.5847 12.9226C2.53452 12.9226 2.4864 12.9027 2.45092 12.8672C2.41544 12.8317 2.39551 12.7836 2.39551 12.7334V1.17283C2.39551 1.12266 2.41544 1.07453 2.45092 1.03905C2.4864 1.00357 2.53452 0.983643 2.5847 0.983643H5.38848C5.43866 0.983643 5.48678 1.00357 5.52226 1.03905C5.55774 1.07453 5.57767 1.12266 5.57767 1.17283C5.57767 1.22301 5.55774 1.27113 5.52226 1.30661C5.48678 1.34209 5.43866 1.36202 5.38848 1.36202H2.77389V12.7334C2.77389 12.7836 2.75395 12.8317 2.71847 12.8672C2.68299 12.9027 2.63487 12.9226 2.5847 12.9226Z" fill="#828282"/>
<path d="M3.65306 12.9228C3.60288 12.9228 3.55476 12.9029 3.51928 12.8674C3.4838 12.8319 3.46387 12.7838 3.46387 12.7336V2.27806C3.46387 2.22788 3.4838 2.17976 3.51928 2.14428C3.55476 2.1088 3.60288 2.08887 3.65306 2.08887H5.38698C5.43715 2.08887 5.48527 2.1088 5.52075 2.14428C5.55623 2.17976 5.57616 2.22788 5.57616 2.27806C5.57616 2.32823 5.55623 2.37635 5.52075 2.41183C5.48527 2.44731 5.43715 2.46725 5.38698 2.46725H3.84225V12.7336C3.84225 12.7838 3.82231 12.8319 3.78683 12.8674C3.75135 12.9029 3.70323 12.9228 3.65306 12.9228Z" fill="#828282"/>
<path d="M5.38664 12.9228H0.576884C0.526708 12.9228 0.478587 12.9029 0.443108 12.8674C0.407628 12.8319 0.387695 12.7838 0.387695 12.7336C0.387695 12.6834 0.407628 12.6353 0.443108 12.5998C0.478587 12.5644 0.526708 12.5444 0.576884 12.5444H5.38664C5.43682 12.5444 5.48494 12.5644 5.52042 12.5998C5.5559 12.6353 5.57583 12.6834 5.57583 12.7336C5.57583 12.7838 5.5559 12.8319 5.52042 12.8674C5.48494 12.9029 5.43682 12.9228 5.38664 12.9228Z" fill="#828282"/>
<path d="M13.4232 12.9228H10.5271C10.4769 12.9228 10.4288 12.9029 10.3933 12.8674C10.3578 12.8319 10.3379 12.7838 10.3379 12.7336C10.3379 12.6834 10.3578 12.6353 10.3933 12.5998C10.4288 12.5644 10.4769 12.5444 10.5271 12.5444H13.4232C13.4734 12.5444 13.5215 12.5644 13.557 12.5998C13.5924 12.6353 13.6124 12.6834 13.6124 12.7336C13.6124 12.7838 13.5924 12.8319 13.557 12.8674C13.5215 12.9029 13.4734 12.9228 13.4232 12.9228Z" fill="#828282"/>
<path d="M6.70131 7.68363C6.56608 7.68363 6.43389 7.64353 6.32145 7.5684C6.20901 7.49327 6.12137 7.38649 6.06962 7.26155C6.01787 7.13661 6.00433 6.99914 6.03072 6.86651C6.0571 6.73388 6.12222 6.61205 6.21784 6.51642C6.31346 6.4208 6.43529 6.35568 6.56792 6.3293C6.70055 6.30292 6.83803 6.31646 6.96296 6.36821C7.0879 6.41996 7.19469 6.50759 7.26981 6.62003C7.34494 6.73247 7.38505 6.86467 7.38505 6.9999C7.38484 7.18117 7.31274 7.35497 7.18456 7.48315C7.05638 7.61133 6.88259 7.68343 6.70131 7.68363ZM6.70131 6.69454C6.64092 6.69454 6.58188 6.71245 6.53167 6.746C6.48145 6.77956 6.44231 6.82725 6.4192 6.88304C6.39609 6.93884 6.39004 7.00023 6.40183 7.05947C6.41361 7.1187 6.44269 7.17311 6.48539 7.21581C6.5281 7.25852 6.58251 7.2876 6.64174 7.29938C6.70097 7.31116 6.76237 7.30512 6.81817 7.28201C6.87396 7.25889 6.92165 7.21976 6.9552 7.16954C6.98876 7.11933 7.00666 7.06029 7.00666 6.9999C7.00656 6.91894 6.97436 6.84133 6.91712 6.78409C6.85987 6.72685 6.78227 6.69464 6.70131 6.69454Z" fill="#828282"/>
</svg>
