<svg width="40" height="40" viewBox="0 0 40 40" fill="none" xmlns="http://www.w3.org/2000/svg">
<path d="M6.84854 35.0703H3.71729C3.39369 35.0703 3.13135 35.3327 3.13135 35.6562C3.13135 35.9798 3.39369 36.2422 3.71729 36.2422H6.84861C7.17221 36.2422 7.43455 35.9798 7.43455 35.6562C7.43455 35.3327 7.17213 35.0703 6.84854 35.0703Z" fill="#FF4264"/>
<path d="M8.72729 32.5654H3.71729C3.39369 32.5654 3.13135 32.8278 3.13135 33.1514C3.13135 33.475 3.39369 33.7373 3.71729 33.7373H8.72736C9.05096 33.7373 9.3133 33.475 9.3133 33.1514C9.3133 32.8278 9.05096 32.5654 8.72729 32.5654Z" fill="#FF4264"/>
<path d="M38.7878 19.4141H30.293V1.21219C30.293 0.54375 29.7492 0 29.0808 0H10.9192C10.2508 0 9.70703 0.54375 9.70703 1.21219V19.4141H1.21219C0.54375 19.4141 0 19.9578 0 20.6262V38.7878C0 39.4562 0.54375 40 1.21219 40H38.7878C39.4562 40 40 39.4562 40 38.7878V20.6262C40 19.9578 39.4562 19.4141 38.7878 19.4141ZM30.6867 20.5859V25.6766H28.7273V20.5859H30.6867ZM20.9797 1.17188V6.26258H19.0202V1.17188H20.9797ZM9.3132 20.5859H11.2727V25.6766H9.3132V20.5859ZM38.7878 38.8281H20.5859V20.5859H24.3838C24.7074 20.5859 24.9698 20.3236 24.9698 20C24.9698 19.6764 24.7074 19.4141 24.3838 19.4141H15.6162C15.2926 19.4141 15.0302 19.6764 15.0302 20C15.0302 20.3236 15.2926 20.5859 15.6162 20.5859H19.4141V38.8281H1.21219C1.18992 38.8281 1.17188 38.8101 1.17188 38.7878V20.6262C1.17188 20.604 1.18992 20.5859 1.21219 20.5859H8.14133V26.2626C8.14133 26.5862 8.40367 26.8485 8.72727 26.8485H11.8586C12.1822 26.8485 12.4445 26.5862 12.4445 26.2626V20.5859H13.1108C13.4344 20.5859 13.6967 20.3236 13.6967 20C13.6967 19.6764 13.4344 19.4141 13.1108 19.4141H10.8789V1.21219C10.8789 1.18992 10.897 1.17188 10.9192 1.17188H17.8484V6.84852C17.8484 7.17211 18.1107 7.43445 18.4343 7.43445H21.5656C21.8892 7.43445 22.1516 7.17211 22.1516 6.84852V1.17188H29.0807C29.103 1.17188 29.121 1.18992 29.121 1.21219V19.4141H26.8891C26.5655 19.4141 26.3031 19.6764 26.3031 20C26.3031 20.3236 26.5655 20.5859 26.8891 20.5859H27.5553V26.2626C27.5553 26.5862 27.8177 26.8485 28.1413 26.8485H31.2726C31.5962 26.8485 31.8585 26.5862 31.8585 26.2626V20.5859H38.7877C38.8099 20.5859 38.828 20.604 38.828 20.6262V38.7878H38.8281C38.8281 38.8101 38.8101 38.8281 38.7878 38.8281Z" fill="#828282"/>
<path d="M26.2627 35.0703H23.1313C22.8078 35.0703 22.5454 35.3327 22.5454 35.6562C22.5454 35.9798 22.8078 36.2422 23.1313 36.2422H26.2627C26.5863 36.2422 26.8486 35.9798 26.8486 35.6562C26.8486 35.3327 26.5863 35.0703 26.2627 35.0703Z" fill="#FF4264"/>
<path d="M28.1414 32.5654H23.1313C22.8078 32.5654 22.5454 32.8278 22.5454 33.1514C22.5454 33.475 22.8078 33.7373 23.1313 33.7373H28.1414C28.465 33.7373 28.7274 33.475 28.7274 33.1514C28.7274 32.8278 28.4651 32.5654 28.1414 32.5654Z" fill="#FF4264"/>
<path d="M16.5556 15.6562H13.4243C13.1007 15.6562 12.8384 15.9186 12.8384 16.2422C12.8384 16.5658 13.1007 16.8281 13.4243 16.8281H16.5556C16.8792 16.8281 17.1416 16.5658 17.1416 16.2422C17.1416 15.9186 16.8792 15.6562 16.5556 15.6562Z" fill="#FF4264"/>
<path d="M18.4344 13.1514H13.4243C13.1007 13.1514 12.8384 13.4137 12.8384 13.7373C12.8384 14.0609 13.1007 14.3232 13.4243 14.3232H18.4344C18.758 14.3232 19.0203 14.0609 19.0203 13.7373C19.0203 13.4137 18.7581 13.1514 18.4344 13.1514Z" fill="#FF4264"/>
</svg>
