<svg width="58" height="58" viewBox="0 0 58 58" fill="none" xmlns="http://www.w3.org/2000/svg">
<path d="M14.1581 16.4956H20.5497C22.2443 16.4956 23.623 15.117 23.623 13.4223V10.894C23.623 9.19892 22.2443 7.81982 20.5497 7.81982H17.9257C17.5211 7.81982 17.1932 8.14775 17.1932 8.55224C17.1932 8.95673 17.5211 9.28466 17.9257 9.28466H20.5497C21.4366 9.28466 22.1582 10.0066 22.1582 10.894V13.4223C22.1582 14.3093 21.4366 15.0307 20.5497 15.0307H14.1581C13.2707 15.0307 12.5488 14.3093 12.5488 13.4223V10.894C12.5488 10.0066 13.2708 9.28466 14.1581 9.28466H14.996C15.4006 9.28466 15.7284 8.95673 15.7284 8.55224C15.7284 8.14775 15.4006 7.81982 14.996 7.81982H14.1581C12.4631 7.81982 11.084 9.19892 11.084 10.894V13.4223C11.0839 15.117 12.463 16.4956 14.1581 16.4956Z" fill="#FF4264"/>
<path d="M38.7376 27.878C39.3367 28.4771 40.1237 28.7767 40.9108 28.7767C41.6979 28.7767 42.4849 28.4771 43.084 27.878H43.0841L44.8721 26.0899C45.4527 25.5094 45.7724 24.7375 45.7724 23.9167C45.7724 23.0957 45.4528 22.3239 44.8722 21.7434L40.3522 17.2234C39.154 16.0251 37.2041 16.0252 36.0057 17.2234L34.2177 19.0115C33.6371 19.592 33.3174 20.3638 33.3174 21.1847C33.3174 22.0056 33.637 22.7775 34.2176 23.358L38.7376 27.878ZM35.2534 20.0473L37.0414 18.2593C37.3551 17.9456 37.767 17.7888 38.1789 17.7888C38.5908 17.7888 39.0028 17.9457 39.3163 18.2593L43.8363 22.7793C44.1401 23.0831 44.3074 23.4871 44.3074 23.9168C44.3074 24.3463 44.1401 24.7503 43.8362 25.0541L42.0482 26.8422C41.421 27.4694 40.4005 27.4694 39.7732 26.8422L35.2532 22.3222C34.9494 22.0184 34.7821 21.6144 34.7821 21.1848C34.7822 20.7551 34.9495 20.3511 35.2534 20.0473Z" fill="#FF4264"/>
<path d="M45.4756 33.8201L42.5457 33.82L48.729 27.6366C50.7796 25.5859 50.7796 22.2485 48.7289 20.1966L41.8989 13.3675C39.8475 11.3162 36.5101 11.3163 34.4588 13.3675L27.4435 20.3828V9.26074C27.4436 6.35996 25.0841 4 22.1838 4H12.5245C9.62383 4 7.26387 6.35996 7.26387 9.26074L7.26367 48.7392C7.26367 51.6399 9.62363 53.9999 12.5244 53.9999H39.6484C40.053 53.9999 40.3809 53.672 40.3809 53.2675C40.3809 52.863 40.053 52.535 39.6484 52.535H12.5244C10.4313 52.535 8.72852 50.8322 8.72852 48.7392L8.72871 39.0725C8.73281 36.9828 10.4339 35.2841 12.5244 35.2841L45.4756 35.2851C47.5686 35.2851 49.2715 36.9875 49.2715 39.08V48.7392C49.2715 50.8322 47.5686 52.535 45.4756 52.535H42.5781C42.1735 52.535 41.8457 52.863 41.8457 53.2675C41.8457 53.672 42.1735 53.9999 42.5781 53.9999H45.4756C48.3764 53.9999 50.7363 51.6399 50.7363 48.7392V39.08C50.7363 36.1797 48.3764 33.8201 45.4756 33.8201ZM35.4946 14.4034C36.9749 12.9233 39.383 12.9233 40.8632 14.4034L47.6931 21.2324C49.1727 22.713 49.1727 25.1213 47.6932 26.601L40.4741 33.82L37.1424 33.8199L37.6123 33.3503C38.1927 32.7699 38.5124 31.998 38.5124 31.1771C38.5124 30.3561 38.1928 29.5844 37.6122 29.004L33.0919 24.4846C32.5115 23.9035 31.7395 23.5835 30.9185 23.5835C30.0975 23.5835 29.3255 23.9035 28.7453 24.4843L27.0434 26.1863C26.4629 26.7667 26.1432 27.5385 26.1432 28.3595C26.1432 29.1804 26.4628 29.9521 27.0433 30.5325L30.3303 33.8196L28.078 33.8195L25.9176 31.6582C25.3372 31.0777 24.5653 30.7581 23.7444 30.7581C22.9234 30.7581 22.1517 31.0777 21.5714 31.6581L19.781 33.4477C19.6652 33.564 19.5599 33.6883 19.465 33.8193L16.0788 33.8192L35.4946 14.4034ZM32.402 33.8197L28.0791 29.4968C27.7754 29.1931 27.6081 28.7891 27.6081 28.3595C27.6081 27.9298 27.7754 27.5259 28.0792 27.2222L29.7813 25.5199C30.0851 25.2159 30.489 25.0484 30.9185 25.0484C31.3479 25.0484 31.7518 25.2159 32.0559 25.5202L36.5765 30.0398C36.8802 30.3435 37.0475 30.7476 37.0475 31.1771C37.0475 31.6067 36.8802 32.0107 36.5766 32.3143L35.0702 33.8198L32.402 33.8197ZM26.0067 33.8195L21.4812 33.8194L22.6071 32.6941C22.9108 32.3904 23.3147 32.223 23.7444 32.223C24.174 32.223 24.5779 32.3903 24.8816 32.694L26.0067 33.8195ZM14.0072 33.8192H12.5492V31.3081C12.5492 30.4211 13.2708 29.6995 14.1578 29.6995H18.127L14.0072 33.8192ZM20.5501 25.1776H14.1578C13.2709 25.1776 12.5492 24.4561 12.5492 23.569V21.1617C12.5492 20.2747 13.2709 19.5531 14.1578 19.5531H20.5501C21.437 19.5531 22.1587 20.2747 22.1587 21.1617V23.569C22.1586 24.4561 21.437 25.1776 20.5501 25.1776ZM8.72871 35.4431V9.26074C8.72871 7.16767 10.4315 5.46484 12.5245 5.46484H22.1838C24.2763 5.46484 25.9786 7.16767 25.9786 9.26074V21.8477L23.5374 24.289C23.5931 24.0579 23.6233 23.817 23.6233 23.569V21.1617C23.6233 19.467 22.2446 18.0883 20.5499 18.0883H14.1576C12.4629 18.0883 11.0842 19.467 11.0842 21.1617V23.569C11.0842 25.2638 12.4629 26.6425 14.1576 26.6425H20.5499C20.7978 26.6425 21.0387 26.6122 21.2697 26.5565L19.5917 28.2346H14.1576C12.4629 28.2346 11.0842 29.6133 11.0842 31.308V33.8362C11.0842 33.8976 11.0881 33.9583 11.0916 34.019C10.1795 34.2777 9.36768 34.7765 8.72871 35.4431Z" fill="#828282"/>
<path d="M31.1673 37.6401C29.4726 37.6401 28.0938 39.0188 28.0938 40.7136V47.1058C28.0938 48.8005 29.4725 50.1792 31.1673 50.1792H33.5746C35.2693 50.1792 36.6481 48.8005 36.6481 47.1058V40.7136C36.6481 39.0188 35.2694 37.6401 33.5746 37.6401H31.1673ZM35.1833 40.7137V47.1059C35.1833 47.9929 34.4616 48.7145 33.5746 48.7145H31.1673C30.2803 48.7145 29.5586 47.9929 29.5586 47.1059V40.7137C29.5586 39.8267 30.2803 39.1051 31.1673 39.1051H33.5746C34.4616 39.105 35.1833 39.8267 35.1833 40.7137Z" fill="#FF4264"/>
<path d="M46.9155 47.1058V40.7137C46.9155 39.0189 45.5368 37.6401 43.8421 37.6401H41.3133C39.6186 37.6401 38.2397 39.0189 38.2397 40.7137V47.1058C38.2397 48.8005 39.6185 50.1792 41.3133 50.1792H43.8421C45.5368 50.1792 46.9155 48.8005 46.9155 47.1058ZM39.7047 47.1058V40.7137C39.7047 39.8267 40.4264 39.105 41.3134 39.105H43.8422C44.7291 39.105 45.4508 39.8267 45.4508 40.7137V47.1058C45.4508 47.9928 44.7291 48.7144 43.8422 48.7144H41.3134C40.4264 48.7144 39.7047 47.9928 39.7047 47.1058Z" fill="#FF4264"/>
<path d="M20.8994 37.6401C19.2047 37.6401 17.8259 39.0188 17.8259 40.7136V47.1058C17.8259 48.8005 19.2046 50.1792 20.8994 50.1792H23.4282C25.123 50.1792 26.5017 48.8005 26.5017 47.1058V40.7136C26.5017 39.0188 25.123 37.6401 23.4282 37.6401H20.8994ZM25.0367 40.7137V47.1059C25.0367 47.9929 24.3151 48.7145 23.4281 48.7145H20.8994C20.0124 48.7145 19.2908 47.9929 19.2908 47.1059V40.7137C19.2908 39.8267 20.0124 39.1051 20.8994 39.1051H23.4282C24.3151 39.105 25.0367 39.8267 25.0367 40.7137Z" fill="#FF4264"/>
<path d="M11.3035 43.9094C11.3035 45.2495 12.3937 46.3397 13.7338 46.3397C15.074 46.3397 16.1643 45.2494 16.1643 43.9094C16.1643 42.5693 15.074 41.479 13.7338 41.479C12.3937 41.479 11.3035 42.5692 11.3035 43.9094ZM14.6994 43.9094C14.6994 44.4418 14.2662 44.8749 13.7338 44.8749C13.2015 44.8749 12.7683 44.4417 12.7683 43.9094C12.7683 43.377 13.2015 42.9438 13.7338 42.9438C14.2662 42.9438 14.6994 43.3769 14.6994 43.9094Z" fill="#FF4264"/>
</svg>
