<svg width="44" height="44" viewBox="0 0 44 44" fill="none" xmlns="http://www.w3.org/2000/svg">
<path d="M32.6749 3.33211C31.8158 2.47305 30.6737 2 29.4589 2C28.2439 2 27.1018 2.47313 26.2428 3.33211L3.28553 26.2894C2.7731 26.8018 2.42271 27.4473 2.27201 28.1562L1.01708 34.0633C0.962084 34.322 1.04177 34.591 1.22888 34.778C1.37693 34.9261 1.5763 35.0069 1.7813 35.0069C1.83529 35.0069 1.88974 35.0013 1.94365 34.9898L7.85069 33.7349C8.55952 33.5844 9.20507 33.2339 9.71757 32.7215L32.6749 9.76416C34.4482 7.99087 34.4482 5.10548 32.6749 3.33211ZM24.2882 7.49642L28.5106 11.7187L27.6672 12.562L23.445 8.3397L24.2882 7.49642ZM20.3919 11.3928L21.9506 12.9514L7.40757 27.4944C6.8728 27.505 6.36319 27.302 5.97921 26.918C5.78545 26.7243 5.63639 26.4963 5.53834 26.2462L20.3919 11.3928ZM3.16498 31.4722L4.53483 32.842L2.79545 33.2116L3.16498 31.4722ZM7.52601 32.2065L6.35733 32.4548L3.55209 29.6495L3.80037 28.481C3.88701 28.073 4.0874 27.7012 4.38022 27.4045C4.51998 27.6265 4.6853 27.8339 4.87428 28.0229C5.45069 28.5993 6.18538 28.9491 6.97069 29.0363C7.05788 29.8216 7.40765 30.5562 7.98413 31.1327C8.17312 31.3216 8.38046 31.4869 8.60249 31.6267C8.30585 31.9195 7.93398 32.1198 7.52601 32.2065ZM9.7607 30.4687C9.5107 30.3706 9.28273 30.2216 9.08898 30.0278C8.70484 29.6437 8.50132 29.1333 8.51249 28.5994L23.0555 14.0564L24.6142 15.615L9.7607 30.4687ZM25.7191 14.5102L21.4968 10.2879L22.3401 9.44463L26.5624 13.6669L25.7191 14.5102ZM31.57 8.65931L29.6155 10.6138L25.3932 6.39157L27.3477 4.43696C27.9116 3.87305 28.6614 3.5625 29.4588 3.5625C30.2562 3.5625 31.0061 3.87305 31.5699 4.43696C32.7341 5.6011 32.7341 7.49517 31.57 8.65931Z" fill="#828282"/>
<path d="M40.2189 27.9113C39.7874 27.9113 39.4376 28.2611 39.4376 28.6926V39.9981C39.4376 40.2403 39.2405 40.4374 38.9984 40.4374H8.68364C8.41872 40.4374 8.31161 40.2478 8.27786 40.1663C8.24411 40.0847 8.18575 39.8749 8.3731 39.6876L11.1376 36.9231L12.2526 38.038C12.4051 38.1906 12.6051 38.2668 12.805 38.2668C13.0049 38.2668 13.2049 38.1906 13.3574 38.038C13.6625 37.7329 13.6625 37.2382 13.3574 36.9331L12.2426 35.8181L15.8738 32.1869L16.9887 33.3017C17.1412 33.4543 17.3412 33.5306 17.5411 33.5306C17.741 33.5306 17.941 33.4543 18.0935 33.3017C18.3986 32.9966 18.3986 32.502 18.0935 32.1968L16.9787 31.082L20.6099 27.4507L21.7248 28.5655C21.8773 28.7181 22.0773 28.7944 22.2772 28.7944C22.4772 28.7944 22.677 28.718 22.8296 28.5655C23.1347 28.2605 23.1347 27.7658 22.8296 27.4607L21.7148 26.3458L25.346 22.7146L26.4609 23.8294C26.6135 23.982 26.8134 24.0583 27.0133 24.0583C27.2133 24.0583 27.4131 23.9819 27.5657 23.8294C27.8708 23.5244 27.8708 23.0297 27.5657 22.7246L26.4509 21.6097L30.0821 17.9785L31.197 19.0933C31.3496 19.2459 31.5495 19.3222 31.7494 19.3222C31.9493 19.3222 32.1492 19.2458 32.3018 19.0933C32.6069 18.7883 32.6069 18.2936 32.3018 17.9885L31.1869 16.8736L34.8182 13.2424L35.933 14.3572C36.0856 14.5098 36.2855 14.5861 36.4854 14.5861C36.6854 14.5861 36.8853 14.5097 37.0379 14.3572C37.3429 14.0521 37.3429 13.5575 37.0379 13.2524L35.923 12.1375L38.6875 9.37292C38.8749 9.18557 39.0847 9.24393 39.1662 9.27768C39.2478 9.31143 39.4374 9.41862 39.4374 9.68346V20.0989C39.4374 20.5304 39.7872 20.8801 40.2186 20.8801C40.6501 20.8801 40.9999 20.5304 40.9999 20.0989V9.68339C40.9999 8.87088 40.5148 8.14494 39.7642 7.83401C39.0139 7.52315 38.1573 7.69338 37.5827 8.26791L7.26825 38.5827C6.69372 39.1572 6.52333 40.0135 6.83427 40.7642C7.1452 41.5149 7.87106 41.9999 8.68364 41.9999H38.9984C40.1022 41.9999 41.0001 41.1019 41.0001 39.9981V28.6926C41.0001 28.2611 40.6504 27.9113 40.2189 27.9113Z" fill="#828282"/>
<path d="M40.2197 23.6406H40.2189C39.7874 23.6406 39.438 23.9904 39.438 24.4219C39.438 24.8534 39.7882 25.2032 40.2197 25.2032C40.6512 25.2032 41.0009 24.8534 41.0009 24.4219C41.0009 23.9904 40.6512 23.6406 40.2197 23.6406Z" fill="#FF4264"/>
<path d="M34.1978 19.3871L18.3875 35.1973C18.1641 35.4208 18.0973 35.7568 18.2182 36.0487C18.3391 36.3407 18.6239 36.531 18.9399 36.531L34.7502 36.5311C34.9574 36.5311 35.1561 36.4487 35.3026 36.3023C35.4491 36.1558 35.5315 35.957 35.5315 35.7498V19.9395C35.5315 19.6235 35.3412 19.3386 35.0492 19.2177C34.7573 19.0967 34.4212 19.1637 34.1978 19.3871ZM33.969 34.9686L20.826 34.9685L33.969 21.8257V34.9686Z" fill="#FF4264"/>
</svg>
