<svg width="44" height="44" viewBox="0 0 44 44" fill="none" xmlns="http://www.w3.org/2000/svg">
<path d="M26.3514 34.8055L20.9384 29.6162C19.6584 28.389 17.7077 28.2568 16.3005 29.3027C16.3 29.3029 16.2935 29.3075 16.2932 29.308L16.2693 29.3259C16.2405 29.3476 16.2135 29.3478 16.1953 29.3448C16.1636 29.3388 16.1504 29.3186 16.1459 29.3108C14.8954 27.3255 14.0499 25.1434 13.6319 22.8249C13.2144 20.5058 13.2457 18.1646 13.726 15.8665C13.7275 15.8586 13.732 15.838 13.7567 15.8231C13.7769 15.8112 13.7991 15.8087 13.8236 15.816L13.8609 15.8269C15.5488 16.3208 17.3371 15.5141 18.1118 13.9094L21.6545 6.57364C22.1538 5.53988 21.9399 4.30556 21.123 3.49958C20.8334 3.20645 20.5037 2.93073 20.1427 2.67948C16.9095 0.433843 12.4967 1.11142 10.0964 4.22231C9.94733 4.41706 9.80884 4.62088 9.67539 4.82673L9.67388 4.829C9.19357 5.54013 8.95518 5.98411 8.5952 6.65487L8.51852 6.7974C8.43199 6.95708 6.39069 10.7362 5.88768 13.3968C5.10794 17.5238 5.17706 21.7916 6.08848 25.7382C7.05136 29.9071 8.88203 33.6164 11.529 36.7626C12.2008 37.561 13.4452 36.5159 12.7727 35.7162C10.2924 32.7688 8.57628 29.2883 7.67218 25.3724C6.81121 21.643 6.74613 17.6066 7.48475 13.6985C7.94008 11.2887 9.92639 7.60968 9.94808 7.57008L10.0268 7.42351C10.3409 6.83877 10.6711 6.27572 11.0333 5.71974L11.0389 5.71091C11.1478 5.53861 11.2641 5.37162 11.3875 5.20941C13.259 2.78946 16.6958 2.26451 19.2152 4.01419C19.4957 4.20894 19.7495 4.42135 19.9699 4.64485C19.973 4.64813 19.9762 4.65141 19.9795 4.65469C20.3029 4.97178 20.3879 5.45915 20.1909 5.86681L16.6484 13.2026C16.2201 14.089 15.2395 14.5368 14.3183 14.2676L14.2875 14.2583C13.8299 14.1218 13.3332 14.1831 12.9248 14.4268C12.5194 14.6685 12.2316 15.0718 12.1352 15.534C11.6118 18.0374 11.5774 20.5873 12.0325 23.1132C12.4874 25.6378 13.4084 28.0141 14.7706 30.1768C15.0228 30.5779 15.4348 30.8569 15.9007 30.9429C16.3709 31.0294 16.8608 30.9139 17.2475 30.6235L17.2697 30.6071C18.0381 30.0363 19.108 30.1127 19.8135 30.7893L25.2266 35.9785C25.887 36.612 25.8996 37.6803 25.4667 38.4399C24.7072 39.763 23.1331 40.6499 21.6672 40.8987C20.1745 41.1514 18.667 40.8154 17.4229 39.9512C16.5659 39.3561 15.6376 40.6898 16.4958 41.2859C17.745 42.1534 19.2008 42.6065 20.6927 42.6065C21.1064 42.6065 21.5234 42.5714 21.9386 42.501C23.8848 42.1708 25.8749 40.9928 26.8761 39.2491L26.8948 39.2166C27.6894 37.8322 27.5282 35.9339 26.3514 34.8055Z" fill="#666666"/>
<path d="M29.2933 8.74414C24.4721 8.74414 20.5502 12.6663 20.5502 17.4878C20.5502 17.9091 20.5807 18.3334 20.6415 18.7524L19.192 23.4611C19.0394 23.9563 19.416 24.4848 19.9258 24.5115L24.4191 24.7469C25.8626 25.7188 27.5426 26.2312 29.2933 26.2312C34.1146 26.2312 38.037 22.3088 38.037 17.4878C38.037 12.6663 34.1146 8.74414 29.2933 8.74414ZM29.2933 24.6059C27.802 24.6059 26.3739 24.1495 25.1638 23.286C25.0379 23.1962 24.8888 23.144 24.7347 23.1362L21.0517 22.9429L22.2499 19.0513C22.3907 18.5942 22.1755 17.963 22.1755 17.4878C22.1755 13.5626 25.3684 10.3697 29.2933 10.3697C33.2183 10.3697 36.4114 13.5626 36.4114 17.4878C36.4114 21.4125 33.2183 24.6059 29.2933 24.6059Z" fill="#FF4264"/>
<path d="M26.3426 16.9043C25.9006 16.9043 25.5298 17.2751 25.5298 17.7168C25.5298 18.1588 25.9009 18.5299 26.3426 18.5299C26.7714 18.5299 27.1347 18.18 27.1536 17.7524C27.1735 17.2973 26.7989 16.9043 26.3426 16.9043Z" fill="#FF4264"/>
<path d="M14.3103 37.8564C13.8684 37.8564 13.4976 38.2275 13.4976 38.669C13.4976 39.1107 13.8686 39.4818 14.3103 39.4818C14.7392 39.4818 15.1024 39.1324 15.1214 38.7045C15.1413 38.2502 14.7659 37.8564 14.3103 37.8564Z" fill="#FF4264"/>
<path d="M29.5393 16.9043C29.0966 16.9043 28.7268 17.2741 28.7268 17.7168C28.7268 18.1593 29.0974 18.5299 29.5393 18.5299C29.9687 18.5294 30.3309 18.1805 30.3496 17.7524C30.3695 17.2973 29.9964 16.9043 29.5393 16.9043Z" fill="#FF4264"/>
<path d="M32.7354 16.9043C32.2937 16.9043 31.9229 17.2751 31.9229 17.7168C31.9231 18.1588 32.2942 18.5299 32.7354 18.5299C33.1647 18.5299 33.5275 18.18 33.5464 17.7524C33.5668 17.2973 33.1922 16.9043 32.7354 16.9043Z" fill="#FF4264"/>
</svg>
