<svg width="14" height="14" viewBox="0 0 14 14" fill="none" xmlns="http://www.w3.org/2000/svg">
<g clip-path="url(#clip0)">
<path d="M13.761 1.22765C13.8927 1.22765 13.9995 1.12087 13.9995 0.989186V0.238464C13.9995 0.106777 13.8928 0 13.761 0H2.96991C2.83822 0 2.73145 0.106777 2.73145 0.238464V11.0295C2.73145 11.1612 2.83822 11.268 2.96991 11.268H13.761C13.8927 11.268 13.9994 11.1612 13.9994 11.0295V1.78404C13.9994 1.65235 13.8927 1.54558 13.761 1.54558C13.6293 1.54558 13.5225 1.65235 13.5225 1.78404V5.86963H12.5755C12.4438 5.86963 12.337 5.9764 12.337 6.10809C12.337 6.23978 12.4437 6.34655 12.5755 6.34655H13.5225V10.7911H6.70943V9.63726C6.70943 9.50557 6.60266 9.39879 6.47097 9.39879C6.33928 9.39879 6.23251 9.50557 6.23251 9.63726V10.7911H3.20837V0.476929H6.23253V7.92038C6.23253 8.05206 6.33931 8.15884 6.471 8.15884C6.60268 8.15884 6.70946 8.05206 6.70946 7.92038V6.34655H10.954C11.0857 6.34655 11.1925 6.23978 11.1925 6.10809C11.1925 5.9764 11.0857 5.86963 10.954 5.86963H6.70943V0.476929H13.5226V0.989186C13.5226 1.12087 13.6293 1.22765 13.761 1.22765Z" fill="#828282"/>
<path d="M2.01465 1.37624L1.22778 0.112437C1.18425 0.0425195 1.10769 0 1.02535 0C0.942995 0 0.86646 0.0425195 0.822929 0.112437L0.0360317 1.37624C-0.00974167 1.44976 -0.0120659 1.54232 0.0299887 1.61804C0.0720433 1.69375 0.15186 1.74073 0.238457 1.74073H0.78689V2.7379C0.78689 2.86958 0.893667 2.97636 1.02535 2.97636C1.15704 2.97636 1.26382 2.86958 1.26382 2.7379V1.74073H1.81225C1.89885 1.74073 1.97866 1.69378 2.02072 1.61804C2.06277 1.54229 2.06045 1.44974 2.01465 1.37624ZM0.667835 1.2638L1.02533 0.689635L1.38282 1.2638H0.667835Z" fill="#828282"/>
<path d="M2.02069 9.64992C1.97864 9.5742 1.89882 9.52725 1.81222 9.52725H1.26379V3.37372C1.26379 3.24203 1.15701 3.13525 1.02533 3.13525C0.893639 3.13525 0.786862 3.24203 0.786862 3.37372V9.52723H0.238457C0.15186 9.52723 0.0720433 9.57418 0.0299887 9.64992C-0.0120659 9.72566 -0.00974167 9.81822 0.0360317 9.89172L0.822901 11.1555C0.866432 11.2254 0.942967 11.268 1.02533 11.268C1.10771 11.268 1.18425 11.2254 1.22775 11.1555L2.01462 9.89172C2.06045 9.81816 2.06277 9.72563 2.02069 9.64992ZM1.02535 10.5783L0.667835 10.0042H1.38282L1.02535 10.5783Z" fill="#828282"/>
<path d="M13.887 12.7724L12.6232 11.9855C12.5497 11.9397 12.4572 11.9374 12.3814 11.9794C12.3057 12.0215 12.2588 12.1013 12.2588 12.1879V12.7363H4.47217V12.1879C4.47217 12.1013 4.42522 12.0215 4.34951 11.9794C4.27379 11.9374 4.18126 11.9397 4.10768 11.9855L2.84388 12.7724C2.77396 12.8159 2.73145 12.8924 2.73145 12.9748C2.73145 13.0571 2.77396 13.1337 2.84388 13.1772L4.10768 13.9641C4.14618 13.9881 4.18993 14.0001 4.23371 14.0001C4.27355 14.0001 4.31341 13.9901 4.34948 13.9701C4.42522 13.9281 4.47217 13.8483 4.47217 13.7617V13.2132H12.2588V13.7617C12.2588 13.8483 12.3058 13.9281 12.3814 13.9701C12.4175 13.9902 12.4574 14.0001 12.4972 14.0001C12.541 14.0001 12.5847 13.988 12.6232 13.9641L13.887 13.1772C13.957 13.1337 13.9995 13.0571 13.9995 12.9748C13.9995 12.8924 13.957 12.8159 13.887 12.7724ZM3.99524 13.3323L3.42108 12.9748L3.99524 12.6173V13.3323ZM12.7357 13.3323V12.6173L13.3099 12.9748L12.7357 13.3323Z" fill="#828282"/>
</g>
<defs>
<clipPath id="clip0">
<rect width="14" height="14" fill="white"/>
</clipPath>
</defs>
</svg>
