<svg width="70" height="70" viewBox="0 0 70 70" fill="none" xmlns="http://www.w3.org/2000/svg">
<path d="M6.45275 70H50.5473C54.1096 69.9966 56.9966 67.1346 57 63.6031C57 63.014 56.5185 62.5367 55.9243 62.5367C55.3306 62.5367 54.8491 63.014 54.8491 63.6031C54.8491 65.9584 52.9232 67.8677 50.5473 67.8677H6.45275C4.07684 67.8677 2.15092 65.9584 2.15092 63.6031V59.3385C2.15092 56.9831 4.07684 55.0738 6.45275 55.0738C8.82865 55.0738 10.7546 56.9831 10.7546 59.3385C10.7546 59.9271 11.2361 60.4044 11.8298 60.4044C12.424 60.4044 12.9055 59.9271 12.9055 59.3385V20.9564H16.1321V45.2117C16.1316 45.3484 16.1582 45.4836 16.2094 45.6105L19.5133 53.741C19.8402 54.5487 20.6314 55.0768 21.5092 55.0738H24.7358C25.3295 55.0738 25.811 54.5965 25.811 54.0074C25.811 53.4188 25.3295 52.9415 24.7358 52.9415H23.8299L26.8094 45.6105C26.8606 45.4836 26.8867 45.3484 26.8867 45.2117V11.331C26.8867 8.38658 24.4793 6 21.5092 6C18.5395 6 16.1321 8.38658 16.1321 11.331V18.8241H12.9055V16.6918C12.9055 13.1588 10.0166 10.2944 6.45275 10.2944C2.88889 10.2944 0 13.1588 0 16.6918V63.6031C0.00344622 67.1346 2.89037 69.9966 6.45275 70ZM24.7358 43.0589C24.0687 42.6953 23.3396 42.4572 22.5849 42.3576V24.1546C22.5849 23.566 22.1034 23.0887 21.5092 23.0887C20.9154 23.0887 20.4339 23.566 20.4339 24.1546V42.3576C19.6792 42.4572 18.9496 42.6953 18.283 43.0589V16.6918H24.7358V43.0589ZM21.5092 52.9415L18.4982 45.5412C19.2957 44.7603 20.3896 44.3503 21.5092 44.4118C22.6287 44.3498 23.7226 44.7598 24.5206 45.5412L21.5092 52.9415ZM21.5092 8.16208C23.282 8.15574 24.7254 9.57353 24.7358 11.331V14.559H18.283V11.331C18.2929 9.57353 19.7363 8.15574 21.5092 8.16208ZM6.45275 12.4267C8.82865 12.4267 10.7546 14.3365 10.7546 16.6918V54.5833C8.31172 52.3939 4.59377 52.3939 2.15092 54.5833V16.6918C2.15092 14.3365 4.07684 12.4267 6.45275 12.4267Z" fill="#828282"/>
<path d="M29 20.7213V23.2782C29 24.3107 29.7005 25.1999 30.6742 25.4027L32.6468 25.8133L31.531 27.5539C30.9836 28.4143 31.0924 29.5564 31.7919 30.2884L33.5314 32.0965C34.2347 32.8235 35.3324 32.9365 36.1592 32.3672L37.8334 31.2083L38.2282 33.2589C38.4232 34.271 39.2782 35 40.271 35H42.729C43.7218 35 44.5768 34.271 44.7718 33.2589L45.1666 31.2083L46.8403 32.3682C47.6676 32.9385 48.7663 32.8254 49.4696 32.0974L51.2081 30.2884C51.9076 29.5569 52.0164 28.4153 51.4685 27.5549L50.3541 25.8133L52.3258 25.4027C53.2995 25.1999 54 24.3107 54 23.2782V20.7213C54 19.6888 53.2995 18.8001 52.3258 18.5973L50.3541 18.1867L51.4685 16.4456C52.0164 15.5852 51.9076 14.4431 51.2081 13.7111L49.4686 11.903C48.7653 11.1756 47.6672 11.0625 46.8403 11.6323L45.1666 12.7917L44.7718 10.7406C44.5768 9.72849 43.7218 9 42.729 9H40.271C39.2782 9 38.4232 9.72849 38.2282 10.7406L37.8334 12.7917L36.1592 11.6323C35.3319 11.063 34.2337 11.176 33.5304 11.903L31.7919 13.7121C31.0924 14.4441 30.9836 15.5857 31.531 16.4456L32.6459 18.1867L30.6742 18.5973C29.7005 18.8001 29 19.6888 29 20.7213ZM31.0833 20.7213L33.0564 20.3107C33.7374 20.1694 34.3062 19.6834 34.5723 19.0159C34.8379 18.3479 34.7664 17.5867 34.3811 16.9851L33.2643 15.243L35.0043 13.4349L36.678 14.5963C37.2564 14.997 37.9888 15.0714 38.6306 14.7947C39.2725 14.5185 39.7398 13.9269 39.8761 13.2182L40.271 11.1666H42.729L43.1239 13.2182C43.2602 13.9269 43.7275 14.5185 44.3694 14.7947C45.0112 15.0714 45.7436 14.997 46.322 14.5963L47.9966 13.4349L49.7352 15.244L48.6184 16.9851C48.2336 17.5867 48.1616 18.3479 48.4277 19.0159C48.6938 19.6834 49.2622 20.1694 49.9436 20.3107L51.9167 20.7213V23.2782L49.9436 23.6888C49.2622 23.8306 48.6938 24.3161 48.4277 24.9841C48.1616 25.6516 48.2336 26.4133 48.6184 27.0144L49.7352 28.7565L47.9957 30.5646L46.322 29.4032C45.7436 29.0025 45.0112 28.9281 44.3694 29.2048C43.7275 29.4815 43.2602 30.0727 43.1239 30.7813L42.729 32.8334H40.271L39.8761 30.7813C39.7398 30.0727 39.2725 29.4815 38.6306 29.2048C37.9888 28.9281 37.2564 29.0025 36.678 29.4032L35.0029 30.5646L33.2643 28.7555L34.3811 27.0144C34.7664 26.4133 34.8379 25.6516 34.5723 24.9841C34.3062 24.3161 33.7374 23.8306 33.0564 23.6888L31.0833 23.2782V20.7213Z" fill="#FF4264"/>
<path d="M41.4998 28C45.0896 28 48 25.3138 48 22C48 18.6862 45.0896 16 41.4998 16C37.9099 16 35 18.6862 35 22C35.0035 25.3124 37.9114 27.9968 41.4998 28ZM41.4998 18C43.893 18 45.8334 19.7908 45.8334 22C45.8334 24.2092 43.893 26 41.4998 26C39.1065 26 37.1666 24.2092 37.1666 22C37.1666 19.7908 39.1065 18 41.4998 18Z" fill="#FF4264"/>
<path d="M62.2589 45.2282L60.2083 44.8334L61.3682 43.1592C61.938 42.3324 61.8249 41.2337 61.0974 40.5304L59.2874 38.7919C58.5559 38.0924 57.4138 37.9836 56.5539 38.5315L54.8133 39.6459L54.4027 37.6742C54.1999 36.7005 53.3107 36 52.2782 36H49.7213C48.6888 36 47.8001 36.7005 47.5973 37.6742L47.1867 39.6459L45.4456 38.5315C44.5852 37.9832 43.4431 38.0919 42.7111 38.7919L40.903 40.5314C40.176 41.2347 40.063 42.3324 40.6323 43.1592L41.7917 44.8334L39.7406 45.2282C38.7285 45.4232 38 46.2782 38 47.271V49.729C38 50.7218 38.7285 51.5768 39.7406 51.7718L41.7927 52.1666L40.6323 53.8408C40.063 54.6676 40.176 55.7663 40.903 56.4696L42.7126 58.2081C43.4441 58.9072 44.5857 59.0159 45.4456 58.4685L47.1867 57.3541L47.5973 59.3258C47.8001 60.2995 48.6888 61 49.7213 61H52.2782C53.3107 61 54.1999 60.2995 54.4027 59.3258L54.8133 57.3541L56.5539 58.4699C57.4143 59.0178 58.5569 58.9091 59.2884 58.2096L61.0965 56.4696C61.8235 55.7663 61.9365 54.6686 61.3672 53.8417L60.2083 52.1666L62.2589 51.7718C63.271 51.5768 64 50.7218 64 49.729V47.271C64 46.2782 63.271 45.4232 62.2589 45.2282ZM61.8334 49.729L59.7813 50.1239C59.0727 50.2602 58.4815 50.7275 58.2048 51.3694C57.9281 52.0112 58.0025 52.7436 58.4032 53.322L59.5646 54.9966L57.7555 56.7352L56.0144 55.6189C55.4133 55.2336 54.6516 55.1621 53.9841 55.4277C53.3161 55.6938 52.8306 56.2622 52.6888 56.9436L52.2782 58.9167H49.7213L49.3107 56.9436C49.1694 56.2622 48.6834 55.6938 48.0159 55.4277C47.3479 55.1621 46.5867 55.2336 45.9851 55.6189L44.243 56.7352L42.4349 54.9957L43.5963 53.322C43.997 52.7436 44.0714 52.0112 43.7947 51.3694C43.5185 50.7275 42.9269 50.2602 42.2182 50.1239L40.1666 49.729V47.271L42.2182 46.8761C42.9269 46.7398 43.5185 46.2725 43.7947 45.6306C44.0714 44.9888 43.997 44.2564 43.5963 43.678L42.4349 42.0034L44.244 40.2648L45.9851 41.3811C46.5867 41.7664 47.3479 41.8379 48.0159 41.5723C48.6834 41.3062 49.1694 40.7378 49.3107 40.0564L49.7213 38.0833H52.2782L52.6888 40.0564C52.8306 40.7378 53.3161 41.3062 53.9841 41.5723C54.6516 41.8379 55.4133 41.7664 56.0144 41.3811L57.7565 40.2648L59.5646 42.0043L58.4032 43.678C58.0025 44.2564 57.9281 44.9888 58.2048 45.6306C58.4815 46.2725 59.0727 46.7398 59.7813 46.8761L61.8334 47.271V49.729Z" fill="#FF4264"/>
<path d="M51.5 42C47.91 42 45 44.9104 45 48.5002C45 52.0896 47.91 55 51.5 55C55.09 55 58 52.0896 58 48.5002C57.9965 44.9119 55.0885 42.004 51.5 42ZM51.5 52.8334C49.1067 52.8334 47.1667 50.893 47.1667 48.5002C47.1667 46.107 49.1067 44.1666 51.5 44.1666C53.8933 44.1666 55.8333 46.107 55.8333 48.5002C55.8333 50.893 53.8933 52.8334 51.5 52.8334Z" fill="#FF4264"/>
<path d="M28 53.9998C28 54.5523 28.4477 55 29.0002 55H36.0003C36.5523 55 37 54.5523 37 53.9998C37 53.4477 36.5523 53 36.0003 53H29.0002C28.4477 53 28 53.4477 28 53.9998Z" fill="#828282"/>
<path d="M20.1431 59H25.8569C26.4884 59 27 58.5523 27 57.9998C27 57.4477 26.4884 57 25.8569 57H20.1431C19.5116 57 19 57.4477 19 57.9998C19 58.5523 19.5116 59 20.1431 59Z" fill="#828282"/>
<path d="M29 57.9998C29 58.5523 29.4477 59 30.0002 59H38.0002C38.5523 59 39 58.5523 39 57.9998C39 57.4477 38.5523 57 38.0002 57H30.0002C29.4477 57 29 57.4477 29 57.9998Z" fill="#828282"/>
<path d="M19 62.4997C19 63.3285 19.4884 64 20.0911 64H41.9089C42.5116 64 43 63.3285 43 62.4997C43 61.6715 42.5116 61 41.9089 61H20.0911C19.4884 61 19 61.6715 19 62.4997Z" fill="#828282"/>
</svg>
