<svg width="383" height="647" viewBox="0 0 383 647" fill="none" xmlns="http://www.w3.org/2000/svg">
<path d="M238.971 523.677H207.745C185.753 523.677 167.881 541.55 167.881 563.541V606.661C167.881 628.652 185.753 646.524 207.745 646.524H238.971C260.964 646.524 278.835 628.652 278.835 606.661V563.541C278.835 541.484 260.964 523.677 238.971 523.677Z" fill="black" fill-opacity="0.04"/>
<path d="M18.7893 189.885L76.3926 197.06C94.6635 199.319 112.004 188.822 118.582 171.614C126.887 149.888 138.447 132.747 153.263 120.256C174.259 102.583 200.369 93.68 231.596 93.68C263.952 93.68 289.731 102.184 308.865 119.126C328 136.135 337.501 156.466 337.501 180.317C337.501 197.459 332.119 213.139 321.356 227.357C314.38 236.393 292.92 255.394 257.109 284.428C221.231 313.463 197.38 339.639 185.421 362.893C173.196 386.679 168.944 413.055 167.881 439.499C166.951 462.155 185.022 481.024 207.745 481.024H240.3C261.029 481.024 278.171 465.145 280.031 444.548C281.36 429.733 283.818 418.505 287.539 410.864C293.784 397.775 309.929 380.5 335.84 358.975C386.002 317.449 418.69 284.628 434.038 260.444C449.319 236.326 457.026 210.747 457.026 183.706C457.026 134.873 436.231 92.019 394.573 55.2114C352.982 18.4038 296.907 0 226.481 0C159.509 0 105.494 18.138 64.3012 54.4806C29.221 85.4415 7.89389 122.116 0.386196 164.438C-1.93986 176.796 6.49799 188.357 18.7893 189.885Z" fill="black" fill-opacity="0.04"/>
</svg>
