<svg width="40" height="40" viewBox="0 0 40 40" fill="none" xmlns="http://www.w3.org/2000/svg">
<g clip-path="url(#clip0)">
<path d="M39.3217 9.32756C39.9369 8.72782 40.1541 7.84761 39.8887 7.03049C39.6232 6.21338 38.93 5.62904 38.0797 5.5055L34.6505 5.00718C34.3026 4.95658 34.0021 4.73819 33.8465 4.423L32.3129 1.31554C31.9326 0.545024 31.1626 0.0664062 30.3035 0.0664062C29.4444 0.0664062 28.6744 0.545024 28.2941 1.31554L26.7606 4.423C26.6049 4.73819 26.3044 4.95658 25.9565 5.00718L22.5273 5.5055C21.677 5.62904 20.9838 6.21338 20.7183 7.03057C20.4527 7.84769 20.6701 8.7279 21.2853 9.32756L23.7668 11.7464C24.0186 11.9917 24.1334 12.3451 24.0739 12.6917L23.4882 16.107C23.3429 16.9539 23.6844 17.7937 24.3795 18.2987C24.7723 18.5841 25.2318 18.7291 25.6945 18.7291C26.0506 18.7291 26.4087 18.6431 26.7394 18.4693L29.8066 16.8567C30.1178 16.6932 30.4893 16.6932 30.8005 16.8567L33.8677 18.4693C34.6282 18.8691 35.5323 18.8037 36.2276 18.2988C36.9227 17.7938 37.2643 16.9539 37.1191 16.1072L37.007 15.4535C36.9522 15.1342 36.6488 14.9195 36.3299 14.9746C36.0107 15.0293 35.7963 15.3324 35.8509 15.6516L35.963 16.3054C36.0333 16.7151 35.8745 17.1056 35.5381 17.3499C35.2019 17.5943 34.7813 17.6247 34.4135 17.4312L31.3462 15.8187C30.6933 15.4753 29.9138 15.4752 29.2608 15.8187L26.1935 17.4312C25.8257 17.6248 25.4052 17.5943 25.0688 17.3499C24.7325 17.1056 24.5737 16.7151 24.644 16.3054L25.2297 12.8901C25.3545 12.1631 25.1137 11.4216 24.5854 10.9067L22.1039 8.48785C21.8063 8.19776 21.7052 7.78849 21.8337 7.39315C21.9622 6.99781 22.2844 6.72609 22.6957 6.66635L26.1249 6.16803C26.8549 6.062 27.4856 5.60371 27.8122 4.94228L29.3458 1.83482C29.5297 1.46207 29.8877 1.23953 30.3034 1.23953C30.719 1.23953 31.077 1.46207 31.2609 1.83482L32.7945 4.94228C33.1211 5.60371 33.7518 6.062 34.4818 6.16803L37.911 6.66635C38.3223 6.72617 38.6446 6.99781 38.773 7.39307C38.9015 7.78842 38.8004 8.19768 38.5028 8.48777L36.0213 10.9066C35.493 11.4215 35.2522 12.163 35.3769 12.89L35.3964 13.0036C35.4511 13.3228 35.7543 13.5373 36.0735 13.4825C36.3927 13.4278 36.6071 13.1246 36.5525 12.8054L36.5329 12.6917C36.4735 12.3453 36.5883 11.9919 36.8401 11.7465L39.3217 9.32756Z" fill="#FF4264"/>
<path d="M32.2319 25.386C32.6475 24.9039 32.8997 24.2772 32.8997 23.5921C32.8997 22.075 31.6655 20.8408 30.1483 20.8408L21.2226 20.83C21.2214 20.8265 21.1226 20.54 21.0599 20.406L21.0589 20.4037C20.9233 20.1142 20.8729 19.798 20.9132 19.4893C21.044 18.488 21.0764 17.4483 21.1024 16.6129C21.1695 14.4702 20.7418 12.9053 19.795 11.8285C18.8436 10.7465 17.4758 10.1279 16.0374 10.1279C16.0266 10.1279 16.0158 10.1279 16.0049 10.128C15.1968 10.1332 14.5394 10.8018 14.5394 11.6184V14.2232C14.5394 15.8807 14.271 18.1869 12.9928 19.7616C11.6367 21.432 10.4656 21.4176 8.52622 21.3937C8.45968 21.3929 8.39251 21.3921 8.32472 21.3914V20.6876C8.32472 19.5204 7.37507 18.5708 6.20796 18.5708H2.11676C0.949652 18.5707 0 19.5203 0 20.6875V26.5764C0 26.9003 0.262493 27.1629 0.586446 27.1629C0.910399 27.1629 1.17289 26.9003 1.17289 26.5764V20.6875C1.17289 20.167 1.59631 19.7436 2.11676 19.7436H6.20788C6.72833 19.7436 7.15175 20.167 7.15175 20.6875V37.8167C7.15175 38.3372 6.72833 38.7606 6.20788 38.7606H2.11676C1.59631 38.7606 1.17289 38.3372 1.17289 37.8167V29.2521C1.17289 28.9282 0.910399 28.6656 0.586446 28.6656C0.262493 28.6656 0 28.9282 0 29.2521V37.8167C0 38.9839 0.949652 39.9335 2.11676 39.9335H6.20788C7.37507 39.9335 8.32464 38.9839 8.32464 37.8167V36.931H9.11752C9.50105 36.931 9.88083 37.065 10.1866 37.3085C10.2657 37.3714 10.3577 37.4501 10.4645 37.5412C11.1978 38.1672 12.5628 39.3327 14.5167 39.3327L28.9119 39.3329C30.429 39.3329 31.6633 38.0987 31.6633 36.5816C31.6633 35.9263 31.4327 35.3242 31.0489 34.8511C32.125 34.4772 32.8998 33.4536 32.8998 32.2519C32.8998 31.567 32.6476 30.9402 32.232 30.4581C33.2208 30.0407 33.9165 29.0611 33.9165 27.9222C33.9165 26.7831 33.2207 25.8036 32.2319 25.386ZM25.1429 22.0138H30.1484C31.0188 22.0138 31.7269 22.7219 31.7269 23.5922C31.7269 24.4625 31.0188 25.1707 30.1484 25.1707H25.1429C24.2725 25.1707 23.5644 24.4625 23.5644 23.5922C23.5644 22.7218 24.2725 22.0138 25.1429 22.0138ZM21.6549 38.1598H14.5167C12.9954 38.1598 11.9307 37.2507 11.2261 36.6492C11.116 36.5551 11.012 36.4664 10.9171 36.3909C10.4045 35.9828 9.76542 35.7582 9.11759 35.7582H8.32472V22.5643C8.38766 22.565 8.45006 22.5657 8.51184 22.5665C10.5664 22.5914 12.1897 22.6118 13.9035 20.5008C14.7287 19.4843 15.7124 17.5701 15.7124 14.2232V11.6184C15.7124 11.4445 15.8471 11.3021 16.0126 11.301C16.0205 11.3009 16.0283 11.3009 16.0362 11.3009C17.122 11.3009 18.1963 11.7866 18.9143 12.603C19.6552 13.4457 19.9876 14.7454 19.9303 16.5764C19.905 17.386 19.8736 18.3937 19.7503 19.3375C19.681 19.8682 19.7662 20.409 19.9967 20.9012C19.9979 20.9036 19.9993 20.907 20.0005 20.9099C20.0025 20.9142 20.0042 20.9181 20.0066 20.9237L20.0079 20.9266C20.1954 21.3665 20.3381 21.8456 20.3603 22.3273C20.388 22.9276 20.2672 23.5319 19.9995 24.1269C19.9941 24.1392 19.4393 25.3621 17.9108 26.0403C17.6148 26.1717 17.4813 26.5182 17.6126 26.8142C18.0668 27.8382 19.753 26.2988 20.1691 25.8675C20.522 25.5017 20.8632 25.0737 21.0707 24.6047C21.413 23.8437 21.5682 23.0593 21.532 22.2735C21.528 22.1861 21.5199 22.0953 21.5092 22.0031H22.8991C22.58 22.4523 22.3916 23.0005 22.3916 23.5923C22.3916 24.7313 23.0874 25.7108 24.0763 26.1283C23.6606 26.6103 23.4084 27.2371 23.4084 27.9222C23.4084 28.6071 23.6606 29.2339 24.0761 29.7159C23.0873 30.1334 22.3916 31.1129 22.3916 32.2519C22.3916 32.9071 22.6222 33.5094 23.006 33.9824C21.93 34.3563 21.1551 35.3799 21.1551 36.5817C21.1551 37.1685 21.3405 37.7126 21.6549 38.1598ZM28.9119 38.16L23.9035 38.1598C23.0345 38.1582 22.328 37.4509 22.328 36.5816C22.328 35.7112 23.0361 35.0032 23.9065 35.0032H28.912C29.7824 35.0032 30.4905 35.7112 30.4905 36.5816C30.4905 37.4519 29.7823 38.16 28.9119 38.16ZM30.1483 33.8302H25.1429C24.2725 33.8302 23.5644 33.1221 23.5644 32.2517C23.5644 31.3814 24.2725 30.6733 25.1429 30.6733H30.1484C31.0188 30.6733 31.7269 31.3814 31.7269 32.2517C31.7268 33.1222 31.0187 33.8302 30.1483 33.8302ZM31.1651 29.5005H26.1596C25.2893 29.5005 24.5812 28.7924 24.5812 27.9221C24.5812 27.0517 25.2893 26.3436 26.1596 26.3436H31.1651C32.0355 26.3436 32.7436 27.0517 32.7436 27.9221C32.7436 28.7924 32.0355 29.5005 31.1651 29.5005Z" fill="#828282"/>
</g>
<defs>
<clipPath id="clip0">
<rect width="40" height="40" fill="white"/>
</clipPath>
</defs>
</svg>
