<svg width="58" height="58" viewBox="0 0 58 58" fill="none" xmlns="http://www.w3.org/2000/svg">
<path d="M52.8027 51.6056H43.1185C44.0718 50.6954 45.0032 49.3641 45.9064 47.6148C46.092 47.2554 45.9511 46.8137 45.5916 46.628C45.2323 46.4425 44.7904 46.5833 44.6049 46.9428C43.0299 49.9931 41.435 51.6056 39.9926 51.6056H38.7158C40.1056 50.0599 42.1019 46.8899 44.0554 40.4456C44.1727 40.0585 43.954 39.6495 43.5669 39.5322C43.1795 39.4149 42.7709 39.6335 42.6534 40.0207C39.8555 49.251 37.0358 51.2894 36.4968 51.6056H32.9183C34.7705 49.9018 37.5906 46.3413 39.7092 39.3524C39.8265 38.9653 39.6078 38.5563 39.2207 38.439C38.8333 38.3215 38.4247 38.5404 38.3072 38.9274C36.6595 44.3633 34.5866 47.5431 33.1379 49.2534C31.872 50.7479 30.8524 51.4073 30.5074 51.6055H28.2744C33.6059 47.6891 36.6265 37.2355 36.7797 36.6949C36.9418 36.1308 37.3141 35.6638 37.8274 35.3795C38.341 35.0953 38.9344 35.028 39.4984 35.1903L45.8806 37.0252C46.4446 37.1874 46.9118 37.5595 47.196 38.0729C47.4802 38.5865 47.5474 39.1799 47.3853 39.744C47.3843 39.7472 47.3834 39.7505 47.3825 39.7538C47.3774 39.7724 46.8628 41.6475 45.9756 43.8926C45.827 44.2688 46.0114 44.6942 46.3877 44.8429C46.7639 44.9917 47.1894 44.807 47.338 44.4308C48.2424 42.142 48.7583 40.2762 48.7945 40.1438C49.063 39.2053 48.9506 38.2181 48.4777 37.3638C48.0041 36.5079 47.2256 35.8877 46.2854 35.6174L46.0547 35.5511L45.9979 32.4242L52.7879 8.80565C52.8452 8.60682 52.8742 8.40194 52.8742 8.19666C52.8742 7.22322 52.22 6.35545 51.2837 6.0866C50.7196 5.9244 50.1261 5.99149 49.6127 6.27576C49.0992 6.55994 48.7271 7.02694 48.5648 7.5911L47.8438 10.0996C47.7319 10.4883 47.9565 10.8941 48.3453 11.0058C48.7339 11.1177 49.1398 10.8931 49.2516 10.5043L49.9727 7.99598C50.0268 7.80799 50.1508 7.65223 50.322 7.5575C50.4932 7.46278 50.6909 7.44051 50.8791 7.49451C51.1913 7.58416 51.4095 7.87293 51.4095 8.19676C51.4095 8.2658 51.3999 8.3324 51.3803 8.40067L44.7449 31.4814L43.3375 31.0766L48.3018 13.8073C48.4136 13.4185 48.189 13.0128 47.8002 12.9011C47.4116 12.7893 47.0057 13.0139 46.8939 13.4026L41.7417 31.325L40.0772 33.8327L39.9033 33.7827C38.9635 33.5123 37.9743 33.6243 37.1183 34.098C36.2623 34.5717 35.6422 35.3503 35.3711 36.293C35.3601 36.332 34.2392 40.2469 32.2476 44.098C30.4764 47.5229 27.6425 51.6057 24.1998 51.6057H7.19727C5.98574 51.6057 5 52.5913 5 53.8029C5 55.0143 5.98574 56 7.19727 56H12.2317C12.6363 56 12.9642 55.6721 12.9642 55.2676C12.9642 54.8631 12.6363 54.5351 12.2317 54.5351H7.19727C6.79336 54.5351 6.46484 54.2066 6.46484 53.8027C6.46484 53.3988 6.79336 53.0703 7.19727 53.0703H30.688L30.6906 53.0705L30.6942 53.0703H52.8027C53.2066 53.0703 53.5352 53.3988 53.5352 53.8027C53.5352 54.2066 53.2066 54.5351 52.8027 54.5351H15.6292C15.2246 54.5351 14.8968 54.8631 14.8968 55.2676C14.8968 55.6721 15.2246 56 15.6292 56H52.8027C54.0143 56 55 55.0143 55 53.8027C55 52.5912 54.0143 51.6056 52.8027 51.6056ZM42.7629 32.4356L44.5421 32.9475L44.5817 35.1277L41.5537 34.2572L42.7629 32.4356Z" fill="#828282"/>
<path d="M13.8992 37.752H26.9235C27.3281 37.752 27.6559 37.424 27.6559 37.0195C27.6559 36.615 27.3281 36.2871 26.9235 36.2871H13.8992C13.4946 36.2871 13.1667 36.615 13.1667 37.0195C13.1667 37.424 13.4946 37.752 13.8992 37.752Z" fill="#FF4264"/>
<path d="M11.427 42.1465H24.4513C24.8559 42.1465 25.1837 41.8186 25.1837 41.4141C25.1837 41.0096 24.8559 40.6816 24.4513 40.6816H11.427C11.0224 40.6816 10.6946 41.0096 10.6946 41.4141C10.6946 41.8186 11.0224 42.1465 11.427 42.1465Z" fill="#FF4264"/>
<path d="M8.95483 46.5405H21.9792C22.3838 46.5405 22.7117 46.2126 22.7117 45.8081C22.7117 45.4036 22.3838 45.0757 21.9792 45.0757H8.95483C8.55024 45.0757 8.22241 45.4036 8.22241 45.8081C8.22241 46.2126 8.55024 46.5405 8.95483 46.5405Z" fill="#FF4264"/>
<path d="M25.82 26.0437L28.0619 27.2699L29.2882 29.5118C29.4965 29.8927 29.8955 30.1293 30.3296 30.1293C30.7637 30.1293 31.1627 29.8927 31.371 29.5119L32.5973 27.2699L34.8391 26.0438C35.2199 25.8355 35.4565 25.4365 35.4565 25.0024C35.4565 24.5684 35.2199 24.1693 34.8391 23.961L32.5973 22.735L31.371 20.493C31.1627 20.1121 30.7637 19.8755 30.3296 19.8755C29.8955 19.8755 29.4965 20.1121 29.2882 20.4929L28.0619 22.7349L25.82 23.961C25.4392 24.1693 25.2026 24.5684 25.2026 25.0024C25.2026 25.4364 25.4392 25.8354 25.82 26.0437ZM28.8362 23.9809C29.036 23.8716 29.1992 23.7084 29.3081 23.5091L30.3296 21.6414L31.3509 23.5087C31.4599 23.7082 31.623 23.8715 31.8229 23.9809L33.6904 25.0022L31.8225 26.0238C31.623 26.1331 31.46 26.2963 31.3511 26.4955L30.3296 28.3632L29.3082 26.4957C29.1991 26.2961 29.0359 26.1328 28.8362 26.0237L26.9687 25.0023L28.8362 23.9809Z" fill="#FF4264"/>
</svg>
