<svg width="14" height="14" viewBox="0 0 14 14" fill="none" xmlns="http://www.w3.org/2000/svg">
<g clip-path="url(#clip0)">
<path d="M1.98242 1.69983C2.13335 1.69983 2.25586 1.57732 2.25586 1.42639C2.25586 1.27547 2.13335 1.15295 1.98242 1.15295C1.8315 1.15295 1.70898 1.27547 1.70898 1.42639C1.70898 1.57732 1.8315 1.69983 1.98242 1.69983Z" fill="#828282"/>
<path d="M3.91354 10.0872C5.84031 12.0138 8.21419 13.345 10.7787 13.9368C11.8994 14.1955 13.0274 13.6514 13.5335 12.6395L13.857 11.9923C14.1746 11.3574 13.9464 10.5738 13.3375 10.2084L11.2768 8.97213C10.6289 8.58323 9.78976 8.7928 9.40119 9.44103L9.04315 10.0373C8.97373 10.1529 8.83242 10.2006 8.70702 10.1504C6.56706 9.29449 4.70608 7.43362 3.85031 5.29387C3.80011 5.16858 3.84775 5.02727 3.96353 4.95785C4.78032 4.46737 4.49866 4.63645 4.55954 4.59992C5.20767 4.21134 5.41766 3.37234 5.02865 2.72432L3.79231 0.6635C3.42691 0.0545691 2.64335 -0.173687 2.00846 0.14397L1.36108 0.467501C0.340709 0.977739 -0.192706 2.11058 0.0638546 3.22227C0.655589 5.7867 1.98688 8.16058 3.91354 10.0872ZM10.9953 9.44103L13.0561 10.6773C13.4215 10.8966 13.5584 11.3667 13.3677 11.7477L13.2242 12.0351L9.73785 9.94262L9.87009 9.72227C10.1033 9.33348 10.6064 9.20765 10.9953 9.44103ZM1.60567 0.95659L2.25306 0.633059C2.63715 0.440905 3.10595 0.582644 3.32331 0.944841L4.55965 3.00566C4.79292 3.39424 4.66742 3.89753 4.27809 4.13091L4.05742 4.26347L2.81937 2.19891C2.74172 2.06946 2.57381 2.02737 2.44425 2.10513C2.31479 2.18278 2.27271 2.35069 2.35036 2.48025L3.59226 4.55111C3.31134 4.77413 3.20581 5.15545 3.34253 5.49692C3.78655 6.60722 4.50282 7.67566 5.41403 8.58676C6.32513 9.49775 7.39367 10.214 8.50386 10.6581C8.84577 10.7949 9.2274 10.6891 9.45021 10.4079L12.974 12.5226C12.5499 13.2322 11.7186 13.5923 10.9017 13.4039C5.89361 12.2482 1.75243 8.10707 0.596736 3.09933C0.397212 2.23469 0.812174 1.3535 1.60567 0.95659Z" fill="#828282"/>
</g>
<defs>
<clipPath id="clip0">
<rect width="14" height="14" fill="white"/>
</clipPath>
</defs>
</svg>
