<svg width="30" height="30" viewBox="0 0 30 30" fill="none" xmlns="http://www.w3.org/2000/svg">
<g clip-path="url(#clip0)">
<path d="M4.24609 3.64265C4.5695 3.64265 4.83203 3.38013 4.83203 3.05672C4.83203 2.73331 4.5695 2.47078 4.24609 2.47078C3.92268 2.47078 3.66016 2.73331 3.66016 3.05672C3.66016 3.38013 3.92268 3.64265 4.24609 3.64265Z" fill="#FF4264"/>
<path d="M8.38617 21.6144C12.515 25.7427 17.6018 28.5953 23.0973 29.8635C25.4987 30.4179 27.9159 29.2519 29.0004 27.0835L29.6936 25.6967C30.3741 24.3363 29.8852 22.657 28.5804 21.874L24.1646 19.2249C22.7762 18.3915 20.9781 18.8406 20.1454 20.2297L19.3782 21.5073C19.2294 21.7552 18.9266 21.8572 18.6579 21.7497C14.0723 19.9156 10.0845 15.9281 8.25067 11.3429C8.1431 11.0744 8.24518 10.7716 8.49329 10.6228C10.2435 9.57182 9.63998 9.93414 9.77044 9.85586C11.1593 9.02319 11.6093 7.22533 10.7757 5.8367L8.12639 1.42067C7.34339 0.115818 5.66431 -0.373301 4.30384 0.307391L2.91659 1.00067C0.730092 2.09404 -0.412941 4.52155 0.136831 6.90375C1.40483 12.399 4.25761 17.4858 8.38617 21.6144ZM23.5615 20.2297L27.9773 22.8787C28.7603 23.3486 29.0537 24.3562 28.6451 25.1726L28.3375 25.7883L20.8668 21.3045L21.1502 20.8323C21.6498 19.9992 22.7281 19.7296 23.5615 20.2297ZM3.44073 2.04872L4.82798 1.35544C5.65104 0.943681 6.6556 1.24741 7.12137 2.02354L9.77067 6.43958C10.2705 7.27225 10.0016 8.35074 9.16734 8.85084L8.69447 9.13488L6.04151 4.71084C5.87511 4.43343 5.51531 4.34325 5.23768 4.50988C4.96027 4.67628 4.8701 5.03608 5.03649 5.31371L7.69769 9.75126C7.09574 10.2292 6.8696 11.0463 7.16257 11.778C8.11403 14.1572 9.64891 16.4467 11.6015 18.3991C13.5539 20.3512 15.8436 21.8861 18.2226 22.8378C18.9552 23.1307 19.773 22.9041 20.2505 22.3015L27.8015 26.8331C26.8926 28.3536 25.1112 29.1251 23.3607 28.7216C12.6292 26.2451 3.75521 17.3712 1.27872 6.64031C0.85117 4.78751 1.74037 2.89924 3.44073 2.04872Z" fill="#FF4264"/>
</g>
<defs>
<clipPath id="clip0">
<rect width="30" height="30" fill="white"/>
</clipPath>
</defs>
</svg>
