<svg width="70" height="70" viewBox="0 0 70 70" fill="none" xmlns="http://www.w3.org/2000/svg">
<g clip-path="url(#clip0)">
<path d="M11.7544 31.1443C11.1848 31.1443 10.7231 31.606 10.7231 32.1756V34.0383C10.7231 41.73 14.208 48.8461 20.2842 53.5619L30.0258 61.1225C30.3856 61.4018 30.8168 61.5414 31.2482 61.5414C31.6795 61.5414 32.1107 61.4018 32.4707 61.1225L40.0902 55.2087C40.5401 54.8594 40.6217 54.2116 40.2726 53.7617C39.9234 53.3119 39.2756 53.2301 38.8255 53.5793L31.2482 59.4604L21.5488 51.9325C15.9797 47.6101 12.7857 41.0881 12.7857 34.0383V32.1756C12.7857 31.606 12.324 31.1443 11.7544 31.1443Z" fill="#828282"/>
<path d="M31.248 62.941C30.4672 62.941 29.8342 63.574 29.8342 64.3548C29.8342 65.1356 30.4672 65.7687 31.248 65.7687C32.0288 65.7687 32.6618 65.1356 32.6618 64.3548C32.6618 63.5739 32.0288 62.941 31.248 62.941Z" fill="#FF4264"/>
<path d="M31.248 5.56213C30.4672 5.56213 29.8342 6.19514 29.8342 6.97594C29.8342 7.75674 30.4672 8.38975 31.248 8.38975C32.0288 8.38975 32.6618 7.75674 32.6618 6.97594C32.6618 6.195 32.0288 5.56213 31.248 5.56213Z" fill="#FF4264"/>
<path d="M52.5308 15.3052C52.5308 16.086 53.1638 16.719 53.9446 16.719C54.7254 16.719 55.3584 16.086 55.3584 15.3052C55.3584 14.5244 54.7254 13.8914 53.9446 13.8914C53.1638 13.8914 52.5308 14.5244 52.5308 15.3052Z" fill="#FF4264"/>
<path d="M6.96924 15.3052C6.96924 16.086 7.60225 16.719 8.38305 16.719C9.16385 16.719 9.79685 16.086 9.79685 15.3052C9.79685 14.5244 9.16385 13.8914 8.38305 13.8914C7.60225 13.8914 6.96924 14.5244 6.96924 15.3052Z" fill="#FF4264"/>
<path d="M65.2093 63.2383V38.2225C66.416 37.6554 67.2539 36.4286 67.2539 35.0093C67.2539 33.0527 65.6621 31.4609 63.7054 31.4609H51.7731V18.9383C51.7731 17.9231 51.0135 17.0718 50.0063 16.958C46.0747 16.5144 42.4125 15.6804 39.1213 14.4791C36.9133 13.6734 34.9157 12.7116 33.1839 11.6201C32.008 10.8788 30.4883 10.879 29.3123 11.6203C27.5803 12.7117 25.5827 13.6735 23.3749 14.4791C20.0836 15.6803 16.4215 16.5144 12.4899 16.958C11.4827 17.0718 10.7231 17.9231 10.7231 18.9383V27.2988C10.7231 27.8683 11.1848 28.33 11.7543 28.33C12.3239 28.33 12.7856 27.8683 12.7856 27.2988V19.0004C16.8552 18.5365 20.6554 17.6672 24.0818 16.4168C26.4267 15.5612 28.5565 14.5344 30.4119 13.3652C30.9278 13.0404 31.5686 13.04 32.0843 13.3651C33.9395 14.5344 36.0693 15.5611 38.4143 16.4168C41.8408 17.6673 45.6412 18.5363 49.7106 19.0004V31.4608H44.1836C42.2269 31.4608 40.6351 33.0526 40.6351 35.0092C40.6351 36.4338 41.4793 37.6642 42.6934 38.2285V60.6745L34.9865 66.656C33.9218 67.4822 32.5941 67.9373 31.2481 67.9373C29.8825 67.9373 28.5899 67.4944 27.5099 66.6561L16.5097 58.1187C12.8877 55.3077 9.90753 51.6452 7.89106 47.5277C5.8746 43.4104 4.80888 38.8106 4.80888 34.2258V11.7485C4.80888 11.4851 5.02325 11.2692 5.28671 11.2673L8.63044 11.2429C20.0583 11.1599 25.6218 7.29025 27.9212 4.99105C28.6216 4.29051 29.2726 3.54129 29.8562 2.76404C30.191 2.31793 30.7018 2.0624 31.2581 2.0624C31.2596 2.0624 31.2609 2.0624 31.2625 2.06254C31.8163 2.06377 32.3234 2.31943 32.6536 2.76363C33.2402 3.55291 33.8868 4.30227 34.5756 4.99105C36.4267 6.84209 42.012 11.1569 53.8663 11.2429L57.21 11.2673C57.4735 11.2692 57.6879 11.4851 57.6879 11.7485V27.2558C57.6879 27.8254 58.1496 28.2871 58.7191 28.2871C59.2887 28.2871 59.7504 27.8254 59.7504 27.2558V11.7485C59.7504 10.356 58.6175 9.21498 57.2252 9.20473L53.8815 9.18039C42.7903 9.09986 37.7056 5.20379 36.0342 3.53268C35.4164 2.91471 34.836 2.24205 34.3091 1.5333C33.5865 0.561641 32.478 0.00287109 31.2672 0C31.2641 0 31.2609 0 31.2578 0C30.0466 0 28.9348 0.555625 28.2065 1.52564C27.6812 2.22537 27.0944 2.90062 26.4625 3.53254C24.3865 5.60861 19.3075 9.10274 8.61526 9.18039L5.27153 9.20473C3.87919 9.21498 2.74634 10.356 2.74634 11.7485V34.2259C2.74634 39.1234 3.88479 44.0368 6.03866 48.4351C8.19267 52.8335 11.3762 56.7454 15.245 59.7483L26.2453 68.2857C27.6698 69.3912 29.4464 70 31.2481 70C33.0496 70 34.8264 69.3912 36.2512 68.2855L41.3321 64.3422C40.8944 64.9323 40.6352 65.6621 40.6352 66.4513C40.6352 68.4081 42.227 69.9999 44.1837 69.9999H63.7055C65.6621 69.9999 67.2541 68.4081 67.2541 66.4513C67.2539 65.0322 66.4161 63.8054 65.2093 63.2383ZM44.7559 51.2933C45.6263 50.4045 46.4288 49.4516 47.1531 48.446C47.8973 49.3478 48.7656 50.1081 49.7144 50.6617C47.2909 52.0758 45.3889 54.8349 44.7559 57.8715V51.2933ZM44.7559 43.4518C44.9867 44.5591 45.3871 45.6288 45.9192 46.6104C45.5556 47.1536 45.1667 47.6812 44.7559 48.1921V43.4518ZM46.5918 60.0292C46.5918 56.3562 49.139 52.6159 52.1542 51.8618C52.7051 51.7237 53.0899 51.23 53.0896 50.6613C53.0895 50.0925 52.7046 49.599 52.1538 49.4613C49.1388 48.7073 46.5916 44.9671 46.5916 41.2938V38.5578H61.297V41.2938C61.297 44.9671 58.7498 48.7073 55.7351 49.4613C55.1841 49.599 54.7991 50.0924 54.799 50.6613C54.7989 51.23 55.1834 51.7239 55.7348 51.8619C58.7498 52.6159 61.297 56.3562 61.297 60.0292V62.9028H46.5918V60.0292ZM63.1468 57.9406C62.5283 54.8767 60.6162 52.0863 58.1746 50.6617C60.6164 49.2369 62.5283 46.4466 63.1468 43.3828V57.9406ZM44.1836 33.5233H63.7054C64.5248 33.5233 65.1914 34.1898 65.1914 35.0093C65.1914 35.8287 64.5248 36.4954 63.7054 36.4954H44.1836C43.3641 36.4954 42.6975 35.8288 42.6975 35.0093C42.6976 34.1899 43.3642 33.5233 44.1836 33.5233ZM63.7054 67.9375H44.1836C43.3641 67.9375 42.6975 67.2708 42.6975 66.4513C42.6975 65.632 43.3641 64.9652 44.1836 64.9652H63.7054C64.5248 64.9652 65.1914 65.6318 65.1914 66.4513C65.1914 67.2708 64.5248 67.9375 63.7054 67.9375Z" fill="#828282"/>
<path d="M26.5232 43.626H26.5374C27.4913 43.626 28.3771 43.1963 28.9673 42.4471L42.0034 25.9041C42.515 25.255 42.7431 24.4456 42.6459 23.625C42.5485 22.8043 42.1375 22.0707 41.4884 21.5593C40.8393 21.0479 40.0299 20.8198 39.2094 20.9169C38.3887 21.0141 37.6551 21.4252 37.1437 22.0744L26.5724 35.4893L21.7651 29.212C20.7282 27.8578 18.7825 27.5994 17.4277 28.6367C16.7715 29.1392 16.3505 29.8671 16.2418 30.6863C16.1331 31.5055 16.3499 32.318 16.8523 32.9741L24.0811 42.4132C24.6662 43.1772 25.5537 43.6193 26.5232 43.626ZM18.2864 30.9574C18.3226 30.6844 18.463 30.4418 18.6815 30.2745C18.8684 30.1315 19.0888 30.0623 19.3077 30.0623C19.6179 30.0623 19.9248 30.2013 20.1274 30.466L25.7419 37.7973C25.9355 38.05 26.2351 38.1992 26.5536 38.2014C26.867 38.1995 27.1738 38.0586 27.3707 37.8084L38.7637 23.3506C38.9341 23.1343 39.1785 22.9973 39.4521 22.9648C39.7261 22.933 39.9956 23.0086 40.212 23.179C40.4283 23.3495 40.5653 23.5941 40.5977 23.8676C40.6301 24.141 40.5541 24.4109 40.3836 24.6273L27.3474 41.1704C27.1507 41.4201 26.8555 41.5634 26.5375 41.5634H26.5304C26.2095 41.5612 25.9137 41.4138 25.7187 41.1591L18.49 31.7199C18.3223 31.5014 18.25 31.2306 18.2864 30.9574Z" fill="#FF4264"/>
</g>
<defs>
<clipPath id="clip0">
<rect width="70" height="70" fill="white"/>
</clipPath>
</defs>
</svg>
