<svg width="14" height="14" viewBox="0 0 14 14" fill="none" xmlns="http://www.w3.org/2000/svg">
<path d="M7.10062 6.74385C6.17413 6.74385 5.37198 6.41156 4.71637 5.75596C4.06098 5.10045 3.72858 4.29841 3.72858 3.37182C3.72858 2.44555 4.06087 1.6434 4.71648 0.987684C5.37209 0.33229 6.17424 0 7.10062 0C8.02721 0 8.82925 0.33229 9.48476 0.987791C10.1403 1.64329 10.4727 2.44545 10.4727 3.37182C10.4727 4.29841 10.1403 5.10056 9.48476 5.75606C8.82904 6.41146 8.02689 6.74385 7.10062 6.74385ZM8.90456 1.56788C8.40158 1.06491 7.81155 0.820418 7.10062 0.820418C6.38979 0.820418 5.79965 1.06491 5.29657 1.56788C4.7936 2.07096 4.549 2.6611 4.549 3.37182C4.549 4.08276 4.7936 4.67278 5.29657 5.17586C5.79965 5.67894 6.38979 5.92344 7.10062 5.92344C7.81134 5.92344 8.40137 5.67884 8.90456 5.17586C9.40764 4.67289 9.65224 4.08276 9.65224 3.37182C9.65224 2.6611 9.40764 2.07096 8.90456 1.56788Z" fill="#828282"/>
<path d="M1.1996 10.7653C1.21851 10.4925 1.25674 10.195 1.31303 9.88072C1.36986 9.56413 1.44302 9.26484 1.53061 8.9913C1.62119 8.70857 1.74413 8.42936 1.89633 8.1618C2.05409 7.88409 2.23952 7.64227 2.44759 7.44328C2.66516 7.23511 2.93155 7.06773 3.23959 6.94565C3.54657 6.8242 3.88676 6.76268 4.25067 6.76268C4.39359 6.76268 4.5318 6.82132 4.79872 6.9951C4.963 7.10223 5.15515 7.22613 5.36963 7.36317C5.55302 7.48002 5.80147 7.58951 6.10834 7.68863C6.40773 7.78551 6.71172 7.83464 7.01186 7.83464C7.31178 7.83464 7.61577 7.78551 7.91537 7.68863C8.22192 7.58961 8.47047 7.48013 8.65355 7.36328C8.866 7.22752 9.05826 7.10362 9.22499 6.99499C9.4917 6.82121 9.62991 6.76257 9.77283 6.76257C10.1368 6.76257 10.4769 6.8242 10.7838 6.94575C11.0916 7.06763 11.3581 7.235 11.5759 7.44339C11.784 7.64248 11.9694 7.8842 12.1271 8.1618C12.2791 8.42936 12.4021 8.70846 12.4927 8.99141C12.5802 9.26495 12.6533 9.56413 12.7101 9.88072C12.7665 10.1945 12.8047 10.4922 12.8236 10.7656C12.8422 11.033 12.8516 11.3112 12.8516 11.5924C12.8516 12.3232 12.6192 12.9148 12.1611 13.3511C11.7087 13.7817 11.1101 14 10.382 14H3.64088C2.91296 14 2.31439 13.7817 1.86183 13.3511C1.40361 12.9151 1.1713 12.3233 1.1713 11.5923C1.1714 11.3102 1.18091 11.0319 1.1996 10.7653ZM2.42751 12.7567C2.72647 13.0413 3.12338 13.1796 3.64099 13.1796H10.382C10.8997 13.1796 11.2966 13.0413 11.5955 12.7568C11.8887 12.4777 12.0311 12.0967 12.0311 11.5924C12.0311 11.33 12.0225 11.071 12.0052 10.8224C11.9883 10.5784 11.9538 10.3104 11.9026 10.0257C11.8521 9.74443 11.7878 9.48049 11.7113 9.24156C11.638 9.01245 11.5379 8.78558 11.4138 8.56704C11.2953 8.35876 11.159 8.18007 11.0086 8.03608C10.868 7.9014 10.6907 7.79117 10.4817 7.70849C10.2885 7.63202 10.0714 7.59015 9.83563 7.58385C9.8069 7.59912 9.75574 7.62828 9.67285 7.68233C9.5042 7.79223 9.3098 7.91763 9.09489 8.05488C8.85265 8.20933 8.54054 8.34883 8.16766 8.4692C7.78645 8.59246 7.39766 8.65506 7.01175 8.65506C6.62584 8.65506 6.23694 8.59246 5.85594 8.46931C5.48274 8.34872 5.17075 8.20933 4.92818 8.05467C4.70825 7.91411 4.5193 7.79234 4.35065 7.68233C4.26776 7.62839 4.2166 7.59912 4.18787 7.58385C3.95203 7.59015 3.73488 7.63202 3.54155 7.70849C3.33273 7.79117 3.15543 7.9015 3.01476 8.03608C2.86436 8.17996 2.72807 8.35865 2.60962 8.56715C2.4854 8.78558 2.38521 9.01255 2.31194 9.24145C2.23535 9.48071 2.17094 9.74453 2.12053 10.0256C2.06947 10.3108 2.03487 10.5789 2.01799 10.8225V10.8227C2.00058 11.0704 1.99182 11.3293 1.99171 11.5924C1.99182 12.0968 2.13431 12.4777 2.42751 12.7567Z" fill="#828282"/>
</svg>
