<svg width="329" height="74" viewBox="0 0 329 74" fill="none" xmlns="http://www.w3.org/2000/svg">
<path fill-rule="evenodd" clip-rule="evenodd" d="M16.9561 53.053C102.578 53.053 188.2 53.053 273.823 53.053C273.823 53.2487 273.823 52.9225 273.823 53.1182C187.811 55.3369 102.189 55.4022 16.9561 53.1835C16.9561 52.9225 16.9561 53.2487 16.9561 53.053Z" fill="white"/>
<path fill-rule="evenodd" clip-rule="evenodd" d="M77.586 44.5696L77.7808 44.3085L77.9106 44.178L78.0404 44.0475L78.1703 43.917L78.3001 43.7865L78.4299 43.656L78.5597 43.5255L78.7545 43.2645L78.8843 43.1339L79.0141 43.0034L79.2089 42.7424L79.3387 42.6119L79.4685 42.4814L79.5984 42.3509L79.7282 42.2204L79.858 42.0898L79.9879 41.9593H81.0265L76.807 46.5925L76.6772 46.723L76.5474 46.8535L76.4176 46.984L76.2877 47.0493L76.1579 47.1145L76.0281 47.1798H75.8983H75.7684H75.6386L75.5088 47.1145L75.4439 47.0493L75.3789 46.984L75.314 46.9188L75.2491 46.7883L75.1842 46.6577V46.5272L74.2754 41.9593H75.2491L76.093 46.0704V46.1357L76.1579 46.0704L76.2877 45.9399L76.5474 45.6789L76.6772 45.5484L76.872 45.2874L77.0018 45.1569L77.1316 45.0264L77.2615 44.8958L77.3913 44.7653L77.5211 44.6348L77.586 44.5696ZM177.684 47.3103L179.242 42.8729H177.489H177.424H177.36L177.295 42.8077L177.23 42.7424V42.6771V42.6119V42.5466V42.4814L177.295 42.3509V42.2856L177.36 42.2204L177.424 42.1551L177.489 42.0898L177.554 42.0246H177.619H177.684H177.749H182.293H182.358H182.423L182.488 42.0898L182.553 42.1551V42.2204V42.2856V42.3509V42.4161L182.488 42.5466V42.6119L182.423 42.6771L182.358 42.7424L182.293 42.8077L182.228 42.8729H182.163H182.098H182.033H180.151L178.593 47.3103H177.684ZM140.813 43.3297L140.683 43.4602L140.553 43.5907L140.423 43.7212L140.293 43.8517L140.164 43.9823L140.034 44.1128L139.839 44.3738L139.709 44.5043L139.579 44.6348L139.449 44.7653L139.32 44.8958L139.19 45.0264L139.06 45.1569L138.865 45.4179L138.8 45.4831L141.527 46.0052L141.007 43.3297H140.748H140.813ZM138.865 45.4831L138.8 45.5484L138.671 45.6789L138.541 45.8094L138.411 45.9399L138.281 46.0704L138.021 46.3315L137.892 46.462L137.762 46.5925L137.632 46.723L137.502 46.8535L137.372 46.984L137.242 47.1145L137.113 47.245H136.074L140.293 42.6119L140.423 42.4814L140.553 42.3509L140.683 42.2204L140.813 42.1551L140.943 42.0898L141.072 42.0246H141.202H141.332H141.462L141.592 42.0898L141.657 42.1551L141.721 42.2204L141.786 42.2856L141.851 42.4161L141.916 42.5466V42.6771L142.825 47.3756L138.865 45.4831ZM216.049 44.5696L215.984 44.7001V44.7653L215.919 44.8306L215.854 44.8958L215.789 44.9611L215.724 45.0264H215.659H215.594H215.529H212.738H212.673H212.608L212.543 44.9611L212.478 44.8958V44.8306V44.7653V44.7001V44.6348L212.543 44.5043V44.4391L212.608 44.3738L212.673 44.3085L212.738 44.2433L212.803 44.178H212.868H212.933H212.998H215.789H215.854H215.919L215.984 44.2433L216.049 44.3085V44.3738V44.4391V44.5043V44.5696ZM165.091 42.0246H165.221H165.285H165.35L165.415 42.0898L165.48 42.1551V42.2204V42.2856V42.3509V42.4161L164.831 44.2433H168.531L169.18 42.3509V42.2856L169.245 42.2204L169.31 42.1551L169.375 42.0898L169.44 42.0246H169.505H169.57H169.635H169.765H169.829H169.894L169.959 42.0898L170.024 42.1551V42.2204V42.2856V42.3509V42.4161L168.401 46.984V47.0493L168.336 47.1145L168.271 47.1798L168.207 47.245L168.142 47.3103H168.077H168.012H167.947H167.817H167.752H167.687L167.622 47.245L167.557 47.1798V47.1145V47.0493V46.984V46.9188L168.207 45.0916H164.506L163.857 46.984V47.0493L163.792 47.1145L163.727 47.1798L163.663 47.245L163.598 47.3103H163.533H163.468H163.403H163.273H163.208H163.143L163.078 47.245L163.013 47.1798V47.1145V47.0493V46.984V46.9188L164.636 42.3509V42.2856L164.701 42.2204L164.766 42.1551L164.831 42.0898L164.896 42.0246H164.961H165.026H165.091ZM198.132 42.8729L198.067 43.0034L198.002 43.1339L196.509 47.3103H195.665L197.223 42.9382L197.288 42.8077L197.353 42.6771L197.418 42.5466L197.483 42.4161L197.548 42.2856L197.613 42.2204L197.743 42.1551L197.872 42.0898L198.002 42.0246H198.132H198.262H198.392H198.522L198.651 42.0898L198.781 42.1551L198.911 42.2204L201.767 44.5043L201.443 45.4831L198.327 43.0034L198.132 42.8729ZM203.455 41.9593H203.585H203.65H203.715L203.78 42.0246L203.845 42.0898V42.1551V42.2204V42.2856V42.3509L202.222 46.9188V46.984L202.157 47.0493L202.092 47.1145L202.027 47.1798L201.962 47.245H201.897H201.832H201.767H201.638H201.573H201.508L201.443 47.1798L201.378 47.1145V47.0493V46.984V46.9188V46.8535L203.001 42.2856V42.2204L203.066 42.1551L203.131 42.0898L203.195 42.0246L203.26 41.9593H203.325H203.39H203.455ZM215.594 45.9399L215.529 46.0704L215.464 46.201L215.399 46.3315L215.334 46.462L215.27 46.5272L215.205 46.5925L215.14 46.6577L215.075 46.723L215.01 46.7883L214.945 46.8535L214.88 46.9188L214.815 46.984L214.75 47.0493H214.685H214.62H214.555H214.491H214.426H214.361H214.296H214.231H214.166H214.101H214.036H213.971H213.906H213.841H213.777H213.712H213.647H213.582H213.517H213.452H213.387H213.322H213.192H213.062H212.933H212.803H212.673H212.543H212.413H212.283H212.154H212.024H211.894H211.764H211.634H211.505H211.375H211.245H211.115H210.985H210.855H210.79H210.726H210.661H210.596H210.531H210.466H210.401H210.336H210.271H210.206H210.141H210.076H210.011H209.947H209.882H209.817H209.752H209.687H209.622H209.557H209.492V46.984V46.9188V46.8535V46.7883V46.723V46.6577V46.5925V46.5272V46.462V46.3967V46.3315V46.2662V46.201V46.1357V46.0704V46.0052V45.9399V45.8747V45.8094V45.7442V45.6789V45.6137V45.5484V45.4831V45.4179V45.3526V45.2221V45.0916L209.557 44.9611L209.622 44.8306L209.687 44.7001L209.752 44.5696L209.817 44.4391L209.882 44.3085L209.947 44.178L210.011 44.0475L210.076 43.917L210.141 43.7865L210.206 43.7212L210.271 43.656L210.336 43.5907L210.401 43.5255L210.466 43.4602L210.531 43.395L210.596 43.3297L210.661 43.2645L210.726 43.1992L210.79 43.1339L210.855 43.0687L210.92 43.0034L210.985 42.9382L211.05 42.8729L211.115 42.8077L211.18 42.7424L211.245 42.6771L211.31 42.6119L211.375 42.5466L211.44 42.4814L211.505 42.4161L211.569 42.3509L211.634 42.2856L211.699 42.2204H211.764H211.829H211.894H211.959H212.024H212.089H212.154H212.219H212.283H212.348H212.413H212.478H212.543H212.608H212.673H212.738H212.803H212.868H212.933H212.998H213.127H213.257H213.387H213.517H213.647H213.777H213.906H214.036H214.166H214.296H214.426H214.555H214.685H214.815H214.945H215.075H215.205H215.334H215.464H215.529H215.594H215.659H215.724H215.789H215.854H215.919H215.984H216.049H216.113H216.178H216.243H216.308H216.373H216.438H216.503H216.568H216.633H216.698H216.763H216.828H216.892H216.957H217.022L217.087 42.2856L217.152 42.3509L217.217 42.4161V42.4814V42.5466V42.6119V42.6771V42.7424V42.8077V42.8729V42.9382V43.0687V43.1992L217.152 43.3297L217.087 43.4602L217.022 43.5907V43.656L216.957 43.7212L216.892 43.7865L216.828 43.8517L216.763 43.917H216.698H216.633H216.568H216.438H216.373H216.308L216.243 43.8517L216.178 43.7865V43.7212V43.656V43.5907V43.5255L216.243 43.4602V43.395V43.3297V43.2645V43.1992V43.1339V43.0687V43.0034H216.178H216.113H216.049H215.984H215.919H215.854H215.789H215.724H215.659H215.594H215.529H215.464H215.399H215.334H215.27H215.205H215.14H215.075H215.01H214.945H214.88H214.815H214.75H214.685H214.62H214.491H214.361H214.296H214.231H214.166H214.101H214.036H213.971H213.906H213.841H213.777H213.712H213.647H213.582H213.517H213.452H213.387H213.322H213.257H213.192H213.127H213.062H212.998H212.933H212.868H212.803H212.738H212.673V43.0687V43.1339V43.1992V43.2645V43.3297V43.395V43.4602V43.5255V43.5907V43.656V43.7212V43.7865V43.8517V43.917V43.9823V44.0475V44.1128V44.178V44.2433V44.3085V44.3738V44.4391V44.5043V44.5696L212.608 44.7653L212.543 44.9611L212.478 45.0916L212.413 45.2221L212.348 45.3526V45.4831V45.6137V45.7442V45.8747V45.9399V46.0052V46.0704V46.1357V46.201H212.413H212.478H212.543H212.608H212.673H212.738H212.803H212.868H212.933H212.998H213.062H213.127H213.192H213.257H213.322H213.387H213.452H213.517H213.582H213.647H213.712H213.777H213.841H213.971H214.036H214.101H214.166H214.231H214.296H214.361H214.426H214.491H214.555H214.62H214.685H214.75H214.815H214.88H214.945H215.01H215.075H215.14H215.205H215.27H215.334H215.399H215.464H215.529H215.594H215.659H215.724H215.789H215.854H215.919H215.984H216.049H216.113L216.178 46.1357L216.243 46.0704L216.308 46.0052L216.373 45.9399L216.438 45.8747L216.503 45.8094L216.568 45.7442L216.633 45.6789L216.698 45.6137L214.815 45.6789L214.88 45.6137V45.5484L214.945 45.4831L215.01 45.4179L215.075 45.3526L215.14 45.2874H215.205H215.27H215.334H215.464H215.529H215.594L215.659 45.3526L215.724 45.4179V45.4831V45.5484V45.6137V45.6789L215.659 45.8747L215.594 45.9399ZM127.635 45.0916L127.505 45.2221L127.44 45.2874L127.375 45.3526L127.31 45.4179L127.246 45.4831L127.181 45.5484L127.116 45.6137V45.6789V45.7442V45.8094V45.8747V45.9399V46.0052V46.0704V46.1357V46.201V46.2662V46.3315V46.3967V46.462V46.5272V46.5925V46.6577V46.723V46.7883V46.8535L127.051 46.9188V46.984L126.986 47.0493L126.921 47.1145L126.856 47.1798L126.791 47.245H126.726H126.661H126.596H126.467H126.402H126.337L126.272 47.1798L126.207 47.1145V47.0493V46.984V46.9188V46.8535V46.7883V46.723V46.6577V46.5925V46.5272V46.462L126.272 46.3315L126.337 46.2662V46.201V46.1357V46.0704V46.0052V45.9399V45.8747V45.8094V45.7442V45.6789V45.6137V45.5484V45.4831V45.4179V45.3526V45.2874V45.2221V45.1569V45.0916V45.0264V44.9611V44.8958V44.8306V44.7653L124.714 41.9593H125.688L125.753 42.0898L125.817 42.1551L125.882 42.2204L125.947 42.2856L126.012 42.3509L126.077 42.4161L126.142 42.4814L126.207 42.5466L126.272 42.6119L126.337 42.6771L126.402 42.7424L126.467 42.8077L126.532 42.8729L126.596 42.9382L126.661 43.0034L126.726 43.0687L126.791 43.1339L126.856 43.1992L126.921 43.2645L126.986 43.3297L127.051 43.395L127.116 43.4602L127.181 43.5255L127.246 43.5907L127.31 43.656L127.375 43.7212L127.44 43.7865L127.505 43.8517L127.57 43.917L127.635 43.9823L127.7 44.0475L127.765 44.1128L127.83 44.178L127.895 44.1128L127.96 44.0475L131.076 41.6331H132.179L128.544 44.4391L128.479 44.5043L128.414 44.5696L127.635 45.0916ZM156.197 45.9399L156.133 46.0704L156.068 46.201L156.003 46.3315L155.938 46.462L155.873 46.5925L155.808 46.6577L155.743 46.723L155.678 46.7883L155.613 46.8535L155.548 46.9188L155.483 46.984L155.418 47.0493L155.354 47.1145H155.289H155.224H155.159H155.094H155.029H154.964H154.899H154.834H154.769H154.704H154.639H154.575H154.51H154.445H154.38H154.315H154.25H154.185H154.12H154.055H153.99H153.925H153.796H153.666H153.536H153.406H153.276H153.146H153.017H152.887H152.757H152.627H152.497H152.367H152.238H152.108H151.978H151.848H151.718H151.588H151.459H151.394H151.329H151.264H151.199H151.134H151.069H151.004H150.939H150.874H150.81H150.745H150.68H150.615H150.55H150.485H150.42H150.355H150.29H150.225H150.16H150.095V47.0493V46.984V46.9188V46.8535V46.7883V46.723V46.6577V46.5925V46.5272V46.462V46.3967V46.3315V46.2662V46.201V46.1357V46.0704V46.0052V45.9399V45.8747V45.8094V45.7442V45.6789V45.6137V45.5484V45.4831V45.4179V45.2874V45.1569L150.16 45.0264L150.225 44.8958L150.29 44.7653L150.355 44.6348L150.42 44.5043L150.485 44.3738L150.55 44.2433L150.615 44.1128L150.68 43.9823L150.745 43.8517L150.81 43.7865L150.874 43.7212L150.939 43.656L151.004 43.5907L151.069 43.5255L151.134 43.4602L151.199 43.395L151.264 43.3297L151.329 43.2645L151.394 43.1992L151.459 43.1339L151.524 43.0687L151.588 43.0034L151.653 42.9382L151.718 42.8729L151.783 42.8077L151.848 42.7424L151.913 42.6771L151.978 42.6119L152.043 42.5466L152.108 42.4814L152.173 42.4161H151.848L151.913 42.3509H151.978H152.043H152.108H152.173H152.238H152.303H152.367H152.432H152.497H152.562H152.627H152.692H152.757H152.822H152.887H152.952H153.017H153.082H153.146H153.211H153.341H153.471H153.601H153.731H153.86H153.99H154.12H154.25H154.38H154.51H154.639H154.769H154.899H155.029H155.159H155.289H155.418H155.548H155.678H155.743H155.808H155.873H155.938H156.003H156.068H156.133H156.197H156.262H156.327H156.392H156.457H156.522H156.587H156.652H156.717H156.782H156.847H156.911H156.976H157.041H157.106H157.171H157.236L157.301 42.4161L157.366 42.4814L157.431 42.5466V42.6119V42.6771V42.7424V42.8077V42.8729V42.9382V43.0687V43.1992V43.3297V43.4602L157.366 43.5907L157.301 43.7212L157.236 43.8517V43.917L157.171 43.9823L157.106 44.0475L157.041 44.1128L156.976 44.178H156.911H156.847H156.782H156.392H156.327H156.262L156.197 44.1128L156.133 44.0475V43.9823V43.917V43.8517V43.7865L156.197 43.7212V43.656V43.5907V43.5255V43.4602V43.395V43.3297V43.2645V43.1992V43.1339V43.0687H156.133H156.068H156.003H155.938H155.873H155.808H155.743H155.678H155.613H155.548H155.483H155.418H155.354H155.289H155.224H155.159H155.094H155.029H154.964H154.899H154.834H154.769H154.704H154.639H154.575H154.445H154.315H154.25H154.185H154.12H154.055H153.99H153.925H153.86H153.796H153.731H153.666H153.601H153.536H153.471H153.406H153.341H153.276H153.211H153.146H153.082H153.017H152.952H152.887H152.822H152.757H152.692H152.627V43.1339V43.1992V43.2645V43.3297V43.395V43.4602V43.5255V43.5907V43.656V43.7212V43.7865V43.8517V43.917V43.9823V44.0475V44.1128V44.178V44.2433V44.3085V44.3738V44.4391V44.5043V44.5696V44.6348L152.562 44.8306L152.497 45.0264L152.432 45.1569L152.367 45.2874L152.303 45.4179L152.238 45.5484V45.6789V45.8094V45.9399V46.0052V46.0704V46.1357V46.201V46.2662H152.303H152.367H152.432H152.497H152.562H152.627H152.692H152.757H152.822H152.887H152.952H153.017H153.082H153.146H153.211H153.276H153.341H153.406H153.471H153.536H153.601H153.666H153.731H153.86H153.925H153.99H154.055H154.12H154.185H154.25H154.315H154.38H154.445H154.51H154.575H154.639H154.704H154.769H154.834H154.899H154.964H155.029H155.094H155.159H155.224H155.289H155.354H155.418H155.483H155.548H155.613H155.678H155.743H155.808H155.873L155.938 46.201L156.003 46.1357L156.068 46.0704L156.133 46.0052L156.197 45.9399L156.262 45.8747L156.327 45.8094L156.392 45.7442L156.457 45.6789L156.522 45.6137L156.587 45.5484L156.652 45.4831L156.717 45.4179V45.3526L156.782 45.2874L156.847 45.2221L156.911 45.1569L156.976 45.0916H157.041H157.106H157.171H157.301H157.366H157.431L157.496 45.1569L157.561 45.2221V45.2874V45.3526V45.4179V45.4831L157.496 45.6137L157.431 45.7442L156.197 45.9399ZM108.745 43.3297L108.615 43.4602L108.485 43.5907L108.355 43.7212L108.226 43.8517L108.096 43.9823L107.966 44.1128L107.771 44.3738L107.641 44.5043L107.512 44.6348L107.382 44.7653L107.252 44.8958L107.122 45.0264L106.992 45.1569L106.798 45.4179L106.733 45.4831L109.459 46.0052L108.94 43.3297H108.68H108.745ZM106.733 45.4831L106.668 45.5484L106.538 45.6789L106.408 45.8094L106.278 45.9399L106.148 46.0704L105.889 46.3315L105.759 46.462L105.629 46.5925L105.499 46.723L105.369 46.8535L105.24 46.984L105.11 47.1145L104.98 47.245H103.941L108.161 42.6119L108.291 42.4814L108.42 42.3509L108.55 42.2204L108.68 42.1551L108.81 42.0898L108.94 42.0246H109.07H109.199H109.329L109.459 42.0898L109.524 42.1551L109.589 42.2204L109.654 42.2856L109.719 42.4161L109.784 42.5466V42.6771L110.757 47.3756L106.733 45.4831ZM98.2937 44.5696L98.4885 44.3085L98.6183 44.178L98.7481 44.0475L98.878 43.917L99.0078 43.7865L99.1376 43.656L99.2675 43.5255L99.4622 43.2645L99.592 43.1339L99.7218 43.0034L99.9166 42.7424L100.046 42.6119L100.176 42.4814L100.306 42.3509L100.436 42.2204L100.566 42.0898L100.696 41.9593H101.734L97.5148 46.5925L97.3849 46.723L97.2551 46.8535L97.1253 46.984L96.9954 47.0493L96.8656 47.1145L96.7358 47.1798H96.606H96.4761H96.3463L96.2165 47.1145L96.1516 47.0493L96.0866 46.984L96.0217 46.9188L95.9568 46.7883L95.8919 46.6577V46.5272L94.9831 41.9593H95.9568L96.8007 46.0704V46.1357L96.8656 46.0704L96.9954 45.9399L97.2551 45.6789L97.3849 45.5484L97.5148 45.4179L97.7095 45.1569L97.8393 45.0264L97.9692 44.8958L98.099 44.7653L98.2288 44.6348L98.3587 44.5043L98.2937 44.5696ZM87.9074 42.0246H88.0373H88.1022H88.1671L88.232 42.0898L88.2969 42.1551V42.2204V42.2856V42.3509V42.4161L88.232 42.5466L88.1022 42.8077L88.0373 42.9382L87.9723 43.0687L87.9074 43.1992L87.8425 43.3297L87.7776 43.4602L87.7127 43.5907L87.6478 43.7212L87.5829 43.8517L87.5179 43.9823L87.453 44.1128L87.5829 44.3738L87.5179 44.5043L87.453 44.6348L87.3881 44.7653L87.3232 44.8958L87.2583 45.0264L87.1934 45.1569L87.1285 45.2874L87.0635 45.4179L86.9986 45.5484L86.9337 45.6789L86.8688 45.8094L86.8039 45.9399L86.739 46.0704L86.6741 46.201L86.6091 46.3315L86.5442 46.462L86.4793 46.5925L86.4144 46.723V46.7883L86.3495 46.8535L86.2846 46.9188L86.2196 46.984L86.1547 47.0493H86.0898H86.0249H85.96H85.8302H85.7652H85.7003L85.6354 46.984L85.5705 46.9188V46.8535V46.7883V46.723V46.6577L85.6354 46.5272L85.7003 46.3967L85.7652 46.2662L85.8302 46.1357L85.8951 46.0052L85.96 45.8747L86.0249 45.7442L86.0898 45.6137L86.1547 45.4831L86.2196 45.3526L86.2846 45.2221L86.3495 45.0916L86.4144 44.9611L86.4793 44.8306L86.5442 44.7001L86.6091 44.5696L86.6741 44.4391L86.739 44.3085L86.8039 44.178L86.8688 44.0475L86.9337 43.917L86.9986 43.7865L87.0635 43.656L87.1285 43.5255L87.1934 43.395L87.2583 43.2645L87.3232 43.1339L87.3881 43.0034L87.453 42.8729L87.5829 42.6119L87.6478 42.4814V42.4161L87.7127 42.3509L87.7776 42.2856L87.8425 42.2204L87.9074 42.1551H87.9723H88.0373L87.9074 42.0246ZM189.888 42.0246H190.018H190.083H190.148L190.213 42.0898L190.278 42.1551V42.2204V42.2856V42.3509V42.4161L188.655 46.984V47.0493L188.59 47.1145L188.525 47.1798L188.46 47.245L188.395 47.3103H188.33H188.265H188.2H188.07H188.006H187.941L187.876 47.245L187.811 47.1798V47.1145V47.0493V46.984V46.9188L189.434 42.3509V42.2856L189.499 42.2204L189.563 42.1551L189.628 42.0898L189.693 42.0246H189.758H189.823H189.888Z" fill="white"/>
<path fill-rule="evenodd" clip-rule="evenodd" d="M112.315 13.3774L111.796 13.3121L138.671 13.1163C139.32 16.3139 140.034 19.4461 140.683 22.6437L140.099 23.3615L137.567 14.552L112.315 13.3774ZM149.252 12.529L152.952 12.7248L143.02 24.6666C141.657 26.298 139.904 27.9294 137.827 25.9065C138.346 26.2327 138.995 26.3633 139.644 26.037C140.293 25.7107 140.683 25.1887 141.267 24.6014L150.29 13.5731L149.252 12.529ZM154.185 13.0511C154.899 14.552 155.289 16.2486 155.289 18.0105C155.289 24.5361 150.031 29.8218 143.539 29.8218C137.048 29.8218 131.725 24.5361 131.725 18.0105C131.725 17.619 131.725 17.2275 131.79 16.8359L135.165 17.1622L135.23 17.4885L135.295 17.7495L135.36 18.0105L135.425 18.2715L135.49 18.5326L135.555 18.7936L135.62 19.0546L135.684 19.3156L135.749 19.5767L135.814 19.8377L135.879 20.0987L135.944 20.3597L136.009 20.6208L136.074 20.8818L136.139 21.1428L136.269 21.7301L136.334 21.9911L136.399 22.2521L136.463 22.5132L136.528 22.7742L136.593 23.0352L136.658 23.2962L136.788 23.8835L136.853 24.1446L136.918 24.4056L136.983 24.6666L136.918 25.4497L136.983 25.7107L137.048 25.9717L137.177 26.2327L137.307 26.4938L137.437 26.7548L137.567 26.9506L137.762 27.1463L137.956 27.3421L138.151 27.5379L138.346 27.6684L138.541 27.7989L138.735 27.9294L138.93 27.9946L139.125 28.0599L139.32 28.1252H139.514H139.709H139.904H140.099L140.293 28.0599L140.488 27.9946L140.683 27.9294L140.878 27.8641L141.072 27.7989L141.267 27.7336L141.397 27.6684L141.527 27.6031L141.657 27.5379L141.786 27.4726L141.916 27.4073L142.046 27.2768L142.176 27.1463L142.306 27.0158L142.436 26.8853L142.565 26.7548L142.695 26.6243L142.825 26.4938L142.955 26.3633L143.085 26.2327L143.215 26.1022L143.344 25.9717L143.409 25.8412L143.474 25.7107L143.539 25.5802L143.604 25.4497L143.669 25.3192L143.734 25.1887L143.799 25.1234L144.123 24.7319L144.448 24.3403L144.772 23.9488L145.097 23.5573L145.422 23.1657L145.746 22.7742L146.071 22.3827L146.395 21.9911L146.72 21.5996L147.044 21.2081L147.369 20.8165L147.694 20.425L148.018 20.0334L148.343 19.6419L148.667 19.2504L148.992 18.8588L149.316 18.4673L149.641 18.0758L149.966 17.6842L150.29 17.2927L150.874 16.5749L151.199 16.1834L151.524 15.7918L151.848 15.4003L152.173 15.0088L152.497 14.6172L152.822 14.2257L153.146 13.8342L153.471 13.4426L153.796 13.0511H154.185ZM143.474 6.19923C147.629 6.19923 151.264 8.35267 153.341 11.5502L148.797 11.6807L148.213 12.3985L147.953 12.7248L147.694 13.0511L147.434 13.3774L147.174 13.7036L146.915 14.0299L146.655 14.3562L146.395 14.6825L146.136 15.0088L145.876 15.335L145.616 15.6613L145.357 15.9876L145.097 16.3139L144.837 16.6401L144.578 16.9664L144.318 17.2927L144.058 17.619L143.799 17.9453L143.279 18.5978L143.02 18.9241L142.76 19.2504L142.5 19.5767L142.241 19.9029L141.981 20.2292L141.592 20.7513L141.527 20.5555L141.462 20.2292L141.397 19.9029L141.332 19.5767L141.267 19.2504L141.202 18.9241L141.137 18.5978L141.072 18.2715L141.007 17.9453L140.943 17.619L140.878 17.2927L140.813 16.9664L140.748 16.6401L140.683 16.3139L140.618 15.9876L140.553 15.6613L140.488 15.335L140.423 15.0088L140.358 14.6825L140.293 14.3562L140.228 14.0299L140.164 13.7036L139.774 11.8112L133.412 11.9417C135.295 8.54844 139.125 6.19923 143.474 6.19923ZM143.474 4.82886C150.81 4.82886 156.587 10.8976 156.587 18.0105C156.587 25.3192 150.745 31.1922 143.474 31.1922C136.204 31.1922 130.361 25.3192 130.361 18.0105C130.361 17.5537 130.361 17.1622 130.426 16.7054L101.345 13.1163L131.725 12.1375C133.867 7.83062 138.346 4.82886 143.474 4.82886Z" fill="white"/>
<path d="M93.9443 64.4727L94.0742 64.0812C94.1391 64.1464 94.204 64.1464 94.3338 64.2117C94.4636 64.2117 94.5286 64.2769 94.6584 64.2769C94.8531 64.2769 94.9181 64.2117 95.0479 64.1464C95.1777 64.0812 95.1777 63.9507 95.1777 63.8202C95.1777 63.6896 95.1128 63.6244 95.0479 63.4939C94.983 63.4286 94.8531 63.2981 94.6584 63.1676C94.4636 63.0371 94.3338 62.9066 94.2689 62.7761C94.204 62.6456 94.1391 62.515 94.1391 62.3845C94.1391 62.1235 94.204 61.9277 94.3987 61.732C94.5935 61.6015 94.7882 61.4709 95.0479 61.4709C95.3725 61.4709 95.5672 61.471 95.6321 61.5362L95.5023 61.9277C95.4374 61.9277 95.3725 61.8625 95.3075 61.8625C95.2426 61.8625 95.1128 61.7972 95.0479 61.7972C94.8531 61.7972 94.7233 61.8625 94.6584 61.9277C94.5286 61.993 94.5286 62.1235 94.5286 62.254C94.5286 62.3193 94.5286 62.3845 94.5935 62.4498C94.5935 62.515 94.6584 62.5803 94.7233 62.5803C94.7882 62.6456 94.9181 62.7108 95.0479 62.8413C95.2426 62.9718 95.3075 63.1023 95.4374 63.2329C95.5023 63.3634 95.5672 63.4939 95.5672 63.6896C95.5672 63.9507 95.5023 64.1464 95.3075 64.3422C95.1128 64.4727 94.9181 64.538 94.5935 64.538C94.4637 64.538 94.3987 64.538 94.204 64.4727C94.0742 64.6032 94.0093 64.538 93.9443 64.4727Z" fill="white"/>
<path d="M99.5919 62.5149L99.3323 63.82C99.3323 63.8853 99.3323 63.9505 99.3323 64.0158C99.3323 64.2115 99.3972 64.4073 99.4621 64.6031H99.0726C99.0726 64.5378 99.0077 64.4726 99.0077 64.4073C98.9428 64.4726 98.8779 64.5378 98.7481 64.6031C98.6182 64.6683 98.4884 64.6683 98.3586 64.6683C98.1638 64.6683 97.9691 64.6031 97.8393 64.4726C97.7094 64.3421 97.6445 64.1463 97.6445 63.9505C97.6445 63.559 97.7744 63.1675 97.9691 62.9064C98.2288 62.5802 98.4884 62.4496 98.8779 62.4496C99.2025 62.3844 99.4621 62.4496 99.5919 62.5149ZM99.2025 62.7759C99.1375 62.7107 99.0726 62.7107 98.813 62.7107C98.5533 62.7107 98.4235 62.8412 98.2288 63.0369C98.034 63.2327 97.9691 63.559 97.9691 63.8853C97.9691 64.1463 98.0989 64.3421 98.3586 64.3421C98.4884 64.3421 98.6182 64.2768 98.7481 64.1463C98.8779 64.0158 98.9428 63.82 99.0077 63.6242L99.2025 62.7759Z" fill="white"/>
<path d="M101.67 64.6031L101.994 62.7107H101.735L101.8 62.3845H102.449L102.059 64.6031H101.67ZM102.254 61.5361C102.319 61.5361 102.384 61.5361 102.449 61.6014C102.514 61.6666 102.514 61.7319 102.514 61.7972C102.514 61.8624 102.514 61.9277 102.449 61.9929C102.384 62.0582 102.319 62.0582 102.254 62.0582C102.189 62.0582 102.124 62.0582 102.059 61.9929C101.994 61.9277 101.994 61.8624 101.994 61.7972C101.994 61.7319 101.994 61.6666 102.059 61.6014C102.124 61.6014 102.189 61.5361 102.254 61.5361Z" fill="white"/>
<path d="M105.369 64.3422L105.304 64.6032C104.85 64.6032 104.655 64.4075 104.655 64.0812C104.655 64.0159 104.72 63.7549 104.785 63.4286L105.175 61.4709H105.564L105.175 63.3634C105.11 63.7549 105.045 64.0159 105.045 64.0812C105.11 64.2769 105.175 64.3422 105.369 64.3422Z" fill="white"/>
<path d="M110.368 61.9929L109.914 64.6031H109.524L109.979 61.9929H109.005L109.07 61.6013H111.407L111.342 61.9929H110.368Z" fill="white"/>
<path d="M114.068 62.776C114.003 62.7107 113.873 62.6454 113.809 62.6454C113.679 62.6454 113.549 62.7107 113.419 62.8412C113.289 62.9717 113.224 63.1022 113.159 63.298L112.965 64.5379H112.575L112.965 62.3192H113.354L113.289 62.6454C113.484 62.3844 113.679 62.2539 114.003 62.2539C114.068 62.2539 114.133 62.2539 114.198 62.2539L114.068 62.776Z" fill="white"/>
<path d="M117.963 62.5149L117.703 63.82C117.703 63.8853 117.703 63.9505 117.703 64.0158C117.703 64.2115 117.768 64.4073 117.833 64.6031H117.444C117.444 64.5378 117.379 64.4726 117.379 64.4073C117.314 64.4726 117.249 64.5378 117.119 64.6031C116.989 64.6683 116.86 64.6683 116.73 64.6683C116.535 64.6683 116.34 64.6031 116.21 64.4726C116.081 64.3421 116.016 64.1463 116.016 63.9505C116.016 63.559 116.145 63.1675 116.34 62.9064C116.6 62.5802 116.86 62.4496 117.249 62.4496C117.574 62.3844 117.833 62.4496 117.963 62.5149ZM117.574 62.7759C117.509 62.7107 117.444 62.7107 117.184 62.7107C116.924 62.7107 116.795 62.8412 116.6 63.0369C116.405 63.298 116.34 63.559 116.34 63.8853C116.34 64.1463 116.47 64.3421 116.73 64.3421C116.86 64.3421 116.989 64.2768 117.119 64.1463C117.249 64.0158 117.314 63.82 117.379 63.6242L117.574 62.7759Z" fill="white"/>
<path d="M121.273 64.6033L121.468 63.2982C121.468 63.1677 121.533 63.1024 121.533 63.0371C121.533 62.7761 121.403 62.7109 121.144 62.7109C121.079 62.7109 120.949 62.7109 120.819 62.7761C120.689 62.8414 120.624 62.9066 120.559 62.9719L120.3 64.6033H119.91L120.17 62.9066C120.17 62.8414 120.17 62.8414 120.17 62.7761C120.17 62.6456 120.17 62.5151 120.105 62.3846L120.494 62.3193C120.559 62.5151 120.559 62.6456 120.559 62.6456C120.754 62.4498 120.949 62.3193 121.273 62.3193C121.663 62.3193 121.858 62.5151 121.858 62.9066C121.858 62.9719 121.858 63.1024 121.858 63.1677L121.598 64.538H121.273V64.6033Z" fill="white"/>
<path d="M124.065 64.6031L124.39 62.7107H124.13L124.195 62.3845H124.844L124.455 64.6031H124.065ZM124.65 61.5361C124.715 61.5361 124.779 61.5361 124.844 61.6014C124.909 61.6666 124.909 61.7319 124.909 61.7972C124.909 61.8624 124.909 61.9277 124.844 61.9929C124.779 62.0582 124.715 62.0582 124.65 62.0582C124.585 62.0582 124.52 62.0582 124.455 61.9929C124.39 61.9277 124.39 61.8624 124.39 61.7972C124.39 61.7319 124.39 61.6666 124.455 61.6014C124.52 61.6014 124.585 61.5361 124.65 61.5361Z" fill="white"/>
<path d="M128.22 64.6033L128.414 63.2982C128.414 63.1677 128.479 63.1024 128.479 63.0371C128.479 62.7761 128.349 62.7109 128.09 62.7109C128.025 62.7109 127.895 62.7109 127.765 62.7761C127.635 62.8414 127.571 62.9066 127.506 62.9719L127.246 64.6033H126.856L127.116 62.9066C127.116 62.8414 127.116 62.8414 127.116 62.7761C127.116 62.6456 127.116 62.5151 127.051 62.3846L127.441 62.3193C127.506 62.5151 127.506 62.6456 127.506 62.6456C127.7 62.4498 127.895 62.3193 128.22 62.3193C128.609 62.3193 128.804 62.5151 128.804 62.9066C128.804 62.9719 128.804 63.1024 128.804 63.1677L128.544 64.538H128.22V64.6033Z" fill="white"/>
<path d="M130.751 65.1906L130.946 64.9296C131.205 65.0601 131.4 65.1253 131.595 65.1253C131.79 65.1253 131.919 65.0601 132.049 64.9948C132.179 64.9296 132.244 64.8643 132.244 64.7338C132.244 64.6685 132.244 64.6033 132.179 64.6033C132.114 64.538 132.049 64.538 131.984 64.538L131.595 64.4728C131.465 64.4075 131.4 64.3423 131.4 64.277C131.4 64.2117 131.53 64.0812 131.725 64.016H131.66C131.53 64.016 131.335 63.9507 131.27 63.8202C131.14 63.6897 131.076 63.5592 131.076 63.3634C131.076 63.1024 131.14 62.8414 131.335 62.6456C131.53 62.4498 131.725 62.3846 132.049 62.3846C132.244 62.3846 132.439 62.4498 132.504 62.5151L132.698 62.3193L132.893 62.5151L132.698 62.7109C132.763 62.7761 132.763 62.8414 132.763 62.9719C132.763 63.2329 132.698 63.4287 132.569 63.5592C132.439 63.6897 132.309 63.8202 132.114 63.8855C131.919 63.9507 131.855 64.016 131.855 64.0812C131.855 64.1465 131.855 64.1465 131.919 64.1465H131.984C132.049 64.1465 132.049 64.1465 132.049 64.1465C132.374 64.1465 132.569 64.277 132.569 64.6033C132.569 64.8643 132.439 65.0601 132.244 65.1906C132.049 65.3211 131.79 65.3863 131.465 65.3863C131.14 65.4516 130.946 65.3863 130.751 65.1906ZM131.919 62.7109C131.79 62.7109 131.66 62.7761 131.53 62.9066C131.4 63.0371 131.335 63.1677 131.335 63.3634C131.335 63.6897 131.465 63.8202 131.66 63.8202C131.79 63.8202 131.919 63.755 132.049 63.6244C132.179 63.4939 132.244 63.2982 132.244 63.1677C132.244 63.0371 132.179 62.9719 132.114 62.9066C132.179 62.7109 132.049 62.7109 131.919 62.7109Z" fill="white"/>
<path d="M137.568 64.6031L137.503 63.9506H136.399L136.075 64.6031H135.62L137.373 61.5361H137.503L138.087 64.6031H137.568ZM137.243 62.3845L136.594 63.6896H137.438L137.243 62.3845Z" fill="white"/>
<path d="M139.969 64.4728L140.163 64.0812C140.228 64.1465 140.293 64.2117 140.423 64.2117C140.488 64.277 140.618 64.277 140.683 64.277C140.813 64.277 140.878 64.2117 141.007 64.1465C141.137 64.0812 141.137 64.016 141.137 63.8855C141.137 63.8202 141.137 63.755 141.072 63.755C141.007 63.755 140.942 63.6897 140.878 63.6244L140.618 63.4939C140.553 63.4287 140.488 63.3634 140.423 63.2982C140.358 63.2329 140.358 63.1677 140.358 63.0371C140.358 62.8414 140.423 62.6456 140.618 62.5151C140.748 62.3846 140.942 62.3193 141.202 62.3193C141.332 62.3193 141.527 62.3846 141.786 62.4498L141.592 62.8414C141.462 62.7109 141.332 62.6456 141.137 62.6456C141.007 62.6456 140.942 62.6456 140.878 62.7109C140.813 62.7761 140.748 62.8414 140.748 62.9066C140.748 62.9719 140.748 63.0371 140.813 63.0371C140.878 63.1024 140.942 63.1024 141.007 63.1677L141.267 63.2982C141.332 63.3634 141.397 63.4287 141.462 63.4939C141.527 63.5592 141.527 63.6244 141.527 63.755C141.527 64.016 141.462 64.1465 141.267 64.3423C141.072 64.4728 140.878 64.538 140.618 64.538C140.358 64.6685 140.163 64.6033 139.969 64.4728Z" fill="white"/>
<path d="M143.345 64.4728L143.539 64.0812C143.604 64.1465 143.669 64.2117 143.799 64.2117C143.864 64.277 143.994 64.277 144.059 64.277C144.189 64.277 144.254 64.2117 144.383 64.1465C144.513 64.0812 144.513 64.016 144.513 63.8855C144.513 63.8202 144.513 63.755 144.448 63.755C144.383 63.755 144.318 63.6897 144.254 63.6244L143.994 63.4939C143.929 63.4287 143.864 63.3634 143.799 63.2982C143.734 63.2329 143.734 63.1677 143.734 63.0371C143.734 62.8414 143.799 62.6456 143.994 62.5151C144.124 62.3846 144.318 62.3193 144.578 62.3193C144.708 62.3193 144.903 62.3846 145.162 62.4498L144.968 62.8414C144.838 62.7109 144.708 62.6456 144.513 62.6456C144.383 62.6456 144.318 62.6456 144.254 62.7109C144.189 62.7761 144.124 62.8414 144.124 62.9066C144.124 62.9719 144.124 63.0371 144.189 63.0371C144.254 63.1024 144.318 63.1024 144.383 63.1677L144.643 63.2982C144.708 63.3634 144.773 63.4287 144.838 63.4939C144.903 63.5592 144.903 63.6244 144.903 63.755C144.903 64.016 144.838 64.1465 144.643 64.3423C144.448 64.4728 144.254 64.538 143.994 64.538C143.734 64.6685 143.539 64.6033 143.345 64.4728Z" fill="white"/>
<path d="M146.915 63.8201C146.915 63.4285 147.045 63.1023 147.24 62.8412C147.434 62.5802 147.759 62.4497 148.084 62.4497C148.343 62.4497 148.538 62.515 148.668 62.6455C148.798 62.776 148.862 62.9718 148.862 63.2328C148.862 63.4285 148.798 63.6896 148.733 63.8853C148.668 64.0811 148.538 64.2769 148.343 64.4726C148.148 64.6031 147.954 64.6684 147.694 64.6684C147.434 64.6684 147.24 64.6031 147.11 64.4726C146.98 64.2769 146.915 64.0811 146.915 63.8201ZM147.305 63.7548C147.305 64.1464 147.434 64.2769 147.759 64.2769C148.019 64.2769 148.148 64.1464 148.278 63.9506C148.408 63.7548 148.473 63.4938 148.473 63.1675C148.473 62.8412 148.343 62.6455 148.019 62.6455C147.889 62.6455 147.759 62.7107 147.629 62.8412C147.499 62.9718 147.434 63.1023 147.369 63.298C147.369 63.4285 147.305 63.6243 147.305 63.7548Z" fill="white"/>
<path d="M152.628 62.4497L152.563 62.776C152.498 62.7107 152.303 62.6454 152.173 62.6454C151.914 62.6454 151.719 62.776 151.589 62.9717C151.459 63.1675 151.329 63.4285 151.329 63.6895C151.329 63.8853 151.394 64.0158 151.459 64.0811C151.524 64.1463 151.654 64.2116 151.784 64.2116C151.979 64.2116 152.173 64.1463 152.368 64.0158L152.303 64.4073C152.108 64.4726 151.914 64.5379 151.719 64.5379C151.459 64.5379 151.264 64.4726 151.07 64.2768C150.94 64.1463 150.875 63.8853 150.875 63.6895C150.875 63.298 151.005 62.9065 151.2 62.6454C151.459 62.3844 151.719 62.2539 152.043 62.2539C152.303 62.3844 152.498 62.3844 152.628 62.4497Z" fill="white"/>
<path d="M154.64 64.6031L154.964 62.7107H154.705L154.769 62.3845H155.419L155.029 64.6031H154.64ZM155.289 61.5361C155.354 61.5361 155.419 61.5361 155.484 61.6014C155.548 61.6666 155.548 61.7319 155.548 61.7972C155.548 61.8624 155.548 61.9277 155.484 61.9929C155.419 62.0582 155.354 62.0582 155.289 62.0582C155.224 62.0582 155.159 62.0582 155.094 61.9929C155.029 61.9277 155.029 61.8624 155.029 61.7972C155.029 61.7319 155.029 61.6666 155.094 61.6014C155.159 61.6014 155.159 61.5361 155.289 61.5361Z" fill="white"/>
<path d="M159.508 62.5149L159.248 63.82C159.248 63.8853 159.248 63.9505 159.248 64.0158C159.248 64.2115 159.313 64.4073 159.378 64.6031H158.989C158.989 64.5378 158.924 64.4726 158.924 64.4073C158.859 64.4726 158.794 64.5378 158.664 64.6031C158.534 64.6683 158.404 64.6683 158.275 64.6683C158.08 64.6683 157.885 64.6031 157.755 64.4726C157.625 64.3421 157.561 64.1463 157.561 63.9505C157.561 63.559 157.69 63.1675 157.885 62.9064C158.145 62.5802 158.404 62.4496 158.794 62.4496C159.118 62.3844 159.378 62.4496 159.508 62.5149ZM159.054 62.7759C158.989 62.7107 158.924 62.7107 158.664 62.7107C158.404 62.7107 158.275 62.8412 158.08 63.0369C157.885 63.298 157.82 63.559 157.82 63.8853C157.82 64.1463 157.95 64.3421 158.21 64.3421C158.34 64.3421 158.469 64.2768 158.599 64.1463C158.729 64.0158 158.794 63.82 158.859 63.6242L159.054 62.7759Z" fill="white"/>
<path d="M161.91 62.7108H161.65L161.715 62.3845H161.975L162.04 61.9277L162.494 61.7319L162.364 62.3845H162.949L162.884 62.7108H162.3L162.04 63.8201C162.04 63.8854 162.04 63.9506 162.04 64.0159C162.04 64.2116 162.17 64.3422 162.364 64.3422C162.494 64.3422 162.559 64.3422 162.689 64.2769V64.6032C162.559 64.6684 162.429 64.6684 162.17 64.6684C162.04 64.6684 161.91 64.6032 161.78 64.5379C161.715 64.4727 161.65 64.3422 161.65 64.1464C161.65 64.0811 161.65 64.0811 161.65 64.0159L161.91 62.7108Z" fill="white"/>
<path d="M165.026 64.6031L165.351 62.7107H165.091L165.156 62.3845H165.805L165.416 64.6031H165.026ZM165.676 61.5361C165.74 61.5361 165.805 61.5361 165.87 61.6014C165.935 61.6666 165.935 61.7319 165.935 61.7972C165.935 61.8624 165.935 61.9277 165.87 61.9929C165.805 62.0582 165.74 62.0582 165.676 62.0582C165.611 62.0582 165.546 62.0582 165.481 61.9929C165.416 61.9277 165.416 61.8624 165.416 61.7972C165.416 61.7319 165.416 61.6666 165.481 61.6014C165.481 61.6014 165.546 61.5361 165.676 61.5361Z" fill="white"/>
<path d="M167.883 63.8201C167.883 63.4285 168.013 63.1023 168.207 62.8412C168.402 62.5802 168.727 62.4497 169.051 62.4497C169.311 62.4497 169.506 62.515 169.636 62.6455C169.765 62.776 169.83 62.9718 169.83 63.2328C169.83 63.4285 169.765 63.6896 169.7 63.8853C169.636 64.0811 169.506 64.2769 169.311 64.4726C169.116 64.6031 168.921 64.6684 168.662 64.6684C168.402 64.6684 168.207 64.6031 168.078 64.4726C167.948 64.2769 167.883 64.0811 167.883 63.8201ZM168.272 63.7548C168.272 64.1464 168.402 64.2769 168.727 64.2769C168.986 64.2769 169.116 64.1464 169.246 63.9506C169.376 63.7548 169.441 63.4938 169.441 63.1675C169.441 62.8412 169.311 62.6455 168.986 62.6455C168.857 62.6455 168.727 62.7107 168.597 62.8412C168.467 62.9718 168.402 63.1023 168.337 63.298C168.337 63.4285 168.272 63.6243 168.272 63.7548Z" fill="white"/>
<path d="M173.205 64.6033L173.4 63.2982C173.4 63.1677 173.465 63.1024 173.465 63.0371C173.465 62.7761 173.335 62.7109 173.075 62.7109C173.01 62.7109 172.88 62.7109 172.751 62.7761C172.621 62.8414 172.556 62.9066 172.491 62.9719L172.231 64.6033H171.842L172.101 62.9066C172.101 62.8414 172.101 62.8414 172.101 62.7761C172.101 62.6456 172.101 62.5151 172.037 62.3846L172.426 62.3193C172.491 62.5151 172.491 62.6456 172.491 62.6456C172.686 62.4498 172.88 62.3193 173.205 62.3193C173.594 62.3193 173.789 62.5151 173.789 62.9066C173.789 62.9719 173.789 63.1024 173.789 63.1677L173.53 64.538H173.205V64.6033Z" fill="white"/>
<path d="M177.101 64.6031L177.685 61.6013H178.074L177.62 64.2116H178.983L178.918 64.6031H177.101Z" fill="white"/>
<path d="M182.943 62.5149L182.683 63.82C182.683 63.8853 182.683 63.9505 182.683 64.0158C182.683 64.2115 182.748 64.4073 182.813 64.6031H182.359C182.359 64.5378 182.294 64.4726 182.294 64.4073C182.229 64.4726 182.164 64.5378 182.034 64.6031C181.904 64.6683 181.775 64.6683 181.645 64.6683C181.45 64.6683 181.255 64.6031 181.125 64.4726C180.996 64.3421 180.931 64.1463 180.931 63.9505C180.931 63.559 181.06 63.1675 181.255 62.9064C181.515 62.5802 181.775 62.4496 182.164 62.4496C182.554 62.3844 182.748 62.4496 182.943 62.5149ZM182.489 62.7759C182.424 62.7107 182.359 62.7107 182.099 62.7107C181.839 62.7107 181.71 62.8412 181.515 63.0369C181.32 63.298 181.255 63.559 181.255 63.8853C181.255 64.1463 181.385 64.3421 181.645 64.3421C181.775 64.3421 181.904 64.2768 182.034 64.1463C182.164 64.0158 182.229 63.82 182.294 63.6242L182.489 62.7759Z" fill="white"/>
<path d="M185.345 62.7108H185.085L185.15 62.3845H185.41L185.474 61.9277L185.929 61.7319L185.799 62.3845H186.383L186.318 62.7108H185.734L185.474 63.8201C185.474 63.8854 185.474 63.9506 185.474 64.0159C185.474 64.2116 185.604 64.3422 185.799 64.3422C185.929 64.3422 185.994 64.3422 186.124 64.2769V64.6032C185.994 64.6684 185.864 64.6684 185.604 64.6684C185.474 64.6684 185.345 64.6032 185.215 64.5379C185.15 64.4727 185.085 64.3422 185.085 64.1464C185.085 64.0811 185.085 64.0811 185.085 64.0159L185.345 62.7108Z" fill="white"/>
<path d="M189.11 64.6685H188.98L188.396 62.3845H188.785L189.174 63.8854L190.018 62.3845H190.473L189.11 64.6685Z" fill="white"/>
<path d="M192.226 64.6031L192.55 62.7107H192.29L192.355 62.3845H193.005L192.615 64.6031H192.226ZM192.81 61.5361C192.875 61.5361 192.94 61.5361 193.005 61.6014C193.069 61.6666 193.069 61.7319 193.069 61.7972C193.069 61.8624 193.069 61.9277 193.005 61.9929C192.94 62.0582 192.875 62.0582 192.81 62.0582C192.745 62.0582 192.68 62.0582 192.615 61.9929C192.55 61.9277 192.55 61.8624 192.55 61.7972C192.55 61.7319 192.55 61.6666 192.615 61.6014C192.68 61.6014 192.745 61.5361 192.81 61.5361Z" fill="white"/>
<path d="M197.094 62.5149L196.834 63.82C196.834 63.8853 196.834 63.9505 196.834 64.0158C196.834 64.2115 196.899 64.4073 196.964 64.6031H196.575C196.575 64.5378 196.51 64.4726 196.51 64.4073C196.445 64.4726 196.38 64.5378 196.25 64.6031C196.12 64.6683 195.99 64.6683 195.861 64.6683C195.666 64.6683 195.471 64.6031 195.341 64.4726C195.211 64.3421 195.146 64.1463 195.146 63.9505C195.146 63.559 195.276 63.1675 195.471 62.9064C195.731 62.5802 195.99 62.4496 196.38 62.4496C196.704 62.3844 196.899 62.4496 197.094 62.5149ZM196.64 62.7759C196.575 62.7107 196.51 62.7107 196.25 62.7107C195.99 62.7107 195.861 62.8412 195.666 63.0369C195.471 63.298 195.406 63.559 195.406 63.8853C195.406 64.1463 195.536 64.3421 195.796 64.3421C195.925 64.3421 196.055 64.2768 196.185 64.1463C196.315 64.0158 196.38 63.82 196.445 63.6242L196.64 62.7759Z" fill="white"/>
</svg>
