<svg width="21" height="21" viewBox="0 0 21 21" fill="none" xmlns="http://www.w3.org/2000/svg">
<g clip-path="url(#clip0_218:372)">
<path fill-rule="evenodd" clip-rule="evenodd" d="M3.85333 10.3333L3.83333 10.272C3.38333 8.89689 3 7.01778 3 5.88889C3 5.4 3.375 5 3.83333 5H6.33333C6.77536 5 7.19928 5.1873 7.51184 5.5207C7.8244 5.8541 8 6.30628 8 6.77778V8.55556C8 9.02705 7.8244 9.47924 7.51184 9.81263C7.19928 10.146 6.77536 10.3333 6.33333 10.3333H5.63583C6.30864 12.1013 7.30702 13.7074 8.57191 15.0566C9.8368 16.4058 11.3425 17.4708 13 18.1884V17.4444C13 16.9729 13.1756 16.5208 13.4882 16.1874C13.8007 15.854 14.2246 15.6667 14.6667 15.6667H16.3333C16.7754 15.6667 17.1993 15.854 17.5118 16.1874C17.8244 16.5208 18 16.9729 18 17.4444V20.1111C18 20.5111 17.5417 21 17.1667 21C15.7292 21 14.3 20.5947 13 20.1111C8.73833 18.4827 5.36 14.8791 3.85333 10.3333Z" fill="#3D5D6B" stroke="#3D5D6B"/>
</g>
<defs>
<clipPath id="clip0_218:372">
<rect width="21" height="21" fill="white"/>
</clipPath>
</defs>
</svg>
