<svg width="69" height="70" viewBox="0 0 69 70" fill="none" xmlns="http://www.w3.org/2000/svg">
<path d="M34.5009 69.735C15.4784 69.735 0.0117188 54.0954 0.0117188 34.8675C0.0117188 15.6396 15.4892 0 34.5009 0C53.5127 0 68.9901 15.6396 68.9901 34.8675C68.9901 54.0954 53.5127 69.735 34.5009 69.735ZM34.5009 1.65367C16.3862 1.65367 1.64377 16.5475 1.64377 34.8675C1.64377 53.1875 16.3862 68.0813 34.5009 68.0813C52.6156 68.0813 67.3581 53.1767 67.3581 34.8675C67.3581 16.5583 52.6156 1.65367 34.5009 1.65367Z" fill="white"/>
<path d="M63.7034 32.3924C63.2927 32.3924 62.936 32.079 62.8928 31.6575C62.8388 31.1171 62.7631 30.5875 62.6766 30.0687C62.601 29.6147 62.9036 29.1932 63.3468 29.1175C63.8007 29.0419 64.2114 29.3445 64.2871 29.7985C64.3843 30.3497 64.46 30.9117 64.514 31.4846C64.5681 31.9385 64.2438 32.3492 63.7899 32.3924C63.7575 32.3924 63.7358 32.3924 63.7034 32.3924Z" fill="white"/>
<path d="M62.7421 27.4853C62.3854 27.4853 62.0612 27.2475 61.9531 26.8909C61.6613 25.8533 61.2938 24.8157 60.8939 23.8213C60.721 23.3998 60.9155 22.9134 61.337 22.7405C61.7586 22.5675 62.2341 22.7621 62.4071 23.1836C62.8394 24.2428 63.2177 25.3345 63.5311 26.4369C63.6608 26.88 63.4014 27.334 62.9691 27.4637C62.8934 27.4745 62.8178 27.4853 62.7421 27.4853ZM60.213 21.303C59.9212 21.303 59.6509 21.1517 59.4996 20.8815C58.9808 19.9411 58.408 19.0116 57.7811 18.1253C57.5217 17.7579 57.6082 17.2391 57.9757 16.9689C58.3431 16.7095 58.8511 16.7851 59.1213 17.1634C59.7806 18.0929 60.3859 19.0765 60.9371 20.0708C61.1533 20.4707 61.0128 20.9787 60.6237 21.1949C60.4832 21.2706 60.3427 21.303 60.213 21.303ZM56.376 15.8664C56.1491 15.8664 55.9329 15.7691 55.7708 15.5962C55.0574 14.7964 54.29 14.0182 53.4902 13.294C53.1552 12.9914 53.1228 12.4726 53.4254 12.1268C53.728 11.7809 54.236 11.7485 54.5819 12.0619C55.4249 12.8293 56.2355 13.6399 56.9921 14.4938C57.2947 14.8288 57.2623 15.3584 56.9273 15.6611C56.7651 15.7908 56.5706 15.8664 56.376 15.8664ZM51.4259 11.4134C51.2637 11.4134 51.1016 11.3594 50.9503 11.2621C50.0748 10.6352 49.1561 10.0624 48.2158 9.53277C47.8159 9.3166 47.6754 8.80861 47.8915 8.40871C48.1077 8.0088 48.6049 7.85749 49.0048 8.08446C49.9992 8.63568 50.9719 9.25175 51.8906 9.91106C52.2581 10.1705 52.3446 10.6893 52.0852 11.0675C51.9338 11.2945 51.6853 11.4134 51.4259 11.4134ZM45.6326 8.20335C45.5245 8.20335 45.4273 8.18173 45.3192 8.1385C44.3248 7.72779 43.3088 7.37112 42.2821 7.07929C41.8497 6.9604 41.5903 6.49565 41.72 6.06331C41.8389 5.62018 42.2929 5.36078 42.7252 5.49048C43.8168 5.80392 44.8977 6.18221 45.9461 6.61454C46.3676 6.78747 46.5621 7.27384 46.3892 7.69536C46.2595 8.0088 45.9569 8.20335 45.6326 8.20335Z" fill="white"/>
<path d="M39.2561 6.37687C39.2129 6.37687 39.1696 6.37687 39.1264 6.36606C38.6076 6.27959 38.078 6.20394 37.5484 6.1499C37.0945 6.10666 36.7702 5.69595 36.8242 5.242C36.8675 4.78805 37.2782 4.46381 37.7213 4.50704C38.2834 4.57189 38.8346 4.64754 39.3858 4.73401C39.8289 4.80967 40.1316 5.23119 40.0667 5.68514C40.0019 6.09585 39.656 6.37687 39.2561 6.37687Z" fill="white"/>
<path d="M34.5001 65.401C17.8445 65.401 4.30176 51.7069 4.30176 34.8676C4.30176 18.0283 17.8553 4.33423 34.5001 4.33423C35.5809 4.33423 36.6617 4.38827 37.7209 4.50716C38.1749 4.55039 38.4991 4.96111 38.4451 5.41506C38.4018 5.869 37.9911 6.19325 37.548 6.15002C36.5428 6.04194 35.516 5.98789 34.5001 5.98789C18.7524 5.98789 5.9338 18.947 5.9338 34.8676C5.9338 50.7882 18.7524 63.7473 34.5001 63.7473C50.2477 63.7473 63.0663 50.7882 63.0663 34.8676C63.0663 33.7976 63.0123 32.7167 62.8934 31.6467C62.8393 31.1928 63.1636 30.7821 63.6175 30.7388C64.0715 30.6956 64.4714 31.0198 64.5254 31.4738C64.6443 32.5979 64.7092 33.7435 64.7092 34.8676C64.6984 51.7069 51.1556 65.401 34.5001 65.401Z" fill="white"/>
<path d="M34.5006 59.986C20.8065 59.986 9.65234 48.7238 9.65234 34.8676C9.65234 21.0222 20.7957 9.76001 34.5006 9.76001C48.1946 9.76001 59.338 21.0222 59.338 34.8676C59.338 48.7238 48.1946 59.986 34.5006 59.986ZM34.5006 11.4137C21.7036 11.4137 11.2952 21.9409 11.2952 34.8676C11.2952 47.7943 21.7036 58.3324 34.5006 58.3324C47.2975 58.3324 57.7059 47.8051 57.7059 34.8676C57.7059 21.9301 47.2975 11.4137 34.5006 11.4137Z" fill="white"/>
<path d="M34.5001 18.1364C34.0462 18.1364 33.6787 17.7689 33.6787 17.315V10.5814C33.6787 10.1275 34.0462 9.76001 34.5001 9.76001C34.9541 9.76001 35.3216 10.1275 35.3216 10.5814V17.3042C35.3108 17.7689 34.9541 18.1364 34.5001 18.1364Z" fill="white"/>
<path d="M43.1787 20.4925C43.0382 20.4925 42.8977 20.46 42.768 20.3844C42.3789 20.1574 42.2384 19.6494 42.4654 19.2603L45.7943 13.4347C46.0213 13.0348 46.5185 12.9051 46.9076 13.132C47.2967 13.359 47.4372 13.867 47.2102 14.2561L43.8921 20.0818C43.7408 20.3412 43.4597 20.4925 43.1787 20.4925Z" fill="white"/>
<path d="M49.5449 26.9125C49.2639 26.9125 48.9829 26.7611 48.8316 26.5017C48.6046 26.1018 48.7451 25.6047 49.1342 25.3777L54.895 22.0163C55.2841 21.7893 55.7813 21.919 56.0083 22.319C56.2353 22.7189 56.0947 23.216 55.7056 23.443L49.9448 26.8044C49.826 26.88 49.6854 26.9125 49.5449 26.9125Z" fill="white"/>
<path d="M58.5272 35.6997H51.8693C51.4153 35.6997 51.0479 35.3323 51.0479 34.8783C51.0479 34.4244 51.4153 34.0569 51.8693 34.0569H58.5272C58.9811 34.0569 59.3486 34.4244 59.3486 34.8783C59.3378 35.3323 58.9703 35.6997 58.5272 35.6997Z" fill="white"/>
<path d="M55.3057 47.8375C55.1652 47.8375 55.0247 47.8051 54.895 47.7294L49.1342 44.3681C48.7451 44.1411 48.6046 43.6331 48.8316 43.244C49.0586 42.8441 49.5557 42.7144 49.9448 42.9414L55.7056 46.3027C56.0947 46.5297 56.2353 47.0377 56.0083 47.4268C55.857 47.697 55.5868 47.8375 55.3057 47.8375Z" fill="white"/>
<path d="M46.5077 56.7327C46.2267 56.7327 45.9456 56.5814 45.7943 56.322L42.4654 50.4963C42.2384 50.0964 42.3789 49.5992 42.768 49.3723C43.1571 49.1453 43.6543 49.275 43.8813 49.6749L47.2102 55.5006C47.4372 55.9005 47.2967 56.3976 46.9076 56.6246C46.7887 56.6895 46.6482 56.7327 46.5077 56.7327Z" fill="white"/>
<path d="M34.5001 59.986C34.0462 59.986 33.6787 59.6185 33.6787 59.1645V52.4418C33.6787 51.9878 34.0462 51.6204 34.5001 51.6204C34.9541 51.6204 35.3216 51.9878 35.3216 52.4418V59.1645C35.3108 59.6185 34.9541 59.986 34.5001 59.986Z" fill="white"/>
<path d="M22.4815 56.7327C22.341 56.7327 22.2004 56.7003 22.0707 56.6246C21.6816 56.3976 21.5411 55.8897 21.7681 55.5006L25.0971 49.6749C25.324 49.275 25.8212 49.1453 26.2103 49.3723C26.5994 49.5992 26.7399 50.1072 26.5129 50.4963L23.184 56.322C23.0435 56.5814 22.7625 56.7327 22.4815 56.7327Z" fill="white"/>
<path d="M13.6944 47.8375C13.4133 47.8375 13.1323 47.6862 12.981 47.4268C12.754 47.0269 12.8945 46.5297 13.2836 46.3027L19.0444 42.9414C19.4335 42.7144 19.9307 42.8441 20.1577 43.244C20.3847 43.6439 20.2442 44.1411 19.8551 44.3681L14.0943 47.7294C13.9754 47.8051 13.8349 47.8375 13.6944 47.8375Z" fill="white"/>
<path d="M17.1317 35.6997H10.4738C10.0198 35.6997 9.65234 35.3323 9.65234 34.8783C9.65234 34.4244 10.0198 34.0569 10.4738 34.0569H17.1317C17.5856 34.0569 17.9531 34.4244 17.9531 34.8783C17.9423 35.3323 17.5748 35.6997 17.1317 35.6997Z" fill="white"/>
<path d="M19.4552 26.9125C19.3147 26.9125 19.1741 26.88 19.0444 26.8044L13.2836 23.443C12.8945 23.216 12.754 22.708 12.981 22.319C13.208 21.919 13.7052 21.7893 14.0943 22.0163L19.8551 25.3777C20.2442 25.6047 20.3847 26.1127 20.1577 26.5017C20.0064 26.772 19.7362 26.9125 19.4552 26.9125Z" fill="white"/>
<path d="M25.8103 20.4925C25.5293 20.4925 25.2483 20.3412 25.097 20.0818L21.7789 14.2561C21.5519 13.8562 21.6924 13.359 22.0815 13.132C22.4706 12.9051 22.9678 13.0348 23.1947 13.4347L26.5237 19.2603C26.7507 19.6602 26.6102 20.1574 26.2211 20.3844C26.0914 20.46 25.9508 20.4925 25.8103 20.4925Z" fill="white"/>
<path d="M68.1679 35.6997H63.8878C63.4339 35.6997 63.0664 35.3323 63.0664 34.8783C63.0664 34.4244 63.4339 34.0569 63.8878 34.0569H68.1787C68.6327 34.0569 69.0001 34.4244 69.0001 34.8783C68.9893 35.3323 68.6219 35.6997 68.1679 35.6997Z" fill="white"/>
<path d="M34.5001 5.9987C34.0462 5.9987 33.6787 5.63122 33.6787 5.17727V0.843157C33.6787 0.38921 34.0462 0.0217285 34.5001 0.0217285C34.9541 0.0217285 35.3216 0.38921 35.3216 0.843157V5.17727C35.3108 5.62041 34.9541 5.9987 34.5001 5.9987Z" fill="white"/>
<path d="M5.11231 35.6997H0.821429C0.367482 35.6997 0 35.3323 0 34.8783C0 34.4244 0.367482 34.0569 0.821429 34.0569H5.11231C5.56626 34.0569 5.93374 34.4244 5.93374 34.8783C5.93374 35.3323 5.56626 35.6997 5.11231 35.6997Z" fill="white"/>
<path d="M34.5001 69.735C34.0462 69.735 33.6787 69.3676 33.6787 68.9136V64.5795C33.6787 64.1255 34.0462 63.7581 34.5001 63.7581C34.9541 63.7581 35.3216 64.1255 35.3216 64.5795V68.9136C35.3108 69.3676 34.9541 69.735 34.5001 69.735Z" fill="white"/>
</svg>
