<svg width="81" height="60" viewBox="0 0 81 60" fill="none" xmlns="http://www.w3.org/2000/svg">
<path d="M43.9833 28.3502C46.8573 27.1227 49.7103 25.9251 52.4921 24.8255C52.3497 24.7616 52.1905 24.7019 52.0229 24.6422C51.2269 24.3695 50.1795 24.1905 48.8808 24.101L48.8389 24.0967C46.3378 23.8026 44.218 23.777 42.4793 24.0328C42.0394 24.0967 41.6247 24.1777 41.2351 24.2757L43.9833 28.3502ZM27.8037 35.114C31.9848 33.503 36.3753 31.6149 40.7701 29.7268C41.3398 29.4839 41.9054 29.2367 42.4751 28.9938L39.664 24.834C36.6895 26.2618 32.7221 29.0534 29.7602 30.8477L27.8037 35.114ZM70.2512 35.1268C68.1606 37.4709 66.0324 39.8577 64.3273 43.0243C66.0994 41.1278 68.1816 39.2951 70.2219 37.4965C72.2705 35.6894 74.2814 33.9207 75.8692 32.1775C78.6971 29.0747 80.155 26.0487 77.8425 23.0269C76.2379 28.4099 73.2843 31.7215 70.2512 35.1268ZM72.9869 52.2474C73.431 52.2474 73.7871 52.6139 73.7871 53.0657C73.7871 53.5175 73.4268 53.8797 72.9869 53.8797C64.6248 53.8797 60.4814 56.1301 57.2765 57.869C55.1147 59.0453 53.351 60 51.0258 60C47.8753 60 44.8254 58.3719 41.7797 56.7438C38.9099 55.2095 36.0443 53.6751 33.2793 53.6751C31.3773 53.6751 29.8272 54.4253 27.988 55.316C25.1099 56.7097 21.5782 58.4188 14.9798 58.4188C14.5357 58.4188 14.1796 58.0522 14.1796 57.6047C14.1796 57.1572 14.5399 56.7907 14.9798 56.7907C21.2179 56.7907 24.5695 55.1669 27.301 53.8456C29.3161 52.8696 31.017 52.0471 33.2793 52.0471C36.4298 52.0471 39.4797 53.6751 42.5254 55.3032C45.3952 56.8376 48.2608 58.3719 51.0258 58.3719C52.9613 58.3719 54.5617 57.5024 56.5265 56.4369C59.8865 54.6128 64.2393 52.2474 72.9869 52.2474ZM53.1666 12.2951C52.7225 12.2951 52.3664 11.9286 52.3664 11.4811C52.3664 11.0293 52.7267 10.667 53.1666 10.667H60.5568C60.0625 10.0704 59.5471 9.50352 59.0025 8.95372C55.6929 5.6336 51.4699 3.24686 46.74 2.20693C42.0101 1.16273 37.1964 1.55484 32.831 3.18293C30.8327 3.92879 28.9265 4.93462 27.1669 6.17914H30.9081C31.3522 6.17914 31.7083 6.54567 31.7083 6.99318C31.7083 7.44496 31.348 7.80723 30.9081 7.80723H25.0973C23.8237 8.92814 22.6465 10.1854 21.5991 11.5791C18.6498 15.4874 16.9447 20.0819 16.5299 24.7914C16.1319 29.2964 16.9153 33.9121 18.9221 38.1358C21.0629 37.5349 23.3294 36.7805 25.6713 35.9153L28.4153 29.9314L28.5201 29.7055L28.7338 29.5777C31.8381 27.6981 35.7846 24.9235 38.9141 23.3892C39.8525 22.9289 40.9669 22.605 42.2531 22.4175C44.13 22.1447 46.3839 22.166 49.0149 22.4729C50.4351 22.5709 51.6081 22.7755 52.534 23.0909C53.2881 23.3508 53.8956 23.6875 54.3439 24.101C58.3238 22.5837 62.132 21.3179 65.6135 20.5294C64.83 17.5246 63.5271 14.7415 61.8053 12.2866H53.1666V12.2951ZM27.7953 14.3366C27.3512 14.3366 26.9951 13.9701 26.9951 13.5226C26.9951 13.0708 27.3554 12.7086 27.7953 12.7086H43.7404C44.1844 12.7086 44.5406 13.0751 44.5406 13.5226C44.5406 13.9744 44.1803 14.3366 43.7404 14.3366H27.7953ZM21.1802 20.2992C20.7361 20.2992 20.38 19.9327 20.38 19.4852C20.38 19.0334 20.7403 18.6711 21.1802 18.6711H30.4012C30.8452 18.6711 31.2055 19.0377 31.2055 19.4852C31.2055 19.937 30.8452 20.2992 30.4012 20.2992H21.1802ZM35.3154 20.2992C34.8713 20.2992 34.5152 19.9327 34.5152 19.4852C34.5152 19.0334 34.8755 18.6711 35.3154 18.6711H40.6318C41.0759 18.6711 41.432 19.0377 41.432 19.4852C41.432 19.937 41.0717 20.2992 40.6318 20.2992H35.3154ZM7.79071 20.2992C7.34663 20.2992 6.99052 19.9327 6.99052 19.4852C6.99052 19.0334 7.35082 18.6711 7.79071 18.6711H16.1403C17.0578 15.8028 18.457 13.0708 20.3214 10.5946C21.0713 9.60154 21.8756 8.67242 22.7345 7.81149H12.7552C12.3111 7.81149 11.955 7.44496 11.955 6.99744C11.955 6.54567 12.3153 6.1834 12.7552 6.1834H24.515C26.8485 4.22713 29.4753 2.70132 32.278 1.65713C36.9241 -0.0775176 42.0436 -0.495197 47.0752 0.617192C49.5134 1.15421 51.826 2.02792 53.9626 3.18719C54.0422 3.16162 54.126 3.14457 54.2182 3.14457H62.6934C63.1375 3.14457 63.4936 3.51111 63.4936 3.95862C63.4936 4.4104 63.1333 4.77267 62.6934 4.77267H56.5349C57.8169 5.67195 59.0193 6.68632 60.1253 7.79444C61.0177 8.68947 61.8472 9.64842 62.6096 10.667H66.5016C66.9457 10.667 67.3018 11.0336 67.3018 11.4811C67.3018 11.9329 66.9415 12.2951 66.5016 12.2951H63.7408C65.2783 14.6947 66.4472 17.3584 67.1845 20.214C70.2428 19.515 73.6991 19.2124 78.2656 20.3887C82.3336 25.8356 81.8099 28.0561 77.0465 33.2814C75.4084 35.0799 73.3597 36.8828 71.2734 38.724C68.0643 41.554 64.6792 44.7206 62.7353 47.8021C65.337 46.9838 68.6173 46.3913 72.9953 46.3913C73.4394 46.3913 73.7955 46.7579 73.7955 47.2054C73.7955 47.6572 73.4352 48.0194 72.9953 48.0194C64.6331 48.0194 60.4898 50.2698 57.2848 52.0087C55.1231 53.185 53.3593 54.1397 51.0342 54.1397C47.8837 54.1397 44.8338 52.5116 41.7881 50.8835C38.9183 49.3492 36.0527 47.8149 33.2877 47.8149C31.7711 47.8149 29.7518 48.7014 27.4141 49.7285C20.4512 52.7886 10.8322 57.0166 0.207809 45.1468C-0.0896422 44.8144 -0.0645137 44.2987 0.262263 43.9961C0.58904 43.6935 1.09596 43.7191 1.39341 44.0515C11.2428 55.0603 20.2585 51.0966 26.7815 48.2325C29.2868 47.1329 31.4443 46.1825 33.2877 46.1825C36.4382 46.1825 39.4881 47.8106 42.5338 49.4387C45.4036 50.973 48.2692 52.5031 51.0342 52.5031C52.9697 52.5031 54.5701 51.6336 56.5349 50.5681C57.6912 49.9416 58.9648 49.2512 60.494 48.6119C60.5317 48.3689 60.5819 48.126 60.6364 47.8873C62.5007 41.4048 65.8355 37.667 69.0781 34.0229C72.1071 30.6261 75.0523 27.3188 76.5102 21.8804C69.1075 19.3019 55.2362 25.2645 41.4026 31.2143C27.8791 37.0277 14.3975 42.8198 6.39144 40.774C8.07978 42.9093 10.2792 44.2049 13.0024 44.6652C16.6179 45.279 21.1634 44.4479 26.639 42.1677C28.7212 41.3025 31.9094 39.7383 35.5751 37.9398C45.6549 32.9915 59.3125 26.2916 65.0605 26.8926C65.1484 26.9011 65.228 26.9224 65.3034 26.9565C65.7433 26.1723 66.1204 25.2773 66.4136 24.216C66.5351 23.7813 66.975 23.5298 67.4024 23.6534C67.8297 23.7728 68.0769 24.2246 67.9554 24.655C66.8703 28.5676 64.8719 30.4173 62.6264 32.4971C61.6167 33.4305 60.5568 34.4151 59.5262 35.6553C59.2413 36.0005 58.7344 36.0431 58.3992 35.7533C58.0599 35.4635 58.018 34.9478 58.3071 34.6068C59.4089 33.2814 60.5065 32.2627 61.5539 31.2953C62.5468 30.3747 63.4894 29.5009 64.3064 28.461C58.8349 28.3374 45.8937 34.6878 36.279 39.4102C32.6174 41.2087 29.4376 42.7686 27.2507 43.6764C21.4944 46.0717 16.6598 46.9369 12.751 46.272C8.98889 45.6327 6.0898 43.6125 4.06629 40.2029C3.81912 39.7852 3.88195 39.261 4.22548 38.9158L4.23387 38.9072C4.5397 38.6004 4.97958 38.5194 5.37339 38.6984C8.306 40.0367 12.4745 39.7596 17.372 38.5407C15.3401 34.1295 14.5483 29.3305 14.9631 24.638C15.0929 23.1718 15.3401 21.7142 15.7004 20.2822H7.79071V20.2992ZM56.2249 37.9057C56.4805 37.5391 56.9832 37.4581 57.3393 37.7224C57.6954 37.9824 57.7792 38.4938 57.5195 38.8561C56.757 39.9259 56.1872 41.115 55.8227 42.3637C55.4582 43.6168 55.299 44.9295 55.3619 46.2464C55.3828 46.694 55.0435 47.0775 54.5994 47.0988C54.1595 47.1202 53.7825 46.7749 53.7615 46.3232C53.6903 44.8187 53.8704 43.327 54.2852 41.9034C54.7041 40.4799 55.3577 39.1289 56.2249 37.9057Z" fill="white"/>
</svg>
