<svg width="55" height="75" viewBox="0 0 55 75" fill="none" xmlns="http://www.w3.org/2000/svg">
<path d="M5.53301 26.0459C5.50641 26.0459 5.48278 26.0429 5.45618 26.037C5.41186 26.0252 1 24.9111 1 21.2971C1 19.1429 2.33862 14.0898 5.93194 9.71342C8.10388 7.06572 10.8196 4.96765 13.9992 3.47832C17.8348 1.68166 22.3619 0.768555 27.4505 0.768555C32.542 0.768555 37.0661 1.6787 40.9047 3.47832C44.0873 4.96765 46.8 7.06572 48.9719 9.71342C52.5623 14.0898 53.9009 19.14 53.9009 21.2971C53.9009 24.9111 49.4891 26.0252 49.4447 26.037C49.3206 26.0665 49.1936 26.0222 49.1167 25.9218C49.0399 25.8213 49.0281 25.6854 49.0872 25.5731C49.3029 25.1741 49.2674 24.2344 48.4696 22.8988C44.7935 16.7434 34.8498 14.5597 27.4505 14.5597C20.0511 14.5597 10.1074 16.7434 6.43134 22.8988C5.63349 24.2374 5.59802 25.1771 5.81374 25.5731C5.87284 25.6854 5.86102 25.8213 5.78419 25.9218C5.72509 26.0015 5.63348 26.0459 5.53301 26.0459ZM27.4534 13.9214C33.1714 13.9214 38.1299 14.9143 42.1842 16.8735C46.3833 18.9036 48.2716 21.3149 49.0222 22.5737C49.6191 23.5755 49.9028 24.5211 49.8348 25.2451C50.9193 24.8461 53.2656 23.7025 53.2656 21.3001C53.2656 19.9142 52.3879 14.8818 48.4814 10.1212C46.3715 7.54739 43.7297 5.50842 40.6358 4.06046C36.8859 2.30221 32.4504 1.41275 27.4534 1.41275C22.4594 1.41275 18.0239 2.30517 14.274 4.06046C11.1801 5.51137 8.54123 7.55034 6.42839 10.1212C2.52184 14.8818 1.64124 19.9112 1.64124 21.3001C1.64124 23.7025 3.98458 24.8432 5.06907 25.2451C5.00111 24.5211 5.28479 23.5755 5.8817 22.5737C6.63228 21.3178 8.52054 18.9036 12.7196 16.8735C16.7769 14.9143 21.7354 13.9214 27.4534 13.9214Z" fill="white" stroke="white" stroke-miterlimit="10"/>
<path d="M27.4541 70.5368C24.4133 70.5368 21.3371 70.0344 19.0145 69.1568C18.388 68.9204 17.6877 68.5126 16.7421 67.8359C16.5973 67.7324 16.5648 67.5344 16.6682 67.3896C16.7716 67.2449 16.9696 67.2123 17.1144 67.3158C18.0127 67.96 18.6688 68.3412 19.242 68.5598C21.4938 69.4109 24.4872 69.8985 27.4541 69.8985C30.4179 69.8985 33.4143 69.4109 35.672 68.5598C36.6708 68.1816 37.8439 67.298 39.085 66.3613C40.4384 65.3389 41.9721 64.1834 43.5826 63.4654C45.2817 62.7059 45.9141 61.6185 46.644 60.3626C47.1611 59.4731 47.7462 58.4655 48.7864 57.4696C50.2639 56.0542 49.9359 55.1854 49.3951 53.7492C49.1144 53.0075 48.7982 52.1683 48.6889 51.1015C48.5589 49.8072 48.2752 49.2428 48.0683 48.8291C47.7403 48.1701 47.6812 47.848 48.3225 46.8167C49.0494 45.6554 48.6386 45.094 47.5482 43.5987C47.2261 43.1584 46.8627 42.659 46.4667 42.0591C45.0571 39.9168 45.1192 38.6934 45.2138 36.8406C45.2404 36.3175 45.2699 35.7265 45.2699 35.0469C45.2699 31.8998 47.5364 29.3318 47.6339 29.2255C47.6398 29.2196 47.6428 29.2166 47.6487 29.2107C47.6871 29.1723 48.615 28.2267 47.9028 27.3845C47.7876 27.2485 47.8053 27.0476 47.9413 26.9324C48.0772 26.8171 48.2781 26.8348 48.3934 26.9708C49.2651 28.0021 48.5914 29.1752 48.1067 29.6569C47.9856 29.7987 45.9112 32.2219 45.9112 35.0469C45.9112 35.7413 45.8816 36.3441 45.8521 36.8731C45.7604 38.6609 45.7043 39.7395 46.9986 41.7075C47.3857 42.2956 47.7433 42.789 48.0624 43.2234C49.1558 44.7216 49.8177 45.6288 48.8632 47.1566C48.355 47.9751 48.4022 48.0726 48.6386 48.5454C48.8544 48.9769 49.1794 49.6299 49.3213 51.0395C49.4217 52.0205 49.7231 52.8214 49.9891 53.5247C50.5358 54.9726 51.0086 56.2256 49.2237 57.9336C48.2486 58.8673 47.7108 59.7923 47.1907 60.6847C46.4371 61.9819 45.725 63.2053 43.8367 64.0505C42.2942 64.739 40.8551 65.8235 39.4633 66.8755C38.1867 67.8388 36.9781 68.749 35.8936 69.1627C33.568 70.0344 30.4918 70.5368 27.4541 70.5368ZM9.05014 62.4636C8.95853 62.4636 8.86397 62.4222 8.80192 62.3454C8.37935 61.8253 8.05725 61.2727 7.71446 60.6847C7.19438 59.7893 6.65656 58.8644 5.6814 57.9306C3.89657 56.2226 4.36937 54.9726 4.91605 53.5217C5.18201 52.8184 5.48342 52.0176 5.58389 51.0365C5.72573 49.627 6.05078 48.9739 6.26354 48.5425C6.49699 48.0697 6.54723 47.9722 6.03896 47.1536C5.08745 45.6259 5.74937 44.7216 6.84273 43.2234C7.15892 42.789 7.51943 42.2985 7.90654 41.7075C9.20084 39.7365 9.1447 38.6579 9.05309 36.8672C9.0265 36.3382 8.99694 35.7413 8.99694 35.0469C8.99694 32.2219 6.92252 29.7958 6.79841 29.6569C6.31378 29.1752 5.64299 28.005 6.51472 26.9737C6.62997 26.8378 6.83091 26.823 6.96684 26.9353C7.10277 27.0506 7.1205 27.2515 7.00526 27.3874C6.2931 28.2326 7.21802 29.1723 7.25643 29.2107C7.25939 29.2136 7.2653 29.2196 7.26825 29.2255C7.36577 29.3318 9.63523 31.9027 9.63523 35.0498C9.63523 35.7265 9.66478 36.3175 9.69137 36.8376C9.78594 38.6904 9.848 39.9168 8.4414 42.0621C8.04543 42.6649 7.68196 43.1643 7.35986 43.6046C6.26946 45.0999 5.85871 45.6584 6.58269 46.8197C7.22393 47.851 7.16483 48.1731 6.83682 48.8321C6.62997 49.2458 6.34924 49.8102 6.21922 51.1045C6.10988 52.1712 5.7937 53.0105 5.51297 53.7522C4.96924 55.1883 4.64124 56.0571 6.12171 57.4726C7.16188 58.4684 7.74697 59.479 8.2641 60.3685C8.59211 60.9329 8.90238 61.4648 9.29245 61.9465C9.40474 62.0824 9.38405 62.2863 9.24812 62.3956C9.19198 62.44 9.12106 62.4636 9.05014 62.4636ZM26.1775 51.9023C25.2732 51.9023 24.2715 51.8846 23.4086 51.7812C23.2343 51.7605 23.1072 51.6009 23.1279 51.4266C23.1486 51.2522 23.3081 51.1281 23.4825 51.1459C24.5315 51.2729 25.8258 51.267 26.863 51.2611C27.2738 51.2581 27.6254 51.2581 28.0391 51.2611C29.6999 51.27 32.4805 51.2847 33.1395 50.6021C33.2252 50.5135 33.2607 50.4278 33.2548 50.3155C33.2282 49.7008 30.5716 49.0714 27.4481 48.9385C24.3276 49.0714 21.6711 49.7008 21.6445 50.3155C21.6415 50.3864 21.6326 50.5785 21.9991 50.7706C22.1557 50.8533 22.2148 51.0454 22.135 51.202C22.0523 51.3586 21.8602 51.4177 21.7036 51.3379C21.1037 51.0247 20.9944 50.5933 21.0062 50.2889C21.0387 49.4999 22.1055 48.965 24.3601 48.6075C25.8849 48.3652 27.3743 48.3002 27.4363 48.2972C27.4452 48.2972 27.4541 48.2972 27.4629 48.2972C27.525 48.3002 29.0143 48.3652 30.5391 48.6075C32.7938 48.968 33.8605 49.4999 33.896 50.2889C33.9078 50.5726 33.8044 50.8326 33.6005 51.0454C32.8145 51.858 30.613 51.9142 28.0362 51.8994C27.6254 51.8964 27.2768 51.8964 26.866 51.8994C26.6503 51.9023 26.4168 51.9023 26.1775 51.9023ZM15.0932 50.1559C15.0252 50.1559 14.9513 50.153 14.8804 50.1471C13.2256 50.0141 12.7705 48.4006 12.3716 46.9763C12.1766 46.2819 11.9933 45.6259 11.6949 45.1678C11.1571 44.3404 11.1009 43.1023 11.0507 41.9055C11.0034 40.8565 10.9561 39.772 10.5661 39.1425C10.0667 38.3388 10.241 37.3252 10.4272 36.2525C10.6104 35.1828 10.8025 34.0776 10.4035 33.0138C10.0726 32.1273 10.0223 30.765 10.2558 28.9654C10.2794 28.7911 10.439 28.667 10.6133 28.6876C10.7877 28.7113 10.9118 28.8709 10.8911 29.0452C10.6754 30.7178 10.7138 32.0121 11.0034 32.7863C11.4614 34.0126 11.2487 35.2567 11.0566 36.3559C10.8852 37.3459 10.7375 38.2028 11.1098 38.7998C11.5885 39.5681 11.6358 40.688 11.689 41.87C11.7363 42.9811 11.7894 44.1277 12.2327 44.8103C12.5843 45.351 12.7912 46.0839 12.9892 46.7961C13.3674 48.1376 13.722 49.4024 14.9336 49.4999C15.9501 49.5797 16.3491 48.9237 16.81 48.1701C17.1971 47.5319 17.599 46.8729 18.4087 46.7636C18.781 46.7133 19.1061 46.5212 19.5553 46.2553C20.7343 45.5638 22.5132 44.5148 27.457 44.5148C32.4008 44.5148 34.1797 45.5609 35.3587 46.2553C35.8109 46.5212 36.1359 46.7133 36.5112 46.7636C37.3179 46.8729 37.7198 47.5319 38.1069 48.1701C38.5679 48.9266 38.9639 49.5797 39.9834 49.5029C41.1949 49.4053 41.5525 48.1376 41.9278 46.7931C42.1258 46.0839 42.3326 45.354 42.6813 44.8132C43.1246 44.1306 43.1777 42.9811 43.225 41.87C43.2782 40.6851 43.3285 39.5681 43.8072 38.7998C44.1765 38.2028 44.0288 37.3459 43.8574 36.3559C43.6683 35.2567 43.4526 34.0097 43.9136 32.7833C44.2031 32.0091 44.2416 30.7148 44.0258 29.0423C44.0022 28.8679 44.1263 28.7054 44.3036 28.6847C44.478 28.661 44.6405 28.7852 44.6612 28.9625C44.8917 30.7621 44.8444 32.1243 44.5134 33.0109C44.1145 34.0747 44.3066 35.1798 44.4898 36.2496C44.6759 37.3222 44.8503 38.3358 44.3509 39.1396C43.9608 39.766 43.9135 40.8535 43.8663 41.9025C43.8131 43.0993 43.7569 44.3345 43.2191 45.1649C42.9236 45.6229 42.7404 46.276 42.5454 46.9704C42.1464 48.3947 41.6914 50.0111 40.0336 50.1441C38.6211 50.2505 38.033 49.2842 37.5602 48.507C37.2204 47.9515 36.9308 47.4698 36.4226 47.4018C35.9202 47.3339 35.5095 47.0916 35.0337 46.8108C33.9137 46.1519 32.2235 45.159 27.457 45.159C22.6876 45.159 20.9973 46.1519 19.8803 46.8108C19.4046 47.0916 18.9938 47.3309 18.4944 47.4018C17.9861 47.4698 17.6936 47.9515 17.3567 48.507C16.9016 49.2458 16.3491 50.1559 15.0932 50.1559Z" fill="white" stroke="white" stroke-miterlimit="10"/>
<path d="M17.1758 34.2401C17.1256 34.2401 17.0724 34.2312 17.0221 34.2135C16.8153 34.1367 16.7532 33.9476 16.7148 33.8323C16.6646 33.6786 16.635 33.5959 16.3277 33.5811C15.1427 33.522 14.4217 32.4464 14.3922 32.3991C14.3006 32.2632 14.3301 32.08 14.4572 31.9766C14.5842 31.8731 14.7704 31.882 14.8857 31.9972C15.0245 32.1361 15.4619 32.1391 15.8283 32.0859C15.849 32.0061 15.9022 31.9381 15.9731 31.8968C16.0706 31.8377 16.1918 31.8377 16.2893 31.8909C16.8921 32.2218 17.9441 32.0504 18.5854 31.879C18.5883 31.8584 18.5913 31.8347 18.6001 31.814C18.6385 31.6988 18.739 31.6131 18.8572 31.5954C20.2579 31.3885 21.3394 31.5835 21.8802 31.7283C21.892 31.7106 21.9068 31.6958 21.9216 31.681C21.9866 31.6219 22.0723 31.5894 22.158 31.5924C23.5468 31.6663 24.4008 32.9576 24.4806 33.0817L24.4925 33.0965C24.6432 33.3093 24.8973 33.6639 24.6491 33.921C24.392 34.184 24.0019 33.9535 23.4759 33.5989C23.0031 33.2797 21.8684 33.1911 20.447 33.3654C19.1704 33.522 18.015 33.8412 17.6782 34.0451C17.5156 34.1515 17.3442 34.2401 17.1758 34.2401ZM15.7042 32.7478C15.8963 32.8512 16.1179 32.931 16.3632 32.9428C17.0103 32.9754 17.2054 33.3152 17.2911 33.5398C17.3058 33.5309 17.3265 33.5191 17.3442 33.5073C18.1214 33.0315 21.8359 32.2396 23.4937 32.8985C23.2336 32.6503 22.8701 32.3843 22.4328 32.278C22.4092 32.3312 22.3707 32.3784 22.3205 32.4109C22.2319 32.47 22.1196 32.4819 22.022 32.4434C22.0102 32.4405 20.9553 32.0327 19.3655 32.1805C19.333 32.2691 19.2621 32.3371 19.1734 32.3696C19.0995 32.3962 17.4949 32.9576 16.3395 32.6001C16.3041 32.6296 16.2597 32.6533 16.2125 32.6621C16.1356 32.6828 15.9406 32.7242 15.7042 32.7478Z" fill="white" stroke="white" stroke-miterlimit="10"/>
<path d="M37.7316 34.24C37.5632 34.24 37.3918 34.1514 37.2293 34.0539C36.8924 33.847 35.737 33.5279 34.4604 33.3742C33.0361 33.1999 31.9043 33.2885 31.4315 33.6077C30.9055 33.9623 30.5125 34.1927 30.2583 33.9297C30.0072 33.6727 30.2613 33.3151 30.415 33.1053L30.4268 33.0905C30.5066 32.9635 31.3635 31.6751 32.7494 31.6012C32.8381 31.5953 32.9238 31.6278 32.9858 31.6898C33.0006 31.7046 33.0154 31.7223 33.0272 31.7371C33.568 31.5923 34.6466 31.3973 36.0502 31.6041C36.1714 31.6219 36.2718 31.7076 36.3073 31.8228C36.3132 31.8435 36.3191 31.8671 36.3221 31.8878C36.9603 32.0592 38.0153 32.2306 38.6181 31.8996C38.7186 31.8465 38.8368 31.8465 38.9343 31.9056C39.0052 31.9469 39.0584 32.0178 39.0791 32.0947C39.4455 32.1479 39.8829 32.1449 40.0218 32.006C40.137 31.8908 40.3232 31.8819 40.4502 31.9853C40.5773 32.0888 40.6068 32.272 40.5152 32.4079C40.4857 32.4522 39.7647 33.5279 38.5797 33.5899C38.2724 33.6047 38.2458 33.6904 38.1955 33.8411C38.1571 33.9563 38.0951 34.1455 37.8882 34.2223C37.835 34.2312 37.7818 34.24 37.7316 34.24ZM33.1247 32.6473C34.877 32.6473 36.9958 33.1614 37.5632 33.5072C37.5839 33.519 37.6016 33.5308 37.6164 33.5397C37.7021 33.3121 37.8971 32.9753 38.5442 32.9428C38.7895 32.931 39.0111 32.8541 39.2032 32.7477C38.9639 32.7271 38.7718 32.6827 38.6949 32.665C38.6477 32.6532 38.6033 32.6325 38.5679 32.6029C37.4125 32.9575 35.8079 32.399 35.734 32.3724C35.6454 32.3399 35.5744 32.269 35.5419 32.1833C33.9521 32.0356 32.8942 32.4434 32.8824 32.4463C32.7849 32.4847 32.6726 32.4729 32.584 32.4138C32.5337 32.3813 32.4953 32.334 32.4717 32.2808C32.0343 32.3872 31.6708 32.6502 31.4108 32.9014C31.8629 32.7182 32.4687 32.6473 33.1247 32.6473Z" fill="white" stroke="white" stroke-miterlimit="10"/>
<path d="M5.53287 25.9189C5.5181 25.9189 5.50332 25.9159 5.48855 25.913C5.44422 25.9012 1.12988 24.8108 1.12988 21.2972C1.12988 19.1607 2.45965 14.1461 6.03228 9.79627C8.1924 7.16334 10.8933 5.07709 14.0552 3.59662C17.8731 1.80588 22.3824 0.898682 27.4533 0.898682C32.5241 0.898682 37.0335 1.80588 40.8514 3.59662C44.0162 5.08005 46.7141 7.1663 48.8743 9.79627C52.4439 14.1461 53.7737 19.1607 53.7737 21.2972C53.7737 24.8108 49.4594 25.9012 49.415 25.913C49.3412 25.9307 49.2643 25.9041 49.217 25.845C49.1698 25.7859 49.1639 25.7032 49.1993 25.6352C49.5066 25.0649 49.2702 23.9893 48.5788 22.8338C47.3524 20.7772 44.9382 18.7736 41.9565 17.3345C37.9702 15.4079 33.0915 14.4327 27.4503 14.4327C21.8092 14.4327 16.9275 15.4079 12.9441 17.3345C9.96542 18.7736 7.55116 20.7801 6.32186 22.8338C5.63039 23.9893 5.39399 25.0649 5.70131 25.6352C5.73677 25.7032 5.73086 25.783 5.68358 25.845C5.64812 25.8923 5.59197 25.9189 5.53287 25.9189ZM27.4533 1.28284C22.4386 1.28284 17.9883 2.17821 14.2207 3.94236C11.109 5.39919 8.4554 7.45293 6.33073 10.0386C2.40054 14.8287 1.51699 19.8995 1.51699 21.2972C1.51699 23.939 4.24448 25.1004 5.23146 25.4313C5.08371 24.7192 5.35262 23.7144 5.99681 22.6359C6.74148 21.3918 8.61201 19.0012 12.7816 16.9859C16.8181 15.0355 21.756 14.0456 27.4562 14.0456C33.1565 14.0456 38.0943 15.0355 42.1309 16.9859C46.3004 19.0012 48.171 21.3888 48.9156 22.6359C49.5598 23.7144 49.8287 24.7221 49.681 25.4313C50.668 25.0974 53.3955 23.939 53.3955 21.2972C53.3955 19.8995 52.5119 14.8257 48.5817 10.0386C46.4571 7.44998 43.8034 5.39919 40.6918 3.94236C36.9212 2.17821 32.468 1.28284 27.4533 1.28284Z" fill="white" stroke="white" stroke-miterlimit="10"/>
<path d="M27.4535 70.4101C24.4275 70.4101 21.3691 69.9107 19.0612 69.039C18.4466 68.8055 17.7551 68.4036 16.8183 67.7328C16.7326 67.6708 16.712 67.5526 16.774 67.4639C16.8361 67.3782 16.9543 67.3576 17.0429 67.4196C17.9501 68.0697 18.615 68.4568 19.1971 68.6785C21.4636 69.5325 24.4748 70.023 27.4535 70.023C30.4321 70.023 33.4433 69.5325 35.7157 68.6785C36.7323 68.2943 37.9113 67.4048 39.1583 66.4622C40.5058 65.4457 42.0336 64.2932 43.6293 63.581C45.3669 62.8039 46.0081 61.7016 46.7498 60.4251C47.264 59.5415 47.8432 58.5427 48.8715 57.5616C50.4111 56.0871 50.0535 55.1385 49.5098 53.7024C49.232 52.9695 48.9188 52.1362 48.8124 51.0872C48.6794 49.7692 48.378 49.1694 48.18 48.7704C47.8875 48.1824 47.7929 47.9046 48.4283 46.8822C49.1995 45.647 48.7445 45.0235 47.6481 43.5223C47.329 43.085 46.9655 42.5856 46.5725 41.9857C45.1866 39.8788 45.2487 38.6701 45.3403 36.841C45.3669 36.3179 45.3964 35.724 45.3964 35.0414C45.3964 31.9445 47.6304 29.4091 47.725 29.3027C47.7752 29.2525 48.7858 28.23 47.9968 27.2933C47.9289 27.2135 47.9377 27.0923 48.0205 27.0214C48.1003 26.9535 48.2214 26.9623 48.2923 27.0451C49.1079 28.0114 48.4608 29.1165 48.0057 29.5657C47.9909 29.5805 45.7806 32.0893 45.7806 35.0384C45.7806 35.7299 45.751 36.3298 45.7215 36.8558C45.6269 38.6701 45.5708 39.7665 46.8887 41.767C47.2758 42.358 47.6363 42.8515 47.9555 43.2859C49.0547 44.79 49.6605 45.6204 48.7504 47.0742C48.2037 47.9519 48.2776 48.0996 48.5199 48.5872C48.7297 49.0098 49.0488 49.651 49.1907 51.0369C49.2911 52.0357 49.5955 52.8425 49.8644 53.5546C50.417 55.0203 50.8543 56.1757 49.1316 57.8246C48.1446 58.7702 47.6009 59.704 47.0778 60.6053C46.3332 61.8848 45.6328 63.0905 43.783 63.9209C42.2257 64.6153 40.7186 65.753 39.3859 66.7606C38.1152 67.7181 36.9155 68.6253 35.8458 69.0301C33.5379 69.9107 30.4765 70.4101 27.4535 70.4101ZM9.04956 62.334C8.99342 62.334 8.93727 62.3104 8.90181 62.2631C8.48515 61.7519 8.16601 61.2022 7.82619 60.6201C7.30315 59.7159 6.75942 58.785 5.77244 57.8365C4.0467 56.1875 4.48405 55.0292 5.03959 53.5664C5.3085 52.8543 5.61287 52.0476 5.71629 51.0488C5.85518 49.6599 6.17432 49.0216 6.38413 48.599C6.62644 48.1115 6.70032 47.9637 6.15364 47.0861C5.24644 45.6322 5.85222 44.8018 6.95149 43.2977C7.27064 42.8633 7.6282 42.3698 8.01826 41.7759C9.33621 39.7724 9.28006 38.6761 9.1855 36.8587C9.1589 36.3327 9.12935 35.7358 9.12935 35.0443C9.12935 32.0952 6.91603 29.5893 6.89239 29.5628C6.44618 29.1225 5.80199 28.0202 6.61757 27.0539C6.68554 26.9741 6.8067 26.9623 6.88944 27.0303C6.96923 27.0983 6.98104 27.2194 6.91308 27.3022C6.12409 28.2389 7.1288 29.2584 7.17312 29.2998C7.27655 29.415 9.5135 31.9475 9.5135 35.0443C9.5135 35.7269 9.54306 36.3179 9.56965 36.841C9.66421 38.6701 9.72331 39.8788 8.34036 41.9886C7.94734 42.5885 7.58387 43.0879 7.26177 43.5253C6.16546 45.0264 5.71038 45.6499 6.47869 46.8851C7.11402 47.9046 7.01946 48.1853 6.72692 48.7734C6.52893 49.1723 6.23047 49.7722 6.09749 51.0901C5.99111 52.1392 5.67788 52.9725 5.4001 53.7053C4.85638 55.1415 4.49882 56.09 6.04134 57.5616C7.06969 58.5457 7.64888 59.5474 8.16306 60.428C8.49402 60.9983 8.8043 61.5332 9.20322 62.0237C9.27119 62.1065 9.25937 62.2276 9.17663 62.2926C9.13526 62.3222 9.09389 62.334 9.04956 62.334ZM28.7419 51.7757C28.5025 51.7757 28.2661 51.7757 28.0415 51.7727C27.6308 51.7698 27.2791 51.7698 26.8713 51.7727C25.8194 51.7786 24.5073 51.7846 23.4258 51.6545C23.3194 51.6427 23.2455 51.5452 23.2573 51.4418C23.2692 51.3354 23.3637 51.2615 23.4701 51.2733C24.528 51.4004 25.8253 51.3945 26.8684 51.3886C27.2791 51.3856 27.6308 51.3856 28.0415 51.3886C29.8323 51.3974 32.5391 51.4122 33.2365 50.6912C33.3458 50.5789 33.3931 50.4548 33.3872 50.31C33.3488 49.4471 29.8973 48.9123 27.4535 48.8088C25.0097 48.9123 21.5582 49.4471 21.5227 50.31C21.5139 50.5434 21.6528 50.7296 21.9483 50.8862C22.0428 50.9365 22.0783 51.0517 22.028 51.1463C21.9778 51.2408 21.8626 51.2763 21.768 51.2261C21.2272 50.9424 21.1268 50.5641 21.1386 50.2952C21.1681 49.589 22.229 49.0778 24.3832 48.735C25.8991 48.4927 27.4298 48.4276 27.4446 48.4276C27.4505 48.4276 27.4564 48.4276 27.4623 48.4276C27.4771 48.4276 29.0078 48.4956 30.5238 48.735C32.678 49.0778 33.7418 49.589 33.7713 50.2952C33.7802 50.5464 33.6945 50.768 33.5113 50.9571C32.7932 51.7018 30.6006 51.7757 28.7419 51.7757ZM15.0926 50.0263C15.0246 50.0263 14.9567 50.0234 14.8857 50.0175C13.3196 49.8904 12.8793 48.3242 12.4892 46.9413C12.2912 46.238 12.1051 45.5731 11.7948 45.0973C11.2747 44.2995 11.2215 43.079 11.1683 41.9C11.121 40.8332 11.0738 39.731 10.666 39.075C10.1932 38.3126 10.3646 37.3227 10.5448 36.2736C10.731 35.1891 10.926 34.0662 10.5153 32.9699C10.1932 32.1041 10.1459 30.7625 10.3734 28.9836C10.3882 28.8772 10.4857 28.8033 10.5891 28.8181C10.6955 28.8329 10.7694 28.9274 10.7546 29.0338C10.5359 30.727 10.5773 32.042 10.8758 32.8369C11.322 34.0308 11.1122 35.2571 10.9231 36.3416C10.7487 37.3581 10.595 38.2358 10.991 38.874C11.452 39.6158 11.4993 40.718 11.5525 41.8852C11.6027 43.014 11.6529 44.1783 12.1169 44.8905C12.4567 45.4135 12.6517 46.108 12.8586 46.8408C13.2487 48.2267 13.6151 49.5358 14.9153 49.6392C16.0116 49.7249 16.449 49.0068 16.9129 48.2474C17.2852 47.6357 17.6694 47.0033 18.42 46.9029C18.8159 46.8497 19.1528 46.6517 19.6138 46.3798C20.781 45.6942 22.5422 44.657 27.4505 44.657C32.3588 44.657 34.12 45.6942 35.2873 46.3798C35.7512 46.6517 36.0881 46.8497 36.487 46.9058C37.2346 47.0063 37.6188 47.6387 37.9911 48.2503C38.4551 49.0098 38.8924 49.7279 39.9858 49.6422C41.2889 49.5387 41.6553 48.2267 42.0454 46.8408C42.2493 46.1109 42.4443 45.4194 42.7812 44.8964C43.2451 44.1842 43.2954 43.017 43.3456 41.8911C43.3988 40.7239 43.4461 39.6217 43.9071 38.88C44.3031 38.2417 44.1523 37.364 43.975 36.3475C43.7889 35.263 43.5761 34.0367 44.0223 32.8428C44.3178 32.0479 44.3592 30.7329 44.1435 29.0397C44.1287 28.9333 44.2055 28.8388 44.309 28.824C44.4124 28.8092 44.5099 28.886 44.5247 28.9895C44.7552 30.7684 44.7079 32.11 44.3828 32.9758C43.9721 34.0721 44.1671 35.195 44.3533 36.2795C44.5335 37.3286 44.7049 38.3155 44.2321 39.0809C43.8243 39.7369 43.7741 40.8391 43.7268 41.9059C43.6736 43.085 43.6204 44.3054 43.1004 45.1032C42.793 45.576 42.6069 46.2409 42.4118 46.9413C42.0247 48.3272 41.5815 49.8963 40.0123 50.0234C38.6767 50.1268 38.1389 49.2344 37.6572 48.4483C37.3026 47.8632 36.9953 47.3609 36.4279 47.284C35.9521 47.219 35.5709 46.9945 35.0863 46.7108C33.9545 46.0459 32.2465 45.0412 27.4446 45.0412C22.6397 45.0412 20.9317 46.0459 19.8029 46.7108C19.3212 46.9945 18.94 47.219 18.4643 47.284C17.8969 47.3609 17.5896 47.8662 17.232 48.4483C16.7888 49.19 16.2776 50.0263 15.0926 50.0263Z" fill="white" stroke="white" stroke-miterlimit="10"/>
<path d="M17.1786 34.1132C17.1402 34.1132 17.1017 34.1073 17.0663 34.0926C16.9185 34.0394 16.8712 33.8975 16.8358 33.7911C16.7796 33.6198 16.7294 33.472 16.3364 33.4513C15.2164 33.3952 14.5279 32.3727 14.5013 32.3284C14.4481 32.2457 14.4629 32.1363 14.5397 32.0743C14.6166 32.0122 14.7259 32.0181 14.7968 32.0861C15.0155 32.3018 15.6154 32.2516 15.9463 32.1954V32.1718C15.9463 32.1038 15.9818 32.0418 16.0409 32.0063C16.1 31.9708 16.1709 31.9708 16.23 32.0034C16.954 32.4023 18.1774 32.1275 18.724 31.9738C18.7122 31.9354 18.7093 31.894 18.724 31.8526C18.7477 31.7817 18.8068 31.7315 18.8777 31.7226C20.3611 31.504 21.4722 31.7404 21.9539 31.8822C21.9598 31.8408 21.9805 31.8024 22.01 31.7729C22.0485 31.7374 22.0987 31.7167 22.1519 31.7197C23.4876 31.7906 24.312 33.0524 24.377 33.1529L24.3918 33.1735C24.5277 33.3656 24.7346 33.6552 24.5602 33.8355C24.4066 33.9921 24.1613 33.9093 23.5496 33.4986C23.0443 33.1588 21.9066 33.0642 20.432 33.2445C19.12 33.404 17.9676 33.7261 17.613 33.9448C17.4475 34.0453 17.3056 34.1132 17.1786 34.1132ZM15.3021 32.6298C15.5651 32.8426 15.9256 33.0494 16.3541 33.0701C17.0101 33.1026 17.1342 33.472 17.1993 33.6729C17.2052 33.6877 17.2111 33.7054 17.214 33.7202C17.2495 33.7084 17.3086 33.6789 17.4091 33.6198C17.8612 33.342 19.1407 33.0169 20.3848 32.8662C21.3038 32.7539 22.9645 32.6476 23.7624 33.1824C23.8806 33.2622 23.9781 33.3243 24.0579 33.3715C24.0579 33.3686 24.0549 33.3686 24.0549 33.3656C24.049 33.3538 23.3812 32.3077 22.3351 32.1304V32.1482C22.3351 32.2132 22.3026 32.2723 22.2494 32.3077C22.1962 32.3432 22.1282 32.352 22.0691 32.3284C22.0573 32.3225 20.9374 31.8911 19.256 32.0654C19.256 32.0802 19.256 32.0979 19.253 32.1127C19.2382 32.1777 19.1909 32.2309 19.1289 32.2516C19.055 32.2782 17.415 32.8514 16.298 32.4555C16.2714 32.4968 16.23 32.5293 16.1798 32.5412C16.1118 32.5589 15.7129 32.6475 15.3021 32.6298Z" fill="white" stroke="white" stroke-miterlimit="10"/>
<path d="M37.7277 34.1132C37.6006 34.1132 37.4588 34.0452 37.2933 33.9447C36.5634 33.4985 32.5771 32.677 31.3567 33.4985C30.745 33.9122 30.4968 33.992 30.3461 33.8354C30.1717 33.6551 30.3786 33.3656 30.5145 33.1735L30.5293 33.1557C30.5943 33.0553 31.4158 31.7935 32.7544 31.7226C32.8076 31.7196 32.8578 31.7373 32.8962 31.7757C32.9258 31.8053 32.9465 31.8437 32.9524 31.8851C33.4341 31.7462 34.5451 31.5068 36.0286 31.7255C36.0995 31.7373 36.1615 31.7876 36.1822 31.8555C36.1941 31.8939 36.1941 31.9383 36.1822 31.9767C36.7289 32.1304 37.9523 32.4052 38.6763 32.0062C38.7354 31.9737 38.8093 31.9737 38.8654 32.0092C38.9245 32.0447 38.96 32.1067 38.96 32.1747V32.1983C39.35 32.2692 39.9085 32.2899 40.1095 32.089C40.1804 32.0181 40.2897 32.0151 40.3666 32.0772C40.4434 32.1392 40.4611 32.2486 40.405 32.3313C40.3754 32.3756 39.6899 33.3981 38.5699 33.4542C38.1769 33.4749 38.1266 33.6226 38.0705 33.794C38.035 33.8975 37.9878 34.0393 37.84 34.0954C37.8045 34.1073 37.7661 34.1132 37.7277 34.1132ZM33.1179 32.7716C33.635 32.7716 34.1403 32.8159 34.5186 32.8632C35.7597 33.0139 37.0392 33.339 37.4943 33.6167C37.5947 33.6788 37.6538 33.7054 37.6893 33.7172C37.6952 33.7024 37.7011 33.6847 37.7041 33.6699C37.7691 33.4719 37.8932 33.0996 38.5492 33.0671C38.9777 33.0464 39.3382 32.8396 39.6012 32.6268C39.1905 32.6445 38.7915 32.5559 38.7206 32.5381C38.6704 32.5263 38.629 32.4938 38.6024 32.4524C37.4854 32.8484 35.8454 32.2751 35.7715 32.2486C35.7094 32.2249 35.6622 32.1747 35.6474 32.1097C35.6444 32.0949 35.6415 32.0772 35.6444 32.0624C33.9571 31.8851 32.8431 32.3195 32.8312 32.3254C32.7721 32.349 32.7042 32.3431 32.651 32.3047C32.5978 32.2692 32.5653 32.2101 32.5653 32.1451V32.1274C31.5192 32.3047 30.8543 33.3508 30.8455 33.3626C30.8455 33.3656 30.8425 33.3656 30.8425 33.3685C30.9223 33.3212 31.0198 33.2592 31.138 33.1794C31.6108 32.8632 32.3791 32.7716 33.1179 32.7716Z" fill="white" stroke="white" stroke-miterlimit="10"/>
<path d="M5.53276 25.7917C5.52685 25.7917 5.52389 25.7917 5.51798 25.7888C5.47661 25.777 1.25684 24.7132 1.25684 21.2971C1.25684 19.8758 2.15221 14.7222 6.12967 9.87597C8.27798 7.25781 10.9611 5.18338 14.1082 3.70882C17.9114 1.92694 22.4001 1.02271 27.4502 1.02271C32.5033 1.02271 36.992 1.92694 40.7951 3.70882C43.9422 5.18338 46.6254 7.25781 48.7737 9.87597C52.7512 14.7222 53.6465 19.8758 53.6465 21.2971C53.6465 24.7102 49.4267 25.777 49.3854 25.7888C49.3617 25.7947 49.3351 25.7858 49.3204 25.7652C49.3056 25.7445 49.3026 25.7179 49.3145 25.6942C49.6425 25.0825 49.4061 23.9626 48.6909 22.7658C47.4498 20.6884 45.0178 18.6672 42.0155 17.2163C38.0144 15.2807 33.112 14.3026 27.4532 14.3026C21.7913 14.3026 16.8919 15.2837 12.8908 17.2163C9.88847 18.6672 7.45649 20.6884 6.21537 22.7658C5.50026 23.9596 5.26385 25.0825 5.59186 25.6942C5.60368 25.7179 5.60073 25.7445 5.58595 25.7652C5.57118 25.7829 5.55344 25.7917 5.53276 25.7917ZM27.4532 1.15568C22.4207 1.15568 17.9498 2.05401 14.1644 3.82998C11.035 5.29567 8.36663 7.35828 6.23015 9.96166C2.27632 14.7784 1.38685 19.8906 1.38685 21.3031C1.38685 24.2788 4.71126 25.4224 5.41752 25.6322C5.15156 24.9584 5.40274 23.8798 6.10308 22.7067C6.83888 21.4745 8.69168 19.1075 12.8317 17.1069C16.8505 15.1655 21.7706 14.1785 27.4502 14.1785C33.1298 14.1785 38.0499 15.1625 42.0687 17.1069C46.2087 19.1075 48.0615 21.4745 48.7973 22.7067C49.4977 23.8798 49.7488 24.9584 49.4829 25.6322C50.1921 25.4224 53.5135 24.2788 53.5135 21.3031C53.5135 19.8935 52.6241 14.7813 48.6703 9.96166C46.5338 7.35828 43.8654 5.29567 40.736 3.82998C36.9595 2.05401 32.4856 1.15568 27.4532 1.15568Z" fill="white" stroke="white" stroke-miterlimit="10"/>
<path d="M27.4537 70.2797C24.4425 70.2797 21.3989 69.7832 19.1058 68.9174C18.5029 68.6869 17.8203 68.2909 16.8924 67.6261C16.8629 67.6054 16.857 67.567 16.8777 67.5374C16.8984 67.5079 16.9397 67.502 16.9663 67.5226C17.8853 68.1787 18.5591 68.5717 19.1501 68.7963C21.4314 69.6562 24.4573 70.1497 27.4537 70.1497C30.4472 70.1497 33.4761 69.6562 35.7603 68.7963C36.7946 68.4062 37.9795 67.5108 39.2354 66.5623C40.577 65.5487 42.0988 64.4021 43.6827 63.6959C45.4557 62.901 46.1088 61.781 46.8623 60.4867C47.3972 59.5707 47.9468 58.6191 48.9604 57.6499C50.562 56.1192 50.172 55.0849 49.6312 53.6547C49.3564 52.9278 49.0461 52.1033 48.9427 51.072C48.8067 49.7304 48.4994 49.1158 48.2985 48.7109C48.0296 48.1731 47.9173 47.9485 48.5408 46.9468C49.3593 45.6377 48.857 44.9492 47.7548 43.4451C47.4356 43.0077 47.0721 42.5113 46.6821 41.9144C45.3169 39.8399 45.376 38.7141 45.4705 36.8465C45.4971 36.3205 45.5296 35.7265 45.5296 35.041C45.5296 31.9914 47.805 29.4146 47.8257 29.388C47.8759 29.3378 48.9663 28.2385 48.1005 27.2102C48.0769 27.1836 48.0798 27.1422 48.1094 27.1185C48.136 27.0949 48.1773 27.0979 48.201 27.1274C49.1436 28.2474 47.935 29.4648 47.9232 29.4767C47.9025 29.5003 45.6596 32.0416 45.6596 35.041C45.6596 35.7295 45.6301 36.3264 45.6005 36.8524C45.506 38.6934 45.4498 39.8045 46.7914 41.8405C47.1815 42.4345 47.542 42.9279 47.8611 43.3653C48.9634 44.8724 49.513 45.6288 48.6501 47.0118C48.065 47.9515 48.1596 48.1436 48.4137 48.6489C48.6206 49.0626 48.9338 49.689 49.0727 51.0543C49.1761 52.0708 49.4834 52.8864 49.7553 53.6045C50.2902 55.0258 50.7157 56.1458 49.052 57.7385C48.0503 58.696 47.5036 59.6357 46.9746 60.5458C46.2093 61.8608 45.5503 62.9955 43.7389 63.8082C42.1698 64.5085 40.6538 65.6521 39.3152 66.6598C38.0534 67.6113 36.8596 68.5126 35.8076 68.9115C33.5056 69.7832 30.4619 70.2797 27.4537 70.2797ZM9.0498 62.2065C9.03207 62.2065 9.01138 62.1977 8.99956 62.1829C8.58881 61.6806 8.27263 61.1339 7.93575 60.5547C7.4068 59.6445 6.86012 58.7019 5.85837 57.7445C4.19469 56.1547 4.61725 55.0317 5.15507 53.6104C5.42693 52.8923 5.73426 52.0767 5.83768 51.0602C5.97361 49.695 6.28685 49.0685 6.4937 48.6548C6.74783 48.1465 6.84239 47.9574 6.2573 47.0177C5.39738 45.6377 5.94997 44.8812 7.04924 43.3742C7.36839 42.9368 7.7289 42.4433 8.11896 41.8464C9.45759 39.8074 9.40144 38.6963 9.30688 36.8524C9.28029 36.3264 9.25074 35.7325 9.25074 35.0439C9.25074 32.0446 7.00492 29.5033 6.98128 29.4767C6.97241 29.4678 5.76381 28.2533 6.70942 27.1333C6.73306 27.1067 6.77148 27.1038 6.80103 27.1245C6.82762 27.1481 6.83057 27.1865 6.80988 27.2161C6.44642 27.6445 6.38141 28.138 6.6119 28.6818C6.78625 29.0955 7.07584 29.3821 7.07879 29.3851C7.10539 29.4146 9.38372 31.9914 9.38372 35.041C9.38372 35.7265 9.41326 36.3205 9.43986 36.8435C9.53442 38.7111 9.59352 39.8399 8.23126 41.9144C7.83824 42.5113 7.47772 43.0077 7.15858 43.4451C6.05931 44.9521 5.55696 45.6377 6.37255 46.9468C6.9931 47.9485 6.88376 48.1702 6.61486 48.7109C6.41392 49.1158 6.10659 49.7304 5.97362 51.072C5.87019 52.1033 5.55695 52.9278 5.28214 53.6547C4.74137 55.0849 4.3513 56.1192 5.95293 57.6499C6.9665 58.6221 7.51909 59.5707 8.051 60.4897C8.38491 61.063 8.69815 61.6037 9.10299 62.1002C9.12663 62.1268 9.12072 62.1681 9.09412 62.1918C9.07935 62.2036 9.06457 62.2065 9.0498 62.2065ZM28.748 51.6482C28.5057 51.6482 28.2693 51.6482 28.0418 51.6453C27.631 51.6423 27.2794 51.6423 26.8716 51.6453C25.8225 51.6512 24.5164 51.6571 23.4408 51.5271C23.4053 51.5241 23.3817 51.4916 23.3846 51.4562C23.3876 51.4207 23.4201 51.3971 23.4556 51.4C24.5223 51.5271 25.8225 51.5212 26.8686 51.5153C27.2794 51.5123 27.631 51.5123 28.0418 51.5153C29.9625 51.5271 32.5925 51.5389 33.3283 50.7765C33.4613 50.6376 33.5233 50.484 33.5145 50.3037C33.4642 49.1778 29.1203 48.7493 27.4478 48.6784C25.7841 48.7493 21.4373 49.1778 21.39 50.3037C21.3782 50.5903 21.5407 50.8179 21.8835 50.9981C21.916 51.0159 21.9278 51.0543 21.9101 51.0838C21.8923 51.1163 21.8539 51.1281 21.8244 51.1104C21.4373 50.9095 21.2511 50.6347 21.2629 50.2978C21.325 48.8262 27.1966 48.5602 27.4478 48.5514C27.7019 48.5632 33.5765 48.8262 33.6415 50.2978C33.6504 50.5135 33.5765 50.7026 33.417 50.8652C32.7373 51.5744 30.5801 51.6482 28.748 51.6482ZM15.0869 49.8989C15.0249 49.8989 14.9628 49.8959 14.8948 49.89C13.4173 49.7718 13.0095 48.315 12.6136 46.9054C12.4126 46.1933 12.2235 45.5165 11.9044 45.026C11.405 44.2547 11.3518 43.055 11.2986 41.8937C11.2483 40.7619 11.2011 39.6922 10.7755 39.0066C10.3293 38.2856 10.4948 37.3193 10.6721 36.2969C10.8524 35.2449 11.0592 34.054 10.6366 32.9252C10.3205 32.08 10.2761 30.7591 10.5007 29.0009C10.5066 28.9654 10.5391 28.9418 10.5716 28.9448C10.6071 28.9507 10.6307 28.9802 10.6278 29.0157C10.4032 30.7532 10.4475 32.0534 10.7548 32.8808C11.1892 34.0422 10.9824 35.2508 10.7962 36.3175C10.616 37.3607 10.4623 38.259 10.8819 38.9387C11.3252 39.6508 11.3725 40.7383 11.4227 41.8878C11.4729 43.0314 11.5261 44.2163 12.0078 44.958C12.3387 45.4663 12.5308 46.1489 12.7318 46.8729C13.1159 48.2381 13.5119 49.6536 14.9008 49.7629C16.0769 49.8516 16.5556 49.0685 17.0166 48.3091C17.3889 47.6944 17.7435 47.1152 18.432 47.0236C18.8546 46.9645 19.2181 46.7517 19.6761 46.4828C20.8285 45.8032 22.575 44.7778 27.4478 44.7778C32.3206 44.7778 34.0641 45.8032 35.2195 46.4828C35.6776 46.7517 36.041 46.9675 36.4665 47.0236C37.1521 47.1152 37.5067 47.6944 37.8791 48.3091C38.34 49.0685 38.8187 49.8516 39.9948 49.7629C41.3867 49.6506 41.7826 48.2352 42.1668 46.867C42.3677 46.146 42.5598 45.4634 42.8878 44.958C43.3695 44.2163 43.4227 43.0343 43.4729 41.8878C43.5232 40.7383 43.5734 39.6538 44.0166 38.9387C44.4392 38.259 44.2826 37.3577 44.1023 36.3175C43.9191 35.2508 43.7093 34.0422 44.1437 32.8808C44.451 32.0534 44.4954 30.7562 44.2708 29.0157C44.2649 28.9802 44.2915 28.9477 44.3269 28.9448C44.3624 28.9418 44.3949 28.9654 44.3978 29.0009C44.6254 30.7591 44.5781 32.08 44.2649 32.9252C43.8423 34.054 44.0462 35.2449 44.2294 36.2969C44.4067 37.3193 44.5722 38.2856 44.126 39.0066C43.7005 39.6892 43.6532 40.759 43.6029 41.8937C43.5497 43.055 43.4966 44.2577 42.9972 45.026C42.681 45.5165 42.4919 46.1873 42.2909 46.8995C41.8949 48.309 41.4871 49.7688 40.0067 49.887C38.7508 49.9845 38.2337 49.1276 37.7727 48.3711C37.4151 47.786 37.0782 47.2305 36.4518 47.1448C36.0026 47.0827 35.6303 46.864 35.1575 46.5863C34.0139 45.9155 32.2881 44.8989 27.4508 44.8989C22.6104 44.8989 20.8847 45.9155 19.744 46.5863C19.2742 46.864 18.9019 47.0827 18.4527 47.1448C17.8233 47.2305 17.4864 47.7831 17.1288 48.3711C16.6974 49.0921 16.2069 49.8989 15.0869 49.8989Z" fill="white" stroke="white" stroke-miterlimit="10"/>
<path d="M17.1798 33.983C17.1562 33.983 17.1325 33.98 17.1118 33.9712C17.0202 33.9387 16.9907 33.8471 16.9582 33.7496C16.8991 33.5693 16.8252 33.3477 16.3435 33.324C15.2856 33.2708 14.6355 32.2986 14.6089 32.2573C14.5912 32.2307 14.5971 32.1923 14.6208 32.1716C14.6474 32.1509 14.6828 32.1538 14.7065 32.1745C15.0197 32.4878 15.8619 32.34 16.0746 32.2986V32.1686C16.0746 32.145 16.0865 32.1243 16.1071 32.1125C16.1278 32.1007 16.1515 32.1007 16.1692 32.1125C17.035 32.5882 18.548 32.1627 18.9469 32.0386L18.8612 31.9559C18.8435 31.9381 18.8376 31.9145 18.8435 31.8908C18.8494 31.8672 18.8701 31.8495 18.8937 31.8465C20.5456 31.6042 21.7512 31.944 22.0763 32.0534V31.9115C22.0763 31.8938 22.0822 31.8761 22.097 31.8643C22.1088 31.8524 22.1236 31.8465 22.1443 31.8465C23.4327 31.9174 24.2246 33.1526 24.2689 33.2236L24.2867 33.2472C24.4551 33.4836 24.5497 33.658 24.4669 33.7466C24.4049 33.8087 24.2837 33.8382 23.6188 33.392C22.3659 32.5469 18.288 33.3772 17.5433 33.8353C17.3778 33.9357 17.2655 33.983 17.1798 33.983ZM14.9163 32.4405C15.1793 32.7271 15.6846 33.1645 16.3495 33.197C16.9198 33.2265 17.0143 33.5191 17.0793 33.7111C17.103 33.7791 17.1237 33.8412 17.1562 33.853C17.1887 33.8648 17.2714 33.853 17.4812 33.7259C18.2643 33.2472 22.3748 32.3991 23.6957 33.2856C24.1832 33.6136 24.3339 33.652 24.3753 33.655C24.3724 33.6254 24.3428 33.5427 24.1891 33.324L24.1714 33.2974C24.1714 33.2974 24.1714 33.2974 24.1714 33.2945C24.1625 33.2827 23.4061 32.0888 22.2152 31.9825V32.1479C22.2152 32.1686 22.2034 32.1893 22.1856 32.2011C22.1679 32.2129 22.1472 32.2159 22.1265 32.207C22.1147 32.2011 20.8795 31.7224 19.0504 31.9588L19.1154 32.0238C19.1301 32.0386 19.139 32.0622 19.1331 32.0829C19.1272 32.1036 19.1124 32.1213 19.0917 32.1302C19.0149 32.1568 17.2685 32.7685 16.2047 32.278V32.3548C16.2047 32.3843 16.184 32.4109 16.1544 32.4168C16.116 32.4257 15.4068 32.5912 14.9163 32.4405Z" fill="white" stroke="white" stroke-miterlimit="10"/>
<path d="M37.7287 33.9833C37.643 33.9833 37.5307 33.936 37.3623 33.8326C36.6176 33.3775 32.5426 32.5471 31.2867 33.3893C30.6218 33.8385 30.5007 33.8089 30.4386 33.7439C30.3559 33.6582 30.4505 33.4809 30.6189 33.2445L30.6366 33.2209C30.6809 33.15 31.4729 31.9148 32.7613 31.8438C32.779 31.8438 32.7967 31.8497 32.8086 31.8616C32.8204 31.8734 32.8292 31.8911 32.8292 31.9088V32.0507C33.1543 31.9413 34.36 31.6015 36.0118 31.8438C36.0355 31.8468 36.0561 31.8645 36.0621 31.8882C36.0709 31.9118 36.062 31.9354 36.0443 31.9532L35.9586 32.0359C36.3576 32.163 37.8705 32.5885 38.7364 32.1098C38.757 32.098 38.7807 32.098 38.7984 32.1098C38.8191 32.1216 38.8309 32.1423 38.8309 32.1659V32.296C39.0437 32.3403 39.8859 32.488 40.1991 32.1718C40.2227 32.1482 40.2582 32.1452 40.2848 32.1689C40.3114 32.1896 40.3173 32.225 40.2966 32.2546C40.27 32.296 39.6169 33.2682 38.562 33.3213C38.0803 33.345 38.0065 33.5696 37.9474 33.7469C37.9149 33.8444 37.8853 33.933 37.7937 33.9685C37.776 33.9803 37.7523 33.9833 37.7287 33.9833ZM33.1129 32.8988C34.8032 32.8988 36.8954 33.3982 37.4302 33.7262C37.6371 33.8533 37.7198 33.8651 37.7553 33.8533C37.7878 33.8414 37.8085 33.7823 37.8321 33.7114C37.8971 33.5193 37.9946 33.2268 38.562 33.1972C39.2269 33.1647 39.7322 32.7274 39.9952 32.4408C39.5076 32.5915 38.7955 32.426 38.76 32.4171C38.7304 32.4112 38.7098 32.3846 38.7098 32.3551V32.2782C37.6459 32.7688 35.8995 32.1571 35.8227 32.1305C35.802 32.1216 35.7872 32.1039 35.7813 32.0832C35.7754 32.0625 35.7843 32.0389 35.799 32.0241L35.8641 31.9591C34.0379 31.7197 32.8027 32.2014 32.7879 32.2073C32.7672 32.2162 32.7465 32.2132 32.7288 32.2014C32.711 32.1896 32.6992 32.1689 32.6992 32.1482V31.9827C31.5084 32.0891 30.7519 33.2829 30.743 33.2948C30.743 33.2948 30.743 33.2948 30.743 33.2977L30.7253 33.3243C30.5687 33.543 30.5421 33.6257 30.5361 33.6553C30.5775 33.6553 30.7253 33.6169 31.2158 33.2859C31.6325 33.0052 32.3298 32.8988 33.1129 32.8988Z" fill="white" stroke="white" stroke-miterlimit="10"/>
<path d="M26.8839 12.1716C26.2486 12.1716 25.2882 11.9558 24.5672 10.8418L24.3219 10.96C24.2185 11.0102 24.0974 10.9984 24.0028 10.9334C23.9082 10.8684 23.855 10.7561 23.8669 10.6438L24.0028 9.07469C24.0146 8.95353 24.0914 8.8501 24.2008 8.80578C24.3131 8.76145 24.4401 8.78214 24.5317 8.86193L25.4951 9.70115C25.6281 9.8164 25.6428 10.0203 25.5246 10.1533C25.4094 10.2862 25.2055 10.301 25.0725 10.1828L24.5849 9.7573L24.5524 10.1415L24.5554 10.1385C24.709 10.0646 24.8923 10.1237 24.975 10.2744C25.6724 11.551 26.6889 11.5806 27.1351 11.5215V6.57769C27.1351 6.40039 27.277 6.25854 27.4543 6.25854C27.6316 6.25854 27.7734 6.40039 27.7734 6.57769V11.7844C27.7734 11.9233 27.6848 12.0474 27.5518 12.0888C27.5459 12.0888 27.277 12.1716 26.8839 12.1716Z" fill="white" stroke="white" stroke-miterlimit="10"/>
<path d="M28.0242 12.1716C27.6312 12.1716 27.3623 12.0888 27.3564 12.0859C27.2234 12.0445 27.1348 11.9204 27.1348 11.7815V6.57769C27.1348 6.40039 27.2766 6.25854 27.4539 6.25854C27.6312 6.25854 27.7731 6.40039 27.7731 6.57769V11.5244C28.2193 11.5835 29.2358 11.554 29.9332 10.2774C30.013 10.1267 30.1991 10.0676 30.3528 10.1415L30.3557 10.1444L30.3232 9.76025L29.8357 10.1858C29.7027 10.301 29.5017 10.2892 29.3835 10.1562C29.2683 10.0233 29.2801 9.82231 29.4131 9.70411L30.3764 8.86488C30.468 8.78509 30.5951 8.76441 30.7074 8.80873C30.8197 8.85306 30.8965 8.95649 30.9054 9.07764L31.0413 10.6468C31.0502 10.762 30.9999 10.8713 30.9054 10.9364C30.8108 11.0014 30.6897 11.0102 30.5862 10.9629L30.341 10.8447C29.6199 11.9588 28.6596 12.1716 28.0242 12.1716Z" fill="white" stroke="white" stroke-miterlimit="10"/>
<path d="M27.4544 6.75823C26.7423 6.75823 26.1631 6.17905 26.1631 5.46688C26.1631 4.75472 26.7423 4.17554 27.4544 4.17554C28.1666 4.17554 28.7458 4.75472 28.7458 5.46688C28.7458 6.17905 28.1666 6.75823 27.4544 6.75823ZM27.4544 4.81382C27.0939 4.81382 26.8014 5.10637 26.8014 5.46688C26.8014 5.8274 27.0939 6.11995 27.4544 6.11995C27.8149 6.11995 28.1075 5.8274 28.1075 5.46688C28.1075 5.10637 27.8149 4.81382 27.4544 4.81382Z" fill="white" stroke="white" stroke-miterlimit="10"/>
<path d="M28.3144 8.10289H26.5945C26.4172 8.10289 26.2754 7.96105 26.2754 7.78374C26.2754 7.60644 26.4172 7.4646 26.5945 7.4646H28.3144C28.4917 7.4646 28.6335 7.60644 28.6335 7.78374C28.6335 7.96105 28.4917 8.10289 28.3144 8.10289Z" fill="white" stroke="white" stroke-miterlimit="10"/>
<path d="M26.8829 12.0449C26.2623 12.0449 25.3108 11.8291 24.6164 10.6796L24.2677 10.8451C24.2056 10.8747 24.1318 10.8688 24.0756 10.8303C24.0195 10.7919 23.987 10.724 23.9929 10.656L24.1288 9.08688C24.1347 9.01596 24.182 8.95391 24.247 8.92436C24.315 8.89776 24.3918 8.90958 24.445 8.95686L25.4083 9.79609C25.4881 9.86701 25.497 9.98817 25.4261 10.068C25.3551 10.1477 25.234 10.1566 25.1542 10.0857L24.4775 9.49468L24.4036 10.3516L24.6105 10.2541C24.7021 10.2098 24.8144 10.2453 24.8617 10.3369C25.6595 11.7996 26.8593 11.7109 27.2611 11.6312V6.57806C27.2611 6.47168 27.3468 6.38599 27.4532 6.38599C27.5596 6.38599 27.6453 6.47168 27.6453 6.57806V11.7848C27.6453 11.8676 27.5921 11.9414 27.5123 11.968C27.5064 11.968 27.2552 12.0449 26.8829 12.0449Z" fill="white" stroke="white" stroke-miterlimit="10"/>
<path d="M28.0231 12.0449C27.6538 12.0449 27.3996 11.968 27.3937 11.9651C27.3139 11.9385 27.2607 11.8646 27.2607 11.7819V6.57806C27.2607 6.47168 27.3464 6.38599 27.4528 6.38599C27.5592 6.38599 27.6449 6.47168 27.6449 6.57806V11.6341C28.0468 11.7109 29.2465 11.8026 30.0444 10.3398C30.0917 10.2512 30.2039 10.2157 30.2956 10.2571L30.5024 10.3546L30.4285 9.49763L29.7518 10.0886C29.672 10.1596 29.5509 10.1507 29.48 10.0709C29.409 9.99112 29.4179 9.86996 29.4977 9.79904L30.461 8.95982C30.5142 8.91254 30.5911 8.90072 30.659 8.92731C30.727 8.95391 30.7713 9.01596 30.7772 9.08984L30.9132 10.659C30.9191 10.7269 30.8866 10.7949 30.8304 10.8333C30.7743 10.8717 30.7004 10.8776 30.6383 10.8481L30.2896 10.6826C29.5952 11.8291 28.6407 12.0449 28.0231 12.0449Z" fill="white" stroke="white" stroke-miterlimit="10"/>
<path d="M27.4524 6.63154C26.8111 6.63154 26.2881 6.1085 26.2881 5.46726C26.2881 4.82602 26.8111 4.30298 27.4524 4.30298C28.0936 4.30298 28.6166 4.82602 28.6166 5.46726C28.6166 6.1085 28.0936 6.63154 27.4524 6.63154ZM27.4524 4.68713C27.0209 4.68713 26.6722 5.03583 26.6722 5.46726C26.6722 5.89869 27.0209 6.24739 27.4524 6.24739C27.8838 6.24739 28.2325 5.89869 28.2325 5.46726C28.2325 5.03583 27.8838 4.68713 27.4524 4.68713Z" fill="white" stroke="white" stroke-miterlimit="10"/>
<path d="M28.3133 7.97619H26.5934C26.4871 7.97619 26.4014 7.8905 26.4014 7.78412C26.4014 7.67774 26.4871 7.59204 26.5934 7.59204H28.3133C28.4197 7.59204 28.5054 7.67774 28.5054 7.78412C28.5054 7.8905 28.4197 7.97619 28.3133 7.97619Z" fill="white" stroke="white" stroke-miterlimit="10"/>
<path d="M26.8825 11.9182C26.2797 11.9182 25.3371 11.6995 24.6663 10.5116L24.2112 10.7273C24.1905 10.7362 24.1669 10.7362 24.1462 10.7214C24.1285 10.7096 24.1166 10.6859 24.1196 10.6623L24.2555 9.09317C24.2585 9.06953 24.2733 9.04884 24.2939 9.03998C24.3176 9.03111 24.3412 9.03407 24.359 9.0518L25.3223 9.89102C25.3489 9.91466 25.3518 9.95603 25.3282 9.98263C25.3046 10.0092 25.2632 10.0122 25.2366 9.98854L24.3678 9.23205L24.2526 10.5648L24.6604 10.3697C24.6899 10.355 24.7283 10.3668 24.7431 10.3963C25.6651 12.0896 27.1071 11.8059 27.3819 11.732V6.57844C27.3819 6.54298 27.4115 6.51343 27.447 6.51343C27.4824 6.51343 27.512 6.54298 27.512 6.57844V11.7852C27.512 11.8118 27.4942 11.8384 27.4676 11.8473C27.4647 11.8473 27.2312 11.9182 26.8825 11.9182Z" fill="white" stroke="white" stroke-miterlimit="10"/>
<path d="M28.0289 11.9241C27.6802 11.9241 27.4468 11.8502 27.432 11.8443C27.4054 11.8354 27.3877 11.8118 27.3877 11.7822V6.57844C27.3877 6.54298 27.4172 6.51343 27.4527 6.51343C27.4882 6.51343 27.5177 6.54298 27.5177 6.57844V11.7379C27.7925 11.8118 29.2346 12.0925 30.1566 10.4022C30.1743 10.3727 30.2097 10.3609 30.2393 10.3756L30.6471 10.5707L30.5318 9.23796L29.6631 9.99445C29.6365 10.0181 29.5951 10.0151 29.5715 9.98854C29.5478 9.96194 29.5508 9.92057 29.5774 9.89693L30.5407 9.05771C30.5584 9.04293 30.585 9.03702 30.6057 9.04589C30.6294 9.05475 30.6441 9.07544 30.6441 9.09908L30.7801 10.6682C30.783 10.6918 30.7712 10.7125 30.7535 10.7273C30.7357 10.7391 30.7091 10.7421 30.6885 10.7332L30.2334 10.5175C29.6867 11.4838 28.9627 11.797 28.4485 11.8886C28.3008 11.9123 28.156 11.9241 28.0289 11.9241Z" fill="white" stroke="white" stroke-miterlimit="10"/>
<path d="M27.4523 6.50143C26.8819 6.50143 26.415 6.03749 26.415 5.46422C26.415 4.8939 26.879 4.427 27.4523 4.427C28.0226 4.427 28.4895 4.89094 28.4895 5.46422C28.4895 6.03749 28.0226 6.50143 27.4523 6.50143ZM27.4523 4.55702C26.9529 4.55702 26.5451 4.96482 26.5451 5.46422C26.5451 5.96362 26.9529 6.37141 27.4523 6.37141C27.9517 6.37141 28.3594 5.96362 28.3594 5.46422C28.3594 4.96482 27.9517 4.55702 27.4523 4.55702Z" fill="white" stroke="white" stroke-miterlimit="10"/>
<path d="M28.3132 7.84609H26.5933C26.5579 7.84609 26.5283 7.81654 26.5283 7.78108C26.5283 7.74562 26.5579 7.71606 26.5933 7.71606H28.3132C28.3486 7.71606 28.3782 7.74562 28.3782 7.78108C28.3752 7.81949 28.3486 7.84609 28.3132 7.84609Z" fill="white" stroke="white" stroke-miterlimit="10"/>
<path d="M27.4558 31.4122C27.4529 31.4122 27.4529 31.4122 27.4529 31.4122C27.3465 31.4122 23.4222 31.4092 19.235 31.0605C13.4726 30.5789 9.96208 29.6865 8.80371 28.4099C8.71801 28.3153 8.67665 28.1853 8.69142 28.0582C8.7062 27.9312 8.77712 27.813 8.8835 27.7421C9.17604 27.5411 16.1972 22.8042 27.4558 22.8042C38.7145 22.8042 45.7356 27.5411 46.0282 27.7421C46.1346 27.8159 46.2055 27.9312 46.2203 28.0582C46.235 28.1853 46.1937 28.3153 46.108 28.4099C44.9496 29.6865 41.439 30.5789 35.6767 31.0605C31.4865 31.4063 27.5622 31.4122 27.4558 31.4122ZM27.4529 30.5139C27.4706 30.5139 27.4883 30.5139 27.5061 30.5139C31.6195 30.5139 42.1541 30.0824 45.0176 28.1617C43.2239 27.0979 36.7553 23.6937 27.4558 23.6937C18.1564 23.6937 11.6849 27.0979 9.89116 28.1617C12.7546 30.0824 23.2863 30.5139 27.3997 30.5139C27.4174 30.5139 27.4352 30.5139 27.4529 30.5139Z" fill="white" stroke="white" stroke-miterlimit="10"/>
<path d="M6.38404 27.3019C6.26879 27.3019 6.1565 27.2576 6.0708 27.1748C5.70142 26.8143 5.38819 26.4006 5.13997 25.9396C4.71149 25.1477 4.94494 23.8947 5.7753 22.5059C6.53474 21.2352 8.43779 18.8003 12.6664 16.7584C16.7385 14.7903 21.7147 13.7915 27.4534 13.7915C33.192 13.7915 38.1683 14.7903 42.2403 16.7584C46.4719 18.8032 48.375 21.2382 49.1315 22.5059C49.9618 23.8947 50.1923 25.1477 49.7668 25.9396C49.5186 26.4006 49.2024 26.8173 48.833 27.1748C48.7473 27.2576 48.6321 27.3019 48.5109 27.3019C48.3927 27.2989 48.2775 27.2487 48.1947 27.163C46.4897 25.3693 39.9502 19.5124 27.4504 19.5124C14.9536 19.5124 8.41414 25.3693 6.70613 27.163C6.62339 27.2487 6.5111 27.2989 6.38995 27.3019C6.38995 27.3019 6.38699 27.3019 6.38404 27.3019ZM27.4534 14.6898C20.0895 14.6898 10.1931 16.8588 6.54361 22.9669C5.77234 24.2582 5.73098 25.1477 5.92897 25.5171C6.06194 25.7623 6.21855 25.9958 6.39586 26.2085C8.58849 24.0455 15.3023 18.62 27.4534 18.62C32.9586 18.62 37.9556 19.7163 42.3113 21.8824C45.414 23.4249 47.4382 25.1447 48.5109 26.2085C48.6882 25.9958 48.8419 25.7653 48.9778 25.5171C49.1758 25.1477 49.1344 24.2612 48.3632 22.9669C44.7137 16.8559 34.8173 14.6898 27.4534 14.6898Z" fill="white" stroke="white" stroke-miterlimit="10"/>
<path d="M27.4562 31.2495C27.4532 31.2495 27.4532 31.2495 27.4532 31.2495C27.3439 31.2495 23.4285 31.2466 19.2471 30.8979C13.5262 30.4192 10.051 29.5445 8.92223 28.3004C8.86608 28.2384 8.83949 28.1556 8.84835 28.0729C8.85722 27.9902 8.90155 27.9163 8.97247 27.869C9.04339 27.8188 16.2448 22.9607 27.4562 22.9607C38.6675 22.9607 45.866 27.8217 45.9399 27.869C46.0078 27.9163 46.0522 27.9902 46.064 28.0729C46.0728 28.1556 46.0462 28.2384 45.9901 28.3004C44.8613 29.5474 41.3862 30.4221 35.6652 30.8979C31.4809 31.2466 27.5655 31.2495 27.4562 31.2495ZM27.4532 30.6733C27.4946 30.6763 31.4218 30.6733 35.618 30.3217C41.8767 29.7986 44.3589 28.8914 45.3045 28.1468C43.8359 27.2455 37.1871 23.534 27.4532 23.534C17.7105 23.534 11.0705 27.2455 9.60189 28.1468C10.5475 28.8914 13.0297 29.7986 19.2885 30.3217C23.4846 30.6733 27.4118 30.6704 27.4532 30.6733Z" fill="white" stroke="white" stroke-miterlimit="10"/>
<path d="M6.38441 27.1422C6.31054 27.1422 6.23666 27.1126 6.18347 27.0594C5.82591 26.7107 5.52155 26.3089 5.27924 25.8626C4.88622 25.1328 5.12262 23.9064 5.91161 22.5855C6.66219 21.3326 8.54454 18.9242 12.7377 16.9C16.7891 14.9438 21.7387 13.9509 27.4538 13.9509C33.1688 13.9509 38.1185 14.9438 42.1698 16.9C46.363 18.9272 48.2453 21.3326 48.993 22.5855C49.782 23.9064 50.0184 25.1298 49.6253 25.8597C49.383 26.3059 49.0787 26.7078 48.7211 27.0565C48.665 27.1097 48.597 27.1392 48.5142 27.1392C48.4374 27.1363 48.3635 27.1067 48.3104 27.0506C46.5935 25.245 40.0126 19.3498 27.4508 19.3498C24.2741 19.3498 13.3849 19.9053 6.59127 27.0506C6.53808 27.1067 6.4642 27.1392 6.38737 27.1392C6.39033 27.1422 6.38737 27.1422 6.38441 27.1422ZM27.4538 18.7765C32.9324 18.7765 37.9086 19.8669 42.2407 22.0211C45.4469 23.6139 47.4918 25.3957 48.5202 26.4389C48.7506 26.1818 48.9516 25.8981 49.1171 25.5878C49.3446 25.1623 49.3032 24.2285 48.4995 22.881C46.1975 19.0306 39.3034 14.5272 27.4538 14.5272C20.0485 14.5272 10.09 16.7168 6.40806 22.884C5.60429 24.2315 5.55996 25.1653 5.79045 25.5908C5.95889 25.8981 6.15688 26.1847 6.38737 26.4418C8.4293 24.3792 15.1254 18.7765 27.4538 18.7765Z" fill="white" stroke="white" stroke-miterlimit="10"/>
<path d="M27.4743 31.0898C27.4565 31.0898 27.4477 31.0898 27.4299 31.0898C26.5227 31.0898 11.6235 31.0455 9.03784 28.191C9.0142 28.1644 9.00237 28.126 9.00533 28.0905C9.00828 28.055 9.02897 28.0196 9.05852 27.9989C9.12944 27.9487 16.2895 23.1172 27.4506 23.1172C38.6088 23.1172 45.7718 27.9487 45.8427 27.9989C45.8723 28.0196 45.8929 28.0521 45.8959 28.0905C45.8989 28.126 45.887 28.1644 45.8634 28.191C43.2807 31.0455 28.3844 31.0898 27.4743 31.0898ZM27.4536 30.8357C27.7077 30.8357 42.7517 30.8091 45.5738 28.1289C44.5661 27.4877 37.7164 23.3772 27.4536 23.3772C21.6617 23.3772 17.0075 24.6922 14.1205 25.7974C11.4698 26.811 9.79432 27.8334 9.33334 28.1289C10.4917 29.2252 13.9195 30.0379 19.277 30.4841C23.4406 30.8298 27.3383 30.8357 27.4536 30.8357Z" fill="white" stroke="white" stroke-miterlimit="10"/>
<path d="M6.38435 26.9824C6.35185 26.9824 6.31934 26.9706 6.2957 26.947C5.94996 26.6101 5.65446 26.22 5.42101 25.7886C5.05459 25.1089 5.28804 23.9417 6.04748 22.671C6.78624 21.4329 8.64791 19.0541 12.8056 17.0476C16.8333 15.1003 21.7623 14.1133 27.4537 14.1133C33.1451 14.1133 38.0711 15.1003 42.1018 17.0476C46.2565 19.0541 48.1182 21.4329 48.8599 22.671C49.6194 23.9417 49.8528 25.1089 49.4864 25.7886C49.2529 26.22 48.9574 26.6101 48.6117 26.947C48.5881 26.9706 48.5555 26.9824 48.523 26.9824H48.5201C48.4846 26.9824 48.4521 26.9677 48.4285 26.944C46.6998 25.1267 40.0805 19.193 27.4537 19.193C24.2623 19.193 13.3168 19.7515 6.47891 26.944C6.45527 26.9677 6.42277 26.9824 6.38435 26.9824C6.38731 26.9824 6.38731 26.9824 6.38435 26.9824ZM27.4537 18.9359C32.9087 18.9359 37.8584 20.0233 42.1697 22.1657C45.4823 23.8117 47.5449 25.6586 48.523 26.6721C48.8126 26.3766 49.0579 26.0368 49.2588 25.6674C49.578 25.0764 49.3386 23.9772 48.6353 22.804C47.4001 20.7385 44.977 18.7231 41.9865 17.2781C37.9913 15.3485 33.1008 14.3704 27.4507 14.3704C21.8007 14.3704 16.9102 15.3485 12.915 17.2781C9.92448 18.7231 7.50135 20.7385 6.26615 22.804C5.56285 23.9801 5.32645 25.0764 5.64264 25.6704C5.84358 26.0398 6.09181 26.3796 6.37844 26.6751C8.26375 24.7336 14.9392 18.9359 27.4537 18.9359Z" fill="white"/>
<path d="M6.38435 26.9824C6.35185 26.9824 6.31934 26.9706 6.2957 26.947C5.94996 26.6101 5.65446 26.22 5.42101 25.7886C5.05459 25.1089 5.28804 23.9417 6.04748 22.671C6.78624 21.4329 8.64791 19.0541 12.8056 17.0476C16.8333 15.1003 21.7623 14.1133 27.4537 14.1133C33.1451 14.1133 38.0711 15.1003 42.1018 17.0476C46.2565 19.0541 48.1182 21.4329 48.8599 22.671C49.6194 23.9417 49.8528 25.1089 49.4864 25.7886C49.2529 26.22 48.9574 26.6101 48.6117 26.947C48.5881 26.9706 48.5556 26.9824 48.523 26.9824H48.5201C48.4846 26.9824 48.4521 26.9677 48.4285 26.944C46.6998 25.1267 40.0805 19.193 27.4537 19.193C24.2623 19.193 13.3168 19.7515 6.47891 26.944C6.45527 26.9677 6.42277 26.9824 6.38435 26.9824ZM6.38435 26.9824C6.38731 26.9824 6.38731 26.9824 6.38435 26.9824ZM27.4537 18.9359C32.9087 18.9359 37.8584 20.0233 42.1697 22.1657C45.4823 23.8117 47.5449 25.6586 48.523 26.6721C48.8126 26.3766 49.0579 26.0368 49.2588 25.6674C49.578 25.0764 49.3386 23.9772 48.6353 22.804C47.4001 20.7385 44.977 18.7231 41.9865 17.2781C37.9913 15.3485 33.1008 14.3704 27.4507 14.3704C21.8007 14.3704 16.9102 15.3485 12.915 17.2781C9.92448 18.7231 7.50135 20.7385 6.26615 22.804C5.56285 23.9801 5.32645 25.0764 5.64264 25.6704C5.84358 26.0398 6.09181 26.3796 6.37844 26.6751C8.26375 24.7336 14.9392 18.9359 27.4537 18.9359Z" stroke="white" stroke-miterlimit="10"/>
<path d="M45.7751 28.5548C45.6835 28.5548 45.5948 28.5282 45.5209 28.475C45.45 28.4277 38.4171 23.6937 27.4539 23.6937C16.4908 23.6937 9.46074 28.4277 9.38982 28.475C9.31003 28.5311 9.21251 28.5577 9.115 28.5518C9.07658 28.5488 8.18417 28.5016 7.18832 27.9726C6.96965 27.8574 6.88691 27.5855 7.00215 27.3668C7.1174 27.1482 7.38926 27.0654 7.60793 27.1807C8.21076 27.4998 8.77222 27.6062 9.0234 27.6417C10.099 26.9413 16.9222 22.7954 27.4539 22.7954C37.9856 22.7954 44.8117 26.9413 45.8903 27.6417C46.1385 27.6092 46.697 27.4998 47.2999 27.1807C47.5185 27.0654 47.7904 27.1482 47.9057 27.3668C48.0209 27.5855 47.9382 27.8574 47.7195 27.9726C46.7236 28.5016 45.8342 28.5488 45.7958 28.5518C45.7898 28.5548 45.781 28.5548 45.7751 28.5548Z" fill="white" stroke="white" stroke-miterlimit="10"/>
<path d="M47.5091 28.0289C47.3465 28.0289 47.187 27.9373 47.1072 27.7837C46.9949 27.562 47.0836 27.2931 47.3052 27.1808C47.4973 27.0833 47.6834 26.9651 47.8637 26.8292C45.742 24.737 39.2616 19.5155 27.4503 19.5155C15.6421 19.5155 9.16168 24.7341 7.03997 26.8292C7.21727 26.9651 7.4064 27.0833 7.59848 27.1808C7.8201 27.2931 7.90579 27.562 7.7935 27.7837C7.68121 28.0053 7.41231 28.091 7.19068 27.9787C6.78584 27.7718 6.41055 27.5029 6.07368 27.1808C5.89638 27.0094 5.89047 26.7287 6.0589 26.5485C7.82601 24.6897 14.5871 18.6201 27.4503 18.6201C32.9556 18.6201 37.9555 19.7164 42.3082 21.8825C45.7715 23.6052 47.8903 25.5467 48.8418 26.5485C49.0102 26.7258 49.0043 27.0094 48.827 27.1808C48.4842 27.5088 48.1089 27.7777 47.7071 27.9816C47.645 28.0112 47.577 28.0289 47.5091 28.0289Z" fill="white" stroke="white" stroke-miterlimit="10"/>
<path d="M45.7747 28.3948C45.7156 28.3948 45.6594 28.377 45.6121 28.3445C45.5412 28.2973 38.4728 23.5337 27.4535 23.5337C16.4224 23.5337 9.36874 28.2943 9.29782 28.3445C9.24463 28.38 9.18257 28.3977 9.12052 28.3948C9.08506 28.3918 8.22809 28.3475 7.2618 27.8333C7.11996 27.7594 7.06677 27.5851 7.1436 27.4432C7.21747 27.3014 7.39182 27.2482 7.53366 27.325C8.21332 27.6856 8.83683 27.786 9.06142 27.8097C9.92133 27.2541 16.9159 22.9575 27.4535 22.9575C37.9911 22.9575 44.9886 27.2541 45.8486 27.8097C46.0731 27.7831 46.6966 27.6826 47.3733 27.325C47.5152 27.2512 47.6895 27.3044 47.7634 27.4432C47.8373 27.5851 47.7841 27.7594 47.6452 27.8333C46.6789 28.3445 45.8249 28.3918 45.7895 28.3948C45.7835 28.3948 45.7776 28.3948 45.7747 28.3948Z" fill="white" stroke="white" stroke-miterlimit="10"/>
<path d="M47.5094 27.866C47.4031 27.866 47.3026 27.8069 47.2524 27.7065C47.1814 27.5646 47.2376 27.3903 47.3794 27.3194C47.6336 27.1923 47.8759 27.0298 48.1064 26.8377C46.1117 24.8224 39.5663 19.3496 27.4537 19.3496C15.341 19.3496 8.79859 24.8224 6.80099 26.8347C7.02853 27.0238 7.27674 27.1864 7.52792 27.3164C7.66976 27.3873 7.72591 27.5617 7.65499 27.7035C7.58407 27.8453 7.40972 27.9015 7.26788 27.8306C6.87781 27.6326 6.51435 27.3725 6.18929 27.0593C6.07405 26.95 6.0711 26.7668 6.18043 26.6545C7.93572 24.8076 14.6555 18.7764 27.4566 18.7764C32.9382 18.7764 37.9115 19.8668 42.2436 22.021C45.6862 23.7319 47.7872 25.6586 48.7328 26.6545C48.8422 26.7697 48.8363 26.95 48.724 27.0593C48.393 27.3784 48.0295 27.6355 47.6424 27.8306C47.5951 27.8572 47.5538 27.866 47.5094 27.866Z" fill="white" stroke="white" stroke-miterlimit="10"/>
<path d="M9.13493 28.2351C9.13198 28.2351 9.13197 28.2351 9.12902 28.2351C9.09356 28.2321 8.27206 28.1878 7.33828 27.6943C7.27622 27.6618 7.25258 27.5849 7.28508 27.5199C7.31759 27.4579 7.39442 27.4342 7.45943 27.4667C8.22774 27.8745 8.93103 27.9602 9.10243 27.975C9.68161 27.5938 16.7175 23.1169 27.4531 23.1169C38.1917 23.1169 45.2276 27.5938 45.8098 27.975C45.9812 27.9602 46.6815 27.8716 47.4498 27.4667C47.5119 27.4342 47.5887 27.4579 47.6242 27.5199C47.6567 27.582 47.633 27.6588 47.571 27.6943C46.6372 28.1907 45.8157 28.2351 45.7832 28.2351C45.7536 28.2351 45.727 28.2291 45.7034 28.2114C45.6325 28.1641 38.5315 23.374 27.4561 23.374C16.3807 23.374 9.28268 28.1641 9.21176 28.2114C9.18517 28.2262 9.16153 28.2351 9.13493 28.2351Z" fill="white" stroke="white" stroke-miterlimit="10"/>
<path d="M47.5098 27.7065C47.4625 27.7065 47.4182 27.6799 47.3946 27.6356C47.362 27.5736 47.3886 27.4967 47.4507 27.4642C47.7639 27.3046 48.0624 27.1007 48.3372 26.8496C46.4814 24.9318 39.877 19.1931 27.4511 19.1931C15.0252 19.1931 8.42364 24.9318 6.56789 26.8496C6.83975 27.0948 7.13821 27.3017 7.45439 27.4642C7.51645 27.4967 7.54305 27.5736 7.51054 27.6356C7.47804 27.6977 7.40121 27.7243 7.33915 27.6918C6.96386 27.4997 6.61221 27.2485 6.29602 26.9471C6.24579 26.8969 6.24283 26.8171 6.29307 26.7668C8.03653 24.9288 14.7149 18.939 27.454 18.939C32.909 18.939 37.8616 20.0264 42.1701 22.1659C45.592 23.865 47.6753 25.7799 48.615 26.7668C48.6623 26.8171 48.6623 26.8998 48.612 26.9471C48.2929 27.2544 47.9412 27.5056 47.5689 27.6918C47.5482 27.7036 47.5275 27.7065 47.5098 27.7065Z" fill="white" stroke="white" stroke-miterlimit="10"/>
<path d="M10.0218 65.6698C8.48227 65.6698 7.71396 65.0936 7.65486 64.4878C7.63713 64.3164 7.66372 64.0564 7.89126 63.7756C8.30792 63.2644 9.28603 62.8714 10.4415 62.7562C12.4568 62.5523 13.4497 63.2053 13.5206 63.8968C13.5472 64.1628 13.4674 64.6769 12.6252 65.1143C12.1258 65.3743 11.4521 65.5575 10.734 65.6314C10.4769 65.658 10.2405 65.6698 10.0218 65.6698Z" fill="white" stroke="white" stroke-miterlimit="10"/>
<path d="M10.0218 65.6703C8.48227 65.6703 7.71691 65.094 7.65486 64.4912C7.63713 64.3198 7.66372 64.0568 7.89126 63.7791C8.30792 63.2678 9.28603 62.8748 10.4415 62.7596C12.4568 62.5557 13.4497 63.2087 13.5206 63.9002C13.5472 64.1662 13.4674 64.6803 12.6252 65.1177C12.1258 65.3777 11.4521 65.5609 10.734 65.6348C10.4769 65.6585 10.2405 65.6703 10.0218 65.6703ZM8.54727 64.3996C8.63297 64.5503 9.37173 64.8695 10.6424 64.7424C11.9101 64.6153 12.5691 64.1573 12.6252 63.9918C12.5366 63.8382 11.7978 63.522 10.5301 63.652C9.26535 63.7791 8.60342 64.2341 8.54727 64.3996Z" fill="white" stroke="white" stroke-miterlimit="10"/>
<path d="M11.4486 74.0001C10.0893 74.0001 8.89547 73.1964 8.05624 71.6982C6.16798 68.3324 5.5356 65.9654 6.07046 64.2544C6.37483 63.2822 7.06335 62.5287 8.12125 62.0145C10.1395 61.0305 13.1566 61.6215 14.2825 61.8963C15.8309 56.5152 18.2747 53.4804 20.0743 51.8729C21.7646 50.3628 23.2037 49.7955 23.6795 49.6359C23.8302 49.4675 24.04 49.3818 24.2646 49.3995C24.6162 49.4291 24.9383 49.7098 25.0447 50.0792C25.154 50.4574 25.0181 50.8327 24.6812 51.0898C24.5098 51.2198 24.3857 51.2789 24.2853 51.3262C24.0636 51.4326 23.8331 51.539 22.1783 53.9739C20.1689 56.9319 18.3131 64.0387 17.3143 67.8566C17.2375 68.1462 17.1695 68.4181 17.1045 68.6633C16.3924 71.3583 14.1052 73.6869 11.8978 73.9676C11.7471 73.9913 11.5964 74.0001 11.4486 74.0001ZM10.9315 62.3603C10.0775 62.3603 9.2087 62.4755 8.50836 62.8153C7.67208 63.2231 7.152 63.7816 6.92151 64.5174C6.47234 65.9565 7.09585 68.161 8.83341 71.2549C9.58694 72.5965 10.6064 73.2289 11.7855 73.0781C13.6265 72.8447 15.6241 70.7614 16.2387 68.4328C16.3037 68.1876 16.3746 67.9157 16.4485 67.6291C17.4591 63.758 19.3415 56.5536 21.4366 53.4686C23.1476 50.9509 23.4578 50.7234 23.8981 50.5136C23.9277 50.4988 23.9543 50.487 23.9809 50.4722C23.6322 50.5874 22.2463 51.1075 20.6181 52.5762C18.8775 54.1453 16.4928 57.1505 15.0212 62.5523C14.9887 62.6676 14.9119 62.7681 14.8085 62.8272C14.7021 62.8863 14.578 62.8981 14.4627 62.8656C14.4391 62.8626 12.7134 62.3603 10.9315 62.3603Z" fill="white" stroke="white" stroke-miterlimit="10"/>
<path d="M10.0748 65.5072C8.92232 65.5072 7.88216 65.1822 7.81124 64.473C7.79646 64.3341 7.8201 64.1154 8.01218 63.879C8.4052 63.3973 9.33898 63.0309 10.456 62.9157C12.2763 62.7295 13.2958 63.2791 13.3608 63.9145C13.3992 64.3045 13.1126 64.6828 12.5481 64.9753C12.0665 65.2265 11.4134 65.4038 10.7131 65.4747C10.5003 65.4954 10.2875 65.5072 10.0748 65.5072Z" fill="white" stroke="white" stroke-miterlimit="10"/>
<path d="M10.0748 65.508C8.92232 65.508 7.88216 65.183 7.81124 64.4767C7.79646 64.3349 7.8201 64.1192 8.01218 63.8828C8.4052 63.4011 9.33898 63.0347 10.456 62.9194C12.2763 62.7362 13.2958 63.2829 13.3608 63.9182C13.3992 64.3083 13.1126 64.6865 12.5481 64.9791C12.0665 65.2303 11.4134 65.4076 10.7131 65.4785C10.5003 65.4962 10.2875 65.508 10.0748 65.508ZM11.112 63.4602C10.9258 63.4602 10.7249 63.4691 10.5121 63.4927C9.43354 63.602 8.69183 63.9596 8.45838 64.2462C8.41997 64.2906 8.3786 64.3585 8.38451 64.4176C8.40815 64.657 9.23261 65.047 10.6569 64.9022C11.2863 64.8402 11.8626 64.6836 12.2822 64.4649C12.6457 64.2758 12.7964 64.0807 12.7875 63.9744C12.7668 63.7705 12.1669 63.4602 11.112 63.4602Z" fill="white" stroke="white" stroke-miterlimit="10"/>
<path d="M11.4403 73.8403C10.4445 73.8403 9.19451 73.397 8.19571 71.6181C6.32813 68.2907 5.70166 65.9681 6.22175 64.3014C6.51134 63.3736 7.17327 62.6525 8.1898 62.1561C10.2583 61.1455 13.4291 61.837 14.3924 62.0881C15.929 56.6509 18.3787 53.5983 20.1813 51.9908C21.9129 50.4453 23.3639 49.9045 23.7717 49.7745C23.8899 49.6238 24.0613 49.544 24.2504 49.5618C24.5341 49.5854 24.803 49.8248 24.8916 50.1262C24.9832 50.4365 24.868 50.7497 24.5843 50.9654C24.4277 51.0866 24.3095 51.1398 24.2179 51.1841C23.9667 51.3023 23.7273 51.4175 22.0489 53.8879C20.0247 56.8666 18.163 63.9912 17.1642 67.8209C17.0874 68.1105 17.0194 68.3823 16.9544 68.6276C16.26 71.2635 14.0319 73.5418 11.8836 73.8166C11.7417 73.8314 11.594 73.8403 11.4403 73.8403ZM10.935 62.2034C10.0574 62.2034 9.16496 62.3216 8.44097 62.6732C7.56333 63.1017 7.01665 63.6898 6.77138 64.4728C6.30745 65.9563 6.93686 68.2021 8.69806 71.3374C9.4841 72.741 10.5597 73.4 11.8097 73.2404C13.7098 72.9981 15.7665 70.8616 16.3959 68.4769C16.4609 68.2316 16.5318 67.9598 16.6057 67.6702C17.6134 63.808 19.4898 56.6213 21.5731 53.5599C23.3402 50.9595 23.6062 50.8354 23.9726 50.661C24.0553 50.6226 24.1292 50.5872 24.2385 50.5044C24.3597 50.4128 24.3568 50.333 24.342 50.2828C24.3183 50.203 24.2563 50.1528 24.2208 50.138C24.2208 50.1409 24.2179 50.141 24.2179 50.1439C24.1824 50.2207 24.1144 50.2739 24.0317 50.2976C24.0169 50.3005 22.4389 50.7349 20.5359 52.4488C18.7717 54.0327 16.3604 57.0646 14.8741 62.5166C14.8534 62.5905 14.8031 62.6555 14.7352 62.691C14.6672 62.7294 14.5874 62.7382 14.5136 62.7146C14.484 62.7087 12.7435 62.2034 10.935 62.2034Z" fill="white" stroke="white" stroke-miterlimit="10"/>
<path d="M10.0543 65.3477C8.88112 65.3477 8.02416 64.999 7.97097 64.4553C7.95324 64.2957 8.00939 64.1332 8.13645 63.9796C8.49697 63.5363 9.41303 63.1817 10.4709 63.0753C11.9366 62.9276 13.1364 63.3029 13.2014 63.9323C13.2339 64.2544 12.9768 64.5735 12.4744 64.8336C12.0075 65.0759 11.3781 65.2473 10.6985 65.3152C10.4768 65.3389 10.2611 65.3477 10.0543 65.3477Z" fill="white" stroke="white" stroke-miterlimit="10"/>
<path d="M10.0543 65.3479C8.88112 65.3479 8.02416 64.9993 7.97097 64.4585C7.95324 64.296 8.00939 64.1364 8.13645 63.9827C8.49697 63.5395 9.41303 63.1849 10.4709 63.0785C11.9366 62.9307 13.1364 63.306 13.2014 63.9355C13.2339 64.2575 12.9768 64.5767 12.4744 64.8367C12.0075 65.079 11.3781 65.2504 10.6985 65.3184C10.4768 65.3391 10.2611 65.3479 10.0543 65.3479ZM11.1033 63.3001C10.9112 63.3001 10.7103 63.309 10.5005 63.3326C9.52236 63.4301 8.65359 63.7581 8.3374 64.1423C8.25466 64.2428 8.21919 64.3403 8.22806 64.4319C8.26943 64.8397 9.28596 65.2002 10.6748 65.0613C11.322 64.9963 11.9218 64.8367 12.3592 64.6092C12.7552 64.4023 12.9709 64.1659 12.9502 63.9591C12.9118 63.6104 12.173 63.3001 11.1033 63.3001Z" fill="white" stroke="white" stroke-miterlimit="10"/>
<path d="M11.4432 73.6809C10.4916 73.6809 9.29485 73.2553 8.33446 71.5414C6.49053 68.2554 5.86701 65.9712 6.37528 64.3489C6.65305 63.4653 7.28543 62.7739 8.26059 62.3011C9.25348 61.8164 10.6276 61.6716 12.3474 61.8726C13.358 61.9908 14.1972 62.2006 14.5046 62.2833C15.3556 59.216 17.0429 55.008 20.2876 52.1092C22.0872 50.5016 23.5706 49.9993 23.872 49.9077C23.9577 49.7717 24.0877 49.7038 24.2384 49.7185C24.4541 49.7363 24.6699 49.9313 24.7408 50.1707C24.8117 50.4189 24.723 50.6612 24.4896 50.8385C24.3448 50.9478 24.2414 50.9981 24.1498 51.0424C23.8661 51.1783 23.6208 51.2936 21.9158 53.7994C19.8739 56.8017 18.0092 63.944 17.0075 67.7797C16.9306 68.0693 16.8627 68.3382 16.7977 68.5864C16.118 71.1632 13.949 73.3913 11.8598 73.6572C11.7268 73.672 11.5879 73.6809 11.4432 73.6809ZM10.9349 62.044C10.0366 62.044 9.11754 62.1651 8.36992 62.5286C7.44795 62.9778 6.87468 63.5983 6.61759 64.4228C6.13887 65.9505 6.77421 68.2377 8.55609 71.4144C9.37759 72.88 10.5094 73.5656 11.8273 73.4001C13.7865 73.1519 15.9052 70.9622 16.5494 68.5184C16.6145 68.2732 16.6854 68.0013 16.7593 67.7117C17.764 63.8583 19.6374 56.6895 21.703 53.6517C23.4465 51.0867 23.6947 50.9685 24.0375 50.806C24.1261 50.7646 24.2089 50.7262 24.33 50.6316C24.5132 50.4928 24.5191 50.3421 24.4896 50.2386C24.4453 50.085 24.3123 49.9815 24.2118 49.9727C24.1734 49.9697 24.1143 49.9756 24.07 50.0731C24.0552 50.1057 24.0227 50.1322 23.9872 50.1411C23.9725 50.1441 22.3738 50.5814 20.4412 52.3131C18.6564 53.9117 16.2155 56.9702 14.7144 62.4754C14.7055 62.5079 14.6819 62.5375 14.6523 62.5522C14.6228 62.57 14.5873 62.5729 14.5548 62.564C14.5312 62.5552 12.7729 62.044 10.9349 62.044Z" fill="white" stroke="white" stroke-miterlimit="10"/>
</svg>
