<svg width="65" height="65" viewBox="0 0 65 65" fill="none" xmlns="http://www.w3.org/2000/svg">
<path d="M44.3765 26.3264C42.9144 26.3264 41.4523 25.7706 40.3407 24.659C38.1091 22.4274 38.1091 18.802 40.3407 16.5789L44.7613 12.1498C46.993 9.92664 50.6098 9.92664 52.8415 12.1498C55.0731 14.3814 55.0731 18.0068 52.8415 20.2299L48.4209 24.659C47.3008 25.7706 45.8387 26.3264 44.3765 26.3264ZM48.7971 12.5858C47.8737 12.5858 46.9502 12.9364 46.2491 13.6375L41.8285 18.0667C41.1445 18.7507 40.7683 19.657 40.7683 20.6147C40.7683 21.5809 41.1445 22.4872 41.8285 23.1627C43.2393 24.5735 45.5309 24.5735 46.9331 23.1627L51.3537 18.7421C52.0377 18.0581 52.414 17.1518 52.414 16.1941C52.414 15.2279 52.0377 14.3216 51.3537 13.6461C50.644 12.9364 49.7206 12.5858 48.7971 12.5858Z" fill="white"/>
<path d="M48.7975 54.5171C47.2756 54.5171 45.8391 53.9271 44.7617 52.8412L40.3412 48.4206C38.118 46.1975 38.118 42.5721 40.3412 40.3404C41.4185 39.2545 42.855 38.6646 44.3855 38.6646C45.9075 38.6646 47.344 39.2545 48.4213 40.3404L52.8419 44.761C53.9193 45.8384 54.5178 47.2748 54.5178 48.7968C54.5178 50.3188 53.9278 51.7553 52.8419 52.8326C51.756 53.9185 50.3281 54.5171 48.7975 54.5171ZM44.377 40.768C43.4108 40.768 42.5044 41.1442 41.8289 41.8282C41.1449 42.5122 40.7687 43.4186 40.7687 44.3848C40.7687 45.351 41.1449 46.2573 41.8289 46.9328L46.2495 51.3534C46.9335 52.0374 47.8399 52.4137 48.7975 52.4137C49.7637 52.4137 50.6701 52.0374 51.3456 51.3534C52.0296 50.6694 52.4058 49.763 52.4058 48.7968C52.4058 47.8306 52.0296 46.9243 51.3456 46.2488L46.925 41.8282C46.2495 41.1442 45.3432 40.768 44.377 40.768Z" fill="white"/>
<path d="M16.1959 54.5173C14.7338 54.5173 13.2716 53.9615 12.1601 52.85C9.92841 50.6183 9.92841 46.9929 12.1601 44.7698L16.5807 40.3492C18.8038 38.1261 22.4292 38.1261 24.6608 40.3492C26.8925 42.5809 26.8925 46.2063 24.6608 48.4294L20.2402 52.85C19.1201 53.953 17.658 54.5173 16.1959 54.5173ZM20.6165 40.7682C19.6503 40.7682 18.7439 41.1444 18.0684 41.8284L13.6393 46.249C12.9553 46.9331 12.5791 47.8394 12.5791 48.7971C12.5791 49.7633 12.9553 50.6696 13.6393 51.3451C14.3233 52.0291 15.2297 52.4053 16.1959 52.4053C17.1621 52.4053 18.0684 52.0291 18.7439 51.3451L23.1645 46.9245C23.8485 46.2405 24.2247 45.3341 24.2247 44.3765C24.2247 43.4103 23.8485 42.5039 23.1645 41.8284C22.489 41.1444 21.5827 40.7682 20.6165 40.7682Z" fill="white"/>
<path d="M20.6149 26.3264C19.1528 26.3264 17.6907 25.7707 16.5791 24.6591L12.1585 20.23C9.93543 18.0069 9.93543 14.3815 12.1585 12.1498C14.3902 9.91816 18.0156 9.91816 20.2387 12.1498L24.6593 16.5789C26.8824 18.8021 26.8824 22.4274 24.6593 24.6591C23.5392 25.7707 22.0771 26.3264 20.6149 26.3264ZM16.1944 12.5859C15.2709 12.5859 14.3475 12.9365 13.6463 13.6376C12.9623 14.3216 12.5861 15.228 12.5861 16.1942C12.5861 17.1604 12.9623 18.0667 13.6463 18.7422L18.0669 23.1628C19.4777 24.5736 21.7607 24.5651 23.1715 23.1628C23.8555 22.4788 24.2318 21.5724 24.2318 20.6062C24.2318 19.64 23.8555 18.7337 23.1715 18.0582L18.7509 13.629C18.0413 12.9365 17.1178 12.5859 16.1944 12.5859Z" fill="white"/>
<path d="M32.4914 57.8004C27.515 57.8004 22.5301 56.3554 18.2805 53.4739L17.0236 52.6189L18.2634 51.7382C18.4173 51.627 18.5969 51.4987 18.7423 51.3534L23.1628 46.9328C23.8469 46.2488 24.2231 45.3424 24.2231 44.3848C24.2231 43.4186 23.8469 42.5122 23.1628 41.8368C22.4788 41.1527 21.5725 40.7765 20.6063 40.7765C19.6401 40.7765 18.7337 41.1527 18.0582 41.8368L13.6376 46.2488C13.4923 46.3941 13.3726 46.5651 13.2529 46.7276L12.3722 47.9589L11.5171 46.7019C5.74559 38.2028 5.74559 26.7794 11.5171 18.2803L12.3722 17.0234L13.2443 18.2632C13.3555 18.4257 13.4837 18.5967 13.6291 18.742L18.0497 23.1626C19.4605 24.5734 21.7435 24.5649 23.1543 23.1626C23.8383 22.4786 24.2145 21.5722 24.2145 20.606C24.2145 19.6398 23.8383 18.7335 23.1543 18.058L18.7337 13.6289C18.5884 13.4835 18.4088 13.3552 18.2549 13.2441L17.0151 12.3634L18.272 11.5083C26.7711 5.7368 38.1945 5.7368 46.6936 11.5083L47.9506 12.3634L46.7107 13.2441C46.5568 13.3552 46.3773 13.4835 46.2319 13.6289L41.8113 18.0494C41.1273 18.7335 40.7511 19.6398 40.7511 20.5975C40.7511 21.5637 41.1273 22.47 41.8113 23.1455C43.2222 24.5563 45.5137 24.5563 46.916 23.1455L51.3365 18.7249C51.4819 18.5796 51.6101 18.4086 51.7213 18.2461L52.5934 17.0063L53.4485 18.2632C59.22 26.7623 59.22 38.1857 53.4485 46.6848L52.5934 47.9418L51.7127 46.7019C51.593 46.5395 51.4733 46.3685 51.328 46.2231L46.8988 41.794C46.2148 41.11 45.3085 40.7337 44.3508 40.7337C43.3846 40.7337 42.4783 41.11 41.8028 41.794C40.392 43.2048 40.392 45.4963 41.8028 46.8986L46.2234 51.3192C46.3687 51.4645 46.5483 51.5928 46.7022 51.704L47.942 52.5846L46.6851 53.4397C42.4526 56.3554 37.4763 57.8004 32.4914 57.8004ZM20.6148 52.4564C27.8741 56.7744 37.1086 56.7744 44.3765 52.4564L40.3407 48.412C38.1176 46.1889 38.1176 42.5635 40.3407 40.3319C41.418 39.246 42.8545 38.656 44.385 38.656C45.907 38.656 47.3435 39.246 48.4208 40.3319L52.4652 44.3677C56.7832 37.1084 56.7832 27.8739 52.4652 20.606L48.4208 24.6504C46.1977 26.8735 42.5723 26.882 40.3407 24.6504C38.109 22.4187 38.109 18.7933 40.3407 16.5702L44.3765 12.5258C37.1171 8.20788 27.8827 8.20788 20.6148 12.5258L24.6506 16.5702C26.8737 18.7933 26.8737 22.4187 24.6506 24.6504C22.4189 26.882 18.7936 26.882 16.5704 24.6504L12.5261 20.606C8.20812 27.8653 8.20812 37.0998 12.5261 44.3677L16.5704 40.3319C18.7936 38.1088 22.4189 38.1088 24.6506 40.3319C26.8823 42.5635 26.8823 46.1889 24.6506 48.412L20.6148 52.4564Z" fill="white"/>
<path d="M32.4915 49.9427C29.5673 49.9427 26.6516 49.2245 24.0437 47.7795L23.069 47.2408L23.6589 46.3002C24.5653 44.8638 24.3601 43.0254 23.163 41.8369C21.9659 40.6399 20.1276 40.4346 18.6911 41.341L17.7506 41.931L17.2119 40.9562C14.3304 35.7404 14.3304 29.2678 17.2119 24.0606L17.7506 23.0858L18.6911 23.6758C20.1276 24.5821 21.9659 24.3769 23.1545 23.1799C24.3515 21.9828 24.5567 20.1444 23.6504 18.708L23.0604 17.7674L24.0352 17.2288C29.2509 14.3473 35.7236 14.3473 40.9308 17.2288L41.9056 17.7674L41.3156 18.708C40.4092 20.1444 40.6144 21.9828 41.8115 23.1713C43.0086 24.3684 44.8469 24.5736 46.2834 23.6672L47.2239 23.0772L47.7626 24.052C50.6441 29.2678 50.6441 35.7404 47.7626 40.9477L47.2239 41.9224L46.2834 41.3324C44.8469 40.4261 43.0086 40.6313 41.8201 41.8284C40.623 43.0254 40.4178 44.8638 41.3241 46.3002L41.9141 47.2408L40.9394 47.7795C38.34 49.2159 35.4158 49.9427 32.4915 49.9427ZM25.959 46.3943C30.0718 48.3267 34.9199 48.3267 39.0326 46.3943C38.246 44.3251 38.7163 41.9652 40.3323 40.3406C41.9569 38.716 44.3168 38.2457 46.386 39.0324C48.3184 34.9196 48.3184 30.0715 46.386 25.9587C44.3168 26.7454 41.9569 26.2751 40.3323 24.6591C38.7077 23.0345 38.2374 20.6746 39.0241 18.6054C34.9113 16.673 30.0632 16.673 25.9504 18.6054C26.7371 20.6746 26.2668 23.0345 24.6508 24.6591C23.0262 26.2837 20.6663 26.7539 18.5971 25.9673C16.6647 30.0801 16.6647 34.9282 18.5971 39.0409C20.6663 38.2543 23.0262 38.7246 24.6508 40.3406C26.2754 41.9566 26.7456 44.3251 25.959 46.3943Z" fill="white"/>
<path d="M39.5115 6.37814C39.3234 6.37814 39.1353 6.32684 38.9643 6.22423L32.5001 2.28248L26.036 6.22423C25.5401 6.5235 24.8902 6.36959 24.591 5.87366C24.2917 5.37774 24.4456 4.7279 24.9415 4.42864L31.9529 0.15342C32.2864 -0.0517909 32.7139 -0.0517909 33.0473 0.15342L40.0587 4.42864C40.5546 4.7279 40.7085 5.37774 40.4093 5.87366C40.2126 6.19858 39.862 6.37814 39.5115 6.37814Z" fill="white"/>
<path d="M32.4913 65C32.3032 65 32.1151 64.9487 31.9441 64.8461L24.9327 60.5709C24.4368 60.2716 24.2829 59.6218 24.5822 59.1259C24.8814 58.6299 25.5313 58.476 26.0272 58.7753L32.4913 62.717L38.9555 58.7753C39.4514 58.476 40.1012 58.6299 40.4005 59.1259C40.6997 59.6218 40.5458 60.2716 40.0499 60.5709L33.0386 64.8461C32.8761 64.9487 32.688 65 32.4913 65Z" fill="white"/>
<path d="M59.6655 40.5627C59.4774 40.5627 59.2893 40.5114 59.1183 40.4088C58.6224 40.1095 58.4685 39.4597 58.7677 38.9638L62.7095 32.4996L58.7677 26.0355C58.4685 25.5396 58.6224 24.8897 59.1183 24.5905C59.6142 24.2912 60.264 24.4451 60.5633 24.941L64.8385 31.9524C65.0437 32.2859 65.0437 32.7134 64.8385 33.0469L60.5633 40.0582C60.3667 40.3831 60.0161 40.5627 59.6655 40.5627Z" fill="white"/>
<path d="M5.32692 40.5627C4.97635 40.5627 4.62579 40.3831 4.42913 40.0582L0.153908 33.0469C-0.0513026 32.7134 -0.0513026 32.2859 0.153908 31.9524L4.42913 24.941C4.72839 24.4451 5.37822 24.2912 5.87415 24.5905C6.37007 24.8897 6.52398 25.5396 6.22472 26.0355L2.28296 32.4996L6.22472 38.9638C6.52398 39.4597 6.37007 40.1095 5.87415 40.4088C5.70314 40.5114 5.51503 40.5627 5.32692 40.5627Z" fill="white"/>
</svg>
