<svg width="53" height="73" viewBox="0 0 53 73" fill="none" xmlns="http://www.w3.org/2000/svg">
<path d="M23.9102 33.6597C23.5918 33.6597 23.2819 33.5442 23.0395 33.3329L18.1706 29.0557C17.624 28.5738 17.5705 27.7426 18.0495 27.196C18.5313 26.6494 19.3625 26.5958 19.9091 27.0749L23.7693 30.4645L31.3517 21.5043C31.8222 20.9492 32.6534 20.8788 33.2085 21.3494C33.7636 21.8199 33.834 22.6511 33.3635 23.2062L24.9161 33.192C24.6879 33.4625 24.361 33.6287 24.006 33.6541C23.975 33.6569 23.944 33.6597 23.9102 33.6597Z" fill="white"/>
<path d="M26.1074 41.2223C34.3349 41.2223 41.0184 34.5275 41.0184 26.3112C41.0184 18.0836 34.3349 11.4001 26.1074 11.4001C17.8798 11.4001 11.1963 18.0836 11.1963 26.3112C11.1935 34.5275 17.8798 41.2223 26.1074 41.2223ZM26.1074 13.7698C33.0219 13.7698 38.646 19.3939 38.646 26.3084C38.646 33.2145 33.0219 38.8385 26.1074 38.8385C19.1928 38.8385 13.5688 33.2145 13.5688 26.3084C13.5659 19.3939 19.19 13.7698 26.1074 13.7698Z" fill="white"/>
<path d="M43.8538 44.8966C44.4314 44.829 44.8766 44.3669 44.916 43.7977L45.5049 34.877L51.9489 26.8439C52.3265 26.3818 52.2955 25.7337 51.901 25.2998L45.9388 18.7882L44.9076 8.36282C44.8484 7.7852 44.3666 7.32029 43.789 7.29211L34.4907 6.81874L26.8802 0.278949C26.6688 0.0958012 26.3871 0 26.1081 0C25.8179 0 25.5389 0.10707 25.3164 0.298672L18.1679 6.6356L8.40756 7.29211C7.81022 7.33156 7.33685 7.81338 7.2974 8.41072L6.72823 17.6808L0.284241 25.3308C-0.0933254 25.7732 -0.0933268 26.4212 0.275787 26.8636L6.42111 34.1952L7.30867 43.8316C7.35658 44.3923 7.80176 44.8431 8.37093 44.9023L12.3157 45.308L12.8088 45.3559L12.6256 45.8293L4.39803 66.7307C4.22333 67.1646 4.32195 67.6577 4.64034 67.9846C4.86294 68.2269 5.18134 68.3621 5.50818 68.3621C5.63498 68.3621 5.75896 68.3424 5.87448 68.303L12.7721 66.0178L16.2548 72.3829C16.4576 72.7605 16.8634 73 17.2973 73H17.3734C17.827 72.9718 18.2327 72.6732 18.4046 72.2477L25.8799 53.2369L26.063 52.7748H26.1109C26.187 52.7748 26.2744 52.7664 26.3533 52.7466C26.4491 52.7269 26.5449 52.6987 26.6435 52.6396C26.6914 52.6198 26.7393 52.5917 26.7872 52.5522L27.0098 52.9946L35.7981 70.7121C36.0009 71.1178 36.4151 71.3686 36.8688 71.3686H36.8969C37.359 71.3601 37.7732 71.0783 37.9592 70.6642L40.8811 64.0286L47.9422 65.7079C48.0295 65.7361 48.1253 65.7473 48.2324 65.7473C48.8889 65.7389 49.4102 65.2063 49.4102 64.5526C49.4102 64.3413 49.351 64.1272 49.227 63.9074L40.2472 45.8039L40.0161 45.3418L40.5261 45.2827L43.8538 44.8966ZM9.58534 42.6284L8.75695 33.6006C8.73723 33.3583 8.64142 33.1273 8.48645 32.9441L2.74688 26.0972L8.80485 18.9121C8.96827 18.7093 9.06408 18.4782 9.0838 18.219L9.61352 9.59696L18.7371 8.97989C18.9963 8.97144 19.2471 8.86437 19.45 8.68967L26.1138 2.76694L33.2424 8.89254C33.4453 9.06724 33.6961 9.16304 33.9553 9.18276L42.6365 9.61668L43.6002 19.4165C43.6283 19.6673 43.7354 19.9096 43.9101 20.1012L49.4553 26.1479L43.4086 33.6823C43.2536 33.8739 43.1662 34.1078 43.1493 34.3473L42.5999 42.651L39.2131 43.037L38.1818 43.1525C38.1424 43.1525 38.0945 43.1525 38.0466 43.161L33.2819 43.7019C33.0311 43.7301 32.8001 43.8372 32.6056 44.0119L26.4519 49.6444V49.6528L26.3561 49.7402L26.0968 49.9712L25.7785 49.6923V49.6838L19.2302 43.8485C19.0471 43.685 18.816 43.578 18.5652 43.5582L14.6205 43.1525C14.5811 43.144 14.5444 43.144 14.4937 43.144L13.4512 43.0285L9.58534 42.6284ZM17.117 68.9989L14.3782 64.0032C14.1669 63.6172 13.7611 63.3861 13.3272 63.3861C13.2004 63.3861 13.0764 63.4059 12.9609 63.4453L7.53972 65.2289L15.0826 46.0744L15.2658 45.6123L17.9369 45.8828L24.0625 51.3519L23.8793 51.8253L17.117 68.9989ZM37.7113 46.0716L46.0149 62.7972L40.4585 61.4758C40.3711 61.456 40.2753 61.4476 40.188 61.4476C39.7146 61.4476 39.292 61.7265 39.0975 62.152L36.7927 67.3703L28.8441 51.3294L28.6215 50.887L33.9271 46.0265L37.4858 45.6208L37.7113 46.0716Z" fill="white"/>
</svg>
