<svg width="79" height="70" viewBox="0 0 79 70" fill="none" xmlns="http://www.w3.org/2000/svg">
<path d="M39.242 9.82782C36.5301 9.82782 34.3281 7.62583 34.3281 4.91391C34.3281 2.20199 36.5301 0 39.242 0C41.954 0 44.1559 2.20199 44.1559 4.91391C44.1559 7.62583 41.954 9.82782 39.242 9.82782ZM39.242 2.54967C37.944 2.54967 36.8778 3.6043 36.8778 4.91391C36.8778 6.21192 37.9324 7.27815 39.242 7.27815C40.54 7.27815 41.6063 6.22351 41.6063 4.91391C41.6063 3.61589 40.5516 2.54967 39.242 2.54967Z" fill="white"/>
<path d="M39.2416 15.5761C38.5347 15.5761 37.9668 15.0082 37.9668 14.3013V8.55291C37.9668 7.84596 38.5347 7.27808 39.2416 7.27808C39.9486 7.27808 40.5165 7.84596 40.5165 8.55291V14.3013C40.5165 15.0082 39.9486 15.5761 39.2416 15.5761Z" fill="white"/>
<path d="M43.6576 46.462C42.9507 46.462 42.3828 45.8941 42.3828 45.1871V43.1474C42.3828 42.4404 42.9507 41.8726 43.6576 41.8726C44.3646 41.8726 44.9325 42.4404 44.9325 43.1474V45.1871C44.9325 45.8941 44.3646 46.462 43.6576 46.462Z" fill="white"/>
<path d="M43.6576 37.1207C42.9507 37.1207 42.3828 36.5529 42.3828 35.8459V32.1952C42.3828 31.4883 42.9507 30.9204 43.6576 30.9204C44.3646 30.9204 44.9325 31.4883 44.9325 32.1952V35.8459C44.9325 36.5529 44.3646 37.1207 43.6576 37.1207Z" fill="white"/>
<path d="M43.6576 26.1688C42.9507 26.1688 42.3828 25.6009 42.3828 24.8939V22.8542C42.3828 22.1472 42.9507 21.5793 43.6576 21.5793C44.3646 21.5793 44.9325 22.1472 44.9325 22.8542V24.8939C44.9325 25.5893 44.3646 26.1688 43.6576 26.1688Z" fill="white"/>
<path d="M43.6567 52.7319H34.8256C34.1187 52.7319 33.5508 52.164 33.5508 51.4571V18.717C33.5508 15.5763 36.1005 13.0266 39.2412 13.0266C42.3819 13.0266 44.9316 15.5763 44.9316 18.717V22.8544C44.9316 23.5614 44.3637 24.1293 43.6567 24.1293C42.9498 24.1293 42.3819 23.5614 42.3819 22.8544V18.717C42.3819 16.9786 40.968 15.5763 39.2412 15.5763C37.5028 15.5763 36.1005 16.9902 36.1005 18.717V50.1822H42.3935V45.1872C42.3935 44.4803 42.9614 43.9124 43.6683 43.9124C44.3753 43.9124 44.9432 44.4803 44.9432 45.1872V51.4571C44.9316 52.164 44.3637 52.7319 43.6567 52.7319Z" fill="white"/>
<path d="M70.5103 19.9917H43.6576C42.9507 19.9917 42.3828 19.4238 42.3828 18.7168C42.3828 18.0099 42.9507 17.442 43.6576 17.442H70.5103C72.0053 17.442 73.2222 16.2251 73.2222 14.7301C73.2222 13.2351 72.0053 12.0182 70.5103 12.0182H67.7404C67.0335 12.0182 66.4656 11.4503 66.4656 10.7433C66.4656 10.0364 67.0335 9.46851 67.7404 9.46851H70.5103C73.4076 9.46851 75.7719 11.8327 75.7719 14.7301C75.7719 17.6274 73.4076 19.9917 70.5103 19.9917Z" fill="white"/>
<path d="M66.8131 53.2303C60.381 53.2303 55.1426 47.9919 55.1426 41.5597C55.1426 40.8528 55.7105 40.2849 56.4174 40.2849H77.2204C77.9273 40.2849 78.4952 40.8528 78.4952 41.5597C78.4952 48.0035 73.2568 53.2303 66.8131 53.2303ZM57.7734 42.8346C58.3992 47.2617 62.2121 50.6922 66.8131 50.6922C71.4141 50.6922 75.227 47.2733 75.8528 42.8346H57.7734Z" fill="white"/>
<path d="M59.0483 42.8343C58.9092 42.8343 58.7701 42.8111 58.6311 42.7648C57.9705 42.533 57.6112 41.8144 57.843 41.1422L65.6195 18.7167C65.7933 18.2068 66.2801 17.8591 66.8248 17.8591C67.3695 17.8591 67.8562 18.2068 68.0301 18.7167L75.8066 41.1422C76.0384 41.8028 75.6907 42.533 75.0185 42.7648C74.3463 42.9965 73.6278 42.6489 73.396 41.9767L66.8248 23.028L60.242 41.9767C60.0682 42.5098 59.5698 42.8343 59.0483 42.8343Z" fill="white"/>
<path d="M34.8261 19.9917H7.97351C5.07616 19.9917 2.71191 17.6274 2.71191 14.7301C2.71191 11.8327 5.07616 9.46851 7.97351 9.46851H10.7434C11.4503 9.46851 12.0182 10.0364 12.0182 10.7433C12.0182 11.4503 11.4503 12.0182 10.7434 12.0182H7.97351C6.47847 12.0182 5.26158 13.2351 5.26158 14.7301C5.26158 16.2251 6.47847 17.442 7.97351 17.442H34.8261C35.5331 17.442 36.101 18.0099 36.101 18.7168C36.101 19.4238 35.5331 19.9917 34.8261 19.9917Z" fill="white"/>
<path d="M11.6705 53.2303C5.23841 53.2303 0 47.9919 0 41.5597C0 40.8528 0.567881 40.2849 1.27483 40.2849H22.0778C22.7848 40.2849 23.3526 40.8528 23.3526 41.5597C23.3411 48.0035 18.1027 53.2303 11.6705 53.2303ZM2.6308 42.8346C3.25662 47.2617 7.06954 50.6922 11.6705 50.6922C16.2715 50.6922 20.0844 47.2733 20.7103 42.8346H2.6308Z" fill="white"/>
<path d="M19.447 42.8343C18.9139 42.8343 18.4271 42.4982 18.2417 41.9767L11.6705 23.028L5.09929 41.9767C4.8675 42.6373 4.14896 42.9965 3.47677 42.7648C2.81618 42.533 2.45691 41.8144 2.6887 41.1422L10.4652 18.7167C10.639 18.2068 11.1258 17.8591 11.6705 17.8591C12.2152 17.8591 12.7019 18.2068 12.8758 18.7167L20.6523 41.1422C20.8841 41.8028 20.5364 42.533 19.8642 42.7648C19.7251 42.8111 19.5745 42.8343 19.447 42.8343Z" fill="white"/>
<path d="M47.8991 61.5629H30.5961C29.8892 61.5629 29.3213 60.995 29.3213 60.2881V51.457C29.3213 50.75 29.8892 50.1821 30.5961 50.1821H47.8991C48.6061 50.1821 49.1739 50.75 49.1739 51.457V60.2881C49.1739 60.995 48.5945 61.5629 47.8991 61.5629ZM31.8594 59.0248H46.6243V52.7318H31.8594V59.0248Z" fill="white"/>
<path d="M57.4724 69.9999H21.0121C20.3052 69.9999 19.7373 69.4321 19.7373 68.7251V60.288C19.7373 59.5811 20.3052 59.0132 21.0121 59.0132H57.484C58.1909 59.0132 58.7588 59.5811 58.7588 60.288V68.7251C58.7472 69.4321 58.1794 69.9999 57.4724 69.9999ZM22.287 67.4619H56.2092V61.5629H22.287V67.4619Z" fill="white"/>
<path d="M70.8572 69.9999H7.62542C6.91847 69.9999 6.35059 69.432 6.35059 68.725C6.35059 68.0181 6.91847 67.4502 7.62542 67.4502H70.8572C71.5642 67.4502 72.132 68.0181 72.132 68.725C72.132 69.432 71.5642 69.9999 70.8572 69.9999Z" fill="white"/>
</svg>
