<svg width="14" height="14" viewBox="0 0 14 14" fill="none" xmlns="http://www.w3.org/2000/svg">
<path d="M12.2513 3.49984C12.0966 3.49984 11.9482 3.5613 11.8388 3.67069C11.7294 3.78009 11.668 3.92846 11.668 4.08317V9.9165C11.668 10.3806 11.4836 10.8258 11.1554 11.1539C10.8272 11.4821 10.3821 11.6665 9.91797 11.6665H4.08464C3.92993 11.6665 3.78155 11.728 3.67216 11.8374C3.56276 11.9468 3.5013 12.0951 3.5013 12.2498C3.5013 12.4045 3.56276 12.5529 3.67216 12.6623C3.78155 12.7717 3.92993 12.8332 4.08464 12.8332H9.91797C10.6915 12.8332 11.4334 12.5259 11.9804 11.9789C12.5273 11.4319 12.8346 10.6901 12.8346 9.9165V4.08317C12.8346 3.92846 12.7732 3.78009 12.6638 3.67069C12.5544 3.5613 12.406 3.49984 12.2513 3.49984ZM10.5013 8.74984V2.9165C10.5013 2.45238 10.3169 2.00726 9.98874 1.67907C9.66055 1.35088 9.21543 1.1665 8.7513 1.1665H2.91797C2.45384 1.1665 2.00872 1.35088 1.68053 1.67907C1.35234 2.00726 1.16797 2.45238 1.16797 2.9165V8.74984C1.16797 9.21397 1.35234 9.65909 1.68053 9.98728C2.00872 10.3155 2.45384 10.4998 2.91797 10.4998H8.7513C9.21543 10.4998 9.66055 10.3155 9.98874 9.98728C10.3169 9.65909 10.5013 9.21397 10.5013 8.74984ZM5.83464 2.33317H7.0013V5.16817L6.7913 4.99317C6.68648 4.90587 6.55438 4.85806 6.41797 4.85806C6.28155 4.85806 6.14945 4.90587 6.04464 4.99317L5.83464 5.16817V2.33317ZM2.33464 8.74984V2.9165C2.33464 2.76179 2.39609 2.61342 2.50549 2.50403C2.61489 2.39463 2.76326 2.33317 2.91797 2.33317H4.66797V6.4165C4.66796 6.52802 4.69992 6.6372 4.76005 6.7311C4.82018 6.82501 4.90597 6.89972 5.00726 6.94637C5.10854 6.99303 5.22108 7.00967 5.33153 6.99433C5.44198 6.979 5.54573 6.93232 5.63047 6.85984L6.41797 6.20067L7.20547 6.85984C7.31114 6.9502 7.4456 6.99985 7.58464 6.99984C7.66903 6.99924 7.75241 6.98137 7.82964 6.94734C7.93089 6.90048 8.01658 6.82556 8.07655 6.73147C8.13652 6.63739 8.16825 6.52808 8.16797 6.4165V2.33317H8.7513C8.90601 2.33317 9.05439 2.39463 9.16378 2.50403C9.27318 2.61342 9.33464 2.76179 9.33464 2.9165V8.74984C9.33464 8.90455 9.27318 9.05292 9.16378 9.16232C9.05439 9.27171 8.90601 9.33317 8.7513 9.33317H2.91797C2.76326 9.33317 2.61489 9.27171 2.50549 9.16232C2.39609 9.05292 2.33464 8.90455 2.33464 8.74984Z" fill="#848B99"/>
</svg>
