<svg width="20" height="30" viewBox="0 0 20 30" fill="none" xmlns="http://www.w3.org/2000/svg">
<path fill-rule="evenodd" clip-rule="evenodd" d="M10.0002 0.833313C4.51766 0.833313 0.0834961 5.26748 0.0834961 10.75C0.0834961 18.1875 10.0002 29.1666 10.0002 29.1666C10.0002 29.1666 19.9168 18.1875 19.9168 10.75C19.9168 5.26748 15.4827 0.833313 10.0002 0.833313ZM2.91683 10.75C2.91683 6.83998 6.09016 3.66665 10.0002 3.66665C13.9102 3.66665 17.0835 6.83998 17.0835 10.75C17.0835 14.83 13.0035 20.9358 10.0002 24.7466C7.0535 20.9641 2.91683 14.7875 2.91683 10.75ZM6.4585 10.75C6.4585 8.79397 8.04415 7.20831 10.0002 7.20831C11.2655 7.20831 12.4347 7.88335 13.0673 8.97915C13.7 10.0749 13.7 11.425 13.0673 12.5208C12.4347 13.6166 11.2655 14.2916 10.0002 14.2916C8.04415 14.2916 6.4585 12.706 6.4585 10.75Z" fill="#000"/>
</svg>
