<svg width="22" height="26" viewBox="0 0 22 26" fill="none" xmlns="http://www.w3.org/2000/svg">
<path fill-rule="evenodd" clip-rule="evenodd" d="M19.1667 2.49999H14.29C13.8 1.14666 12.5167 0.166656 11 0.166656C9.48333 0.166656 8.2 1.14666 7.71 2.49999H2.83333C1.55 2.49999 0.5 3.54999 0.5 4.83332V23.5C0.5 24.7833 1.55 25.8333 2.83333 25.8333H19.1667C20.45 25.8333 21.5 24.7833 21.5 23.5V4.83332C21.5 3.54999 20.45 2.49999 19.1667 2.49999ZM11 2.49999C11.6417 2.49999 12.1667 3.02499 12.1667 3.66666C12.1667 4.30832 11.6417 4.83332 11 4.83332C10.3583 4.83332 9.83333 4.30832 9.83333 3.66666C9.83333 3.02499 10.3583 2.49999 11 2.49999ZM2.83333 23.5H19.1667V4.83332H16.8333V8.33332H5.16667V4.83332H2.83333V23.5Z" fill="url(#paint0_linear)"/>
<defs>
<linearGradient id="paint0_linear" x1="-0.775304" y1="13" x2="23.2854" y2="13" gradientUnits="userSpaceOnUse">
<stop stop-color="#D6AF82"/>
<stop offset="1" stop-color="#AD865C"/>
</linearGradient>
</defs>
</svg>
