<svg width="22" height="26" viewBox="0 0 22 26" fill="none" xmlns="http://www.w3.org/2000/svg">
<path fill-rule="evenodd" clip-rule="evenodd" d="M14.5 0.75H7.5V3.08333H14.5V0.75ZM19.2017 8.205L20.8583 6.54833C20.3567 5.95333 19.8083 5.39333 19.2133 4.90333L17.5567 6.56C15.7483 5.11333 13.4733 4.25 11 4.25C5.20167 4.25 0.5 8.95167 0.5 14.75C0.5 20.5483 5.19 25.25 11 25.25C16.81 25.25 21.5 20.5483 21.5 14.75C21.5 12.2767 20.6367 10.0017 19.2017 8.205ZM2.83333 14.75C2.83333 19.265 6.485 22.9167 11 22.9167C15.515 22.9167 19.1667 19.265 19.1667 14.75C19.1667 10.235 15.515 6.58333 11 6.58333C6.485 6.58333 2.83333 10.235 2.83333 14.75ZM10.6267 17.0833H4.40833C5.07333 18.9733 6.53167 20.49 8.38667 21.2367L8.25833 21.1667L10.6267 17.0833ZM13.695 8.28667C15.515 9.045 16.9267 10.55 17.5917 12.4167H11.3033L13.695 8.28667ZM9.37833 21.5517C9.90333 21.68 10.44 21.75 11 21.75C12.5633 21.75 13.9983 21.225 15.165 20.3617L12.7033 15.8117L9.37833 21.5517ZM4 14.75C4 12.9533 4.68833 11.3083 5.80833 10.0717L9.61167 15.9167H4.105C4.04667 15.5317 4 15.1467 4 14.75ZM16.0633 19.5683C17.265 18.32 18 16.6167 18 14.75C18 14.3533 17.9533 13.9683 17.895 13.5833H12.8317L16.0633 19.5683ZM11 7.75C11.5367 7.75 12.05 7.82 12.5517 7.925L9.37833 13.4083L6.67167 9.255C7.86167 8.32167 9.36667 7.75 11 7.75Z" fill="url(#paint0_linear)"/>
<defs>
<linearGradient id="paint0_linear" x1="-0.775304" y1="13" x2="23.2854" y2="13" gradientUnits="userSpaceOnUse">
<stop stop-color="#D6AF82"/>
<stop offset="1" stop-color="#AD865C"/>
</linearGradient>
</defs>
</svg>
