<svg width="18" height="24" viewBox="0 0 18 24" fill="none" xmlns="http://www.w3.org/2000/svg">
<path fill-rule="evenodd" clip-rule="evenodd" d="M9.00016 0.333313C4.48516 0.333313 0.833496 3.98498 0.833496 8.49998C0.833496 14.625 9.00016 23.6666 9.00016 23.6666C9.00016 23.6666 17.1668 14.625 17.1668 8.49998C17.1668 3.98498 13.5152 0.333313 9.00016 0.333313ZM3.16683 8.49998C3.16683 5.27998 5.78016 2.66665 9.00016 2.66665C12.2202 2.66665 14.8335 5.27998 14.8335 8.49998C14.8335 11.86 11.4735 16.8883 9.00016 20.0266C6.57349 16.9116 3.16683 11.825 3.16683 8.49998ZM6.0835 8.49998C6.0835 6.88915 7.38933 5.58331 9.00016 5.58331C10.0422 5.58331 11.0051 6.13923 11.5261 7.04165C12.0471 7.94407 12.0471 9.05589 11.5261 9.95831C11.0051 10.8607 10.0422 11.4166 9.00016 11.4166C7.38933 11.4166 6.0835 10.1108 6.0835 8.49998Z" fill="url(#paint0_linear)"/>
<defs>
<linearGradient id="paint0_linear" x1="-0.158407" y1="12" x2="18.5555" y2="12" gradientUnits="userSpaceOnUse">
<stop stop-color="#D6AF82"/>
<stop offset="1" stop-color="#AD865C"/>
</linearGradient>
</defs>
</svg>
