<svg width="42" height="42" viewBox="0 0 42 42" fill="none" xmlns="http://www.w3.org/2000/svg">
<g clip-path="url(#clip0)">
<path d="M39.5273 9.81563C39.5043 9.37316 39.2451 8.97719 38.8488 8.77909L21.5505 0.129876C21.2041 -0.043292 20.7964 -0.043292 20.45 0.129876L3.15162 8.77909C2.75533 8.97719 2.49611 9.37316 2.47314 9.81563C2.46002 10.0675 2.17553 16.0638 4.21819 23.0255C5.42684 27.1446 7.20462 30.7423 9.50215 33.7186C12.3974 37.4693 16.1187 40.2284 20.5626 41.9195C20.7036 41.9731 20.8518 41.9999 21.0002 41.9999C21.1486 41.9999 21.2969 41.9731 21.4379 41.9195C25.8817 40.2285 29.603 37.4693 32.4983 33.7186C34.7958 30.7423 36.5736 27.1446 37.7823 23.0255C39.8249 16.0638 39.5404 10.0675 39.5273 9.81563ZM35.4008 22.4008C32.8957 30.8781 28.0521 36.6111 21.0002 39.4482C13.9483 36.6111 9.10463 30.8781 6.59964 22.4008C5.05188 17.1628 4.90947 12.3944 4.91669 10.648L21.0002 2.60615L37.0837 10.6478C37.091 12.3952 36.9484 17.1632 35.4008 22.4008Z" fill="url(#paint0_linear)"/>
<path d="M33.8733 11.7941L21.5506 5.63277C21.2042 5.45961 20.7965 5.45969 20.4501 5.63277L8.12749 11.7941C7.68583 12.0148 7.41891 12.4783 7.44967 12.9711C7.58338 15.1172 7.96417 18.4088 9.01917 21.9019C11.1284 28.8859 14.976 33.8007 20.455 36.5097C20.6268 36.5947 20.8136 36.6372 21.0003 36.6372C21.187 36.6372 21.3739 36.5947 21.5457 36.5097C27.0247 33.8007 30.8723 28.8859 32.9815 21.9019C34.0363 18.4091 34.4173 15.1175 34.5511 12.9712C34.5819 12.4784 34.315 12.0148 33.8733 11.7941ZM30.6258 21.1904C28.7936 27.2571 25.5568 31.5709 21.0004 34.0223C16.444 31.5709 13.2072 27.2571 11.375 21.1904C10.5122 18.3337 10.131 15.6129 9.96499 13.6267L21.0004 8.10897L32.0359 13.6267C31.8697 15.6131 31.4884 18.3339 30.6258 21.1904Z" fill="url(#paint1_linear)"/>
</g>
<defs>
<linearGradient id="paint0_linear" x1="0.199893" y1="21" x2="42.7017" y2="21" gradientUnits="userSpaceOnUse">
<stop stop-color="#D6AF82"/>
<stop offset="1" stop-color="#AD865C"/>
</linearGradient>
<linearGradient id="paint1_linear" x1="5.80114" y1="21.0701" x2="36.8581" y2="21.0701" gradientUnits="userSpaceOnUse">
<stop stop-color="#D6AF82"/>
<stop offset="1" stop-color="#AD865C"/>
</linearGradient>
<clipPath id="clip0">
<rect width="42" height="42" fill="white"/>
</clipPath>
</defs>
</svg>
