<svg width="16" height="17" viewBox="0 0 16 17" fill="none" xmlns="http://www.w3.org/2000/svg">
<g clip-path="url(#clip0_802_1984)">
<path d="M13.0507 2.94273C12.3536 2.19851 11.5239 1.60849 10.6099 1.20693C9.69588 0.805373 8.71568 0.600277 7.72624 0.603554C3.57888 0.603554 0.203277 4.18123 0.203277 8.57988C0.203277 9.98539 0.55071 11.3597 1.20855 12.567L0.140625 16.7011L4.13041 15.5914C5.23342 16.2281 6.46925 16.5623 7.72529 16.5632H7.72814C11.8755 16.5632 15.254 12.9856 15.254 8.58692C15.2565 7.53861 15.063 6.50015 14.6846 5.53156C14.3063 4.56296 13.7506 3.68341 13.0497 2.94373L13.0507 2.94273ZM7.72814 15.2171C6.6072 15.2173 5.50684 14.8979 4.54239 14.2925L4.31362 14.1476L1.94614 14.8046L2.57835 12.3588L2.43026 12.1072C1.80162 11.0516 1.46941 9.82818 1.47245 8.57988C1.47446 6.82131 2.13468 5.13543 3.30821 3.89222C4.48173 2.64901 6.0727 1.95003 7.73194 1.9487C9.4017 1.9487 10.9746 2.6409 12.1546 3.89147C12.7369 4.50638 13.1984 5.2375 13.5126 6.04256C13.8267 6.84763 13.9872 7.7107 13.9848 8.58189C13.9819 12.2411 11.1759 15.2161 7.72814 15.2161V15.2171ZM11.1579 10.25C10.9708 10.1494 10.0453 9.66847 9.87349 9.60207C9.70167 9.53567 9.57637 9.50146 9.44917 9.70268C9.32481 9.90088 8.96314 10.3506 8.85302 10.4854C8.74291 10.6172 8.63374 10.6363 8.44674 10.5357C8.25973 10.4351 7.65125 10.2248 6.9336 9.54573C6.37543 9.01753 5.99667 8.36357 5.88656 8.16537C5.77644 7.96716 5.87422 7.8575 5.97009 7.75991C6.05648 7.67137 6.1571 7.5275 6.25202 7.41079C6.34695 7.29409 6.37638 7.21259 6.43903 7.07778C6.50168 6.94598 6.47131 6.82927 6.42384 6.72866C6.37638 6.62805 5.99952 5.64711 5.84574 5.24769C5.6948 4.85733 5.53722 4.91165 5.42141 4.90461C5.3113 4.89857 5.18694 4.89857 5.06259 4.89857C4.93823 4.89857 4.73319 4.94888 4.56138 5.14708C4.38956 5.34528 3.90258 5.82921 3.90258 6.81016C3.90258 7.7911 4.57561 8.73783 4.67054 8.87265C4.76547 9.00445 5.99667 11.0197 7.88287 11.8819C8.33092 12.0861 8.68121 12.2089 8.95365 12.3034C9.40455 12.4543 9.81368 12.4322 10.1374 12.3819C10.4991 12.3256 11.2499 11.901 11.4075 11.4352C11.5651 10.9694 11.5651 10.5709 11.5176 10.4884C11.473 10.3999 11.3487 10.3506 11.1588 10.249L11.1579 10.25Z" fill="#41A040"/>
</g>
<defs>
<clipPath id="clip0_802_1984">
<rect width="15.1133" height="16.0976" fill="white" transform="translate(0.140625 0.603516)"/>
</clipPath>
</defs>
</svg>
