<svg width="63" height="63" viewBox="0 0 63 63" fill="none" xmlns="http://www.w3.org/2000/svg">
<path d="M60.375 31.5L54.075 24.15L54.8625 14.4375L45.4125 12.3375L40.425 3.9375L31.5 7.875L22.575 3.9375L17.5875 12.3375L8.1375 14.4375L8.925 24.15L2.625 31.5L8.925 38.85L8.1375 48.5625L17.5875 50.6625L22.575 59.0625L31.5 55.125L40.425 59.0625L45.4125 50.6625L54.8625 48.5625L54.075 38.85L60.375 31.5ZM49.0875 44.3625L42 45.9375L38.325 52.2375L31.5 49.35L24.675 52.2375L21 45.9375L13.9125 44.3625L14.4375 37.0125L9.7125 31.5L14.4375 25.9875L13.9125 18.6375L21 17.0625L24.675 10.7625L31.5 13.65L38.325 10.7625L42 17.0625L49.0875 18.6375L48.5625 25.9875L53.2875 31.5L48.5625 37.0125L49.0875 44.3625ZM43.575 19.95L47.25 23.625L26.25 44.625L15.75 34.125L19.425 30.45L26.25 37.275L43.575 19.95Z" fill="#007BD4"/>
</svg>
