<svg width="662" height="149" viewBox="0 0 662 149" fill="none" xmlns="http://www.w3.org/2000/svg">
<path d="M29.6477 8.90909H0.03125V118H29.6477V8.90909ZM73.5131 71.9773C73.5664 63.8807 78.1474 58.9801 85.445 58.9801C92.8491 58.9801 97.217 63.8807 97.1637 71.9773V118H126.567V65.7983C126.62 48.0071 115.381 35.1165 98.016 35.1165C85.9776 35.1165 76.4428 41.402 72.8739 51.7358H72.0217V36.1818H44.1097V118H73.5131V71.9773ZM215.869 62.8153C215.124 45.5035 200.741 35.1165 177.091 35.1165C153.707 35.1165 139.271 44.7045 139.378 61.75C139.271 74.6406 147.634 82.897 164.307 85.8267L178.795 88.3835C185.188 89.5554 188.064 91.2599 188.17 94.3494C188.064 97.7585 184.175 99.6761 178.795 99.6761C172.137 99.6761 167.45 96.7997 166.651 91.5795H137.46C139.058 108.359 153.547 119.491 178.582 119.491C201.221 119.491 217.893 108.465 218 90.9403C217.893 78.8487 209.797 71.8175 193.071 68.7812L176.452 65.7983C170.219 64.6797 168.462 62.4425 168.568 60.0455C168.462 56.6364 172.67 54.7188 177.73 54.7188C183.536 54.7188 188.384 57.8082 188.81 62.8153H215.869ZM278.059 36.1818H263.996V16.5795H234.593V36.1818H224.152V57.4886H234.593V94.456C234.38 111.608 244.98 120.29 265.275 119.172C271.933 118.799 276.887 117.414 279.55 116.615L275.289 95.9474C274.17 96.2138 271.294 96.7997 269.536 96.7997C265.701 96.7997 263.996 95.0952 263.996 91.6861V57.4886H278.059V36.1818ZM312.855 119.278C323.509 119.278 331.552 115.656 336.506 106.494H337.145V118H364.631V61.9631C364.631 46.8352 350.302 35.1165 326.918 35.1165C302.468 35.1165 290.43 47.9006 289.418 62.8153H316.477C317.17 57.755 320.899 55.358 326.492 55.358C331.605 55.358 335.227 57.7017 335.227 61.9631V62.1761C335.227 66.9169 330.007 68.4084 316.264 69.4205C299.379 70.6456 286.222 77.4638 286.222 95.4148C286.222 111.714 297.195 119.278 312.855 119.278ZM322.443 100.741C317.436 100.741 313.921 98.2912 313.921 93.7102C313.921 89.5021 316.904 86.2528 323.722 85.1875C328.409 84.4418 332.351 83.483 335.441 82.2045V89.0227C335.441 96.4801 329.102 100.741 322.443 100.741ZM398.336 118H426.674L445.211 57.0625H446.063L464.6 118H492.938L525.111 8.90909H492.086L477.171 76.2386H476.319L458.634 8.90909H432.64L414.955 76.0256H414.103L399.188 8.90909H366.162L398.336 118ZM535.125 118H564.529V36.1818H535.125V118ZM549.827 27.6591C557.817 27.6591 564.316 21.6399 564.316 14.2358C564.316 6.83167 557.817 0.8125 549.827 0.8125C541.837 0.8125 535.338 6.83167 535.338 14.2358C535.338 21.6399 541.837 27.6591 549.827 27.6591ZM661.754 148.682V36.1818H632.564V50.4574H631.925C628.729 42.1477 621.058 35.1165 608.914 35.1165C592.72 35.1165 576.953 47.4744 576.953 77.0909C576.953 105.429 591.655 119.065 609.127 119.065C620.632 119.065 628.516 112.886 631.925 104.577H632.351V148.682H661.754ZM632.99 77.0909C632.99 89.0227 628.09 96.4801 619.993 96.4801C611.896 96.4801 607.209 89.2358 607.209 77.0909C607.209 64.946 611.896 57.7017 619.993 57.7017C628.09 57.7017 632.99 64.946 632.99 77.0909Z" fill="url(#paint0_linear_1316:333)" fill-opacity="0.2"/>
<defs>
<linearGradient id="paint0_linear_1316:333" x1="332" y1="-34" x2="332" y2="142.5" gradientUnits="userSpaceOnUse">
<stop stop-color="#007BD4"/>
<stop offset="1" stop-color="#007BD4" stop-opacity="0"/>
</linearGradient>
</defs>
</svg>
