<svg width="16" height="16" viewBox="0 0 16 16" fill="none" xmlns="http://www.w3.org/2000/svg">
<path d="M7.52655 8L9.88655 5.64C10.0107 5.51509 10.0804 5.34612 10.0804 5.17C10.0804 4.99387 10.0107 4.82491 9.88655 4.7C9.82457 4.63751 9.75084 4.58792 9.6696 4.55407C9.58836 4.52023 9.50122 4.5028 9.41321 4.5028C9.32521 4.5028 9.23807 4.52023 9.15683 4.55407C9.07559 4.58792 9.00186 4.63751 8.93988 4.7L6.11321 7.52667C6.05073 7.58864 6.00113 7.66237 5.96729 7.74361C5.93344 7.82485 5.91602 7.91199 5.91602 8C5.91602 8.08801 5.93344 8.17514 5.96729 8.25638C6.00113 8.33762 6.05073 8.41136 6.11321 8.47333L8.93988 11.3333C9.00217 11.3951 9.07605 11.444 9.15728 11.4772C9.2385 11.5104 9.32548 11.5272 9.41321 11.5267C9.50095 11.5272 9.58793 11.5104 9.66915 11.4772C9.75038 11.444 9.82425 11.3951 9.88655 11.3333C10.0107 11.2084 10.0804 11.0395 10.0804 10.8633C10.0804 10.6872 10.0107 10.5182 9.88655 10.3933L7.52655 8Z" fill="#1E2139"/>
</svg>
