<svg width="18" height="18" viewBox="0 0 18 18" fill="none" xmlns="http://www.w3.org/2000/svg">
<path fill-rule="evenodd" clip-rule="evenodd" d="M1.125 8.99973C1.125 8.85055 1.18426 8.70748 1.28975 8.60199C1.39524 8.4965 1.53832 8.43723 1.6875 8.43723H14.9546L11.4142 4.89798C11.3086 4.79236 11.2493 4.64911 11.2493 4.49973C11.2493 4.35036 11.3086 4.20711 11.4142 4.10148C11.5199 3.99586 11.6631 3.93652 11.8125 3.93652C11.9619 3.93652 12.1051 3.99586 12.2108 4.10148L16.7108 8.60148C16.7631 8.65374 16.8047 8.71581 16.8331 8.78415C16.8614 8.85248 16.876 8.92575 16.876 8.99973C16.876 9.07372 16.8614 9.14698 16.8331 9.21532C16.8047 9.28366 16.7631 9.34573 16.7108 9.39798L12.2108 13.898C12.1051 14.0036 11.9619 14.0629 11.8125 14.0629C11.6631 14.0629 11.5199 14.0036 11.4142 13.898C11.3086 13.7924 11.2493 13.6491 11.2493 13.4997C11.2493 13.3504 11.3086 13.2071 11.4142 13.1015L14.9546 9.56223H1.6875C1.53832 9.56223 1.39524 9.50297 1.28975 9.39748C1.18426 9.29199 1.125 9.14892 1.125 8.99973Z" fill="white"/>
</svg>
