<svg width="14" height="13" viewBox="0 0 14 13" fill="none" xmlns="http://www.w3.org/2000/svg">
<path d="M11.4226 3.8429C11.5719 3.97427 11.659 4.15544 11.6648 4.34658C11.6706 4.53773 11.5946 4.7232 11.4536 4.86221L7.06292 9.18949C6.99176 9.25949 6.90625 9.31552 6.81143 9.35424C6.71662 9.39297 6.61443 9.41361 6.5109 9.41496C6.40737 9.4163 6.3046 9.39832 6.20867 9.36207C6.11273 9.32582 6.02557 9.27204 5.95234 9.20391L3.62788 7.04027C3.49101 6.90356 3.4165 6.72273 3.42004 6.53589C3.42358 6.34904 3.5049 6.17077 3.64686 6.03863C3.78882 5.9065 3.98034 5.83081 4.18107 5.82751C4.38181 5.82421 4.57608 5.89357 4.72296 6.02096L6.48438 7.65955L10.3275 3.87175C10.4686 3.73279 10.6633 3.65169 10.8686 3.64629C11.074 3.64088 11.2732 3.7116 11.4226 3.8429Z" fill="white"/>
</svg>
