<svg width="41" height="41" viewBox="0 0 41 41" fill="none" xmlns="http://www.w3.org/2000/svg">
<path d="M8.96875 37.1562H5.76562C5.59572 37.1562 5.43278 37.2237 5.31263 37.3439C5.19249 37.464 5.125 37.627 5.125 37.7969C5.125 37.9668 5.19249 38.1297 5.31263 38.2499C5.43278 38.37 5.59572 38.4375 5.76562 38.4375H8.96875C9.13865 38.4375 9.3016 38.37 9.42174 38.2499C9.54188 38.1297 9.60938 37.9668 9.60938 37.7969C9.60938 37.627 9.54188 37.464 9.42174 37.3439C9.3016 37.2237 9.13865 37.1562 8.96875 37.1562Z" fill="#00B857"/>
<path d="M11.5312 37.1562H10.8906C10.7207 37.1562 10.5578 37.2237 10.4376 37.3439C10.3175 37.464 10.25 37.627 10.25 37.7969C10.25 37.9668 10.3175 38.1297 10.4376 38.2499C10.5578 38.37 10.7207 38.4375 10.8906 38.4375H11.5312C11.7012 38.4375 11.8641 38.37 11.9842 38.2499C12.1044 38.1297 12.1719 37.9668 12.1719 37.7969C12.1719 37.627 12.1044 37.464 11.9842 37.3439C11.8641 37.2237 11.7012 37.1562 11.5312 37.1562Z" fill="#00B857"/>
<path d="M7.04688 12.1719H27.5469C27.7168 12.1719 27.8797 12.1044 27.9999 11.9842C28.12 11.8641 28.1875 11.7012 28.1875 11.5312V8.96875C28.1875 8.79885 28.12 8.6359 27.9999 8.51576C27.8797 8.39562 27.7168 8.32812 27.5469 8.32812H7.04688C6.87697 8.32812 6.71403 8.39562 6.59388 8.51576C6.47374 8.6359 6.40625 8.79885 6.40625 8.96875V11.5312C6.40625 11.7012 6.47374 11.8641 6.59388 11.9842C6.71403 12.1044 6.87697 12.1719 7.04688 12.1719ZM7.6875 9.60938H26.9062V10.8906H7.6875V9.60938Z" fill="#00B857"/>
<path d="M7.04688 17.2969H27.5469C27.7168 17.2969 27.8797 17.2294 27.9999 17.1092C28.12 16.9891 28.1875 16.8262 28.1875 16.6562V14.0938C28.1875 13.9238 28.12 13.7609 27.9999 13.6408C27.8797 13.5206 27.7168 13.4531 27.5469 13.4531H7.04688C6.87697 13.4531 6.71403 13.5206 6.59388 13.6408C6.47374 13.7609 6.40625 13.9238 6.40625 14.0938V16.6562C6.40625 16.8262 6.47374 16.9891 6.59388 17.1092C6.71403 17.2294 6.87697 17.2969 7.04688 17.2969ZM7.6875 14.7344H26.9062V16.0156H7.6875V14.7344Z" fill="#00B857"/>
<path d="M7.04688 22.4219H27.5469C27.7168 22.4219 27.8797 22.3544 27.9999 22.2342C28.12 22.1141 28.1875 21.9512 28.1875 21.7812V19.2188C28.1875 19.0488 28.12 18.8859 27.9999 18.7658C27.8797 18.6456 27.7168 18.5781 27.5469 18.5781H7.04688C6.87697 18.5781 6.71403 18.6456 6.59388 18.7658C6.47374 18.8859 6.40625 19.0488 6.40625 19.2188V21.7812C6.40625 21.9512 6.47374 22.1141 6.59388 22.2342C6.71403 22.3544 6.87697 22.4219 7.04688 22.4219ZM7.6875 19.8594H26.9062V21.1406H7.6875V19.8594Z" fill="#00B857"/>
<path d="M19.2188 23.7031H7.04688C6.87697 23.7031 6.71403 23.7706 6.59388 23.8908C6.47374 24.0109 6.40625 24.1738 6.40625 24.3438C6.40625 24.5137 6.47374 24.6766 6.59388 24.7967C6.71403 24.9169 6.87697 24.9844 7.04688 24.9844H19.2188C19.3887 24.9844 19.5516 24.9169 19.6717 24.7967C19.7919 24.6766 19.8594 24.5137 19.8594 24.3438C19.8594 24.1738 19.7919 24.0109 19.6717 23.8908C19.5516 23.7706 19.3887 23.7031 19.2188 23.7031Z" fill="#00B857"/>
<path d="M15.375 25.625H7.04688C6.87697 25.625 6.71403 25.6925 6.59388 25.8126C6.47374 25.9328 6.40625 26.0957 6.40625 26.2656C6.40625 26.4355 6.47374 26.5985 6.59388 26.7186C6.71403 26.8388 6.87697 26.9062 7.04688 26.9062H15.375C15.5449 26.9062 15.7079 26.8388 15.828 26.7186C15.9481 26.5985 16.0156 26.4355 16.0156 26.2656C16.0156 26.0957 15.9481 25.9328 15.828 25.8126C15.7079 25.6925 15.5449 25.625 15.375 25.625Z" fill="#00B857"/>
<path d="M8.32812 28.8281C8.49803 28.8281 8.66097 28.7606 8.78112 28.6405C8.90126 28.5204 8.96875 28.3574 8.96875 28.1875C8.96875 28.0176 8.90126 27.8546 8.78112 27.7345C8.66097 27.6144 8.49803 27.5469 8.32812 27.5469H7.04688C6.87697 27.5469 6.71403 27.6144 6.59388 27.7345C6.47374 27.8546 6.40625 28.0176 6.40625 28.1875C6.40625 28.3574 6.47374 28.5204 6.59388 28.6405C6.71403 28.7606 6.87697 28.8281 7.04688 28.8281H8.32812Z" fill="#00B857"/>
<path d="M10.8906 28.8281C11.0605 28.8281 11.2235 28.7606 11.3436 28.6405C11.4638 28.5204 11.5312 28.3574 11.5312 28.1875C11.5312 28.0176 11.4638 27.8546 11.3436 27.7345C11.2235 27.6144 11.0605 27.5469 10.8906 27.5469H10.25C10.0801 27.5469 9.91715 27.6144 9.79701 27.7345C9.67687 27.8546 9.60938 28.0176 9.60938 28.1875C9.60938 28.3574 9.67687 28.5204 9.79701 28.6405C9.91715 28.7606 10.0801 28.8281 10.25 28.8281H10.8906Z" fill="#00B857"/>
<path d="M38.4375 30.75C38.4351 28.8228 37.7099 26.9665 36.4051 25.5481C35.1003 24.1297 33.311 23.2523 31.3906 23.0894V6.40625C31.3906 6.32212 31.3741 6.23881 31.3419 6.16109C31.3097 6.08336 31.2625 6.01274 31.203 5.95325L26.078 0.828248C26.0185 0.768761 25.9479 0.721575 25.8702 0.689382C25.7924 0.65719 25.7091 0.640622 25.625 0.640625H3.84375C3.67385 0.640625 3.5109 0.708119 3.39076 0.82826C3.27062 0.9484 3.20312 1.11135 3.20312 1.28125V39.7188C3.20312 39.8887 3.27062 40.0516 3.39076 40.1717C3.5109 40.2919 3.67385 40.3594 3.84375 40.3594H30.75C30.9199 40.3594 31.0828 40.2919 31.203 40.1717C31.3231 40.0516 31.3906 39.8887 31.3906 39.7188V38.4106C33.311 38.2477 35.1003 37.3703 36.4051 35.9519C37.7099 34.5335 38.4351 32.6772 38.4375 30.75ZM26.2656 2.8278L29.2035 5.76562H26.2656V2.8278ZM4.48438 39.0781V1.92188H24.9844V6.40625C24.9844 6.57615 25.0519 6.7391 25.172 6.85924C25.2922 6.97938 25.4551 7.04688 25.625 7.04688H30.1094V23.0894C28.1885 23.2505 26.3983 24.1274 25.0935 25.5463C23.7887 26.9651 23.0645 28.8224 23.0645 30.75C23.0645 32.6776 23.7887 34.5349 25.0935 35.9537C26.3983 37.3726 28.1885 38.2495 30.1094 38.4106V39.0781H4.48438ZM30.75 37.1562C29.483 37.1562 28.2444 36.7805 27.1909 36.0766C26.1374 35.3727 25.3163 34.3722 24.8314 33.2016C24.3465 32.031 24.2197 30.7429 24.4668 29.5002C24.714 28.2575 25.3242 27.116 26.2201 26.2201C27.116 25.3242 28.2575 24.714 29.5002 24.4668C30.7429 24.2197 32.031 24.3465 33.2016 24.8314C34.3722 25.3163 35.3727 26.1374 36.0766 27.1909C36.7805 28.2444 37.1562 29.483 37.1562 30.75C37.1543 32.4485 36.4788 34.0768 35.2778 35.2778C34.0768 36.4788 32.4485 37.1543 30.75 37.1562Z" fill="#00B857"/>
<path d="M35.6874 28.3751C35.6279 28.3156 35.5573 28.2684 35.4795 28.2362C35.4018 28.204 35.3185 28.1875 35.2344 28.1875C35.1502 28.1875 35.0669 28.204 34.9892 28.2362C34.9115 28.2684 34.8409 28.3156 34.7814 28.3751L30.6507 32.5058L27.8765 30.8413C27.8043 30.798 27.7244 30.7693 27.6412 30.757C27.558 30.7446 27.4731 30.7487 27.3915 30.7691C27.3099 30.7895 27.2331 30.8258 27.1655 30.8759C27.0979 30.926 27.0408 30.9889 26.9975 31.061C26.9543 31.1332 26.9256 31.2131 26.9132 31.2963C26.9008 31.3795 26.905 31.4644 26.9254 31.546C26.9458 31.6276 26.9821 31.7044 27.0321 31.772C27.0822 31.8396 27.1451 31.8967 27.2173 31.94L30.4204 33.8618C30.5429 33.9354 30.6864 33.9659 30.8282 33.9484C30.97 33.931 31.102 33.8667 31.203 33.7657L35.6874 29.2814C35.7469 29.2219 35.7941 29.1512 35.8263 29.0735C35.8586 28.9957 35.8751 28.9124 35.8751 28.8282C35.8751 28.7441 35.8586 28.6607 35.8263 28.583C35.7941 28.5052 35.7469 28.4346 35.6874 28.3751Z" fill="#00B857"/>
</svg>
