<svg width="41" height="41" viewBox="0 0 41 41" fill="none" xmlns="http://www.w3.org/2000/svg">
<path d="M38.2039 35.2746C39.7457 35.2746 41 34.0202 41 32.4784V4.00391C41 1.79615 39.2038 0 36.9961 0H4.00391C1.79615 0 0 1.79615 0 4.00391V32.4784C0 34.0202 1.25434 35.2746 2.79609 35.2746H3.68359V39.3984H0.800781C0.35851 39.3984 0 39.757 0 40.1992C0 40.6414 0.35851 41 0.800781 41H40.1992C40.6415 41 41 40.6414 41 40.1992C41 39.757 40.6415 39.3984 40.1992 39.3984H37.3164V35.2746H38.2039ZM1.60156 4.00391C1.60156 2.67925 2.67925 1.60156 4.00391 1.60156H36.9961C38.3207 1.60156 39.3984 2.67925 39.3984 4.00391V5.76562H1.68196C1.65481 5.76562 1.62799 5.76707 1.60156 5.76971V4.00391ZM8.80859 39.3984H5.28516V32.1914H8.80859V39.3984ZM17.7773 39.3984H14.2539V23.3373H17.7773V39.3984ZM26.7461 39.3984H23.2227V30.1094H26.7461V39.3984ZM36.5156 20.54H31.3906C30.9484 20.54 30.5898 20.8986 30.5898 21.3408V25.3847C30.5898 25.8269 30.9484 26.1855 31.3906 26.1855C31.8329 26.1855 32.1914 25.8269 32.1914 25.3847V22.1416H35.7148V39.3984H32.1914V30.77C32.1914 30.3278 31.8329 29.9692 31.3906 29.9692C30.9484 29.9692 30.5898 30.3278 30.5898 30.77V39.3984H28.3477V29.3086C28.3477 28.8664 27.9891 28.5078 27.5469 28.5078H22.4219C21.9796 28.5078 21.6211 28.8664 21.6211 29.3086V39.3984H19.3789V22.5365C19.3789 22.0944 19.0204 21.7358 18.5781 21.7358H13.4531C13.0109 21.7358 12.6523 22.0944 12.6523 22.5365V39.3984H10.4102V31.3906C10.4102 30.9484 10.0516 30.5898 9.60938 30.5898H4.48438C4.0421 30.5898 3.68359 30.9484 3.68359 31.3906V33.673H2.79609C2.13737 33.673 1.60156 33.1371 1.60156 32.4784V7.3631C1.62799 7.36575 1.65481 7.36719 1.68196 7.36719H39.3984V32.4784C39.3984 33.1371 38.8626 33.673 38.2039 33.673H37.3164V21.3408C37.3164 20.8986 36.9579 20.54 36.5156 20.54Z" fill="#00B857"/>
<path d="M35.8747 2.88281H17.7822C17.34 2.88281 16.9814 3.2414 16.9814 3.68359C16.9814 4.12579 17.34 4.48438 17.7822 4.48438H35.8747C36.317 4.48438 36.6755 4.12579 36.6755 3.68359C36.6755 3.2414 36.317 2.88281 35.8747 2.88281Z" fill="#00B857"/>
<path d="M8.89428 3.11744C8.74533 2.9685 8.53873 2.88281 8.32812 2.88281C8.11752 2.88281 7.91092 2.96842 7.76197 3.11744C7.61303 3.26639 7.52734 3.47299 7.52734 3.68359C7.52734 3.8942 7.61303 4.1008 7.76197 4.24967C7.91092 4.39869 8.11752 4.48438 8.32812 4.48438C8.53873 4.48438 8.74533 4.39869 8.89428 4.24967C9.04322 4.1008 9.12891 3.8942 9.12891 3.68359C9.12891 3.47299 9.04322 3.26639 8.89428 3.11744Z" fill="#00B857"/>
<path d="M5.69115 3.11744C5.54221 2.9685 5.33561 2.88281 5.125 2.88281C4.91439 2.88281 4.70779 2.96842 4.55885 3.11744C4.4099 3.26639 4.32422 3.47299 4.32422 3.68359C4.32422 3.8942 4.4099 4.1008 4.55885 4.24967C4.70779 4.39869 4.91439 4.48438 5.125 4.48438C5.33561 4.48438 5.54221 4.39869 5.69115 4.24967C5.8401 4.1008 5.92578 3.8942 5.92578 3.68359C5.92578 3.47299 5.8401 3.26639 5.69115 3.11744Z" fill="#00B857"/>
<path d="M12.0974 3.11744C11.9485 2.9685 11.7427 2.88281 11.5312 2.88281C11.3206 2.88281 11.114 2.96842 10.9651 3.11744C10.8162 3.26639 10.7305 3.47299 10.7305 3.68359C10.7305 3.8942 10.8162 4.1008 10.9651 4.24967C11.114 4.39869 11.3206 4.48438 11.5312 4.48438C11.7419 4.48438 11.9485 4.39869 12.0974 4.24967C12.2463 4.1008 12.332 3.8942 12.332 3.68359C12.332 3.47299 12.2463 3.26639 12.0974 3.11744Z" fill="#00B857"/>
<path d="M31.9568 27.6726C31.8078 27.5229 31.6012 27.438 31.3906 27.438C31.18 27.438 30.9734 27.523 30.8245 27.6726C30.6755 27.8216 30.5898 28.0282 30.5898 28.2388C30.5898 28.4494 30.6755 28.656 30.8245 28.8049C30.9734 28.9538 31.18 29.0396 31.3906 29.0396C31.6012 29.0396 31.8078 28.9539 31.9568 28.8049C32.1057 28.656 32.1914 28.4494 32.1914 28.2388C32.1914 28.0274 32.1057 27.8216 31.9568 27.6726Z" fill="#00B857"/>
<path d="M33.9526 10.8857C32.363 10.8857 31.0698 12.1789 31.0698 13.7686C31.0698 14.4 31.2744 14.9842 31.62 15.4596L26.3008 20.7788C25.888 20.5504 25.4138 20.4198 24.9094 20.4198C24.455 20.4198 24.025 20.5259 23.6423 20.7141L18.0881 15.1599C18.3166 14.7471 18.4471 14.2729 18.4471 13.7686C18.4471 12.1789 17.154 10.8857 15.5643 10.8857C13.9747 10.8857 12.6815 12.1789 12.6815 13.7686C12.6815 14.3241 12.8399 14.8432 13.1133 15.2838L8.38444 20.0126C7.97164 19.7841 7.49742 19.6536 6.99316 19.6536C5.40353 19.6536 4.11035 20.9468 4.11035 22.5364C4.11035 24.126 5.40353 25.4192 6.99316 25.4192C8.5828 25.4192 9.87598 24.126 9.87598 22.5364C9.87598 22.0321 9.74545 21.5578 9.51699 21.145L14.3023 16.3597C14.6837 16.5462 15.112 16.6513 15.5643 16.6513C16.0686 16.6513 16.5428 16.5208 16.9556 16.2923L22.4554 21.792C22.1838 22.2316 22.0266 22.7489 22.0266 23.3025C22.0266 24.8921 23.3198 26.1853 24.9094 26.1853C26.4991 26.1853 27.7923 24.8921 27.7923 23.3025C27.7923 22.7982 27.6617 22.3239 27.4333 21.9111L32.895 16.4494C33.2228 16.5793 33.5793 16.6514 33.9526 16.6514C35.5422 16.6514 36.8354 15.3582 36.8354 13.7686C36.8354 12.1789 35.5422 10.8857 33.9526 10.8857ZM6.99324 23.8178C6.28679 23.8178 5.71199 23.243 5.71199 22.5366C5.71199 21.8301 6.28679 21.2553 6.99324 21.2553C7.69969 21.2553 8.27449 21.8301 8.27449 22.5366C8.27449 23.243 7.69969 23.8178 6.99324 23.8178ZM15.5644 15.0498C14.858 15.0498 14.2832 14.475 14.2832 13.7686C14.2832 13.0621 14.858 12.4873 15.5644 12.4873C16.2709 12.4873 16.8457 13.0621 16.8457 13.7686C16.8457 14.475 16.2709 15.0498 15.5644 15.0498ZM24.9095 24.5839C24.2031 24.5839 23.6283 24.0091 23.6283 23.3027C23.6283 22.5962 24.2031 22.0214 24.9095 22.0214C25.616 22.0214 26.1908 22.5962 26.1908 23.3027C26.1908 24.0091 25.616 24.5839 24.9095 24.5839ZM33.9526 15.0498C33.2461 15.0498 32.6713 14.475 32.6713 13.7686C32.6713 13.0621 33.2461 12.4873 33.9526 12.4873C34.659 12.4873 35.2338 13.0621 35.2338 13.7686C35.2338 14.475 34.659 15.0498 33.9526 15.0498Z" fill="#00B857"/>
<path d="M11.8787 10.3261C11.7289 10.1772 11.5231 10.0914 11.3125 10.0914C11.1011 10.0914 10.8945 10.1771 10.7455 10.3261C10.5966 10.475 10.5117 10.6816 10.5117 10.8922C10.5117 11.1028 10.5966 11.3094 10.7455 11.4584C10.8953 11.6073 11.1011 11.693 11.3125 11.693C11.5231 11.693 11.7289 11.6074 11.8787 11.4584C12.0276 11.3094 12.1133 11.1028 12.1133 10.8922C12.1133 10.6816 12.0276 10.475 11.8787 10.3261Z" fill="#00B857"/>
<path d="M8.32812 10.0916H4.48438C4.0421 10.0916 3.68359 10.4501 3.68359 10.8923C3.68359 11.3345 4.0421 11.6931 4.48438 11.6931H8.32812C8.7704 11.6931 9.12891 11.3345 9.12891 10.8923C9.12891 10.4501 8.7704 10.0916 8.32812 10.0916Z" fill="#00B857"/>
<path d="M8.32812 13.9353H4.48438C4.0421 13.9353 3.68359 14.2939 3.68359 14.7361C3.68359 15.1783 4.0421 15.5369 4.48438 15.5369H8.32812C8.7704 15.5369 9.12891 15.1783 9.12891 14.7361C9.12891 14.2939 8.7704 13.9353 8.32812 13.9353Z" fill="#00B857"/>
</svg>
