<svg width="22" height="22" viewBox="0 0 22 22" fill="none" xmlns="http://www.w3.org/2000/svg">
<path d="M21.6452 4.61292H0.354839C0.158879 4.61292 0 4.77179 0 4.96775V17.0323C0 17.2282 0.158879 17.3871 0.354839 17.3871H21.6452C21.8411 17.3871 22 17.2282 22 17.0323V4.96775C22 4.77179 21.8411 4.61292 21.6452 4.61292ZM21.2903 16.6774H14.9032V15.9678C14.9032 15.7718 14.7443 15.6129 14.5484 15.6129C14.3524 15.6129 14.1935 15.7718 14.1935 15.9678V16.6774H0.709677V5.32259H14.1935V5.67743C14.1935 5.87339 14.3524 6.03227 14.5484 6.03227C14.7443 6.03227 14.9032 5.87339 14.9032 5.67743V5.32259H21.2903V16.6774Z" fill="white"/>
<path d="M14.5482 6.79272C14.3522 6.79272 14.1934 6.9516 14.1934 7.14756V8.61731C14.1934 8.81327 14.3522 8.97215 14.5482 8.97215C14.7442 8.97215 14.903 8.81327 14.903 8.61731V7.14756C14.903 6.9516 14.7442 6.79272 14.5482 6.79272Z" fill="white"/>
<path d="M14.5482 9.73285C14.3522 9.73285 14.1934 9.89173 14.1934 10.0877V11.5574C14.1934 11.7534 14.3522 11.9123 14.5482 11.9123C14.7442 11.9123 14.903 11.7534 14.903 11.5574V10.0877C14.903 9.89173 14.7442 9.73285 14.5482 9.73285Z" fill="white"/>
<path d="M14.5482 12.6727C14.3522 12.6727 14.1934 12.8316 14.1934 13.0276V14.4973C14.1934 14.6933 14.3522 14.8521 14.5482 14.8521C14.7442 14.8521 14.903 14.6933 14.903 14.4973V13.0276C14.903 12.8316 14.7442 12.6727 14.5482 12.6727Z" fill="white"/>
<path d="M15.9681 11.3548H20.2262C20.4221 11.3548 20.581 11.1959 20.581 11V6.74192C20.581 6.54596 20.4221 6.38708 20.2262 6.38708H15.9681C15.7722 6.38708 15.6133 6.54596 15.6133 6.74192V11C15.6133 11.1959 15.7722 11.3548 15.9681 11.3548ZM16.323 7.09676H19.8713V10.6452H16.323V7.09676Z" fill="white"/>
<path d="M6.03185 10.6451H1.77378C1.57782 10.6451 1.41895 10.804 1.41895 11V15.258C1.41895 15.454 1.57782 15.6129 1.77378 15.6129H6.03185C6.22781 15.6129 6.38669 15.454 6.38669 15.258V11C6.38669 10.804 6.22781 10.6451 6.03185 10.6451ZM5.67701 14.9032H2.12862V11.3548H5.67701V14.9032Z" fill="white"/>
<path d="M15.9681 12.7743H20.2262C20.4221 12.7743 20.581 12.6154 20.581 12.4194C20.581 12.2235 20.4221 12.0646 20.2262 12.0646H15.9681C15.7722 12.0646 15.6133 12.2235 15.6133 12.4194C15.6133 12.6154 15.7722 12.7743 15.9681 12.7743Z" fill="white"/>
<path d="M15.9681 13.8388H20.2262C20.4221 13.8388 20.581 13.6799 20.581 13.4839C20.581 13.288 20.4221 13.1291 20.2262 13.1291H15.9681C15.7722 13.1291 15.6133 13.288 15.6133 13.4839C15.6133 13.6799 15.7722 13.8388 15.9681 13.8388Z" fill="white"/>
<path d="M15.9681 14.9033H20.2262C20.4221 14.9033 20.581 14.7444 20.581 14.5484C20.581 14.3525 20.4221 14.1936 20.2262 14.1936H15.9681C15.7722 14.1936 15.6133 14.3525 15.6133 14.5484C15.6133 14.7444 15.7722 14.9033 15.9681 14.9033Z" fill="white"/>
<path d="M13.1286 6.38708H1.77378C1.57782 6.38708 1.41895 6.54596 1.41895 6.74192C1.41895 6.93788 1.57782 7.09676 1.77378 7.09676H13.1286C13.3246 7.09676 13.4835 6.93788 13.4835 6.74192C13.4835 6.54596 13.3246 6.38708 13.1286 6.38708Z" fill="white"/>
<path d="M13.1286 7.45166H1.77378C1.57782 7.45166 1.41895 7.61054 1.41895 7.8065C1.41895 8.00246 1.57782 8.16134 1.77378 8.16134H13.1286C13.3246 8.16134 13.4835 8.00246 13.4835 7.8065C13.4835 7.61054 13.3246 7.45166 13.1286 7.45166Z" fill="white"/>
<path d="M13.1286 8.51617H1.77378C1.57782 8.51617 1.41895 8.67505 1.41895 8.87101C1.41895 9.06697 1.57782 9.22585 1.77378 9.22585H13.1286C13.3246 9.22585 13.4835 9.06697 13.4835 8.87101C13.4835 8.67505 13.3246 8.51617 13.1286 8.51617Z" fill="white"/>
<path d="M13.1286 9.58069H1.77378C1.57782 9.58069 1.41895 9.73957 1.41895 9.93552C1.41895 10.1315 1.57782 10.2904 1.77378 10.2904H13.1286C13.3246 10.2904 13.4835 10.1315 13.4835 9.93552C13.4835 9.73957 13.3246 9.58069 13.1286 9.58069Z" fill="white"/>
</svg>
