<svg width="22" height="22" viewBox="0 0 22 22" fill="none" xmlns="http://www.w3.org/2000/svg">
<path d="M21.9369 6.04008L21.9428 6.03641L19.3761 2.00308C19.3088 1.8973 19.1921 1.83327 19.0667 1.83331H2.93333C2.80793 1.83327 2.6912 1.8973 2.62387 2.00308L0.0572 6.03641L0.0630667 6.04008C0.0236042 6.09691 0.00165 6.16411 0 6.23331V19.8C0 20.0025 0.164175 20.1667 0.366667 20.1667H21.6333C21.8358 20.1667 22 20.0025 22 19.8V6.23331C21.9984 6.16411 21.9764 6.09691 21.9369 6.04008ZM18.8654 2.56665L20.9653 5.86665H13.9333V5.88241C13.7947 5.79038 13.6554 5.69908 13.5205 5.60008L12.914 2.56665H18.8654ZM16.0783 7.77661L16.4545 7.90971L15.818 11.7439C15.4913 13.7858 14.3442 15.6054 12.6427 16.7805L11 17.8908L9.35697 16.7805C7.65577 15.6054 6.50875 13.786 6.182 11.7443L5.54547 7.90971L5.92167 7.77661C7.89773 7.07138 9.65048 5.8529 11 4.24635C12.3495 5.8529 14.1023 7.07138 16.0783 7.77661ZM9.83363 2.56665H12.1653L12.6247 4.86455C12.1395 4.42826 11.692 3.95173 11.2871 3.44005C11.1511 3.28087 10.9117 3.26212 10.7525 3.3982C10.7375 3.41103 10.7235 3.42506 10.7107 3.44005C10.3058 3.95173 9.85829 4.42826 9.3731 4.86455L9.83363 2.56665ZM3.13463 2.56665H9.086L8.47953 5.60008C8.3446 5.69908 8.20527 5.79038 8.06667 5.88241V5.86665H1.03473L3.13463 2.56665ZM21.2667 19.4333H0.733333V6.59998H6.81707C6.44683 6.78359 6.06636 6.94566 5.67747 7.08545L5.01123 7.32085C4.84353 7.38016 4.7426 7.5513 4.7718 7.72675L5.45893 11.8649C5.81895 14.1048 7.079 16.1002 8.94667 17.3881L10.7947 18.6373C10.9187 18.7211 11.0813 18.7211 11.2053 18.6373L13.0533 17.3884C14.9213 16.1004 16.1814 14.1048 16.5414 11.8646L17.2286 7.72675C17.2578 7.5513 17.1568 7.38016 16.9891 7.32085L16.3229 7.08545C15.9339 6.94566 15.5533 6.78359 15.1829 6.59998H21.2667V19.4333Z" fill="white"/>
<path d="M11.0001 7.33334C8.77258 7.33334 6.9668 9.13913 6.9668 11.3667C6.96941 13.5931 8.77368 15.3974 11.0001 15.4C13.2277 15.4 15.0335 13.5942 15.0335 11.3667C15.0335 9.13913 13.2277 7.33334 11.0001 7.33334ZM11.0001 14.6667C9.17757 14.6667 7.70013 13.1892 7.70013 11.3667C7.70215 9.54498 9.17844 8.06869 11.0001 8.06668C12.8227 8.06668 14.3001 9.54411 14.3001 11.3667C14.3001 13.1892 12.8227 14.6667 11.0001 14.6667Z" fill="white"/>
<path d="M13.3462 10.0599C13.2041 9.92263 12.9788 9.92263 12.8367 10.0599L10.534 12.3625L9.73431 11.1632C9.62193 10.9947 9.39423 10.9492 9.22575 11.0616C9.05726 11.174 9.0118 11.4017 9.12418 11.5702L10.171 13.1413C10.2319 13.2329 10.3307 13.2922 10.4401 13.303C10.4522 13.303 10.4643 13.3049 10.4768 13.3049C10.5741 13.3049 10.6673 13.2662 10.736 13.1974L13.3551 10.5783C13.4958 10.4327 13.4918 10.2005 13.3462 10.0599Z" fill="white"/>
</svg>
