<svg width="41" height="41" viewBox="0 0 41 41" fill="none" xmlns="http://www.w3.org/2000/svg">
<path d="M40.8825 11.2566L40.8934 11.2497L36.1101 3.73307C35.9846 3.53593 35.767 3.4166 35.5333 3.41669H5.46667C5.23297 3.4166 5.01541 3.53593 4.88993 3.73307L0.1066 11.2497L0.117533 11.2566C0.0439896 11.3625 0.003075 11.4877 0 11.6167V36.9C0 37.2774 0.305962 37.5834 0.683333 37.5834H40.3167C40.694 37.5834 41 37.2774 41 36.9V11.6167C40.9969 11.4877 40.956 11.3625 40.8825 11.2566ZM35.1582 4.78335L39.0716 10.9334H25.9667V10.9627C25.7084 10.7912 25.4487 10.6211 25.1972 10.4366L24.067 4.78335H35.1582ZM29.9642 14.4928L30.6653 14.7409L29.479 21.8865C28.8702 25.6918 26.7323 29.0829 23.5613 31.2728L20.5 33.3419L17.438 31.2728C14.2676 29.0828 12.1299 25.6921 11.521 21.8872L10.3347 14.7409L11.0358 14.4928C14.7185 13.1785 17.985 10.9077 20.5 7.9137C23.015 10.9077 26.2815 13.1785 29.9642 14.4928ZM18.3263 4.78335H22.6716L23.5278 9.06581C22.6236 8.25272 21.7897 7.36465 21.0351 6.41105C20.7815 6.1144 20.3355 6.07947 20.0388 6.33307C20.0108 6.35699 19.9848 6.38312 19.9608 6.41105C19.2062 7.36465 18.3723 8.25272 17.4681 9.06581L18.3263 4.78335ZM5.84182 4.78335H16.933L15.8028 10.4366C15.5513 10.6211 15.2916 10.7912 15.0333 10.9627V10.9334H1.92837L5.84182 4.78335ZM39.6333 36.2167H1.36667V12.3H12.7045C12.0145 12.6422 11.3055 12.9442 10.5807 13.2048L9.33912 13.6435C9.02658 13.754 8.83849 14.0729 8.8929 14.3999L10.1735 22.112C10.8444 26.2863 13.1927 30.005 16.6733 32.4051L20.1173 34.7332C20.3485 34.8894 20.6514 34.8894 20.8827 34.7332L24.3267 32.4057C27.8078 30.0054 30.1563 26.2862 30.8272 22.1113L32.1078 14.3999C32.1622 14.0729 31.9741 13.754 31.6616 13.6435L30.4199 13.2048C29.695 12.9442 28.9856 12.6422 28.2955 12.3H39.6333V36.2167Z" fill="#00B857"/>
<path d="M20.4991 13.6667C16.3478 13.6667 12.9824 17.032 12.9824 21.1833C12.9873 25.3326 16.3498 28.6951 20.4991 28.7C24.6504 28.7 28.0158 25.3347 28.0158 21.1833C28.0158 17.032 24.6504 13.6667 20.4991 13.6667ZM20.4991 27.3333C17.1025 27.3333 14.3491 24.5798 14.3491 21.1833C14.3528 17.7884 17.1041 15.0371 20.4991 15.0333C23.8957 15.0333 26.6491 17.7867 26.6491 21.1833C26.6491 24.5798 23.8957 27.3333 20.4991 27.3333Z" fill="#00B857"/>
<path d="M24.8719 18.7479C24.6071 18.4922 24.1872 18.4922 23.9224 18.7479L19.631 23.0393L18.1407 20.8041C17.9312 20.4901 17.5069 20.4053 17.1929 20.6148C16.8789 20.8242 16.7942 21.2486 17.0036 21.5626L18.9545 24.4907C19.0681 24.6612 19.2522 24.7718 19.4561 24.792C19.4787 24.792 19.5012 24.7954 19.5244 24.7954C19.7057 24.7954 19.8794 24.7233 20.0076 24.5952L24.8886 19.7142C25.1507 19.4427 25.1433 19.0101 24.8719 18.7479Z" fill="#00B857"/>
</svg>
