<svg width="22" height="22" viewBox="0 0 22 22" fill="none" xmlns="http://www.w3.org/2000/svg">
<path d="M21.9735 6.83396C21.9681 6.82222 21.962 6.81081 21.9552 6.79986C21.9415 6.77277 21.9245 6.74747 21.9046 6.72469C21.8749 6.69284 21.84 6.66621 21.8015 6.64586C21.7881 6.63825 21.7743 6.63151 21.7601 6.62569C21.7531 6.62312 21.7476 6.61799 21.7403 6.61579L17.5317 5.33502L15.8817 4.78502C15.8222 4.76696 15.7591 4.76431 15.6984 4.77732L13.3044 4.04876C13.2348 4.02786 13.1606 4.02786 13.091 4.04876L4.65766 6.61542C4.65033 6.61762 4.64483 6.62276 4.63786 6.62532C4.62365 6.63114 4.60981 6.63788 4.59643 6.64549C4.55793 6.66584 4.52309 6.69247 4.49339 6.72432C4.47341 6.7471 4.45641 6.7724 4.44279 6.79949C4.43596 6.81044 4.42982 6.82186 4.42446 6.83359C4.40892 6.87374 4.40076 6.91632 4.40026 6.95936C4.40026 6.95936 4.40026 6.96229 4.40026 6.96376V6.96669V9.53336H2.93359V10.2667H6.60026V9.53336H5.13359V7.48222L7.33359 8.24746V11.3667C7.33346 11.5167 7.42466 11.6515 7.56386 11.7073L9.39719 12.4407C9.58516 12.516 9.7986 12.4247 9.87395 12.2367C9.89137 12.1932 9.90031 12.1468 9.90026 12.1V9.14029L12.8336 10.1607V18.5512L5.13359 15.8745V15.7667C5.13359 15.5642 4.96942 15.4 4.76693 15.4C4.56444 15.4 4.40026 15.5642 4.40026 15.7667V16.1334C4.40031 16.2893 4.49903 16.4282 4.64629 16.4795L13.0796 19.4128H13.0862C13.1203 19.4241 13.1559 19.4302 13.1918 19.4312C13.1948 19.4312 13.1973 19.4312 13.2003 19.4312C13.2425 19.4306 13.2843 19.4227 13.3238 19.4077C13.3272 19.4073 13.3305 19.4066 13.3337 19.4059L21.7671 16.1059C21.9069 16.0512 21.9993 15.9168 22.0003 15.7667V6.96669V6.96376C22.0003 6.96376 22.0003 6.96082 22.0003 6.95936C21.9989 6.91627 21.9899 6.87383 21.9735 6.83396ZM5.95053 6.98979L13.2003 4.78319L14.5375 5.19019L7.81026 7.63696L5.95053 6.98979ZM9.16693 11.5585L8.06693 11.1185V8.60826L9.16693 9.04826V11.5585ZM9.78549 8.32336L8.90549 8.01756L15.705 5.54512L16.8083 5.88172L9.78549 8.32336ZM13.2003 9.51172L10.9016 8.71239L17.9988 6.24362L20.4507 6.98979L13.2003 9.51172ZM21.2669 15.5163L13.5669 18.5295V10.1607L21.2669 7.48406V15.5163Z" fill="white"/>
<path d="M1.46667 12.1H0V12.8333H1.46667V12.1Z" fill="white"/>
<path d="M2.19961 14.3H1.09961V15.0333H2.19961V14.3Z" fill="white"/>
<path d="M5.13359 14.3V13.5667C5.13359 13.3642 4.96942 13.2 4.76693 13.2C4.56444 13.2 4.40026 13.3642 4.40026 13.5667V14.3H2.93359V15.0333H9.16693V14.3H5.13359Z" fill="white"/>
<path d="M2.19961 9.53333H1.09961V10.2667H2.19961V9.53333Z" fill="white"/>
<path d="M5.13255 12.1V11C5.13255 10.7975 4.96838 10.6334 4.76589 10.6334C4.56339 10.6334 4.39922 10.7975 4.39922 11V12.1H2.19922V12.8334H7.33255V12.1H5.13255Z" fill="white"/>
<path d="M17.9668 1.83337H12.4668V2.56671H17.9668V1.83337Z" fill="white"/>
<path d="M11.7328 1.83337H10.6328V2.56671H11.7328V1.83337Z" fill="white"/>
<path d="M9.5332 19.4333H4.0332V20.1667H9.5332V19.4333Z" fill="white"/>
<path d="M3.29922 19.4333H2.19922V20.1667H3.29922V19.4333Z" fill="white"/>
<path d="M15.564 9.93848C15.3986 9.85584 15.1976 9.90929 15.095 10.0631L14.1582 11.4682L14.7683 11.8752L15.0334 11.4766V12.4666H15.7668V10.8599L16.2973 11.1254L16.6255 10.4694L15.564 9.93848Z" fill="white"/>
<path d="M18.1304 8.83851C17.965 8.75587 17.764 8.80931 17.6614 8.96317L16.7246 10.3682L17.3347 10.7752L17.5998 10.3767V11.3667H18.3332V9.75994L18.8637 10.0254L19.1919 9.36944L18.1304 8.83851Z" fill="white"/>
</svg>
