<svg width="41" height="41" viewBox="0 0 41 41" fill="none" xmlns="http://www.w3.org/2000/svg">
<path d="M35.2344 13.4531H5.76562C5.59572 13.4531 5.43278 13.5206 5.31263 13.6408C5.19249 13.7609 5.125 13.9238 5.125 14.0938V39.7188C5.125 39.8887 5.19249 40.0516 5.31263 40.1717C5.43278 40.2919 5.59572 40.3594 5.76562 40.3594H35.2344C35.4043 40.3594 35.5672 40.2919 35.6874 40.1717C35.8075 40.0516 35.875 39.8887 35.875 39.7188V14.0938C35.875 13.9238 35.8075 13.7609 35.6874 13.6408C35.5672 13.5206 35.4043 13.4531 35.2344 13.4531ZM16.6562 14.7344H24.3438V25.802L20.8179 23.7872C20.721 23.7321 20.6115 23.7031 20.5 23.7031C20.3885 23.7031 20.279 23.7321 20.1821 23.7872L16.6562 25.802V14.7344ZM34.5938 39.0781H6.40625V14.7344H15.375V26.9062C15.3749 27.0185 15.4044 27.1288 15.4603 27.2261C15.5163 27.3234 15.5969 27.4043 15.694 27.4606C15.791 27.517 15.9012 27.5469 16.0135 27.5472C16.1257 27.5476 16.2361 27.5185 16.3335 27.4628L20.5 25.0813L24.6665 27.4628C24.7639 27.5185 24.8743 27.5476 24.9865 27.5472C25.0988 27.5469 25.209 27.517 25.306 27.4606C25.4031 27.4043 25.4837 27.3234 25.5397 27.2261C25.5956 27.1288 25.6251 27.0185 25.625 26.9062V14.7344H34.5938V39.0781Z" fill="#00B857"/>
<path d="M17.2969 7.04688H18.5781V12.1719C18.5781 12.3418 18.6456 12.5047 18.7658 12.6249C18.8859 12.745 19.0488 12.8125 19.2187 12.8125H21.7812C21.9511 12.8125 22.1141 12.745 22.2342 12.6249C22.3544 12.5047 22.4219 12.3418 22.4219 12.1719V7.04688H23.7031C23.8175 7.04688 23.9297 7.01627 24.0283 6.95823C24.1268 6.90019 24.208 6.81683 24.2634 6.71681C24.3189 6.61679 24.3465 6.50375 24.3435 6.38944C24.3405 6.27512 24.307 6.16369 24.2464 6.06672L21.0432 0.941721C20.9857 0.849583 20.9056 0.773605 20.8105 0.720933C20.7155 0.668261 20.6086 0.640625 20.5 0.640625C20.3913 0.640625 20.2845 0.668261 20.1894 0.720933C20.0944 0.773605 20.0143 0.849583 19.9567 0.941721L16.7536 6.06672C16.693 6.16369 16.6595 6.27512 16.6565 6.38944C16.6535 6.50375 16.6811 6.61679 16.7366 6.71681C16.792 6.81683 16.8732 6.90019 16.9717 6.95823C17.0703 7.01627 17.1825 7.04688 17.2969 7.04688ZM20.5 2.49043L22.5473 5.76563H21.7812C21.6113 5.76563 21.4484 5.83312 21.3282 5.95326C21.2081 6.0734 21.1406 6.23635 21.1406 6.40625V11.5313H19.8594V6.40625C19.8594 6.23635 19.7919 6.0734 19.6717 5.95326C19.5516 5.83312 19.3886 5.76563 19.2187 5.76563H18.4527L20.5 2.49043Z" fill="#00B857"/>
<path d="M10.5605 8.24805C10.6606 8.1926 10.744 8.11136 10.802 8.01279C10.8601 7.91422 10.8907 7.8019 10.8906 7.6875V6.40625H11.5313V12.1719C11.5313 12.3418 11.5987 12.5047 11.7189 12.6249C11.839 12.745 12.002 12.8125 12.1719 12.8125H14.7344C14.9043 12.8125 15.0672 12.745 15.1874 12.6249C15.3075 12.5047 15.375 12.3418 15.375 12.1719V3.20313C15.375 3.03322 15.3075 2.87028 15.1874 2.75014C15.0672 2.63 14.9043 2.5625 14.7344 2.5625H10.8906V1.28125C10.8906 1.1669 10.86 1.05463 10.802 0.956096C10.7439 0.857566 10.6606 0.776368 10.5606 0.720932C10.4605 0.665497 10.3475 0.637844 10.2332 0.640846C10.1189 0.643847 10.0074 0.677393 9.91047 0.738002L4.78547 3.94113C4.69333 3.99871 4.61735 4.07879 4.56468 4.17382C4.51201 4.26885 4.48438 4.37572 4.48438 4.48438C4.48438 4.59303 4.51201 4.6999 4.56468 4.79493C4.61735 4.88997 4.69333 4.97004 4.78547 5.02763L9.91047 8.23075C10.0074 8.29139 10.1188 8.32498 10.2332 8.32802C10.3475 8.33106 10.4605 8.30345 10.5605 8.24805ZM9.60938 5.76563V6.53165L6.33418 4.48438L9.60938 2.4371V3.20313C9.60938 3.37303 9.67687 3.53598 9.79701 3.65612C9.91715 3.77626 10.0801 3.84375 10.25 3.84375H14.0938V11.5313H12.8125V5.76563C12.8125 5.59572 12.745 5.43278 12.6249 5.31264C12.5047 5.1925 12.3418 5.125 12.1719 5.125H10.25C10.0801 5.125 9.91715 5.1925 9.79701 5.31264C9.67687 5.43278 9.60938 5.59572 9.60938 5.76563Z" fill="#00B857"/>
<path d="M36.2145 3.94113L31.0895 0.738002C30.9926 0.677393 30.8811 0.643847 30.7668 0.640846C30.6525 0.637844 30.5395 0.665497 30.4394 0.720932C30.3394 0.776368 30.2561 0.857566 30.198 0.956096C30.14 1.05463 30.1094 1.1669 30.1094 1.28125V2.5625H26.2656C26.0957 2.5625 25.9328 2.63 25.8126 2.75014C25.6925 2.87028 25.625 3.03322 25.625 3.20313V12.1719C25.625 12.3418 25.6925 12.5047 25.8126 12.6249C25.9328 12.745 26.0957 12.8125 26.2656 12.8125H28.8281C28.998 12.8125 29.161 12.745 29.2811 12.6249C29.4013 12.5047 29.4688 12.3418 29.4688 12.1719V6.40625H30.1094V7.6875C30.1094 7.80186 30.14 7.91413 30.198 8.01266C30.2561 8.11119 30.3394 8.19239 30.4394 8.24782C30.5395 8.30326 30.6525 8.33091 30.7668 8.32791C30.8811 8.32491 30.9926 8.29136 31.0895 8.23075L36.2145 5.02763C36.3067 4.97004 36.3826 4.88997 36.4353 4.79493C36.488 4.6999 36.5156 4.59303 36.5156 4.48438C36.5156 4.37572 36.488 4.26885 36.4353 4.17382C36.3826 4.07879 36.3067 3.99871 36.2145 3.94113ZM31.3906 6.53165V5.76563C31.3906 5.59572 31.3231 5.43278 31.203 5.31264C31.0829 5.1925 30.9199 5.125 30.75 5.125H28.8281C28.6582 5.125 28.4953 5.1925 28.3751 5.31264C28.255 5.43278 28.1875 5.59572 28.1875 5.76563V11.5313H26.9063V3.84375H30.75C30.9199 3.84375 31.0829 3.77626 31.203 3.65612C31.3231 3.53598 31.3906 3.37303 31.3906 3.20313V2.4371L34.6662 4.48438L31.3906 6.53165Z" fill="#00B857"/>
<path d="M25.625 33.3125C25.4551 33.3125 25.2921 33.38 25.172 33.5001C25.0519 33.6203 24.9844 33.7832 24.9844 33.9531V37.7969C24.9844 37.9668 25.0519 38.1297 25.172 38.2499C25.2921 38.37 25.4551 38.4375 25.625 38.4375H33.3125C33.4824 38.4375 33.6454 38.37 33.7655 38.2499C33.8856 38.1297 33.9531 37.9668 33.9531 37.7969V33.9531C33.9531 33.7832 33.8856 33.6203 33.7655 33.5001C33.6454 33.38 33.4824 33.3125 33.3125 33.3125H25.625ZM32.6719 37.1562H26.2656V34.5938H32.6719V37.1562Z" fill="#00B857"/>
</svg>
