<svg width="41" height="41" viewBox="0 0 41 41" fill="none" xmlns="http://www.w3.org/2000/svg">
<g clip-path="url(#clip0)">
<path d="M37.0656 17.2831V8.43411C37.0656 7.57968 36.5185 6.809 35.7011 6.50671L20.8177 0.0658644C20.6144 -0.0220614 20.3839 -0.0219813 20.1808 0.0662648L5.30565 6.5232C4.48357 6.8239 3.93359 7.59561 3.93359 8.45365V19.016C3.93359 19.1682 3.97692 19.3172 4.05852 19.4457L5.09665 21.0787L4.3729 21.4447C4.10344 21.581 3.93359 21.8574 3.93359 22.1593V23.6484C3.93359 26.3936 4.6796 29.1114 6.09098 31.5082C6.18979 31.676 6.34627 31.802 6.53133 31.8627L7.10044 32.0495L7.00939 32.3269C6.92739 32.5768 6.97328 32.8511 7.13231 33.0607C8.82509 35.2912 11.0986 37.0681 13.7143 38.2027L20.1879 40.9369C20.2875 40.979 20.3935 41 20.4995 41C20.6055 41 20.7114 40.979 20.8111 40.9369L27.2919 38.2002C27.7118 38.018 27.8911 37.5956 28.1579 36.6556C28.1607 36.6456 28.1636 36.6356 28.1664 36.6256L28.8967 36.9767C29.1474 37.0971 29.4425 37.0789 29.6764 36.9287C34.3032 33.9569 37.0655 28.9925 37.0655 23.649V22.7117C37.0655 22.5465 37.0144 22.3854 36.9193 22.2504L35.3552 20.0314L36.9257 17.7353C37.0169 17.6021 37.0656 17.4445 37.0656 17.2831ZM35.464 17.0355L33.7195 19.5862C33.5307 19.8621 33.5333 20.2263 33.7259 20.4996L35.464 22.9656V23.6489C35.464 28.3012 33.1238 32.6379 29.1805 35.336L27.981 34.7596C27.7619 34.6543 27.5067 34.6542 27.2876 34.7594C27.0684 34.8645 26.9088 35.0636 26.854 35.3005C26.7299 35.8358 26.5431 36.5125 26.4243 36.8281L20.4996 39.33L14.3447 36.7304C12.1173 35.7642 10.1614 34.2786 8.66445 32.4202L8.87185 31.7881C9.00983 31.3679 8.78096 30.9155 8.36071 30.7775L7.32234 30.4367C6.15224 28.3503 5.53516 26.0097 5.53516 23.6483V22.6516L6.60788 22.1091C6.8096 22.0071 6.9587 21.8246 7.0186 21.6066C7.0785 21.3887 7.04343 21.1556 6.92227 20.9649L5.53524 18.7829V8.45365C5.53524 8.26538 5.66729 8.09298 5.86388 8.02451C5.88262 8.01802 5.90111 8.01074 5.91921 8.00289L20.5002 1.67359L35.0873 7.98615C35.1041 7.99336 35.1211 8.00009 35.1384 8.00625C35.3363 8.07616 35.4641 8.24416 35.4641 8.43411V17.0355H35.464Z" fill="#00B857"/>
<path d="M31.9591 20.8403C31.5169 20.8403 31.1584 21.1988 31.1584 21.6411V23.5912C31.1584 27.5002 28.7235 31.0873 24.9551 32.7309L20.5002 34.6121L16.0441 32.7301C12.2762 31.0867 9.8418 27.4998 9.8418 23.5907V11.0371L20.503 6.40927L31.1584 11.0204V14.401C31.1584 14.8433 31.517 15.2018 31.9592 15.2018C32.4014 15.2018 32.76 14.8433 32.76 14.401V10.4944C32.76 10.1751 32.5703 9.88626 32.2773 9.7595L20.8205 4.80162C20.6173 4.71362 20.3867 4.71378 20.1836 4.80194L8.72214 9.7772C8.42954 9.9042 8.24023 10.1928 8.24023 10.5118V23.5906C8.24023 28.1385 11.0539 32.3029 15.4085 34.2001C15.4112 34.2013 15.414 34.2024 15.4168 34.2036L20.1888 36.219C20.2884 36.261 20.3943 36.2821 20.5004 36.2821C20.6063 36.2821 20.7122 36.261 20.8119 36.219L25.5828 34.2043C25.5855 34.2031 25.5883 34.2019 25.591 34.2008C29.9461 32.3035 32.76 28.1389 32.76 23.5911V21.641C32.7599 21.1989 32.4013 20.8403 31.9591 20.8403Z" fill="#00B857"/>
<path d="M32.6984 17.7293C32.5672 17.4145 32.2426 17.2124 31.9017 17.237C31.5702 17.261 31.2808 17.4961 31.1893 17.8156C31.0974 18.1367 31.2205 18.4929 31.4931 18.6867C31.763 18.8785 32.1278 18.8838 32.4037 18.7015C32.7179 18.4938 32.8429 18.0763 32.6984 17.7293Z" fill="#00B857"/>
<path d="M27.0063 17.2371L23.7712 14.002C23.4585 13.6893 22.9516 13.6893 22.6387 14.002L20.4993 16.1414L18.36 14.002C18.0472 13.6893 17.5403 13.6893 17.2274 14.002L13.9923 17.2371C13.6796 17.5498 13.6796 18.0568 13.9923 18.3695L16.1318 20.509L13.9923 22.6483C13.6796 22.961 13.6796 23.4681 13.9923 23.7808L17.2274 27.016C17.3776 27.1662 17.5813 27.2505 17.7937 27.2505C18.006 27.2505 18.2097 27.1661 18.3599 27.016L20.4993 24.8766L22.6387 27.016C22.7889 27.1662 22.9926 27.2505 23.2049 27.2505C23.4173 27.2505 23.6209 27.1661 23.7712 27.016L27.0062 23.7808C27.3189 23.4681 27.3189 22.961 27.0062 22.6483L24.8668 20.509L27.0062 18.3695C27.319 18.0569 27.319 17.5498 27.0063 17.2371ZM23.1682 19.9427C22.8555 20.2554 22.8555 20.7625 23.1682 21.0752L25.3076 23.2146L23.2049 25.3173L21.0656 23.1779C20.9153 23.0277 20.7117 22.9433 20.4993 22.9433C20.287 22.9433 20.0833 23.0277 19.9331 23.1779L17.7937 25.3173L15.691 23.2146L17.8305 21.0752C18.1432 20.7625 18.1432 20.2554 17.8305 19.9427L15.691 17.8033L17.7937 15.7007L19.9331 17.84C20.2459 18.1528 20.7528 18.1528 21.0656 17.84L23.205 15.7007L25.3077 17.8033L23.1682 19.9427Z" fill="#00B857"/>
</g>
<defs>
<clipPath id="clip0">
<rect width="41" height="41" fill="white"/>
</clipPath>
</defs>
</svg>
