<svg width="41" height="41" viewBox="0 0 41 41" fill="none" xmlns="http://www.w3.org/2000/svg">
<path d="M19.8594 16.6562C20.567 16.6562 21.1406 16.0826 21.1406 15.375C21.1406 14.6674 20.567 14.0938 19.8594 14.0938C19.1518 14.0938 18.5781 14.6674 18.5781 15.375C18.5781 16.0826 19.1518 16.6562 19.8594 16.6562Z" fill="#00B857"/>
<path d="M27.5469 16.6562C28.2545 16.6562 28.8281 16.0826 28.8281 15.375C28.8281 14.6674 28.2545 14.0938 27.5469 14.0938C26.8393 14.0938 26.2656 14.6674 26.2656 15.375C26.2656 16.0826 26.8393 16.6562 27.5469 16.6562Z" fill="#00B857"/>
<path d="M35.1135 28.8762L28.8281 27.0648V24.8522C30.4529 23.5974 31.8351 21.8517 32.3996 19.8594H34.2734C34.8679 19.8587 35.4378 19.6223 35.8582 19.2019C36.2785 18.7816 36.515 18.2117 36.5156 17.6172V13.7734C36.515 13.179 36.2785 12.609 35.8582 12.1887C35.4378 11.7683 34.8679 11.5319 34.2734 11.5312H32.6719V10.25C32.6719 7.87134 31.727 5.5901 30.045 3.90814C28.363 2.22617 26.0818 1.28125 23.7031 1.28125C21.3245 1.28125 19.0432 2.22617 17.3613 3.90814C15.6793 5.5901 14.7344 7.87134 14.7344 10.25V11.5312H13.1328C12.5383 11.5319 11.9684 11.7683 11.5481 12.1887C11.1277 12.609 10.8913 13.179 10.8906 13.7734V17.6172C10.8913 18.2117 11.1277 18.7816 11.5481 19.2019C11.9684 19.6223 12.5383 19.8587 13.1328 19.8594H13.4531V22.4219C13.4531 22.5918 13.5206 22.7547 13.6408 22.8749C13.7609 22.995 13.9238 23.0625 14.0938 23.0625H16.7291C17.276 23.7269 17.8963 24.3272 18.5781 24.8522V27.0648L17.2969 27.434V25.9453C17.2965 25.5207 17.1276 25.1136 16.8273 24.8133C16.5271 24.513 16.1199 24.3442 15.6953 24.3438H2.24219C1.81756 24.3442 1.41044 24.513 1.11018 24.8133C0.809921 25.1136 0.641049 25.5207 0.640625 25.9453V35.5547C0.641049 35.9793 0.809921 36.3864 1.11018 36.6867C1.41044 36.987 1.81756 37.1558 2.24219 37.1562H5.5366L5.25152 38.4375H3.84375C3.67385 38.4375 3.5109 38.505 3.39076 38.6251C3.27062 38.7453 3.20312 38.9082 3.20312 39.0781C3.20312 39.248 3.27062 39.411 3.39076 39.5311C3.5109 39.6513 3.67385 39.7188 3.84375 39.7188H39.7188C39.8887 39.7188 40.0516 39.6513 40.1717 39.5311C40.2919 39.411 40.3594 39.248 40.3594 39.0781V35.6884C40.3588 34.1333 39.8441 32.622 38.8953 31.3899C37.9464 30.1578 36.6168 29.274 35.1135 28.8762ZM34.5938 12.8686C34.7808 12.9349 34.9428 13.0574 35.0575 13.2194C35.1722 13.3814 35.234 13.5749 35.2344 13.7734V17.6172C35.234 17.8157 35.1722 18.0092 35.0575 18.1712C34.9428 18.3332 34.7808 18.4558 34.5938 18.5221V12.8686ZM32.6719 12.8125H33.3125V18.5781H32.6719V12.8125ZM12.8125 18.5221C12.6254 18.4558 12.4634 18.3332 12.3487 18.1712C12.234 18.0092 12.1723 17.8157 12.1719 17.6172V13.7734C12.1723 13.5749 12.234 13.3814 12.3487 13.2194C12.4634 13.0574 12.6254 12.9349 12.8125 12.8686V18.5221ZM29.9556 28.7232L27.3138 33.7449L24.7249 32.4765L28.4013 28.2756L29.9556 28.7232ZM23.7031 31.6989L19.8594 27.3058V25.7131C21.1711 26.4722 22.5388 26.9062 23.7031 26.9062C24.8675 26.9062 26.2352 26.4722 27.5469 25.7131V27.3058L23.7031 31.6989ZM16.0156 10.25C16.0156 8.21115 16.8256 6.2558 18.2672 4.81412C19.7089 3.37243 21.6643 2.5625 23.7031 2.5625C25.742 2.5625 27.6973 3.37243 29.139 4.81412C30.5807 6.2558 31.3906 8.21115 31.3906 10.25V12.4369C30.0357 11.9911 28.8706 11.1016 28.0834 9.91207C27.9913 9.77598 27.8505 9.68042 27.69 9.6451C27.5296 9.60979 27.3617 9.63742 27.221 9.72229C27.1729 9.75191 22.4771 12.5458 16.0156 12.7236V10.25ZM14.0938 12.8125H14.7344V18.5781H14.0938V12.8125ZM14.7344 21.7812V19.8594H15.0066C15.2004 20.5324 15.4786 21.1782 15.8346 21.7812H14.7344ZM18.4588 23.0625H21.2511C21.3839 23.4369 21.6293 23.7611 21.9536 23.9905C22.2779 24.2199 22.6653 24.3433 23.0625 24.3438H24.3438C24.8535 24.3438 25.3423 24.1413 25.7027 23.7808C26.0631 23.4204 26.2656 22.9316 26.2656 22.4219C26.2656 21.9122 26.0631 21.4233 25.7027 21.0629C25.3423 20.7025 24.8535 20.5 24.3438 20.5H23.0625C22.6653 20.5005 22.2779 20.6239 21.9536 20.8533C21.6293 21.0827 21.3839 21.4068 21.2511 21.7812H17.3465C16.2198 20.2053 16.0156 18.7679 16.0156 17.9375V14.0049C21.6419 13.8607 25.9317 11.866 27.3691 11.106C28.3812 12.4108 29.7943 13.3464 31.3906 13.7686V17.9375C31.3906 19.0386 31.0335 21.2047 28.6407 23.3492C27.0984 24.7313 25.1597 25.625 23.7031 25.625C22.2465 25.625 20.3078 24.7313 18.7655 23.3492C18.659 23.2539 18.5573 23.1578 18.4588 23.0625ZM22.4219 22.4219C22.4221 22.252 22.4897 22.0892 22.6098 21.9691C22.7299 21.8491 22.8927 21.7815 23.0625 21.7812H24.3438C24.5137 21.7812 24.6766 21.8487 24.7967 21.9689C24.9169 22.089 24.9844 22.252 24.9844 22.4219C24.9844 22.5918 24.9169 22.7547 24.7967 22.8749C24.6766 22.995 24.5137 23.0625 24.3438 23.0625H23.0625C22.8927 23.0623 22.7299 22.9947 22.6098 22.8746C22.4897 22.7545 22.4221 22.5917 22.4219 22.4219ZM19.0049 28.2756L22.6749 32.4701L20.134 33.7401L17.4891 28.712L19.0049 28.2756ZM6.564 38.4375L6.96279 36.6454V36.6446L7.56098 33.9531H10.3765L10.9747 36.6446V36.6454L11.3735 38.4375H6.564ZM12.1166 35.875L11.516 33.1732C11.4844 33.0309 11.4052 32.9037 11.2915 32.8125C11.1778 32.7214 11.0364 32.6718 10.8906 32.6719H7.04688C6.90114 32.6718 6.75972 32.7214 6.64601 32.8125C6.53229 32.9037 6.45308 33.0309 6.42146 33.1732L5.82088 35.875H2.24219C2.15724 35.875 2.07576 35.8413 2.01569 35.7812C1.95562 35.7211 1.92188 35.6396 1.92188 35.5547V25.9453C1.92188 25.8604 1.95562 25.7789 2.01569 25.7188C2.07576 25.6587 2.15724 25.625 2.24219 25.625H15.6953C15.7803 25.625 15.8617 25.6587 15.9218 25.7188C15.9819 25.7789 16.0156 25.8604 16.0156 25.9453V35.5547C16.0156 35.6396 15.9819 35.7211 15.9218 35.7812C15.8617 35.8413 15.7803 35.875 15.6953 35.875H12.1166ZM21.3192 38.4375H12.686L12.4009 37.1562H15.6953C16.1199 37.1558 16.5271 36.987 16.8273 36.6867C17.1276 36.3864 17.2965 35.9793 17.2969 35.5547V31.0991L19.2924 34.8916C19.3705 35.04 19.5035 35.1519 19.6631 35.2034C19.8226 35.2548 19.996 35.2418 20.1461 35.1671L20.5977 34.9405L21.73 37.2051L21.3192 38.4375ZM22.6701 38.4375L22.8839 37.7969H24.5407L24.781 38.4375H22.6701ZM24.5888 36.5156H22.8175L21.7436 34.3679L23.6879 33.3958L25.6642 34.3631L24.5888 36.5156ZM39.0781 38.4375H35.875V36.5156C35.875 36.3457 35.8075 36.1828 35.6874 36.0626C35.5672 35.9425 35.4043 35.875 35.2344 35.875C35.0645 35.875 34.9015 35.9425 34.7814 36.0626C34.6612 36.1828 34.5938 36.3457 34.5938 36.5156V38.4375H26.1487L25.6827 37.1931L26.815 34.9269L27.309 35.1687C27.3964 35.212 27.4926 35.2345 27.5901 35.2344C27.707 35.2345 27.8217 35.2026 27.9218 35.1422C28.0219 35.0818 28.1035 34.9951 28.1579 34.8916L31.2129 29.0852L34.7659 30.1094C34.7708 30.1103 34.7756 30.1117 34.7803 30.1134C36.0116 30.4379 37.1009 31.1608 37.8783 32.1693C38.6557 33.1777 39.0776 34.4151 39.0781 35.6884V38.4375Z" fill="#00B857"/>
<path d="M1.92188 38.4375H1.28125C1.11135 38.4375 0.9484 38.505 0.82826 38.6251C0.708119 38.7453 0.640625 38.9082 0.640625 39.0781C0.640625 39.248 0.708119 39.411 0.82826 39.5311C0.9484 39.6513 1.11135 39.7188 1.28125 39.7188H1.92188C2.09178 39.7188 2.25472 39.6513 2.37487 39.5311C2.49501 39.411 2.5625 39.248 2.5625 39.0781C2.5625 38.9082 2.49501 38.7453 2.37487 38.6251C2.25472 38.505 2.09178 38.4375 1.92188 38.4375Z" fill="#00B857"/>
</svg>
