<svg width="13" height="13" viewBox="0 0 13 13" fill="none" xmlns="http://www.w3.org/2000/svg">
<g clip-path="url(#clip0)">
<path d="M7.21819 6.50075L12.8513 0.867649C13.0496 0.669324 13.0496 0.347777 12.8513 0.149477C12.6529 -0.0488237 12.3314 -0.048849 12.1331 0.149477L6.49999 5.78258L0.866917 0.149477C0.668591 -0.048849 0.347045 -0.048849 0.148744 0.149477C-0.0495561 0.347803 -0.0495815 0.669349 0.148744 0.867649L5.78182 6.50073L0.148744 12.1338C-0.0495815 12.3322 -0.0495815 12.6537 0.148744 12.852C0.247895 12.9512 0.377869 13.0007 0.507843 13.0007C0.637818 13.0007 0.767767 12.9512 0.866942 12.852L6.49999 7.21892L12.1331 12.852C12.2322 12.9512 12.3622 13.0007 12.4922 13.0007C12.6221 13.0007 12.7521 12.9512 12.8513 12.852C13.0496 12.6537 13.0496 12.3321 12.8513 12.1338L7.21819 6.50075Z" fill="#343B4C"/>
</g>
<defs>
<clipPath id="clip0">
<rect width="13" height="13" fill="white"/>
</clipPath>
</defs>
</svg>
