<svg width="41" height="41" viewBox="0 0 41 41" fill="none" xmlns="http://www.w3.org/2000/svg">
<g clip-path="url(#clip0)">
<path d="M0.66129 28.1044C0.882988 28.1028 1.10435 28.1217 1.32258 28.1606V28.7657C1.32258 29.1309 1.61867 29.427 1.98387 29.427H28.4355C29.0454 29.4223 29.6539 29.3692 30.2554 29.2683C30.665 29.3781 31.0878 29.4315 31.5118 29.427C32.4178 29.4451 33.307 29.1812 34.0565 28.6718C35.1857 27.9157 36.6595 27.9157 37.7888 28.6718C38.5398 29.1822 39.4309 29.4461 40.3387 29.427C40.7039 29.427 41 29.1309 41 28.7657C41 28.4005 40.7039 28.1044 40.3387 28.1044C39.6714 28.1224 39.0164 27.9232 38.4719 27.537C37.7221 27.0275 36.8323 26.7636 35.9259 26.7818H35.918C38.6256 24.7405 40.2535 21.5749 40.3387 18.1851V16.8625C40.3387 16.4973 40.0426 16.2012 39.6774 16.2012H35.0484V12.2335C35.0484 11.8683 34.7523 11.5722 34.3871 11.5722H21.1613C20.7961 11.5722 20.5 11.8683 20.5 12.2335V21.4915H15.871V12.2335H17.1935C17.3944 12.2335 17.5845 12.1423 17.71 11.9855L20.3552 8.67902C20.5834 8.39392 20.5374 7.97772 20.2523 7.7495C20.1349 7.65551 19.9891 7.60434 19.8387 7.60442H11.9032V4.95926C11.9032 4.59407 11.6071 4.29797 11.2419 4.29797H7.93548C7.57029 4.29797 7.27419 4.59407 7.27419 4.95926V7.60442H5.95161C5.58642 7.60442 5.29032 7.90052 5.29032 8.26571V16.2012H1.98387C1.61867 16.2012 1.32258 16.4973 1.32258 16.8625V26.8255C1.10328 26.7967 0.882409 26.7822 0.66129 26.7818C0.296093 26.7818 0 27.0779 0 27.4431C0 27.8083 0.296093 28.1044 0.66129 28.1044ZM28.4355 12.8947H33.7258V14.2173H28.4355V12.8947ZM28.4355 15.5399H33.7258V16.2012H28.4355V15.5399ZM39.0161 17.5238V18.1851C39.0085 19.3199 38.7817 20.4426 38.3482 21.4915H26.199L28.1829 17.5238H39.0161ZM21.8226 12.8947H27.1129V14.2173H21.8226V12.8947ZM21.8226 15.5399H27.1129V16.7064L27.0349 16.8625H21.8226V15.5399ZM21.8226 18.1851H26.3736L25.7123 19.5076H21.8226V18.1851ZM21.8226 20.8302H25.051L24.7204 21.4915H21.8226V20.8302ZM8.59677 5.62055H10.5806V7.60442H8.59677V5.62055ZM6.6129 8.92701H18.4626L16.8755 10.9109H15.2097C14.8445 10.9109 14.5484 11.207 14.5484 11.5722V21.4915H10.5806V16.8625C10.5806 16.4973 10.2846 16.2012 9.91936 16.2012H6.6129V8.92701ZM2.64516 17.5238H9.25807V21.4915H2.64516V17.5238ZM2.64516 22.8141H37.7041C36.0914 25.4738 33.4286 27.327 30.3744 27.9153C30.1213 27.8111 29.8778 27.6847 29.647 27.5377C28.1005 26.5299 26.1049 26.5299 24.5583 27.5377C23.4312 28.2933 21.9591 28.2933 20.832 27.5377C19.2855 26.5299 17.2898 26.5299 15.7433 27.5377C15.2003 27.9231 14.5468 28.1219 13.8811 28.1044C13.215 28.1222 12.5611 27.9233 12.0176 27.5377C11.2688 27.0275 10.3796 26.7633 9.47365 26.7818C8.56776 26.7637 7.67866 27.0278 6.92966 27.5377C6.38649 27.9234 5.73273 28.1223 5.06681 28.1044C4.40105 28.1222 3.74762 27.9233 3.20461 27.5377C3.03069 27.4326 2.84685 27.3254 2.64516 27.2242V22.8141Z" fill="#00B857"/>
<path d="M40.3387 32.0722C39.6714 32.0901 39.0164 31.891 38.4719 31.5048C36.9239 30.4979 34.928 30.4979 33.38 31.5048C32.251 32.2608 30.7773 32.2608 29.6483 31.5048C28.1018 30.497 26.1062 30.497 24.5597 31.5048C23.4325 32.2604 21.9605 32.2604 20.8333 31.5048C19.2868 30.497 17.2912 30.497 15.7447 31.5048C15.2013 31.8907 14.5474 32.0898 13.8811 32.0722C13.215 32.09 12.5611 31.8911 12.0176 31.5055C11.2688 30.9953 10.3796 30.7311 9.47365 30.7496C8.56776 30.7314 7.67866 30.9955 6.92966 31.5055C6.38649 31.8912 5.73273 32.09 5.06681 32.0722C4.40105 32.09 3.74762 31.8911 3.20461 31.5055C2.45595 30.9954 1.56701 30.7312 0.66129 30.7496C0.296093 30.7496 0 31.0457 0 31.4109C0 31.7761 0.296093 32.0722 0.66129 32.0722C1.32704 32.0543 1.98056 32.2532 2.52348 32.6389C3.27215 33.1489 4.16109 33.4132 5.06681 33.3948C5.97269 33.4129 6.8618 33.1488 7.61079 32.6389C8.15404 32.2533 8.80773 32.0544 9.47365 32.0722C10.1398 32.0544 10.7937 32.2533 11.3372 32.6389C12.086 33.1491 12.9752 33.4133 13.8811 33.3948C14.7871 33.4133 15.6763 33.1491 16.4251 32.6389C17.5528 31.8832 19.0252 31.8832 20.1528 32.6389C21.6988 33.6467 23.6941 33.6467 25.2401 32.6389C26.3678 31.8832 27.8402 31.8832 28.9678 32.6389C30.5156 33.6466 32.512 33.6466 34.0598 32.6389C35.189 31.8828 36.6628 31.8828 37.7921 32.6389C38.5421 33.1488 39.432 33.413 40.3387 33.3948C40.7039 33.3948 41 33.0987 41 32.7335C41 32.3683 40.7039 32.0722 40.3387 32.0722Z" fill="#00B857"/>
<path d="M40.3387 35.3786C39.6714 35.3965 39.0164 35.1974 38.4719 34.8112C36.9239 33.8043 34.928 33.8043 33.38 34.8112C32.251 35.5672 30.7773 35.5672 29.6483 34.8112C28.1018 33.8034 26.1062 33.8034 24.5597 34.8112C23.4325 35.5668 21.9605 35.5668 20.8333 34.8112C19.2868 33.8034 17.2912 33.8034 15.7447 34.8112C15.2013 35.1971 14.5474 35.3962 13.8811 35.3786C13.215 35.3964 12.5611 35.1975 12.0176 34.8119C11.2688 34.3017 10.3796 34.0375 9.47365 34.056C8.56776 34.0378 7.67866 34.3019 6.92966 34.8119C6.38649 35.1976 5.73273 35.3965 5.06681 35.3786C4.40105 35.3964 3.74762 35.1975 3.20461 34.8119C2.45595 34.3019 1.56701 34.0376 0.66129 34.056C0.296093 34.056 0 34.3521 0 34.7173C0 35.0825 0.296093 35.3786 0.66129 35.3786C1.32704 35.3608 1.98056 35.5596 2.52348 35.9453C3.27215 36.4554 4.16109 36.7196 5.06681 36.7012C5.97269 36.7194 6.8618 36.4553 7.61079 35.9453C8.15404 35.5597 8.80773 35.3608 9.47365 35.3786C10.1398 35.3608 10.7937 35.5597 11.3372 35.9453C12.086 36.4555 12.9752 36.7197 13.8811 36.7012C14.7871 36.7197 15.6763 36.4555 16.4251 35.9453C17.5528 35.1896 19.0252 35.1896 20.1528 35.9453C21.6988 36.9531 23.6941 36.9531 25.2401 35.9453C26.3678 35.1896 27.8402 35.1896 28.9678 35.9453C30.5156 36.9531 32.512 36.9531 34.0598 35.9453C35.189 35.1892 36.6628 35.1892 37.7921 35.9453C38.5421 36.4553 39.432 36.7195 40.3387 36.7012C40.7039 36.7012 41 36.4051 41 36.0399C41 35.6747 40.7039 35.3786 40.3387 35.3786Z" fill="#00B857"/>
<path d="M5.29051 27.4431C6.38618 27.4431 7.27438 26.5549 7.27438 25.4593C7.27438 24.3636 6.38618 23.4754 5.29051 23.4754C4.19484 23.4754 3.30664 24.3636 3.30664 25.4593C3.30664 26.5549 4.19484 27.4431 5.29051 27.4431ZM5.29051 24.798C5.65571 24.798 5.9518 25.0941 5.9518 25.4593C5.9518 25.8245 5.65571 26.1206 5.29051 26.1206C4.92531 26.1206 4.62922 25.8245 4.62922 25.4593C4.62922 25.0941 4.92531 24.798 5.29051 24.798Z" fill="#00B857"/>
<path d="M11.9028 13.556C12.9985 13.556 13.8867 12.6678 13.8867 11.5722C13.8867 10.4765 12.9985 9.58829 11.9028 9.58829C10.8071 9.58829 9.91895 10.4765 9.91895 11.5722C9.91895 12.6678 10.8071 13.556 11.9028 13.556ZM11.9028 10.9109C12.268 10.9109 12.5641 11.207 12.5641 11.5722C12.5641 11.9374 12.268 12.2334 11.9028 12.2334C11.5376 12.2334 11.2415 11.9374 11.2415 11.5722C11.2415 11.207 11.5376 10.9109 11.9028 10.9109Z" fill="#00B857"/>
</g>
<defs>
<clipPath id="clip0">
<rect width="41" height="41" fill="white"/>
</clipPath>
</defs>
</svg>
