<svg width="41" height="41" viewBox="0 0 41 41" fill="none" xmlns="http://www.w3.org/2000/svg">
<g clip-path="url(#clip0)">
<path d="M10.7305 1.60156C11.1727 1.60156 11.5312 1.24304 11.5312 0.800781C11.5312 0.358522 11.1727 0 10.7305 0C10.2882 0 9.92969 0.358522 9.92969 0.800781C9.92969 1.24304 10.2882 1.60156 10.7305 1.60156Z" fill="#00B857"/>
<path d="M40.1992 6.88672H21.3008V0.800781C21.3008 0.590176 21.2151 0.383574 21.0662 0.234629C20.9172 0.0856836 20.7106 0 20.5 0H14.334C13.8928 0 13.5332 0.359551 13.5332 0.800781C13.5332 1.24201 13.8928 1.60156 14.334 1.60156H19.6992V6.88672H1.60156V1.60156H7.12695C7.56818 1.60156 7.92773 1.24201 7.92773 0.800781C7.92773 0.359551 7.56818 0 7.12695 0H0.800781C0.590176 0 0.383574 0.0856836 0.234629 0.234629C0.0856836 0.383574 0 0.590176 0 0.800781V40.1992C0 40.6415 0.35851 41 0.800781 41H40.1992C40.6415 41 41 40.6415 41 40.1992V7.6875C41 7.24523 40.6415 6.88672 40.1992 6.88672ZM39.3984 20.5H28.1875V8.48828H31.3906V11.6914C31.3906 11.969 31.5343 12.2267 31.7704 12.3726C32.0065 12.5185 32.3014 12.5317 32.5495 12.4076L33.793 11.7859L35.0364 12.4076C35.1494 12.4642 35.2721 12.4922 35.3945 12.4922C35.541 12.4922 35.687 12.4521 35.8156 12.3726C36.0517 12.2266 36.1954 11.9689 36.1954 11.6914V8.48828H39.3985V20.5H39.3984ZM28.6306 22.1016H32.0686V26.3045L30.7077 25.624C30.595 25.5677 30.4723 25.5395 30.3496 25.5395C30.2269 25.5395 30.1043 25.5677 29.9915 25.624L28.6306 26.3045V22.1016ZM34.5938 8.48828V10.3957L34.1511 10.1744C34.0383 10.118 33.9156 10.0898 33.793 10.0898C33.6703 10.0898 33.5476 10.118 33.4349 10.1744L32.9922 10.3957V8.48828H34.5938ZM26.5859 20.5H14.4141V8.48828H18.0977V11.6914C18.0977 11.969 18.2413 12.2267 18.4775 12.3726C18.7135 12.5185 19.0084 12.5317 19.2565 12.4076L20.5 11.7859L21.7435 12.4076C21.8564 12.4642 21.9791 12.4922 22.1016 12.4922C22.248 12.4922 22.394 12.4521 22.5226 12.3726C22.7587 12.2266 22.9024 11.9689 22.9024 11.6914V8.48828H26.586V20.5H26.5859ZM8.93135 22.1016H12.3694V26.3045L11.0085 25.624C10.8958 25.5677 10.7731 25.5395 10.6504 25.5395C10.5277 25.5395 10.405 25.5677 10.2923 25.624L8.93135 26.3045V22.1016ZM20.5 8.48828H21.3008V10.3957L20.8581 10.1744C20.7454 10.118 20.6227 10.0898 20.5 10.0898C20.3773 10.0898 20.2546 10.118 20.1419 10.1744L19.6992 10.3957V8.48828H20.5ZM8.00781 8.48828V10.3957L7.56514 10.1744C7.45239 10.118 7.32971 10.0898 7.20703 10.0898C7.08435 10.0898 6.96167 10.118 6.84892 10.1744L6.40625 10.3957V8.48828H8.00781ZM4.80469 8.48828V11.6914C4.80469 11.969 4.94835 12.2267 5.1845 12.3726C5.42057 12.5185 5.71542 12.5317 5.96358 12.4076L7.20703 11.7859L8.45048 12.4076C8.56347 12.4642 8.68615 12.4922 8.80859 12.4922C8.95506 12.4922 9.10104 12.4521 9.22964 12.3726C9.46572 12.2266 9.60946 11.9689 9.60946 11.6914V8.48828H12.8126V20.5H1.60156V8.48828H4.80469ZM1.60156 22.1016H7.32979V27.6003C7.32979 27.8778 7.47345 28.1356 7.7096 28.2814C7.94567 28.4273 8.24052 28.4405 8.48868 28.3165L10.6504 27.2356L12.8121 28.3165C12.9252 28.373 13.0478 28.4011 13.1702 28.4011C13.3167 28.4011 13.4627 28.361 13.5913 28.2814C13.8273 28.1355 13.9711 27.8778 13.9711 27.6003V22.1016H19.6992V39.3984H1.60156V22.1016ZM39.3984 39.3984H21.3008V22.1016H27.029V27.6003C27.029 27.8778 27.1727 28.1356 27.4088 28.2814C27.6449 28.4273 27.9397 28.4405 28.1879 28.3165L30.3496 27.2356L32.5113 28.3165C32.6244 28.373 32.747 28.4011 32.8694 28.4011C33.0159 28.4011 33.1619 28.361 33.2905 28.2814C33.5266 28.1355 33.6703 27.8778 33.6703 27.6003V22.1016H39.3984V39.3984Z" fill="#00B857"/>
<path d="M4.00391 37.7969C4.44617 37.7969 4.80469 37.4384 4.80469 36.9961C4.80469 36.5538 4.44617 36.1953 4.00391 36.1953C3.56165 36.1953 3.20312 36.5538 3.20312 36.9961C3.20312 37.4384 3.56165 37.7969 4.00391 37.7969Z" fill="#00B857"/>
<path d="M10.8086 36.1953H7.60547C7.16424 36.1953 6.80469 36.5549 6.80469 36.9961C6.80469 37.4373 7.16424 37.7969 7.60547 37.7969H10.8086C11.2498 37.7969 11.6094 37.4373 11.6094 36.9961C11.6094 36.5549 11.2498 36.1953 10.8086 36.1953Z" fill="#00B857"/>
<path d="M17.2969 33.793C16.8546 33.793 16.4961 34.1515 16.4961 34.5938V36.9961C16.4961 37.4384 16.8546 37.7969 17.2969 37.7969C17.7391 37.7969 18.0977 37.4384 18.0977 36.9961V34.5938C18.0977 34.1515 17.7391 33.793 17.2969 33.793Z" fill="#00B857"/>
<path d="M14.0938 33.793C13.6515 33.793 13.293 34.1515 13.293 34.5938V36.9961C13.293 37.4384 13.6515 37.7969 14.0938 37.7969C14.536 37.7969 14.8945 37.4384 14.8945 36.9961V34.5938C14.8945 34.1515 14.536 33.793 14.0938 33.793Z" fill="#00B857"/>
<path d="M23.7031 37.7969C24.1454 37.7969 24.5039 37.4384 24.5039 36.9961C24.5039 36.5538 24.1454 36.1953 23.7031 36.1953C23.2609 36.1953 22.9023 36.5538 22.9023 36.9961C22.9023 37.4384 23.2609 37.7969 23.7031 37.7969Z" fill="#00B857"/>
<path d="M30.5117 36.1953H27.3086C26.8674 36.1953 26.5078 36.5549 26.5078 36.9961C26.5078 37.4373 26.8674 37.7969 27.3086 37.7969H30.5117C30.9529 37.7969 31.3125 37.4373 31.3125 36.9961C31.3125 36.5549 30.9529 36.1953 30.5117 36.1953Z" fill="#00B857"/>
<path d="M36.9961 37.7969C37.4384 37.7969 37.7969 37.4384 37.7969 36.9961V34.5938C37.7969 34.1515 37.4384 33.793 36.9961 33.793C36.5538 33.793 36.1953 34.1515 36.1953 34.5938V36.9961C36.1953 37.4384 36.5538 37.7969 36.9961 37.7969Z" fill="#00B857"/>
<path d="M31.6309 17.2969H30.5898C30.1476 17.2969 29.7891 17.6554 29.7891 18.0977C29.7891 18.5399 30.1476 18.8984 30.5898 18.8984H31.6309C32.0731 18.8984 32.4316 18.5399 32.4316 18.0977C32.4316 17.6554 32.0731 17.2969 31.6309 17.2969Z" fill="#00B857"/>
<path d="M36.1953 15.6953V18.0977C36.1953 18.5399 36.5538 18.8984 36.9961 18.8984C37.4384 18.8984 37.7969 18.5399 37.7969 18.0977V15.6953C37.7969 15.253 37.4384 14.8945 36.9961 14.8945C36.5538 14.8945 36.1953 15.253 36.1953 15.6953Z" fill="#00B857"/>
<path d="M19.459 17.2969H16.8164C16.3741 17.2969 16.0156 17.6554 16.0156 18.0977C16.0156 18.5399 16.3741 18.8984 16.8164 18.8984H19.459C19.9013 18.8984 20.2598 18.5399 20.2598 18.0977C20.2598 17.6554 19.9013 17.2969 19.459 17.2969Z" fill="#00B857"/>
<path d="M24.1836 18.8984C24.6259 18.8984 24.9844 18.5399 24.9844 18.0977V15.6953C24.9844 15.253 24.6259 14.8945 24.1836 14.8945C23.7413 14.8945 23.3828 15.253 23.3828 15.6953V18.0977C23.3828 18.5399 23.7413 18.8984 24.1836 18.8984Z" fill="#00B857"/>
<path d="M4.00391 18.8984H5.04492C5.48719 18.8984 5.8457 18.5399 5.8457 18.0977C5.8457 17.6554 5.48719 17.2969 5.04492 17.2969H4.00391C3.56163 17.2969 3.20312 17.6554 3.20312 18.0977C3.20312 18.5399 3.56163 18.8984 4.00391 18.8984Z" fill="#00B857"/>
<path d="M10.5703 18.8984C11.0126 18.8984 11.3711 18.5399 11.3711 18.0977V15.6953C11.3711 15.253 11.0126 14.8945 10.5703 14.8945C10.128 14.8945 9.76953 15.253 9.76953 15.6953V18.0977C9.76953 18.5399 10.128 18.8984 10.5703 18.8984Z" fill="#00B857"/>
</g>
<defs>
<clipPath id="clip0">
<rect width="41" height="41" fill="white"/>
</clipPath>
</defs>
</svg>
