<svg width="40" height="40" viewBox="0 0 40 40" fill="none" xmlns="http://www.w3.org/2000/svg">
<g clip-path="url(#clip0)">
<path d="M35 7.26562C35.4315 7.26562 35.7813 6.91586 35.7813 6.48438V2.34375C35.7813 1.05141 34.7298 0 33.4375 0H2.34375C1.05141 0 0 1.05141 0 2.34375V37.6562C0 38.9486 1.05141 40 2.34375 40H33.4375C34.7298 40 35.7813 38.9486 35.7813 37.6562V35.4688C35.7813 35.0373 35.4315 34.6875 35 34.6875C34.5685 34.6875 34.2188 35.0373 34.2188 35.4688V37.6562C34.2188 38.087 33.8683 38.4375 33.4375 38.4375H2.34375C1.91297 38.4375 1.5625 38.087 1.5625 37.6562V2.34375C1.5625 1.91297 1.91297 1.5625 2.34375 1.5625H33.4375C33.8683 1.5625 34.2188 1.91297 34.2188 2.34375V6.48438C34.2188 6.91586 34.5685 7.26562 35 7.26562Z" fill="#00B857"/>
<path d="M31.2509 3.75H4.53125C4.09977 3.75 3.75 4.09977 3.75 4.53125V20.8594C3.75 21.2909 4.09977 21.6406 4.53125 21.6406C4.96273 21.6406 5.3125 21.2909 5.3125 20.8594V5.3125H30.4697V6.5625C30.4697 6.99398 30.8195 7.34375 31.2509 7.34375C31.6824 7.34375 32.0322 6.99398 32.0322 6.5625V4.53125C32.0322 4.09977 31.6824 3.75 31.2509 3.75Z" fill="#00B857"/>
<path d="M5.0836 23.1977C4.93828 23.0523 4.7375 22.9688 4.53125 22.9688C4.32578 22.9688 4.12422 23.0523 3.97891 23.1977C3.83359 23.343 3.75 23.5445 3.75 23.75C3.75 23.9555 3.83359 24.157 3.97891 24.3023C4.12422 24.4477 4.32578 24.5312 4.53125 24.5312C4.7375 24.5312 4.93828 24.4477 5.0836 24.3023C5.22969 24.157 5.3125 23.9555 5.3125 23.75C5.3125 23.5445 5.22969 23.343 5.0836 23.1977Z" fill="#00B857"/>
<path d="M31.2509 32.9688C30.8195 32.9688 30.4697 33.3185 30.4697 33.75V34.6875H5.3125V26.7578C5.3125 26.3263 4.96273 25.9766 4.53125 25.9766C4.09977 25.9766 3.75 26.3263 3.75 26.7578V35.4688C3.75 35.9002 4.09977 36.25 4.53125 36.25H31.2509C31.6824 36.25 32.0322 35.9002 32.0322 35.4688V33.75C32.0322 33.3185 31.6824 32.9688 31.2509 32.9688Z" fill="#00B857"/>
<path d="M24.2107 27.6044C23.9056 27.2992 23.411 27.2992 23.1058 27.6043L21.5618 29.1484L20.602 28.1886C19.996 27.5826 19.0101 27.5826 18.4041 28.1886L17.7796 28.8131C17.4745 29.1182 17.4745 29.6129 17.7796 29.918C18.0847 30.2231 18.5794 30.2231 18.8845 29.918L19.5031 29.2994L20.4629 30.2593C20.7658 30.5623 21.1638 30.7137 21.5618 30.7137C21.9598 30.7137 22.3577 30.5623 22.6607 30.2593L24.2107 28.7093C24.5158 28.4042 24.5158 27.9095 24.2107 27.6044Z" fill="#00B857"/>
<path d="M39.6423 16.3892C39.9866 15.8521 40.0895 15.1905 39.9243 14.5743C39.7591 13.958 39.3395 13.4365 38.7727 13.1436C38.5269 13.0165 38.3764 12.7559 38.3893 12.4796C38.4189 11.8422 38.1772 11.218 37.7261 10.7669C37.275 10.3158 36.6509 10.0737 36.0134 10.1037C35.7357 10.1171 35.4764 9.966 35.3494 9.7203C35.0564 9.15358 34.5349 8.73381 33.9187 8.56866C33.3022 8.40342 32.6409 8.50631 32.1038 8.85061C31.8709 8.99998 31.57 8.99991 31.3372 8.85061C30.8001 8.50623 30.1387 8.4035 29.5223 8.56866C28.9061 8.73381 28.3846 9.15358 28.0916 9.7203C27.9646 9.96608 27.7033 10.1162 27.4277 10.1037C26.7901 10.0739 26.1661 10.3158 25.715 10.7669C25.2638 11.218 25.0221 11.8423 25.0517 12.4795C25.0646 12.7559 24.9141 13.0165 24.6684 13.1436C24.1016 13.4365 23.6819 13.958 23.5167 14.5743C23.4379 14.8683 23.4208 15.1726 23.4612 15.4687H9.82836C9.39687 15.4687 9.04711 15.8185 9.04711 16.25C9.04711 16.6815 9.39687 17.0312 9.82836 17.0312H23.8603C23.8435 17.0741 23.8241 17.1162 23.7986 17.1559C23.4543 17.693 23.3515 18.3546 23.5166 18.9708C23.5393 19.0555 23.5672 19.1381 23.5992 19.2187H9.82812C9.39664 19.2187 9.04688 19.5685 9.04688 20C9.04688 20.4315 9.39664 20.7812 9.82812 20.7812H25.0051C25.0391 20.8705 25.0561 20.9669 25.0515 21.0655C25.0219 21.7029 25.2636 22.3271 25.7148 22.7783C26.1659 23.2294 26.7898 23.4715 27.4274 23.4415C27.7034 23.428 27.9644 23.579 28.0914 23.8248C28.1852 24.0064 28.3028 24.1726 28.4391 24.3205V31.6168C28.4391 31.9324 28.6291 32.217 28.9205 32.3382C29.2118 32.4594 29.5476 32.3933 29.7714 32.1706L31.7204 30.2318L33.6694 32.1706C33.8188 32.3192 34.0179 32.398 34.2205 32.398C34.3215 32.398 34.4234 32.3784 34.5203 32.3381C34.8117 32.2169 35.0016 31.9323 35.0016 31.6167V24.3204C35.138 24.1726 35.2555 24.0063 35.3494 23.8247C35.4764 23.579 35.7373 23.4288 36.0134 23.4414C36.6513 23.4715 37.2749 23.2294 37.726 22.7782C38.1772 22.327 38.4189 21.7028 38.3893 21.0655C38.3764 20.7891 38.527 20.5285 38.7727 20.4015C39.3394 20.1085 39.7591 19.5871 39.9243 18.9708C40.0895 18.3544 39.9866 17.693 39.6423 17.1558C39.493 16.923 39.493 16.6221 39.6423 16.3892ZM33.4391 29.7376L32.2713 28.5759C31.9666 28.2727 31.4741 28.2727 31.1694 28.5759L30.0016 29.7376V25.0508C30.4691 25.0728 30.9375 24.9506 31.3371 24.6945C31.57 24.5451 31.8709 24.5452 32.1037 24.6945C32.4727 24.9311 32.9004 25.0537 33.3319 25.0537C33.3677 25.0537 33.4034 25.0519 33.4391 25.0501V29.7376ZM38.415 18.5665C38.3627 18.7619 38.2348 18.9207 38.0551 19.0136C37.2688 19.4201 36.7873 20.254 36.8284 21.1382C36.8379 21.3403 36.7642 21.5304 36.6212 21.6735C36.4781 21.8165 36.288 21.89 36.0859 21.8808C35.2012 21.8398 34.3678 22.3211 33.9613 23.1074C33.8684 23.2872 33.7096 23.415 33.5141 23.4673C33.3188 23.5196 33.1173 23.4884 32.947 23.3792C32.5744 23.1403 32.1474 23.0209 31.7203 23.0209C31.2934 23.0209 30.8662 23.1404 30.4937 23.3792C30.3234 23.4883 30.1219 23.5196 29.9265 23.4673C29.731 23.415 29.5723 23.2871 29.4793 23.1074C29.0728 22.3212 28.2395 21.8394 27.3547 21.8808C27.153 21.8901 26.9625 21.8165 26.8195 21.6735C26.6763 21.5304 26.6027 21.3403 26.6122 21.1381C26.6412 20.514 26.4089 19.9158 25.9938 19.4744C25.9816 19.4611 25.9692 19.448 25.9561 19.4355C25.7913 19.2683 25.6002 19.1246 25.3855 19.0136C25.2059 18.9207 25.078 18.7619 25.0257 18.5665C24.9734 18.371 25.0046 18.1695 25.1138 17.9993C25.5916 17.2541 25.5916 16.2912 25.1138 15.546C25.0047 15.3757 24.9734 15.1742 25.0257 14.9787C25.078 14.7833 25.2059 14.6245 25.3856 14.5316C26.1719 14.1251 26.6534 13.2912 26.6123 12.407C26.6028 12.2049 26.6765 12.0148 26.8195 11.8717C26.9626 11.7286 27.153 11.6551 27.3548 11.6644C28.2395 11.7055 29.073 11.2241 29.4794 10.4378C29.5723 10.258 29.7311 10.1302 29.9266 10.0779C30.122 10.0256 30.3234 10.0568 30.4937 10.166C31.2389 10.6438 32.202 10.6438 32.947 10.166C33.1173 10.0569 33.3187 10.0255 33.5141 10.0779C33.7096 10.1302 33.8684 10.2581 33.9613 10.4378C34.3678 11.224 35.2016 11.7057 36.0859 11.6644C36.2881 11.6552 36.4781 11.7286 36.6212 11.8717C36.7643 12.0148 36.8379 12.2049 36.8284 12.407C36.7873 13.2912 37.2688 14.1251 38.0552 14.5316C38.2348 14.6245 38.3627 14.7833 38.415 14.9787C38.4673 15.1742 38.4361 15.3757 38.3269 15.5459C37.8491 16.2911 37.8491 17.254 38.3269 17.9992C38.4361 18.1695 38.4674 18.371 38.415 18.5665Z" fill="#00B857"/>
<path d="M35.435 14.6474C35.1299 14.3423 34.6352 14.3423 34.3301 14.6474L31.7371 17.2405L30.7048 16.2082C30.3997 15.9031 29.9051 15.9031 29.5999 16.2082C29.2948 16.5133 29.2948 17.008 29.5999 17.3131L31.1846 18.8978C31.3372 19.0504 31.5371 19.1266 31.737 19.1266C31.9369 19.1266 32.1369 19.0504 32.2894 18.8978L35.435 15.7523C35.74 15.4472 35.74 14.9525 35.435 14.6474Z" fill="#00B857"/>
<path d="M9.53672 9.44766C9.39141 9.30234 9.18984 9.21875 8.98438 9.21875C8.77891 9.21875 8.57734 9.30234 8.43203 9.44766C8.28672 9.59297 8.20312 9.79453 8.20312 10C8.20312 10.2055 8.28672 10.407 8.43203 10.5523C8.57734 10.6977 8.77891 10.7812 8.98438 10.7812C9.18984 10.7812 9.39141 10.6977 9.53672 10.5523C9.68203 10.407 9.76562 10.2055 9.76562 10C9.76562 9.79453 9.68203 9.59297 9.53672 9.44766Z" fill="#00B857"/>
<path d="M15.7045 9.21875H11.9023C11.4709 9.21875 11.1211 9.56852 11.1211 10C11.1211 10.4315 11.4709 10.7812 11.9023 10.7812H15.7045C16.1359 10.7812 16.4857 10.4315 16.4857 10C16.4857 9.56852 16.1359 9.21875 15.7045 9.21875Z" fill="#00B857"/>
<path d="M23.658 22.9688H14.7266C14.2951 22.9688 13.9453 23.3185 13.9453 23.75C13.9453 24.1815 14.2951 24.5312 14.7266 24.5312H23.6579C24.0894 24.5312 24.4391 24.1815 24.4391 23.75C24.4391 23.3185 24.0895 22.9688 23.658 22.9688Z" fill="#00B857"/>
</g>
<defs>
<clipPath id="clip0">
<rect width="40" height="40" fill="white"/>
</clipPath>
</defs>
</svg>
