<svg width="41" height="41" viewBox="0 0 41 41" fill="none" xmlns="http://www.w3.org/2000/svg">
<g clip-path="url(#clip0)">
<path d="M29.9822 35.9248C29.853 35.6098 29.5258 35.4077 29.1861 35.4324C28.8489 35.4568 28.558 35.697 28.4701 36.0236C28.3847 36.3408 28.5083 36.6905 28.7767 36.8813C29.0541 37.0784 29.4317 37.0784 29.7091 36.8813C30.0085 36.6683 30.123 36.2632 29.9822 35.9248Z" fill="#00B857"/>
<path d="M38.7425 0.154526C38.4297 -0.158279 37.9226 -0.158279 37.6098 0.154526L32.4789 5.28547C32.0938 5.07965 31.655 4.96266 31.1889 4.96266C29.6752 4.96266 28.4437 6.19417 28.4437 7.70784V31.6112C27.3023 31.8082 26.3013 32.4188 25.6006 33.2831H23.6828V21.2711H25.128C25.5703 21.2711 25.9287 20.9126 25.9287 20.4703V6.85638C25.9287 6.41407 25.5703 6.0556 25.128 6.0556H11.5172C11.0749 6.0556 10.7164 6.41407 10.7164 6.85638V19.6695H9.27124C8.82893 19.6695 8.47045 20.028 8.47045 20.4703V33.2831H4.73556C3.31636 33.2831 2.16211 34.4377 2.16211 35.8566C2.16211 36.545 2.43018 37.1916 2.91628 37.6765C3.40207 38.1626 4.04833 38.43 4.73556 38.43H5.45157C5.81005 39.8586 7.10475 40.9199 8.64312 40.9199C10.1815 40.9199 11.4762 39.8586 11.8347 38.43H14.6931C15.1354 38.43 15.4939 38.0715 15.4939 37.6292C15.4939 37.1869 15.1354 36.8284 14.6931 36.8284H11.835C11.6357 36.038 11.1365 35.3354 10.4571 34.885H22.8823C22.8836 34.885 22.8848 34.8847 22.8861 34.8847H24.7513C24.7144 35.0085 24.6832 35.1337 24.6566 35.2603C24.548 35.774 24.5268 36.3076 24.5931 36.8284H21.912C21.47 36.8284 21.1112 37.1869 21.1112 37.6292C21.1112 38.0715 21.47 38.43 21.912 38.43H25.1045C25.894 39.9099 27.453 40.9199 29.2445 40.9199C31.8248 40.9199 33.9247 38.8251 33.9334 36.2466C33.9334 36.2413 33.9341 36.236 33.9341 36.2307V7.70784C33.9341 7.24207 33.8171 6.80289 33.6112 6.41814L38.7425 1.28688C39.055 0.974076 39.055 0.467018 38.7425 0.154526ZM19.6595 7.65716V9.6466L18.7952 9.0554C18.6592 8.96187 18.5012 8.91526 18.3432 8.91526C18.1853 8.91526 18.0273 8.96218 17.8912 9.0554L17.0272 9.64629V7.65716H19.6595ZM12.318 7.65716H15.4254V11.1646C15.4254 11.4615 15.5899 11.7343 15.8527 11.8728C16.1154 12.0114 16.4332 11.9933 16.6785 11.8256L18.3432 10.6864L20.0083 11.8256C20.1437 11.9185 20.3017 11.9654 20.4603 11.9654C20.5882 11.9654 20.7165 11.9348 20.8338 11.8728C21.0965 11.7343 21.2611 11.4615 21.2611 11.1646V7.65716H24.3272V19.6695H21.2611V16.1589C21.2611 15.862 21.0965 15.5893 20.8338 15.4507C20.5713 15.3121 20.2532 15.3303 20.008 15.4983L18.3432 16.6372L16.6785 15.4983C16.4332 15.3303 16.1154 15.3121 15.8527 15.4507C15.5899 15.5893 15.4254 15.862 15.4254 16.1589V19.6695H12.3176V7.65716H12.318ZM14.7603 21.2711H17.3929V23.2633L16.5289 22.6721C16.3926 22.5789 16.2346 22.5323 16.0766 22.5323C15.9187 22.5323 15.761 22.5789 15.6246 22.6721L14.7607 23.2633V21.2711H14.7603ZM18.1937 19.6695H17.0269V17.6773L17.8909 18.2685C18.1637 18.4549 18.5228 18.4549 18.7952 18.2685L19.6595 17.6773V19.6695H18.1937ZM10.072 21.2711H13.1588V24.7814C13.1588 25.0785 13.3233 25.3513 13.5861 25.4899C13.8488 25.6285 14.1666 25.6103 14.4119 25.4423L16.0766 24.3034L17.7417 25.4423C17.8771 25.5352 18.0354 25.5822 18.1937 25.5822C18.3216 25.5822 18.4499 25.5518 18.5672 25.4899C18.8299 25.3513 18.9945 25.0785 18.9945 24.7814V21.2711H22.0812V33.2831H18.9945V29.7759C18.9945 29.4788 18.8299 29.2063 18.5672 29.0674C18.3047 28.9289 17.9866 28.9473 17.7417 29.115L16.0766 30.2542L14.4119 29.115C14.1666 28.9473 13.8488 28.9289 13.5861 29.0674C13.3233 29.2063 13.1588 29.4788 13.1588 29.7759V33.2831H10.072V21.2711ZM17.3929 33.2831H14.7603V31.294L15.6246 31.8852C15.8971 32.0716 16.2562 32.0716 16.5289 31.8852L17.3929 31.294V33.2831ZM4.04801 36.5432C3.86471 36.3605 3.76367 36.1165 3.76367 35.8566C3.76367 35.3207 4.19972 34.8847 4.73556 34.8847H6.82916C6.15038 35.3354 5.64989 36.0377 5.45094 36.8284H4.73556C4.47593 36.8284 4.23226 36.7274 4.04801 36.5432ZM8.64312 39.3184C7.7119 39.3184 6.95397 38.5608 6.95397 37.6295C6.95397 36.698 7.7119 35.9404 8.64312 35.9404C9.3998 35.9404 10.0417 36.4406 10.2559 37.1275C10.3054 37.2861 10.332 37.4547 10.332 37.6292V37.6302C10.3316 38.5611 9.57435 39.3184 8.64312 39.3184ZM30.0453 7.70784C30.0453 7.07722 30.5583 6.56422 31.1889 6.56422C31.8195 6.56422 32.3325 7.07722 32.3325 7.70784V32.7041C31.6884 32.1395 30.8898 31.7554 30.0453 31.6096V7.70784ZM29.2445 39.3184C27.9157 39.3184 26.7805 38.4747 26.3457 37.2952C26.0176 36.4027 26.1264 35.3836 26.6363 34.5806C27.1843 33.7173 28.1481 33.1427 29.2445 33.1427C30.9471 33.1427 32.3322 34.5281 32.3322 36.2307C32.3322 37.9333 30.9471 39.3184 29.2445 39.3184Z" fill="#00B857"/>
<path d="M18.7853 36.9633C18.4997 36.7728 18.1121 36.7878 17.8431 37.0021C17.5848 37.2082 17.4775 37.5595 17.5788 37.8742C17.6814 38.1929 17.9804 38.4181 18.3148 38.43C18.6452 38.4413 18.9536 38.2392 19.0803 37.9355C19.2257 37.5861 19.0981 37.1738 18.7853 36.9633Z" fill="#00B857"/>
</g>
<defs>
<clipPath id="clip0">
<rect width="41" height="41" fill="white"/>
</clipPath>
</defs>
</svg>
