<svg width="22" height="22" viewBox="0 0 22 22" fill="none" xmlns="http://www.w3.org/2000/svg">
<path d="M20.7634 0H1.23595C0.554426 0 0 0.554469 0 1.236V6.81802C0 7.50024 0.554426 8.05522 1.23595 8.05522H2.16833L2.18015 9.85604C2.18122 10.0174 2.27253 10.1645 2.41665 10.237C2.47771 10.2678 2.54388 10.2829 2.60979 10.2829C2.69938 10.2829 2.78854 10.2549 2.86357 10.2L5.79515 8.05518H9.24322L10.6449 10.0964C10.7251 10.2131 10.8576 10.2829 10.9992 10.2829C11.1408 10.2829 11.2732 10.2131 11.3534 10.0964L12.7551 8.05518H16.2044L19.1347 10.1999C19.2649 10.2952 19.4375 10.3095 19.5815 10.2371C19.7257 10.1646 19.817 10.0176 19.8182 9.85626L19.831 8.05518H20.7636C21.4451 8.05518 21.9995 7.50015 21.9995 6.81798V1.236C21.9994 0.554469 21.445 0 20.7634 0V0ZM21.14 6.81802C21.14 7.02638 20.9711 7.19585 20.7634 7.19585H19.4042C19.1681 7.19585 18.9762 7.38637 18.9745 7.62248L18.9646 9.01063L16.5985 7.27882C16.5248 7.22494 16.436 7.19585 16.3447 7.19585H12.5289C12.3873 7.19585 12.2548 7.26559 12.1746 7.38229L10.9991 9.09416L9.82356 7.38229C9.74342 7.26559 9.61091 7.19585 9.46932 7.19585H5.65469C5.56346 7.19585 5.47461 7.22489 5.40096 7.27873L3.03398 9.01055L3.02487 7.62278C3.02332 7.38654 2.83138 7.19589 2.59518 7.19589H1.23595C1.02829 7.19589 0.859375 7.02638 0.859375 6.81807V1.236C0.859375 1.02833 1.02833 0.859375 1.23595 0.859375H20.7634C20.9711 0.859375 21.14 1.02833 21.14 1.236V6.81802Z" fill="white"/>
<path d="M20.5079 17.866C20.7217 17.5116 20.8449 17.0968 20.8449 16.6537C20.8449 15.355 19.7888 14.2983 18.4908 14.2983C17.1921 14.2983 16.1355 15.355 16.1355 16.6537C16.1355 17.0969 16.2589 17.5117 16.4728 17.8661C16.1605 18.0097 15.883 18.215 15.6544 18.4647C15.3224 17.5018 14.5731 16.715 13.6135 16.3453C13.9748 15.8284 14.1875 15.2005 14.1875 14.5234C14.1875 12.7653 12.7572 11.335 10.9991 11.335C9.24108 11.335 7.81078 12.7653 7.81078 14.5234C7.81078 15.2006 8.0236 15.8286 8.38497 16.3456C7.4253 16.7153 6.67597 17.502 6.34395 18.4648C6.1154 18.215 5.83791 18.0098 5.52565 17.8662C5.73947 17.5118 5.86274 17.0969 5.86274 16.6537C5.86274 15.355 4.8067 14.2984 3.50866 14.2984C2.20997 14.2984 1.15341 15.355 1.15341 16.6537C1.15341 17.0969 1.27673 17.5118 1.49063 17.8661C0.607192 18.2725 0 19.1713 0 20.1786V21.5707C0 21.808 0.192371 22.0004 0.429688 22.0004H9.06985C9.30716 22.0004 9.49954 21.808 9.49954 21.5707C9.49954 21.3334 9.30716 21.141 9.06985 21.141H7.01615V20.1785V19.5756C7.01615 18.3636 7.87652 17.3053 9.04535 17.0404C9.58547 17.4606 10.2633 17.7119 10.9991 17.7119C11.735 17.7119 12.4129 17.4606 12.9531 17.0402C14.1217 17.3048 14.982 18.3634 14.982 19.5756V20.1785V21.141H12.9284C12.691 21.141 12.4987 21.3334 12.4987 21.5707C12.4987 21.808 12.691 22.0004 12.9284 22.0004H21.5697C21.807 22.0004 21.9994 21.808 21.9994 21.5707V20.1785C21.9995 19.1711 21.3919 18.2723 20.5079 17.866ZM3.50874 15.1577C4.33293 15.1577 5.00346 15.8288 5.00346 16.6536C5.00346 17.4779 4.33293 18.1484 3.50874 18.1484C2.68392 18.1484 2.01287 17.4779 2.01287 16.6536C2.01287 15.8288 2.68392 15.1577 3.50874 15.1577ZM0.859461 21.141V20.1785C0.859461 19.4133 1.38884 18.7428 2.11651 18.5509C2.5068 18.8378 2.98822 19.0078 3.50874 19.0078C4.02897 19.0078 4.51005 18.8378 4.90012 18.551C5.62762 18.743 6.15682 19.4134 6.15682 20.1785V21.141H0.859461ZM8.67019 14.5234C8.67019 13.2392 9.71498 12.1943 10.9992 12.1943C12.2834 12.1943 13.3282 13.2391 13.3282 14.5234C13.3282 15.8077 12.2834 16.8525 10.9992 16.8525C9.71498 16.8525 8.67019 15.8076 8.67019 14.5234ZM18.4908 15.1577C19.315 15.1577 19.9855 15.8288 19.9855 16.6536C19.9855 17.4779 19.315 18.1484 18.4908 18.1484C17.666 18.1484 16.9949 17.4779 16.9949 16.6536C16.9949 15.8288 17.666 15.1577 18.4908 15.1577ZM15.8415 20.1785C15.8415 19.4133 16.3709 18.7428 17.0986 18.5509C17.4888 18.8378 17.9703 19.0078 18.4908 19.0078C19.011 19.0078 19.4921 18.8378 19.8822 18.551C20.6104 18.7429 21.1401 19.4133 21.1401 20.1785V21.141H15.8415V20.1785Z" fill="white"/>
<path d="M19.329 2.39844H8.13965C7.90233 2.39844 7.70996 2.59081 7.70996 2.82813C7.70996 3.06544 7.90233 3.25781 8.13965 3.25781H19.329C19.5663 3.25781 19.7587 3.06544 19.7587 2.82813C19.7587 2.59081 19.5663 2.39844 19.329 2.39844Z" fill="white"/>
<path d="M2.66992 3.25781H5.86465C6.10196 3.25781 6.29434 3.06544 6.29434 2.82813C6.29434 2.59081 6.10196 2.39844 5.86465 2.39844H2.66992C2.43261 2.39844 2.24023 2.59081 2.24023 2.82813C2.24023 3.06544 2.43261 3.25781 2.66992 3.25781Z" fill="white"/>
<path d="M19.3282 4.7959H16.1348C15.8974 4.7959 15.7051 4.98827 15.7051 5.22559C15.7051 5.4629 15.8974 5.65527 16.1348 5.65527H19.3282C19.5656 5.65527 19.7579 5.4629 19.7579 5.22559C19.7579 4.98827 19.5656 4.7959 19.3282 4.7959Z" fill="white"/>
<path d="M13.8593 4.7959H2.66992C2.43261 4.7959 2.24023 4.98827 2.24023 5.22559C2.24023 5.4629 2.43261 5.65527 2.66992 5.65527H13.8593C14.0966 5.65527 14.289 5.4629 14.289 5.22559C14.289 4.98827 14.0966 4.7959 13.8593 4.7959Z" fill="white"/>
<path d="M10.999 21.1406C10.7617 21.1406 10.5693 21.333 10.5693 21.5703C10.5693 21.8076 10.7617 22 10.999 22H11.0015C11.2388 22 11.43 21.8076 11.43 21.5703C11.43 21.333 11.2363 21.1406 10.999 21.1406Z" fill="white"/>
</svg>
