<svg width="42" height="42" viewBox="0 0 42 42" fill="none" xmlns="http://www.w3.org/2000/svg">
<path d="M37.3357 16.6671L36.4071 15.7385C36.0375 15.3701 35.5369 15.1633 35.015 15.1633C34.4932 15.1633 33.9926 15.3701 33.623 15.7385L31.5 17.8615V1.3125C31.5 1.13845 31.4309 0.971532 31.3078 0.848461C31.1847 0.72539 31.0178 0.65625 30.8438 0.65625H5.90625C5.7322 0.65625 5.56528 0.72539 5.44221 0.848461C5.31914 0.971532 5.25 1.13845 5.25 1.3125V40.6875C5.25 40.8615 5.31914 41.0285 5.44221 41.1515C5.56528 41.2746 5.7322 41.3438 5.90625 41.3438H24.9375C25.1116 41.3438 25.2786 41.2748 25.4018 41.1518L31.308 35.2455C31.431 35.1223 31.5001 34.9553 31.5 34.7812V25.6758C31.4999 25.5673 31.4731 25.4606 31.4221 25.3649L37.3357 19.4513C37.7041 19.0816 37.9109 18.581 37.9109 18.0592C37.9109 17.5373 37.7041 17.0367 37.3357 16.6671ZM25.5938 39.1035V35.4375H29.2597L25.5938 39.1035ZM30.1875 34.125H24.9375C24.7635 34.125 24.5965 34.1941 24.4735 34.3172C24.3504 34.4403 24.2812 34.6072 24.2812 34.7812V40.0312H6.5625V1.96875H30.1875V19.1133C30.1875 19.133 30.1891 19.1518 30.1908 19.1715L19.7023 29.66C19.6017 29.7602 19.5363 29.8903 19.5161 30.0308L19.0526 33.2793C19.0392 33.3723 19.046 33.4672 19.0725 33.5575C19.099 33.6477 19.1446 33.7312 19.2063 33.8022C19.2679 33.8732 19.3441 33.9302 19.4297 33.9692C19.5152 34.0082 19.6082 34.0283 19.7023 34.0282C19.7333 34.0284 19.7643 34.0262 19.795 34.0216L23.0434 33.5582C23.1839 33.5379 23.314 33.4725 23.4142 33.372L30.1875 26.5995V34.125ZM21.0943 30.1243L21.5578 29.66L23.4142 31.5164L22.9499 31.9799L21.0943 30.1243ZM21.5578 32.4442L20.475 32.5992L20.63 31.5164L21.5578 32.4442ZM24.3428 30.5878L22.4864 28.7314L31.7666 19.4513L33.623 21.3076L24.3428 30.5878ZM34.5516 20.379L32.6952 18.5227L33.1595 18.0592L35.015 19.9147L34.5516 20.379ZM36.4071 18.5227L35.9436 18.987L34.0873 17.1306L34.5516 16.6671C34.6746 16.5441 34.8415 16.4751 35.0154 16.4751C35.1894 16.4751 35.3563 16.5441 35.4793 16.6671L36.4071 17.5949C36.5301 17.7179 36.5992 17.8848 36.5992 18.0588C36.5992 18.2327 36.5301 18.3996 36.4071 18.5227Z" fill="#00B857"/>
<path d="M31.3031 20.8432L25.7345 26.4116C25.6114 26.5347 25.5423 26.7016 25.5423 26.8756C25.5423 27.0497 25.6114 27.2166 25.7345 27.3397C25.8576 27.4628 26.0245 27.5319 26.1986 27.5319C26.3726 27.5319 26.5395 27.4628 26.6626 27.3397L32.2311 21.7711C32.3506 21.6473 32.4167 21.4815 32.4153 21.3095C32.4138 21.1374 32.3447 20.9728 32.2231 20.8511C32.1014 20.7295 31.9368 20.6605 31.7647 20.659C31.5927 20.6575 31.4269 20.7236 31.3031 20.8432Z" fill="#00B857"/>
<path d="M16.9001 2.8489C16.7854 2.71803 16.6234 2.63804 16.4497 2.62651C16.2761 2.61497 16.105 2.67283 15.9739 2.78738L13.6336 4.8357C13.5722 4.76008 13.4946 4.69911 13.4066 4.65725C13.3186 4.61538 13.2224 4.59368 13.125 4.59371H8.53125C8.3572 4.59371 8.19028 4.66285 8.06721 4.78592C7.94414 4.90899 7.875 5.07591 7.875 5.24996V9.84371C7.875 10.0178 7.94414 10.1847 8.06721 10.3077C8.19028 10.4308 8.3572 10.5 8.53125 10.5H13.125C13.299 10.5 13.466 10.4308 13.589 10.3077C13.7121 10.1847 13.7812 10.0178 13.7812 9.84371V6.45007L16.8386 3.77503C16.9694 3.66033 17.0494 3.49836 17.061 3.3247C17.0725 3.15104 17.0146 2.97991 16.9001 2.8489ZM12.4687 9.18746H9.1875V5.90621H12.4097L11.1858 6.97672L10.9643 6.75441C10.8412 6.63127 10.6741 6.56209 10.5 6.56209C10.3259 6.56209 10.1588 6.63127 10.0357 6.75441C9.91256 6.87755 9.84338 7.04456 9.84338 7.21871C9.84338 7.39285 9.91256 7.55987 10.0357 7.683L10.692 8.33926C10.8098 8.45688 10.968 8.52536 11.1344 8.53084C11.3009 8.53632 11.4632 8.4784 11.5886 8.36879L12.4687 7.59851V9.18746Z" fill="#00B857"/>
<path d="M8.53125 17.7188H13.125C13.299 17.7188 13.466 17.6496 13.589 17.5265C13.7121 17.4035 13.7812 17.2365 13.7812 17.0625V12.4688C13.7812 12.2947 13.7121 12.1278 13.589 12.0047C13.466 11.8816 13.299 11.8125 13.125 11.8125H8.53125C8.3572 11.8125 8.19028 11.8816 8.06721 12.0047C7.94414 12.1278 7.875 12.2947 7.875 12.4688V17.0625C7.875 17.2365 7.94414 17.4035 8.06721 17.5265C8.19028 17.6496 8.3572 17.7188 8.53125 17.7188ZM9.1875 13.125H12.4688V16.4062H9.1875V13.125Z" fill="#00B857"/>
<path d="M8.53125 24.9375H13.125C13.299 24.9375 13.466 24.8684 13.589 24.7453C13.7121 24.6222 13.7812 24.4553 13.7812 24.2812V19.6875C13.7812 19.5135 13.7121 19.3465 13.589 19.2235C13.466 19.1004 13.299 19.0312 13.125 19.0312H8.53125C8.3572 19.0312 8.19028 19.1004 8.06721 19.2235C7.94414 19.3465 7.875 19.5135 7.875 19.6875V24.2812C7.875 24.4553 7.94414 24.6222 8.06721 24.7453C8.19028 24.8684 8.3572 24.9375 8.53125 24.9375ZM9.1875 20.3438H12.4688V23.625H9.1875V20.3438Z" fill="#00B857"/>
<path d="M13.7812 26.9062C13.7812 26.7322 13.7121 26.5653 13.589 26.4422C13.466 26.3191 13.299 26.25 13.125 26.25H8.53125C8.3572 26.25 8.19028 26.3191 8.06721 26.4422C7.94414 26.5653 7.875 26.7322 7.875 26.9062V31.5C7.875 31.674 7.94414 31.841 8.06721 31.964C8.19028 32.0871 8.3572 32.1562 8.53125 32.1562H13.125C13.299 32.1562 13.466 32.0871 13.589 31.964C13.7121 31.841 13.7812 31.674 13.7812 31.5V26.9062ZM12.4688 30.8438H9.1875V27.5625H12.4688V30.8438Z" fill="#00B857"/>
<path d="M16.4062 5.90625C16.4062 6.0803 16.4754 6.24722 16.5985 6.37029C16.7215 6.49336 16.8885 6.5625 17.0625 6.5625H26.25C26.424 6.5625 26.591 6.49336 26.714 6.37029C26.8371 6.24722 26.9062 6.0803 26.9062 5.90625C26.9062 5.7322 26.8371 5.56528 26.714 5.44221C26.591 5.31914 26.424 5.25 26.25 5.25H17.0625C16.8885 5.25 16.7215 5.31914 16.5985 5.44221C16.4754 5.56528 16.4062 5.7322 16.4062 5.90625Z" fill="#00B857"/>
<path d="M26.25 7.21875H17.0625C16.8885 7.21875 16.7215 7.28789 16.5985 7.41096C16.4754 7.53403 16.4062 7.70095 16.4062 7.875C16.4062 8.04905 16.4754 8.21597 16.5985 8.33904C16.7215 8.46211 16.8885 8.53125 17.0625 8.53125H26.25C26.424 8.53125 26.591 8.46211 26.714 8.33904C26.8371 8.21597 26.9062 8.04905 26.9062 7.875C26.9062 7.70095 26.8371 7.53403 26.714 7.41096C26.591 7.28789 26.424 7.21875 26.25 7.21875Z" fill="#00B857"/>
<path d="M17.0625 10.5H21C21.174 10.5 21.341 10.4309 21.464 10.3078C21.5871 10.1847 21.6562 10.0178 21.6562 9.84375C21.6562 9.6697 21.5871 9.50278 21.464 9.37971C21.341 9.25664 21.174 9.1875 21 9.1875H17.0625C16.8885 9.1875 16.7215 9.25664 16.5985 9.37971C16.4754 9.50278 16.4062 9.6697 16.4062 9.84375C16.4062 10.0178 16.4754 10.1847 16.5985 10.3078C16.7215 10.4309 16.8885 10.5 17.0625 10.5Z" fill="#00B857"/>
<path d="M26.25 11.8125H17.0625C16.8885 11.8125 16.7215 11.8816 16.5985 12.0047C16.4754 12.1278 16.4062 12.2947 16.4062 12.4688C16.4062 12.6428 16.4754 12.8097 16.5985 12.9328C16.7215 13.0559 16.8885 13.125 17.0625 13.125H26.25C26.424 13.125 26.591 13.0559 26.714 12.9328C26.8371 12.8097 26.9062 12.6428 26.9062 12.4688C26.9062 12.2947 26.8371 12.1278 26.714 12.0047C26.591 11.8816 26.424 11.8125 26.25 11.8125Z" fill="#00B857"/>
<path d="M26.25 13.7812H17.0625C16.8885 13.7812 16.7215 13.8504 16.5985 13.9735C16.4754 14.0965 16.4062 14.2635 16.4062 14.4375C16.4062 14.6115 16.4754 14.7785 16.5985 14.9015C16.7215 15.0246 16.8885 15.0938 17.0625 15.0938H26.25C26.424 15.0938 26.591 15.0246 26.714 14.9015C26.8371 14.7785 26.9062 14.6115 26.9062 14.4375C26.9062 14.2635 26.8371 14.0965 26.714 13.9735C26.591 13.8504 26.424 13.7812 26.25 13.7812Z" fill="#00B857"/>
<path d="M17.0625 17.0625H21C21.174 17.0625 21.341 16.9934 21.464 16.8703C21.5871 16.7472 21.6562 16.5803 21.6562 16.4062C21.6562 16.2322 21.5871 16.0653 21.464 15.9422C21.341 15.8191 21.174 15.75 21 15.75H17.0625C16.8885 15.75 16.7215 15.8191 16.5985 15.9422C16.4754 16.0653 16.4062 16.2322 16.4062 16.4062C16.4062 16.5803 16.4754 16.7472 16.5985 16.8703C16.7215 16.9934 16.8885 17.0625 17.0625 17.0625Z" fill="#00B857"/>
<path d="M21.6562 19.0312H17.0625C16.8885 19.0312 16.7215 19.1004 16.5985 19.2235C16.4754 19.3465 16.4062 19.5135 16.4062 19.6875C16.4062 19.8615 16.4754 20.0285 16.5985 20.1515C16.7215 20.2746 16.8885 20.3438 17.0625 20.3438H21.6562C21.8303 20.3438 21.9972 20.2746 22.1203 20.1515C22.2434 20.0285 22.3125 19.8615 22.3125 19.6875C22.3125 19.5135 22.2434 19.3465 22.1203 19.2235C21.9972 19.1004 21.8303 19.0312 21.6562 19.0312Z" fill="#00B857"/>
<path d="M20.3438 21H17.0625C16.8885 21 16.7215 21.0691 16.5985 21.1922C16.4754 21.3153 16.4062 21.4822 16.4062 21.6562C16.4062 21.8303 16.4754 21.9972 16.5985 22.1203C16.7215 22.2434 16.8885 22.3125 17.0625 22.3125H20.3438C20.5178 22.3125 20.6847 22.2434 20.8078 22.1203C20.9309 21.9972 21 21.8303 21 21.6562C21 21.4822 20.9309 21.3153 20.8078 21.1922C20.6847 21.0691 20.5178 21 20.3438 21Z" fill="#00B857"/>
<path d="M19.6875 23.625C19.6875 23.451 19.6184 23.284 19.4953 23.161C19.3722 23.0379 19.2053 22.9688 19.0312 22.9688H17.0625C16.8885 22.9688 16.7215 23.0379 16.5985 23.161C16.4754 23.284 16.4062 23.451 16.4062 23.625C16.4062 23.799 16.4754 23.966 16.5985 24.089C16.7215 24.2121 16.8885 24.2812 17.0625 24.2812H19.0312C19.2053 24.2812 19.3722 24.2121 19.4953 24.089C19.6184 23.966 19.6875 23.799 19.6875 23.625Z" fill="#00B857"/>
<path d="M12.4688 38.0625H7.875C7.70095 38.0625 7.53403 38.1316 7.41096 38.2547C7.28789 38.3778 7.21875 38.5447 7.21875 38.7188C7.21875 38.8928 7.28789 39.0597 7.41096 39.1828C7.53403 39.3059 7.70095 39.375 7.875 39.375H12.4688C12.6428 39.375 12.8097 39.3059 12.9328 39.1828C13.0559 39.0597 13.125 38.8928 13.125 38.7188C13.125 38.5447 13.0559 38.3778 12.9328 38.2547C12.8097 38.1316 12.6428 38.0625 12.4688 38.0625Z" fill="#00B857"/>
<path d="M15.0938 38.0625H14.4375C14.2635 38.0625 14.0965 38.1316 13.9735 38.2547C13.8504 38.3778 13.7812 38.5447 13.7812 38.7188C13.7812 38.8928 13.8504 39.0597 13.9735 39.1828C14.0965 39.3059 14.2635 39.375 14.4375 39.375H15.0938C15.2678 39.375 15.4347 39.3059 15.5578 39.1828C15.6809 39.0597 15.75 38.8928 15.75 38.7188C15.75 38.5447 15.6809 38.3778 15.5578 38.2547C15.4347 38.1316 15.2678 38.0625 15.0938 38.0625Z" fill="#00B857"/>
</svg>
