<svg width="41" height="41" viewBox="0 0 41 41" fill="none" xmlns="http://www.w3.org/2000/svg">
<path d="M9.30039 8.9797C8.98602 8.9797 8.67196 8.87991 8.39763 8.68066C7.84835 8.28152 7.6297 7.60617 7.84115 6.96085L8.23059 5.77094L7.20929 5.03241C6.65937 4.63483 6.43916 3.96105 6.64811 3.31542C6.85707 2.6701 7.43044 2.25282 8.10891 2.25282H9.37108L9.75552 1.06322C9.96447 0.417282 10.5378 0 11.2166 0C11.8954 0 12.4688 0.417282 12.6777 1.06322L13.0622 2.25282H14.3244C15.0028 2.25282 15.5762 2.66979 15.7852 3.31542C15.9941 3.96105 15.7739 4.63483 15.2243 5.03241L14.203 5.77094L14.5924 6.96085C14.8036 7.60648 14.5849 8.28152 14.0356 8.68066C13.486 9.08011 12.7766 9.07917 12.2279 8.67878L11.2166 7.94056L10.2053 8.67878C9.93069 8.87929 9.61538 8.9797 9.30039 8.9797ZM11.2166 6.1485C11.3824 6.1485 11.5482 6.1998 11.6887 6.3024L13.0065 7.26427L12.4988 5.7137C12.3906 5.38275 12.5085 5.0199 12.7907 4.81595L14.1201 3.85439H12.4797C12.1322 3.85439 11.8244 3.63042 11.7177 3.30009L11.2166 1.75046L10.7158 3.30009C10.6089 3.63042 10.3011 3.85439 9.95384 3.85439H8.31349L9.6426 4.81595C9.92475 5.0199 10.0427 5.38275 9.93444 5.7137L9.42707 7.26427L10.7446 6.3024C10.8851 6.1998 11.0508 6.1485 11.2166 6.1485Z" fill="#00B857"/>
<path d="M18.5777 8.9797C18.2637 8.9797 17.9493 8.87991 17.675 8.68066C17.1257 8.28152 16.907 7.60617 17.1185 6.96085L17.5079 5.77094L16.4863 5.03241C15.9367 4.63483 15.7165 3.96105 15.9255 3.31542C16.1344 2.6701 16.7078 2.25282 17.3863 2.25282H18.6484L19.0329 1.06322C19.2418 0.417282 19.8152 0 20.494 0C21.1728 0 21.7461 0.417282 21.9548 1.06322L22.3395 2.25282H23.6017C24.2802 2.25282 24.8536 2.66979 25.0625 3.31542C25.2715 3.96105 25.0512 4.63483 24.5013 5.03241L23.48 5.77094L23.8695 6.96085C24.0809 7.60648 23.8623 8.28152 23.313 8.68066C22.7634 9.08011 22.0539 9.07917 21.5053 8.67878L20.494 7.94056L19.4827 8.67878C19.208 8.87929 18.8927 8.9797 18.5777 8.9797ZM20.494 6.1485C20.6598 6.1485 20.8256 6.1998 20.966 6.3024L22.2839 7.26427L21.7762 5.7137C21.6679 5.38275 21.7859 5.0199 22.068 4.81595L23.3974 3.85439H21.7571C21.4096 3.85439 21.1018 3.63042 20.9948 3.30009L20.494 1.75046L19.9932 3.30009C19.8862 3.63042 19.5784 3.85439 19.2312 3.85439H17.5905L18.9199 4.81595C19.2021 5.0199 19.32 5.38275 19.2118 5.7137L18.7044 7.26427L20.022 6.3024C20.1624 6.1998 20.3282 6.1485 20.494 6.1485Z" fill="#00B857"/>
<path d="M27.8668 8.9797C27.5527 8.9797 27.2384 8.87991 26.964 8.68066C26.4148 8.28152 26.1961 7.60617 26.4076 6.96085L26.797 5.77094L25.7754 5.03241C25.2258 4.63483 25.0056 3.96105 25.2145 3.31542C25.4235 2.6701 25.9969 2.25282 26.6753 2.25282H27.9375L28.3219 1.06322C28.5309 0.417282 29.1043 0 29.783 0C30.4618 0 31.0352 0.417282 31.2438 1.06322L31.6286 2.25282H32.8908C33.5692 2.25282 34.1426 2.66979 34.3516 3.31542C34.5605 3.96105 34.3403 4.63483 33.7904 5.03241L32.7691 5.77094L33.1585 6.96085C33.37 7.60648 33.1513 8.28152 32.602 8.68066C32.0524 9.08011 31.343 9.07917 30.7943 8.67878L29.783 7.94056L28.7717 8.67878C28.4971 8.87929 28.1818 8.9797 27.8668 8.9797ZM29.783 6.1485C29.9488 6.1485 30.1146 6.1998 30.2551 6.3024L31.5729 7.26427L31.0652 5.7137C30.957 5.38275 31.0749 5.0199 31.3571 4.81595L32.6865 3.85439H31.0462C30.6986 3.85439 30.3908 3.63042 30.2838 3.30009L29.783 1.75046L29.2822 3.30009C29.1753 3.63042 28.8675 3.85439 28.5203 3.85439H26.8796L28.209 4.81595C28.4912 5.0199 28.6091 5.38275 28.5009 5.7137L27.9935 7.26427L29.311 6.3024C29.4515 6.1998 29.6173 6.1485 29.783 6.1485Z" fill="#00B857"/>
<path d="M20.5 41C20.4631 41 20.4265 40.9975 20.3899 40.9925C16.2021 40.4107 12.3668 38.3346 9.59061 35.1459C6.81415 31.9571 5.28516 27.8728 5.28516 23.6449V11.3711C5.28516 10.9288 5.64363 10.5703 6.08594 10.5703H17.2925C17.7348 10.5703 18.0933 10.9288 18.0933 11.3711C18.0933 11.8134 17.7348 12.1719 17.2925 12.1719H6.88672V23.6449C6.88672 31.5064 12.7312 38.2558 20.5 39.3903C28.2688 38.2558 34.1133 31.5064 34.1133 23.6449V12.1719H23.6987C23.2564 12.1719 22.898 11.8134 22.898 11.3711C22.898 10.9288 23.2564 10.5703 23.6987 10.5703H34.9141C35.3564 10.5703 35.7148 10.9288 35.7148 11.3711V23.6449C35.7148 27.8728 34.1859 31.9571 31.4094 35.1459C28.6332 38.3343 24.7979 40.4107 20.6101 40.9925C20.5735 40.9975 20.5369 41 20.5 41Z" fill="#00B857"/>
<path d="M20.5 37.7587C20.4543 37.7587 20.4087 37.7546 20.3636 37.7468C17.0676 37.1772 14.0525 35.4418 11.8741 32.8605C9.6907 30.2733 8.48828 27.0004 8.48828 23.6449V14.5742C8.48828 14.1319 8.84676 13.7734 9.28906 13.7734H31.7109C32.1532 13.7734 32.5117 14.1319 32.5117 14.5742V23.6449C32.5117 27.0004 31.3093 30.2733 29.1259 32.8605C26.9475 35.4418 23.9324 37.1772 20.6364 37.7468C20.5913 37.7546 20.5457 37.7587 20.5 37.7587ZM10.0898 15.375V23.6449C10.0898 29.6993 14.5555 35.0479 20.5 36.1443C26.4445 35.0479 30.9102 29.6993 30.9102 23.6449V15.375H10.0898Z" fill="#00B857"/>
<path d="M18.7468 30.8829C18.5419 30.8829 18.337 30.8047 18.1806 30.6483L12.496 24.9637C12.3459 24.8136 12.2617 24.6099 12.2617 24.3976C12.2617 24.1852 12.3459 23.9815 12.496 23.8314L15.4536 20.8741C15.7664 20.5613 16.2731 20.5613 16.5859 20.8741L18.7468 23.035L24.4104 17.3713C24.7233 17.0585 25.2303 17.0585 25.5431 17.3713L28.5004 20.3286C28.6505 20.4787 28.735 20.6824 28.735 20.8948C28.735 21.1072 28.6505 21.3111 28.5004 21.4613L21.5792 28.3821L21.0131 27.8159L21.5792 28.3821L19.313 30.6483C19.1566 30.8047 18.9517 30.8829 18.7468 30.8829ZM14.1949 24.3976L18.7468 28.9495L26.8015 20.8948L24.9766 19.0699L19.313 24.7335C19.0002 25.0463 18.4934 25.0463 18.1806 24.7335L16.0198 22.5726L14.1949 24.3976Z" fill="#00B857"/>
<path d="M20.5 12.1719C20.2895 12.1719 20.0827 12.0862 19.9338 11.9373C19.7849 11.7884 19.6992 11.5816 19.6992 11.3711C19.6992 11.1606 19.7849 10.9538 19.9338 10.8049C20.0827 10.656 20.2895 10.5703 20.5 10.5703C20.7105 10.5703 20.9173 10.656 21.0662 10.8049C21.2151 10.9538 21.3008 11.1606 21.3008 11.3711C21.3008 11.5816 21.2151 11.7884 21.0662 11.9373C20.9173 12.0862 20.7105 12.1719 20.5 12.1719Z" fill="#00B857"/>
</svg>
