<svg width="40" height="40" viewBox="0 0 40 40" fill="none" xmlns="http://www.w3.org/2000/svg">
<g clip-path="url(#clip0)">
<path d="M36.7098 28.1252C38.5334 28.0694 40 26.5696 40 24.7327V4.96049C40 3.08839 38.477 1.56534 36.6048 1.56534H23.5205C23.0891 1.56534 22.7393 1.9151 22.7393 2.34659C22.7393 2.77807 23.0891 3.12784 23.5205 3.12784H36.6048C37.6154 3.12784 38.4375 3.94995 38.4375 4.96049V24.7327C38.4375 25.7082 37.6712 26.5079 36.7091 26.5621C36.4752 24.6301 34.8265 23.1278 32.8323 23.1278C30.8371 23.1278 29.1877 24.6317 28.9552 26.5653H23.8871C23.6547 24.6317 22.0052 23.1278 20.01 23.1278C18.0148 23.1278 16.3653 24.6317 16.1329 26.5653H11.0648C10.8323 24.6317 9.18281 23.1278 7.18766 23.1278C5.1932 23.1278 3.54422 24.6306 3.31078 26.5632C2.33922 26.5189 1.5625 25.7149 1.5625 24.7327V4.96049C1.5625 3.94995 2.38461 3.12784 3.39516 3.12784H16.4893C16.9207 3.12784 17.2705 2.77807 17.2705 2.34659C17.2705 1.9151 16.9207 1.56534 16.4893 1.56534H3.39516C1.52305 1.56534 0 3.08839 0 4.96049V24.7327C0 26.5763 1.47727 28.0803 3.31008 28.1257C3.42234 29.0639 3.86797 29.9007 4.52547 30.5141C1.87633 31.5742 0 34.1671 0 37.1903V37.6591C0 38.0906 0.349844 38.4403 0.78125 38.4403H39.2188C39.6502 38.4403 40 38.0906 40 37.6591V37.1903C40 34.1724 38.1302 31.5834 35.4884 30.5198C36.1493 29.9058 36.5973 29.0665 36.7098 28.1252ZM30.4886 27.0341C30.4886 25.7417 31.54 24.6903 32.8323 24.6903C34.1247 24.6903 35.1761 25.7417 35.1761 27.0341V27.6591C35.1761 28.9514 34.1247 30.0028 32.8323 30.0028C31.54 30.0028 30.4886 28.9514 30.4886 27.6591V27.0341ZM22.669 30.517C23.3276 29.9038 23.7742 29.0667 23.887 28.1278H28.9552C29.0675 29.0623 29.5106 29.896 30.1643 30.5085C28.5355 31.1563 27.1977 32.3832 26.4062 33.9335C25.6182 32.3898 24.2884 31.167 22.669 30.517ZM17.6662 27.0341C17.6662 25.7417 18.7176 24.6903 20.0099 24.6903C21.3023 24.6903 22.3537 25.7417 22.3537 27.0341V27.6591C22.3537 28.9514 21.3023 30.0028 20.0099 30.0028C18.7176 30.0028 17.6662 28.9514 17.6662 27.6591V27.0341ZM17.3449 30.5113C15.7193 31.1598 14.3841 32.3853 13.5938 33.9335C12.8046 32.3875 11.472 31.1634 9.84953 30.5141C10.5065 29.9011 10.952 29.0651 11.0646 28.1278H16.1328C16.2453 29.0638 16.6896 29.8986 17.3449 30.5113ZM4.84375 27.6591V27.0341C4.84375 25.7417 5.89516 24.6903 7.1875 24.6903C8.47984 24.6903 9.53125 25.7417 9.53125 27.0341V27.6591C9.53125 28.9514 8.47984 30.0028 7.1875 30.0028C5.89516 30.0028 4.84375 28.9514 4.84375 27.6591ZM1.57102 36.8778C1.73375 33.921 4.1907 31.5653 7.1875 31.5653C10.1843 31.5653 12.6413 33.921 12.804 36.8778H1.57102ZM14.3835 36.8778C14.5462 33.921 17.0032 31.5653 20 31.5653C22.9968 31.5653 25.4537 33.921 25.6165 36.8778H14.3835ZM38.429 36.8778H27.196C27.3588 33.921 29.8157 31.5653 32.8125 31.5653C35.8093 31.5653 38.2663 33.921 38.429 36.8778Z" fill="#00B857"/>
<path d="M5.52734 14.3773H18.0013C18.4327 14.3773 18.7826 14.0276 18.7826 13.5961C18.7826 13.1646 18.4327 12.8148 18.0013 12.8148H5.52734C5.09594 12.8148 4.74609 13.1646 4.74609 13.5961C4.74609 14.0276 5.09594 14.3773 5.52734 14.3773Z" fill="#00B857"/>
<path d="M5.52734 9.06485H18.0013C18.4327 9.06485 18.7826 8.71508 18.7826 8.2836C18.7826 7.85212 18.4327 7.50235 18.0013 7.50235H5.52734C5.09594 7.50235 4.74609 7.85212 4.74609 8.2836C4.74609 8.71508 5.09594 9.06485 5.52734 9.06485Z" fill="#00B857"/>
<path d="M22.5273 14.3774H35.0013C35.4327 14.3774 35.7826 14.0276 35.7826 13.5962C35.7826 13.1647 35.4327 12.8149 35.0013 12.8149H22.5273C22.0959 12.8149 21.7461 13.1647 21.7461 13.5962C21.7461 14.0276 22.0959 14.3774 22.5273 14.3774Z" fill="#00B857"/>
<path d="M22.5273 9.06491H35.0013C35.4327 9.06491 35.7826 8.71515 35.7826 8.28366C35.7826 7.85218 35.4327 7.50241 35.0013 7.50241H22.5273C22.0959 7.50241 21.7461 7.85218 21.7461 8.28366C21.7461 8.71515 22.0959 9.06491 22.5273 9.06491Z" fill="#00B857"/>
<path d="M5 19.6899H35C35.4314 19.6899 35.7812 19.3401 35.7812 18.9087C35.7812 18.4772 35.4314 18.1274 35 18.1274H5C4.56859 18.1274 4.21875 18.4772 4.21875 18.9087C4.21875 19.3401 4.56859 19.6899 5 19.6899Z" fill="#00B857"/>
<path d="M20.0039 3.12271C20.2094 3.12271 20.4109 3.03912 20.5563 2.8938C20.7023 2.74849 20.7852 2.54693 20.7852 2.34146C20.7852 2.13521 20.7023 1.93443 20.5563 1.78912C20.4109 1.64302 20.2102 1.56021 20.0039 1.56021C19.7984 1.56021 19.5969 1.64302 19.4516 1.78912C19.3063 1.93443 19.2227 2.13521 19.2227 2.34146C19.2227 2.54693 19.3063 2.74849 19.4516 2.8938C19.5969 3.03912 19.7984 3.12271 20.0039 3.12271Z" fill="#00B857"/>
</g>
<defs>
<clipPath id="clip0">
<rect width="40" height="40" fill="white"/>
</clipPath>
</defs>
</svg>
