<svg width="41" height="41" viewBox="0 0 41 41" fill="none" xmlns="http://www.w3.org/2000/svg">
<g clip-path="url(#clip0)">
<path d="M40.921 22.3938C40.5528 18.6911 38.8986 15.2004 36.2629 12.5646C34.0104 10.3122 31.2535 8.86476 28.3525 8.22116V6.1865C29.5374 5.89173 30.4181 4.81923 30.4181 3.54445C30.4181 2.04312 29.1967 0.821747 27.6954 0.821747H21.9297C20.4283 0.821747 19.207 2.04312 19.207 3.54445C19.207 4.81915 20.0877 5.89165 21.2724 6.1865V8.22685C18.3804 8.87317 15.6325 10.3186 13.3865 12.5647C12.8949 13.0562 12.4417 13.5718 12.0268 14.1077C12.0067 14.1062 11.9866 14.1047 11.9661 14.1047H6.25956C5.81737 14.1047 5.45877 14.4632 5.45877 14.9055C5.45877 15.3477 5.81737 15.7063 6.25956 15.7063H10.9372C10.35 16.6892 9.87659 17.7215 9.51623 18.7842H0.800794C0.358595 18.7842 0 19.1427 0 19.585C0 20.0273 0.358595 20.3858 0.800794 20.3858H9.0637C8.83291 21.3989 8.70046 22.4299 8.66627 23.4638H5.12508C4.68288 23.4638 4.32429 23.8223 4.32429 24.2646C4.32429 24.7069 4.68288 25.0654 5.12508 25.0654H8.69181C8.7594 26.1019 8.92605 27.133 9.19183 28.1434H4.00397C3.56177 28.1434 3.20317 28.5019 3.20317 28.9442C3.20317 29.3865 3.56177 29.745 4.00397 29.745H9.7029C10.4885 31.8231 11.7162 33.7709 13.3865 35.4412C16.0248 38.0795 19.5191 39.7341 23.2257 40.1003C23.7547 40.1525 24.2841 40.1784 24.8128 40.1784C27.9376 40.1784 31.0227 39.274 33.6405 37.5693C34.0112 37.3279 34.116 36.8318 33.8746 36.4612C33.6333 36.0906 33.1372 35.9858 32.7666 36.2272C27.0363 39.9586 19.3621 39.1518 14.519 34.3087C8.83636 28.6261 8.83636 19.3799 14.519 13.6972C20.2015 8.01472 29.4477 8.01472 35.1303 13.6972C39.9671 18.534 40.7783 26.2017 37.0591 31.9291C36.8183 32.3001 36.9237 32.7961 37.2946 33.0369C37.6657 33.2778 38.1615 33.1723 38.4023 32.8014C40.3894 29.7411 41.2839 26.0451 40.921 22.3938ZM20.8085 3.54453C20.8085 2.92631 21.3114 2.42341 21.9297 2.42341H27.6954C28.3136 2.42341 28.8165 2.92631 28.8165 3.54453C28.8165 4.16274 28.3136 4.66564 27.6954 4.66564H27.5517H22.0732H21.9297C21.3114 4.66564 20.8085 4.16266 20.8085 3.54453ZM22.874 7.95153V6.26722H26.7509V7.94865C25.4636 7.79554 24.1611 7.7965 22.874 7.95153Z" fill="#00B857"/>
<path d="M35.6953 34.0738C35.4839 34.0738 35.2781 34.1594 35.1292 34.3084C34.9795 34.4573 34.8945 34.6639 34.8945 34.8745C34.8945 35.0851 34.9795 35.2917 35.1292 35.4407C35.2781 35.5904 35.484 35.6753 35.6953 35.6753C35.9059 35.6753 36.1117 35.5904 36.2615 35.4407C36.4104 35.2917 36.4961 35.0851 36.4961 34.8745C36.4961 34.6639 36.4105 34.4573 36.2615 34.3084C36.1117 34.1594 35.9058 34.0738 35.6953 34.0738Z" fill="#00B857"/>
<path d="M24.825 11.5801C17.9751 11.5801 12.4023 17.1529 12.4023 24.0028C12.4023 30.8527 17.9751 36.4254 24.825 36.4254C31.6748 36.4254 37.2476 30.8527 37.2476 24.0028C37.2476 17.1529 31.6748 11.5801 24.825 11.5801ZM24.825 34.8238C18.8582 34.8238 14.0039 29.9695 14.0039 24.0028C14.0039 18.0361 18.8582 13.1817 24.825 13.1817C30.7918 13.1817 35.646 18.0361 35.646 24.0028C35.646 29.9695 30.7918 34.8238 24.825 34.8238Z" fill="#00B857"/>
<path d="M29.8889 17.8048L25.9226 21.7711C25.5909 21.6071 25.2178 21.5144 24.8234 21.5144C24.4289 21.5144 24.0559 21.6071 23.7242 21.7711L21.9491 19.9959C21.6363 19.6832 21.1294 19.6832 20.8166 19.9959C20.5039 20.3087 20.5039 20.8157 20.8166 21.1284L22.5917 22.9036C22.4276 23.2352 22.335 23.6083 22.335 24.0027C22.335 25.3748 23.4513 26.4911 24.8234 26.4911C26.1956 26.4911 27.3118 25.3748 27.3118 24.0027C27.3118 23.6083 27.2191 23.2352 27.0551 22.9036L30.905 19.0537L31.0214 18.9373C31.3341 18.6246 31.3341 18.1175 31.0214 17.8048C30.7087 17.4921 30.2018 17.4921 29.8889 17.8048ZM24.8234 24.8896C24.3345 24.8896 23.9366 24.4918 23.9366 24.0028C23.9366 23.5138 24.3345 23.116 24.8234 23.116C25.3124 23.116 25.7102 23.5138 25.7102 24.0028C25.7102 24.4918 25.3124 24.8896 24.8234 24.8896Z" fill="#00B857"/>
<path d="M33.3865 23.2118H32.6445C32.2023 23.2118 31.8438 23.5703 31.8438 24.0126C31.8438 24.4549 32.2023 24.8134 32.6445 24.8134H33.3865C33.8286 24.8134 34.1872 24.4549 34.1872 24.0126C34.1872 23.5703 33.8286 23.2118 33.3865 23.2118Z" fill="#00B857"/>
<path d="M17.0036 23.1922H16.2617C15.8195 23.1922 15.4609 23.5507 15.4609 23.993C15.4609 24.4353 15.8195 24.7938 16.2617 24.7938H17.0036C17.4458 24.7938 17.8043 24.4353 17.8043 23.993C17.8043 23.5507 17.4458 23.1922 17.0036 23.1922Z" fill="#00B857"/>
<path d="M24.8359 16.9835C25.2781 16.9835 25.6367 16.625 25.6367 16.1827V15.4409C25.6367 14.9986 25.2781 14.6401 24.8359 14.6401C24.3937 14.6401 24.0352 14.9986 24.0352 15.4409V16.1827C24.0352 16.625 24.3937 16.9835 24.8359 16.9835Z" fill="#00B857"/>
<path d="M24.8164 31.0222C24.3742 31.0222 24.0156 31.3807 24.0156 31.823V32.5648C24.0156 33.0071 24.3742 33.3656 24.8164 33.3656C25.2586 33.3656 25.6172 33.0071 25.6172 32.5648V31.823C25.6172 31.3807 25.2586 31.0222 24.8164 31.0222Z" fill="#00B857"/>
<path d="M0.800781 28.1431C0.590176 28.1431 0.383574 28.2287 0.234629 28.3777C0.0856836 28.5266 0 28.7332 0 28.9438C0 29.1553 0.0856035 29.3611 0.234629 29.51C0.383654 29.6589 0.590176 29.7446 0.800781 29.7446C1.01139 29.7446 1.21799 29.6589 1.36685 29.51C1.5158 29.3611 1.60156 29.1545 1.60156 28.9438C1.60156 28.7332 1.51588 28.5266 1.36685 28.3777C1.21799 28.2287 1.01139 28.1431 0.800781 28.1431Z" fill="#00B857"/>
</g>
<defs>
<clipPath id="clip0">
<rect width="41" height="41" fill="white"/>
</clipPath>
</defs>
</svg>
