<svg width="41" height="41" viewBox="0 0 41 41" fill="none" xmlns="http://www.w3.org/2000/svg">
<path d="M39.6333 39.6333V37.5833V32.1167C39.6333 31.7393 39.3274 31.4333 38.95 31.4333H38.2667V29.3833C38.2667 29.006 37.9607 28.7 37.5833 28.7H36.4012C38.6727 26.7112 38.9017 23.2574 36.9129 20.9859C34.9241 18.7144 31.4703 18.4853 29.1988 20.4742C26.9273 22.463 26.6982 25.9168 28.6871 28.1883C28.8461 28.37 29.0172 28.541 29.1988 28.7H28.0167C27.6393 28.7 27.3333 29.006 27.3333 29.3833V32.1167C27.3333 32.494 27.6393 32.8 28.0167 32.8H28.7V39.6333H25.9667V38.2667H26.65C27.0274 38.2667 27.3333 37.9607 27.3333 37.5833V34.85C27.3333 34.4726 27.0274 34.1667 26.65 34.1667H25.9667V29.3833C25.9667 29.006 25.6607 28.7 25.2833 28.7H24.6V27.3333H25.2833C25.6607 27.3333 25.9667 27.0274 25.9667 26.65V23.9167C25.9667 23.5393 25.6607 23.2333 25.2833 23.2333H24.6V21.8667H25.2833C25.6607 21.8667 25.9667 21.5607 25.9667 21.1833V18.45C25.9667 18.0726 25.6607 17.7667 25.2833 17.7667H21.1833V15.0333H21.8667C26.018 15.0333 29.3833 11.668 29.3833 7.51667C29.3833 7.1393 29.0774 6.83333 28.7 6.83333H27.3333C24.8823 6.83718 22.5871 8.03574 21.1833 10.045V6.15H21.8667C24.8858 6.15 27.3333 3.70247 27.3333 0.683333C27.3333 0.305962 27.0274 0 26.65 0H25.2833C23.2928 0.00179375 21.4604 1.08547 20.5 2.829C19.5396 1.08547 17.7073 0.00179375 15.7167 0H14.35C13.9726 0 13.6667 0.305962 13.6667 0.683333C13.6667 3.70247 16.1142 6.15 19.1333 6.15H19.8167V10.045C18.4129 8.03574 16.1177 6.83718 13.6667 6.83333H12.3C11.9226 6.83333 11.6167 7.1393 11.6167 7.51667C11.6167 11.668 14.982 15.0333 19.1333 15.0333H19.8167V17.7667H15.7167C15.3393 17.7667 15.0333 18.0726 15.0333 18.45V20.5H14.35C13.9726 20.5 13.6667 20.806 13.6667 21.1833V23.9167C13.6667 24.294 13.9726 24.6 14.35 24.6H15.0333V25.9667H14.35C13.9726 25.9667 13.6667 26.2726 13.6667 26.65V29.3833C13.6667 29.7607 13.9726 30.0667 14.35 30.0667H15.0333V34.85C15.0333 35.2274 15.3393 35.5333 15.7167 35.5333H16.4V36.9H15.7167C15.3393 36.9 15.0333 37.206 15.0333 37.5833V39.6333H13.6667V37.5833C13.6667 37.206 13.3607 36.9 12.9833 36.9H12.3V35.5333H12.9833C13.3607 35.5333 13.6667 35.2274 13.6667 34.85V32.1167C13.6667 31.7393 13.3607 31.4333 12.9833 31.4333H12.3V26.65C12.3 26.2726 11.994 25.9667 11.6167 25.9667H2.05C1.67263 25.9667 1.36667 26.2726 1.36667 26.65V32.1167C1.36667 32.494 1.67263 32.8 2.05 32.8H2.73333V34.1667H2.05C1.67263 34.1667 1.36667 34.4726 1.36667 34.85V37.5833C1.36667 37.9607 1.67263 38.2667 2.05 38.2667H2.73333V39.6333H0V41H41V39.6333H39.6333ZM27.3333 8.2H27.9757C27.6278 11.3116 24.9977 13.6652 21.8667 13.6667H21.2243C21.5722 10.555 24.2023 8.20145 27.3333 8.2ZM25.2833 1.36667H25.912C25.5784 3.34039 23.8683 4.78461 21.8667 4.78333H21.238C21.5716 2.80961 23.2817 1.36539 25.2833 1.36667ZM19.1333 4.78333C17.1317 4.78461 15.4216 3.34039 15.088 1.36667H15.7167C17.7183 1.36539 19.4284 2.80961 19.762 4.78333H19.1333ZM19.1333 13.6667C16.0023 13.6652 13.3722 11.3116 13.0243 8.2H13.6667C16.7977 8.20145 19.4278 10.555 19.7757 13.6667H19.1333ZM12.3 32.8V34.1667H4.1V32.8H12.3ZM2.73333 27.3333H10.9333V28.7H2.73333V27.3333ZM2.73333 30.0667H10.9333V31.4333H2.73333V30.0667ZM2.73333 35.5333H10.9333V36.9H2.73333V35.5333ZM12.3 39.6333H4.1V38.2667H12.3V39.6333ZM25.9667 35.5333V36.9H17.7667V35.5333H25.9667ZM24.6 32.8V34.1667H16.4V32.8H24.6ZM16.4 31.4333V30.0667H23.9167H24.6V31.4333H16.4ZM24.6 25.9667H16.4V24.6H24.6V25.9667ZM16.4 19.1333H24.6V20.5H16.4V19.1333ZM15.0333 21.8667H23.2333V23.2333H15.0333V21.8667ZM15.0333 28.7V27.3333H23.2333V28.7H15.0333ZM24.6 39.6333H16.4V38.2667H24.6V39.6333ZM28.7 24.6C28.7 22.3356 30.5356 20.5 32.8 20.5C35.0644 20.5 36.9 22.3356 36.9 24.6C36.9 26.8644 35.0644 28.7 32.8 28.7C30.5356 28.7 28.7 26.8644 28.7 24.6ZM28.7 30.0667H36.9V31.4333H28.7V30.0667ZM38.2667 39.6333H30.0667V38.2667H38.2667V39.6333ZM38.2667 36.9H30.0667V35.5333H38.2667V36.9ZM38.2667 34.1667H30.0667V32.8H37.5833H38.2667V34.1667Z" fill="#00B857"/>
<path d="M34.1665 24.6C34.1665 25.3549 33.5546 25.9667 32.7998 25.9667V27.3334C34.3094 27.3334 35.5331 26.1096 35.5331 24.6H34.1665Z" fill="#00B857"/>
<path d="M30.0674 24.6001H31.434C31.434 23.8453 32.0459 23.2334 32.8007 23.2334V21.8668C31.2911 21.8668 30.0674 23.0905 30.0674 24.6001Z" fill="#00B857"/>
<path d="M37.0083 4.10002C35.9037 3.91057 35.0384 3.0453 34.849 1.94069C34.849 1.56332 34.543 1.25735 34.1656 1.25735C33.7883 1.25735 33.4823 1.56332 33.4823 1.94069C33.2929 3.0453 32.4276 3.91057 31.323 4.10002C30.9456 4.10002 30.6396 4.40598 30.6396 4.78335C30.6396 5.16073 30.9456 5.46669 31.323 5.46669C32.4276 5.65614 33.2929 6.52141 33.4823 7.62602C33.4823 8.00339 33.7883 8.30935 34.1656 8.30935C34.543 8.30935 34.849 8.00339 34.849 7.62602C35.0384 6.52141 35.9037 5.65614 37.0083 5.46669C37.3857 5.46669 37.6916 5.16073 37.6916 4.78335C37.6916 4.40598 37.3857 4.10002 37.0083 4.10002ZM34.1656 5.76052C33.9005 5.37931 33.5697 5.04849 33.1885 4.78335C33.5697 4.51822 33.9005 4.1874 34.1656 3.80619C34.4308 4.1874 34.7616 4.51822 35.1428 4.78335C34.7616 5.04849 34.4308 5.37931 34.1656 5.76052Z" fill="#00B857"/>
<path d="M9.67629 19.1332C8.57168 18.9438 7.70641 18.0785 7.51696 16.9739C7.51696 16.5965 7.21099 16.2906 6.83362 16.2906C6.45625 16.2906 6.15029 16.5965 6.15029 16.9739C5.96083 18.0785 5.09556 18.9438 3.99095 19.1332C3.61358 19.1332 3.30762 19.4392 3.30762 19.8166C3.30762 20.1939 3.61358 20.4999 3.99095 20.4999C5.09556 20.6894 5.96083 21.5546 6.15029 22.6592C6.15029 23.0366 6.45625 23.3426 6.83362 23.3426C7.21099 23.3426 7.51696 23.0366 7.51696 22.6592C7.70641 21.5546 8.57168 20.6894 9.67629 20.4999C10.0537 20.4999 10.3596 20.1939 10.3596 19.8166C10.3596 19.4392 10.0537 19.1332 9.67629 19.1332ZM6.83362 20.7937C6.56849 20.4125 6.23767 20.0817 5.85645 19.8166C6.23767 19.5514 6.56849 19.2206 6.83362 18.8394C7.09875 19.2206 7.42957 19.5514 7.81079 19.8166C7.42957 20.0817 7.09875 20.4125 6.83362 20.7937Z" fill="#00B857"/>
<path d="M38.9499 16.4V14.35H37.5832V16.4H35.5332V17.7667H37.5832V19.8167H38.9499V17.7667H40.9999V16.4H38.9499Z" fill="#00B857"/>
<path d="M10.934 12.3001V11.6168H9.56738V12.3001C9.56738 14.5645 11.403 16.4001 13.6674 16.4001V15.0334C12.1578 15.0334 10.934 13.8097 10.934 12.3001Z" fill="#00B857"/>
</svg>
