<svg width="22" height="22" viewBox="0 0 22 22" fill="none" xmlns="http://www.w3.org/2000/svg">
<path d="M13.0625 18.9062H4.125C4.03383 18.9062 3.9464 18.9425 3.88193 19.0069C3.81747 19.0714 3.78125 19.1588 3.78125 19.25V20.2812C3.78125 20.3724 3.81747 20.4599 3.88193 20.5243C3.9464 20.5888 4.03383 20.625 4.125 20.625H13.0625C13.1537 20.625 13.2411 20.5888 13.3056 20.5243C13.37 20.4599 13.4062 20.3724 13.4062 20.2812V19.25C13.4062 19.1588 13.37 19.0714 13.3056 19.0069C13.2411 18.9425 13.1537 18.9062 13.0625 18.9062ZM12.7188 19.9375H4.46875V19.5938H12.7188V19.9375Z" fill="white"/>
<path d="M6.53125 16.8438C6.44008 16.8438 6.35265 16.88 6.28818 16.9444C6.22372 17.0089 6.1875 17.0963 6.1875 17.1875V18.2188C6.1875 18.3099 6.22372 18.3974 6.28818 18.4618C6.35265 18.5263 6.44008 18.5625 6.53125 18.5625H7.90625C7.99742 18.5625 8.08485 18.5263 8.14932 18.4618C8.21378 18.3974 8.25 18.3099 8.25 18.2188V17.1875C8.25 17.0963 8.21378 17.0089 8.14932 16.9444C8.08485 16.88 7.99742 16.8438 7.90625 16.8438H6.53125ZM7.5625 17.875H6.875V17.5312H7.5625V17.875Z" fill="white"/>
<path d="M9.28125 16.8438C9.19008 16.8438 9.10265 16.88 9.03818 16.9444C8.97372 17.0089 8.9375 17.0963 8.9375 17.1875V18.2188C8.9375 18.3099 8.97372 18.3974 9.03818 18.4618C9.10265 18.5263 9.19008 18.5625 9.28125 18.5625H10.6562C10.7474 18.5625 10.8349 18.5263 10.8993 18.4618C10.9638 18.3974 11 18.3099 11 18.2188V17.1875C11 17.0963 10.9638 17.0089 10.8993 16.9444C10.8349 16.88 10.7474 16.8438 10.6562 16.8438H9.28125ZM10.3125 17.875H9.625V17.5312H10.3125V17.875Z" fill="white"/>
<path d="M3.09375 18.9062H1.71875C1.62758 18.9062 1.54015 18.9425 1.47568 19.0069C1.41122 19.0714 1.375 19.1588 1.375 19.25V20.2812C1.375 20.3724 1.41122 20.4599 1.47568 20.5243C1.54015 20.5888 1.62758 20.625 1.71875 20.625H3.09375C3.18492 20.625 3.27235 20.5888 3.33682 20.5243C3.40128 20.4599 3.4375 20.3724 3.4375 20.2812V19.25C3.4375 19.1588 3.40128 19.0714 3.33682 19.0069C3.27235 18.9425 3.18492 18.9062 3.09375 18.9062ZM2.75 19.9375H2.0625V19.5938H2.75V19.9375Z" fill="white"/>
<path d="M15.4688 18.9062H14.0938C14.0026 18.9062 13.9151 18.9425 13.8507 19.0069C13.7862 19.0714 13.75 19.1588 13.75 19.25V20.2812C13.75 20.3724 13.7862 20.4599 13.8507 20.5243C13.9151 20.5888 14.0026 20.625 14.0938 20.625H15.4688C15.5599 20.625 15.6474 20.5888 15.7118 20.5243C15.7763 20.4599 15.8125 20.3724 15.8125 20.2812V19.25C15.8125 19.1588 15.7763 19.0714 15.7118 19.0069C15.6474 18.9425 15.5599 18.9062 15.4688 18.9062ZM15.125 19.9375H14.4375V19.5938H15.125V19.9375Z" fill="white"/>
<path d="M5.15625 18.5625C5.24742 18.5625 5.33485 18.5263 5.39932 18.4618C5.46378 18.3974 5.5 18.3099 5.5 18.2188V17.1875C5.5 17.0963 5.46378 17.0089 5.39932 16.9444C5.33485 16.88 5.24742 16.8438 5.15625 16.8438H3.78125C3.69008 16.8438 3.60265 16.88 3.53818 16.9444C3.47372 17.0089 3.4375 17.0963 3.4375 17.1875V18.2188C3.4375 18.3099 3.47372 18.3974 3.53818 18.4618C3.60265 18.5263 3.69008 18.5625 3.78125 18.5625H5.15625ZM4.125 17.5312H4.8125V17.875H4.125V17.5312Z" fill="white"/>
<path d="M13.75 17.1875C13.75 17.0963 13.7138 17.0089 13.6493 16.9444C13.5849 16.88 13.4974 16.8438 13.4062 16.8438H12.0312C11.9401 16.8438 11.8526 16.88 11.7882 16.9444C11.7237 17.0089 11.6875 17.0963 11.6875 17.1875V18.2188C11.6875 18.3099 11.7237 18.3974 11.7882 18.4618C11.8526 18.5263 11.9401 18.5625 12.0312 18.5625H13.4062C13.4974 18.5625 13.5849 18.5263 13.6493 18.4618C13.7138 18.3974 13.75 18.3099 13.75 18.2188V17.1875ZM13.0625 17.875H12.375V17.5312H13.0625V17.875Z" fill="white"/>
<path d="M5.15625 16.5H6.53125C6.62242 16.5 6.70985 16.4638 6.77432 16.3993C6.83878 16.3349 6.875 16.2474 6.875 16.1562V15.125C6.875 15.0338 6.83878 14.9464 6.77432 14.8819C6.70985 14.8175 6.62242 14.7812 6.53125 14.7812H5.15625C5.06508 14.7812 4.97765 14.8175 4.91318 14.8819C4.84872 14.9464 4.8125 15.0338 4.8125 15.125V16.1562C4.8125 16.2474 4.84872 16.3349 4.91318 16.3993C4.97765 16.4638 5.06508 16.5 5.15625 16.5ZM5.5 15.4688H6.1875V15.8125H5.5V15.4688Z" fill="white"/>
<path d="M7.90625 16.5H9.28125C9.37242 16.5 9.45985 16.4638 9.52432 16.3993C9.58878 16.3349 9.625 16.2474 9.625 16.1562V15.125C9.625 15.0338 9.58878 14.9464 9.52432 14.8819C9.45985 14.8175 9.37242 14.7812 9.28125 14.7812H7.90625C7.81508 14.7812 7.72765 14.8175 7.66318 14.8819C7.59872 14.9464 7.5625 15.0338 7.5625 15.125V16.1562C7.5625 16.2474 7.59872 16.3349 7.66318 16.3993C7.72765 16.4638 7.81508 16.5 7.90625 16.5ZM8.25 15.4688H8.9375V15.8125H8.25V15.4688Z" fill="white"/>
<path d="M2.40625 16.5H3.78125C3.87242 16.5 3.95985 16.4638 4.02432 16.3993C4.08878 16.3349 4.125 16.2474 4.125 16.1562V15.125C4.125 15.0338 4.08878 14.9464 4.02432 14.8819C3.95985 14.8175 3.87242 14.7812 3.78125 14.7812H2.40625C2.31508 14.7812 2.22765 14.8175 2.16318 14.8819C2.09872 14.9464 2.0625 15.0338 2.0625 15.125V16.1562C2.0625 16.2474 2.09872 16.3349 2.16318 16.3993C2.22765 16.4638 2.31508 16.5 2.40625 16.5ZM2.75 15.4688H3.4375V15.8125H2.75V15.4688Z" fill="white"/>
<path d="M10.6562 16.5H12.0312C12.1224 16.5 12.2099 16.4638 12.2743 16.3993C12.3388 16.3349 12.375 16.2474 12.375 16.1562V15.125C12.375 15.0338 12.3388 14.9464 12.2743 14.8819C12.2099 14.8175 12.1224 14.7812 12.0312 14.7812H10.6562C10.5651 14.7812 10.4776 14.8175 10.4132 14.8819C10.3487 14.9464 10.3125 15.0338 10.3125 15.125V16.1562C10.3125 16.2474 10.3487 16.3349 10.4132 16.3993C10.4776 16.4638 10.5651 16.5 10.6562 16.5ZM11 15.4688H11.6875V15.8125H11V15.4688Z" fill="white"/>
<path d="M13.4062 16.5H14.7812C14.8724 16.5 14.9599 16.4638 15.0243 16.3993C15.0888 16.3349 15.125 16.2474 15.125 16.1562V15.125C15.125 15.0338 15.0888 14.9464 15.0243 14.8819C14.9599 14.8175 14.8724 14.7812 14.7812 14.7812H13.4062C13.3151 14.7812 13.2276 14.8175 13.1632 14.8819C13.0987 14.9464 13.0625 15.0338 13.0625 15.125V16.1562C13.0625 16.2474 13.0987 16.3349 13.1632 16.3993C13.2276 16.4638 13.3151 16.5 13.4062 16.5ZM13.75 15.4688H14.4375V15.8125H13.75V15.4688Z" fill="white"/>
<path d="M15.6406 13.75H1.54688C1.2279 13.7504 0.92209 13.8772 0.696539 14.1028C0.470988 14.3283 0.344114 14.6341 0.34375 14.9531V20.4531C0.344114 20.7721 0.470988 21.0779 0.696539 21.3035C0.92209 21.529 1.2279 21.6559 1.54688 21.6562H15.6406C15.9596 21.6559 16.2654 21.529 16.491 21.3035C16.7165 21.0779 16.8434 20.7721 16.8438 20.4531V14.9531C16.8434 14.6341 16.7165 14.3283 16.491 14.1028C16.2654 13.8772 15.9596 13.7504 15.6406 13.75ZM16.1562 20.4531C16.1561 20.5898 16.1017 20.7209 16.0051 20.8176C15.9084 20.9142 15.7773 20.9686 15.6406 20.9688H1.54688C1.41017 20.9686 1.2791 20.9142 1.18244 20.8176C1.08577 20.7209 1.0314 20.5898 1.03125 20.4531V14.9531C1.0314 14.8164 1.08577 14.6854 1.18244 14.5887C1.2791 14.492 1.41017 14.4376 1.54688 14.4375H15.6406C15.7773 14.4376 15.9084 14.492 16.0051 14.5887C16.1017 14.6854 16.1561 14.8164 16.1562 14.9531V20.4531Z" fill="white"/>
<path d="M19.5938 14.7812C19.0469 14.7818 18.5227 14.9993 18.136 15.386C17.7493 15.7727 17.5318 16.2969 17.5312 16.8438V18.9062C17.5313 19.4533 17.7485 19.9779 18.1353 20.3647C18.5221 20.7515 19.0467 20.9688 19.5938 20.9688C20.1408 20.9688 20.6654 20.7515 21.0522 20.3647C21.439 19.9779 21.6562 19.4533 21.6562 18.9062V16.8438C21.6557 16.2969 21.4382 15.7727 21.0515 15.386C20.6648 14.9993 20.1406 14.7818 19.5938 14.7812ZM19.9375 15.5121C20.1752 15.574 20.392 15.6982 20.5656 15.8719C20.7393 16.0455 20.8635 16.2623 20.9254 16.5H19.9375V15.5121ZM19.25 15.5121V16.5H18.2621C18.324 16.2623 18.4482 16.0455 18.6219 15.8719C18.7955 15.6982 19.0123 15.574 19.25 15.5121ZM20.9688 18.9062C20.9688 19.2709 20.8239 19.6207 20.566 19.8785C20.3082 20.1364 19.9584 20.2812 19.5938 20.2812C19.2291 20.2812 18.8793 20.1364 18.6215 19.8785C18.3636 19.6207 18.2188 19.2709 18.2188 18.9062V17.1875H20.9688V18.9062Z" fill="white"/>
<path d="M19.4219 0.34375H2.57812C2.25914 0.344103 1.95333 0.470973 1.72778 0.696527C1.50222 0.92208 1.37535 1.22789 1.375 1.54688V11.5156C1.37535 11.8346 1.50222 12.1404 1.72778 12.366C1.95333 12.5915 2.25914 12.7184 2.57812 12.7188H3.09375V13.0625C3.09375 13.1537 3.12997 13.2411 3.19443 13.3056C3.2589 13.37 3.34633 13.4062 3.4375 13.4062C3.52867 13.4062 3.6161 13.37 3.68057 13.3056C3.74503 13.2411 3.78125 13.1537 3.78125 13.0625V12.7188H18.2188V13.0625C18.2188 13.1537 18.255 13.2411 18.3194 13.3056C18.3839 13.37 18.4713 13.4062 18.5625 13.4062C18.6537 13.4062 18.7411 13.37 18.8056 13.3056C18.87 13.2411 18.9062 13.1537 18.9062 13.0625V12.7188H19.4219C19.7409 12.7184 20.0467 12.5915 20.2722 12.366C20.4978 12.1404 20.6246 11.8346 20.625 11.5156V1.54688C20.6246 1.22789 20.4978 0.92208 20.2722 0.696527C20.0467 0.470973 19.7409 0.344103 19.4219 0.34375ZM19.9375 11.5156C19.9374 11.6523 19.883 11.7834 19.7864 11.8801C19.6897 11.9768 19.5586 12.0311 19.4219 12.0312H2.57812C2.44141 12.0311 2.31032 11.9768 2.21365 11.8801C2.11697 11.7834 2.06261 11.6523 2.0625 11.5156V10.6562H19.9375V11.5156ZM19.9375 9.96875H2.0625V1.54688C2.06261 1.41016 2.11697 1.27907 2.21365 1.1824C2.31032 1.08572 2.44141 1.03136 2.57812 1.03125H19.4219C19.5586 1.03136 19.6897 1.08572 19.7864 1.1824C19.883 1.27907 19.9374 1.41016 19.9375 1.54688V9.96875Z" fill="white"/>
</svg>
