<svg width="22" height="22" viewBox="0 0 22 22" fill="none" xmlns="http://www.w3.org/2000/svg">
<path d="M5.5495 4.40493L5.4373 4.38989L5.3372 4.43976L0.203867 7.00643L0 7.10836V15.2766L0.2222 15.3719L2.7225 16.4433L5.445 17.6101L22 15.7291V6.64819L5.5495 4.40493ZM2.2 15.4218L0.733333 14.7933V7.56156L2.2 6.82823V15.4218ZM5.13333 16.6787L2.93333 15.736V6.46156L5.13333 5.36156V16.6787ZM21.2667 15.0742L5.86667 16.8243V5.18813L21.2667 7.28839V15.0742Z" fill="white"/>
<path d="M1.46628 9.53497C1.26378 9.53497 1.09961 9.69915 1.09961 9.90164V12.4683C1.09961 12.6708 1.26378 12.835 1.46628 12.835C1.66877 12.835 1.83294 12.6708 1.83294 12.4683V9.90164C1.83294 9.69915 1.66877 9.53497 1.46628 9.53497Z" fill="white"/>
<path d="M4.03268 9.53497C3.83019 9.53497 3.66602 9.69915 3.66602 9.90164V12.835C3.66602 13.0375 3.83019 13.2016 4.03268 13.2016C4.23517 13.2016 4.39935 13.0375 4.39935 12.835V9.90164C4.39935 9.69915 4.23517 9.53497 4.03268 9.53497Z" fill="white"/>
<path d="M20.2066 7.70385L7.00661 6.23718C6.80536 6.21491 6.62413 6.36001 6.60186 6.56127C6.60039 6.57465 6.59961 6.58813 6.59961 6.60165V15.4016C6.59961 15.5042 6.64256 15.6021 6.71804 15.6715C6.78574 15.7338 6.87433 15.7683 6.96628 15.7683C6.97641 15.7689 6.98658 15.7689 6.99671 15.7683L20.1967 14.6683C20.3872 14.6525 20.5336 14.4928 20.5329 14.3016V8.06831C20.5329 7.88141 20.3924 7.72443 20.2066 7.70385ZM8.79961 14.881L7.33294 15.0031V7.01121L8.79961 7.17438V14.881ZM10.9996 14.6976L9.53294 14.8197V7.25578L10.9996 7.41858V14.6976ZM13.1996 14.5143L11.7329 14.6364V7.50035L13.1996 7.66315V14.5143ZM15.3996 14.331L13.9329 14.4531V7.74308L15.3996 7.90625V14.331ZM17.5996 14.1476L16.1329 14.2697V7.98765L17.5996 8.15081V14.1476ZM19.7996 13.9643L18.3329 14.0864V8.23368L19.7996 8.39685V13.9643Z" fill="white"/>
</svg>
