<svg width="22" height="22" viewBox="0 0 22 22" fill="none" xmlns="http://www.w3.org/2000/svg">
<path d="M21.3125 4.8125H15.1104C15.0243 3.78157 14.5539 2.82064 13.7926 2.12022C13.0313 1.41981 12.0345 1.03107 11 1.03107C9.96548 1.03107 8.96874 1.41981 8.2074 2.12022C7.44605 2.82064 6.9757 3.78157 6.88961 4.8125H5.5C5.40883 4.8125 5.3214 4.84871 5.25693 4.91318C5.19247 4.97765 5.15625 5.06508 5.15625 5.15625V10.8479L3.98277 12.0312H0.6875C0.596332 12.0312 0.508898 12.0675 0.444432 12.1319C0.379966 12.1964 0.34375 12.2838 0.34375 12.375V18.2187C0.34375 18.3099 0.379966 18.3973 0.444432 18.4618C0.508898 18.5263 0.596332 18.5625 0.6875 18.5625H3.98277L4.5693 19.1494C4.63384 19.2139 4.72131 19.25 4.8125 19.25H5.15625V20.9687C5.15625 21.0599 5.19247 21.1473 5.25693 21.2118C5.3214 21.2763 5.40883 21.3125 5.5 21.3125H21.3125C21.4037 21.3125 21.4911 21.2763 21.5556 21.2118C21.62 21.1473 21.6562 21.0599 21.6562 20.9687V5.15625C21.6562 5.06508 21.62 4.97765 21.5556 4.91318C21.4911 4.84871 21.4037 4.8125 21.3125 4.8125ZM15.4688 5.5V11.4387L13.5768 10.3576C13.5248 10.328 13.4661 10.3125 13.4062 10.3125C13.3464 10.3125 13.2877 10.328 13.2357 10.3576L11.3438 11.4387V9.26664C12.3151 9.18416 13.226 8.76083 13.9153 8.07152C14.6046 7.38221 15.0279 6.47133 15.1104 5.5H15.4688ZM11 1.71875C11.6799 1.71875 12.3445 1.92035 12.9098 2.29807C13.4751 2.67579 13.9157 3.21265 14.1758 3.84077C14.436 4.46889 14.5041 5.16006 14.3714 5.82687C14.2388 6.49368 13.9114 7.10618 13.4307 7.58693C12.9499 8.06767 12.3374 8.39506 11.6706 8.5277C11.0038 8.66033 10.3126 8.59226 9.68453 8.33208C9.05641 8.07191 8.51954 7.63131 8.14182 7.06602C7.76411 6.50073 7.5625 5.83612 7.5625 5.15625C7.56356 4.24489 7.92606 3.37116 8.57049 2.72674C9.21492 2.08231 10.0886 1.71981 11 1.71875ZM1.03125 12.7187H4.125C4.21619 12.7188 4.30366 12.6826 4.3682 12.6182L5.15625 11.828V12.5666L3.98277 13.75H1.03125V12.7187ZM4.95473 18.5625L4.3682 17.9755C4.30366 17.9111 4.21619 17.875 4.125 17.875H1.03125V14.4375H4.125C4.21619 14.4375 4.30366 14.4014 4.3682 14.337L6.66016 12.0179C6.72462 11.9535 6.81202 11.9173 6.90314 11.9173C6.99427 11.9173 7.08167 11.9535 7.14613 12.0179C7.1781 12.0497 7.20347 12.0876 7.2208 12.1292C7.23813 12.1709 7.24707 12.2155 7.24711 12.2606C7.24715 12.3057 7.23829 12.3504 7.22104 12.3921C7.20378 12.4337 7.17847 12.4716 7.14656 12.5035C7.14441 12.5061 7.14227 12.5082 7.14012 12.5103L6.51492 13.1695C6.46861 13.2182 6.43762 13.2795 6.42577 13.3457C6.41392 13.4119 6.42174 13.4801 6.44827 13.5419C6.47479 13.6036 6.51886 13.6563 6.575 13.6933C6.63114 13.7303 6.6969 13.75 6.76414 13.75H10.6562C10.7474 13.75 10.8349 13.7862 10.8993 13.8507C10.9638 13.9151 11 14.0026 11 14.0937C11 14.1849 10.9638 14.2723 10.8993 14.3368C10.8349 14.4013 10.7474 14.4375 10.6562 14.4375H7.90625C7.81508 14.4375 7.72765 14.4737 7.66318 14.5382C7.59872 14.6026 7.5625 14.6901 7.5625 14.7812C7.5625 14.8724 7.59872 14.9598 7.66318 15.0243C7.72765 15.0888 7.81508 15.125 7.90625 15.125H12.0312C12.0764 15.1249 12.1211 15.1338 12.1629 15.151C12.2046 15.1683 12.2425 15.1936 12.2745 15.2255C12.3064 15.2575 12.3317 15.2954 12.349 15.3371C12.3662 15.3789 12.3751 15.4236 12.375 15.4687C12.3749 15.5599 12.3386 15.6472 12.2742 15.7117C12.2097 15.7761 12.1224 15.8124 12.0312 15.8125H7.90625C7.81508 15.8125 7.72765 15.8487 7.66318 15.9132C7.59872 15.9776 7.5625 16.0651 7.5625 16.1562C7.5625 16.2474 7.59872 16.3348 7.66318 16.3993C7.72765 16.4638 7.81508 16.5 7.90625 16.5H10.6562C10.7474 16.5 10.8349 16.5362 10.8993 16.6007C10.9638 16.6651 11 16.7526 11 16.8437C11 16.9349 10.9638 17.0223 10.8993 17.0868C10.8349 17.1513 10.7474 17.1875 10.6562 17.1875H7.90625C7.81508 17.1875 7.72765 17.2237 7.66318 17.2882C7.59872 17.3526 7.5625 17.4401 7.5625 17.5312C7.5625 17.6224 7.59872 17.7098 7.66318 17.7743C7.72765 17.8388 7.81508 17.875 7.90625 17.875H9.96875C10.0599 17.875 10.1474 17.9112 10.2118 17.9757C10.2763 18.0401 10.3125 18.1276 10.3125 18.2187C10.3125 18.3099 10.2763 18.3973 10.2118 18.4618C10.1474 18.5263 10.0599 18.5625 9.96875 18.5625H4.95473ZM20.9688 20.625H5.84375V19.25H9.96875C10.137 19.25 10.3027 19.2089 10.4514 19.1302C10.6001 19.0515 10.7273 18.9375 10.8218 18.7984C10.9164 18.6592 10.9754 18.499 10.9938 18.3318C11.0122 18.1645 10.9894 17.9953 10.9274 17.8389C11.0642 17.8016 11.1919 17.7364 11.3024 17.6475C11.4129 17.5586 11.5039 17.4479 11.5697 17.3222C11.6355 17.1966 11.6747 17.0587 11.6849 16.9173C11.695 16.7758 11.6759 16.6337 11.6286 16.5H12.0312C12.3048 16.5 12.5671 16.3913 12.7605 16.1979C12.9538 16.0046 13.0625 15.7423 13.0625 15.4687C13.0625 15.1952 12.9538 14.9329 12.7605 14.7395C12.5671 14.5461 12.3048 14.4375 12.0312 14.4375H11.6286C11.6836 14.2819 11.7004 14.1155 11.6777 13.9521C11.655 13.7887 11.5934 13.6331 11.4982 13.4984C11.4029 13.3637 11.2768 13.2538 11.1303 13.178C10.9838 13.1021 10.8212 13.0625 10.6562 13.0625H7.56379L7.63555 12.9869C7.82591 12.7923 7.93164 12.5304 7.92968 12.2582C7.92772 11.986 7.81823 11.7256 7.62508 11.5339C7.43193 11.3421 7.17079 11.2344 6.89859 11.2344C6.6264 11.2344 6.36523 11.3419 6.17203 11.5337L5.84375 11.8675V5.5H6.88961C6.97209 6.47133 7.39542 7.38221 8.08473 8.07152C8.77404 8.76083 9.68491 9.18416 10.6562 9.26664V12.0312C10.6562 12.0915 10.672 12.1507 10.702 12.2029C10.7321 12.2551 10.7753 12.2985 10.8274 12.3287C10.8795 12.359 10.9386 12.375 10.9988 12.3752C11.0591 12.3754 11.1183 12.3598 11.1706 12.3299L13.4062 11.052L15.6419 12.3299C15.6942 12.3598 15.7534 12.3754 15.8137 12.3752C15.8739 12.375 15.933 12.359 15.9851 12.3287C16.0372 12.2985 16.0804 12.2551 16.1105 12.2029C16.1405 12.1507 16.1563 12.0915 16.1562 12.0312V5.5H20.9688V20.625Z" fill="white"/>
<path d="M15.4688 16.8438C15.3776 16.8438 15.2901 16.88 15.2257 16.9444C15.1612 17.0089 15.125 17.0963 15.125 17.1875V19.5938C15.125 19.6849 15.1612 19.7724 15.2257 19.8368C15.2901 19.9013 15.3776 19.9375 15.4688 19.9375H19.9375C20.0287 19.9375 20.1161 19.9013 20.1806 19.8368C20.245 19.7724 20.2812 19.6849 20.2812 19.5938V17.1875C20.2812 17.0963 20.245 17.0089 20.1806 16.9444C20.1161 16.88 20.0287 16.8438 19.9375 16.8438H15.4688ZM19.5938 19.25H15.8125V17.5313H19.5938V19.25Z" fill="white"/>
<path d="M9.075 5.77495L10.45 6.8062C10.5194 6.85822 10.6058 6.88211 10.692 6.87309C10.7782 6.86407 10.8579 6.82281 10.915 6.75756L13.3212 4.00756C13.3812 3.93895 13.4116 3.84929 13.4055 3.75832C13.3994 3.66735 13.3575 3.58252 13.2889 3.52249C13.2202 3.46245 13.1306 3.43213 13.0396 3.4382C12.9487 3.44427 12.8638 3.48623 12.8038 3.55484L10.6075 6.06491L9.4875 5.22495C9.45139 5.19787 9.41029 5.17816 9.36656 5.16696C9.32283 5.15575 9.27732 5.15327 9.23264 5.15966C9.18795 5.16604 9.14496 5.18116 9.10611 5.20416C9.06727 5.22716 9.03334 5.25759 9.00625 5.2937C8.97917 5.32982 8.95946 5.37091 8.94825 5.41464C8.93705 5.45837 8.93457 5.50388 8.94095 5.54857C8.94734 5.59325 8.96246 5.63625 8.98546 5.67509C9.00846 5.71393 9.03889 5.74787 9.075 5.77495Z" fill="white"/>
</svg>
