<svg width="40" height="40" viewBox="0 0 40 40" fill="none" xmlns="http://www.w3.org/2000/svg">
<path d="M38.75 8.74996H27.4734C27.3169 6.87555 26.4617 5.1284 25.0775 3.85492C23.6932 2.58144 21.8809 1.87463 20 1.87463C18.1191 1.87463 16.3068 2.58144 14.9225 3.85492C13.5383 5.1284 12.6831 6.87555 12.5266 8.74996H10C9.83424 8.74996 9.67527 8.81581 9.55806 8.93302C9.44085 9.05023 9.375 9.2092 9.375 9.37496V19.7234L7.24141 21.875H1.25C1.08424 21.875 0.925268 21.9408 0.808058 22.058C0.690848 22.1752 0.625 22.3342 0.625 22.5V33.125C0.625 33.2907 0.690848 33.4497 0.808058 33.5669C0.925268 33.6841 1.08424 33.75 1.25 33.75H7.24141L8.30781 34.8172C8.42516 34.9343 8.5842 35 8.75 35H9.375V38.125C9.375 38.2907 9.44085 38.4497 9.55806 38.5669C9.67527 38.6841 9.83424 38.75 10 38.75H38.75C38.9158 38.75 39.0747 38.6841 39.1919 38.5669C39.3092 38.4497 39.375 38.2907 39.375 38.125V9.37496C39.375 9.2092 39.3092 9.05023 39.1919 8.93302C39.0747 8.81581 38.9158 8.74996 38.75 8.74996ZM28.125 9.99996V20.7976L24.6852 18.832C24.5906 18.7782 24.4837 18.75 24.375 18.75C24.2663 18.75 24.1594 18.7782 24.0648 18.832L20.625 20.7976V16.8484C22.3911 16.6984 24.0472 15.9287 25.3005 14.6755C26.5538 13.4222 27.3235 11.766 27.4734 9.99996H28.125ZM20 3.12496C21.2361 3.12496 22.4445 3.49152 23.4723 4.17828C24.5001 4.86504 25.3012 5.84115 25.7742 6.98319C26.2473 8.12523 26.3711 9.3819 26.1299 10.5943C25.8888 11.8067 25.2935 12.9203 24.4194 13.7944C23.5453 14.6685 22.4317 15.2637 21.2193 15.5049C20.0069 15.746 18.7503 15.6223 17.6082 15.1492C16.4662 14.6762 15.4901 13.8751 14.8033 12.8473C14.1166 11.8195 13.75 10.6111 13.75 9.37496C13.7519 7.71795 14.411 6.12936 15.5827 4.95767C16.7544 3.78598 18.343 3.12689 20 3.12496ZM1.875 23.125H7.5C7.6658 23.125 7.82484 23.0593 7.94219 22.9422L9.375 21.5054V22.8484L7.24141 25H1.875V23.125ZM9.00859 33.75L7.94219 32.6828C7.82484 32.5657 7.6658 32.4999 7.5 32.5H1.875V26.25H7.5C7.6658 26.25 7.82484 26.1843 7.94219 26.0672L12.1094 21.8507C12.2266 21.7336 12.3855 21.6678 12.5512 21.6678C12.7169 21.6678 12.8758 21.7336 12.993 21.8507C13.0511 21.9086 13.0972 21.9774 13.1287 22.0531C13.1602 22.1288 13.1765 22.21 13.1766 22.292C13.1766 22.374 13.1605 22.4552 13.1292 22.531C13.0978 22.6068 13.0518 22.6756 12.9938 22.7336C12.9898 22.7382 12.9859 22.7421 12.982 22.7461L11.8453 23.9445C11.7611 24.0331 11.7048 24.1445 11.6832 24.2648C11.6617 24.3852 11.6759 24.5092 11.7241 24.6215C11.7724 24.7339 11.8525 24.8296 11.9545 24.8968C12.0566 24.9641 12.1762 25 12.2984 25H19.375C19.5408 25 19.6997 25.0658 19.8169 25.183C19.9342 25.3002 20 25.4592 20 25.625C20 25.7907 19.9342 25.9497 19.8169 26.0669C19.6997 26.1841 19.5408 26.25 19.375 26.25H14.375C14.2092 26.25 14.0503 26.3158 13.9331 26.433C13.8158 26.5502 13.75 26.7092 13.75 26.875C13.75 27.0407 13.8158 27.1997 13.9331 27.3169C14.0503 27.4341 14.2092 27.5 14.375 27.5H21.875C21.9571 27.4998 22.0384 27.5159 22.1143 27.5473C22.1902 27.5787 22.2591 27.6247 22.3172 27.6828C22.3753 27.7408 22.4213 27.8098 22.4527 27.8857C22.484 27.9615 22.5001 28.0429 22.5 28.125C22.4998 28.2907 22.4339 28.4495 22.3167 28.5667C22.1995 28.6838 22.0407 28.7497 21.875 28.75H14.375C14.2092 28.75 14.0503 28.8158 13.9331 28.933C13.8158 29.0502 13.75 29.2092 13.75 29.375C13.75 29.5407 13.8158 29.6997 13.9331 29.8169C14.0503 29.9341 14.2092 30 14.375 30H19.375C19.5408 30 19.6997 30.0658 19.8169 30.183C19.9342 30.3002 20 30.4592 20 30.625C20 30.7907 19.9342 30.9497 19.8169 31.0669C19.6997 31.1841 19.5408 31.25 19.375 31.25H14.375C14.2092 31.25 14.0503 31.3158 13.9331 31.433C13.8158 31.5502 13.75 31.7092 13.75 31.875C13.75 32.0407 13.8158 32.1997 13.9331 32.3169C14.0503 32.4341 14.2092 32.5 14.375 32.5H18.125C18.2908 32.5 18.4497 32.5658 18.5669 32.683C18.6842 32.8002 18.75 32.9592 18.75 33.125C18.75 33.2907 18.6842 33.4497 18.5669 33.5669C18.4497 33.6841 18.2908 33.75 18.125 33.75H9.00859ZM38.125 37.5H10.625V35H18.125C18.4309 35 18.7322 34.9253 19.0026 34.7821C19.2729 34.639 19.5041 34.4319 19.676 34.1788C19.848 33.9258 19.9553 33.6345 19.9888 33.3304C20.0222 33.0263 19.9808 32.7187 19.868 32.4343C20.1168 32.3664 20.3489 32.248 20.5498 32.0864C20.7508 31.9247 20.9162 31.7234 21.0359 31.495C21.1555 31.2665 21.2268 31.0158 21.2452 30.7586C21.2636 30.5014 21.2288 30.2431 21.143 30H21.875C22.3723 30 22.8492 29.8024 23.2008 29.4508C23.5525 29.0992 23.75 28.6222 23.75 28.125C23.75 27.6277 23.5525 27.1508 23.2008 26.7991C22.8492 26.4475 22.3723 26.25 21.875 26.25H21.143C21.2429 25.9671 21.2734 25.6645 21.2322 25.3674C21.1909 25.0703 21.079 24.7874 20.9058 24.5425C20.7326 24.2977 20.5032 24.0979 20.2369 23.96C19.9705 23.8221 19.6749 23.75 19.375 23.75H13.7523L13.8828 23.6125C14.2289 23.2587 14.4212 22.7825 14.4176 22.2876C14.414 21.7927 14.215 21.3193 13.8638 20.9706C13.5126 20.6219 13.0378 20.4262 12.5429 20.4261C12.048 20.4261 11.5731 20.6217 11.2219 20.9703L10.625 21.5773V9.99996H12.5266C12.6765 11.766 13.4462 13.4222 14.6995 14.6755C15.9528 15.9287 17.6089 16.6984 19.375 16.8484V21.875C19.3749 21.9845 19.4037 22.0921 19.4583 22.187C19.5129 22.2819 19.5915 22.3608 19.6862 22.4158C19.7809 22.4708 19.8884 22.4999 19.9979 22.5003C20.1074 22.5007 20.2151 22.4723 20.3102 22.4179L24.375 20.0945L28.4398 22.4179C28.5349 22.4723 28.6426 22.5007 28.7521 22.5003C28.8616 22.4999 28.9691 22.4708 29.0638 22.4158C29.1585 22.3608 29.2371 22.2819 29.2917 22.187C29.3463 22.0921 29.3751 21.9845 29.375 21.875V9.99996H38.125V37.5Z" fill="#00B857"/>
<path d="M28.125 30.625C27.9592 30.625 27.8003 30.6908 27.6831 30.8081C27.5658 30.9253 27.5 31.0842 27.5 31.25V35.625C27.5 35.7908 27.5658 35.9497 27.6831 36.0669C27.8003 36.1842 27.9592 36.25 28.125 36.25H36.25C36.4158 36.25 36.5747 36.1842 36.6919 36.0669C36.8092 35.9497 36.875 35.7908 36.875 35.625V31.25C36.875 31.0842 36.8092 30.9253 36.6919 30.8081C36.5747 30.6908 36.4158 30.625 36.25 30.625H28.125ZM35.625 35H28.75V31.875H35.625V35Z" fill="#00B857"/>
<path d="M16.5 10.5L19 12.375C19.1261 12.4696 19.2833 12.513 19.44 12.4966C19.5968 12.4802 19.7416 12.4052 19.8454 12.2866L24.2204 7.28655C24.3295 7.1618 24.3847 6.99879 24.3736 6.83339C24.3626 6.668 24.2863 6.51375 24.1616 6.4046C24.0368 6.29545 23.8738 6.24032 23.7084 6.25136C23.543 6.26239 23.3888 6.33867 23.2796 6.46343L19.2863 11.0272L17.25 9.49999C17.1843 9.45075 17.1096 9.41492 17.0301 9.39455C16.9506 9.37418 16.8679 9.36967 16.7866 9.38127C16.7054 9.39288 16.6272 9.42038 16.5566 9.4622C16.4859 9.50401 16.4242 9.55933 16.375 9.62499C16.3258 9.69065 16.2899 9.76537 16.2696 9.84488C16.2492 9.92439 16.2447 10.0071 16.2563 10.0884C16.2679 10.1696 16.2954 10.2478 16.3372 10.3184C16.379 10.3891 16.4343 10.4507 16.5 10.5Z" fill="#00B857"/>
</svg>
