<svg width="22" height="22" viewBox="0 0 22 22" fill="none" xmlns="http://www.w3.org/2000/svg">
<path d="M21.3125 17.1875C21.4037 17.1875 21.4911 17.1513 21.5556 17.0868C21.62 17.0224 21.6562 16.9349 21.6562 16.8438V15.8125C21.6562 15.7213 21.62 15.6339 21.5556 15.5694C21.4911 15.505 21.4037 15.4688 21.3125 15.4688H19.3837L12.7305 9.37002C12.9165 9.08336 13.0283 8.75496 13.0558 8.41437C13.0833 8.07377 13.0257 7.73168 12.8882 7.41888C12.7506 7.10609 12.5375 6.8324 12.2679 6.62245C11.9983 6.4125 11.6807 6.27288 11.3438 6.21616V5.5H12.0312C12.1224 5.5 12.2099 5.46378 12.2743 5.39932C12.3388 5.33485 12.375 5.24742 12.375 5.15625V4.125H12.7188C12.8099 4.125 12.8974 4.08878 12.9618 4.02432C13.0263 3.95985 13.0625 3.87242 13.0625 3.78125V1.71875C13.0625 1.62758 13.0263 1.54015 12.9618 1.47568C12.8974 1.41122 12.8099 1.375 12.7188 1.375H9.28125C9.19008 1.375 9.10265 1.41122 9.03818 1.47568C8.97372 1.54015 8.9375 1.62758 8.9375 1.71875V3.78125C8.9375 3.87242 8.97372 3.95985 9.03818 4.02432C9.10265 4.08878 9.19008 4.125 9.28125 4.125H9.625V5.15625C9.625 5.24742 9.66122 5.33485 9.72568 5.39932C9.79015 5.46378 9.87758 5.5 9.96875 5.5H10.6562V6.53125C10.6562 6.62242 10.6925 6.70985 10.7569 6.77432C10.8214 6.83878 10.9088 6.875 11 6.875C11.2374 6.87489 11.4707 6.93626 11.6773 7.05313C11.8839 7.17 12.0567 7.3384 12.1789 7.5419C12.3011 7.74541 12.3685 7.97709 12.3746 8.21439C12.3806 8.45168 12.3251 8.68649 12.2134 8.89595L11.2323 7.99648C11.1689 7.93836 11.086 7.90612 11 7.90612C10.914 7.90612 10.8311 7.93836 10.7677 7.99648L9.78661 8.89582C9.68032 8.69716 9.6248 8.4753 9.625 8.25C9.625 8.15883 9.58878 8.0714 9.52432 8.00693C9.45985 7.94247 9.37242 7.90625 9.28125 7.90625C9.19008 7.90625 9.10265 7.94247 9.03818 8.00693C8.97372 8.0714 8.9375 8.15883 8.9375 8.25C8.93717 8.64764 9.05251 9.03679 9.26948 9.37002L2.61628 15.4688H0.6875C0.596332 15.4688 0.508898 15.505 0.444432 15.5694C0.379966 15.6339 0.34375 15.7213 0.34375 15.8125V16.8438C0.34375 16.9349 0.379966 17.0224 0.444432 17.0868C0.508898 17.1513 0.596332 17.1875 0.6875 17.1875H1.375V18.5625H0.6875C0.596332 18.5625 0.508898 18.5987 0.444432 18.6632C0.379966 18.7276 0.34375 18.8151 0.34375 18.9062V19.9375C0.34375 20.0287 0.379966 20.1161 0.444432 20.1806C0.508898 20.245 0.596332 20.2812 0.6875 20.2812H21.3125C21.4037 20.2812 21.4911 20.245 21.5556 20.1806C21.62 20.1161 21.6562 20.0287 21.6562 19.9375V18.9062C21.6562 18.8151 21.62 18.7276 21.5556 18.6632C21.4911 18.5987 21.4037 18.5625 21.3125 18.5625H20.625V17.1875H21.3125ZM9.625 2.0625H12.375V3.4375H9.625V2.0625ZM10.3125 4.125H11.6875V4.8125H10.3125V4.125ZM11 8.71634L11.7486 9.40251C11.5259 9.5477 11.2658 9.625 11 9.625C10.7342 9.625 10.4741 9.5477 10.2514 9.40251L11 8.71634ZM9.73423 9.8765C10.0957 10.1589 10.5413 10.3124 11 10.3124C11.4587 10.3124 11.9043 10.1589 12.2658 9.8765L18.3663 15.4688H3.6337L9.73423 9.8765ZM1.03125 16.1562H20.9688V16.5H1.03125V16.1562ZM20.9688 19.5938H1.03125V19.25H20.9688V19.5938ZM19.9375 18.5625H2.0625V17.1875H19.9375V18.5625Z" fill="white"/>
<path d="M2.75 18.2188H4.8125C4.90367 18.2188 4.9911 18.1825 5.05557 18.1181C5.12003 18.0536 5.15625 17.9662 5.15625 17.875C5.15625 17.7838 5.12003 17.6964 5.05557 17.6319C4.9911 17.5675 4.90367 17.5312 4.8125 17.5312H2.75C2.65883 17.5312 2.5714 17.5675 2.50693 17.6319C2.44247 17.6964 2.40625 17.7838 2.40625 17.875C2.40625 17.9662 2.44247 18.0536 2.50693 18.1181C2.5714 18.1825 2.65883 18.2188 2.75 18.2188Z" fill="white"/>
<path d="M5.84375 18.2188H6.1875C6.27867 18.2188 6.3661 18.1825 6.43057 18.1181C6.49503 18.0536 6.53125 17.9662 6.53125 17.875C6.53125 17.7838 6.49503 17.6964 6.43057 17.6319C6.3661 17.5675 6.27867 17.5312 6.1875 17.5312H5.84375C5.75258 17.5312 5.66515 17.5675 5.60068 17.6319C5.53622 17.6964 5.5 17.7838 5.5 17.875C5.5 17.9662 5.53622 18.0536 5.60068 18.1181C5.66515 18.1825 5.75258 18.2188 5.84375 18.2188Z" fill="white"/>
</svg>
