<svg width="41" height="41" viewBox="0 0 41 41" fill="none" xmlns="http://www.w3.org/2000/svg">
<g clip-path="url(#clip0)">
<path d="M39.7175 20.2266C38.3466 19.0968 36.1799 18.9999 34.7578 20.5261L31.2273 24.316C30.7709 22.849 29.4008 21.7809 27.7858 21.7809H21.4857C21.0076 21.7809 20.8475 21.5983 20.0171 20.9585C16.851 18.1984 12.0955 18.2072 8.93896 20.985L6.62326 23.0236C5.58233 22.4726 4.36682 22.459 3.3202 22.9819L0.664169 24.3096C0.0707897 24.6067 -0.169365 25.3281 0.126844 25.9215L7.33348 40.3346C7.63057 40.928 8.35199 41.1682 8.94537 40.872L11.6014 39.5435C12.9106 38.8894 13.6392 37.5537 13.592 36.1941H27.7857C30.4178 36.1941 32.9328 34.937 34.5119 32.8311L40.278 25.1425C41.3966 23.6522 41.2197 21.4669 39.7175 20.2266ZM10.5267 37.3951L8.94529 38.1862L2.8125 25.9215L4.39477 25.1304C4.98815 24.8341 5.70877 25.0735 6.00586 25.6677L11.0641 35.7841C11.3604 36.3774 11.1201 37.098 10.5267 37.3951ZM38.3562 23.701L32.5902 31.3897C31.462 32.8943 29.6659 33.7919 27.7858 33.7919H12.7536L8.25269 24.7892L10.5259 22.7882C12.788 20.7984 16.1992 20.7984 18.4612 22.7882C19.7936 23.9613 20.6224 24.1831 21.4856 24.1831H27.7857C28.448 24.1831 28.9868 24.722 28.9868 25.3842C28.9868 26.0464 28.4479 26.5853 27.7857 26.5853H21.6514C20.9883 26.5853 20.4503 27.1234 20.4503 27.7864C20.4503 28.4494 20.9884 28.9875 21.6514 28.9875H28.5905C29.5874 28.9875 30.5484 28.5695 31.2273 27.84L36.5154 22.1636C36.9991 21.6447 37.7405 21.688 38.1953 22.086C38.6709 22.5023 38.7223 23.2142 38.3562 23.701Z" fill="#01B154"/>
<path d="M25.2559 8.19729C26.0782 7.33493 26.5851 6.16907 26.5851 4.88542C26.5851 2.2414 24.4488 0.000976562 21.7808 0.000976562C19.1327 0.000976562 16.8963 2.2374 16.8963 4.88542C16.8963 6.12976 17.384 7.30442 18.2696 8.2069C16.0732 9.43842 14.4941 11.8022 14.4941 14.5743V15.7754C14.4941 16.4384 15.0323 16.9765 15.6952 16.9765H27.7863C28.4493 16.9765 28.9874 16.4384 28.9874 15.7754V14.5743C28.9873 11.8566 27.4925 9.45604 25.2559 8.19729ZM21.7808 2.40324C23.0828 2.40324 24.183 3.54027 24.183 4.8855C24.183 6.20991 23.1052 7.28769 21.7808 7.28769C20.4355 7.28769 19.2985 6.18749 19.2985 4.8855C19.2985 3.56349 20.4588 2.40324 21.7808 2.40324ZM16.8963 14.5743C16.8963 11.9263 19.1327 9.68987 21.7808 9.68987C24.4296 9.68987 26.5851 11.8806 26.5851 14.5743H16.8963Z" fill="#01B154"/>
</g>
<defs>
<clipPath id="clip0">
<rect width="41" height="41" fill="white"/>
</clipPath>
</defs>
</svg>
