<svg width="44" height="44" viewBox="0 0 44 44" fill="none" xmlns="http://www.w3.org/2000/svg">
<path d="M27.8668 30.4752H23.8659L22.6381 26.9205C22.5923 26.7878 22.5062 26.6726 22.3918 26.5911C22.2774 26.5096 22.1405 26.4658 22 26.4658C21.8596 26.4658 21.7227 26.5096 21.6083 26.5911C21.4939 26.6726 21.4078 26.7878 21.362 26.9205L20.1342 30.4752H16.1333C15.9933 30.4752 15.8567 30.5187 15.7426 30.5997C15.6284 30.6808 15.5423 30.7953 15.4961 30.9274C15.4499 31.0596 15.4459 31.2028 15.4847 31.3374C15.5235 31.4719 15.6032 31.591 15.7127 31.6782L18.9726 34.2741L17.7323 38.0915C17.6882 38.2271 17.6883 38.3731 17.7323 38.5087C17.7764 38.6442 17.8622 38.7623 17.9775 38.8461C18.0928 38.9299 18.2317 38.975 18.3742 38.975C18.5167 38.9751 18.6556 38.93 18.7709 38.8462L22 36.5001L25.2292 38.8462C25.3445 38.93 25.4834 38.9751 25.6259 38.975C25.7684 38.975 25.9073 38.9299 26.0226 38.8461C26.1379 38.7623 26.2237 38.6442 26.2678 38.5087C26.3118 38.3731 26.3118 38.2271 26.2678 38.0915L25.0275 34.2741L28.2873 31.6782C28.3968 31.591 28.4765 31.4719 28.5154 31.3374C28.5542 31.2028 28.5502 31.0596 28.504 30.9274C28.4578 30.7953 28.3717 30.6808 28.2575 30.5997C28.1433 30.5187 28.0068 30.4752 27.8668 30.4752ZM23.8204 33.5096C23.7129 33.5952 23.6341 33.7116 23.5945 33.8433C23.5549 33.9749 23.5565 34.1155 23.5989 34.2462L24.342 36.5328L22.3966 35.1196C22.2813 35.0359 22.1425 34.9908 22 34.9908C21.8576 34.9908 21.7188 35.0359 21.6035 35.1196L19.6581 36.5333L20.4011 34.2467C20.4436 34.116 20.4452 33.9754 20.4056 33.8438C20.366 33.7121 20.2872 33.5957 20.1796 33.5101L18.0644 31.8252H20.6151C20.7555 31.8252 20.8924 31.7814 21.0068 31.6999C21.1211 31.6184 21.2072 31.5033 21.2531 31.3706L22 29.2083L22.747 31.3706C22.7929 31.5033 22.8789 31.6184 22.9933 31.6999C23.1076 31.7814 23.2446 31.8252 23.385 31.8252H25.9357L23.8204 33.5096Z" fill="#00B857"/>
<path d="M13.4387 30.4752H9.43778L8.20996 26.9205C8.16413 26.7878 8.07803 26.6726 7.96366 26.5911C7.8493 26.5096 7.71235 26.4658 7.57192 26.4658C7.43148 26.4658 7.29453 26.5096 7.18017 26.5911C7.0658 26.6726 6.9797 26.7878 6.93387 26.9205L5.70605 30.4752H1.70515C1.56516 30.4752 1.42863 30.5187 1.31448 30.5998C1.20033 30.6808 1.11419 30.7953 1.06801 30.9275C1.02182 31.0596 1.01787 31.2029 1.05669 31.3374C1.09552 31.4719 1.1752 31.591 1.28471 31.6782L4.54446 34.2741L3.30414 38.0915C3.2601 38.2271 3.2601 38.3731 3.30415 38.5087C3.3482 38.6443 3.43404 38.7624 3.54937 38.8462C3.66469 38.93 3.80358 38.9751 3.94613 38.9751C4.08868 38.9751 4.22756 38.93 4.34288 38.8462L7.57192 36.5001L10.801 38.8462C10.9164 38.9299 11.0552 38.975 11.1978 38.975C11.3403 38.975 11.4792 38.9299 11.5945 38.8461C11.7098 38.7623 11.7956 38.6442 11.8396 38.5087C11.8837 38.3731 11.8837 38.2271 11.8397 38.0915L10.5994 34.2741L13.8592 31.6782C13.9687 31.591 14.0484 31.4719 14.0872 31.3374C14.1261 31.2028 14.1221 31.0596 14.0759 30.9274C14.0297 30.7953 13.9436 30.6808 13.8294 30.5997C13.7152 30.5187 13.5787 30.4752 13.4387 30.4752ZM9.39231 33.5096C9.28477 33.5952 9.20593 33.7116 9.16635 33.8433C9.12677 33.9749 9.12833 34.1155 9.17082 34.2462L9.91383 36.5328L7.96848 35.1196C7.85319 35.0359 7.71438 34.9908 7.57192 34.9908C7.42945 34.9908 7.29064 35.0359 7.17535 35.1196L5.23 36.5333L5.97301 34.2467C6.0155 34.116 6.01706 33.9754 5.97748 33.8438C5.9379 33.7121 5.85907 33.5957 5.75152 33.5101L3.63633 31.8252H6.18698C6.3274 31.8252 6.46431 31.7814 6.57866 31.6999C6.69301 31.6184 6.7791 31.5033 6.82494 31.3706L7.57192 29.2083L8.31889 31.3706C8.36473 31.5033 8.45082 31.6184 8.56517 31.6999C8.67952 31.7814 8.81643 31.8252 8.95685 31.8252H11.5076L9.39231 33.5096Z" fill="#00B857"/>
<path d="M42.8478 30.9274C42.8016 30.7953 42.7154 30.6808 42.6013 30.5997C42.4871 30.5187 42.3506 30.4752 42.2106 30.4752H38.2097L36.9818 26.9205C36.936 26.7878 36.8499 26.6726 36.7355 26.5911C36.6212 26.5096 36.4842 26.4658 36.3438 26.4658C36.2034 26.4658 36.0664 26.5096 35.952 26.5911C35.8377 26.6726 35.7516 26.7878 35.7058 26.9205L34.4779 30.4752H30.477C30.337 30.4752 30.2005 30.5187 30.0863 30.5997C29.9722 30.6808 29.886 30.7953 29.8398 30.9274C29.7936 31.0596 29.7897 31.2028 29.8285 31.3374C29.8673 31.4719 29.947 31.591 30.0565 31.6782L33.3163 34.2741L32.076 38.0915C32.032 38.2271 32.032 38.3731 32.0761 38.5087C32.1201 38.6442 32.2059 38.7623 32.3212 38.8461C32.4366 38.9299 32.5754 38.975 32.718 38.975C32.8605 38.9751 32.9994 38.93 33.1147 38.8462L36.3438 36.5001L39.5729 38.8462C39.6882 38.93 39.8271 38.9751 39.9696 38.975C40.1122 38.975 40.251 38.9299 40.3663 38.8461C40.4817 38.7623 40.5675 38.6442 40.6115 38.5087C40.6556 38.3731 40.6556 38.2271 40.6116 38.0915L39.3713 34.2741L42.6311 31.6782C42.7406 31.591 42.8203 31.4719 42.8591 31.3374C42.8979 31.2028 42.894 31.0596 42.8478 30.9274ZM38.1642 33.5093C38.0567 33.5949 37.9778 33.7114 37.9382 33.843C37.8987 33.9746 37.9002 34.1152 37.9427 34.246L38.6857 36.5325L36.7404 35.1196C36.6251 35.0359 36.4863 34.9908 36.3438 34.9908C36.2013 34.9908 36.0625 35.0359 35.9472 35.1196L34.0019 36.5333L34.7449 34.2467C34.7874 34.116 34.7889 33.9754 34.7494 33.8438C34.7098 33.7121 34.6309 33.5957 34.5234 33.5101L32.4081 31.8252H34.9589C35.0993 31.8252 35.2362 31.7814 35.3505 31.6999C35.4649 31.6184 35.551 31.5033 35.5968 31.3706L36.3438 29.2083L37.0908 31.3706C37.1366 31.5033 37.2227 31.6184 37.3371 31.6999C37.4514 31.7814 37.5883 31.8252 37.7287 31.8252H40.2795L38.1642 33.5093Z" fill="#00B857"/>
<path d="M28.6825 15.1021C28.013 14.4315 27.2461 13.8657 26.4078 13.4239C26.9801 12.6156 27.3192 11.6655 27.3879 10.6775C27.4565 9.68953 27.2522 8.70167 26.7972 7.82198C26.3423 6.9423 25.6541 6.20467 24.8081 5.68977C23.9621 5.17487 22.9908 4.90253 22.0004 4.90253C21.0101 4.90253 20.0388 5.17487 19.1927 5.68977C18.3467 6.20467 17.6586 6.9423 17.2036 7.82198C16.7486 8.70167 16.5443 9.68953 16.613 10.6775C16.6817 11.6655 17.0208 12.6156 17.5931 13.4239C16.0684 14.2232 14.7921 15.4252 13.903 16.8993C13.0138 18.3734 12.5459 20.0631 12.55 21.7846V25.1596C12.55 25.3386 12.6211 25.5103 12.7477 25.6369C12.8743 25.7635 13.046 25.8346 13.225 25.8346H30.775C30.954 25.8346 31.1257 25.7635 31.2523 25.6369C31.3789 25.5103 31.45 25.3386 31.45 25.1596V21.7846C31.4534 20.5431 31.2105 19.3132 30.7355 18.1662C30.2604 17.0191 29.5627 15.9777 28.6825 15.1021ZM22 6.25957C22.801 6.25957 23.5841 6.4971 24.2501 6.94212C24.9161 7.38714 25.4352 8.01966 25.7417 8.7597C26.0483 9.49974 26.1285 10.3141 25.9722 11.0997C25.8159 11.8853 25.4302 12.6069 24.8638 13.1734C24.2974 13.7398 23.5758 14.1255 22.7901 14.2818C22.0045 14.438 21.1902 14.3578 20.4502 14.0513C19.7101 13.7447 19.0776 13.2256 18.6326 12.5596C18.1875 11.8936 17.95 11.1106 17.95 10.3096C17.9512 9.23579 18.3782 8.20632 19.1375 7.44704C19.8968 6.68777 20.9262 6.26071 22 6.25957ZM30.1 24.4846H13.9V21.7846C13.8963 20.2474 14.3316 18.7412 15.1547 17.443C15.9779 16.1449 17.1546 15.1088 18.5465 14.4566C19.5154 15.2661 20.7379 15.7096 22.0004 15.7096C23.263 15.7096 24.4854 15.2661 25.4543 14.4566C26.8433 15.1126 28.0173 16.1496 28.8398 17.4469C29.6622 18.7443 30.0993 20.2485 30.1 21.7846V24.4846Z" fill="#00B857"/>
</svg>
