<svg width="41" height="41" viewBox="0 0 41 41" fill="none" xmlns="http://www.w3.org/2000/svg">
<path d="M29.5642 28.6289C30.0363 27.6408 29.6179 26.4571 28.6297 25.985C28.5633 25.9532 28.4952 25.9252 28.4256 25.9011C28.4319 25.8645 28.4352 25.8274 28.4355 25.7903V21.1613C28.4355 20.7961 28.1394 20.5 27.7742 20.5C27.409 20.5 27.1129 20.7961 27.1129 21.1613V25.7903C27.1131 25.8274 27.1165 25.8642 27.1228 25.9007C26.087 26.2579 25.537 27.3872 25.8941 28.4229C26.2513 29.4587 27.3806 30.0088 28.4164 29.6516C28.4889 29.6266 28.5599 29.5975 28.629 29.5642L30.6129 31.5481C30.8711 31.8063 31.2898 31.8063 31.5481 31.5481C31.8063 31.2899 31.8063 30.8711 31.5481 30.6129L29.5642 28.6289ZM27.1129 27.7742C27.1129 27.409 27.409 27.1129 27.7742 27.1129C28.1394 27.1129 28.4355 27.409 28.4355 27.7742C28.4355 28.1394 28.1394 28.4355 27.7742 28.4355C27.4092 28.4351 27.1133 28.1392 27.1129 27.7742Z" fill="#00B857"/>
<path d="M33.0645 15.6536V4.29839C33.0631 3.02069 32.0277 1.98528 30.75 1.98387H30.4194V0.66129C30.4194 0.296093 30.1233 0 29.7581 0H27.1129C26.7477 0 26.4516 0.296093 26.4516 0.66129V1.98387H22.4839V0.66129C22.4839 0.296093 22.1878 0 21.8226 0H19.1774C18.8122 0 18.5161 0.296093 18.5161 0.66129V1.98387H14.5484V0.66129C14.5484 0.296093 14.2523 0 13.8871 0H11.2419C10.8767 0 10.5806 0.296093 10.5806 0.66129V1.98387H6.6129V0.66129C6.6129 0.296093 6.31681 0 5.95161 0H3.30645C2.94125 0 2.64516 0.296093 2.64516 0.66129V1.98387H2.31452C1.03682 1.98528 0.00140524 3.02069 0 4.29839V34.0565C0.00140524 35.3341 1.03682 36.3696 2.31452 36.371H17.7317C20.2404 39.3092 23.9106 41.0009 27.7742 41C35.0666 41 41 35.0666 41 27.7742C41 22.3615 37.7316 17.6986 33.0645 15.6536ZM27.7742 1.32258H29.0968V3.96774H27.7742V1.32258ZM19.8387 1.32258H21.1613V3.96774H19.8387V1.32258ZM11.9032 1.32258H13.2258V3.96774H11.9032V1.32258ZM3.96774 1.32258H5.29032V3.96774H3.96774V1.32258ZM1.32258 4.29839C1.32308 3.75076 1.76689 3.30695 2.31452 3.30645H2.64516V4.62903C2.64516 4.99423 2.94125 5.29032 3.30645 5.29032H5.95161C6.31681 5.29032 6.6129 4.99423 6.6129 4.62903V3.30645H10.5806V4.62903C10.5806 4.99423 10.8767 5.29032 11.2419 5.29032H13.8871C14.2523 5.29032 14.5484 4.99423 14.5484 4.62903V3.30645H18.5161V4.62903C18.5161 4.99423 18.8122 5.29032 19.1774 5.29032H21.8226C22.1878 5.29032 22.4839 4.99423 22.4839 4.62903V3.30645H26.4516V4.62903C26.4516 4.99423 26.7477 5.29032 27.1129 5.29032H29.7581C30.1233 5.29032 30.4194 4.99423 30.4194 4.62903V3.30645H30.75C31.2976 3.30695 31.7414 3.75076 31.7419 4.29839V5.95161H1.32258V4.29839ZM2.31452 35.0484C1.76689 35.0479 1.32308 34.6041 1.32258 34.0565V7.27419H31.7419V15.1568C31.0936 14.9522 30.4303 14.7985 29.7581 14.6972V13.2258C29.7581 12.8606 29.462 12.5645 29.0968 12.5645H26.4516C26.0864 12.5645 25.7903 12.8606 25.7903 13.2258V14.6972C19.4353 15.6569 14.5484 21.1555 14.5484 27.7742C14.5454 30.3612 15.3056 32.8915 16.734 35.0484H2.31452ZM28.4355 13.8871V14.5484H27.1129V13.8871H28.4355ZM27.7742 39.6774C21.2109 39.6774 15.871 34.3375 15.871 27.7742C15.871 21.2109 21.2109 15.871 27.7742 15.871C34.3375 15.871 39.6774 21.2109 39.6774 27.7742C39.6774 34.3375 34.3375 39.6774 27.7742 39.6774Z" fill="#00B857"/>
<path d="M27.7742 17.1934C21.9307 17.1934 17.1936 21.9305 17.1936 27.774C17.1936 33.6175 21.9307 38.3546 27.7742 38.3546C33.6177 38.3546 38.3549 33.6175 38.3549 27.774C38.3482 21.9332 33.615 17.2 27.7742 17.1934ZM28.4355 37.0082V36.3708C28.4355 36.0056 28.1394 35.7095 27.7742 35.7095C27.409 35.7095 27.1129 36.0056 27.1129 36.3708V37.0082C22.5241 36.6735 18.8747 33.0241 18.54 28.4353H19.1774C19.5426 28.4353 19.8387 28.1392 19.8387 27.774C19.8387 27.4088 19.5426 27.1127 19.1774 27.1127H18.54C18.8747 22.5239 22.5241 18.8745 27.1129 18.5398V19.1772C27.1129 19.5424 27.409 19.8385 27.7742 19.8385C28.1394 19.8385 28.4355 19.5424 28.4355 19.1772V18.5398C33.0244 18.8745 36.6737 22.5239 37.0084 27.1127H36.371C36.0058 27.1127 35.7097 27.4088 35.7097 27.774C35.7097 28.1392 36.0058 28.4353 36.371 28.4353H37.0084C36.6737 33.0241 33.0244 36.6735 28.4355 37.0082Z" fill="#00B857"/>
</svg>
