<svg width="22" height="22" viewBox="0 0 22 22" fill="none" xmlns="http://www.w3.org/2000/svg">
<g clip-path="url(#clip0)">
<path d="M20.9425 9.9317L17.4486 6.25804C17.0814 5.87166 16.4607 5.91262 16.0884 6.2666L15.0286 7.27452C14.703 7.5842 14.6223 8.05065 14.8 8.4137C14.7998 8.41387 14.7995 8.41403 14.7993 8.41437L13.6768 9.46929C13.38 9.74808 12.9792 9.89461 12.5497 9.88336C12.1052 9.87061 11.6618 9.98374 11.2751 10.2038C10.6649 10.0079 10.0855 9.79172 9.4363 9.99146C9.03296 10.1157 8.59689 10.0074 8.29863 9.70897C7.95303 9.36337 7.61835 9.00099 7.25798 8.67101C7.39075 8.32743 7.30901 7.90932 7.01813 7.6176L5.98554 6.58165C5.8051 6.40071 5.56944 6.29296 5.32204 6.27852C5.0602 6.26308 4.80624 6.35724 4.62598 6.53684L1.03557 10.116H1.0354C0.855303 10.2958 0.760301 10.549 0.774904 10.8112C0.7885 11.0586 0.895586 11.2946 1.07602 11.4757L2.10861 12.5115C2.29559 12.6992 2.56163 12.8165 2.82767 12.8165C2.91176 12.8165 2.99434 12.8046 3.07356 12.7829C3.539 13.359 4.13989 13.8561 4.66374 14.38C4.76714 14.4832 4.82404 14.6207 4.82404 14.7669C4.82404 15.144 4.9709 15.4985 5.23744 15.7652C5.24432 15.7721 5.25121 15.7788 5.25809 15.7854C4.84636 16.1969 4.31798 16.5925 4.31798 17.2322C4.31798 17.6011 4.48532 17.9173 4.74599 18.1669C4.96016 18.3811 5.23962 18.5058 5.53957 18.5229C5.57179 18.8373 5.72957 19.1193 5.96103 19.3304C6.18225 19.5515 6.4733 19.6772 6.78432 19.6876C6.82259 19.9918 6.97818 20.2625 7.20242 20.4674C7.41576 20.6808 7.69405 20.8053 7.99265 20.8233C8.02252 21.1417 8.18097 21.428 8.41528 21.6415C8.64641 21.8725 8.9534 21.9997 9.2802 21.9997C9.607 21.9997 9.91416 21.8725 10.1451 21.6415L10.8247 20.9619L11.4694 21.6066C11.7098 21.847 12.0294 21.9794 12.3692 21.9794C12.7093 21.9794 13.0289 21.847 13.2692 21.6066C13.5067 21.3691 13.6301 21.0603 13.6404 20.7484C13.9344 20.7209 14.2073 20.593 14.419 20.3815C14.6496 20.1509 14.7805 19.8471 14.7906 19.5225C15.0761 19.4961 15.3542 19.3739 15.5724 19.1559C15.799 18.9293 15.9217 18.6377 15.9414 18.3405C16.2536 18.3227 16.5444 18.1929 16.7673 17.97C17.2155 17.5221 17.2588 16.8203 16.8978 16.3231C17.0886 16.0307 17.2004 15.6843 17.218 15.3144C17.2428 14.7934 17.177 14.1767 17.5681 13.7702L18.7605 12.5315C18.7702 12.5212 19.0989 12.5828 19.1038 12.5828C19.352 12.5828 19.6061 12.4877 19.8059 12.2977L20.8656 11.2898C21.2618 10.9129 21.2962 10.3038 20.9425 9.9317ZM2.85771 11.944C2.76943 12.0318 1.5611 10.8129 1.64603 10.7285L5.2366 7.14914C5.32355 7.06186 6.53154 8.2816 6.44829 8.36486L2.85771 11.944ZM5.86452 17.5556C5.52496 17.895 4.95043 17.3158 5.28763 16.9786L6.90181 15.3644C7.24136 15.025 7.81574 15.6042 7.4787 15.9415L5.86452 17.5556ZM7.07956 18.719C6.74001 19.0584 6.1653 18.4793 6.50267 18.1421L8.11669 16.5279C8.45624 16.1884 9.03078 16.7676 8.69357 17.1048L7.07956 18.719ZM8.32095 19.8561C7.9814 20.1955 7.40686 19.6165 7.74407 19.2793L9.35808 17.6651C9.69763 17.3255 10.2723 17.9048 9.93497 18.242L8.32095 19.8561ZM11.1478 19.4159L9.53365 21.0301C9.19409 21.3694 8.61955 20.7904 8.95676 20.4532L10.5296 18.8803C10.8857 18.539 11.5183 19.0454 11.1478 19.4159ZM12.6578 20.9951C12.5003 21.1524 12.2382 21.1524 12.0809 20.995L11.4362 20.3504C11.6259 20.1608 11.8469 19.9768 11.9746 19.7371L12.6192 20.3813C12.7865 20.5487 12.8456 20.8072 12.6578 20.9951ZM16.156 16.7817C16.5282 17.1538 15.9503 17.7299 15.5791 17.3586L14.0348 15.8144C13.6382 15.4178 13.0191 16.0255 13.4168 16.4232L14.961 17.9674C15.3329 18.3395 14.756 18.9165 14.3841 18.5444L12.8399 17.0001C12.4209 16.5815 11.8566 17.2421 12.2633 17.649L13.8075 19.1931C14.1694 19.555 13.6318 20.1237 13.2501 19.7878L11.7249 18.2626C11.5006 18.038 11.221 17.8912 10.8991 17.8719C10.8692 17.5535 10.7109 17.2671 10.4766 17.0536C10.2554 16.8324 9.96434 16.7067 9.65332 16.6964C9.61958 16.4284 9.49907 16.1805 9.30504 15.9864C9.08164 15.7402 8.77632 15.5796 8.44164 15.5604C8.41293 15.282 8.29074 15.0237 8.09017 14.8231C7.84058 14.5623 7.52419 14.3949 7.15526 14.3949C6.58324 14.3949 6.23898 14.8045 5.86955 15.1739C5.66377 14.9852 5.71379 14.7375 5.65857 14.4899C5.59781 14.2165 5.47545 13.9686 5.27504 13.7683L3.7703 12.2636L6.4028 9.63109L6.7009 9.334L7.68717 10.3203C8.21253 10.8458 8.98026 11.0365 9.69058 10.8179C9.94588 10.7395 10.217 10.7614 10.4657 10.852L8.79428 12.4882C8.21437 13.056 8.31139 14.0733 8.99671 14.5119C9.56184 14.8738 10.3195 14.7153 10.8645 14.3961C11.3024 14.1395 11.6138 13.51 12.1638 13.4885C12.6145 13.4734 13.1573 13.7709 13.467 14.0836L16.156 16.7817ZM11.5842 11.0296C11.858 10.8387 12.1927 10.739 12.526 10.7478C13.1858 10.7661 13.8048 10.5356 14.2689 10.0994L15.3643 9.06998L18.1126 11.9576L16.9453 13.1705C16.6122 13.5162 16.4164 13.9708 16.3935 14.4503C16.3752 14.835 16.4164 15.3075 16.2683 15.67C14.1459 13.5402 14.0811 13.4753 14.0803 13.4743C13.6148 13.0041 12.8127 12.5971 12.1301 12.6246C11.3331 12.6557 11.0391 13.2917 10.4274 13.6502C10.1721 13.7997 9.85188 13.9783 9.55731 13.8269C9.28993 13.6896 9.16455 13.3358 9.3992 13.1062L11.5842 11.0296ZM20.2698 10.6632C20.156 10.7714 19.1647 11.8079 19.0722 11.7104L15.5783 8.03672C15.4962 7.95044 16.7365 6.76343 16.8221 6.8539L20.3159 10.5276C20.3292 10.5417 20.3294 10.6064 20.2698 10.6632Z" fill="white"/>
<path d="M10.9803 7.21086C12.9685 7.21086 14.5859 5.59349 14.5859 3.60535C14.5859 3.26797 14.5392 2.93362 14.4471 2.61186C14.2943 2.07811 13.4628 2.31528 13.6157 2.8497C13.6857 3.09425 13.7211 3.34837 13.7211 3.60535C13.7211 5.11664 12.4916 6.34612 10.9803 6.34612C9.46922 6.34612 8.23958 5.11664 8.23958 3.60535C8.23958 2.09422 9.46922 0.864746 10.9803 0.864746C11.1688 0.864746 11.3568 0.883881 11.5394 0.921646C12.0829 1.03427 12.2592 0.187653 11.7148 0.0748596C11.4747 0.025177 11.2276 0 10.9803 0C8.99237 0 7.375 1.61737 7.375 3.60535C7.375 5.59349 8.99237 7.21086 10.9803 7.21086Z" fill="white"/>
<path d="M11.6917 2.80223L10.7544 3.73948L10.2692 3.25424C9.87472 2.8598 9.26325 3.47126 9.65769 3.86553L10.4486 4.6566C10.6153 4.82327 10.8934 4.82327 11.0601 4.6566L12.3031 3.41352C12.6974 3.01925 12.0861 2.40779 11.6917 2.80223Z" fill="white"/>
<path d="M11.6865 15.9369C11.5393 15.5782 11.0104 15.593 10.8803 15.9567C10.8207 16.1232 10.8707 16.3138 11.0045 16.4294C11.1497 16.5548 11.3677 16.5687 11.5274 16.462C11.696 16.3488 11.7645 16.1248 11.6865 15.9369Z" fill="white"/>
<path d="M12.8072 1.39565C12.8979 1.61284 13.1542 1.71959 13.3719 1.62946C13.5897 1.53933 13.6956 1.28252 13.6058 1.06482C13.5159 0.847295 13.2587 0.740713 13.0412 0.831014C12.823 0.921483 12.7179 1.17762 12.8072 1.39565Z" fill="white"/>
</g>
<defs>
<clipPath id="clip0">
<rect width="22" height="22" fill="white"/>
</clipPath>
</defs>
</svg>
