<svg width="42" height="42" viewBox="0 0 42 42" fill="none" xmlns="http://www.w3.org/2000/svg">
<g clip-path="url(#clip0)">
<path d="M28.1426 22.4643H26.6627C28.2239 20.9745 29.1992 18.8785 29.1992 16.5581V11.3278C29.1992 6.81854 25.5217 3.15002 21.0016 3.15002C16.4814 3.15002 12.804 6.81854 12.804 11.3278V16.5581C12.804 18.8785 13.7793 20.9745 15.3404 22.4643H13.8605C7.3766 22.4643 2.10156 27.7267 2.10156 34.1948V40.8642C2.10156 41.4915 2.61141 42 3.24012 42H38.763C39.3917 42 39.9016 41.4915 39.9016 40.8642V34.1948C39.9016 27.7267 34.6265 22.4643 28.1426 22.4643ZM21.0016 28.5976C21.6303 28.5976 22.1401 28.0891 22.1401 27.4618V24.7359H26.441L21.0016 37.8865L15.5621 24.7359H19.863V27.4618C19.863 28.0891 20.3729 28.5976 21.0016 28.5976ZM21.0016 5.42162C24.2661 5.42162 26.922 8.0711 26.922 11.3278V11.3391H26.9171C25.0328 11.3391 23.2028 10.7946 21.625 9.76458C21.2464 9.51731 20.7569 9.51731 20.3782 9.76458C18.8004 10.7946 16.9703 11.3391 15.0861 11.3391H15.0811V11.3278C15.0811 8.0711 17.737 5.42162 21.0016 5.42162ZM15.0811 16.5581V13.6107H15.086C17.1701 13.6107 19.2005 13.0717 21.0016 12.0459C22.8026 13.0717 24.833 13.6107 26.9171 13.6107H26.922V16.5581C26.922 19.8148 24.2661 22.4643 21.0016 22.4643C17.737 22.4643 15.0811 19.8148 15.0811 16.5581ZM4.37867 34.1948C4.37867 29.2307 8.23268 25.1504 13.1121 24.768L19.3001 39.7284H4.37867V34.1948ZM37.6245 39.7284H22.703L28.8911 24.7681C33.7704 25.1504 37.6245 29.2307 37.6245 34.1948V39.7284Z" fill="#00B857"/>
</g>
<defs>
<clipPath id="clip0">
<rect width="42" height="42" fill="white"/>
</clipPath>
</defs>
</svg>
