<svg width="41" height="41" viewBox="0 0 41 41" fill="none" xmlns="http://www.w3.org/2000/svg">
<path d="M19.2188 22.4219H14.0938C13.9238 22.4219 13.7609 22.4894 13.6408 22.6095C13.5206 22.7296 13.4531 22.8926 13.4531 23.0625C13.4531 23.2324 13.5206 23.3954 13.6408 23.5155C13.7609 23.6356 13.9238 23.7031 14.0938 23.7031H19.2188C19.3887 23.7031 19.5516 23.6356 19.6717 23.5155C19.7919 23.3954 19.8594 23.2324 19.8594 23.0625C19.8594 22.8926 19.7919 22.7296 19.6717 22.6095C19.5516 22.4894 19.3887 22.4219 19.2188 22.4219Z" fill="#00B857"/>
<path d="M21.7812 22.4219H21.1406C20.9707 22.4219 20.8078 22.4894 20.6876 22.6095C20.5675 22.7296 20.5 22.8926 20.5 23.0625C20.5 23.2324 20.5675 23.3954 20.6876 23.5155C20.8078 23.6356 20.9707 23.7031 21.1406 23.7031H21.7812C21.9512 23.7031 22.1141 23.6356 22.2342 23.5155C22.3544 23.3954 22.4219 23.2324 22.4219 23.0625C22.4219 22.8926 22.3544 22.7296 22.2342 22.6095C22.1141 22.4894 21.9512 22.4219 21.7812 22.4219Z" fill="#00B857"/>
<path d="M7.04687 28.1875C6.66676 28.1875 6.29519 28.3002 5.97914 28.5114C5.66309 28.7226 5.41676 29.0227 5.27129 29.3739C5.12583 29.7251 5.08777 30.1115 5.16193 30.4843C5.23609 30.8571 5.41913 31.1996 5.6879 31.4683C5.95668 31.7371 6.29913 31.9202 6.67194 31.9943C7.04474 32.0685 7.43117 32.0304 7.78234 31.885C8.13352 31.7395 8.43367 31.4932 8.64485 31.1771C8.85603 30.8611 8.96875 30.4895 8.96875 30.1094C8.96817 29.5998 8.76551 29.1113 8.40521 28.751C8.04491 28.3907 7.55641 28.1881 7.04687 28.1875ZM7.04687 30.75C6.92017 30.75 6.79631 30.7124 6.69096 30.642C6.58561 30.5716 6.5035 30.4716 6.45501 30.3545C6.40653 30.2375 6.39384 30.1087 6.41856 29.9844C6.44328 29.8601 6.50429 29.746 6.59388 29.6564C6.68348 29.5668 6.79763 29.5058 6.92189 29.4811C7.04616 29.4563 7.17497 29.469 7.29203 29.5175C7.40909 29.566 7.50914 29.6481 7.57953 29.7535C7.64993 29.8588 7.6875 29.9827 7.6875 30.1094C7.68731 30.2792 7.61975 30.4421 7.49965 30.5622C7.37955 30.6823 7.21672 30.7498 7.04687 30.75Z" fill="#00B857"/>
<path d="M33.9531 28.1875C33.573 28.1875 33.2014 28.3002 32.8854 28.5114C32.5693 28.7226 32.323 29.0227 32.1775 29.3739C32.0321 29.7251 31.994 30.1115 32.0682 30.4843C32.1423 30.8571 32.3254 31.1996 32.5942 31.4683C32.8629 31.7371 33.2054 31.9202 33.5782 31.9943C33.951 32.0685 34.3374 32.0304 34.6886 31.885C35.0398 31.7395 35.3399 31.4932 35.5511 31.1771C35.7623 30.8611 35.875 30.4895 35.875 30.1094C35.8744 29.5998 35.6718 29.1113 35.3115 28.751C34.9512 28.3907 34.4627 28.1881 33.9531 28.1875ZM33.9531 30.75C33.8264 30.75 33.7026 30.7124 33.5972 30.642C33.4919 30.5716 33.4098 30.4716 33.3613 30.3545C33.3128 30.2375 33.3001 30.1087 33.3248 29.9844C33.3495 29.8601 33.4105 29.746 33.5001 29.6564C33.5897 29.5668 33.7039 29.5058 33.8281 29.4811C33.9524 29.4563 34.0812 29.469 34.1983 29.5175C34.3153 29.566 34.4154 29.6481 34.4858 29.7535C34.5562 29.8588 34.5938 29.9827 34.5938 30.1094C34.5936 30.2792 34.526 30.4421 34.4059 30.5622C34.2858 30.6823 34.123 30.7498 33.9531 30.75Z" fill="#00B857"/>
<path d="M39.7188 22.4219H38.8947L36.4007 15.1668C36.3573 15.0406 36.2757 14.9311 36.1671 14.8536C36.0585 14.7761 35.9284 14.7344 35.7949 14.7344H28.1875C28.0176 14.7344 27.8547 14.8019 27.7345 14.922C27.6144 15.0421 27.5469 15.2051 27.5469 15.375V24.3438H24.3438V5.76562C24.3438 5.59572 24.2763 5.43278 24.1561 5.31263C24.036 5.19249 23.873 5.125 23.7031 5.125H4.48438C4.31447 5.125 4.15153 5.19249 4.03138 5.31263C3.91124 5.43278 3.84375 5.59572 3.84375 5.76562V24.3438H1.28125C1.11135 24.3438 0.9484 24.4112 0.82826 24.5314C0.708119 24.6515 0.640625 24.8145 0.640625 24.9844V30.1094C0.640625 30.2793 0.708119 30.4422 0.82826 30.5624C0.9484 30.6825 1.11135 30.75 1.28125 30.75H2.60903C2.7629 31.8173 3.29624 32.7933 4.11131 33.4993C4.92637 34.2053 5.96857 34.5939 7.04688 34.5939C8.12518 34.5939 9.16737 34.2053 9.98244 33.4993C10.7975 32.7933 11.3309 31.8173 11.4847 30.75H29.5153C29.6691 31.8173 30.2025 32.7933 31.0176 33.4993C31.8326 34.2053 32.8748 34.5939 33.9531 34.5939C35.0314 34.5939 36.0736 34.2053 36.8887 33.4993C37.7038 32.7933 38.2371 31.8173 38.391 30.75H39.7188C39.8887 30.75 40.0516 30.6825 40.1717 30.5624C40.2919 30.4422 40.3594 30.2793 40.3594 30.1094V23.0625C40.3594 22.8926 40.2919 22.7297 40.1717 22.6095C40.0516 22.4894 39.8887 22.4219 39.7188 22.4219ZM28.8281 16.0156H35.3378L37.5399 22.4219H28.8281V16.0156ZM16.6562 6.40625V13.6271L14.413 12.3372C14.3159 12.2814 14.2058 12.252 14.0938 12.252C13.9817 12.252 13.8716 12.2814 13.7745 12.3372L11.5312 13.6271V6.40625H16.6562ZM5.125 6.40625H10.25V14.7344C10.25 14.8467 10.2796 14.9571 10.3357 15.0544C10.3918 15.1517 10.4726 15.2326 10.5698 15.2888C10.6671 15.3451 10.7774 15.3748 10.8897 15.3749C11.0021 15.3751 11.1125 15.3457 11.2099 15.2897L14.0938 13.6315L16.9776 15.2897C17.075 15.3457 17.1854 15.3751 17.2978 15.3749C17.4101 15.3748 17.5204 15.3451 17.6177 15.2888C17.7149 15.2326 17.7957 15.1517 17.8518 15.0544C17.9079 14.9571 17.9375 14.8467 17.9375 14.7344V6.40625H23.0625V24.3438H5.125V6.40625ZM1.92188 25.625H27.5469V29.4688H11.4847C11.3309 28.4015 10.7975 27.4254 9.98244 26.7194C9.16737 26.0134 8.12518 25.6248 7.04688 25.6248C5.96857 25.6248 4.92637 26.0134 4.11131 26.7194C3.29624 27.4254 2.7629 28.4015 2.60903 29.4688H1.92188V25.625ZM7.04688 33.3125C6.41336 33.3125 5.79407 33.1246 5.26731 32.7727C4.74056 32.4207 4.33001 31.9205 4.08757 31.3352C3.84514 30.7499 3.7817 30.1058 3.9053 29.4845C4.02889 28.8631 4.33396 28.2924 4.78192 27.8444C5.22989 27.3965 5.80063 27.0914 6.42198 26.9678C7.04332 26.8442 7.68736 26.9076 8.27266 27.1501C8.85795 27.3925 9.35821 27.8031 9.71018 28.3298C10.0621 28.8566 10.25 29.4759 10.25 30.1094C10.249 30.9586 9.91127 31.7728 9.31077 32.3733C8.71028 32.9738 7.8961 33.3115 7.04688 33.3125ZM33.9531 33.3125C33.3196 33.3125 32.7003 33.1246 32.1736 32.7727C31.6468 32.4207 31.2363 31.9205 30.9938 31.3352C30.7514 30.7499 30.688 30.1058 30.8115 29.4845C30.9351 28.8631 31.2402 28.2924 31.6882 27.8444C32.1361 27.3965 32.7069 27.0914 33.3282 26.9678C33.9496 26.8442 34.5936 26.9076 35.1789 27.1501C35.7642 27.3925 36.2645 27.8031 36.6164 28.3298C36.9684 28.8566 37.1562 29.4759 37.1562 30.1094C37.1553 30.9586 36.8175 31.7728 36.217 32.3733C35.6165 32.9738 34.8024 33.3115 33.9531 33.3125ZM39.0781 29.4688H38.391C38.2371 28.4015 37.7038 27.4254 36.8887 26.7194C36.0736 26.0134 35.0314 25.6248 33.9531 25.6248C32.8748 25.6248 31.8326 26.0134 31.0176 26.7194C30.2025 27.4254 29.6691 28.4015 29.5153 29.4688H28.8281V23.7031H39.0781V29.4688Z" fill="#00B857"/>
</svg>
