<svg width="20" height="16" viewBox="0 0 20 16" fill="none" xmlns="http://www.w3.org/2000/svg">
<path d="M19.9735 2.83396C19.9681 2.82222 19.962 2.81081 19.9552 2.79986C19.9415 2.77277 19.9245 2.74747 19.9046 2.72469C19.8749 2.69284 19.84 2.66621 19.8015 2.64586C19.7881 2.63825 19.7743 2.63151 19.7601 2.62569C19.7531 2.62312 19.7476 2.61799 19.7403 2.61579L15.5317 1.33502L13.8817 0.785023C13.8222 0.766964 13.7591 0.764306 13.6984 0.777323L11.3044 0.0487561C11.2348 0.0278561 11.1606 0.0278561 11.091 0.0487561L2.65766 2.61542C2.65033 2.61762 2.64483 2.62276 2.63786 2.62532C2.62365 2.63114 2.60981 2.63788 2.59643 2.64549C2.55793 2.66584 2.52309 2.69247 2.49339 2.72432C2.47341 2.7471 2.45641 2.7724 2.44279 2.79949C2.43596 2.81044 2.42982 2.82186 2.42446 2.83359C2.40892 2.87374 2.40076 2.91632 2.40026 2.95936C2.40026 2.95936 2.40026 2.96229 2.40026 2.96376V2.96669V5.53336H0.933594V6.26669H4.60026V5.53336H3.13359V3.48222L5.33359 4.24746V7.36669C5.33346 7.51666 5.42466 7.65154 5.56386 7.70732L7.39719 8.44066C7.58516 8.51601 7.7986 8.42466 7.87395 8.2367C7.89137 8.19325 7.90031 8.14682 7.90026 8.10002V5.14029L10.8336 6.16072V14.5512L3.13359 11.8745V11.7667C3.13359 11.5642 2.96942 11.4 2.76693 11.4C2.56444 11.4 2.40026 11.5642 2.40026 11.7667V12.1334C2.40031 12.2893 2.49903 12.4282 2.64629 12.4795L11.0796 15.4128H11.0862C11.1203 15.4241 11.1559 15.4302 11.1918 15.4312C11.1948 15.4312 11.1973 15.4312 11.2003 15.4312C11.2425 15.4306 11.2843 15.4227 11.3238 15.4077C11.3272 15.4073 11.3305 15.4066 11.3337 15.4059L19.7671 12.1059C19.9069 12.0512 19.9993 11.9168 20.0003 11.7667V2.96669V2.96376C20.0003 2.96376 20.0003 2.96082 20.0003 2.95936C19.9989 2.91627 19.9899 2.87383 19.9735 2.83396ZM3.95053 2.98979L11.2003 0.783189L12.5375 1.19019L5.81026 3.63696L3.95053 2.98979ZM7.16693 7.55846L6.06693 7.11846V4.60826L7.16693 5.04826V7.55846ZM7.78549 4.32336L6.90549 4.01756L13.705 1.54512L14.8083 1.88172L7.78549 4.32336ZM11.2003 5.51172L8.90163 4.71239L15.9988 2.24362L18.4507 2.98979L11.2003 5.51172ZM19.2669 11.5163L11.5669 14.5295V6.16072L19.2669 3.48406V11.5163Z" fill="white"/>
</svg>
