<svg width="41" height="41" viewBox="0 0 41 41" fill="none" xmlns="http://www.w3.org/2000/svg">
<path d="M11.6158 6.83322C6.71767 6.83322 2.73242 10.8185 2.73242 15.7166C2.73242 20.6147 6.71767 24.5999 11.6158 24.5999C16.514 24.5999 20.4991 20.6147 20.4991 15.7166C20.4991 10.8185 16.514 6.83322 11.6158 6.83322ZM11.6158 23.2332C7.47137 23.2332 4.09912 19.861 4.09912 15.7165C4.09912 11.5721 7.47137 8.19984 11.6158 8.19984C15.7603 8.19984 19.1325 11.5721 19.1325 15.7165C19.1324 19.861 15.7602 23.2332 11.6158 23.2332Z" fill="#00B857"/>
<path d="M11.6161 2.73322C10.1086 2.73322 8.88281 3.95913 8.88281 5.46652C8.88281 6.97391 10.1087 8.19983 11.6161 8.19983C13.1235 8.19983 14.3494 6.97399 14.3494 5.4666C14.3494 3.95921 13.1235 2.73322 11.6161 2.73322ZM11.6161 6.83322C10.8624 6.83322 10.2494 6.2203 10.2494 5.46652C10.2494 4.71283 10.8623 4.09983 11.6161 4.09983C12.3698 4.09983 12.9828 4.71275 12.9828 5.46652C12.9827 6.2203 12.3698 6.83322 11.6161 6.83322Z" fill="#00B857"/>
<path d="M12.3003 5.46661H10.9336V7.51661H12.3003V5.46661Z" fill="#00B857"/>
<path d="M5.26717 7.71653L4.30078 8.68292L5.66721 10.0494L6.6336 9.08297L5.26717 7.71653Z" fill="#00B857"/>
<path d="M5.66697 6.34945L2.93359 9.08282L3.89998 10.0492L6.63336 7.31584L5.66697 6.34945Z" fill="#00B857"/>
<path d="M17.966 7.71551L16.5996 9.08194L17.566 10.0483L18.9324 8.6819L17.966 7.71551Z" fill="#00B857"/>
<path d="M17.5659 6.35084L16.5996 7.31717L19.333 10.0505L20.2993 9.08421L17.5659 6.35084Z" fill="#00B857"/>
<path d="M11.6167 17.0834C12.3715 17.0834 12.9834 16.4715 12.9834 15.7167C12.9834 14.9619 12.3715 14.35 11.6167 14.35C10.8619 14.35 10.25 14.9619 10.25 15.7167C10.25 16.4715 10.8619 17.0834 11.6167 17.0834Z" fill="#00B857"/>
<path d="M14.4524 9.88854L11.0371 15.3558L12.1961 16.0798L15.6115 10.6126L14.4524 9.88854Z" fill="#00B857"/>
<path d="M12.3003 9.56662H10.9336V10.9333H12.3003V9.56662Z" fill="#00B857"/>
<path d="M12.3003 20.5H10.9336V21.8667H12.3003V20.5Z" fill="#00B857"/>
<path d="M9.13446 10.055L7.95117 10.7389L8.63439 11.921L9.81767 11.2371L9.13446 10.055Z" fill="#00B857"/>
<path d="M14.6011 19.5148L13.418 20.199L14.1015 21.3809L15.2846 20.6968L14.6011 19.5148Z" fill="#00B857"/>
<path d="M6.63311 12.0519L5.94922 13.2351L7.13132 13.9183L7.81522 12.7351L6.63311 12.0519Z" fill="#00B857"/>
<path d="M16.098 17.5142L15.4141 18.6974L16.5962 19.3807L17.2801 18.1974L16.098 17.5142Z" fill="#00B857"/>
<path d="M6.83349 15.0334H5.4668V16.4001H6.83349V15.0334Z" fill="#00B857"/>
<path d="M17.7671 15.0334H16.4004V16.4001H17.7671V15.0334Z" fill="#00B857"/>
<path d="M7.13502 17.5145L5.95312 18.1978L6.63712 19.3809L7.81901 18.6976L7.13502 17.5145Z" fill="#00B857"/>
<path d="M16.596 12.0491L15.4141 12.7324L16.0981 13.9155L17.28 13.2322L16.596 12.0491Z" fill="#00B857"/>
<path d="M8.63003 19.5188L7.94727 20.701L9.13061 21.3844L9.81338 20.2023L8.63003 19.5188Z" fill="#00B857"/>
<path d="M8.8832 30.0666C6.62204 30.0666 4.7832 31.9055 4.7832 34.1666C4.7832 36.4278 6.62204 38.2666 8.8832 38.2666C11.1444 38.2666 12.9832 36.4278 12.9832 34.1666C12.9832 31.9055 11.1444 30.0666 8.8832 30.0666ZM8.8832 36.8999C7.37573 36.8999 6.1499 35.674 6.1499 34.1666C6.1499 32.6592 7.37581 31.4333 8.8832 31.4333C10.3906 31.4333 11.6165 32.6592 11.6165 34.1666C11.6165 35.674 10.3907 36.8999 8.8832 36.8999Z" fill="#00B857"/>
<path d="M9.56591 33.4832H8.19922V34.8499H9.56591V33.4832Z" fill="#00B857"/>
<path d="M32.1176 30.0666C29.8564 30.0666 28.0176 31.9055 28.0176 34.1666C28.0176 36.4278 29.8564 38.2666 32.1176 38.2666C34.3788 38.2666 36.2176 36.4278 36.2176 34.1666C36.2176 31.9055 34.3787 30.0666 32.1176 30.0666ZM32.1176 36.8999C30.6101 36.8999 29.3843 35.674 29.3843 34.1666C29.3843 32.6592 30.6102 31.4333 32.1176 31.4333C33.6251 31.4333 34.8509 32.6592 34.8509 34.1666C34.8509 35.674 33.625 36.8999 32.1176 36.8999Z" fill="#00B857"/>
<path d="M32.8003 33.4832H31.4336V34.8499H32.8003V33.4832Z" fill="#00B857"/>
<path d="M28.7008 33.4832H12.3008V34.8499H28.7008V33.4832Z" fill="#00B857"/>
<path d="M40.7141 26.0943L36.1118 22.8062L33.0799 13.7049C32.8011 12.8644 32.0194 12.3 31.1351 12.3C31.1338 12.3 31.1331 12.3 31.1324 12.3H19.8164V13.6667H31.1331C31.1339 13.6667 31.1339 13.6667 31.1339 13.6667C31.429 13.6667 31.6894 13.8546 31.7823 14.1361L34.8846 23.4499C34.9305 23.5866 35.0186 23.7054 35.1361 23.7895L39.6331 27.0019V33.4833H35.5331V34.8499H40.3164C40.6943 34.8499 40.9997 34.5445 40.9997 34.1666V26.6499C40.9997 26.4292 40.8932 26.2221 40.7141 26.0943Z" fill="#00B857"/>
<path d="M1.36669 33.4833V13.94C1.36669 13.789 1.48897 13.6667 1.64 13.6667H4.1V12.3H1.64C0.735918 12.3 0 13.036 0 13.94V34.1667C0 34.5446 0.306139 34.85 0.683307 34.85H5.46661V33.4833H1.36669Z" fill="#00B857"/>
<path d="M40.3173 30.75H37.584V32.1167H40.3173V30.75Z" fill="#00B857"/>
<path d="M4.78359 30.75H0.683594V32.1167H4.78359V30.75Z" fill="#00B857"/>
<path d="M29.384 22.5499C29.0068 22.5499 28.7007 22.2438 28.7007 21.8666V17.0833C28.7007 16.7068 29.0068 16.4 29.384 16.4H32.8007V15.0333H29.384C28.2538 15.0333 27.334 15.9531 27.334 17.0833V21.8666C27.334 22.9969 28.2538 23.9166 29.384 23.9166H35.534V22.5499H29.384Z" fill="#00B857"/>
<path d="M31.4325 25.2834H28.6992V26.6501H31.4325V25.2834Z" fill="#00B857"/>
<path d="M26.6493 30.75H13.666V32.1167H26.6493V30.75Z" fill="#00B857"/>
<path d="M3.4169 22.55H0.683594V23.9167H3.4169V22.55Z" fill="#00B857"/>
</svg>
