<svg width="24" height="24" viewBox="0 0 24 24" fill="none" xmlns="http://www.w3.org/2000/svg">
<g clip-path="url(#clip0)">
<path d="M5.15625 16.2188C5.41513 16.2188 5.625 16.0089 5.625 15.75C5.625 15.4911 5.41513 15.2812 5.15625 15.2812C4.89737 15.2812 4.6875 15.4911 4.6875 15.75C4.6875 16.0089 4.89737 16.2188 5.15625 16.2188Z" fill="white"/>
<path d="M5.15625 11.5312C4.89736 11.5312 4.6875 11.7411 4.6875 12V13.875C4.6875 14.1339 4.89736 14.3438 5.15625 14.3438C5.41514 14.3438 5.625 14.1339 5.625 13.875V12C5.625 11.7411 5.41514 11.5312 5.15625 11.5312Z" fill="white"/>
<path d="M15.75 19.0312H21.6562C21.9151 19.0312 22.125 18.8214 22.125 18.5625C22.125 18.3036 21.9151 18.0938 21.6562 18.0938H15.75C15.4911 18.0938 15.2812 18.3036 15.2812 18.5625C15.2812 18.8214 15.4911 19.0312 15.75 19.0312Z" fill="white"/>
<path d="M15.75 17.1562H17.625C17.8839 17.1562 18.0938 16.9464 18.0938 16.6875C18.0938 16.4286 17.8839 16.2188 17.625 16.2188H15.75C15.4911 16.2188 15.2812 16.4286 15.2812 16.6875C15.2812 16.9464 15.4911 17.1562 15.75 17.1562Z" fill="white"/>
<path d="M21.6562 16.2188H19.5C19.2411 16.2188 19.0312 16.4286 19.0312 16.6875C19.0312 16.9464 19.2411 17.1562 19.5 17.1562H21.6562C21.9151 17.1562 22.125 16.9464 22.125 16.6875C22.125 16.4286 21.9151 16.2188 21.6562 16.2188Z" fill="white"/>
<path d="M21.6562 14.3438H15.75C15.4911 14.3438 15.2812 14.5536 15.2812 14.8125C15.2812 15.0714 15.4911 15.2812 15.75 15.2812H21.6562C21.9151 15.2812 22.125 15.0714 22.125 14.8125C22.125 14.5536 21.9151 14.3438 21.6562 14.3438Z" fill="white"/>
<path d="M14.8125 20.9062C15.0714 20.9062 15.2812 20.6964 15.2812 20.4375C15.2812 20.1786 15.0714 19.9688 14.8125 19.9688C14.5536 19.9688 14.3438 20.1786 14.3438 20.4375C14.3438 20.6964 14.5536 20.9062 14.8125 20.9062Z" fill="white"/>
<path d="M23.5312 3.09375H6.09375C5.83486 3.09375 5.625 3.30361 5.625 3.5625V8.79998C5.47641 8.74725 5.31825 8.71875 5.15625 8.71875C4.65295 8.71875 4.18486 8.99039 3.93455 9.42788L0.184641 15.9902C0.0638437 16.2015 0 16.4426 0 16.6875C0 17.4629 0.630844 18.0938 1.40625 18.0938H5.625V20.4375C5.625 20.6964 5.83486 20.9062 6.09375 20.9062H12.7031C12.962 20.9062 13.1719 20.6964 13.1719 20.4375C13.1719 20.1786 12.962 19.9688 12.7031 19.9688H6.5625V18.0938H8.90625C9.68166 18.0938 10.3125 17.4629 10.3125 16.6875C10.3125 16.4426 10.2487 16.2015 10.1279 15.9904L6.5625 9.75117V4.03125H11.5312V9.1875C11.5312 9.35461 11.6202 9.50906 11.7647 9.59292C11.9093 9.67678 12.0875 9.67739 12.2325 9.59452L13.5966 8.81508L14.5197 9.55355C14.6909 9.69052 14.9341 9.69052 15.1053 9.55355L16.0284 8.81508L17.3925 9.59452C17.5367 9.67697 17.715 9.6773 17.8603 9.59292C18.0048 9.50906 18.0938 9.35461 18.0938 9.1875V4.03125H23.0625V19.9688H16.9219C16.663 19.9688 16.4531 20.1786 16.4531 20.4375C16.4531 20.6964 16.663 20.9062 16.9219 20.9062H23.5312C23.7901 20.9062 24 20.6964 24 20.4375V3.5625C24 3.30361 23.7901 3.09375 23.5312 3.09375ZM9.375 16.6875C9.375 16.946 9.16472 17.1562 8.90625 17.1562H1.40625C1.14778 17.1562 0.9375 16.946 0.9375 16.6875C0.9375 16.6044 0.957984 16.5264 0.998578 16.4555L4.74844 9.89325C4.83206 9.74705 4.98834 9.65625 5.15625 9.65625C5.32416 9.65625 5.48044 9.74705 5.56383 9.89283C6.02437 10.6988 8.952 15.8221 9.31402 16.4557C9.35447 16.5264 9.375 16.6044 9.375 16.6875ZM17.1562 8.37975L16.2169 7.84298C16.0499 7.74759 15.8417 7.76381 15.6915 7.88395L14.8125 8.58722L13.9335 7.884C13.7833 7.76386 13.575 7.74764 13.4081 7.84303L12.4688 8.37975V4.03125H17.1562V8.37975Z" fill="white"/>
</g>
<defs>
<clipPath id="clip0">
<rect width="24" height="24" fill="white"/>
</clipPath>
</defs>
</svg>
