<svg width="22" height="22" viewBox="0 0 22 22" fill="none" xmlns="http://www.w3.org/2000/svg">
<path d="M10.3125 12.0312H7.5625C7.47133 12.0312 7.3839 12.0675 7.31943 12.1319C7.25497 12.1964 7.21875 12.2838 7.21875 12.375C7.21875 12.4662 7.25497 12.5536 7.31943 12.6181C7.3839 12.6825 7.47133 12.7188 7.5625 12.7188H10.3125C10.4037 12.7188 10.4911 12.6825 10.5556 12.6181C10.62 12.5536 10.6562 12.4662 10.6562 12.375C10.6562 12.2838 10.62 12.1964 10.5556 12.1319C10.4911 12.0675 10.4037 12.0312 10.3125 12.0312Z" fill="white"/>
<path d="M11.6875 12.0312H11.3438C11.2526 12.0312 11.1651 12.0675 11.1007 12.1319C11.0362 12.1964 11 12.2838 11 12.375C11 12.4662 11.0362 12.5536 11.1007 12.6181C11.1651 12.6825 11.2526 12.7188 11.3438 12.7188H11.6875C11.7787 12.7188 11.8661 12.6825 11.9306 12.6181C11.995 12.5536 12.0312 12.4662 12.0312 12.375C12.0312 12.2838 11.995 12.1964 11.9306 12.1319C11.8661 12.0675 11.7787 12.0312 11.6875 12.0312Z" fill="white"/>
<path d="M3.78125 15.125C3.57729 15.125 3.37791 15.1855 3.20832 15.2988C3.03873 15.4121 2.90655 15.5732 2.8285 15.7616C2.75045 15.95 2.73002 16.1574 2.76982 16.3574C2.80961 16.5575 2.90782 16.7412 3.05205 16.8855C3.19627 17.0297 3.38002 17.1279 3.58006 17.1677C3.78011 17.2075 3.98746 17.1871 4.17589 17.109C4.36433 17.0309 4.52539 16.8988 4.6387 16.7292C4.75202 16.5596 4.8125 16.3602 4.8125 16.1562C4.81219 15.8828 4.70344 15.6207 4.51011 15.4274C4.31678 15.2341 4.05466 15.1253 3.78125 15.125ZM3.78125 16.5C3.71326 16.5 3.6468 16.4798 3.59027 16.4421C3.53374 16.4043 3.48968 16.3506 3.46367 16.2878C3.43765 16.225 3.43084 16.1559 3.4441 16.0892C3.45737 16.0225 3.49011 15.9613 3.53818 15.9132C3.58626 15.8651 3.64751 15.8324 3.71419 15.8191C3.78087 15.8058 3.84999 15.8126 3.9128 15.8387C3.97561 15.8647 4.0293 15.9087 4.06707 15.9653C4.10484 16.0218 4.125 16.0883 4.125 16.1562C4.1249 16.2474 4.08865 16.3348 4.0242 16.3992C3.95976 16.4636 3.87239 16.4999 3.78125 16.5Z" fill="white"/>
<path d="M18.2188 15.125C18.0148 15.125 17.8154 15.1855 17.6458 15.2988C17.4762 15.4121 17.3441 15.5732 17.266 15.7616C17.1879 15.95 17.1675 16.1574 17.2073 16.3574C17.2471 16.5575 17.3453 16.7412 17.4895 16.8855C17.6338 17.0297 17.8175 17.1279 18.0176 17.1677C18.2176 17.2075 18.425 17.1871 18.6134 17.109C18.8018 17.0309 18.9629 16.8988 19.0762 16.7292C19.1895 16.5596 19.25 16.3602 19.25 16.1562C19.2497 15.8828 19.1409 15.6207 18.9476 15.4274C18.7543 15.2341 18.4922 15.1253 18.2188 15.125ZM18.2188 16.5C18.1508 16.5 18.0843 16.4798 18.0278 16.4421C17.9712 16.4043 17.9272 16.3506 17.9012 16.2878C17.8751 16.225 17.8683 16.1559 17.8816 16.0892C17.8949 16.0225 17.9276 15.9613 17.9757 15.9132C18.0238 15.8651 18.085 15.8324 18.1517 15.8191C18.2184 15.8058 18.2875 15.8126 18.3503 15.8387C18.4131 15.8647 18.4668 15.9087 18.5046 15.9653C18.5423 16.0218 18.5625 16.0883 18.5625 16.1562C18.5624 16.2474 18.5261 16.3348 18.4617 16.3992C18.3973 16.4636 18.3099 16.4999 18.2188 16.5Z" fill="white"/>
<path d="M21.3125 12.0312H20.8703L19.5321 8.13828C19.5088 8.07057 19.465 8.01181 19.4067 7.97022C19.3484 7.92862 19.2786 7.90626 19.207 7.90625H15.125C15.0338 7.90625 14.9464 7.94247 14.8819 8.00693C14.8175 8.0714 14.7812 8.15883 14.7812 8.25V13.0625H13.0625V3.09375C13.0625 3.00258 13.0263 2.91515 12.9618 2.85068C12.8974 2.78622 12.8099 2.75 12.7188 2.75H2.40625C2.31508 2.75 2.22765 2.78622 2.16318 2.85068C2.09872 2.91515 2.0625 3.00258 2.0625 3.09375V13.0625H0.6875C0.596332 13.0625 0.508898 13.0987 0.444432 13.1632C0.379966 13.2276 0.34375 13.3151 0.34375 13.4062V16.1562C0.34375 16.2474 0.379966 16.3349 0.444432 16.3993C0.508898 16.4638 0.596332 16.5 0.6875 16.5H1.39996C1.48253 17.0727 1.76871 17.5964 2.20607 17.9752C2.64342 18.3541 3.20265 18.5626 3.78125 18.5626C4.35985 18.5626 4.91908 18.3541 5.35643 17.9752C5.79379 17.5964 6.07997 17.0727 6.16254 16.5H15.8375C15.92 17.0727 16.2062 17.5964 16.6436 17.9752C17.0809 18.3541 17.6401 18.5626 18.2188 18.5626C18.7974 18.5626 19.3566 18.3541 19.7939 17.9752C20.2313 17.5964 20.5175 17.0727 20.6 16.5H21.3125C21.4037 16.5 21.4911 16.4638 21.5556 16.3993C21.62 16.3349 21.6562 16.2474 21.6562 16.1562V12.375C21.6562 12.2838 21.62 12.1964 21.5556 12.1319C21.4911 12.0675 21.4037 12.0312 21.3125 12.0312ZM15.4688 8.59375H18.9617L20.1434 12.0312H15.4688V8.59375ZM8.9375 3.4375V7.31208L7.73382 6.61998C7.68169 6.59002 7.62262 6.57425 7.5625 6.57425C7.50238 6.57425 7.44331 6.59002 7.39118 6.61998L6.1875 7.31208V3.4375H8.9375ZM2.75 3.4375H5.5V7.90625C5.50001 7.96653 5.51586 8.02575 5.54598 8.07797C5.5761 8.13019 5.61943 8.17357 5.67161 8.20376C5.72379 8.23395 5.78299 8.24989 5.84327 8.24997C5.90356 8.25005 5.9628 8.23428 6.01507 8.20424L7.5625 7.31448L9.10993 8.20424C9.1622 8.23428 9.22144 8.25005 9.28173 8.24997C9.34201 8.24989 9.40121 8.23395 9.45339 8.20376C9.50557 8.17357 9.54889 8.13019 9.57902 8.07797C9.60914 8.02575 9.625 7.96653 9.625 7.90625V3.4375H12.375V13.0625H2.75V3.4375ZM1.03125 13.75H14.7812V15.8125H6.16254C6.07997 15.2398 5.79379 14.7161 5.35643 14.3372C4.91908 13.9584 4.35985 13.7499 3.78125 13.7499C3.20265 13.7499 2.64342 13.9584 2.20607 14.3372C1.76871 14.7161 1.48253 15.2398 1.39996 15.8125H1.03125V13.75ZM3.78125 17.875C3.44131 17.875 3.10901 17.7742 2.82636 17.5853C2.54372 17.3965 2.32342 17.128 2.19333 16.814C2.06324 16.4999 2.02921 16.1543 2.09553 15.8209C2.16184 15.4875 2.32554 15.1813 2.56591 14.9409C2.80628 14.7005 3.11253 14.5368 3.44594 14.4705C3.77934 14.4042 4.12493 14.4382 4.43899 14.5683C4.75305 14.6984 5.02148 14.9187 5.21034 15.2014C5.3992 15.484 5.5 15.8163 5.5 16.1562C5.49949 16.6119 5.31824 17.0488 4.99602 17.371C4.67381 17.6932 4.23693 17.8745 3.78125 17.875ZM18.2188 17.875C17.8788 17.875 17.5465 17.7742 17.2639 17.5853C16.9812 17.3965 16.7609 17.128 16.6308 16.814C16.5007 16.4999 16.4667 16.1543 16.533 15.8209C16.5993 15.4875 16.763 15.1813 17.0034 14.9409C17.2438 14.7005 17.55 14.5368 17.8834 14.4705C18.2168 14.4042 18.5624 14.4382 18.8765 14.5683C19.1905 14.6984 19.459 14.9187 19.6478 15.2014C19.8367 15.484 19.9375 15.8163 19.9375 16.1562C19.937 16.6119 19.7557 17.0488 19.4335 17.371C19.1113 17.6932 18.6744 17.8745 18.2188 17.875ZM20.9688 15.8125H20.6C20.5175 15.2398 20.2313 14.7161 19.7939 14.3372C19.3566 13.9584 18.7974 13.7499 18.2188 13.7499C17.6401 13.7499 17.0809 13.9584 16.6436 14.3372C16.2062 14.7161 15.92 15.2398 15.8375 15.8125H15.4688V12.7187H20.9688V15.8125Z" fill="white"/>
</svg>
