<svg width="41" height="41" viewBox="0 0 41 41" fill="none" xmlns="http://www.w3.org/2000/svg">
<g clip-path="url(#clip0)">
<path d="M38.5579 24.892L35.6881 19.2554C35.5514 18.9868 35.2755 18.8177 34.9741 18.8177H20.4984H6.02252C5.72111 18.8177 5.44527 18.9868 5.3085 19.2554L2.43876 24.892C2.31233 25.1404 2.32403 25.4366 2.46968 25.6743C2.61534 25.9119 2.87404 26.0567 3.15269 26.0567H4.15272V40.1989C4.15272 40.6413 4.51141 41 4.9539 41H36.0403C36.4827 41 36.8414 40.6413 36.8414 40.1989V26.0568H37.8438C38.1225 26.0568 38.3812 25.9119 38.5268 25.6743C38.6726 25.4366 38.6843 25.1404 38.5579 24.892ZM34.483 20.42L36.537 24.4543H23.8593L21.8053 20.42H34.483ZM6.51372 20.42H19.1914L17.1375 24.4543H4.45973L6.51372 20.42ZM35.2392 39.3977H21.2996V34.9573C21.2996 34.5149 20.9409 34.1561 20.4984 34.1561C20.0559 34.1561 19.6972 34.5149 19.6972 34.9573V39.3977H5.75524V26.0568H17.6287C17.9301 26.0568 18.2059 25.8877 18.3427 25.6191L19.6972 22.9584V27.7628C19.6972 28.2052 20.0559 28.564 20.4984 28.564C20.9409 28.564 21.2996 28.2052 21.2996 27.7628V22.9584L22.6541 25.6191C22.7909 25.8877 23.0667 26.0568 23.3681 26.0568H35.2392V39.3977Z" fill="#00B857"/>
<path d="M13.6484 35.01H9.08634C8.64384 35.01 8.28516 35.3687 8.28516 35.8112C8.28516 36.2536 8.64384 36.6123 9.08634 36.6123H13.6484C14.0909 36.6123 14.4496 36.2536 14.4496 35.8112C14.4496 35.3687 14.0909 35.01 13.6484 35.01Z" fill="#00B857"/>
<path d="M20.4974 16.4617C25.0308 16.4617 28.7191 12.7688 28.7191 8.22972C28.719 3.69184 25.0308 0 20.4974 0C15.9627 0 12.2734 3.69184 12.2734 8.22972C12.2734 12.7688 15.9626 16.4617 20.4974 16.4617ZM20.4974 1.60236C24.1473 1.60236 27.1167 4.57538 27.1167 8.22972C27.1167 11.8853 24.1473 14.8593 20.4974 14.8593C16.8462 14.8593 13.8758 11.8853 13.8758 8.22972C13.8758 4.57538 16.8462 1.60236 20.4974 1.60236Z" fill="#00B857"/>
<path d="M16.9081 9.43126L19.0406 11.2389C19.1859 11.362 19.3697 11.4289 19.5587 11.4289C19.5814 11.4289 19.6042 11.428 19.6271 11.426C19.8397 11.4078 20.0362 11.3055 20.1732 11.1419L24.1863 6.34552C24.4702 6.00622 24.4253 5.50091 24.086 5.2169C23.7466 4.93312 23.2414 4.97791 22.9574 5.31729L19.4617 9.4952L17.9444 8.2089C17.6068 7.9228 17.1012 7.9643 16.8152 8.302C16.5289 8.63962 16.5706 9.14508 16.9081 9.43126Z" fill="#00B857"/>
<path d="M4.75821 9.03098H8.2246C8.66709 9.03098 9.02578 8.67221 9.02578 8.2298C9.02578 7.78739 8.66709 7.42862 8.2246 7.42862H4.75821C4.31572 7.42862 3.95703 7.78739 3.95703 8.2298C3.95703 8.67221 4.31572 9.03098 4.75821 9.03098Z" fill="#00B857"/>
<path d="M4.38459 3.45605L7.85098 5.28426C7.9702 5.34715 8.09798 5.37695 8.22409 5.37695C8.51171 5.37695 8.78988 5.22161 8.93345 4.94936C9.13984 4.55799 8.98994 4.07335 8.59856 3.86697L5.13209 2.03876C4.74088 1.83238 4.25608 1.9822 4.0497 2.37365C3.84332 2.76503 3.99322 3.24966 4.38459 3.45605Z" fill="#00B857"/>
<path d="M4.04949 14.0852C4.19298 14.3576 4.47115 14.5132 4.75901 14.5132C4.88488 14.5132 5.01266 14.4835 5.13172 14.4208L8.59811 12.5949C8.98956 12.3887 9.13978 11.9041 8.93356 11.5126C8.72734 11.1211 8.24278 10.971 7.85133 11.1771L4.38494 13.003C3.99348 13.2092 3.84334 13.6938 4.04949 14.0852Z" fill="#00B857"/>
<path d="M32.7699 9.03098H36.2363C36.6788 9.03098 37.0375 8.67221 37.0375 8.2298C37.0375 7.78739 36.6788 7.42862 36.2363 7.42862H32.7699C32.3274 7.42862 31.9688 7.78739 31.9688 8.2298C31.9688 8.67221 32.3274 9.03098 32.7699 9.03098Z" fill="#00B857"/>
<path d="M32.7707 5.37701C32.8967 5.37701 33.0246 5.34721 33.1438 5.28432L36.6102 3.4561C37.0016 3.24972 37.1515 2.76509 36.9451 2.37371C36.7386 1.98233 36.2541 1.83227 35.8627 2.03882L32.3963 3.86703C32.0049 4.07341 31.855 4.55805 32.0614 4.94942C32.205 5.22166 32.483 5.37701 32.7707 5.37701Z" fill="#00B857"/>
<path d="M32.3967 12.5949L35.8631 14.4208C35.9822 14.4835 36.1099 14.5132 36.2358 14.5132C36.5236 14.5132 36.8018 14.3577 36.9453 14.0852C37.1515 13.6938 37.0013 13.2092 36.6099 13.003L33.1435 11.1771C32.7519 10.9709 32.2675 11.121 32.0612 11.5126C31.855 11.9041 32.0052 12.3886 32.3967 12.5949Z" fill="#00B857"/>
<path d="M20.4965 30.5589C20.054 30.5589 19.6953 30.9177 19.6953 31.3601V31.3646C19.6953 31.8071 20.054 32.1636 20.4965 32.1636C20.939 32.1636 21.2977 31.8026 21.2977 31.3602C21.2977 30.9177 20.939 30.5589 20.4965 30.5589Z" fill="#00B857"/>
</g>
<defs>
<clipPath id="clip0">
<rect width="41" height="41" fill="white"/>
</clipPath>
</defs>
</svg>
