<svg width="42" height="42" viewBox="0 0 42 42" fill="none" xmlns="http://www.w3.org/2000/svg">
<path d="M38.7188 22.9688H30.1875V1.3125C30.1875 1.13845 30.1184 0.971532 29.9953 0.848461C29.8722 0.72539 29.7053 0.65625 29.5312 0.65625H3.28125C3.1072 0.65625 2.94028 0.72539 2.81721 0.848461C2.69414 0.971532 2.625 1.13845 2.625 1.3125V36.0938C2.62656 37.4857 3.18019 38.8201 4.16442 39.8043C5.14864 40.7886 6.48309 41.3422 7.875 41.3438H34.125C35.3437 41.3392 36.5233 40.9128 37.4632 40.137C38.403 39.3611 39.0453 38.2837 39.2807 37.088C39.3421 36.9859 39.3747 36.8691 39.375 36.75V23.625C39.375 23.451 39.3059 23.284 39.1828 23.161C39.0597 23.0379 38.8928 22.9688 38.7188 22.9688ZM7.875 40.0312C6.83105 40.0301 5.83017 39.6149 5.09199 38.8768C4.35381 38.1386 3.93861 37.1377 3.9375 36.0938V1.96875H28.875V36.0938C28.8749 36.8392 29.0339 37.576 29.3415 38.2551C29.649 38.9341 30.098 39.5397 30.6584 40.0312H7.875ZM38.0625 36.0938C38.0628 36.2823 38.0494 36.4707 38.0223 36.6573C37.8804 37.6429 37.3703 38.5382 36.5947 39.1628C35.8192 39.7874 34.8357 40.0949 33.8425 40.0235C32.8493 39.952 31.92 39.5069 31.2418 38.7778C30.5636 38.0486 30.1869 37.0896 30.1875 36.0938V24.2812H38.0625V36.0938Z" fill="#00B857"/>
<path d="M6.5625 19.6875C6.5625 19.8173 6.60098 19.9442 6.67309 20.0521C6.7452 20.1601 6.8477 20.2442 6.96761 20.2938C7.08753 20.3435 7.21948 20.3565 7.34679 20.3312C7.47409 20.3059 7.59102 20.2434 7.6828 20.1516L9.84375 17.9905L12.0047 20.1516C12.0965 20.2434 12.2134 20.3059 12.3407 20.3312C12.468 20.3565 12.6 20.3435 12.7199 20.2938C12.8398 20.2442 12.9423 20.1601 13.0144 20.0521C13.0865 19.9442 13.125 19.8173 13.125 19.6875V13.0543C13.7581 12.4082 14.1863 11.5896 14.356 10.701C14.5256 9.81253 14.4292 8.89371 14.0788 8.05977C13.7284 7.22584 13.1395 6.51392 12.3862 6.01329C11.6328 5.51266 10.7483 5.24561 9.84375 5.24561C8.93919 5.24561 8.05475 5.51266 7.30135 6.01329C6.54796 6.51392 5.95913 7.22584 5.60871 8.05977C5.25828 8.89371 5.16187 9.81253 5.33154 10.701C5.50122 11.5896 5.92944 12.4082 6.5625 13.0543V19.6875ZM10.3078 16.5985C10.2469 16.5375 10.1745 16.4892 10.0949 16.4562C10.0153 16.4232 9.92994 16.4063 9.84375 16.4063C9.75757 16.4063 9.67223 16.4232 9.59261 16.4562C9.51299 16.4892 9.44064 16.5375 9.3797 16.5985L7.875 18.1033V13.9935C8.49013 14.2859 9.16266 14.4376 9.84375 14.4376C10.5248 14.4376 11.1974 14.2859 11.8125 13.9935V18.1033L10.3078 16.5985ZM9.84375 6.56252C10.4927 6.56252 11.1271 6.75496 11.6667 7.11551C12.2063 7.47606 12.6269 7.98852 12.8752 8.58809C13.1236 9.18766 13.1886 9.84741 13.062 10.4839C12.9353 11.1204 12.6228 11.7051 12.1639 12.164C11.7051 12.6229 11.1204 12.9354 10.4839 13.062C9.84739 13.1886 9.18764 13.1236 8.58807 12.8753C7.9885 12.6269 7.47604 12.2063 7.11549 11.6667C6.75494 11.1271 6.5625 10.4927 6.5625 9.84377C6.56348 8.97383 6.9095 8.1398 7.52464 7.52466C8.13978 6.90952 8.97381 6.5635 9.84375 6.56252Z" fill="#00B857"/>
<path d="M26.9062 5.90625H17.0625C16.8885 5.90625 16.7215 5.97539 16.5985 6.09846C16.4754 6.22153 16.4062 6.38845 16.4062 6.5625C16.4062 6.73655 16.4754 6.90347 16.5985 7.02654C16.7215 7.14961 16.8885 7.21875 17.0625 7.21875H26.9062C27.0803 7.21875 27.2472 7.14961 27.3703 7.02654C27.4934 6.90347 27.5625 6.73655 27.5625 6.5625C27.5625 6.38845 27.4934 6.22153 27.3703 6.09846C27.2472 5.97539 27.0803 5.90625 26.9062 5.90625Z" fill="#00B857"/>
<path d="M26.9062 8.53125H17.0625C16.8885 8.53125 16.7215 8.60039 16.5985 8.72346C16.4754 8.84653 16.4062 9.01345 16.4062 9.1875C16.4062 9.36155 16.4754 9.52847 16.5985 9.65154C16.7215 9.77461 16.8885 9.84375 17.0625 9.84375H26.9062C27.0803 9.84375 27.2472 9.77461 27.3703 9.65154C27.4934 9.52847 27.5625 9.36155 27.5625 9.1875C27.5625 9.01345 27.4934 8.84653 27.3703 8.72346C27.2472 8.60039 27.0803 8.53125 26.9062 8.53125Z" fill="#00B857"/>
<path d="M26.9062 11.1562H17.0625C16.8885 11.1562 16.7215 11.2254 16.5985 11.3485C16.4754 11.4715 16.4062 11.6385 16.4062 11.8125C16.4062 11.9865 16.4754 12.1535 16.5985 12.2765C16.7215 12.3996 16.8885 12.4688 17.0625 12.4688H26.9062C27.0803 12.4688 27.2472 12.3996 27.3703 12.2765C27.4934 12.1535 27.5625 11.9865 27.5625 11.8125C27.5625 11.6385 27.4934 11.4715 27.3703 11.3485C27.2472 11.2254 27.0803 11.1562 26.9062 11.1562Z" fill="#00B857"/>
<path d="M9.84375 24.9375C9.84375 25.1115 9.91289 25.2785 10.036 25.4015C10.159 25.5246 10.326 25.5938 10.5 25.5938H22.3125C22.4865 25.5938 22.6535 25.5246 22.7765 25.4015C22.8996 25.2785 22.9688 25.1115 22.9688 24.9375C22.9688 24.7635 22.8996 24.5965 22.7765 24.4735C22.6535 24.3504 22.4865 24.2812 22.3125 24.2812H10.5C10.326 24.2812 10.159 24.3504 10.036 24.4735C9.91289 24.5965 9.84375 24.7635 9.84375 24.9375Z" fill="#00B857"/>
<path d="M22.3125 32.1562H10.5C10.326 32.1562 10.159 32.2254 10.036 32.3485C9.91289 32.4715 9.84375 32.6385 9.84375 32.8125C9.84375 32.9865 9.91289 33.1535 10.036 33.2765C10.159 33.3996 10.326 33.4688 10.5 33.4688H22.3125C22.4865 33.4688 22.6535 33.3996 22.7765 33.2765C22.8996 33.1535 22.9688 32.9865 22.9688 32.8125C22.9688 32.6385 22.8996 32.4715 22.7765 32.3485C22.6535 32.2254 22.4865 32.1562 22.3125 32.1562Z" fill="#00B857"/>
<path d="M26.9062 26.9062H5.90625C5.7322 26.9062 5.56528 26.9754 5.44221 27.0985C5.31914 27.2215 5.25 27.3885 5.25 27.5625C5.25 27.7365 5.31914 27.9035 5.44221 28.0265C5.56528 28.1496 5.7322 28.2188 5.90625 28.2188H26.9062C27.0803 28.2188 27.2472 28.1496 27.3703 28.0265C27.4934 27.9035 27.5625 27.7365 27.5625 27.5625C27.5625 27.3885 27.4934 27.2215 27.3703 27.0985C27.2472 26.9754 27.0803 26.9062 26.9062 26.9062Z" fill="#00B857"/>
<path d="M26.9062 29.5312H5.90625C5.7322 29.5312 5.56528 29.6004 5.44221 29.7235C5.31914 29.8465 5.25 30.0135 5.25 30.1875C5.25 30.3615 5.31914 30.5285 5.44221 30.6515C5.56528 30.7746 5.7322 30.8438 5.90625 30.8438H26.9062C27.0803 30.8438 27.2472 30.7746 27.3703 30.6515C27.4934 30.5285 27.5625 30.3615 27.5625 30.1875C27.5625 30.0135 27.4934 29.8465 27.3703 29.7235C27.2472 29.6004 27.0803 29.5312 26.9062 29.5312Z" fill="#00B857"/>
<path d="M26.9062 13.7812H17.0625C16.8885 13.7812 16.7215 13.8504 16.5985 13.9735C16.4754 14.0965 16.4062 14.2635 16.4062 14.4375V19.6875C16.4062 19.8615 16.4754 20.0285 16.5985 20.1515C16.7215 20.2746 16.8885 20.3438 17.0625 20.3438H26.9062C27.0803 20.3438 27.2472 20.2746 27.3703 20.1515C27.4934 20.0285 27.5625 19.8615 27.5625 19.6875V14.4375C27.5625 14.2635 27.4934 14.0965 27.3703 13.9735C27.2472 13.8504 27.0803 13.7812 26.9062 13.7812ZM26.25 19.0312H17.7188V15.0938H26.25V19.0312Z" fill="#00B857"/>
</svg>
