<svg width="41" height="41" viewBox="0 0 41 41" fill="none" xmlns="http://www.w3.org/2000/svg">
<path d="M40.8825 28.1138C40.5249 26.9889 39.2783 25.9947 37.3862 26.4692C37.3817 26.4703 37.3772 26.4714 37.3727 26.4727L29.4659 28.6041C29.1808 27.3621 27.9899 26.51 26.6952 26.6705C26.2384 26.7273 24.6931 26.9469 23.057 27.1793C21.4954 27.4012 19.8807 27.6307 19.4369 27.6857C18.4594 27.8072 17.1586 27.7043 15.7812 27.5955C15.2952 27.5571 14.7926 27.5173 14.2783 27.4849C13.8359 27.4559 13.4566 27.7923 13.4287 28.2337C13.4008 28.6751 13.7361 29.0556 14.1775 29.0833C14.6792 29.115 15.1753 29.1542 15.655 29.1921C17.1158 29.3076 18.4955 29.4165 19.6343 29.2751C20.092 29.2182 21.6417 28.998 23.2824 28.7649C24.8396 28.5435 26.4498 28.3148 26.8927 28.2597C27.3968 28.1978 27.8586 28.5536 27.9212 29.0544C27.9411 29.2129 27.9937 29.6338 26.8864 30.1415C24.6089 31.1856 22.1815 32.0795 20.227 32.5936C19.7992 32.7061 19.5438 33.1441 19.6563 33.5718C19.7687 33.9996 20.2066 34.2549 20.6344 34.1425C22.6742 33.606 25.1962 32.6783 27.5539 31.5973C28.3732 31.2217 28.8728 30.7842 29.1645 30.3439L37.7822 28.0209C38.7313 27.7849 39.2181 28.1643 39.3561 28.5989C39.4893 29.0177 39.3221 29.5572 38.6491 29.8194C37.9784 30.0721 36.3734 30.7703 34.3428 31.6537C31.6491 32.8255 28.2967 34.2839 25.623 35.356C22.3345 36.6747 21.3993 36.8503 17.9198 36.8132L12.4378 36.7525C12.4348 36.7524 12.4318 36.7524 12.4289 36.7524C12.1291 36.7524 11.854 36.9201 11.7167 37.1871L10.9642 38.6513C10.9383 38.702 10.9177 38.7551 10.903 38.8101C10.7918 39.2249 10.6519 39.3983 10.0727 39.3983H2.01386C1.92626 39.3983 1.83201 39.344 1.75529 39.2496C1.68987 39.1691 1.54605 38.9416 1.62373 38.5706C2.5881 33.9672 4.48851 31.1155 7.43369 29.8525C7.84017 29.6782 8.02835 29.2074 7.85402 28.8009C7.67969 28.3945 7.20915 28.2063 6.80244 28.3806C3.3422 29.8644 1.13549 33.0902 0.0562023 38.2422C-0.0978674 38.9778 0.068294 39.713 0.512085 40.2593C0.894297 40.7299 1.44163 40.9998 2.01378 40.9998H10.0727C11.2851 40.9998 12.0966 40.417 12.4252 39.3125L12.9149 38.3594L17.9021 38.4146C21.5794 38.4563 22.7463 38.235 26.219 36.8424C28.9142 35.7617 32.2785 34.2982 34.9817 33.1222C36.9163 32.2805 38.5872 31.5537 39.2174 31.3167C39.2199 31.3158 39.2224 31.3148 39.225 31.3138C40.7885 30.7081 41.2422 29.2455 40.8825 28.1138Z" fill="#00B857"/>
<path d="M17.2969 9.83685C18.6215 9.83685 19.6992 8.75916 19.6992 7.43451C19.6992 6.10986 18.6215 5.03217 17.2969 5.03217C15.9722 5.03217 14.8945 6.10986 14.8945 7.43451C14.8945 8.75916 15.9722 9.83685 17.2969 9.83685ZM17.2969 6.63373C17.7384 6.63373 18.0977 6.99296 18.0977 7.43451C18.0977 7.87606 17.7384 8.23529 17.2969 8.23529C16.8553 8.23529 16.4961 7.87606 16.4961 7.43451C16.4961 6.99296 16.8553 6.63373 17.2969 6.63373Z" fill="#00B857"/>
<path d="M21.3008 13.8406C21.3008 15.1654 22.3785 16.243 23.7031 16.243C25.0278 16.243 26.1055 15.1654 26.1055 13.8406C26.1055 12.516 25.0278 11.4384 23.7031 11.4384C22.3785 11.4384 21.3008 12.516 21.3008 13.8406ZM24.5039 13.8406C24.5039 14.2822 24.1447 14.6415 23.7031 14.6415C23.2616 14.6415 22.9023 14.2822 22.9023 13.8406C22.9023 13.3991 23.2616 13.0399 23.7031 13.0399C24.1447 13.0399 24.5039 13.3991 24.5039 13.8406Z" fill="#00B857"/>
<path d="M17.3263 16.1358C17.4524 16.2086 17.5901 16.2433 17.7259 16.2433C18.0026 16.2433 18.2718 16.0996 18.4201 15.8427L23.968 6.23337C24.1892 5.85036 24.058 5.36068 23.6749 5.13951C23.2919 4.91825 22.8022 5.04966 22.5811 5.43259L17.0332 15.042C16.8121 15.425 16.9433 15.9147 17.3263 16.1358Z" fill="#00B857"/>
<path d="M9.64378 15.8764L19.2585 25.5624C19.589 25.8948 20.0292 26.0787 20.4981 26.0801H20.5031C20.9702 26.0801 21.4095 25.8988 21.7443 25.5657L31.4305 15.8076C32.1125 15.1215 32.1094 14.0083 31.4233 13.3258C31.0905 12.9948 30.6508 12.8125 30.1856 12.8125H29.3101V2.40233C29.3101 1.07769 28.2324 0 26.9078 0H14.0953C12.7707 0 11.693 1.07769 11.693 2.40233V12.8125H10.8204C9.85111 12.8125 9.0625 13.6011 9.0625 14.5702C9.0625 15.069 9.27391 15.5431 9.64378 15.8764ZM10.8204 14.414H12.4938C12.9359 14.414 13.2945 14.0554 13.2945 13.6132V2.40233C13.2945 1.96079 13.6538 1.60156 14.0953 1.60156H26.9078C27.3493 1.60156 27.7085 1.96079 27.7085 2.40233V13.6132C27.7085 14.0554 28.0671 14.414 28.5093 14.414H30.1856C30.2082 14.414 30.2525 14.4202 30.2939 14.4613C30.3539 14.5211 30.3542 14.6185 30.2945 14.6786C30.2943 14.6787 30.2942 14.679 30.2939 14.6791L20.6111 24.4338C20.5741 24.4707 20.532 24.4784 20.503 24.4784C20.5028 24.4784 20.5027 24.4784 20.5025 24.4784C20.4735 24.4783 20.4311 24.4704 20.3946 24.4337L10.7623 14.7298C10.7481 14.7156 10.7334 14.7018 10.7182 14.6886C10.6979 14.6711 10.6639 14.6324 10.6639 14.5702C10.6641 14.4841 10.7341 14.414 10.8204 14.414Z" fill="#00B857"/>
<path d="M10.6247 27.4825C10.1825 27.4825 9.82422 27.8411 9.82422 28.2833C9.82422 28.7255 10.183 29.084 10.6252 29.084C11.0674 29.084 11.426 28.7255 11.426 28.2833C11.426 27.8411 11.0674 27.4825 10.6252 27.4825H10.6247Z" fill="#00B857"/>
</svg>
