<svg width="40" height="40" viewBox="0 0 40 40" fill="none" xmlns="http://www.w3.org/2000/svg">
<path d="M35.625 0H9.53281C9.10133 0 8.75156 0.349766 8.75156 0.78125V4.05273H4.375C3.94352 4.05273 3.59375 4.4025 3.59375 4.83398V18.5108C3.59375 18.9423 3.94352 19.292 4.375 19.292C4.80648 19.292 5.15625 18.9423 5.15625 18.5108V5.61523H29.6859V38.4375H5.15625V25.542C5.15625 25.1105 4.80648 24.7608 4.375 24.7608C3.94352 24.7608 3.59375 25.1105 3.59375 25.542V39.2188C3.59375 39.6502 3.94352 40 4.375 40H30.4672C30.8987 40 31.2484 39.6502 31.2484 39.2188V35.9473H35.625C36.0565 35.9473 36.4062 35.5975 36.4062 35.166V0.78125C36.4062 0.349766 36.0565 0 35.625 0ZM34.8438 34.3848H31.2484V4.83398C31.2484 4.4025 30.8987 4.05273 30.4672 4.05273H10.3141V1.5625H34.8438V34.3848Z" fill="#00B857"/>
<path d="M4.375 22.8078C4.58047 22.8078 4.78203 22.7242 4.92734 22.5789C5.07266 22.4336 5.15625 22.232 5.15625 22.0266C5.15625 21.8211 5.07266 21.6195 4.92734 21.4742C4.78203 21.3281 4.58047 21.2453 4.375 21.2453C4.16953 21.2453 3.96797 21.3281 3.82266 21.4742C3.67734 21.6195 3.59375 21.8203 3.59375 22.0266C3.59375 22.232 3.67734 22.4336 3.82266 22.5789C3.96797 22.7242 4.16953 22.8078 4.375 22.8078Z" fill="#00B857"/>
<path d="M8.91406 24.5264H25.7891C26.2205 24.5264 26.5703 24.1767 26.5703 23.7452V10.3077C26.5703 9.87619 26.2205 9.52643 25.7891 9.52643H8.91406C8.48258 9.52643 8.13281 9.87619 8.13281 10.3077V23.7452C8.13281 24.1766 8.48258 24.5264 8.91406 24.5264ZM9.69531 11.0889H25.0078V22.9639H9.69531V11.0889Z" fill="#00B857"/>
<path d="M8.91406 30.1514H25.7891C26.2205 30.1514 26.5703 29.8016 26.5703 29.3701C26.5703 28.9387 26.2205 28.5889 25.7891 28.5889H8.91406C8.48258 28.5889 8.13281 28.9387 8.13281 29.3701C8.13281 29.8016 8.48258 30.1514 8.91406 30.1514Z" fill="#00B857"/>
<path d="M8.91406 34.5264H25.7891C26.2205 34.5264 26.5703 34.1766 26.5703 33.7451C26.5703 33.3137 26.2205 32.9639 25.7891 32.9639H8.91406C8.48258 32.9639 8.13281 33.3137 8.13281 33.7451C8.13281 34.1766 8.48258 34.5264 8.91406 34.5264Z" fill="#00B857"/>
<path d="M19.794 14.5257L16.4499 17.8698L14.904 16.3238C14.599 16.0188 14.1043 16.0188 13.7991 16.3238C13.494 16.6289 13.494 17.1236 13.7991 17.4288L15.8974 19.5271C16.05 19.6796 16.2499 19.7559 16.4498 19.7559C16.6497 19.7559 16.8497 19.6796 17.0022 19.5271L20.8987 15.6306C21.2038 15.3255 21.2038 14.8308 20.8987 14.5256C20.5938 14.2206 20.0991 14.2206 19.794 14.5257Z" fill="#00B857"/>
</svg>
