<svg width="24" height="25" viewBox="0 0 24 25" fill="none" xmlns="http://www.w3.org/2000/svg">
<g clip-path="url(#clip0)">
<path d="M6.26416 1.27954L5.49954 2.03889C5.26074 2.27787 5.12919 2.59582 5.12919 2.93564C5.12919 3.27526 5.26074 3.59359 5.49954 3.83257L14.1621 12.4947L5.48992 21.1669C5.25113 21.4055 5.11977 21.7238 5.11977 22.0634C5.11977 22.4031 5.25113 22.7216 5.48992 22.9604L6.24984 23.7199C6.74401 24.2145 7.54898 24.2145 8.04315 23.7199L18.4055 13.3947C18.6441 13.1561 18.8122 12.8381 18.8122 12.4955L18.8122 12.4915C18.8122 12.1517 18.6439 11.8338 18.4055 11.5952L8.07123 1.27954C7.83262 1.04056 7.50506 0.909378 7.16544 0.909002C6.82562 0.909002 6.50258 1.04056 6.26416 1.27954Z" fill="#F6F7FB"/>
</g>
<defs>
<clipPath id="clip0">
<rect width="23.1818" height="23.1818" fill="white" transform="translate(0.375 24.0908) rotate(-90)"/>
</clipPath>
</defs>
</svg>
