<svg width="16" height="16" viewBox="0 0 16 16" fill="none" xmlns="http://www.w3.org/2000/svg">
<g clip-path="url(#clip0)">
<path d="M15.7443 4.06427L15.2202 3.53653C15.0552 3.37172 14.8358 3.28092 14.6012 3.28092C14.3668 3.28092 14.1471 3.37172 13.9822 3.53653L8.00358 9.51537L2.0181 3.5299C1.85341 3.36508 1.6337 3.27441 1.3993 3.27441C1.16489 3.27441 0.945048 3.36508 0.780234 3.5299L0.256002 4.05439C-0.085334 4.39546 -0.085334 4.95105 0.256002 5.29212L7.38243 12.4442C7.54712 12.6089 7.76657 12.7249 8.00306 12.7249H8.00579C8.24033 12.7249 8.45978 12.6087 8.62446 12.4442L15.7443 5.3115C15.9092 5.14682 15.9997 4.92074 16 4.68633C16 4.45179 15.9092 4.22883 15.7443 4.06427Z" fill="#343B4C"/>
</g>
<defs>
<clipPath id="clip0">
<rect width="16" height="16" fill="white"/>
</clipPath>
</defs>
</svg>
