<svg width="16" height="16" viewBox="0 0 16 16" fill="none" xmlns="http://www.w3.org/2000/svg">
<g clip-path="url(#clip0)">
<path d="M0.255743 11.9357L0.779844 12.4635C0.944789 12.6283 1.16424 12.7191 1.39878 12.7191C1.63318 12.7191 1.85289 12.6283 2.01784 12.4635L7.99642 6.48463L13.9819 12.4701C14.1466 12.6349 14.3663 12.7256 14.6007 12.7256C14.8351 12.7256 15.055 12.6349 15.2198 12.4701L15.744 11.9456C16.0853 11.6045 16.0853 11.049 15.744 10.7079L8.61757 3.55582C8.45288 3.39114 8.23343 3.27511 7.99694 3.27511L7.99421 3.27511C7.75967 3.27511 7.54022 3.39127 7.37554 3.55582L0.255743 10.6885C0.0907982 10.8532 0.000260209 11.0793 -1.23433e-07 11.3137C-1.02929e-07 11.5482 0.0907983 11.7712 0.255743 11.9357Z" fill="#00B857"/>
</g>
<defs>
<clipPath id="clip0">
<rect width="16" height="16" fill="white" transform="translate(16 16) rotate(180)"/>
</clipPath>
</defs>
</svg>
