<svg width="41" height="41" viewBox="0 0 41 41" fill="none" xmlns="http://www.w3.org/2000/svg">
<path d="M28.5342 16.1758H23.7295C23.0663 16.1758 22.5283 16.7135 22.5283 17.377V39.7988C22.5283 40.4623 23.0663 41 23.7295 41H28.5342C29.1976 41 29.7354 40.4623 29.7354 39.7988V17.377C29.7354 16.7135 29.1976 16.1758 28.5342 16.1758ZM27.333 38.5977H24.9307V18.5781H27.333V38.5977Z" fill="#00B857"/>
<path d="M17.2705 22.582H12.4658C11.8024 22.582 11.2646 23.1197 11.2646 23.7832V39.7988C11.2646 40.4623 11.8024 41 12.4658 41H17.2705C17.9337 41 18.4717 40.4623 18.4717 39.7988V23.7832C18.4717 23.1197 17.9337 22.582 17.2705 22.582ZM16.0693 38.5977H13.667V24.9844H16.0693V38.5977Z" fill="#00B857"/>
<path d="M3.60352 29.7891H6.00586C6.66932 29.7891 7.20703 29.2514 7.20703 28.5879C7.20703 27.9244 6.66932 27.3867 6.00586 27.3867H4.80469V26.9863C4.80469 26.3229 4.26698 25.7852 3.60352 25.7852C2.94006 25.7852 2.40234 26.3229 2.40234 26.9863V27.5932C1.0041 28.0893 0 29.4243 0 30.9902C0 32.9772 1.61658 34.5938 3.60352 34.5938C4.26572 34.5938 4.80469 35.1327 4.80469 35.7949C4.80469 36.4571 4.26572 36.9961 3.60352 36.9961H1.20117C0.537712 36.9961 0 37.5338 0 38.1973C0 38.8607 0.537712 39.3984 1.20117 39.3984H2.40234V39.7988C2.40234 40.4623 2.94006 41 3.60352 41C4.26698 41 4.80469 40.4623 4.80469 39.7988V39.192C6.20293 38.6959 7.20703 37.3608 7.20703 35.7949C7.20703 33.808 5.59045 32.1914 3.60352 32.1914C2.94131 32.1914 2.40234 31.6524 2.40234 30.9902C2.40234 30.328 2.94131 29.7891 3.60352 29.7891Z" fill="#00B857"/>
<path d="M39.7988 9.76953H34.9941C34.3307 9.76953 33.793 10.3072 33.793 10.9707V39.7988C33.793 40.4623 34.3307 41 34.9941 41H39.7988C40.4623 41 41 40.4623 41 39.7988V10.9707C41 10.3072 40.4623 9.76953 39.7988 9.76953ZM38.5977 38.5977H36.1953V12.1719H38.5977V38.5977Z" fill="#00B857"/>
<path d="M1.20117 20.0195C6.23139 20.0195 10.9585 18.0632 14.5107 14.5107C17.4833 11.5381 19.3373 7.74287 19.8638 3.63605L22.8542 6.12785C23.3637 6.55233 24.121 6.48351 24.5458 5.97395C24.9706 5.46439 24.9015 4.70709 24.3919 4.2823L19.5872 0.278397C19.5866 0.277771 19.5857 0.277145 19.5847 0.27652C19.5772 0.269951 19.5688 0.26432 19.561 0.258064C19.5403 0.241798 19.5197 0.225845 19.4981 0.211144C19.4865 0.203011 19.4743 0.195816 19.4621 0.188309C19.4437 0.176422 19.4249 0.164848 19.4058 0.154213C19.3924 0.146393 19.3786 0.139511 19.3648 0.132317C19.3464 0.122932 19.3276 0.113861 19.3088 0.105415C19.2941 0.0988464 19.2797 0.0925903 19.2647 0.086647C19.2453 0.0788269 19.2256 0.0716324 19.2059 0.0650635C19.1912 0.0600586 19.1768 0.0550537 19.1621 0.0506744C19.1368 0.0428543 19.1111 0.0365982 19.0855 0.0309677C19.0758 0.0287781 19.0667 0.02565 19.057 0.0237732C19.0214 0.0165787 18.9857 0.0115738 18.9497 0.00750732C18.9391 0.0062561 18.9285 0.0059433 18.9178 0.00500488C18.8903 0.00281524 18.8628 0.00125122 18.8356 0.00093842C18.8296 0.00093842 18.824 0 18.8184 0C18.8118 0 18.8055 0.00093842 18.7993 0.00093842C18.7724 0.00125122 18.7458 0.00281524 18.7192 0.00500488C18.7073 0.0059433 18.6957 0.0065689 18.6842 0.00782013C18.6541 0.011261 18.6244 0.0159531 18.5947 0.0215835C18.5875 0.0228348 18.5803 0.0237732 18.5734 0.0250244C18.539 0.032219 18.5049 0.0412903 18.4708 0.0516128C18.4568 0.0556793 18.443 0.060997 18.4292 0.065689C18.4089 0.0725708 18.3886 0.0797653 18.3685 0.0878982C18.3535 0.0938416 18.3388 0.100723 18.3238 0.107292C18.3057 0.115738 18.2875 0.124184 18.2694 0.133568C18.255 0.141075 18.2403 0.148895 18.2259 0.157028C18.2084 0.167038 18.1912 0.177673 18.174 0.188622C18.1605 0.197067 18.1468 0.205513 18.1339 0.214897C18.1292 0.218025 18.1246 0.220528 18.1202 0.223656L12.5147 4.22756C11.9748 4.61325 11.85 5.36336 12.2357 5.90326C12.47 6.23139 12.8391 6.40625 13.2141 6.40625C13.4556 6.40625 13.6996 6.33368 13.9111 6.18228L17.4348 3.66545C16.9193 7.11788 15.3228 10.3013 12.8122 12.8119C9.71354 15.9105 5.58983 17.6172 1.20117 17.6172C0.537712 17.6172 0 18.1549 0 18.8184C0 19.4818 0.537712 20.0195 1.20117 20.0195Z" fill="#00B857"/>
</svg>
