<svg width="24" height="24" viewBox="0 0 24 24" fill="none" xmlns="http://www.w3.org/2000/svg">
<path opacity="0.22" fill-rule="evenodd" clip-rule="evenodd" d="M0 12C0 5.37258 5.37258 0 12 0C18.6274 0 24 5.37258 24 12C24 18.6274 18.6274 24 12 24C5.37258 24 0 18.6274 0 12Z" fill="#BFBFBF"/>
<path d="M5.87198 9.54532L11.3265 12.1092C11.5098 12.1951 11.7469 12.2359 11.9854 12.2359C12.224 12.2359 12.4611 12.1951 12.6443 12.1092L18.0989 9.54532C18.4545 9.37796 18.7905 8.72696 18.1382 8.72696H5.83344C5.18108 8.72696 5.51708 9.37796 5.87198 9.54532ZM18.264 10.9472L12.6443 13.5099C12.3971 13.6231 12.224 13.6365 11.9854 13.6365C11.7469 13.6365 11.5738 13.6231 11.3265 13.5099C11.0793 13.3966 6.13889 11.1305 5.73526 10.9466C5.45162 10.8168 5.45453 10.9689 5.45453 11.086V15.727C5.45453 15.9942 5.86617 16.3633 6.1818 16.3633H17.8182C18.1338 16.3633 18.5454 15.9942 18.5454 15.727V11.0866C18.5454 10.9695 18.5483 10.8174 18.264 10.9472Z" fill="#00B857"/>
</svg>
