<svg width="10" height="5" viewBox="0 0 10 5" fill="none" xmlns="http://www.w3.org/2000/svg">
<path d="M0.31889 0.535775L4.48556 2.21452C4.62556 2.27077 4.80667 2.29744 4.98889 2.29744C5.17111 2.29744 5.35222 2.27077 5.49222 2.21452L9.65889 0.535775C9.93055 0.426191 10.1872 -5.85829e-05 9.68889 -5.85829e-05H0.289445C-0.208888 -5.85829e-05 0.0477787 0.426191 0.31889 0.535775ZM9.785 1.45369L5.49222 3.13161C5.30333 3.20577 5.17111 3.21452 4.98889 3.21452C4.80667 3.21452 4.67444 3.20577 4.48556 3.13161C4.29667 3.05744 0.522779 1.57369 0.214445 1.45327C-0.00222129 1.36827 8.97813e-07 1.46786 8.97813e-07 1.54452V4.58327C8.97813e-07 4.75827 0.314445 4.99994 0.555556 4.99994H9.44444C9.68555 4.99994 10 4.75827 10 4.58327V1.54494C10 1.46827 10.0022 1.36869 9.785 1.45369Z" fill="white"/>
</svg>
