<svg width="22" height="22" viewBox="0 0 22 22" fill="none" xmlns="http://www.w3.org/2000/svg">
<path d="M5.15628 11H6.14722L5.84589 13.7121C5.83782 13.7846 5.85303 13.8578 5.88932 13.9211C5.92561 13.9843 5.98109 14.0345 6.04775 14.0641C6.1144 14.0938 6.18877 14.1015 6.26009 14.0861C6.3314 14.0707 6.39597 14.033 6.44444 13.9785L9.19444 10.8847C9.23848 10.8352 9.26726 10.774 9.27733 10.7085C9.28739 10.643 9.2783 10.5759 9.25115 10.5155C9.224 10.455 9.17995 10.4037 9.12431 10.3677C9.06867 10.3317 9.00381 10.3125 8.93753 10.3125H7.94658L8.24792 7.60052C8.25599 7.52801 8.24078 7.45481 8.20449 7.39152C8.1682 7.32823 8.11272 7.27812 8.04606 7.24845C7.97941 7.21878 7.90504 7.2111 7.83372 7.2265C7.76241 7.2419 7.69784 7.27959 7.64937 7.33412L4.89937 10.4279C4.85533 10.4774 4.82655 10.5386 4.81648 10.6041C4.80642 10.6696 4.81551 10.7366 4.84266 10.7971C4.86981 10.8576 4.91386 10.9089 4.9695 10.9449C5.02514 10.9809 5.09 11 5.15628 11ZM7.44531 8.59856L7.22088 10.6183C7.21554 10.6664 7.2204 10.715 7.23513 10.761C7.24986 10.8071 7.27414 10.8495 7.30638 10.8855C7.33863 10.9216 7.37811 10.9504 7.42224 10.9701C7.46638 10.9898 7.51418 11 7.56253 11H8.17204L6.6485 12.714L6.87292 10.6943C6.87827 10.6462 6.87341 10.5976 6.85868 10.5515C6.84395 10.5055 6.81967 10.4631 6.78742 10.427C6.75518 10.391 6.7157 10.3622 6.67157 10.3425C6.62743 10.3227 6.57963 10.3125 6.53128 10.3125H5.92177L7.44531 8.59856Z" fill="white"/>
<path d="M20.4531 2.0625H1.54688C1.22789 2.06285 0.92208 2.18972 0.696527 2.41528C0.470973 2.64083 0.344103 2.94664 0.34375 3.26562V18.0469C0.344103 18.3659 0.470973 18.6717 0.696527 18.8972C0.92208 19.1228 1.22789 19.2496 1.54688 19.25H1.71875V19.9375C1.71875 20.0287 1.75497 20.1161 1.81943 20.1806C1.8839 20.245 1.97133 20.2812 2.0625 20.2812H4.8125C4.90367 20.2812 4.9911 20.245 5.05557 20.1806C5.12003 20.1161 5.15625 20.0287 5.15625 19.9375V19.25H16.8438V19.9375C16.8438 20.0287 16.88 20.1161 16.9444 20.1806C17.0089 20.245 17.0963 20.2812 17.1875 20.2812H19.9375C20.0287 20.2812 20.1161 20.245 20.1806 20.1806C20.245 20.1161 20.2812 20.0287 20.2812 19.9375V19.25H20.4531C20.7721 19.2496 21.0779 19.1228 21.3035 18.8972C21.529 18.6717 21.6559 18.3659 21.6562 18.0469V3.26562C21.6559 2.94664 21.529 2.64083 21.3035 2.41528C21.0779 2.18972 20.7721 2.06285 20.4531 2.0625ZM4.46875 19.5938H2.40625V19.25H4.46875V19.5938ZM19.5938 19.5938H17.5312V19.25H19.5938V19.5938ZM20.9688 18.0469C20.9686 18.1836 20.9143 18.3147 20.8176 18.4114C20.7209 18.508 20.5898 18.5624 20.4531 18.5625H1.54688C1.41016 18.5624 1.27907 18.508 1.1824 18.4114C1.08572 18.3147 1.03136 18.1836 1.03125 18.0469V3.26562C1.03136 3.12891 1.08572 2.99782 1.1824 2.90115C1.27907 2.80448 1.41016 2.75011 1.54688 2.75H20.4531C20.5898 2.75011 20.7209 2.80448 20.8176 2.90115C20.9143 2.99782 20.9686 3.12891 20.9688 3.26562V18.0469Z" fill="white"/>
<path d="M19.9375 3.4375H2.0625C1.97133 3.4375 1.8839 3.47372 1.81943 3.53818C1.75497 3.60265 1.71875 3.69008 1.71875 3.78125V17.5312C1.71875 17.6224 1.75497 17.7099 1.81943 17.7743C1.8839 17.8388 1.97133 17.875 2.0625 17.875H19.9375C20.0287 17.875 20.1161 17.8388 20.1806 17.7743C20.245 17.7099 20.2812 17.6224 20.2812 17.5312V3.78125C20.2812 3.69008 20.245 3.60265 20.1806 3.53818C20.1161 3.47372 20.0287 3.4375 19.9375 3.4375ZM19.5938 17.1875H2.40625V4.125H19.5938V17.1875Z" fill="white"/>
<path d="M3.78125 6.53125C3.98521 6.53125 4.18459 6.47077 4.35418 6.35745C4.52377 6.24414 4.65595 6.08308 4.734 5.89464C4.81205 5.70621 4.83248 5.49886 4.79268 5.29881C4.75289 5.09877 4.65468 4.91502 4.51045 4.7708C4.36623 4.62657 4.18248 4.52836 3.98244 4.48857C3.78239 4.44877 3.57504 4.4692 3.38661 4.54725C3.19817 4.6253 3.03711 4.75748 2.9238 4.92707C2.81048 5.09666 2.75 5.29604 2.75 5.5C2.75031 5.77341 2.85905 6.03553 3.05239 6.22887C3.24572 6.4222 3.50784 6.53094 3.78125 6.53125ZM3.78125 5.15625C3.84924 5.15625 3.9157 5.17641 3.97223 5.21418C4.02876 5.25195 4.07282 5.30564 4.09883 5.36845C4.12485 5.43126 4.13166 5.50038 4.11839 5.56706C4.10513 5.63374 4.07239 5.69499 4.02432 5.74307C3.97624 5.79114 3.91499 5.82388 3.84831 5.83715C3.78163 5.85041 3.71251 5.8436 3.6497 5.81758C3.58689 5.79157 3.5332 5.74751 3.49543 5.69098C3.45766 5.63445 3.4375 5.56799 3.4375 5.5C3.4376 5.40886 3.47385 5.32149 3.5383 5.25705C3.60274 5.1926 3.69011 5.15635 3.78125 5.15625Z" fill="white"/>
<path d="M3.78125 16.8438C3.98521 16.8438 4.18459 16.7833 4.35418 16.67C4.52377 16.5566 4.65595 16.3956 4.734 16.2071C4.81205 16.0187 4.83248 15.8114 4.79268 15.6113C4.75289 15.4113 4.65468 15.2275 4.51045 15.0833C4.36623 14.9391 4.18248 14.8409 3.98244 14.8011C3.78239 14.7613 3.57504 14.7817 3.38661 14.8598C3.19817 14.9378 3.03711 15.07 2.9238 15.2396C2.81048 15.4092 2.75 15.6085 2.75 15.8125C2.75031 16.0859 2.85905 16.348 3.05239 16.5414C3.24572 16.7347 3.50784 16.8434 3.78125 16.8438ZM3.78125 15.4688C3.84924 15.4688 3.9157 15.4889 3.97223 15.5267C4.02876 15.5645 4.07282 15.6181 4.09883 15.681C4.12485 15.7438 4.13166 15.8129 4.11839 15.8796C4.10513 15.9462 4.07239 16.0075 4.02432 16.0556C3.97624 16.1036 3.91499 16.1364 3.84831 16.1496C3.78163 16.1629 3.71251 16.1561 3.6497 16.1301C3.58689 16.1041 3.5332 16.06 3.49543 16.0035C3.45766 15.9469 3.4375 15.8805 3.4375 15.8125C3.4376 15.7214 3.47385 15.634 3.5383 15.5695C3.60274 15.5051 3.69011 15.4689 3.78125 15.4688Z" fill="white"/>
<path d="M18.2187 6.53125C18.4227 6.53125 18.6221 6.47077 18.7917 6.35745C18.9613 6.24414 19.0934 6.08308 19.1715 5.89464C19.2496 5.70621 19.27 5.49886 19.2302 5.29881C19.1904 5.09877 19.0922 4.91502 18.948 4.7708C18.8037 4.62657 18.62 4.52836 18.4199 4.48857C18.2199 4.44877 18.0125 4.4692 17.8241 4.54725C17.6357 4.6253 17.4746 4.75748 17.3613 4.92707C17.248 5.09666 17.1875 5.29604 17.1875 5.5C17.1878 5.77341 17.2966 6.03553 17.4899 6.22887C17.6832 6.4222 17.9453 6.53094 18.2187 6.53125ZM18.2187 5.15625C18.2867 5.15625 18.3532 5.17641 18.4097 5.21418C18.4663 5.25195 18.5103 5.30564 18.5363 5.36845C18.5624 5.43126 18.5692 5.50038 18.5559 5.56706C18.5426 5.63374 18.5099 5.69499 18.4618 5.74307C18.4137 5.79114 18.3525 5.82388 18.2858 5.83715C18.2191 5.85041 18.15 5.8436 18.0872 5.81758C18.0244 5.79157 17.9707 5.74751 17.9329 5.69098C17.8952 5.63445 17.875 5.56799 17.875 5.5C17.8751 5.40886 17.9114 5.32149 17.9758 5.25705C18.0402 5.1926 18.1276 5.15635 18.2187 5.15625Z" fill="white"/>
<path d="M18.2188 14.7812C18.0148 14.7812 17.8154 14.8417 17.6458 14.955C17.4762 15.0684 17.3441 15.2294 17.266 15.4179C17.1879 15.6063 17.1675 15.8136 17.2073 16.0137C17.2471 16.2137 17.3453 16.3975 17.4895 16.5417C17.6338 16.6859 17.8175 16.7841 18.0176 16.8239C18.2176 16.8637 18.425 16.8433 18.6134 16.7652C18.8018 16.6872 18.9629 16.555 19.0762 16.3854C19.1895 16.2158 19.25 16.0165 19.25 15.8125C19.2497 15.5391 19.1409 15.277 18.9476 15.0836C18.7543 14.8903 18.4922 14.7816 18.2188 14.7812ZM18.2188 16.1562C18.1508 16.1562 18.0843 16.1361 18.0278 16.0983C17.9712 16.0605 17.9272 16.0069 17.9012 15.944C17.8751 15.8812 17.8683 15.8121 17.8816 15.7454C17.8949 15.6788 17.9276 15.6175 17.9757 15.5694C18.0238 15.5214 18.085 15.4886 18.1517 15.4754C18.2184 15.4621 18.2875 15.4689 18.3503 15.4949C18.4131 15.5209 18.4668 15.565 18.5046 15.6215C18.5423 15.6781 18.5625 15.7445 18.5625 15.8125C18.5624 15.9036 18.5261 15.991 18.4617 16.0555C18.3973 16.1199 18.3099 16.1561 18.2188 16.1562Z" fill="white"/>
<path d="M10.6562 13.75H18.2188C18.3099 13.75 18.3974 13.7138 18.4618 13.6493C18.5263 13.5849 18.5625 13.4974 18.5625 13.4062V7.5625C18.5625 7.47133 18.5263 7.3839 18.4618 7.31943C18.3974 7.25497 18.3099 7.21875 18.2188 7.21875H10.6562C10.5651 7.21875 10.4776 7.25497 10.4132 7.31943C10.3487 7.3839 10.3125 7.47133 10.3125 7.5625V13.4062C10.3125 13.4974 10.3487 13.5849 10.4132 13.6493C10.4776 13.7138 10.5651 13.75 10.6562 13.75ZM11 7.90625H17.875V13.0625H11V7.90625Z" fill="white"/>
<path d="M16.5 8.59375H12.375C12.2838 8.59375 12.1964 8.62997 12.1319 8.69443C12.0675 8.7589 12.0312 8.84633 12.0312 8.9375C12.0312 9.02867 12.0675 9.1161 12.1319 9.18057C12.1964 9.24503 12.2838 9.28125 12.375 9.28125H16.5C16.5912 9.28125 16.6786 9.24503 16.7431 9.18057C16.8075 9.1161 16.8438 9.02867 16.8438 8.9375C16.8438 8.84633 16.8075 8.7589 16.7431 8.69443C16.6786 8.62997 16.5912 8.59375 16.5 8.59375Z" fill="white"/>
<path d="M16.5 9.625H12.375C12.2838 9.625 12.1964 9.66122 12.1319 9.72568C12.0675 9.79015 12.0312 9.87758 12.0312 9.96875C12.0312 10.0599 12.0675 10.1474 12.1319 10.2118C12.1964 10.2763 12.2838 10.3125 12.375 10.3125H16.5C16.5912 10.3125 16.6786 10.2763 16.7431 10.2118C16.8075 10.1474 16.8438 10.0599 16.8438 9.96875C16.8438 9.87758 16.8075 9.79015 16.7431 9.72568C16.6786 9.66122 16.5912 9.625 16.5 9.625Z" fill="white"/>
<path d="M16.5 10.6562H12.375C12.2838 10.6562 12.1964 10.6925 12.1319 10.7569C12.0675 10.8214 12.0312 10.9088 12.0312 11C12.0312 11.0912 12.0675 11.1786 12.1319 11.2431C12.1964 11.3075 12.2838 11.3438 12.375 11.3438H16.5C16.5912 11.3438 16.6786 11.3075 16.7431 11.2431C16.8075 11.1786 16.8438 11.0912 16.8438 11C16.8438 10.9088 16.8075 10.8214 16.7431 10.7569C16.6786 10.6925 16.5912 10.6562 16.5 10.6562Z" fill="white"/>
<path d="M16.5 11.6875H12.375C12.2838 11.6875 12.1964 11.7237 12.1319 11.7882C12.0675 11.8526 12.0312 11.9401 12.0312 12.0312C12.0312 12.1224 12.0675 12.2099 12.1319 12.2743C12.1964 12.3388 12.2838 12.375 12.375 12.375H16.5C16.5912 12.375 16.6786 12.3388 16.7431 12.2743C16.8075 12.2099 16.8438 12.1224 16.8438 12.0312C16.8438 11.9401 16.8075 11.8526 16.7431 11.7882C16.6786 11.7237 16.5912 11.6875 16.5 11.6875Z" fill="white"/>
</svg>
