<svg width="24" height="24" viewBox="0 0 24 24" fill="none" xmlns="http://www.w3.org/2000/svg">
<path d="M8.62508 5.25003H10.1251V8.25003C10.1251 8.34948 10.1646 8.44487 10.2349 8.51519C10.3052 8.58552 10.4006 8.62503 10.5001 8.62503H13.5001C13.5995 8.62503 13.6949 8.58552 13.7652 8.51519C13.8356 8.44487 13.8751 8.34948 13.8751 8.25003V5.25003H15.3751C15.4461 5.25003 15.5156 5.22988 15.5756 5.19193C15.6356 5.15397 15.6836 5.09977 15.714 5.03562C15.7444 4.97147 15.7559 4.9 15.7473 4.82954C15.7387 4.75907 15.7103 4.6925 15.6653 4.63756L12.2903 0.512555C12.2552 0.469561 12.2109 0.434918 12.1607 0.411129C12.1105 0.38734 12.0556 0.375 12.0001 0.375C11.9445 0.375 11.8897 0.38734 11.8395 0.411129C11.7893 0.434918 11.745 0.469561 11.7098 0.512555L8.33483 4.63756C8.28988 4.6925 8.26144 4.75907 8.25283 4.82954C8.24422 4.9 8.25579 4.97147 8.28619 5.03562C8.31659 5.09977 8.36458 5.15397 8.42457 5.19193C8.48456 5.22988 8.55409 5.25003 8.62508 5.25003ZM12.0001 1.3422L14.5837 4.50002H13.5001C13.4006 4.50002 13.3052 4.53953 13.2349 4.60986C13.1646 4.68019 13.1251 4.77557 13.1251 4.87503V7.87503H10.8751V4.87503C10.8751 4.77557 10.8356 4.68019 10.7652 4.60986C10.6949 4.53953 10.5995 4.50002 10.5001 4.50002H9.41643L12.0001 1.3422Z" fill="white"/>
<path d="M22.0388 7.21346C22.0012 7.18166 21.9577 7.15758 21.9108 7.14261C21.8639 7.12763 21.8145 7.12205 21.7655 7.12619C21.7164 7.13033 21.6686 7.1441 21.6249 7.16671C21.5811 7.18933 21.5423 7.22034 21.5105 7.25799L17.8257 11.6249H6.17586L2.53836 7.25986C2.47471 7.18341 2.38329 7.13537 2.28422 7.12631C2.18515 7.11726 2.08654 7.14793 2.01008 7.21158C1.93362 7.27524 1.88558 7.36665 1.87653 7.46572C1.86747 7.5648 1.89815 7.66341 1.9618 7.73986L5.62508 12.1358V22.3124C5.62546 22.6603 5.76387 22.994 6.00993 23.24C6.25598 23.4861 6.5896 23.6245 6.93758 23.6249H17.0626C17.4106 23.6245 17.7442 23.4861 17.9902 23.24C18.2363 22.994 18.3747 22.6603 18.3751 22.3124V12.1367L22.0834 7.74174C22.1152 7.70414 22.1392 7.66065 22.1542 7.61374C22.1692 7.56683 22.1747 7.51743 22.1706 7.46837C22.1665 7.4193 22.1527 7.37153 22.1301 7.32779C22.1075 7.28406 22.0765 7.2452 22.0388 7.21346ZM9.75008 12.3749H14.2501V16.6035L12.1862 15.4241C12.1295 15.3918 12.0653 15.3749 12.0001 15.3749C11.9348 15.3749 11.8707 15.3918 11.814 15.4241L9.75008 16.6035V12.3749ZM17.6251 22.3124C17.625 22.4615 17.5656 22.6045 17.4602 22.71C17.3547 22.8154 17.2117 22.8747 17.0626 22.8749H6.93758C6.78843 22.8747 6.64543 22.8154 6.53997 22.71C6.4345 22.6045 6.3752 22.4615 6.37508 22.3124V12.3749H9.00008V17.2499C9.00004 17.3156 9.01727 17.3801 9.05004 17.4371C9.0828 17.494 9.12996 17.5414 9.18678 17.5744C9.24361 17.6074 9.3081 17.6249 9.37381 17.6251C9.43952 17.6253 9.50413 17.6083 9.56117 17.5756L12.0001 16.1816L14.439 17.5756C14.496 17.6083 14.5606 17.6253 14.6263 17.6251C14.6921 17.6249 14.7565 17.6074 14.8134 17.5744C14.8702 17.5414 14.9174 17.494 14.9501 17.4371C14.9829 17.3801 15.0001 17.3156 15.0001 17.2499V12.3749H17.6251V22.3124Z" fill="white"/>
<path d="M13.125 19.5C13.0255 19.5 12.9302 19.5395 12.8598 19.6098C12.7895 19.6802 12.75 19.7755 12.75 19.875V21.75C12.75 21.8495 12.7895 21.9448 12.8598 22.0152C12.9302 22.0855 13.0255 22.125 13.125 22.125H16.5C16.5995 22.125 16.6948 22.0855 16.7652 22.0152C16.8355 21.9448 16.875 21.8495 16.875 21.75V19.875C16.875 19.7755 16.8355 19.6802 16.7652 19.6098C16.6948 19.5395 16.5995 19.5 16.5 19.5H13.125ZM16.125 21.375H13.5V20.25H16.125V21.375Z" fill="white"/>
<path d="M13.5 9H10.5C10.4005 9 10.3052 9.03951 10.2348 9.10983C10.1645 9.18016 10.125 9.27554 10.125 9.375V10.5C10.125 10.5995 10.1645 10.6948 10.2348 10.7652C10.3052 10.8355 10.4005 10.875 10.5 10.875H13.5C13.5995 10.875 13.6948 10.8355 13.7652 10.7652C13.8355 10.6948 13.875 10.5995 13.875 10.5V9.375C13.875 9.27554 13.8355 9.18016 13.7652 9.10983C13.6948 9.03951 13.5995 9 13.5 9ZM13.125 10.125H10.875V9.75H13.125V10.125Z" fill="white"/>
</svg>
