<svg width="24" height="24" viewBox="0 0 24 24" fill="none" xmlns="http://www.w3.org/2000/svg">
<g clip-path="url(#clip0)">
<path d="M17.9715 15.5421V14.7691C17.9715 14.6747 17.934 14.5842 17.8672 14.5174C17.8005 14.4507 17.71 14.4132 17.6156 14.4132C17.5212 14.4132 17.4306 14.4507 17.3639 14.5174C17.2972 14.5842 17.2597 14.6747 17.2597 14.7691V15.5421C17.0222 15.6261 16.8221 15.7913 16.6946 16.0085C16.5672 16.2258 16.5206 16.4811 16.5632 16.7293C16.6058 16.9776 16.7348 17.2028 16.9274 17.3651C17.1199 17.5274 17.3637 17.6165 17.6156 17.6165C17.8674 17.6165 18.1112 17.5274 18.3038 17.3651C18.4963 17.2028 18.6253 16.9776 18.6679 16.7293C18.7105 16.4811 18.6639 16.2258 18.5365 16.0085C18.4091 15.7913 18.2089 15.6261 17.9715 15.5421ZM17.6156 16.9045C17.5452 16.9045 17.4764 16.8837 17.4178 16.8445C17.3593 16.8054 17.3137 16.7499 17.2868 16.6848C17.2598 16.6198 17.2528 16.5482 17.2665 16.4792C17.2802 16.4102 17.3141 16.3467 17.3639 16.297C17.4137 16.2472 17.4771 16.2133 17.5461 16.1996C17.6152 16.1858 17.6867 16.1929 17.7518 16.2198C17.8168 16.2468 17.8724 16.2924 17.9115 16.3509C17.9506 16.4094 17.9715 16.4782 17.9715 16.5486C17.9714 16.643 17.9338 16.7334 17.8671 16.8002C17.8004 16.8669 17.7099 16.9044 17.6156 16.9045Z" fill="white"/>
<path d="M17.6156 12.2778C16.7709 12.2778 15.9452 12.5283 15.2428 12.9975C14.5405 13.4668 13.9931 14.1338 13.6698 14.9142C13.3466 15.6946 13.262 16.5533 13.4268 17.3818C13.5916 18.2103 13.9983 18.9713 14.5956 19.5685C15.1929 20.1658 15.9539 20.5726 16.7824 20.7374C17.6108 20.9022 18.4695 20.8176 19.2499 20.4943C20.0303 20.1711 20.6973 19.6237 21.1666 18.9214C21.6359 18.219 21.8864 17.3933 21.8864 16.5486C21.8851 15.4163 21.4348 14.3307 20.6341 13.5301C19.8334 12.7294 18.7479 12.279 17.6156 12.2778ZM17.6156 20.1076C16.9117 20.1076 16.2236 19.8989 15.6383 19.5078C15.053 19.1168 14.5968 18.5609 14.3274 17.9106C14.0581 17.2603 13.9876 16.5447 14.1249 15.8543C14.2622 15.1639 14.6012 14.5297 15.099 14.032C15.5967 13.5343 16.2308 13.1953 16.9212 13.058C17.6116 12.9206 18.3272 12.9911 18.9775 13.2605C19.6279 13.5299 20.1837 13.986 20.5748 14.5713C20.9659 15.1566 21.1746 15.8447 21.1746 16.5486C21.1735 17.4922 20.7982 18.3968 20.131 19.064C19.4638 19.7312 18.5591 20.1066 17.6156 20.1076Z" fill="white"/>
<path d="M21.6249 12.5087L22.2424 11.8912L22.5244 12.1737C22.5575 12.2067 22.5968 12.233 22.64 12.2509C22.6832 12.2688 22.7295 12.278 22.7762 12.278C22.823 12.278 22.8693 12.2688 22.9125 12.2509C22.9557 12.233 22.995 12.2067 23.028 12.1737C23.0611 12.1406 23.0873 12.1014 23.1052 12.0581C23.1231 12.0149 23.1323 11.9686 23.1323 11.9219C23.1323 11.8751 23.1231 11.8288 23.1052 11.7856C23.0873 11.7424 23.0611 11.7031 23.028 11.6701L21.9603 10.6024C21.8935 10.5356 21.803 10.4981 21.7085 10.4981C21.6141 10.4981 21.5235 10.5356 21.4567 10.6024C21.3899 10.6691 21.3524 10.7597 21.3524 10.8542C21.3524 10.9486 21.3899 11.0392 21.4567 11.106L21.7392 11.388L21.0884 12.0389C20.1903 11.3442 19.1043 10.9355 17.9711 10.8657C17.9711 10.8617 17.9715 10.8582 17.9715 10.8542V10.4983H18.6833C18.7777 10.4983 18.8683 10.4608 18.935 10.394C19.0018 10.3273 19.0393 10.2368 19.0393 10.1424V9.07465C19.0393 8.98026 19.0018 8.88974 18.935 8.82299C18.8683 8.75625 18.7777 8.71875 18.6833 8.71875H16.5479C16.4535 8.71875 16.363 8.75625 16.2963 8.82299C16.2295 8.88974 16.192 8.98026 16.192 9.07465V10.1424C16.192 10.2368 16.2295 10.3273 16.2963 10.394C16.363 10.4608 16.4535 10.4983 16.5479 10.4983H17.2597V10.8542C17.2597 10.8582 17.2602 10.8617 17.2602 10.8657C16.6741 10.9016 16.0971 11.0286 15.5501 11.2421L16.1191 7.65104H18.6833C18.7777 7.65104 18.8683 7.61354 18.935 7.5468C19.0018 7.48005 19.0393 7.38953 19.0393 7.29514C19.0393 7.20075 19.0018 7.11022 18.935 7.04348C18.8683 6.97673 18.7777 6.93924 18.6833 6.93924H16.2316L16.2881 6.58333H22.1979C22.2923 6.58333 22.3828 6.54584 22.4496 6.47909C22.5163 6.41235 22.5538 6.32182 22.5538 6.22743C22.5538 6.13304 22.5163 6.04251 22.4496 5.97577C22.3828 5.90902 22.2923 5.87153 22.1979 5.87153H16.4007L16.5137 5.15972H19.0393C19.1336 5.15972 19.2242 5.12223 19.2909 5.05548C19.3577 4.98874 19.3952 4.89821 19.3952 4.80382C19.3952 4.70943 19.3577 4.6189 19.2909 4.55216C19.2242 4.48541 19.1336 4.44792 19.0393 4.44792H16.6262L16.8994 2.72401C16.9074 2.67321 16.9044 2.62127 16.8904 2.57177C16.8764 2.52226 16.8519 2.47638 16.8185 2.43727C16.7851 2.39816 16.7436 2.36675 16.6969 2.34521C16.6502 2.32367 16.5994 2.31251 16.5479 2.3125H3.02363C2.936 2.31244 2.85144 2.34473 2.78617 2.40319C2.7209 2.46165 2.67951 2.54215 2.66995 2.62925L1.24634 15.4418C1.24078 15.4915 1.24579 15.5418 1.26104 15.5895C1.27628 15.6372 1.30142 15.6811 1.3348 15.7184C1.36819 15.7557 1.40907 15.7855 1.45477 15.8059C1.50047 15.8263 1.54997 15.8368 1.60002 15.8368H11.9657C11.844 16.797 11.9691 17.7725 12.3291 18.6709C12.6892 19.5694 13.2723 20.3613 14.0234 20.9718C14.7745 21.5823 15.6688 21.9913 16.6219 22.1602C17.5749 22.329 18.5553 22.2522 19.4705 21.9368C20.3856 21.6215 21.2052 21.0782 21.852 20.3581C22.4988 19.638 22.9514 18.7649 23.167 17.8213C23.3826 16.8777 23.3542 15.8947 23.0844 14.9652C22.8145 14.0356 22.3122 13.1902 21.6249 12.5087ZM16.9038 9.78646V9.43055H18.3274V9.78646H16.9038ZM7.59164 3.02431H11.8505L10.5932 9.9395L8.53879 8.76546C8.48496 8.73485 8.4241 8.71875 8.36217 8.71875C8.30024 8.71875 8.23938 8.73485 8.18555 8.76546L6.35755 9.81004L7.59164 3.02431ZM12.028 15.125H1.99774L3.34216 3.02431H6.86782L5.52073 10.4346C5.50858 10.5013 5.51572 10.5701 5.54132 10.6329C5.56693 10.6956 5.60992 10.7498 5.66526 10.789C5.72059 10.8281 5.78595 10.8507 5.85366 10.8539C5.92137 10.8572 5.98861 10.8411 6.04747 10.8075L8.36217 9.48439L10.6769 10.8075C10.7263 10.8357 10.7818 10.8517 10.8387 10.854C10.8956 10.8564 10.9522 10.845 11.0038 10.821C11.0554 10.7969 11.1005 10.7608 11.1352 10.7158C11.17 10.6707 11.1935 10.6179 11.2036 10.5619L12.5743 3.02431H16.1311L15.9055 4.44792H15.1243C15.0299 4.44792 14.9394 4.48541 14.8727 4.55216C14.8059 4.6189 14.7684 4.70943 14.7684 4.80382C14.7684 4.89821 14.8059 4.98874 14.8727 5.05548C14.9394 5.12223 15.0299 5.15972 15.1243 5.15972H15.793L15.68 5.87153H14.7684C14.674 5.87153 14.5835 5.90902 14.5168 5.97577C14.45 6.04251 14.4125 6.13304 14.4125 6.22743C14.4125 6.32182 14.45 6.41235 14.5168 6.47909C14.5835 6.54584 14.674 6.58333 14.7684 6.58333H15.5674L15.5109 6.93924H14.7684C14.674 6.93924 14.5835 6.97673 14.5168 7.04348C14.45 7.11022 14.4125 7.20075 14.4125 7.29514C14.4125 7.38953 14.45 7.48005 14.5168 7.5468C14.5835 7.61354 14.674 7.65104 14.7684 7.65104H15.3984L14.7729 11.5989C14.772 11.6051 14.7715 11.6109 14.7706 11.6171C14.1147 11.9968 13.5408 12.5031 13.0822 13.1065C12.6237 13.7099 12.2897 14.3985 12.0996 15.1321C12.076 15.1275 12.052 15.1251 12.028 15.125ZM17.6156 21.5312C16.6302 21.5312 15.6668 21.239 14.8474 20.6915C14.028 20.144 13.3894 19.3658 13.0123 18.4554C12.6352 17.5449 12.5365 16.5431 12.7287 15.5765C12.921 14.61 13.3955 13.7222 14.0924 13.0254C14.7892 12.3285 15.677 11.854 16.6436 11.6617C17.6101 11.4695 18.612 11.5681 19.5224 11.9453C20.4329 12.3224 21.2111 12.961 21.7586 13.7804C22.3061 14.5998 22.5983 15.5631 22.5983 16.5486C22.5968 17.8696 22.0714 19.1362 21.1373 20.0703C20.2032 21.0044 18.9367 21.5298 17.6156 21.5312Z" fill="white"/>
</g>
<defs>
<clipPath id="clip0">
<rect width="22.7778" height="22.7778" fill="white" transform="translate(0.888672 0.888916)"/>
</clipPath>
</defs>
</svg>
