<svg width="41" height="41" viewBox="0 0 41 41" fill="none" xmlns="http://www.w3.org/2000/svg">
<path d="M30.75 26.3757V24.9843C30.75 24.8143 30.6825 24.6514 30.5624 24.5313C30.4422 24.4111 30.2793 24.3436 30.1094 24.3436C29.9395 24.3436 29.7765 24.4111 29.6564 24.5313C29.5362 24.6514 29.4688 24.8143 29.4688 24.9843V26.3757C29.0413 26.5268 28.6811 26.8242 28.4517 27.2152C28.2223 27.6063 28.1385 28.0658 28.2152 28.5126C28.2918 28.9595 28.524 29.3648 28.8706 29.657C29.2173 29.9493 29.656 30.1095 30.1094 30.1095C30.5627 30.1095 31.0015 29.9493 31.3481 29.657C31.6947 29.3648 31.9269 28.9595 32.0036 28.5126C32.0802 28.0658 31.9965 27.6063 31.7671 27.2152C31.5377 26.8242 31.1774 26.5268 30.75 26.3757ZM30.1094 28.828C29.9827 28.828 29.8588 28.7904 29.7535 28.72C29.6481 28.6496 29.566 28.5496 29.5175 28.4325C29.469 28.3155 29.4563 28.1867 29.4811 28.0624C29.5058 27.9381 29.5668 27.824 29.6564 27.7344C29.746 27.6448 29.8601 27.5838 29.9844 27.5591C30.1087 27.5343 30.2375 27.547 30.3545 27.5955C30.4716 27.644 30.5716 27.7261 30.642 27.8315C30.7124 27.9368 30.75 28.0607 30.75 28.1874C30.7498 28.3572 30.6823 28.5201 30.5622 28.6402C30.4421 28.7603 30.2792 28.8278 30.1094 28.828Z" fill="#00B857"/>
<path d="M30.1094 20.5C28.5889 20.5 27.1026 20.9509 25.8384 21.7956C24.5742 22.6403 23.5889 23.8409 23.0071 25.2456C22.4252 26.6503 22.273 28.196 22.5696 29.6873C22.8662 31.1785 23.5984 32.5483 24.6735 33.6234C25.7486 34.6985 27.1184 35.4307 28.6096 35.7273C30.1009 36.0239 31.6466 35.8717 33.0513 35.2898C34.456 34.708 35.6566 33.7226 36.5013 32.4584C37.346 31.1942 37.7969 29.7079 37.7969 28.1875C37.7946 26.1493 36.9839 24.1953 35.5427 22.7541C34.1015 21.313 32.1475 20.5023 30.1094 20.5ZM30.1094 34.5937C28.8423 34.5937 27.6038 34.218 26.5503 33.5141C25.4968 32.8102 24.6756 31.8096 24.1908 30.6391C23.7059 29.4685 23.579 28.1804 23.8262 26.9377C24.0734 25.695 24.6835 24.5535 25.5795 23.6576C26.4754 22.7617 27.6169 22.1515 28.8596 21.9043C30.1023 21.6572 31.3904 21.784 32.5609 22.2689C33.7315 22.7538 34.7321 23.5749 35.436 24.6284C36.1399 25.6819 36.5156 26.9205 36.5156 28.1875C36.5137 29.8859 35.8381 31.5143 34.6372 32.7153C33.4362 33.9163 31.8078 34.5918 30.1094 34.5937Z" fill="#00B857"/>
<path d="M37.326 20.9156L38.4375 19.8041L38.9451 20.3126C39.0047 20.3721 39.0753 20.4193 39.1531 20.4515C39.2309 20.4837 39.3142 20.5003 39.3984 20.5003C39.4826 20.5003 39.5659 20.4837 39.6437 20.4515C39.7214 20.4193 39.7921 20.3721 39.8516 20.3126C39.9111 20.2531 39.9584 20.1824 39.9906 20.1046C40.0228 20.0269 40.0394 19.9435 40.0394 19.8593C40.0394 19.7752 40.0228 19.6918 39.9906 19.614C39.9584 19.5363 39.9111 19.4656 39.8516 19.4061L37.9298 17.4842C37.8095 17.364 37.6465 17.2965 37.4765 17.2965C37.3065 17.2965 37.1435 17.364 37.0233 17.4842C36.9031 17.6044 36.8355 17.7675 36.8355 17.9375C36.8355 18.1075 36.9031 18.2705 37.0233 18.3907L37.5318 18.8984L36.3602 20.0699C34.7438 18.8196 32.7889 18.0839 30.7491 17.9583C30.7491 17.9511 30.7499 17.9447 30.7499 17.9375V17.2968H32.0312C32.2011 17.2968 32.364 17.2293 32.4842 17.1092C32.6043 16.9891 32.6718 16.8261 32.6718 16.6562V14.7343C32.6718 14.5644 32.6043 14.4015 32.4842 14.2814C32.364 14.1612 32.2011 14.0937 32.0312 14.0937H28.1874C28.0175 14.0937 27.8546 14.1612 27.7345 14.2814C27.6143 14.4015 27.5468 14.5644 27.5468 14.7343V16.6562C27.5468 16.8261 27.6143 16.9891 27.7345 17.1092C27.8546 17.2293 28.0175 17.2968 28.1874 17.2968H29.4687V17.9375C29.4687 17.9447 29.4695 17.9511 29.4695 17.9583C28.4145 18.0228 27.3759 18.2514 26.3913 18.6357L27.4155 12.1718H32.0312C32.2011 12.1718 32.364 12.1043 32.4842 11.9842C32.6043 11.8641 32.6718 11.7011 32.6718 11.5312C32.6718 11.3613 32.6043 11.1984 32.4842 11.0782C32.364 10.9581 32.2011 10.8906 32.0312 10.8906H27.6181L27.7198 10.25H38.3574C38.5273 10.25 38.6902 10.1825 38.8104 10.0623C38.9305 9.94219 38.998 9.77925 38.998 9.60934C38.998 9.43944 38.9305 9.27649 38.8104 9.15635C38.6902 9.03621 38.5273 8.96872 38.3574 8.96872H27.9224L28.1258 7.68747H32.6718C32.8417 7.68747 33.0047 7.61997 33.1248 7.49983C33.245 7.37969 33.3125 7.21675 33.3125 7.04684C33.3125 6.87694 33.245 6.71399 33.1248 6.59385C33.0047 6.47371 32.8417 6.40622 32.6718 6.40622H28.3284L28.8201 3.30319C28.8345 3.21175 28.829 3.11825 28.8039 3.02915C28.7787 2.94005 28.7346 2.85745 28.6744 2.78705C28.6143 2.71665 28.5397 2.66012 28.4556 2.62135C28.3715 2.58258 28.28 2.56249 28.1874 2.56247H3.8437C3.68598 2.56236 3.53377 2.62049 3.41628 2.72572C3.29878 2.83094 3.22429 2.97584 3.20708 3.13263L0.644578 26.1951C0.634581 26.2847 0.643597 26.3753 0.671037 26.4611C0.698476 26.5469 0.743722 26.626 0.803813 26.6931C0.863905 26.7602 0.93749 26.8139 1.01975 26.8506C1.10202 26.8873 1.19111 26.9063 1.2812 26.9062H19.9394C19.7204 28.6347 19.9455 30.3904 20.5936 32.0077C21.2417 33.6249 22.2912 35.0503 23.6432 36.1492C24.9952 37.2481 26.605 37.9843 28.3205 38.2883C30.0361 38.5922 31.8008 38.4538 33.448 37.8863C35.0952 37.3187 36.5706 36.3407 37.7348 35.0445C38.899 33.7483 39.7137 32.1768 40.1018 30.4783C40.4899 28.7798 40.4387 27.0104 39.953 25.3372C39.4673 23.6641 38.5632 22.1423 37.326 20.9156ZM28.8281 16.0156V15.375H31.3906V16.0156H28.8281ZM12.0661 3.84372H19.732L17.469 16.2911L13.771 14.1778C13.6741 14.1227 13.5645 14.0937 13.4531 14.0937C13.3416 14.0937 13.2321 14.1227 13.1352 14.1778L9.84475 16.058L12.0661 3.84372ZM20.0515 25.625H1.9971L4.41706 3.84372H10.7633L8.33848 17.1823C8.31661 17.3024 8.32947 17.4262 8.37555 17.5391C8.42164 17.6521 8.49903 17.7496 8.59863 17.8201C8.69823 17.8906 8.81589 17.9312 8.93777 17.9371C9.05964 17.943 9.18067 17.9139 9.28661 17.8534L13.4531 15.4719L17.6195 17.8534C17.7085 17.9042 17.8084 17.933 17.9108 17.9372C18.0132 17.9414 18.1151 17.9211 18.208 17.8777C18.3009 17.8344 18.382 17.7695 18.4446 17.6883C18.5072 17.6072 18.5494 17.5122 18.5677 17.4114L21.0349 3.84372H27.4371L27.0311 6.40622H25.6249C25.455 6.40622 25.2921 6.47371 25.172 6.59385C25.0518 6.71399 24.9843 6.87694 24.9843 7.04684C24.9843 7.21675 25.0518 7.37969 25.172 7.49983C25.2921 7.61997 25.455 7.68747 25.6249 7.68747H26.8285L26.6251 8.96872H24.9843C24.8144 8.96872 24.6515 9.03621 24.5313 9.15635C24.4112 9.27649 24.3437 9.43944 24.3437 9.60934C24.3437 9.77925 24.4112 9.94219 24.5313 10.0623C24.6515 10.1825 24.8144 10.25 24.9843 10.25H26.4225L26.3208 10.8906H24.9843C24.8144 10.8906 24.6515 10.9581 24.5313 11.0782C24.4112 11.1984 24.3437 11.3613 24.3437 11.5312C24.3437 11.7011 24.4112 11.8641 24.5313 11.9842C24.6515 12.1043 24.8144 12.1718 24.9843 12.1718H26.1182L24.9923 19.278C24.9907 19.2892 24.9899 19.2996 24.9883 19.3108C23.8077 19.9942 22.7746 20.9055 21.9492 21.9916C21.1238 23.0778 20.5226 24.3172 20.1804 25.6378C20.138 25.6294 20.0948 25.6251 20.0515 25.625ZM30.1093 37.1562C28.3355 37.1562 26.6015 36.6302 25.1266 35.6447C23.6516 34.6592 22.5021 33.2585 21.8233 31.6197C21.1445 29.9808 20.9668 28.1775 21.3129 26.4377C21.659 24.698 22.5132 23.0999 23.7675 21.8456C25.0218 20.5913 26.6198 19.7371 28.3596 19.391C30.0994 19.045 31.9027 19.2226 33.5415 19.9014C35.1803 20.5802 36.5811 21.7298 37.5666 23.2047C38.5521 24.6796 39.0781 26.4136 39.0781 28.1875C39.0755 30.5653 38.1297 32.845 36.4483 34.5264C34.7669 36.2079 32.4872 37.1536 30.1093 37.1562Z" fill="#00B857"/>
</svg>
