<svg width="24" height="24" viewBox="0 0 24 24" fill="none" xmlns="http://www.w3.org/2000/svg">
<path d="M20.9989 4.85761C20.9973 4.71342 20.9415 4.57214 20.8355 4.46611L16.534 0.164578C16.5339 0.164391 16.5337 0.164344 16.5335 0.164203C16.432 0.0627187 16.2916 0 16.1367 0H4.18694C3.53458 0 3.00391 0.530625 3.00391 1.18298V22.817C3.00391 23.4693 3.53453 24 4.18689 24H19.8171C20.4694 24 21.0001 23.4693 21.0001 22.817V4.86342C21.0002 4.86136 20.9991 4.85962 20.9989 4.85761ZM16.6986 1.91864L19.0815 4.30148H16.7578C16.7252 4.30148 16.6986 4.27491 16.6986 4.24233V1.91864ZM19.8762 22.817C19.8762 22.8496 19.8497 22.8761 19.8171 22.8761H4.18694C4.15436 22.8761 4.12783 22.8496 4.12783 22.817V1.18298C4.12783 1.15041 4.15436 1.12387 4.18694 1.12387H15.5747V4.24233C15.5747 4.89464 16.1055 5.42541 16.7578 5.42541H19.8763V22.817H19.8762Z" fill="white"/>
<path d="M16.9725 7.68817H7.02678C6.71647 7.68817 6.46484 7.93975 6.46484 8.25011C6.46484 8.56042 6.71647 8.81205 7.02678 8.81205H16.9725C17.2828 8.81205 17.5344 8.56042 17.5344 8.25011C17.5345 7.93975 17.2828 7.68817 16.9725 7.68817Z" fill="white"/>
<path d="M16.9725 11.079H7.02678C6.71647 11.079 6.46484 11.3307 6.46484 11.641C6.46484 11.9513 6.71647 12.2029 7.02678 12.2029H16.9725C17.2828 12.2029 17.5344 11.9513 17.5344 11.641C17.5345 11.3307 17.2828 11.079 16.9725 11.079Z" fill="white"/>
<path d="M16.9725 14.4698H7.02678C6.71647 14.4698 6.46484 14.7215 6.46484 15.0318C6.46484 15.3421 6.71647 15.5937 7.02678 15.5937H16.9725C17.2828 15.5937 17.5344 15.3421 17.5344 15.0318C17.5345 14.7215 17.2828 14.4698 16.9725 14.4698Z" fill="white"/>
<path d="M11.9997 17.8608H7.02678C6.71647 17.8608 6.46484 18.1125 6.46484 18.4228C6.46484 18.7331 6.71647 18.9847 7.02678 18.9847H11.9997C12.31 18.9847 12.5616 18.7331 12.5616 18.4228C12.5616 18.1124 12.31 17.8608 11.9997 17.8608Z" fill="white"/>
</svg>
