<svg width="40" height="40" viewBox="0 0 40 40" fill="none" xmlns="http://www.w3.org/2000/svg">
<path d="M34.9956 8.09602C34.9929 7.8557 34.8999 7.62023 34.7233 7.44352L27.5541 0.274297C27.5538 0.273984 27.5536 0.273906 27.5533 0.273672C27.384 0.104531 27.1501 0 26.8919 0H6.97563C5.88836 0 5.00391 0.884375 5.00391 1.97164V38.0283C5.00391 39.1155 5.88828 39.9999 6.97555 39.9999H33.0259C34.1131 39.9999 34.9975 39.1155 34.9975 38.0283V8.1057C34.9977 8.10227 34.9959 8.09937 34.9956 8.09602ZM27.8284 3.19773L31.7998 7.16914H27.927C27.8727 7.16914 27.8284 7.12484 27.8284 7.07055V3.19773ZM33.1245 38.0284C33.1245 38.0827 33.0802 38.1269 33.0259 38.1269H6.97563C6.92133 38.1269 6.87711 38.0827 6.87711 38.0284V1.97164C6.87711 1.91734 6.92133 1.87312 6.97563 1.87312H25.9553V7.07055C25.9553 8.15773 26.8398 9.04234 27.9271 9.04234H33.1245V38.0284H33.1245Z" fill="#00B857"/>
<path d="M28.2862 12.8137H11.71C11.1928 12.8137 10.7734 13.233 10.7734 13.7502C10.7734 14.2674 11.1928 14.6868 11.71 14.6868H28.2862C28.8034 14.6868 29.2227 14.2674 29.2227 13.7502C29.2228 13.233 28.8034 12.8137 28.2862 12.8137Z" fill="#00B857"/>
<path d="M28.2862 18.4651H11.71C11.1928 18.4651 10.7734 18.8845 10.7734 19.4017C10.7734 19.9188 11.1928 20.3382 11.71 20.3382H28.2862C28.8034 20.3382 29.2227 19.9188 29.2227 19.4017C29.2228 18.8845 28.8034 18.4651 28.2862 18.4651Z" fill="#00B857"/>
<path d="M28.2862 24.1164H11.71C11.1928 24.1164 10.7734 24.5358 10.7734 25.053C10.7734 25.5703 11.1928 25.9895 11.71 25.9895H28.2862C28.8034 25.9895 29.2227 25.5703 29.2227 25.053C29.2228 24.5359 28.8034 24.1164 28.2862 24.1164Z" fill="#00B857"/>
<path d="M19.9981 29.7681H11.71C11.1928 29.7681 10.7734 30.1875 10.7734 30.7047C10.7734 31.2219 11.1928 31.6412 11.71 31.6412H19.9981C20.5153 31.6412 20.9347 31.2219 20.9347 30.7047C20.9347 30.1874 20.5153 29.7681 19.9981 29.7681Z" fill="#00B857"/>
</svg>
