<svg width="22" height="22" viewBox="0 0 22 22" fill="none" xmlns="http://www.w3.org/2000/svg">
<path d="M19.9375 6.1875H18.9062V5.5C18.9062 5.40883 18.87 5.3214 18.8056 5.25693C18.7411 5.19247 18.6537 5.15625 18.5625 5.15625H16.1562C16.0651 5.15625 15.9776 5.19247 15.9132 5.25693C15.8487 5.3214 15.8125 5.40883 15.8125 5.5V6.1875H14.4375V4.8125C14.4375 4.539 14.3288 4.27669 14.1355 4.0833C13.9421 3.8899 13.6798 3.78125 13.4062 3.78125H8.59375C8.32025 3.78125 8.05794 3.8899 7.86455 4.0833C7.67115 4.27669 7.5625 4.539 7.5625 4.8125V6.1875H6.1875V5.5C6.1875 5.40883 6.15128 5.3214 6.08682 5.25693C6.02235 5.19247 5.93492 5.15625 5.84375 5.15625H3.4375C3.34633 5.15625 3.2589 5.19247 3.19443 5.25693C3.12997 5.3214 3.09375 5.40883 3.09375 5.5V6.1875H2.0625C1.60683 6.18805 1.16997 6.3693 0.847763 6.69151C0.525553 7.01372 0.344296 7.45058 0.34375 7.90625V16.8438C0.344296 17.2994 0.525553 17.7363 0.847763 18.0585C1.16997 18.3807 1.60683 18.562 2.0625 18.5625H19.9375C20.3932 18.562 20.83 18.3807 21.1522 18.0585C21.4744 17.7363 21.6557 17.2994 21.6562 16.8438V7.90625C21.6557 7.45058 21.4744 7.01372 21.1522 6.69151C20.83 6.3693 20.3932 6.18805 19.9375 6.1875ZM16.5 5.84375H18.2188V6.1875H16.5V5.84375ZM16.5 6.875V17.875H5.5V6.875H16.5ZM8.25 4.8125C8.25 4.72133 8.28622 4.6339 8.35068 4.56943C8.41515 4.50497 8.50258 4.46875 8.59375 4.46875H13.4062C13.4974 4.46875 13.5849 4.50497 13.6493 4.56943C13.7138 4.6339 13.75 4.72133 13.75 4.8125V6.1875H8.25V4.8125ZM3.78125 5.84375H5.5V6.1875H3.78125V5.84375ZM1.03125 16.8438V7.90625C1.03125 7.63275 1.1399 7.37044 1.3333 7.17705C1.52669 6.98365 1.789 6.875 2.0625 6.875H3.78125V17.875H2.0625C1.789 17.875 1.52669 17.7663 1.3333 17.573C1.1399 17.3796 1.03125 17.1173 1.03125 16.8438ZM4.46875 17.875V6.875H4.8125V17.875H4.46875ZM17.1875 17.875V6.875H17.5312V17.875H17.1875ZM20.9688 16.8438C20.9688 17.1173 20.8601 17.3796 20.6667 17.573C20.4733 17.7663 20.211 17.875 19.9375 17.875H18.2188V6.875H19.9375C20.211 6.875 20.4733 6.98365 20.6667 7.17705C20.8601 7.37044 20.9688 7.63275 20.9688 7.90625V16.8438Z" fill="white"/>
<path d="M11 16.8437C11.8838 16.8437 12.7478 16.5817 13.4827 16.0906C14.2176 15.5996 14.7904 14.9017 15.1286 14.0851C15.4668 13.2686 15.5553 12.37 15.3829 11.5032C15.2105 10.6363 14.7848 9.84008 14.1599 9.21512C13.5349 8.59015 12.7387 8.16455 11.8718 7.99212C11.005 7.81969 10.1064 7.90819 9.28988 8.24642C8.47333 8.58464 7.7754 9.15741 7.28437 9.8923C6.79334 10.6272 6.53125 11.4912 6.53125 12.375C6.53261 13.5598 7.00387 14.6956 7.84162 15.5334C8.67938 16.3711 9.81523 16.8424 11 16.8437ZM11 8.59375C11.7479 8.59375 12.4789 8.81552 13.1007 9.23101C13.7226 9.6465 14.2072 10.237 14.4934 10.928C14.7796 11.6189 14.8545 12.3792 14.7086 13.1127C14.5627 13.8462 14.2026 14.5199 13.6737 15.0487C13.1449 15.5776 12.4712 15.9377 11.7377 16.0836C11.0042 16.2295 10.2439 16.1546 9.55298 15.8684C8.86204 15.5822 8.27149 15.0976 7.85601 14.4757C7.44052 13.8539 7.21875 13.1229 7.21875 12.375C7.21993 11.3725 7.61869 10.4114 8.32756 9.70256C9.03642 8.99369 9.99751 8.59493 11 8.59375Z" fill="white"/>
<path d="M8.59375 13.4062H9.96875V14.7812C9.96875 14.8724 10.005 14.9599 10.0694 15.0243C10.1339 15.0888 10.2213 15.125 10.3125 15.125H11.6875C11.7787 15.125 11.8661 15.0888 11.9306 15.0243C11.995 14.9599 12.0312 14.8724 12.0312 14.7812V13.4062H13.4062C13.4974 13.4062 13.5849 13.37 13.6493 13.3056C13.7138 13.2411 13.75 13.1537 13.75 13.0625V11.6875C13.75 11.5963 13.7138 11.5089 13.6493 11.4444C13.5849 11.38 13.4974 11.3438 13.4062 11.3438H12.0312V9.96875C12.0312 9.87758 11.995 9.79015 11.9306 9.72568C11.8661 9.66122 11.7787 9.625 11.6875 9.625H10.3125C10.2213 9.625 10.1339 9.66122 10.0694 9.72568C10.005 9.79015 9.96875 9.87758 9.96875 9.96875V11.3438H8.59375C8.50258 11.3438 8.41515 11.38 8.35068 11.4444C8.28622 11.5089 8.25 11.5963 8.25 11.6875V13.0625C8.25 13.1537 8.28622 13.2411 8.35068 13.3056C8.41515 13.37 8.50258 13.4062 8.59375 13.4062ZM8.9375 12.0312H10.3125C10.4037 12.0312 10.4911 11.995 10.5556 11.9306C10.62 11.8661 10.6562 11.7787 10.6562 11.6875V10.3125H11.3438V11.6875C11.3438 11.7787 11.38 11.8661 11.4444 11.9306C11.5089 11.995 11.5963 12.0312 11.6875 12.0312H13.0625V12.7188H11.6875C11.5963 12.7188 11.5089 12.755 11.4444 12.8194C11.38 12.8839 11.3438 12.9713 11.3438 13.0625V14.4375H10.6562V13.0625C10.6562 12.9713 10.62 12.8839 10.5556 12.8194C10.4911 12.755 10.4037 12.7188 10.3125 12.7188H8.9375V12.0312Z" fill="white"/>
</svg>
