<svg width="41" height="41" viewBox="0 0 41 41" fill="none" xmlns="http://www.w3.org/2000/svg">
<path d="M39.7188 18.5781H38.3318L36.3427 7.64025C36.182 6.75457 35.7153 5.95343 35.0243 5.37665C34.3332 4.79988 33.4615 4.48408 32.5614 4.48438H8.43863C7.53849 4.48408 6.66681 4.79988 5.97573 5.37665C5.28465 5.95343 4.81805 6.75457 4.65734 7.64025L2.6682 18.5781H1.28125C1.11135 18.5781 0.9484 18.6456 0.82826 18.7658C0.708119 18.8859 0.640625 19.0488 0.640625 19.2188V21.7812C0.640625 21.9512 0.708119 22.1141 0.82826 22.2342C0.9484 22.3544 1.11135 22.4219 1.28125 22.4219H2.6682L4.65734 33.3597C4.81805 34.2454 5.28465 35.0466 5.97573 35.6233C6.66681 36.2001 7.53849 36.5159 8.43863 36.5156H32.5614C33.4615 36.5159 34.3332 36.2001 35.0243 35.6233C35.7153 35.0466 36.182 34.2454 36.3427 33.3597L38.3318 22.4219H39.7188C39.8887 22.4219 40.0516 22.3544 40.1717 22.2342C40.2919 22.1141 40.3594 21.9512 40.3594 21.7812V19.2188C40.3594 19.0488 40.2919 18.8859 40.1717 18.7658C40.0516 18.6456 39.8887 18.5781 39.7188 18.5781ZM5.91777 7.87008C6.02482 7.27953 6.33585 6.74533 6.79658 6.36071C7.2573 5.97609 7.83846 5.76548 8.43863 5.76563H32.5614C33.1615 5.76548 33.7427 5.97609 34.2034 6.36071C34.6642 6.74533 34.9752 7.27953 35.0822 7.87008L37.0289 18.5781H3.97107L5.91777 7.87008ZM35.0822 33.1299C34.9752 33.7205 34.6642 34.2547 34.2034 34.6393C33.7427 35.0239 33.1615 35.2345 32.5614 35.2344H8.43863C7.83846 35.2345 7.2573 35.0239 6.79658 34.6393C6.33585 34.2547 6.02482 33.7205 5.91777 33.1299L3.97107 22.4219H15.62L16.7235 24.6304C16.7769 24.7368 16.8587 24.8262 16.96 24.8887C17.0612 24.9512 17.1779 24.9844 17.2969 24.9844H23.7031C23.8221 24.9844 23.9388 24.9512 24.04 24.8887C24.1413 24.8262 24.2231 24.7368 24.2765 24.6304L25.38 22.4219H37.0289L35.0822 33.1299ZM17.0518 22.4219H23.9482L23.3075 23.7031H17.6925L17.0518 22.4219ZM39.0781 21.1406H1.92188V19.8594H39.0781V21.1406Z" fill="#00B857"/>
<path d="M12.8125 28.1875C12.6426 28.1875 12.4796 28.255 12.3595 28.3751C12.2394 28.4953 12.1719 28.6582 12.1719 28.8281V31.3906C12.1719 31.5605 12.2394 31.7235 12.3595 31.8436C12.4796 31.9638 12.6426 32.0312 12.8125 32.0312H28.1875C28.3574 32.0312 28.5203 31.9638 28.6405 31.8436C28.7606 31.7235 28.8281 31.5605 28.8281 31.3906V28.8281C28.8281 28.6582 28.7606 28.4953 28.6405 28.3751C28.5203 28.255 28.3574 28.1875 28.1875 28.1875H12.8125ZM27.5469 30.75H13.4531V29.4688H27.5469V30.75Z" fill="#00B857"/>
<path d="M14.7344 16.6562H6.40625C6.23635 16.6562 6.0734 16.7237 5.95326 16.8439C5.83312 16.964 5.76562 17.127 5.76562 17.2969C5.76562 17.4668 5.83312 17.6297 5.95326 17.7499C6.0734 17.87 6.23635 17.9375 6.40625 17.9375H14.7344C14.9043 17.9375 15.0672 17.87 15.1874 17.7499C15.3075 17.6297 15.375 17.4668 15.375 17.2969C15.375 17.127 15.3075 16.964 15.1874 16.8439C15.0672 16.7237 14.9043 16.6562 14.7344 16.6562Z" fill="#00B857"/>
</svg>
