<svg width="22" height="22" viewBox="0 0 22 22" fill="none" xmlns="http://www.w3.org/2000/svg">
<g clip-path="url(#clip0)">
<path d="M21.2482 8.26491L16.2667 3.28339C15.8558 2.87233 15.4388 2.66403 15.0278 2.66403C14.4635 2.66403 13.8043 3.09338 13.8043 4.30322V5.89592C6.74572 6.20644 0.870081 11.5866 0.00483138 18.6531C-0.03092 18.9443 0.134577 19.2228 0.407328 19.3307C0.484537 19.3613 0.564768 19.376 0.644159 19.376C0.845072 19.376 1.04011 19.2819 1.16432 19.1122C3.54237 15.863 7.36071 13.9232 11.3781 13.9232C12.1875 13.9232 13.0014 14.0024 13.8043 14.1592V15.8623C13.8043 17.0722 14.4635 17.5015 15.0278 17.5015H15.0279C15.439 17.5015 15.8558 17.293 16.2667 16.8822L21.2482 11.9006C22.2506 10.8983 22.2506 9.26729 21.2482 8.26491ZM20.3369 10.9894L15.3554 15.9708C15.2596 16.0666 15.1804 16.127 15.1219 16.1636C15.1065 16.0965 15.0932 15.9978 15.0932 15.8623V13.639C15.0932 13.3404 14.8878 13.0808 14.5971 13.012C13.5375 12.7614 12.4545 12.6345 11.3781 12.6345C9.14979 12.6345 6.93321 13.1736 4.96806 14.1939C3.81193 14.7941 2.73939 15.561 1.79106 16.46C3.49302 11.0278 8.57273 7.17072 14.4489 7.17072C14.8047 7.17072 15.0932 6.88219 15.0932 6.52619V4.30322C15.0932 4.16777 15.1065 4.06908 15.1219 4.00177C15.1804 4.03836 15.2596 4.09895 15.3554 4.19463L20.3369 9.17615C20.8368 9.676 20.8368 10.4894 20.3369 10.9894Z" fill="white"/>
</g>
<defs>
<clipPath id="clip0">
<rect width="22" height="22" fill="white"/>
</clipPath>
</defs>
</svg>
