<svg width="22" height="22" viewBox="0 0 22 22" fill="none" xmlns="http://www.w3.org/2000/svg">
<path d="M11 13.75C11.0912 13.75 11.1786 13.7138 11.2431 13.6493C11.3075 13.5849 11.3438 13.4974 11.3438 13.4062V6.53125C11.3438 6.44008 11.3075 6.35265 11.2431 6.28818C11.1786 6.22372 11.0912 6.1875 11 6.1875C10.9088 6.1875 10.8214 6.22372 10.7569 6.28818C10.6925 6.35265 10.6562 6.44008 10.6562 6.53125V13.4062C10.6562 13.4974 10.6925 13.5849 10.7569 13.6493C10.8214 13.7138 10.9088 13.75 11 13.75Z" fill="white"/>
<path d="M9.28125 13.75C9.37242 13.75 9.45985 13.7138 9.52432 13.6493C9.58878 13.5849 9.625 13.4974 9.625 13.4062V6.53125C9.625 6.44008 9.58878 6.35265 9.52432 6.28818C9.45985 6.22372 9.37242 6.1875 9.28125 6.1875C9.19008 6.1875 9.10265 6.22372 9.03818 6.28818C8.97372 6.35265 8.9375 6.44008 8.9375 6.53125V13.4062C8.9375 13.4974 8.97372 13.5849 9.03818 13.6493C9.10265 13.7138 9.19008 13.75 9.28125 13.75Z" fill="white"/>
<path d="M7.5625 13.75C7.65367 13.75 7.7411 13.7138 7.80557 13.6493C7.87003 13.5849 7.90625 13.4974 7.90625 13.4062V6.53125C7.90625 6.44008 7.87003 6.35265 7.80557 6.28818C7.7411 6.22372 7.65367 6.1875 7.5625 6.1875C7.47133 6.1875 7.3839 6.22372 7.31943 6.28818C7.25497 6.35265 7.21875 6.44008 7.21875 6.53125V13.4062C7.21875 13.4974 7.25497 13.5849 7.31943 13.6493C7.3839 13.7138 7.47133 13.75 7.5625 13.75Z" fill="white"/>
<path d="M5.84375 13.75C5.93492 13.75 6.02235 13.7138 6.08682 13.6493C6.15128 13.5849 6.1875 13.4974 6.1875 13.4062V6.53125C6.1875 6.44008 6.15128 6.35265 6.08682 6.28818C6.02235 6.22372 5.93492 6.1875 5.84375 6.1875C5.75258 6.1875 5.66515 6.22372 5.60068 6.28818C5.53622 6.35265 5.5 6.44008 5.5 6.53125V13.4062C5.5 13.4974 5.53622 13.5849 5.60068 13.6493C5.66515 13.7138 5.75258 13.75 5.84375 13.75Z" fill="white"/>
<path d="M4.125 13.75C4.21617 13.75 4.3036 13.7138 4.36807 13.6493C4.43253 13.5849 4.46875 13.4974 4.46875 13.4062V6.53125C4.46875 6.44008 4.43253 6.35265 4.36807 6.28818C4.3036 6.22372 4.21617 6.1875 4.125 6.1875C4.03383 6.1875 3.9464 6.22372 3.88193 6.28818C3.81747 6.35265 3.78125 6.44008 3.78125 6.53125V13.4062C3.78125 13.4974 3.81747 13.5849 3.88193 13.6493C3.9464 13.7138 4.03383 13.75 4.125 13.75Z" fill="white"/>
<path d="M2.40625 13.75C2.49742 13.75 2.58485 13.7138 2.64932 13.6493C2.71378 13.5849 2.75 13.4974 2.75 13.4062V6.53125C2.75 6.44008 2.71378 6.35265 2.64932 6.28818C2.58485 6.22372 2.49742 6.1875 2.40625 6.1875C2.31508 6.1875 2.22765 6.22372 2.16318 6.28818C2.09872 6.35265 2.0625 6.44008 2.0625 6.53125V13.4062C2.0625 13.4974 2.09872 13.5849 2.16318 13.6493C2.22765 13.7138 2.31508 13.75 2.40625 13.75Z" fill="white"/>
<path d="M19.5938 13.75C19.6849 13.75 19.7724 13.7138 19.8368 13.6493C19.9013 13.5849 19.9375 13.4974 19.9375 13.4062V6.53125C19.9375 6.44008 19.9013 6.35265 19.8368 6.28818C19.7724 6.22372 19.6849 6.1875 19.5938 6.1875C19.5026 6.1875 19.4151 6.22372 19.3507 6.28818C19.2862 6.35265 19.25 6.44008 19.25 6.53125V13.4062C19.25 13.4974 19.2862 13.5849 19.3507 13.6493C19.4151 13.7138 19.5026 13.75 19.5938 13.75Z" fill="white"/>
<path d="M17.875 13.75C17.9662 13.75 18.0536 13.7138 18.1181 13.6493C18.1825 13.5849 18.2188 13.4974 18.2188 13.4062V6.53125C18.2188 6.44008 18.1825 6.35265 18.1181 6.28818C18.0536 6.22372 17.9662 6.1875 17.875 6.1875C17.7838 6.1875 17.6964 6.22372 17.6319 6.28818C17.5675 6.35265 17.5312 6.44008 17.5312 6.53125V13.4062C17.5312 13.4974 17.5675 13.5849 17.6319 13.6493C17.6964 13.7138 17.7838 13.75 17.875 13.75Z" fill="white"/>
<path d="M16.1562 13.75C16.2474 13.75 16.3349 13.7138 16.3993 13.6493C16.4638 13.5849 16.5 13.4974 16.5 13.4062V6.53125C16.5 6.44008 16.4638 6.35265 16.3993 6.28818C16.3349 6.22372 16.2474 6.1875 16.1562 6.1875C16.0651 6.1875 15.9776 6.22372 15.9132 6.28818C15.8487 6.35265 15.8125 6.44008 15.8125 6.53125V13.4062C15.8125 13.4974 15.8487 13.5849 15.9132 13.6493C15.9776 13.7138 16.0651 13.75 16.1562 13.75Z" fill="white"/>
<path d="M14.4375 13.75C14.5287 13.75 14.6161 13.7138 14.6806 13.6493C14.745 13.5849 14.7812 13.4974 14.7812 13.4062V6.53125C14.7812 6.44008 14.745 6.35265 14.6806 6.28818C14.6161 6.22372 14.5287 6.1875 14.4375 6.1875C14.3463 6.1875 14.2589 6.22372 14.1944 6.28818C14.13 6.35265 14.0938 6.44008 14.0938 6.53125V13.4062C14.0938 13.4974 14.13 13.5849 14.1944 13.6493C14.2589 13.7138 14.3463 13.75 14.4375 13.75Z" fill="white"/>
<path d="M12.7188 13.75C12.8099 13.75 12.8974 13.7138 12.9618 13.6493C13.0263 13.5849 13.0625 13.4974 13.0625 13.4062V6.53125C13.0625 6.44008 13.0263 6.35265 12.9618 6.28818C12.8974 6.22372 12.8099 6.1875 12.7188 6.1875C12.6276 6.1875 12.5401 6.22372 12.4757 6.28818C12.4112 6.35265 12.375 6.44008 12.375 6.53125V13.4062C12.375 13.4974 12.4112 13.5849 12.4757 13.6493C12.5401 13.7138 12.6276 13.75 12.7188 13.75Z" fill="white"/>
<path d="M21.3125 5.5C21.4037 5.5 21.4911 5.46378 21.5556 5.39932C21.62 5.33485 21.6562 5.24742 21.6562 5.15625V4.125C21.6562 4.03383 21.62 3.9464 21.5556 3.88193C21.4911 3.81747 21.4037 3.78125 21.3125 3.78125H0.6875C0.596332 3.78125 0.508898 3.81747 0.444432 3.88193C0.379966 3.9464 0.34375 4.03383 0.34375 4.125V5.15625C0.34375 5.24742 0.379966 5.33485 0.444432 5.39932C0.508898 5.46378 0.596332 5.5 0.6875 5.5H1.03125V14.4375H0.6875C0.596332 14.4375 0.508898 14.4737 0.444432 14.5382C0.379966 14.6026 0.34375 14.6901 0.34375 14.7812V17.875C0.34375 17.9662 0.379966 18.0536 0.444432 18.1181C0.508898 18.1825 0.596332 18.2187 0.6875 18.2187H1.4184C1.49467 18.5139 1.66685 18.7754 1.90789 18.962C2.14892 19.1487 2.44514 19.25 2.75 19.25C3.05486 19.25 3.35108 19.1487 3.59211 18.962C3.83315 18.7754 4.00533 18.5139 4.0816 18.2187H4.8559C4.93217 18.5139 5.10435 18.7754 5.34539 18.962C5.58642 19.1487 5.88264 19.25 6.1875 19.25C6.49236 19.25 6.78858 19.1487 7.02961 18.962C7.27065 18.7754 7.44283 18.5139 7.5191 18.2187H14.1371C14.2134 18.5139 14.3856 18.7754 14.6266 18.962C14.8677 19.1487 15.1639 19.25 15.4688 19.25C15.7736 19.25 16.0698 19.1487 16.3109 18.962C16.5519 18.7754 16.7241 18.5139 16.8004 18.2187H17.5746C17.6509 18.5139 17.8231 18.7754 18.0641 18.962C18.3052 19.1487 18.6014 19.25 18.9062 19.25C19.2111 19.25 19.5073 19.1487 19.7484 18.962C19.9894 18.7754 20.1616 18.5139 20.2379 18.2187H21.3125C21.4037 18.2187 21.4911 18.1825 21.5556 18.1181C21.62 18.0536 21.6562 17.9662 21.6562 17.875V14.7812C21.6562 14.6901 21.62 14.6026 21.5556 14.5382C21.4911 14.4737 21.4037 14.4375 21.3125 14.4375H20.9688V5.5H21.3125ZM2.75 18.5625C2.61403 18.5625 2.4811 18.5222 2.36805 18.4466C2.25499 18.3711 2.16687 18.2637 2.11483 18.1381C2.0628 18.0125 2.04918 17.8742 2.07571 17.7409C2.10224 17.6075 2.16772 17.485 2.26386 17.3889C2.36001 17.2927 2.48251 17.2272 2.61588 17.2007C2.74924 17.1742 2.88747 17.1878 3.01309 17.2398C3.13872 17.2919 3.24609 17.38 3.32164 17.493C3.39718 17.6061 3.4375 17.739 3.4375 17.875C3.43726 18.0573 3.36475 18.232 3.23587 18.3609C3.10699 18.4898 2.93226 18.5623 2.75 18.5625ZM6.1875 18.5625C6.05153 18.5625 5.9186 18.5222 5.80555 18.4466C5.69249 18.3711 5.60437 18.2637 5.55233 18.1381C5.5003 18.0125 5.48668 17.8742 5.51321 17.7409C5.53974 17.6075 5.60522 17.485 5.70136 17.3889C5.79751 17.2927 5.92001 17.2272 6.05338 17.2007C6.18674 17.1742 6.32497 17.1878 6.45059 17.2398C6.57622 17.2919 6.68359 17.38 6.75914 17.493C6.83468 17.6061 6.875 17.739 6.875 17.875C6.87476 18.0573 6.80225 18.232 6.67337 18.3609C6.54449 18.4898 6.36976 18.5623 6.1875 18.5625ZM15.4688 18.5625C15.3328 18.5625 15.1999 18.5222 15.0868 18.4466C14.9737 18.3711 14.8856 18.2637 14.8336 18.1381C14.7815 18.0125 14.7679 17.8742 14.7945 17.7409C14.821 17.6075 14.8865 17.485 14.9826 17.3889C15.0788 17.2927 15.2013 17.2272 15.3346 17.2007C15.468 17.1742 15.6062 17.1878 15.7318 17.2398C15.8575 17.2919 15.9648 17.38 16.0404 17.493C16.1159 17.6061 16.1562 17.739 16.1562 17.875C16.156 18.0573 16.0835 18.232 15.9546 18.3609C15.8257 18.4898 15.651 18.5623 15.4688 18.5625ZM18.9062 18.5625C18.7703 18.5625 18.6374 18.5222 18.5243 18.4466C18.4112 18.3711 18.3231 18.2637 18.2711 18.1381C18.219 18.0125 18.2054 17.8742 18.232 17.7409C18.2585 17.6075 18.324 17.485 18.4201 17.3889C18.5163 17.2927 18.6388 17.2272 18.7721 17.2007C18.9055 17.1742 19.0437 17.1878 19.1693 17.2398C19.295 17.2919 19.4023 17.38 19.4779 17.493C19.5534 17.6061 19.5938 17.739 19.5938 17.875C19.5935 18.0573 19.521 18.232 19.3921 18.3609C19.2632 18.4898 19.0885 18.5623 18.9062 18.5625ZM20.9688 17.5312H20.2379C20.1616 17.2361 19.9894 16.9746 19.7484 16.788C19.5073 16.6013 19.2111 16.5 18.9062 16.5C18.6014 16.5 18.3052 16.6013 18.0641 16.788C17.8231 16.9746 17.6509 17.2361 17.5746 17.5312H16.8004C16.7241 17.2361 16.5519 16.9746 16.3109 16.788C16.0698 16.6013 15.7736 16.5 15.4688 16.5C15.1639 16.5 14.8677 16.6013 14.6266 16.788C14.3856 16.9746 14.2134 17.2361 14.1371 17.5312H7.5191C7.44283 17.2361 7.27065 16.9746 7.02961 16.788C6.78858 16.6013 6.49236 16.5 6.1875 16.5C5.88264 16.5 5.58642 16.6013 5.34539 16.788C5.10435 16.9746 4.93217 17.2361 4.8559 17.5312H4.0816C4.00533 17.2361 3.83315 16.9746 3.59211 16.788C3.35108 16.6013 3.05486 16.5 2.75 16.5C2.44514 16.5 2.14892 16.6013 1.90789 16.788C1.66685 16.9746 1.49467 17.2361 1.4184 17.5312H1.03125V16.1562H20.9688V17.5312ZM20.9688 15.4687H1.03125V15.125H20.9688V15.4687ZM1.71875 14.4375V5.5H20.2812V14.4375H1.71875ZM1.03125 4.8125V4.46875H20.9688V4.8125H1.03125Z" fill="white"/>
<path d="M6.1875 18.2188C6.37735 18.2188 6.53125 18.0648 6.53125 17.875C6.53125 17.6852 6.37735 17.5312 6.1875 17.5312C5.99765 17.5312 5.84375 17.6852 5.84375 17.875C5.84375 18.0648 5.99765 18.2188 6.1875 18.2188Z" fill="white"/>
<path d="M2.75 18.2188C2.93985 18.2188 3.09375 18.0648 3.09375 17.875C3.09375 17.6852 2.93985 17.5312 2.75 17.5312C2.56015 17.5312 2.40625 17.6852 2.40625 17.875C2.40625 18.0648 2.56015 18.2188 2.75 18.2188Z" fill="white"/>
<path d="M18.9062 18.2188C19.0961 18.2188 19.25 18.0648 19.25 17.875C19.25 17.6852 19.0961 17.5312 18.9062 17.5312C18.7164 17.5312 18.5625 17.6852 18.5625 17.875C18.5625 18.0648 18.7164 18.2188 18.9062 18.2188Z" fill="white"/>
<path d="M15.4688 18.2188C15.6586 18.2188 15.8125 18.0648 15.8125 17.875C15.8125 17.6852 15.6586 17.5312 15.4688 17.5312C15.2789 17.5312 15.125 17.6852 15.125 17.875C15.125 18.0648 15.2789 18.2188 15.4688 18.2188Z" fill="white"/>
</svg>
