<svg width="40" height="34" viewBox="0 0 40 34" fill="none" xmlns="http://www.w3.org/2000/svg">
<path d="M38.75 25.75H34.375V2.3125C34.3744 1.73254 34.1437 1.17651 33.7336 0.766412C33.3235 0.356315 32.7675 0.125641 32.1875 0.125H2.8125C2.23254 0.125641 1.67651 0.356315 1.26641 0.766412C0.856315 1.17651 0.625641 1.73254 0.625 2.3125V27.9375C0.625641 28.5175 0.856315 29.0735 1.26641 29.4836C1.67651 29.8937 2.23254 30.1244 2.8125 30.125H3.79531C3.94555 31.1662 4.46594 32.1183 5.26113 32.807C6.05632 33.4957 7.07305 33.8748 8.125 33.8748C9.17695 33.8748 10.1937 33.4957 10.9889 32.807C11.7841 32.1183 12.3044 31.1662 12.4547 30.125H22.5453C22.6955 31.1662 23.2159 32.1183 24.0111 32.807C24.8063 33.4957 25.823 33.8748 26.875 33.8748C27.927 33.8748 28.9437 33.4957 29.7389 32.807C30.5341 32.1183 31.0545 31.1662 31.2047 30.125H32.1875C32.7675 30.1244 33.3235 29.8937 33.7336 29.4836C34.1437 29.0735 34.3744 28.5175 34.375 27.9375V27H35.625V33.25C35.625 33.4158 35.6908 33.5747 35.8081 33.6919C35.9253 33.8092 36.0842 33.875 36.25 33.875C36.4158 33.875 36.5747 33.8092 36.6919 33.6919C36.8092 33.5747 36.875 33.4158 36.875 33.25V27H38.75C38.9158 27 39.0747 26.9342 39.1919 26.8169C39.3092 26.6997 39.375 26.5408 39.375 26.375C39.375 26.2092 39.3092 26.0503 39.1919 25.9331C39.0747 25.8158 38.9158 25.75 38.75 25.75ZM8.125 32.625C7.50693 32.625 6.90275 32.4417 6.38884 32.0983C5.87494 31.755 5.4744 31.2669 5.23788 30.6959C5.00135 30.1249 4.93947 29.4965 5.06005 28.8903C5.18062 28.2842 5.47825 27.7273 5.91529 27.2903C6.35233 26.8533 6.90915 26.5556 7.51534 26.435C8.12153 26.3145 8.74987 26.3764 9.32089 26.6129C9.8919 26.8494 10.38 27.2499 10.7233 27.7638C11.0667 28.2777 11.25 28.8819 11.25 29.5C11.2492 30.3285 10.9197 31.1229 10.3338 31.7088C9.74792 32.2947 8.95355 32.6242 8.125 32.625ZM26.875 32.625C26.2569 32.625 25.6527 32.4417 25.1388 32.0983C24.6249 31.755 24.2244 31.2669 23.9879 30.6959C23.7514 30.1249 23.6895 29.4965 23.81 28.8903C23.9306 28.2842 24.2283 27.7273 24.6653 27.2903C25.1023 26.8533 25.6592 26.5556 26.2653 26.435C26.8715 26.3145 27.4999 26.3764 28.0709 26.6129C28.6419 26.8494 29.13 27.2499 29.4733 27.7638C29.8167 28.2777 30 28.8819 30 29.5C29.9992 30.3285 29.6697 31.1229 29.0838 31.7088C28.4979 32.2947 27.7035 32.6242 26.875 32.625ZM33.125 27.9375C33.1248 28.1861 33.026 28.4244 32.8502 28.6002C32.6744 28.776 32.4361 28.8748 32.1875 28.875H31.2047C31.0545 27.8338 30.5341 26.8817 29.7389 26.193C28.9437 25.5043 27.927 25.1252 26.875 25.1252C25.823 25.1252 24.8063 25.5043 24.0111 26.193C23.2159 26.8817 22.6955 27.8338 22.5453 28.875H12.4547C12.3044 27.8338 11.7841 26.8817 10.9889 26.193C10.1937 25.5043 9.17695 25.1252 8.125 25.1252C7.07305 25.1252 6.05632 25.5043 5.26113 26.193C4.46594 26.8817 3.94555 27.8338 3.79531 28.875H2.8125C2.56392 28.8748 2.32559 28.776 2.14982 28.6002C1.97405 28.4244 1.87521 28.1861 1.875 27.9375V20.75H33.125V27.9375ZM33.125 19.5H1.875V2.3125C1.87521 2.06392 1.97405 1.82559 2.14982 1.64982C2.32559 1.47405 2.56392 1.37521 2.8125 1.375H32.1875C32.4361 1.37521 32.6744 1.47405 32.8502 1.64982C33.026 1.82559 33.1248 2.06392 33.125 2.3125V19.5Z" fill="#00B857"/>
</svg>
