<svg width="41" height="41" viewBox="0 0 41 41" fill="none" xmlns="http://www.w3.org/2000/svg">
<path d="M39.3984 8.48885H30.1647C30.6215 7.72347 30.8728 6.95896 30.9115 6.20447C30.9683 5.09851 30.5639 4.07943 29.7418 3.25743C28.8599 2.37545 27.7629 1.97722 26.5697 2.10559C25.3232 2.23964 24.0592 2.93968 22.8127 4.1861C21.9165 5.08225 21.1076 6.18268 20.5 7.30938C19.8924 6.18276 19.0835 5.08225 18.1873 4.1861C16.9408 2.9396 15.6767 2.23956 14.4303 2.10551C13.2372 1.97738 12.1401 2.37545 11.2583 3.25735C10.4361 4.07943 10.0317 5.09851 10.0885 6.20447C10.1272 6.95904 10.3786 7.72347 10.8353 8.48885H1.60156C0.718461 8.48885 0 9.20732 0 10.0904V14.8951C0 15.7782 0.718461 16.4967 1.60156 16.4967V37.317C1.60156 38.2001 2.32002 38.9185 3.20312 38.9185H37.7968C38.6799 38.9185 39.3984 38.2001 39.3984 37.317V16.4967C40.2815 16.4967 40.9999 15.7782 40.9999 14.8951V10.0904C41 9.20724 40.2815 8.48885 39.3984 8.48885ZM23.9452 5.31848C24.9128 4.3509 25.8796 3.79043 26.741 3.69786C27.4458 3.62227 28.0744 3.85481 28.6094 4.38982C29.6758 5.45622 29.5282 6.90635 28.2 8.48877H25.5778L26.6967 7.3873C27.0119 7.07708 27.0159 6.57002 26.7056 6.25484C26.3954 5.93965 25.8883 5.93564 25.5731 6.24595L23.2947 8.48885H21.697C22.2459 7.36039 23.0563 6.20743 23.9452 5.31848ZM16.4959 14.8951V10.0904H24.5041V14.8951H16.4959ZM12.3906 4.38982C12.9256 3.85489 13.5539 3.62227 14.259 3.69786C15.1204 3.79051 16.0872 4.3509 17.0548 5.31856C17.9437 6.20743 18.7541 7.36039 19.303 8.48885H17.7053L15.4268 6.24603C15.1116 5.93572 14.6046 5.93965 14.2943 6.25492C13.984 6.5701 13.988 7.07716 14.3032 7.38738L15.4222 8.48885H12.7999C11.4718 6.90635 11.3242 5.45622 12.3906 4.38982ZM1.6014 10.0904H1.60156H14.8944V14.8951H2.40314C2.4029 14.8951 2.40266 14.8951 2.40242 14.8951C2.40218 14.8951 2.40194 14.8951 2.4017 14.8951H1.60156L1.6014 10.0904ZM3.20312 16.4967H16.4959V23.303C16.4959 23.7453 16.8544 24.1038 17.2967 24.1038C17.739 24.1038 18.0975 23.7453 18.0975 23.303V16.4966H22.9023V37.3169H18.0975V30.51C18.0975 30.0677 17.739 29.7092 17.2967 29.7092C16.8544 29.7092 16.4959 30.0677 16.4959 30.51V37.317H3.20312V16.4967ZM37.7968 37.317H24.504V16.4967H37.7968V37.317ZM39.3984 14.8951H38.5977H26.1057V10.0904H39.3984V14.8951Z" fill="#00B857"/>
<path d="M17.2969 27.7073C17.7391 27.7073 18.0977 27.3488 18.0977 26.9065V26.9059C18.0977 26.4637 17.7391 26.1055 17.2969 26.1055C16.8546 26.1055 16.4961 26.4642 16.4961 26.9065C16.4961 27.3488 16.8546 27.7073 17.2969 27.7073Z" fill="#00B857"/>
</svg>
