<svg width="22" height="22" viewBox="0 0 22 22" fill="none" xmlns="http://www.w3.org/2000/svg">
<path d="M13.75 0.34375H8.25C8.06774 0.343989 7.89301 0.416498 7.76413 0.545378C7.63525 0.674257 7.56274 0.848987 7.5625 1.03125V6.53125C7.56274 6.71351 7.63525 6.88824 7.76413 7.01712C7.89301 7.146 8.06774 7.21851 8.25 7.21875H13.75C13.9323 7.21851 14.107 7.146 14.2359 7.01712C14.3648 6.88824 14.4373 6.71351 14.4375 6.53125V1.03125C14.4373 0.848987 14.3648 0.674257 14.2359 0.545378C14.107 0.416498 13.9323 0.343989 13.75 0.34375ZM10.3125 1.03125H11.6875V2.79512L11.1908 2.46383C11.1342 2.42628 11.0679 2.40625 11 2.40625C10.9321 2.40625 10.8658 2.42628 10.8092 2.46383L10.3125 2.79512V1.03125ZM13.75 6.53125H8.25V1.03125H9.625V3.4375C9.62509 3.4997 9.64203 3.5607 9.67403 3.61404C9.70603 3.66737 9.75188 3.71104 9.80671 3.74039C9.86154 3.76975 9.9233 3.7837 9.98543 3.78075C10.0476 3.77781 10.1077 3.75808 10.1595 3.72367L11 3.16293L11.8405 3.72367C11.897 3.76122 11.9634 3.78125 12.0312 3.78125C12.1224 3.78108 12.2097 3.74481 12.2741 3.68038C12.3386 3.61595 12.3748 3.52862 12.375 3.4375V1.03125H13.75L13.7504 6.53125H13.75Z" fill="white"/>
<path d="M11.344 14.1979V15.4688C11.344 15.5368 11.3641 15.6032 11.4019 15.6598C11.4397 15.7163 11.4933 15.7604 11.5562 15.7864C11.619 15.8124 11.6881 15.8192 11.7548 15.8059C11.8215 15.7927 11.8827 15.7599 11.9308 15.7119L13.3058 14.3369C13.36 14.2826 13.3945 14.2119 13.4038 14.1358C13.4132 14.0597 13.3968 13.9827 13.3573 13.9169L12.3261 12.1982C12.3022 12.1583 12.2704 12.1236 12.2327 12.0964C12.1949 12.0691 12.1521 12.0498 12.1067 12.0396C12.0613 12.0294 12.0143 12.0285 11.9686 12.037C11.9228 12.0455 11.8793 12.0632 11.8405 12.089L10.8093 12.7765C10.7334 12.8271 10.6808 12.9058 10.6629 12.9951C10.645 13.0845 10.6634 13.1774 10.714 13.2532L11.344 14.1979ZM11.9222 12.8611L12.6298 14.0405L12.0315 14.6389V14.0938C12.0315 14.0259 12.0114 13.9596 11.9737 13.9031L11.4769 13.1579L11.9222 12.8611Z" fill="white"/>
<path d="M18.1749 13.643C18.1741 13.6312 18.1727 13.6194 18.1706 13.6078C18.0535 12.6016 17.726 11.6314 17.2096 10.76C16.6931 9.88864 15.9991 9.13564 15.1727 8.54992C15.1502 8.52967 15.1252 8.51234 15.0983 8.49836C14.2529 7.91393 13.2922 7.51693 12.2808 7.33396C11.2694 7.151 10.2306 7.18628 9.23397 7.43746C9.22308 7.43958 9.21232 7.4423 9.20174 7.44563C7.54752 7.87412 6.09821 8.87397 5.11026 10.2682C5.08967 10.2905 5.07231 10.3155 5.05869 10.3426C4.05077 11.8014 3.6161 13.5806 3.83783 15.3398C4.05957 17.099 4.92214 18.7147 6.26053 19.8778C6.28316 19.9041 6.30967 19.9269 6.33916 19.9452C6.73686 20.2823 7.16977 20.5755 7.63037 20.8196C7.6533 20.8357 7.67812 20.8488 7.70428 20.8587C8.2844 21.1581 8.90271 21.3766 9.54205 21.5084C9.55281 21.5111 9.56371 21.5131 9.57471 21.5144C10.7753 21.7561 12.0177 21.688 13.1847 21.3167C14.3518 20.9453 15.405 20.2829 16.2452 19.3918C16.273 19.3698 16.2973 19.3437 16.3174 19.3144C17.014 18.5566 17.5403 17.6583 17.8607 16.68C18.1811 15.7017 18.2883 14.6662 18.1749 13.643ZM15.1142 9.36934C16.2852 10.3188 17.0919 11.6439 17.3976 13.1201L17.3151 13.087C17.2633 13.0663 17.2073 13.0584 17.1518 13.0642C17.0963 13.07 17.0431 13.0891 16.9967 13.1201L16.3926 13.5231L16.1494 12.3075C16.1407 12.2635 16.1235 12.2216 16.0987 12.1842L14.8169 10.2618L15.1142 9.36934ZM9.2142 8.15418L10.3125 9.09562V10.5523L9.70147 11.4684L9.15705 12.0132L6.87498 11.7279V11C6.87495 10.9327 6.85519 10.867 6.81815 10.8108C6.78111 10.7547 6.72841 10.7107 6.66658 10.6842L5.90389 10.3572C6.75247 9.29765 7.90919 8.52786 9.2142 8.15418ZM9.28123 20.7389C9.11194 20.6925 8.9455 20.6397 8.78194 20.5807L9.28123 20.4144V20.7389ZM11 20.9687C10.6546 20.9686 10.3098 20.9413 9.96873 20.8871V19.9375C9.96874 19.883 9.9558 19.8293 9.93098 19.7808C9.90616 19.7324 9.87017 19.6905 9.82598 19.6586C9.7818 19.6268 9.73067 19.6059 9.67682 19.5977C9.62298 19.5894 9.56795 19.5941 9.51627 19.6114L7.86069 20.1631C7.54909 19.9919 7.25204 19.7954 6.97252 19.5757L8.47729 17.1303L10.2197 16.5494L10.6193 16.949L10.3228 18.1354C10.3018 18.2194 10.3133 18.3082 10.3549 18.3842C10.3966 18.4601 10.4654 18.5175 10.5475 18.5449L11.5788 18.8886C11.6493 18.9123 11.7256 18.9123 11.7962 18.8886L12.8274 18.5449C12.914 18.5161 12.9855 18.4541 13.0264 18.3726L13.8441 16.7363C13.8462 16.7385 13.8484 16.741 13.8505 16.7432L14.1771 17.0693L15.1851 18.4134L15.5968 19.0725C14.3757 20.2879 12.7228 20.9697 11 20.9687ZM16.0763 18.5423L15.7601 18.0366C15.7549 18.0284 15.7497 18.0202 15.7437 18.0125L14.7125 16.6375C14.7026 16.6246 14.692 16.6123 14.6807 16.6005L14.4375 16.3578V16.1562C14.4375 16.0651 14.4013 15.9776 14.3368 15.9132C14.2723 15.8487 14.1849 15.8125 14.0937 15.8125H13.75C13.6861 15.8125 13.6235 15.8303 13.5692 15.8638C13.5149 15.8974 13.4709 15.9453 13.4423 16.0024L12.4751 17.9377L11.6875 18.2003L11.067 17.9932L11.3334 16.9271C11.3478 16.8695 11.347 16.8092 11.3312 16.752C11.3154 16.6948 11.2851 16.6426 11.2432 16.6005L10.5557 15.913C10.5105 15.8679 10.4536 15.8363 10.3915 15.8217C10.3293 15.807 10.2644 15.8099 10.2038 15.8301L8.14127 16.5176C8.06467 16.5431 7.99953 16.5949 7.95737 16.6637L6.44787 19.1164C5.37017 18.0704 4.68658 16.6845 4.51263 15.1927C4.33867 13.701 4.685 12.195 5.49311 10.9291L6.18748 11.2269V12.0312C6.18747 12.1151 6.21807 12.196 6.27354 12.2588C6.32901 12.3216 6.40553 12.362 6.48869 12.3724L9.23869 12.7162C9.25281 12.7179 9.26701 12.7187 9.28123 12.7187C9.32639 12.7188 9.37111 12.7099 9.41284 12.6927C9.45457 12.6754 9.49249 12.6501 9.52444 12.6182L10.2119 11.9307C10.2278 11.9145 10.2421 11.897 10.2549 11.8783L10.9424 10.847C10.9799 10.7904 10.9999 10.7241 11 10.6562V8.9375C11 8.88795 10.9893 8.83898 10.9686 8.79396C10.9479 8.74894 10.9177 8.70893 10.8801 8.67668L10.0607 7.97414C10.3718 7.92909 10.6857 7.9064 11 7.90625C12.2526 7.90487 13.4789 8.26568 14.5312 8.94523L14.1114 10.2038C14.0948 10.2535 14.0898 10.3063 14.0967 10.3582C14.1036 10.4101 14.1223 10.4597 14.1513 10.5033L15.4889 12.5091L15.8194 14.1612C15.8304 14.2166 15.855 14.2684 15.8908 14.312C15.9266 14.3556 15.9727 14.3898 16.0248 14.4114C16.077 14.433 16.1337 14.4414 16.1899 14.436C16.246 14.4305 16.3 14.4112 16.347 14.3799L17.2279 13.7925L17.5093 13.9051C17.5235 14.0809 17.5312 14.2583 17.5312 14.4375C17.5325 15.9323 17.0187 17.382 16.0763 18.5423Z" fill="white"/>
<path d="M9.96875 4.46875H8.9375C8.84633 4.46875 8.7589 4.50497 8.69443 4.56943C8.62997 4.6339 8.59375 4.72133 8.59375 4.8125V5.84375C8.59375 5.93492 8.62997 6.02235 8.69443 6.08682C8.7589 6.15128 8.84633 6.1875 8.9375 6.1875H9.96875C10.0599 6.1875 10.1474 6.15128 10.2118 6.08682C10.2763 6.02235 10.3125 5.93492 10.3125 5.84375V4.8125C10.3125 4.72133 10.2763 4.6339 10.2118 4.56943C10.1474 4.50497 10.0599 4.46875 9.96875 4.46875ZM9.625 5.5H9.28125V5.15625H9.625V5.5Z" fill="white"/>
<path d="M12.0312 4.46875H11C10.9088 4.46875 10.8214 4.50497 10.7569 4.56943C10.6925 4.6339 10.6562 4.72133 10.6562 4.8125C10.6562 4.90367 10.6925 4.9911 10.7569 5.05557C10.8214 5.12003 10.9088 5.15625 11 5.15625H12.0312C12.1224 5.15625 12.2099 5.12003 12.2743 5.05557C12.3388 4.9911 12.375 4.90367 12.375 4.8125C12.375 4.72133 12.3388 4.6339 12.2743 4.56943C12.2099 4.50497 12.1224 4.46875 12.0312 4.46875Z" fill="white"/>
<path d="M11.3438 5.5H11C10.9088 5.5 10.8214 5.53622 10.7569 5.60068C10.6925 5.66515 10.6562 5.75258 10.6562 5.84375C10.6562 5.93492 10.6925 6.02235 10.7569 6.08682C10.8214 6.15128 10.9088 6.1875 11 6.1875H11.3438C11.4349 6.1875 11.5224 6.15128 11.5868 6.08682C11.6513 6.02235 11.6875 5.93492 11.6875 5.84375C11.6875 5.75258 11.6513 5.66515 11.5868 5.60068C11.5224 5.53622 11.4349 5.5 11.3438 5.5Z" fill="white"/>
</svg>
