<svg width="41" height="41" viewBox="0 0 41 41" fill="none" xmlns="http://www.w3.org/2000/svg">
<g clip-path="url(#clip0)">
<path d="M11.0273 36.1953C10.8168 36.1953 10.6101 36.281 10.4612 36.4299C10.3123 36.5788 10.2266 36.7855 10.2266 36.9961C10.2266 37.2066 10.3123 37.4133 10.4612 37.5622C10.6101 37.7111 10.8168 37.7968 11.0273 37.7968C11.2379 37.7968 11.4446 37.7111 11.5935 37.5622C11.7424 37.4133 11.8281 37.2066 11.8281 36.9961C11.8281 36.7855 11.7424 36.5788 11.5935 36.4299C11.4446 36.281 11.2379 36.1953 11.0273 36.1953Z" fill="#00B857"/>
<path d="M40.7343 23.8342L37.0732 20.5453L40.7343 17.2562C40.9457 17.0663 41.0405 16.7789 40.9839 16.5008C40.9269 16.2224 40.7271 15.995 40.4584 15.903L30.91 12.637V4.18567C30.91 3.84597 30.6957 3.54349 30.3754 3.43056L20.7661 0.044771C20.594 -0.0162258 20.406 -0.0162258 20.234 0.044771L10.6246 3.43056C10.304 3.54349 10.0898 3.84597 10.0898 4.18567V12.7149L0.547027 15.9011C0.276763 15.9912 0.0746919 16.2186 0.0168231 16.4977C-0.0413586 16.7767 0.053734 17.0657 0.265503 17.2562L3.92657 20.545L0.265815 23.8342C0.0540468 24.0243 -0.0407329 24.3124 0.0165102 24.5911C0.0740662 24.8699 0.274887 25.0973 0.544524 25.1883L4.32414 26.4664V35C4.32414 35.3435 4.5431 35.6488 4.86842 35.7586L8.0584 36.8371C8.14348 36.8659 8.22982 36.8797 8.3149 36.8797C8.64897 36.8797 8.96053 36.6688 9.07345 36.3351C9.21515 35.9162 8.99024 35.4617 8.5714 35.32L5.9257 34.4254V27.0079L15.9192 30.3865C16.0033 30.4149 16.0897 30.4287 16.1757 30.4287C16.3702 30.4287 16.5617 30.3577 16.7109 30.2238L19.6991 27.5393V39.0824L13.9313 37.1321C13.5121 36.9904 13.058 37.2153 12.9163 37.6345C12.7746 38.0533 12.9995 38.5078 13.4183 38.6495L20.2434 40.9568C20.3272 40.9852 20.4139 40.999 20.4999 40.999C20.5868 40.999 20.6732 40.9846 20.7558 40.9568C20.7561 40.9568 20.7561 40.9571 20.7564 40.9568L36.1313 35.7586C36.4567 35.6488 36.6756 35.3435 36.6756 35V26.4664L40.4556 25.1883C40.7252 25.0973 40.926 24.8699 40.9836 24.5911C41.0408 24.3124 40.946 24.0243 40.7343 23.8342ZM10.0898 21.3786L7.62516 20.5453L10.0898 19.712V21.3786ZM11.6913 5.31709L19.6991 8.13889V24.6274L11.6913 21.9201V5.31709ZM21.3007 8.13889L29.3085 5.31709V21.9201L21.3007 24.6274V8.13889ZM30.91 19.712L33.3746 20.5453L30.91 21.3786V19.712ZM38.6491 16.9766L35.6878 19.6366L30.91 18.0213V14.3299L38.6491 16.9766ZM20.4999 1.64883L27.6997 4.18599L20.4999 6.72283L13.3001 4.18599L20.4999 1.64883ZM10.0898 14.4034V18.0213L5.31198 19.6366L2.35942 16.9844L10.0898 14.4034ZM15.9886 28.7195L2.35504 24.1101L5.31198 21.4537L18.9459 26.0632L15.9886 28.7195ZM35.0741 34.4254L21.3007 39.0821V27.5393L24.2889 30.2238C24.4381 30.3577 24.6295 30.4287 24.8241 30.4287C24.9101 30.4287 24.9968 30.4149 25.0806 30.3865L35.0741 27.0079V34.4254ZM25.0111 28.7195L22.0542 26.0632L35.6878 21.4537L38.645 24.1101L25.0111 28.7195Z" fill="#00B857"/>
</g>
<defs>
<clipPath id="clip0">
<rect width="41" height="41" fill="white"/>
</clipPath>
</defs>
</svg>
