<svg width="41" height="41" viewBox="0 0 41 41" fill="none" xmlns="http://www.w3.org/2000/svg">
<path d="M36.5156 5.76562H4.48438C3.46528 5.76671 2.48824 6.17202 1.76763 6.89263C1.04702 7.61324 0.641706 8.59028 0.640625 9.60938V31.3906C0.641706 32.4097 1.04702 33.3868 1.76763 34.1074C2.48824 34.828 3.46528 35.2333 4.48438 35.2344H36.5156C37.5347 35.2333 38.5118 34.828 39.2324 34.1074C39.953 33.3868 40.3583 32.4097 40.3594 31.3906V9.60938C40.3583 8.59028 39.953 7.61324 39.2324 6.89263C38.5118 6.17202 37.5347 5.76671 36.5156 5.76562ZM39.0781 31.3906C39.0772 32.07 38.807 32.7212 38.3266 33.2016C37.8462 33.682 37.195 33.9522 36.5156 33.9531H4.48438C3.80503 33.9522 3.15377 33.682 2.6734 33.2016C2.19303 32.7212 1.92276 32.07 1.92188 31.3906V9.60938C1.92264 8.92999 2.19286 8.27865 2.67326 7.79826C3.15365 7.31786 3.80499 7.04764 4.48438 7.04688H36.5156C37.195 7.04764 37.8463 7.31786 38.3267 7.79826C38.8071 8.27865 39.0774 8.92999 39.0781 9.60938V31.3906Z" fill="#00B857"/>
<path d="M7.04688 30.1094H3.84375C3.67385 30.1094 3.5109 30.1769 3.39076 30.297C3.27062 30.4171 3.20312 30.5801 3.20312 30.75V32.6719C3.20312 32.8418 3.27062 33.0047 3.39076 33.1249C3.5109 33.245 3.67385 33.3125 3.84375 33.3125H7.04688C7.21678 33.3125 7.37972 33.245 7.49987 33.1249C7.62001 33.0047 7.6875 32.8418 7.6875 32.6719V30.75C7.6875 30.5801 7.62001 30.4171 7.49987 30.297C7.37972 30.1769 7.21678 30.1094 7.04688 30.1094ZM6.40625 32.0312H4.48438V31.3906H6.40625V32.0312Z" fill="#00B857"/>
<path d="M12.1719 30.1094H8.96875C8.79885 30.1094 8.6359 30.1769 8.51576 30.297C8.39562 30.4171 8.32812 30.5801 8.32812 30.75V32.6719C8.32812 32.8418 8.39562 33.0047 8.51576 33.1249C8.6359 33.245 8.79885 33.3125 8.96875 33.3125H12.1719C12.3418 33.3125 12.5047 33.245 12.6249 33.1249C12.745 33.0047 12.8125 32.8418 12.8125 32.6719V30.75C12.8125 30.5801 12.745 30.4171 12.6249 30.297C12.5047 30.1769 12.3418 30.1094 12.1719 30.1094ZM11.5312 32.0312H9.60938V31.3906H11.5312V32.0312Z" fill="#00B857"/>
<path d="M17.2969 30.1094H14.0938C13.9238 30.1094 13.7609 30.1769 13.6408 30.297C13.5206 30.4171 13.4531 30.5801 13.4531 30.75C13.4531 30.9199 13.5206 31.0829 13.6408 31.203C13.7609 31.3231 13.9238 31.3906 14.0938 31.3906H17.2969C17.4668 31.3906 17.6297 31.3231 17.7499 31.203C17.87 31.0829 17.9375 30.9199 17.9375 30.75C17.9375 30.5801 17.87 30.4171 17.7499 30.297C17.6297 30.1769 17.4668 30.1094 17.2969 30.1094Z" fill="#00B857"/>
<path d="M14.7344 32.0312H14.0938C13.9238 32.0312 13.7609 32.0987 13.6408 32.2189C13.5206 32.339 13.4531 32.502 13.4531 32.6719C13.4531 32.8418 13.5206 33.0047 13.6408 33.1249C13.7609 33.245 13.9238 33.3125 14.0938 33.3125H14.7344C14.9043 33.3125 15.0672 33.245 15.1874 33.1249C15.3075 33.0047 15.375 32.8418 15.375 32.6719C15.375 32.502 15.3075 32.339 15.1874 32.2189C15.0672 32.0987 14.9043 32.0312 14.7344 32.0312Z" fill="#00B857"/>
<path d="M24.0992 13.8104L14.1334 18.3403C14.01 18.3964 13.9076 18.4901 13.8409 18.6081C13.7741 18.726 13.7465 18.8621 13.762 18.9968C13.7775 19.1314 13.8353 19.2577 13.9271 19.3574C14.0189 19.4571 14.1399 19.5251 14.2728 19.5517L18.384 20.3739L19.2063 24.4852C19.2329 24.618 19.3009 24.7391 19.4006 24.8308C19.5003 24.9226 19.6265 24.9804 19.7611 24.9959C19.7855 24.9987 19.8101 25.0001 19.8347 25.0001C19.9576 25 20.078 24.9646 20.1814 24.898C20.2848 24.8315 20.3668 24.7365 20.4177 24.6246L24.9476 14.6588C25.0015 14.54 25.018 14.4077 24.9948 14.2793C24.9715 14.151 24.9096 14.0328 24.8174 13.9406C24.7252 13.8484 24.607 13.7865 24.4787 13.7632C24.3503 13.74 24.2179 13.7564 24.0992 13.8104ZM20.0731 22.2862L19.5567 19.7039C19.5319 19.5798 19.4709 19.4659 19.3815 19.3765C19.2921 19.287 19.1782 19.2261 19.0541 19.2013L16.4718 18.6849L23.0743 15.6837L20.0731 22.2862Z" fill="#00B857"/>
<path d="M37.1562 8.32812H3.84375C3.67385 8.32812 3.5109 8.39562 3.39076 8.51576C3.27062 8.6359 3.20312 8.79885 3.20312 8.96875V28.8281C3.20312 28.998 3.27062 29.161 3.39076 29.2811C3.5109 29.4013 3.67385 29.4688 3.84375 29.4688H37.1562C37.3262 29.4688 37.4891 29.4013 37.6092 29.2811C37.7294 29.161 37.7969 28.998 37.7969 28.8281V8.96875C37.7969 8.79885 37.7294 8.6359 37.6092 8.51576C37.4891 8.39562 37.3262 8.32812 37.1562 8.32812ZM4.48438 9.60938H9.60938V18.5781H4.48438V9.60938ZM9.60938 28.1875H4.48438V23.0625H9.60938V28.1875ZM36.5156 28.1875H28.8281V19.2188H36.5156V28.1875ZM36.5156 17.9375H28.1875C28.0176 17.9375 27.8547 18.005 27.7345 18.1251C27.6144 18.2453 27.5469 18.4082 27.5469 18.5781V28.1875H10.8906V22.4219C10.8906 22.252 10.8231 22.089 10.703 21.9689C10.5829 21.8487 10.4199 21.7812 10.25 21.7812H4.48438V19.8594H10.25C10.4199 19.8594 10.5829 19.7919 10.703 19.6717C10.8231 19.5516 10.8906 19.3887 10.8906 19.2188V9.60938H27.5469V15.375C27.5469 15.5449 27.6144 15.7079 27.7345 15.828C27.8547 15.9481 28.0176 16.0156 28.1875 16.0156H36.5156V17.9375ZM36.5156 14.7344H28.8281V9.60938H36.5156V14.7344Z" fill="#00B857"/>
</svg>
