<svg width="41" height="41" viewBox="0 0 41 41" fill="none" xmlns="http://www.w3.org/2000/svg">
<path d="M39.7188 31.3907H38.0451L39.6859 26.4683C39.718 26.3719 39.7268 26.2694 39.7115 26.169C39.6962 26.0687 39.6572 25.9734 39.5979 25.8911C39.5385 25.8087 39.4604 25.7416 39.3701 25.6954C39.2797 25.6491 39.1796 25.625 39.0781 25.625H35.875V20.5C35.875 20.3301 35.8075 20.1672 35.6874 20.047C35.5672 19.9269 35.4043 19.8594 35.2344 19.8594H34.5938V18.5782C34.5938 18.4082 34.5263 18.2453 34.4061 18.1252C34.286 18.005 34.123 17.9375 33.9531 17.9375H33.3125V17.0519L34.2398 16.589C34.3151 16.5514 34.3822 16.4993 34.4374 16.4357C34.4926 16.3721 34.5346 16.2982 34.5613 16.2184C34.5879 16.1385 34.5985 16.0542 34.5925 15.9702C34.5866 15.8862 34.5641 15.8043 34.5265 15.729C34.4888 15.6537 34.4367 15.5865 34.3731 15.5314C34.3095 15.4762 34.2357 15.4341 34.1558 15.4075C34.076 15.3809 33.9917 15.3703 33.9077 15.3762C33.8237 15.3822 33.7417 15.4046 33.6664 15.4423L33.3125 15.6201V14.7344C33.3125 14.5645 33.245 14.4016 33.1249 14.2814C33.0047 14.1613 32.8418 14.0938 32.6719 14.0938C32.502 14.0938 32.339 14.1613 32.2189 14.2814C32.0987 14.4016 32.0312 14.5645 32.0312 14.7344V17.9375H30.1094C29.9395 17.9375 29.7765 18.005 29.6564 18.1252C29.5362 18.2453 29.4688 18.4082 29.4688 18.5782V19.8594H28.1875C28.0176 19.8594 27.8547 19.9269 27.7345 20.047C27.6144 20.1672 27.5469 20.3301 27.5469 20.5V25.625H24.3438V15.375C24.3437 15.256 24.3106 15.1394 24.2481 15.0381C24.1856 14.9369 24.0962 14.855 23.9898 14.8017L13.7398 9.67667C13.6507 9.63243 13.5526 9.60941 13.4531 9.60941C13.3537 9.60941 13.2555 9.63243 13.1664 9.67667L2.91645 14.8017C2.81008 14.855 2.72064 14.9369 2.65813 15.0381C2.59563 15.1394 2.56252 15.256 2.5625 15.375V31.3907H1.28125C1.11135 31.3907 0.9484 31.4581 0.82826 31.5783C0.708119 31.6984 0.640625 31.8614 0.640625 32.0313C0.640625 32.2012 0.708119 32.3641 0.82826 32.4843C0.9484 32.6044 1.11135 32.6719 1.28125 32.6719H14.527L14.9001 33.3125H7.6875C7.5176 33.3125 7.35465 33.38 7.23451 33.5002C7.11437 33.6203 7.04688 33.7833 7.04688 33.9532C7.04688 34.1231 7.11437 34.286 7.23451 34.4061C7.35465 34.5263 7.5176 34.5938 7.6875 34.5938H39.0781C39.248 34.5938 39.411 34.5263 39.5311 34.4061C39.6513 34.286 39.7188 34.1231 39.7188 33.9532C39.7188 33.7833 39.6513 33.6203 39.5311 33.5002C39.411 33.38 39.248 33.3125 39.0781 33.3125H37.4045L37.6183 32.6719H39.7188C39.8887 32.6719 40.0516 32.6044 40.1717 32.4843C40.2919 32.3641 40.3594 32.2012 40.3594 32.0313C40.3594 31.8614 40.2919 31.6984 40.1717 31.5783C40.0516 31.4581 39.8887 31.3907 39.7188 31.3907ZM30.75 19.2188H33.3125V19.8594H30.75V19.2188ZM28.8281 23.0625H32.6719V23.7032H28.8281V23.0625ZM28.8281 24.9844H33.3125C33.4824 24.9844 33.6454 24.9169 33.7655 24.7968C33.8856 24.6766 33.9531 24.5137 33.9531 24.3438V22.4219C33.9531 22.252 33.8856 22.0891 33.7655 21.9689C33.6454 21.8488 33.4824 21.7813 33.3125 21.7813H28.8281V21.1407H34.5938V25.625H28.8281V24.9844ZM5.125 20.5V31.3907H3.84375V15.7706L13.4531 10.9659L23.0625 15.7706V25.625H21.7812V20.5C21.7812 20.3301 21.7138 20.1672 21.5936 20.047C21.4735 19.9269 21.3105 19.8594 21.1406 19.8594H5.76562C5.59572 19.8594 5.43278 19.9269 5.31263 20.047C5.19249 20.1672 5.125 20.3301 5.125 20.5ZM20.5 21.1407V21.7813H6.40625V21.1407H20.5ZM6.40625 31.3907V23.0625H20.5V25.625H11.5312C11.4186 25.625 11.3079 25.6548 11.2104 25.7112C11.1128 25.7677 11.0319 25.8489 10.9758 25.9466C10.9197 26.0443 10.8903 26.1551 10.8907 26.2678C10.8911 26.3804 10.9211 26.491 10.9779 26.5884L13.779 31.3907H6.40625ZM36.5453 31.8391C36.5453 31.8399 36.5445 31.8407 36.5445 31.8415L36.0536 33.3125H16.3832L12.6467 26.9063H38.1893L36.5453 31.8391Z" fill="#00B857"/>
<path d="M9.60938 18.5782H17.2969C17.4668 18.5782 17.6297 18.5107 17.7499 18.3905C17.87 18.2704 17.9375 18.1074 17.9375 17.9375V15.375C17.9375 15.2051 17.87 15.0422 17.7499 14.922C17.6297 14.8019 17.4668 14.7344 17.2969 14.7344H9.60938C9.43947 14.7344 9.27653 14.8019 9.15638 14.922C9.03624 15.0422 8.96875 15.2051 8.96875 15.375V17.9375C8.96875 18.1074 9.03624 18.2704 9.15638 18.3905C9.27653 18.5107 9.43947 18.5782 9.60938 18.5782ZM16.6562 17.2969H14.0938V16.0157H16.6562V17.2969ZM10.25 16.0157H12.8125V17.2969H10.25V16.0157Z" fill="#00B857"/>
<path d="M26.2659 10.25H34.5941C35.6135 10.25 36.5912 9.84505 37.312 9.12421C38.0329 8.40337 38.4378 7.42569 38.4378 6.40627C38.4378 5.38684 38.0329 4.40917 37.312 3.68833C36.5912 2.96748 35.6135 2.56252 34.5941 2.56252C34.4907 2.56252 34.3872 2.56671 34.2837 2.57509C33.7621 1.8752 33.0598 1.33054 32.2521 0.999581C31.4445 0.668617 30.5619 0.563837 29.6992 0.696485C28.8365 0.829133 28.0261 1.1942 27.3552 1.75251C26.6843 2.31082 26.178 3.0413 25.8908 3.86555C25.0789 3.96071 24.3342 4.36262 23.8091 4.989C23.2839 5.61538 23.0181 6.41881 23.0661 7.23479C23.114 8.05077 23.4721 8.81755 24.067 9.37811C24.6619 9.93867 25.4486 10.2506 26.2659 10.25ZM24.4048 6.56586C24.5111 6.15323 24.7518 5.7877 25.0887 5.52684C25.4257 5.26599 25.8398 5.12462 26.2659 5.12502C26.2933 5.12502 26.3213 5.12558 26.3487 5.12678C26.4978 5.13323 26.6445 5.08751 26.7635 4.99747C26.8825 4.90744 26.9664 4.77873 27.0008 4.6335C27.1616 3.95497 27.5201 3.3394 28.0308 2.86469C28.5416 2.38998 29.1818 2.07749 29.8702 1.96676C30.5587 1.85603 31.2645 1.95205 31.8984 2.24265C32.5323 2.53326 33.0657 3.00539 33.4311 3.59929C33.4996 3.71028 33.6003 3.79775 33.7197 3.85003C33.8392 3.90231 33.9718 3.91692 34.0998 3.89189C34.4505 3.82294 34.8118 3.82813 35.1604 3.90713C35.509 3.98613 35.8372 4.13719 36.124 4.35061C36.4107 4.56402 36.6497 4.83506 36.8254 5.14632C37.0012 5.45758 37.1099 5.80217 37.1445 6.15794C37.1791 6.51371 37.139 6.87279 37.0266 7.2121C36.9141 7.55142 36.732 7.86346 36.4918 8.12819C36.2516 8.39291 35.9587 8.60445 35.6319 8.74921C35.305 8.89398 34.9515 8.96876 34.5941 8.96877H26.2659C25.9726 8.96852 25.6833 8.90121 25.42 8.77198C25.1567 8.64274 24.9265 8.45501 24.7469 8.22313C24.5673 7.99126 24.4431 7.72138 24.3838 7.43414C24.3245 7.1469 24.3317 6.8499 24.4048 6.56586Z" fill="#00B857"/>
<path d="M30.1094 28.8281C30.1094 28.998 30.1769 29.161 30.297 29.2811C30.4171 29.4013 30.5801 29.4688 30.75 29.4688H35.875C36.0449 29.4688 36.2079 29.4013 36.328 29.2811C36.4481 29.161 36.5156 28.998 36.5156 28.8281C36.5156 28.6582 36.4481 28.4953 36.328 28.3751C36.2079 28.255 36.0449 28.1875 35.875 28.1875H30.75C30.5801 28.1875 30.4171 28.255 30.297 28.3751C30.1769 28.4953 30.1094 28.6582 30.1094 28.8281Z" fill="#00B857"/>
<path d="M28.8281 28.1875H28.1875C28.0176 28.1875 27.8546 28.255 27.7345 28.3751C27.6144 28.4953 27.5469 28.6582 27.5469 28.8281C27.5469 28.998 27.6144 29.161 27.7345 29.2811C27.8546 29.4013 28.0176 29.4688 28.1875 29.4688H28.8281C28.998 29.4688 29.161 29.4013 29.2811 29.2811C29.4013 29.161 29.4688 28.998 29.4688 28.8281C29.4688 28.6582 29.4013 28.4953 29.2811 28.3751C29.161 28.255 28.998 28.1875 28.8281 28.1875Z" fill="#00B857"/>
<path d="M39.7188 36.5157C38.8284 36.5157 38.4242 36.2733 37.9126 35.9663C37.3408 35.6232 36.6927 35.2344 35.4475 35.2344C34.2022 35.2344 33.5541 35.6232 32.9823 35.9663C32.4706 36.2733 32.0665 36.5157 31.1762 36.5157C30.2859 36.5157 29.882 36.2733 29.3704 35.9663C28.7987 35.6232 28.1506 35.2344 26.9054 35.2344C25.6603 35.2344 25.0123 35.6232 24.4405 35.9663C23.9289 36.2733 23.525 36.5157 22.6346 36.5157C21.7443 36.5157 21.3405 36.2733 20.829 35.9664C20.2572 35.6232 19.6091 35.2344 18.364 35.2344C17.1189 35.2344 16.4709 35.6232 15.8991 35.9664C15.3876 36.2733 14.9836 36.5157 14.0938 36.5157C13.2039 36.5157 12.7995 36.2733 12.288 35.9664C11.7162 35.6232 11.0682 35.2344 9.82294 35.2344C8.57773 35.2344 7.92982 35.6232 7.35806 35.9663C6.84652 36.2733 6.44253 36.5157 5.5523 36.5157C4.66207 36.5157 4.25807 36.2733 3.74654 35.9663C3.17446 35.6232 2.52638 35.2344 1.28125 35.2344C1.11135 35.2344 0.9484 35.3019 0.82826 35.422C0.708119 35.5422 0.640625 35.7051 0.640625 35.875C0.640625 36.0449 0.708119 36.2079 0.82826 36.328C0.9484 36.4482 1.11135 36.5157 1.28125 36.5157C2.17148 36.5157 2.57547 36.7581 3.08701 37.065C3.65877 37.4081 4.30684 37.7969 5.55198 37.7969C6.79711 37.7969 7.44518 37.4081 8.01694 37.0649C8.52832 36.7581 8.93248 36.5157 9.82262 36.5157C10.7128 36.5157 11.1169 36.7581 11.6285 37.065C12.2002 37.4081 12.8483 37.7969 14.0934 37.7969C15.3386 37.7969 15.9866 37.4081 16.5583 37.0649C17.0699 36.7581 17.4738 36.5157 18.364 36.5157C19.2541 36.5157 19.6582 36.7581 20.1698 37.065C20.7416 37.4081 21.3896 37.7969 22.6346 37.7969C23.8797 37.7969 24.5279 37.4081 25.0997 37.0649C25.6112 36.7581 26.0152 36.5157 26.9054 36.5157C27.7957 36.5157 28.1997 36.7581 28.7112 37.065C29.283 37.4081 29.931 37.7969 31.1762 37.7969C32.4213 37.7969 33.0695 37.4081 33.6413 37.065C34.1529 36.7581 34.5571 36.5157 35.4475 36.5157C36.3379 36.5157 36.7419 36.7581 37.2535 37.065C37.8253 37.4081 38.4735 37.7969 39.7188 37.7969C39.8887 37.7969 40.0516 37.7294 40.1717 37.6093C40.2919 37.4891 40.3594 37.3262 40.3594 37.1563C40.3594 36.9864 40.2919 36.8234 40.1717 36.7033C40.0516 36.5831 39.8887 36.5157 39.7188 36.5157Z" fill="#00B857"/>
<path d="M39.7188 39.0782C38.8284 39.0782 38.4242 38.8358 37.9126 38.5288C37.3408 38.1857 36.6927 37.7969 35.4475 37.7969C34.2022 37.7969 33.5541 38.1857 32.9823 38.5288C32.4706 38.8358 32.0665 39.0782 31.1762 39.0782C30.2859 39.0782 29.882 38.8358 29.3704 38.5288C28.7987 38.1857 28.1506 37.7969 26.9054 37.7969C25.6603 37.7969 25.0123 38.1857 24.4405 38.5288C23.9289 38.8358 23.525 39.0782 22.6346 39.0782C21.7443 39.0782 21.3405 38.8358 20.829 38.5289C20.2572 38.1857 19.6091 37.7969 18.364 37.7969C17.1189 37.7969 16.4709 38.1857 15.8991 38.5289C15.3876 38.8358 14.9836 39.0782 14.0938 39.0782C13.2039 39.0782 12.7995 38.8358 12.288 38.5289C11.7162 38.1857 11.0682 37.7969 9.82294 37.7969C8.57773 37.7969 7.92982 38.1857 7.35806 38.5288C6.84652 38.8358 6.44253 39.0782 5.5523 39.0782C4.66207 39.0782 4.25807 38.8358 3.74654 38.5288C3.17446 38.1857 2.52638 37.7969 1.28125 37.7969C1.11135 37.7969 0.9484 37.8644 0.82826 37.9845C0.708119 38.1047 0.640625 38.2676 0.640625 38.4375C0.640625 38.6074 0.708119 38.7704 0.82826 38.8905C0.9484 39.0107 1.11135 39.0782 1.28125 39.0782C2.17148 39.0782 2.57547 39.3206 3.08701 39.6275C3.65877 39.9706 4.30684 40.3594 5.55198 40.3594C6.79711 40.3594 7.44518 39.9706 8.01694 39.6274C8.52832 39.3206 8.93248 39.0782 9.82262 39.0782C10.7128 39.0782 11.1169 39.3206 11.6285 39.6275C12.2002 39.9706 12.8483 40.3594 14.0934 40.3594C15.3386 40.3594 15.9866 39.9706 16.5583 39.6274C17.0699 39.3206 17.4738 39.0782 18.364 39.0782C19.2541 39.0782 19.6582 39.3206 20.1698 39.6275C20.7416 39.9706 21.3896 40.3594 22.6346 40.3594C23.8797 40.3594 24.5279 39.9706 25.0997 39.6274C25.6112 39.3206 26.0152 39.0782 26.9054 39.0782C27.7957 39.0782 28.1997 39.3206 28.7112 39.6275C29.283 39.9706 29.931 40.3594 31.1762 40.3594C32.4213 40.3594 33.0695 39.9706 33.6413 39.6275C34.1529 39.3206 34.5571 39.0782 35.4475 39.0782C36.3379 39.0782 36.7419 39.3206 37.2535 39.6275C37.8253 39.9706 38.4735 40.3594 39.7188 40.3594C39.8887 40.3594 40.0516 40.2919 40.1717 40.1718C40.2919 40.0516 40.3594 39.8887 40.3594 39.7188C40.3594 39.5489 40.2919 39.3859 40.1717 39.2658C40.0516 39.1456 39.8887 39.0782 39.7188 39.0782Z" fill="#00B857"/>
</svg>
