<svg width="24" height="24" viewBox="0 0 24 24" fill="none" xmlns="http://www.w3.org/2000/svg">
<path d="M15.714 6.21422C15.6836 6.1501 15.6356 6.09594 15.5756 6.05801C15.5156 6.02009 15.4461 5.99998 15.3751 6H13.8751V3C13.8751 2.90054 13.8356 2.80516 13.7652 2.73484C13.6949 2.66451 13.5995 2.625 13.5001 2.625H10.5001C10.4006 2.625 10.3052 2.66451 10.2349 2.73484C10.1646 2.80516 10.1251 2.90054 10.1251 3V6H8.62508C8.55406 5.99999 8.4845 6.02014 8.42449 6.05811C8.36448 6.09608 8.31648 6.15031 8.28609 6.21449C8.25569 6.27867 8.24414 6.35016 8.25279 6.42065C8.26143 6.49114 8.28992 6.55772 8.33492 6.61266L11.7099 10.7377C11.7451 10.7806 11.7894 10.8152 11.8396 10.839C11.8897 10.8628 11.9446 10.8751 12.0001 10.8751C12.0556 10.8751 12.1104 10.8628 12.1606 10.839C12.2108 10.8152 12.2551 10.7806 12.2902 10.7377L15.6652 6.61266C15.7102 6.55764 15.7386 6.49101 15.7473 6.42049C15.7559 6.34997 15.7444 6.27845 15.714 6.21422ZM12.0001 9.90797L9.41633 6.75H10.5001C10.5995 6.75 10.6949 6.71049 10.7652 6.64017C10.8356 6.56984 10.8751 6.47446 10.8751 6.375V3.375H13.1251V6.375C13.1251 6.47446 13.1646 6.56984 13.2349 6.64017C13.3052 6.71049 13.4006 6.75 13.5001 6.75H14.5838L12.0001 9.90797Z" fill="white"/>
<path d="M22.0388 7.2137C22.0012 7.1819 21.9577 7.15783 21.9108 7.14285C21.8639 7.12788 21.8145 7.1223 21.7654 7.12643C21.7163 7.13057 21.6686 7.14434 21.6248 7.16696C21.5811 7.18957 21.5422 7.22059 21.5105 7.25823L17.8256 11.6251H6.1758L2.5383 7.26011C2.47465 7.18365 2.38323 7.13561 2.28416 7.12656C2.18509 7.1175 2.08647 7.14818 2.01002 7.21183C1.93356 7.27548 1.88552 7.3669 1.87647 7.46597C1.86741 7.56504 1.89808 7.66365 1.96174 7.74011L5.62502 12.136V22.3126C5.6254 22.6606 5.76381 22.9942 6.00986 23.2403C6.25592 23.4863 6.58954 23.6247 6.93752 23.6251H17.0625C17.4105 23.6247 17.7441 23.4863 17.9902 23.2403C18.2362 22.9942 18.3746 22.6606 18.375 22.3126V12.137L22.0833 7.74198C22.1151 7.70439 22.1392 7.66089 22.1541 7.61398C22.1691 7.56707 22.1747 7.51768 22.1705 7.46861C22.1664 7.41955 22.1526 7.37178 22.13 7.32804C22.1074 7.2843 22.0764 7.24545 22.0388 7.2137ZM9.75002 12.3751H14.25V16.6037L12.1861 15.4243C12.1294 15.3921 12.0653 15.3751 12 15.3751C11.9348 15.3751 11.8706 15.3921 11.8139 15.4243L9.75002 16.6037V12.3751ZM17.625 22.3126C17.6249 22.4618 17.5656 22.6048 17.4601 22.7102C17.3547 22.8157 17.2117 22.875 17.0625 22.8751H6.93752C6.78837 22.875 6.64537 22.8157 6.53991 22.7102C6.43444 22.6048 6.37514 22.4618 6.37502 22.3126V12.3751H9.00002V17.2501C8.99998 17.3158 9.01721 17.3804 9.04997 17.4373C9.08274 17.4943 9.1299 17.5416 9.18672 17.5746C9.24355 17.6076 9.30804 17.6251 9.37375 17.6253C9.43945 17.6255 9.50407 17.6085 9.56111 17.5759L12 16.1818L14.4389 17.5759C14.496 17.6085 14.5606 17.6255 14.6263 17.6253C14.692 17.6251 14.7565 17.6076 14.8133 17.5746C14.8701 17.5416 14.9173 17.4943 14.9501 17.4373C14.9828 17.3804 15.0001 17.3158 15 17.2501V12.3751H17.625V22.3126Z" fill="white"/>
<path d="M13.125 19.5C13.0255 19.5 12.9301 19.5395 12.8598 19.6098C12.7895 19.6802 12.75 19.7755 12.75 19.875V21.75C12.75 21.8495 12.7895 21.9448 12.8598 22.0152C12.9301 22.0855 13.0255 22.125 13.125 22.125H16.5C16.5994 22.125 16.6948 22.0855 16.7651 22.0152C16.8355 21.9448 16.875 21.8495 16.875 21.75V19.875C16.875 19.7755 16.8355 19.6802 16.7651 19.6098C16.6948 19.5395 16.5994 19.5 16.5 19.5H13.125ZM16.125 21.375H13.5V20.25H16.125V21.375Z" fill="white"/>
<path d="M10.5 2.25H13.5C13.5994 2.25 13.6948 2.21049 13.7651 2.14016C13.8355 2.06984 13.875 1.97446 13.875 1.875V0.75C13.875 0.650544 13.8355 0.555161 13.7651 0.484835C13.6948 0.414509 13.5994 0.375 13.5 0.375H10.5C10.4005 0.375 10.3051 0.414509 10.2348 0.484835C10.1645 0.555161 10.125 0.650544 10.125 0.75V1.875C10.125 1.97446 10.1645 2.06984 10.2348 2.14016C10.3051 2.21049 10.4005 2.25 10.5 2.25ZM10.875 1.125H13.125V1.5H10.875V1.125Z" fill="white"/>
</svg>
