<svg width="41" height="41" viewBox="0 0 41 41" fill="none" xmlns="http://www.w3.org/2000/svg">
<g clip-path="url(#clip0)">
<path d="M11.5312 23.0625C17.8896 23.0625 23.0625 17.8896 23.0625 11.5312C23.0625 5.17289 17.8896 0 11.5312 0C5.17289 0 0 5.17289 0 11.5312C0 17.8896 5.17289 23.0625 11.5312 23.0625ZM11.5312 1.60156C17.0065 1.60156 21.4609 6.05599 21.4609 11.5312C21.4609 17.0065 17.0065 21.4609 11.5312 21.4609C6.05599 21.4609 1.60156 17.0065 1.60156 11.5312C1.60156 6.05599 6.05599 1.60156 11.5312 1.60156Z" fill="#00B857"/>
<path d="M9.03712 16.7752C9.14979 16.8299 9.26894 16.8558 9.38634 16.8558C9.68335 16.8558 9.96874 16.6898 10.1073 16.4047L14.5135 7.33132C14.7067 6.93349 14.5408 6.45438 14.143 6.26115C13.7451 6.06793 13.266 6.23385 13.0728 6.63168L8.66659 15.705C8.47337 16.1028 8.63921 16.5819 9.03712 16.7752Z" fill="#00B857"/>
<path d="M7.69579 10.1866C9.10901 10.1866 10.2587 9.03691 10.2587 7.62369C10.2587 6.21047 9.10901 5.06079 7.69579 5.06079C6.28257 5.06079 5.13281 6.21039 5.13281 7.62361C5.13281 9.03683 6.28257 10.1866 7.69579 10.1866ZM7.69579 6.66227C8.22591 6.66227 8.65713 7.09357 8.65713 7.62361C8.65713 8.15365 8.22583 8.58495 7.69579 8.58495C7.16576 8.58495 6.73446 8.15365 6.73446 7.62361C6.73446 7.09357 7.16568 6.66227 7.69579 6.66227Z" fill="#00B857"/>
<path d="M12.9453 15.4388C12.9453 16.852 14.095 18.0017 15.5082 18.0017C16.9214 18.0017 18.0711 16.852 18.0711 15.4388C18.0711 14.0256 16.9214 12.8759 15.5082 12.8759C14.095 12.8759 12.9453 14.0256 12.9453 15.4388ZM15.5082 14.4775C16.0383 14.4775 16.4696 14.9088 16.4696 15.4388C16.4696 15.9689 16.0383 16.4002 15.5082 16.4002C14.9782 16.4002 14.5469 15.9689 14.5469 15.4388C14.5469 14.9088 14.9781 14.4775 15.5082 14.4775Z" fill="#00B857"/>
<path d="M40.1992 39.3984H37.7969V30.5954C37.7969 30.1531 37.4384 29.7946 36.9961 29.7946C36.5538 29.7946 36.1953 30.1531 36.1953 30.5954V39.3984H29.4688V16.3298C29.4688 15.8875 29.1102 15.529 28.668 15.529H27.3981L32.832 10.0951L38.266 15.529H36.9961C36.5538 15.529 36.1953 15.8875 36.1953 16.3298V23.3884C36.1953 23.8307 36.5538 24.1892 36.9961 24.1892C37.4384 24.1892 37.7969 23.8307 37.7969 23.3884V17.1306H40.1992C40.5231 17.1306 40.8151 16.9354 40.9391 16.6363C41.063 16.3371 40.9945 15.9926 40.7655 15.7636L33.3983 8.39639C33.0856 8.08369 32.5786 8.08369 32.2658 8.39639L24.8986 15.7636C24.6696 15.9926 24.6011 16.337 24.7251 16.6363C24.849 16.9355 25.141 17.1306 25.4649 17.1306H27.8673V39.3984H25.4649V25.4248C25.4649 24.9825 25.1064 24.624 24.6641 24.624H16.3359C15.8937 24.624 15.5352 24.9825 15.5352 25.4248V39.3984H13.1328V30.75C13.1328 30.3077 12.7743 29.9492 12.332 29.9492H4.00391C3.56163 29.9492 3.20312 30.3077 3.20312 30.75V39.3984H0.800781C0.35851 39.3984 0 39.7569 0 40.1992C0 40.6415 0.35851 41 0.800781 41H40.1992C40.6415 41 41 40.6415 41 40.1992C41 39.7569 40.6415 39.3984 40.1992 39.3984ZM4.80469 39.3984V31.5507H11.5312V39.3984H4.80469ZM17.1367 39.3984V26.2256H23.8633V39.3984H17.1367Z" fill="#00B857"/>
<path d="M37 26.1913C36.7894 26.1913 36.5828 26.2769 36.4338 26.4259C36.2849 26.5748 36.1992 26.7814 36.1992 26.992C36.1992 27.2026 36.2849 27.4092 36.4338 27.5582C36.5828 27.7071 36.7894 27.7928 37 27.7928C37.2106 27.7928 37.4172 27.7071 37.5662 27.5582C37.7151 27.4092 37.8008 27.2026 37.8008 26.992C37.8008 26.7814 37.7151 26.5748 37.5662 26.4259C37.4172 26.2769 37.2106 26.1913 37 26.1913Z" fill="#00B857"/>
</g>
<defs>
<clipPath id="clip0">
<rect width="41" height="41" fill="white"/>
</clipPath>
</defs>
</svg>
