<svg width="41" height="41" viewBox="0 0 41 41" fill="none" xmlns="http://www.w3.org/2000/svg">
<path fill-rule="evenodd" clip-rule="evenodd" d="M29.2766 28.9665C29.7188 28.9665 30.0774 28.6079 30.0774 28.1657V12.8344C30.0774 12.3922 29.7188 12.0336 29.2766 12.0336H23.4558H17.5395H11.7187C11.2766 12.0336 10.918 12.3922 10.918 12.8344V28.1656C10.918 28.6078 11.2766 28.9664 11.7187 28.9664H29.2766V28.9665ZM22.655 13.6352V16.8347H18.3403V13.6352H22.655ZM12.5195 13.6352H16.7388V17.6355C16.7388 18.0778 17.0973 18.4363 17.5395 18.4363H23.4558C23.898 18.4363 24.2566 18.0778 24.2566 17.6355V13.6352H28.4758V27.3648H12.5195V13.6352H12.5195Z" fill="#00B857"/>
<path fill-rule="evenodd" clip-rule="evenodd" d="M23.4553 23.0653H17.5391C17.0968 23.0653 16.7383 23.4239 16.7383 23.8661C16.7383 24.3082 17.0968 24.6668 17.5391 24.6668H23.4553C23.8975 24.6668 24.2561 24.3082 24.2561 23.8661C24.2561 23.4239 23.8975 23.0653 23.4553 23.0653Z" fill="#00B857"/>
<path fill-rule="evenodd" clip-rule="evenodd" d="M37.1625 6.69773C37.0043 6.54342 36.7901 6.46078 36.5688 6.47119C31.6662 6.68348 27.7305 4.99487 25.2917 3.54025C22.6257 1.94998 21.1098 0.282355 21.0955 0.26642C20.9435 0.0968945 20.7267 0 20.499 0C20.2713 0 20.0545 0.0968945 19.9026 0.26642C19.8451 0.330643 14.221 6.48961 5.2788 6.48961C4.999 6.48961 4.71545 6.48361 4.42933 6.47119C4.20823 6.46022 3.99378 6.54342 3.83563 6.69773C3.67739 6.85188 3.59003 7.06457 3.59387 7.28543L3.88151 23.4657C3.92163 25.7209 4.46696 27.8957 5.50229 29.9296C5.70305 30.3236 6.18488 30.4805 6.57926 30.2799C6.97333 30.0793 7.1302 29.5971 6.92953 29.203C6.00526 27.3874 5.51855 25.4476 5.48275 23.4373L5.21001 8.09101C10.1354 8.10623 14.0851 6.38095 16.5793 4.88445C18.4564 3.75831 19.7877 2.61175 20.499 1.93677C21.2103 2.61175 22.5418 3.75823 24.4188 4.88445C26.9026 6.37454 30.8272 8.09117 35.7255 8.09109C35.7465 8.09109 35.7672 8.09109 35.7881 8.09101L35.5155 23.4373C35.3912 30.4236 29.9225 36.2155 20.4989 39.3562C16.5134 38.0278 13.2169 36.2186 10.6979 33.9766C10.3675 33.6826 9.86151 33.712 9.56738 34.0423C9.27333 34.3727 9.3028 34.8788 9.63312 35.1729C12.3702 37.609 15.9425 39.5563 20.2508 40.9606C20.3314 40.9869 20.4152 41 20.4989 41C20.5827 41 20.6664 40.9869 20.7471 40.9606C25.8168 39.3081 29.8328 36.9296 32.6839 33.891C35.5163 30.8723 37.0492 27.2672 37.1167 23.4657L37.4042 7.28543C37.4083 7.06457 37.3208 6.8518 37.1625 6.69773Z" fill="#00B857"/>
<path fill-rule="evenodd" clip-rule="evenodd" d="M7.95703 31.4548C7.51604 31.4548 7.15625 31.8145 7.15625 32.2556C7.15625 32.6967 7.51604 33.0564 7.95703 33.0564C8.3981 33.0564 8.75789 32.6967 8.75789 32.2556C8.75789 31.8145 8.39802 31.4548 7.95703 31.4548Z" fill="#00B857"/>
</svg>
