<svg width="41" height="41" viewBox="0 0 41 41" fill="none" xmlns="http://www.w3.org/2000/svg">
<path d="M37.1562 5.76562H3.84375C2.99452 5.76658 2.18035 6.10436 1.57985 6.70485C0.979356 7.30535 0.641579 8.11952 0.640625 8.96875V26.9062C0.641579 27.7555 0.979356 28.5697 1.57985 29.1701C2.18035 29.7706 2.99452 30.1084 3.84375 30.1094H15.8844L15.4039 32.6719H12.8125C12.6426 32.6719 12.4796 32.7394 12.3595 32.8595C12.2394 32.9797 12.1719 33.1426 12.1719 33.3125V35.2344C12.1719 35.4043 12.2394 35.5672 12.3595 35.6874C12.4796 35.8075 12.6426 35.875 12.8125 35.875H28.1875C28.3574 35.875 28.5203 35.8075 28.6405 35.6874C28.7606 35.5672 28.8281 35.4043 28.8281 35.2344V33.3125C28.8281 33.1426 28.7606 32.9797 28.6405 32.8595C28.5203 32.7394 28.3574 32.6719 28.1875 32.6719H25.5271L25.1 30.1094H37.1562C38.0055 30.1084 38.8197 29.7706 39.4201 29.1701C40.0206 28.5697 40.3584 27.7555 40.3594 26.9062V8.96875C40.3584 8.11952 40.0206 7.30535 39.4201 6.70485C38.8197 6.10436 38.0055 5.76658 37.1562 5.76562ZM1.92188 8.96875C1.92245 8.45921 2.12511 7.97071 2.48541 7.61041C2.84571 7.25011 3.33421 7.04745 3.84375 7.04688H37.1562C37.6658 7.04745 38.1543 7.25011 38.5146 7.61041C38.8749 7.97071 39.0776 8.45921 39.0781 8.96875V24.9844H1.92188V8.96875ZM27.5469 34.5938H13.4531V33.9531H27.5469V34.5938ZM24.2281 32.6719H16.7074L17.1879 30.1094H23.8011L24.2281 32.6719ZM39.0781 26.9062C39.0776 27.4158 38.8749 27.9043 38.5146 28.2646C38.1543 28.6249 37.6658 28.8276 37.1562 28.8281H3.84375C3.33421 28.8276 2.84571 28.6249 2.48541 28.2646C2.12511 27.9043 1.92245 27.4158 1.92188 26.9062V26.2656H39.0781V26.9062Z" fill="#00B857"/>
<path d="M4.48438 28.1875H7.6875C7.8574 28.1875 8.02035 28.12 8.14049 27.9999C8.26063 27.8797 8.32812 27.7168 8.32812 27.5469C8.32812 27.377 8.26063 27.214 8.14049 27.0939C8.02035 26.9737 7.8574 26.9062 7.6875 26.9062H4.48438C4.31447 26.9062 4.15153 26.9737 4.03138 27.0939C3.91124 27.214 3.84375 27.377 3.84375 27.5469C3.84375 27.7168 3.91124 27.8797 4.03138 27.9999C4.15153 28.12 4.31447 28.1875 4.48438 28.1875Z" fill="#00B857"/>
<path d="M9.60938 28.1875H10.25C10.4199 28.1875 10.5829 28.12 10.703 27.9999C10.8231 27.8797 10.8906 27.7168 10.8906 27.5469C10.8906 27.377 10.8231 27.214 10.703 27.0939C10.5829 26.9737 10.4199 26.9062 10.25 26.9062H9.60938C9.43947 26.9062 9.27653 26.9737 9.15638 27.0939C9.03624 27.214 8.96875 27.377 8.96875 27.5469C8.96875 27.7168 9.03624 27.8797 9.15638 27.9999C9.27653 28.12 9.43947 28.1875 9.60938 28.1875Z" fill="#00B857"/>
<path d="M13.48 20.7803C13.9628 20.4937 14.3381 20.0565 14.5482 19.5358C14.7583 19.0152 14.7916 18.44 14.643 17.8986C14.4944 17.3572 14.1721 16.8796 13.7256 16.5391C13.2792 16.1987 12.7333 16.0143 12.1719 16.0143C11.6104 16.0143 11.0646 16.1987 10.6181 16.5391C10.1717 16.8796 9.84937 17.3572 9.70077 17.8986C9.55217 18.44 9.58548 19.0152 9.79558 19.5358C10.0057 20.0565 10.381 20.4937 10.8637 20.7803C10.2998 21.0331 9.82099 21.4435 9.48481 21.962C9.14863 22.4805 8.96943 23.0852 8.96875 23.7031C8.96875 23.873 9.03624 24.036 9.15638 24.1561C9.27653 24.2763 9.43947 24.3438 9.60938 24.3438H14.7344C14.9043 24.3438 15.0672 24.2763 15.1874 24.1561C15.3075 24.036 15.375 23.873 15.375 23.7031C15.3743 23.0852 15.1951 22.4805 14.8589 21.962C14.5228 21.4435 14.0439 21.0331 13.48 20.7803ZM12.1719 17.2969C12.4253 17.2969 12.673 17.372 12.8837 17.5128C13.0944 17.6536 13.2586 17.8537 13.3556 18.0878C13.4526 18.3219 13.4779 18.5796 13.4285 18.8281C13.3791 19.0766 13.257 19.3049 13.0779 19.4841C12.8987 19.6633 12.6704 19.7853 12.4218 19.8348C12.1733 19.8842 11.9157 19.8588 11.6816 19.7619C11.4474 19.6649 11.2473 19.5007 11.1066 19.29C10.9658 19.0793 10.8906 18.8315 10.8906 18.5781C10.891 18.2384 11.0261 17.9128 11.2663 17.6726C11.5065 17.4324 11.8322 17.2973 12.1719 17.2969ZM10.3598 23.0625C10.4922 22.6877 10.7376 22.3632 11.0621 22.1337C11.3867 21.9042 11.7744 21.7809 12.1719 21.7809C12.5694 21.7809 12.9571 21.9042 13.2816 22.1337C13.6062 22.3632 13.8515 22.6877 13.984 23.0625H10.3598Z" fill="#00B857"/>
<path d="M31.3906 7.6875H16.0156C15.8457 7.6875 15.6828 7.75499 15.5626 7.87513C15.4425 7.99528 15.375 8.15822 15.375 8.32813V16.0156C15.375 16.1855 15.4425 16.3485 15.5626 16.4686C15.6828 16.5888 15.8457 16.6563 16.0156 16.6563H16.6562V18.5781C16.6562 18.7048 16.6938 18.8287 16.7642 18.9341C16.8346 19.0394 16.9347 19.1215 17.0517 19.17C17.1688 19.2185 17.2976 19.2312 17.4219 19.2065C17.5461 19.1817 17.6603 19.1207 17.7499 19.0311L20.1248 16.6563H31.3906C31.5605 16.6563 31.7235 16.5888 31.8436 16.4686C31.9638 16.3485 32.0312 16.1855 32.0312 16.0156V8.32813C32.0312 8.15822 31.9638 7.99528 31.8436 7.87513C31.7235 7.75499 31.5605 7.6875 31.3906 7.6875ZM30.75 15.375H19.8594C19.7752 15.375 19.6919 15.3916 19.6142 15.4238C19.5365 15.456 19.4659 15.5031 19.4064 15.5626L17.9375 17.0315V16.0156C17.9375 15.8457 17.87 15.6828 17.7499 15.5626C17.6297 15.4425 17.4668 15.375 17.2969 15.375H16.6562V8.96875H30.75V15.375Z" fill="#00B857"/>
<path d="M19.2187 14.0937C19.5989 14.0937 19.9704 13.981 20.2865 13.7699C20.6025 13.5587 20.8489 13.2585 20.9943 12.9073C21.1398 12.5562 21.1779 12.1697 21.1037 11.7969C21.0295 11.4241 20.8465 11.0817 20.5777 10.8129C20.3089 10.5441 19.9665 10.3611 19.5937 10.2869C19.2209 10.2128 18.8345 10.2508 18.4833 10.3963C18.1321 10.5418 17.8319 10.7881 17.6208 11.1041C17.4096 11.4202 17.2969 11.7918 17.2969 12.1719C17.2974 12.6814 17.5001 13.1699 17.8604 13.5302C18.2207 13.8905 18.7092 14.0932 19.2187 14.0937ZM19.2187 11.5313C19.3455 11.5313 19.4693 11.5688 19.5747 11.6392C19.68 11.7096 19.7621 11.8097 19.8106 11.9267C19.8591 12.0438 19.8718 12.1726 19.8471 12.2969C19.8223 12.4211 19.7613 12.5353 19.6717 12.6249C19.5821 12.7145 19.468 12.7755 19.3437 12.8002C19.2195 12.8249 19.0907 12.8122 18.9736 12.7637C18.8565 12.7152 18.7565 12.6331 18.6861 12.5278C18.6157 12.4224 18.5781 12.2986 18.5781 12.1719C18.5783 12.002 18.6459 11.8392 18.766 11.7191C18.8861 11.599 19.0489 11.5314 19.2187 11.5313Z" fill="#00B857"/>
<path d="M23.7031 14.0937C24.0832 14.0937 24.4548 13.981 24.7709 13.7699C25.0869 13.5587 25.3332 13.2585 25.4787 12.9073C25.6242 12.5562 25.6622 12.1697 25.5881 11.7969C25.5139 11.4241 25.3309 11.0817 25.0621 10.8129C24.7933 10.5441 24.4509 10.3611 24.0781 10.2869C23.7053 10.2128 23.3188 10.2508 22.9677 10.3963C22.6165 10.5418 22.3163 10.7881 22.1051 11.1041C21.894 11.4202 21.7812 11.7918 21.7812 12.1719C21.7818 12.6814 21.9845 13.1699 22.3448 13.5302C22.7051 13.8905 23.1936 14.0932 23.7031 14.0937ZM23.7031 11.5313C23.8298 11.5313 23.9537 11.5688 24.059 11.6392C24.1644 11.7096 24.2465 11.8097 24.295 11.9267C24.3435 12.0438 24.3562 12.1726 24.3314 12.2969C24.3067 12.4211 24.2457 12.5353 24.1561 12.6249C24.0665 12.7145 23.9524 12.7755 23.8281 12.8002C23.7038 12.8249 23.575 12.8122 23.458 12.7637C23.3409 12.7152 23.2409 12.6331 23.1705 12.5278C23.1001 12.4224 23.0625 12.2986 23.0625 12.1719C23.0627 12.002 23.1302 11.8392 23.2503 11.7191C23.3704 11.599 23.5333 11.5314 23.7031 11.5313Z" fill="#00B857"/>
<path d="M28.1875 14.0937C28.5676 14.0937 28.9392 13.981 29.2552 13.7699C29.5713 13.5587 29.8176 13.2585 29.9631 12.9073C30.1085 12.5562 30.1466 12.1697 30.0724 11.7969C29.9983 11.4241 29.8152 11.0817 29.5465 10.8129C29.2777 10.5441 28.9352 10.3611 28.5624 10.2869C28.1896 10.2128 27.8032 10.2508 27.452 10.3963C27.1009 10.5418 26.8007 10.7881 26.5895 11.1041C26.3783 11.4202 26.2656 11.7918 26.2656 12.1719C26.2662 12.6814 26.4689 13.1699 26.8292 13.5302C27.1895 13.8905 27.678 14.0932 28.1875 14.0937ZM28.1875 11.5313C28.3142 11.5313 28.4381 11.5688 28.5434 11.6392C28.6488 11.7096 28.7309 11.8097 28.7794 11.9267C28.8278 12.0438 28.8405 12.1726 28.8158 12.2969C28.7911 12.4211 28.7301 12.5353 28.6405 12.6249C28.5509 12.7145 28.4367 12.7755 28.3125 12.8002C28.1882 12.8249 28.0594 12.8122 27.9423 12.7637C27.8253 12.7152 27.7252 12.6331 27.6548 12.5278C27.5844 12.4224 27.5469 12.2986 27.5469 12.1719C27.5471 12.002 27.6146 11.8392 27.7347 11.7191C27.8548 11.599 28.0177 11.5314 28.1875 11.5313Z" fill="#00B857"/>
</svg>
