<svg width="22" height="22" viewBox="0 0 22 22" fill="none" xmlns="http://www.w3.org/2000/svg">
<g clip-path="url(#clip0)">
<path d="M21.9195 10.7683L20.4529 8.93505C20.3832 8.84838 20.2779 8.79806 20.1666 8.79829H8.2049C6.98871 6.69599 4.29853 5.97767 2.19623 7.19386C0.0939382 8.41005 -0.624381 11.1002 0.591807 13.2025C1.37823 14.562 2.82999 15.3988 4.40055 15.398C5.97033 15.3959 7.42007 14.5576 8.20494 13.1981H9.90034C9.95708 13.1988 10.0132 13.1862 10.0642 13.1615L11.3406 12.5231L12.2634 13.1384C12.3866 13.2206 12.5472 13.2206 12.6704 13.1384L13.5669 12.5381L14.4633 13.1358C14.5865 13.218 14.7471 13.218 14.8703 13.1358L15.7668 12.5381L16.6633 13.1358C16.7235 13.1761 16.7943 13.1978 16.8667 13.1981H17.9667C18.0391 13.198 18.1099 13.1766 18.1702 13.1365L19.0667 12.5381L19.9631 13.1358C20.1214 13.2414 20.3341 13.2084 20.453 13.0599L21.9196 11.2266C22.0268 11.0927 22.0268 10.9023 21.9195 10.7683ZM4.40051 14.6647C2.37553 14.6647 0.733977 13.0232 0.733977 10.9982C0.736222 8.97414 2.37644 7.33387 4.40051 7.33167C6.42548 7.33167 8.06703 8.97323 8.06703 10.9982C8.06703 13.0232 6.42548 14.6647 4.40051 14.6647ZM19.9906 9.53159L20.2839 9.89825H8.65551C8.62325 9.77409 8.58658 9.65185 8.54552 9.53159H19.9906ZM20.0903 12.3398L19.2701 11.7931C19.1469 11.7109 18.9863 11.7109 18.8631 11.7931L17.8567 12.4648H16.9767L15.9691 11.7931C15.8459 11.7109 15.6853 11.7109 15.5622 11.7931L14.6668 12.3915L13.7703 11.7938C13.6471 11.7116 13.4865 11.7116 13.3633 11.7938L12.4669 12.3915L11.5704 11.7938C11.4611 11.7211 11.3213 11.7123 11.2037 11.7707L9.81377 12.4648H8.54368C8.71248 11.9942 8.79929 11.4981 8.80034 10.9982C8.80034 10.8743 8.79191 10.7529 8.78164 10.6316H20.8702L21.1635 10.9982L20.0903 12.3398Z" fill="white"/>
<path d="M2.56622 9.53156C1.75624 9.53156 1.09961 10.1882 1.09961 10.9982C1.09961 11.8081 1.75624 12.4648 2.56622 12.4648C3.3762 12.4648 4.03283 11.8081 4.03283 10.9982C4.03283 10.1882 3.3762 9.53156 2.56622 9.53156ZM2.56622 11.7315C2.16121 11.7315 1.83292 11.4032 1.83292 10.9982C1.83292 10.5932 2.16121 10.2649 2.56622 10.2649C2.97124 10.2649 3.29953 10.5932 3.29953 10.9982C3.29953 11.4032 2.97124 11.7315 2.56622 11.7315Z" fill="white"/>
</g>
<defs>
<clipPath id="clip0">
<rect width="22" height="22" fill="white"/>
</clipPath>
</defs>
</svg>
