<svg width="24" height="25" viewBox="0 0 24 25" fill="none" xmlns="http://www.w3.org/2000/svg">
<g clip-path="url(#clip0)">
<path d="M17.7359 23.7205L18.5005 22.9611C18.7393 22.7221 18.8708 22.4042 18.8708 22.0644C18.8708 21.7247 18.7393 21.4064 18.5005 21.1674L9.83795 12.5053L18.5101 3.83313C18.7489 3.59452 18.8802 3.27619 18.8802 2.93657C18.8802 2.59694 18.7489 2.27843 18.5101 2.03963L17.7502 1.28009C17.256 0.785543 16.451 0.785543 15.9569 1.28009L5.59451 11.6053C5.35591 11.8439 5.18779 12.1619 5.18779 12.5045L5.18779 12.5085C5.18779 12.8483 5.3561 13.1662 5.59451 13.4048L15.9288 23.7205C16.1674 23.9594 16.495 24.0906 16.8346 24.091C17.1744 24.091 17.4974 23.9594 17.7359 23.7205Z" fill="#F6F7FB"/>
</g>
<defs>
<clipPath id="clip0">
<rect width="23.1818" height="23.1818" fill="white" transform="translate(23.625 0.90918) rotate(90)"/>
</clipPath>
</defs>
</svg>
