<svg width="41" height="41" viewBox="0 0 41 41" fill="none" xmlns="http://www.w3.org/2000/svg">
<path d="M32.0312 0.640625H2.5625C2.3926 0.640625 2.22965 0.708119 2.10951 0.82826C1.98937 0.9484 1.92188 1.11135 1.92188 1.28125V39.7188C1.92188 39.8887 1.98937 40.0516 2.10951 40.1717C2.22965 40.2919 2.3926 40.3594 2.5625 40.3594H26.9062C26.9912 40.3594 27.0754 40.3425 27.1537 40.3096C27.2321 40.2768 27.3031 40.2286 27.3627 40.168L32.4877 34.9629C32.6057 34.8431 32.6718 34.6818 32.6719 34.5137V1.28125C32.6719 1.11135 32.6044 0.9484 32.4842 0.82826C32.3641 0.708119 32.2012 0.640625 32.0312 0.640625ZM27.5469 38.1548V35.2344H30.4225L27.5469 38.1548ZM31.3906 33.9531H26.9062C26.7363 33.9531 26.5734 34.0206 26.4533 34.1408C26.3331 34.2609 26.2656 34.4238 26.2656 34.5938V39.0781H3.20312V1.92188H31.3906V33.9531Z" fill="#00B857"/>
<path d="M8.96875 8.32812H25.625C25.7949 8.32812 25.9578 8.26063 26.078 8.14049C26.1981 8.02035 26.2656 7.8574 26.2656 7.6875C26.2656 7.5176 26.1981 7.35465 26.078 7.23451C25.9578 7.11437 25.7949 7.04688 25.625 7.04688H8.96875C8.79885 7.04688 8.6359 7.11437 8.51576 7.23451C8.39562 7.35465 8.32812 7.5176 8.32812 7.6875C8.32812 7.8574 8.39562 8.02035 8.51576 8.14049C8.6359 8.26063 8.79885 8.32812 8.96875 8.32812Z" fill="#00B857"/>
<path d="M8.96875 10.8906H25.625C25.7949 10.8906 25.9578 10.8231 26.078 10.703C26.1981 10.5829 26.2656 10.4199 26.2656 10.25C26.2656 10.0801 26.1981 9.91715 26.078 9.79701C25.9578 9.67687 25.7949 9.60938 25.625 9.60938H8.96875C8.79885 9.60938 8.6359 9.67687 8.51576 9.79701C8.39562 9.91715 8.32812 10.0801 8.32812 10.25C8.32812 10.4199 8.39562 10.5829 8.51576 10.703C8.6359 10.8231 8.79885 10.8906 8.96875 10.8906Z" fill="#00B857"/>
<path d="M8.96875 13.4531H25.625C25.7949 13.4531 25.9578 13.3856 26.078 13.2655C26.1981 13.1454 26.2656 12.9824 26.2656 12.8125C26.2656 12.6426 26.1981 12.4796 26.078 12.3595C25.9578 12.2394 25.7949 12.1719 25.625 12.1719H8.96875C8.79885 12.1719 8.6359 12.2394 8.51576 12.3595C8.39562 12.4796 8.32812 12.6426 8.32812 12.8125C8.32812 12.9824 8.39562 13.1454 8.51576 13.2655C8.6359 13.3856 8.79885 13.4531 8.96875 13.4531Z" fill="#00B857"/>
<path d="M8.96875 16.0156H19.2188C19.3887 16.0156 19.5516 15.9481 19.6717 15.828C19.7919 15.7079 19.8594 15.5449 19.8594 15.375C19.8594 15.2051 19.7919 15.0421 19.6717 14.922C19.5516 14.8019 19.3887 14.7344 19.2188 14.7344H8.96875C8.79885 14.7344 8.6359 14.8019 8.51576 14.922C8.39562 15.0421 8.32812 15.2051 8.32812 15.375C8.32812 15.5449 8.39562 15.7079 8.51576 15.828C8.6359 15.9481 8.79885 16.0156 8.96875 16.0156Z" fill="#00B857"/>
<path d="M21.1406 14.7344C20.9707 14.7344 20.8078 14.8019 20.6876 14.922C20.5675 15.0421 20.5 15.2051 20.5 15.375C20.5 15.5449 20.5675 15.7079 20.6876 15.828C20.8078 15.9481 20.9707 16.0156 21.1406 16.0156H21.7812C21.9512 16.0156 22.1141 15.9481 22.2342 15.828C22.3544 15.7079 22.4219 15.5449 22.4219 15.375C22.4219 15.2051 22.3544 15.0421 22.2342 14.922C22.1141 14.8019 21.9512 14.7344 21.7812 14.7344H21.1406Z" fill="#00B857"/>
<path d="M8.96875 23.0625H25.625C25.7949 23.0625 25.9578 22.995 26.078 22.8749C26.1981 22.7547 26.2656 22.5918 26.2656 22.4219C26.2656 22.252 26.1981 22.089 26.078 21.9689C25.9578 21.8487 25.7949 21.7812 25.625 21.7812H8.96875C8.79885 21.7812 8.6359 21.8487 8.51576 21.9689C8.39562 22.089 8.32812 22.252 8.32812 22.4219C8.32812 22.5918 8.39562 22.7547 8.51576 22.8749C8.6359 22.995 8.79885 23.0625 8.96875 23.0625Z" fill="#00B857"/>
<path d="M8.96875 25.625H25.625C25.7949 25.625 25.9578 25.5575 26.078 25.4374C26.1981 25.3172 26.2656 25.1543 26.2656 24.9844C26.2656 24.8145 26.1981 24.6515 26.078 24.5314C25.9578 24.4112 25.7949 24.3438 25.625 24.3438H8.96875C8.79885 24.3438 8.6359 24.4112 8.51576 24.5314C8.39562 24.6515 8.32812 24.8145 8.32812 24.9844C8.32812 25.1543 8.39562 25.3172 8.51576 25.4374C8.6359 25.5575 8.79885 25.625 8.96875 25.625Z" fill="#00B857"/>
<path d="M26.2656 27.5469C26.2656 27.377 26.1981 27.214 26.078 27.0939C25.9578 26.9737 25.7949 26.9062 25.625 26.9062H8.96875C8.79885 26.9062 8.6359 26.9737 8.51576 27.0939C8.39562 27.214 8.32812 27.377 8.32812 27.5469C8.32812 27.7168 8.39562 27.8797 8.51576 27.9999C8.6359 28.12 8.79885 28.1875 8.96875 28.1875H25.625C25.7949 28.1875 25.9578 28.12 26.078 27.9999C26.1981 27.8797 26.2656 27.7168 26.2656 27.5469Z" fill="#00B857"/>
<path d="M19.2188 29.4688H8.96875C8.79885 29.4688 8.6359 29.5362 8.51576 29.6564C8.39562 29.7765 8.32812 29.9395 8.32812 30.1094C8.32812 30.2793 8.39562 30.4422 8.51576 30.5624C8.6359 30.6825 8.79885 30.75 8.96875 30.75H19.2188C19.3887 30.75 19.5516 30.6825 19.6717 30.5624C19.7919 30.4422 19.8594 30.2793 19.8594 30.1094C19.8594 29.9395 19.7919 29.7765 19.6717 29.6564C19.5516 29.5362 19.3887 29.4688 19.2188 29.4688Z" fill="#00B857"/>
<path d="M21.7812 29.4688H21.1406C20.9707 29.4688 20.8078 29.5362 20.6876 29.6564C20.5675 29.7765 20.5 29.9395 20.5 30.1094C20.5 30.2793 20.5675 30.4422 20.6876 30.5624C20.8078 30.6825 20.9707 30.75 21.1406 30.75H21.7812C21.9512 30.75 22.1141 30.6825 22.2342 30.5624C22.3544 30.4422 22.4219 30.2793 22.4219 30.1094C22.4219 29.9395 22.3544 29.7765 22.2342 29.6564C22.1141 29.5362 21.9512 29.4688 21.7812 29.4688Z" fill="#00B857"/>
<path d="M37.1562 19.8594C37.1562 19.6895 37.0888 19.5265 36.9686 19.4064C36.8485 19.2862 36.6855 19.2188 36.5156 19.2188C36.3457 19.2188 36.1828 19.2862 36.0626 19.4064C35.9425 19.5265 35.875 19.6895 35.875 19.8594V20.5C35.875 20.6699 35.9425 20.8329 36.0626 20.953C36.1828 21.0731 36.3457 21.1406 36.5156 21.1406C36.6855 21.1406 36.8485 21.0731 36.9686 20.953C37.0888 20.8329 37.1562 20.6699 37.1562 20.5V19.8594Z" fill="#00B857"/>
<path d="M36.8359 0.640625H36.1953C35.6008 0.641282 35.0309 0.877723 34.6106 1.29807C34.1902 1.71842 33.9538 2.28835 33.9531 2.88281V35.2344H33.9539C33.9534 35.3211 33.9709 35.407 34.0052 35.4866L35.9271 39.971C35.9763 40.0863 36.0584 40.1845 36.163 40.2536C36.2677 40.3226 36.3903 40.3594 36.5156 40.3594C36.641 40.3594 36.7636 40.3226 36.8682 40.2536C36.9729 40.1845 37.0549 40.0863 37.1042 39.971L39.0261 35.4866C39.0604 35.407 39.0778 35.3211 39.0773 35.2344H39.0781V2.88281C39.0775 2.28835 38.841 1.71842 38.4207 1.29807C38.0003 0.877723 37.4304 0.641282 36.8359 0.640625ZM36.5156 38.0924L35.5651 35.875H37.4662L36.5156 38.0924ZM37.7969 34.5938H37.1562V22.4219C37.1562 22.252 37.0888 22.089 36.9686 21.9689C36.8485 21.8487 36.6855 21.7813 36.5156 21.7813C36.3457 21.7813 36.1828 21.8487 36.0626 21.9689C35.9425 22.089 35.875 22.252 35.875 22.4219V34.5938H35.2344V7.6875H37.7969V34.5938ZM37.7969 6.40625H35.2344V5.76563H37.7969V6.40625ZM37.7969 4.48438H35.2344V2.88281C35.2346 2.62802 35.3359 2.38373 35.5161 2.20356C35.6962 2.0234 35.9405 1.92209 36.1953 1.92188H36.8359C37.0907 1.92209 37.335 2.0234 37.5152 2.20356C37.6954 2.38373 37.7967 2.62802 37.7969 2.88281V4.48438Z" fill="#00B857"/>
</svg>
