<svg width="43" height="43" viewBox="0 0 43 43" fill="none" xmlns="http://www.w3.org/2000/svg">
<path d="M35.7929 5.97148L21.7701 1.09387C21.63 1.04537 21.4777 1.04537 21.3376 1.09387L7.31481 5.97148C6.86347 6.12887 6.47225 6.42271 6.19533 6.81231C5.91841 7.20192 5.7695 7.66799 5.76923 8.14598V32.2882C5.76859 32.7091 5.88366 33.122 6.10187 33.4819C6.32009 33.8418 6.63304 34.1347 7.00651 34.3287L21.2497 41.7598C21.3435 41.8089 21.4479 41.8346 21.5538 41.8346C21.6598 41.8346 21.7642 41.8089 21.858 41.7598L36.1012 34.3287C36.4748 34.1349 36.788 33.842 37.0062 33.4821C37.2245 33.1222 37.3394 32.7091 37.3385 32.2882V8.14598C37.3382 7.66799 37.1893 7.20192 36.9124 6.81231C36.6354 6.42271 36.2442 6.12887 35.7929 5.97148ZM36.0231 32.2882C36.0233 32.4686 35.974 32.6456 35.8805 32.7999C35.787 32.9541 35.6529 33.0797 35.4928 33.1629L21.5538 40.4354L7.61488 33.1629C7.45483 33.0797 7.32073 32.9541 7.22722 32.7999C7.13371 32.6456 7.08438 32.4686 7.08461 32.2882V8.14598C7.08483 7.94107 7.1487 7.7413 7.26741 7.57428C7.38612 7.40727 7.55379 7.28126 7.74724 7.2137L21.5538 2.41172L35.3605 7.2137C35.5539 7.28126 35.7216 7.40727 35.8403 7.57428C35.959 7.7413 36.0229 7.94107 36.0231 8.14598V32.2882Z" fill="#00B857"/>
<path d="M34.266 8.22608L21.7699 3.87964C21.63 3.83097 21.4777 3.83097 21.3378 3.87964L8.84163 8.22608C8.71263 8.27095 8.6008 8.35486 8.52166 8.46618C8.44252 8.5775 8.39999 8.71069 8.39999 8.84727V31.6897C8.40001 31.81 8.43297 31.9279 8.49529 32.0307C8.55762 32.1334 8.64692 32.2172 8.7535 32.2728L21.2497 38.7922C21.3436 38.8412 21.4479 38.8667 21.5538 38.8667C21.6598 38.8667 21.7641 38.8412 21.858 38.7922L34.3542 32.2728C34.4608 32.2172 34.5501 32.1334 34.6124 32.0307C34.6747 31.9279 34.7077 31.81 34.7077 31.6897V8.84727C34.7077 8.71069 34.6652 8.5775 34.586 8.46618C34.5069 8.35486 34.395 8.27095 34.266 8.22608ZM33.3923 31.2913L21.5538 37.4678L9.71538 31.2913V9.31489L21.5538 5.19716L33.3923 9.31489V31.2913Z" fill="#00B857"/>
<path d="M16.4732 19.3416C16.4041 19.2897 16.3254 19.252 16.2418 19.2306C16.1581 19.2092 16.071 19.2044 15.9855 19.2166C15.9 19.2289 15.8178 19.2578 15.7435 19.3018C15.6691 19.3458 15.6042 19.404 15.5524 19.4731L13.1847 22.63C13.08 22.7696 13.0351 22.945 13.0598 23.1177C13.0844 23.2903 13.1767 23.4461 13.3162 23.5508L19.9468 28.5237C20.0734 28.6187 20.2301 28.6648 20.388 28.6536C20.5459 28.6424 20.6945 28.5746 20.8065 28.4626L30.5665 18.7026C30.6276 18.6415 30.6761 18.569 30.7091 18.4892C30.7422 18.4094 30.7592 18.3239 30.7592 18.2375C30.7592 18.1511 30.7422 18.0656 30.7091 17.9858C30.6761 17.906 30.6276 17.8335 30.5665 17.7724L27.7762 14.9821C27.7151 14.921 27.6426 14.8725 27.5628 14.8394C27.483 14.8064 27.3975 14.7894 27.3111 14.7894C27.2247 14.7894 27.1392 14.8064 27.0593 14.8394C26.9795 14.8725 26.907 14.921 26.846 14.9821L19.9096 21.9187L16.4732 19.3416ZM20.4362 23.2523L27.311 16.3773L29.1713 18.2376L20.2796 27.1291L14.6316 22.8931L16.2101 20.7885L19.5765 23.3133C19.7031 23.4083 19.8598 23.4544 20.0177 23.4432C20.1756 23.432 20.3242 23.3642 20.4362 23.2522V23.2523Z" fill="#00B857"/>
</svg>
