<svg width="72" height="72" viewBox="0 0 72 72" fill="none" xmlns="http://www.w3.org/2000/svg">
<circle cx="36" cy="36" r="36" fill="#F4F5F7"/>
<path d="M36.4897 16C25.1736 16 16 25.1736 16 36.4897C16 47.8058 25.1736 56.9794 36.4897 56.9794C47.8058 56.9794 56.9794 47.8058 56.9794 36.4897C56.9665 25.1789 47.8005 16.0129 36.4897 16ZM36.4897 55.6136C25.9281 55.6136 17.3658 47.0513 17.3658 36.4897C17.3658 25.9281 25.9281 17.3658 36.4897 17.3658C47.0513 17.3658 55.6136 25.9281 55.6136 36.4897C55.6015 47.0465 47.0465 55.6015 36.4897 55.6136Z" fill="#00B857"/>
<path d="M36.4897 19.415C27.0596 19.415 19.415 27.0596 19.415 36.4897C19.415 45.9198 27.0596 53.5644 36.4897 53.5644C45.9198 53.5644 53.5644 45.9198 53.5644 36.4897C53.5539 27.0638 45.9156 19.4254 36.4897 19.415ZM36.4897 52.1985C27.8141 52.1985 20.7809 45.1653 20.7809 36.4897C20.7809 27.8141 27.8141 20.7809 36.4897 20.7809C45.1653 20.7809 52.1985 27.8141 52.1985 36.4897C52.1887 45.1614 45.1614 52.1887 36.4897 52.1985Z" fill="#00B857"/>
<path d="M44.2528 48.5674L43.0695 49.2501L42.3867 48.0672L43.5697 47.3841L44.2528 48.5674Z" fill="#00B857"/>
<path d="M30.5923 24.9094L29.4093 25.5924L28.7266 24.4092L29.9095 23.7264L30.5923 24.9094Z" fill="#00B857"/>
<path d="M49.2518 43.0714L48.569 44.2543L47.3857 43.5716L48.0688 42.3886L49.2518 43.0714Z" fill="#00B857"/>
<path d="M25.5926 29.4098L24.9098 30.5931L23.7266 29.91L24.4093 28.727L25.5926 29.4098Z" fill="#00B857"/>
<path d="M49.4668 35.8066H50.8326V37.1727H49.4668V35.8066Z" fill="#00B857"/>
<path d="M22.1475 35.8066H23.5133V37.1727H22.1475V35.8066Z" fill="#00B857"/>
<path d="M49.2515 29.9089L48.0685 30.5917L47.3857 29.4087L48.5687 28.7259L49.2515 29.9089Z" fill="#00B857"/>
<path d="M25.5936 43.5688L24.4103 44.2516L23.7275 43.0686L24.9108 42.3856L25.5936 43.5688Z" fill="#00B857"/>
<path d="M44.2537 24.4112L43.5707 25.5944L42.3877 24.9114L43.0705 23.7284L44.2537 24.4112Z" fill="#00B857"/>
<path d="M30.5923 48.0709L29.9095 49.2538L28.7266 48.5711L29.4093 47.3878L30.5923 48.0709Z" fill="#00B857"/>
<path d="M35.8066 49.4666H37.1728V50.8325H35.8066V49.4666Z" fill="#00B857"/>
<path d="M38.5386 33.4749V24.1959C38.5386 23.0641 37.6212 22.1469 36.4897 22.1469C35.3582 22.1469 34.4407 23.0641 34.4407 24.1959V34.7015C34.0792 35.1151 33.8522 35.629 33.7897 36.1748L28.8353 41.1293C28.0028 41.9617 28.0028 43.3113 28.8353 44.144C29.668 44.9765 31.0175 44.9765 31.85 44.144L36.8045 39.1895C38.1785 39.0331 39.2177 37.8726 39.2216 36.4896C39.2191 36.0035 39.0855 35.5269 38.8342 35.1108L47.2175 26.7278L46.2517 25.762L38.5386 33.4749ZM36.4897 23.5128C36.8669 23.5128 37.1727 23.8186 37.1727 24.1959V33.8547C36.7265 33.7253 36.2528 33.7253 35.8066 33.8547V24.1959C35.8066 23.8186 36.1124 23.5128 36.4897 23.5128ZM30.8845 43.1782C30.5812 43.4677 30.1041 43.4677 29.8011 43.1782C29.5034 42.8786 29.5034 42.3947 29.8011 42.0948L34.104 37.7922C34.3547 38.2491 34.7305 38.6246 35.1871 38.8753L30.8845 43.1782ZM36.4897 37.8555C35.7351 37.8555 35.1238 37.2441 35.1238 36.4896C35.1238 35.7351 35.7351 35.1238 36.4897 35.1238C37.2442 35.1238 37.8555 35.7351 37.8555 36.4896C37.8555 37.2441 37.2442 37.8555 36.4897 37.8555Z" fill="#00B857"/>
</svg>
