<svg width="41" height="41" viewBox="0 0 41 41" fill="none" xmlns="http://www.w3.org/2000/svg">
<path d="M29.0967 17.1935H27.7741V7.27419C27.7741 3.25673 24.5174 0 20.4999 0C16.4824 0 13.2257 3.25673 13.2257 7.27419V17.1935H11.9031C10.0778 17.1958 8.59894 18.6747 8.59668 20.5V37.6936C8.59894 39.5189 10.0778 40.9977 11.9031 41H29.0967C30.922 40.9977 32.4009 39.5189 32.4031 37.6936V20.5C32.4009 18.6747 30.922 17.1958 29.0967 17.1935ZM14.5483 7.27419C14.5483 3.98712 17.2128 1.32258 20.4999 1.32258C23.787 1.32258 26.4515 3.98712 26.4515 7.27419V17.1935H14.5483V7.27419ZM31.0806 37.6936C31.0806 38.7891 30.1923 39.6774 29.0967 39.6774H11.9031C10.8075 39.6774 9.91926 38.7891 9.91926 37.6936V20.5C9.91926 19.4044 10.8075 18.5161 11.9031 18.5161H29.0967C30.1923 18.5161 31.0806 19.4044 31.0806 20.5V37.6936Z" fill="#00B857"/>
<path d="M20.5 25.7903C18.3088 25.7903 16.5322 27.5669 16.5322 29.7581C16.5322 31.9492 18.3088 33.7258 20.5 33.7258C22.6911 33.7258 24.4677 31.9492 24.4677 29.7581C24.4655 27.5675 22.6905 25.7926 20.5 25.7903ZM20.5 32.4032C19.0392 32.4032 17.8548 31.2188 17.8548 29.7581C17.8548 28.2973 19.0392 27.1129 20.5 27.1129C21.9607 27.1129 23.1451 28.2973 23.1451 29.7581C23.1451 31.2188 21.9607 32.4032 20.5 32.4032Z" fill="#00B857"/>
<path d="M15.8712 19.8387H11.9035C11.5383 19.8387 11.2422 20.1348 11.2422 20.5C11.2422 20.8652 11.5383 21.1613 11.9035 21.1613H15.8712C16.2364 21.1613 16.5325 20.8652 16.5325 20.5C16.5325 20.1348 16.2364 19.8387 15.8712 19.8387Z" fill="#00B857"/>
<path d="M17.8547 21.1613H18.5159C18.8811 21.1613 19.1772 20.8652 19.1772 20.5C19.1772 20.1348 18.8811 19.8387 18.5159 19.8387H17.8547C17.4895 19.8387 17.1934 20.1348 17.1934 20.5C17.1934 20.8652 17.4895 21.1613 17.8547 21.1613Z" fill="#00B857"/>
</svg>
