<svg width="41" height="41" viewBox="0 0 41 41" fill="none" xmlns="http://www.w3.org/2000/svg">
<path d="M39.0781 25.625H33.9531V26.9062H38.4375V39.7188H39.0781C39.248 39.7188 39.411 39.6513 39.5311 39.5311C39.6513 39.411 39.7188 39.248 39.7188 39.0781V26.2656C39.7188 26.0957 39.6513 25.9328 39.5311 25.8126C39.411 25.6925 39.248 25.625 39.0781 25.625Z" fill="#00B857"/>
<path d="M37.1562 1.28125H12.8125C12.1331 1.28201 11.4818 1.55223 11.0014 2.03263C10.521 2.51303 10.2508 3.16437 10.25 3.84375V7.6875H11.5312V3.84375C11.5317 3.50407 11.6668 3.17841 11.907 2.93821C12.1472 2.69802 12.4728 2.5629 12.8125 2.5625H37.1562C37.4959 2.5629 37.8216 2.69802 38.0618 2.93821C38.302 3.17841 38.4371 3.50407 38.4375 3.84375V19.2188H17.9375V20.5H38.4375V21.7812C38.4371 22.1209 38.302 22.4466 38.0618 22.6868C37.8216 22.927 37.4959 23.0621 37.1562 23.0625H21.1406V24.3438H21.533L20.9599 26.063L22.1754 26.4682L22.8836 24.3438H27.0851L27.5128 25.6268C27.1793 25.6358 26.8624 25.7745 26.6295 26.0134C26.3967 26.2523 26.2661 26.5726 26.2656 26.9062V28.1875H22.4219C22.252 28.1875 22.089 28.255 21.9689 28.3751C21.8487 28.4953 21.7812 28.6582 21.7812 28.8281V39.0781C21.7812 39.248 21.8487 39.411 21.9689 39.5311C22.089 39.6513 22.252 39.7188 22.4219 39.7188H36.5156C36.6855 39.7188 36.8485 39.6513 36.9686 39.5311C37.0888 39.411 37.1562 39.248 37.1562 39.0781V28.8281C37.1562 28.6582 37.0888 28.4953 36.9686 28.3751C36.8485 28.255 36.6855 28.1875 36.5156 28.1875H32.6719V26.9062C32.6715 26.5666 32.5364 26.2409 32.2962 26.0007C32.056 25.7605 31.7303 25.6254 31.3906 25.625H28.8626L28.4357 24.3438H37.1562C37.8356 24.343 38.487 24.0728 38.9674 23.5924C39.4478 23.112 39.718 22.4606 39.7188 21.7812V3.84375C39.718 3.16437 39.4478 2.51303 38.9674 2.03263C38.487 1.55223 37.8356 1.28201 37.1562 1.28125ZM27.5469 26.9062H27.9393L28.3662 28.1875H27.5469V26.9062ZM23.0625 38.4375V34.1512L29.3006 35.8524C29.4109 35.8825 29.5274 35.8825 29.6377 35.8524L35.875 34.1512V38.4375H23.0625ZM35.875 32.8232L29.4688 34.5704L23.0625 32.8232V29.4688H35.875V32.8232ZM31.3906 26.9062V28.1875H29.717L29.29 26.9062H31.3906Z" fill="#00B857"/>
<path d="M17.9375 17.9375H36.5156V16.6562H34.5938V7.04688C34.5938 6.87697 34.5263 6.71403 34.4061 6.59388C34.286 6.47374 34.123 6.40625 33.9531 6.40625H31.3906C31.2207 6.40625 31.0578 6.47374 30.9376 6.59388C30.8175 6.71403 30.75 6.87697 30.75 7.04688V16.6562H29.4688V9.60938C29.4688 9.43947 29.4013 9.27653 29.2811 9.15638C29.161 9.03624 28.998 8.96875 28.8281 8.96875H26.2656C26.0957 8.96875 25.9328 9.03624 25.8126 9.15638C25.6925 9.27653 25.625 9.43947 25.625 9.60938V16.6562H24.3438V12.1719C24.3438 12.002 24.2763 11.839 24.1561 11.7189C24.036 11.5987 23.873 11.5312 23.7031 11.5312H21.1406C20.9707 11.5312 20.8078 11.5987 20.6876 11.7189C20.5675 11.839 20.5 12.002 20.5 12.1719V16.6562H19.2188V14.0938C19.2188 13.9238 19.1513 13.7609 19.0311 13.6408C18.911 13.5206 18.748 13.4531 18.5781 13.4531H17.9375V17.9375ZM32.0312 7.6875H33.3125V16.6562H32.0312V7.6875ZM26.9062 10.25H28.1875V16.6562H26.9062V10.25ZM21.7812 12.8125H23.0625V16.6562H21.7812V12.8125Z" fill="#00B857"/>
<path d="M4.48438 39.7188H17.2969C18.1461 39.7178 18.9603 39.38 19.5608 38.7795C20.1613 38.179 20.499 37.3649 20.5 36.5156V26.9062C20.4988 25.8872 20.0935 24.9102 19.3729 24.1896C18.6523 23.469 17.6753 23.0637 16.6562 23.0625H14.5211C15.189 22.5216 15.7273 21.8382 16.0968 21.0622C16.4662 20.2863 16.6574 19.4375 16.6562 18.5781V13.4531C16.6562 13.3797 16.653 13.3063 16.6482 13.233C17.0664 12.7648 17.2973 12.159 17.2969 11.5312V9.60938C17.2969 9.43947 17.2294 9.27653 17.1092 9.15638C16.9891 9.03624 16.8262 8.96875 16.6562 8.96875H8.32812C7.4789 8.9697 6.66472 9.30748 6.06423 9.90798C5.46373 10.5085 5.12595 11.3226 5.125 12.1719V18.5781C5.125 19.4386 5.3179 20.2881 5.68951 21.0641C6.06112 21.8402 6.60197 22.523 7.27229 23.0625H5.125C4.10593 23.0637 3.12894 23.469 2.40835 24.1896C1.68776 24.9102 1.28242 25.8872 1.28125 26.9062V36.5156C1.2822 37.3649 1.61998 38.179 2.22048 38.7795C2.82097 39.38 3.63515 39.7178 4.48438 39.7188ZM14.7344 36.0155L13.4531 36.3358V32.977L14.7344 32.7786V36.0155ZM10.8901 38.3446L11.2308 38.4375H10.5494L10.8901 38.3446ZM17.2969 38.4375H16.1014L13.3403 37.6848L15.4539 37.1562H19.1086C18.9763 37.531 18.731 37.8555 18.4065 38.085C18.082 38.3145 17.6943 38.4377 17.2969 38.4375ZM19.2188 35.875H16.0156V32.6719H19.2188V35.875ZM10.25 24.3438V27.3956L8.72403 24.3438H10.25ZM11.5312 24.3438H13.0572L11.5312 27.3956V24.3438ZM6.40625 12.1719C6.40682 11.6623 6.60949 11.1738 6.96979 10.8135C7.33008 10.4532 7.81859 10.2506 8.32812 10.25H16.0156V11.5312C16.0152 11.8709 15.8801 12.1966 15.6399 12.4368C15.3997 12.677 15.0741 12.8121 14.7344 12.8125H6.40625V12.1719ZM6.40625 18.5781V16.8337L8.05017 14.0938H13.7311L15.375 16.8337V18.5781C15.3752 18.9562 15.3279 19.3329 15.2343 19.6992C15.0329 20.4857 14.6212 21.2025 14.0433 21.7727C13.4654 22.3429 12.7432 22.7449 11.9541 22.9357L11.9401 22.9389C11.2808 23.0967 10.5943 23.1031 9.93212 22.9576C9.26995 22.8122 8.64932 22.5187 8.11683 22.099C7.58433 21.6794 7.1538 21.1447 6.85754 20.5349C6.56128 19.9251 6.40699 19.2561 6.40625 18.5781ZM5.125 24.3438H7.29159L10.3177 30.3959C10.3709 30.5023 10.4527 30.5918 10.5539 30.6543C10.6551 30.7168 10.7717 30.75 10.8906 30.75C11.0096 30.75 11.1262 30.7168 11.2274 30.6543C11.3286 30.5918 11.4104 30.5023 11.4636 30.3959L14.4897 24.3438H16.6562C17.3356 24.3445 17.987 24.6147 18.4674 25.0951C18.9478 25.5755 19.218 26.2269 19.2188 26.9062V31.3906H16.0156V29.4688H14.7344V31.4822L12.7145 31.7945C12.7091 31.7953 12.704 31.7967 12.6985 31.7977C12.6948 31.7984 12.6911 31.7985 12.6873 31.7993L10.8915 32.1564L9.09367 31.799C9.08975 31.7982 9.08566 31.7981 9.08198 31.7973C9.07686 31.7964 9.07189 31.795 9.06669 31.7942L7.04688 31.4822V29.4688H5.76562V31.3906H2.5625V26.9062C2.56326 26.2269 2.83348 25.5755 3.31388 25.0951C3.79428 24.6147 4.44562 24.3445 5.125 24.3438ZM5.76562 33.1764L2.5625 33.8134V32.6719H5.76562V33.1764ZM7.04688 32.7789L7.45063 32.8412L7.04688 32.9213V32.7789ZM2.5625 35.1195L12.1719 33.2084V36.667L5.67986 38.4375H4.48438C3.97484 38.4369 3.48633 38.2343 3.12604 37.874C2.76574 37.5137 2.56307 37.0252 2.5625 36.5156V35.1195Z" fill="#00B857"/>
<path d="M10.8906 34.5938H9.60938V35.875H10.8906V34.5938Z" fill="#00B857"/>
<path d="M8.61328 20.3924C9.28712 20.8434 10.0797 21.0841 10.8905 21.0841C11.7013 21.0841 12.4939 20.8434 13.1677 20.3924L12.457 19.3264C11.9935 19.6366 11.4483 19.8022 10.8905 19.8022C10.3327 19.8022 9.78753 19.6366 9.32397 19.3264L8.61328 20.3924Z" fill="#00B857"/>
<path d="M8.64844 17.9375C8.83849 17.9375 9.02428 17.8811 9.18231 17.7756C9.34033 17.67 9.4635 17.5199 9.53623 17.3443C9.60896 17.1687 9.62799 16.9755 9.59091 16.7891C9.55383 16.6027 9.46231 16.4315 9.32792 16.2971C9.19353 16.1627 9.02231 16.0712 8.83591 16.0341C8.6495 15.997 8.45629 16.016 8.2807 16.0888C8.10511 16.1615 7.95504 16.2847 7.84945 16.4427C7.74386 16.6007 7.6875 16.7865 7.6875 16.9766C7.68778 17.2313 7.78911 17.4756 7.96926 17.6557C8.14941 17.8359 8.39367 17.9372 8.64844 17.9375Z" fill="#00B857"/>
<path d="M13.1328 17.9375C13.3229 17.9375 13.5087 17.8811 13.6667 17.7756C13.8247 17.67 13.9479 17.5199 14.0206 17.3443C14.0933 17.1687 14.1124 16.9755 14.0753 16.7891C14.0382 16.6027 13.9467 16.4315 13.8123 16.2971C13.6779 16.1627 13.5067 16.0712 13.3203 16.0341C13.1339 15.997 12.9407 16.016 12.7651 16.0888C12.5895 16.1615 12.4394 16.2847 12.3338 16.4427C12.2282 16.6007 12.1719 16.7865 12.1719 16.9766C12.1722 17.2313 12.2735 17.4756 12.4536 17.6557C12.6338 17.8359 12.878 17.9372 13.1328 17.9375Z" fill="#00B857"/>
<path d="M14.0938 3.84375H12.8125V5.125H14.0938V3.84375Z" fill="#00B857"/>
<path d="M16.6562 3.84375H15.375V5.125H16.6562V3.84375Z" fill="#00B857"/>
<path d="M19.2188 3.84375H17.9375V5.125H19.2188V3.84375Z" fill="#00B857"/>
<path d="M22.2342 6.59387C22.1295 6.48914 21.9917 6.42392 21.8443 6.40932C21.6969 6.39472 21.549 6.43164 21.4258 6.5138L18.2227 8.64916L18.9334 9.71524L21.6995 7.8712L22.6094 8.78113C22.7119 8.88362 22.846 8.94835 22.99 8.96474C23.134 8.98113 23.2793 8.94822 23.4022 8.87138L27.1809 6.50955L26.9253 7.53215L28.1683 7.84285L28.8089 5.28035C28.8325 5.18591 28.8343 5.08732 28.8141 4.99209C28.7939 4.89686 28.7523 4.80748 28.6923 4.73075C28.6324 4.65402 28.5558 4.59195 28.4683 4.54926C28.3808 4.50657 28.2848 4.48438 28.1874 4.48438H25.6249V5.76563H25.9536L23.1551 7.51477L22.2342 6.59387Z" fill="#00B857"/>
<path d="M30.1094 32.0312H28.8281V33.3125H30.1094V32.0312Z" fill="#00B857"/>
</svg>
