<svg width="41" height="41" viewBox="0 0 41 41" fill="none" xmlns="http://www.w3.org/2000/svg">
<g clip-path="url(#clip0)">
<path d="M24.5562 14.334C24.9991 14.334 25.3586 13.9752 25.3586 13.5332C25.3586 13.0912 24.9991 12.7325 24.5562 12.7325C24.1125 12.7325 23.7539 13.0912 23.7539 13.5332C23.7539 13.9752 24.1125 14.334 24.5562 14.334Z" fill="#00B857"/>
<path d="M16.5328 14.334C16.9757 14.334 17.3352 13.9752 17.3352 13.5332C17.3352 13.0912 16.9757 12.7325 16.5328 12.7325C16.089 12.7325 15.7305 13.0912 15.7305 13.5332C15.7305 13.9752 16.089 14.334 16.5328 14.334Z" fill="#00B857"/>
<path d="M18.3999 19.8381C19.0734 20.155 19.7952 20.3158 20.5446 20.3158C21.2777 20.3158 21.9854 20.1616 22.6483 19.8575C23.051 19.6727 23.2271 19.1972 23.0422 18.7952C22.857 18.3936 22.3806 18.2175 21.9779 18.4024C21.5269 18.6091 21.0445 18.7142 20.5446 18.7142C20.0334 18.7142 19.542 18.6051 19.0841 18.3895C18.6832 18.2009 18.2049 18.3723 18.0163 18.7724C17.8273 19.1725 17.999 19.6495 18.3999 19.8381Z" fill="#00B857"/>
<path d="M38.2384 32.4132C38.2384 28.0099 33.2137 24.5565 28.9067 24.3929L26.7094 22.4225C29.3856 20.4738 31.0101 17.342 31.0101 14.0137V8.72853C31.0101 3.8716 27.0381 -0.0800781 22.156 -0.0800781H18.9466C14.0711 -0.0800781 10.149 3.85752 10.149 8.72853V14.0137C10.149 17.3363 11.7518 20.4622 14.3933 22.4075L12.1793 24.3929C7.88176 24.5562 2.84766 28.0008 2.84766 32.4132V40.1192C2.84766 40.5615 3.20683 40.92 3.65 40.92H37.4361C37.8792 40.92 38.2384 40.5615 38.2384 40.1192V32.4132ZM18.7658 35.6348H22.3159L23.1571 39.3184H17.9001L18.7658 35.6348ZM22.3848 34.0333H18.715L18.0995 32.1192L20.5435 30.8996L23.0399 32.1458L22.3848 34.0333ZM20.5432 28.4935L17.755 24.0419C18.6605 24.2931 19.6014 24.4236 20.5513 24.4236C21.4922 24.4236 22.4262 24.2956 23.327 24.0485L20.5432 28.4935ZM21.6916 29.6821L25.5438 23.5302L27.6214 25.3933L24.9777 31.3225L21.6916 29.6821ZM18.9466 1.52149H22.156C26.1534 1.52149 29.4054 4.75434 29.4054 8.72853V9.39043L27.8988 7.22519C27.7624 7.02906 27.5453 6.90394 27.3067 6.88392C27.0679 6.8639 26.8335 6.95117 26.6661 7.12196C25.0351 8.78672 23.1468 9.52932 20.5435 9.52932C17.9406 9.52932 16.0519 8.78672 14.4196 7.12196C14.2517 6.95023 14.015 6.86327 13.7759 6.88423C13.5364 6.90519 13.3189 7.03219 13.1835 7.23051L11.7537 9.32161V8.72853C11.7537 4.75434 14.9804 1.52149 18.9466 1.52149ZM11.7537 14.0137V12.1628L13.9821 8.9037C15.7673 10.4192 17.877 11.1309 20.5435 11.1309C23.2129 11.1309 25.3241 10.4177 27.1096 8.89901L29.4054 12.1985V14.0137C29.4054 18.8093 25.478 22.8223 20.5513 22.8223C15.6407 22.8223 11.7537 18.8218 11.7537 14.0137ZM15.5423 23.5305L19.3951 29.6821L16.1083 31.3225L13.4647 25.3933L15.5423 23.5305ZM4.45235 32.4132C4.45235 29.1144 8.47036 26.266 11.9816 26.007L14.9835 32.7389C15.0725 32.9385 15.2395 33.0933 15.4458 33.1671C15.652 33.2409 15.8792 33.2272 16.0754 33.1296L16.6471 32.844L17.2981 34.8672L16.2519 39.3184H4.45235V32.4132ZM36.6337 39.3184H24.8029L23.7893 34.8794L24.4872 32.8681L25.0106 33.1296C25.2081 33.2281 25.436 33.2403 25.6403 33.1671C25.8465 33.0933 26.0136 32.9385 26.1026 32.7389L29.1045 26.007C32.6157 26.2663 36.6337 29.1144 36.6337 32.4132V39.3184Z" fill="#00B857"/>
<path d="M30.9746 35.6348H27.7652C27.3221 35.6348 26.9629 35.9933 26.9629 36.4356C26.9629 36.8779 27.3221 37.2364 27.7652 37.2364H30.9746C31.4178 37.2364 31.777 36.8779 31.777 36.4356C31.777 35.9933 31.4178 35.6348 30.9746 35.6348Z" fill="#00B857"/>
<path d="M34.1402 35.6348C34.5831 35.6348 34.9426 35.9936 34.9426 36.4356C34.9426 36.8776 34.5831 37.2364 34.1402 37.2364C33.6974 37.2364 33.3379 36.8776 33.3379 36.4356C33.3379 35.9936 33.6974 35.6348 34.1402 35.6348Z" fill="#00B857"/>
</g>
<defs>
<clipPath id="clip0">
<rect width="41" height="41" fill="white"/>
</clipPath>
</defs>
</svg>
