<svg width="22" height="22" viewBox="0 0 22 22" fill="none" xmlns="http://www.w3.org/2000/svg">
<path d="M0.9977 9.6139H2.84319C2.95235 10.0075 3.10958 10.3862 3.31178 10.741L2.00556 12.0467C1.94319 12.1091 1.9081 12.1937 1.9081 12.2821C1.9081 12.3704 1.94319 12.455 2.00556 12.5174L3.41677 13.929C3.54672 14.0587 3.75723 14.0587 3.88718 13.929L5.19352 12.6225C5.5484 12.8246 5.92667 12.982 6.32028 13.091V14.9365C6.32028 15.1202 6.4692 15.2691 6.65294 15.2691H8.64891C8.83265 15.2691 8.98157 15.1202 8.98157 14.9365V13.091C9.37518 12.982 9.75345 12.8246 10.1083 12.6225L11.4147 13.929C11.5467 14.0538 11.7532 14.0538 11.8851 13.929L13.2966 12.5174C13.3589 12.455 13.394 12.3704 13.394 12.2821C13.394 12.1937 13.3589 12.1091 13.2966 12.0467L11.9901 10.741C12.1923 10.3862 12.3495 10.0075 12.4587 9.6139H14.3042C14.4879 9.6139 14.6368 9.46498 14.6368 9.28124V7.28527C14.6368 7.10165 14.4879 6.95261 14.3042 6.95261H12.4587C12.3495 6.55913 12.1923 6.18047 11.9901 5.82559L13.2963 4.51989C13.3587 4.45752 13.3938 4.37292 13.3938 4.28456C13.3938 4.1962 13.3587 4.1116 13.2963 4.04923L11.8851 2.63762C11.7551 2.50781 11.5446 2.50781 11.4147 2.63762L10.1083 3.9441C9.75345 3.74216 9.37505 3.5848 8.98157 3.47565V1.63002C8.98157 1.44641 8.83265 1.29736 8.64891 1.29736H6.65294C6.4692 1.29736 6.32028 1.44641 6.32028 1.63002V3.47565C5.9268 3.5848 5.5484 3.74216 5.19352 3.9441L3.88718 2.63762C3.75515 2.51288 3.54867 2.51288 3.41677 2.63762L2.0053 4.04923C1.94293 4.1116 1.90784 4.1962 1.90784 4.28456C1.90784 4.37292 1.94293 4.45752 2.0053 4.51989L3.31178 5.82559C3.10958 6.18047 2.95235 6.55913 2.84319 6.95261H0.9977C0.813957 6.95261 0.665039 7.10165 0.665039 7.28527V9.28124C0.665039 9.46498 0.813957 9.6139 0.9977 9.6139ZM1.33036 7.61793H3.10347C3.2598 7.61793 3.39507 7.50916 3.42847 7.35648C3.53762 6.85827 3.73501 6.38344 4.01127 5.95462C4.09561 5.82312 4.0769 5.65042 3.96631 5.53983L2.71091 4.28443L3.65197 3.34323L4.90712 4.59864C5.0177 4.70948 5.19053 4.72819 5.3223 4.64373C5.75125 4.36759 6.22594 4.17021 6.72415 4.06092C6.87671 4.0274 6.9856 3.89212 6.9856 3.7358V1.96269H8.31625V3.7358C8.31625 3.89212 8.42514 4.0274 8.5777 4.06092C9.07591 4.17021 9.5506 4.36759 9.97956 4.64373C10.1113 4.72819 10.2841 4.70948 10.3947 4.59864L11.6499 3.34323L12.5907 4.28443L11.3355 5.53945C11.2247 5.65016 11.2061 5.82299 11.2906 5.95462C11.5668 6.3837 11.764 6.8584 11.873 7.35674C11.9065 7.50942 12.0418 7.61832 12.198 7.61832H13.9715V8.94896H12.198C12.0418 8.94896 11.9065 9.05773 11.873 9.21041C11.764 9.70863 11.5667 10.1833 11.2906 10.6119C11.2062 10.7435 11.225 10.9162 11.3355 11.0268L12.5909 12.2819L11.6499 13.2234L10.3947 11.9679C10.2841 11.8572 10.1113 11.8384 9.97956 11.9229C9.55086 12.1992 9.0763 12.3966 8.57809 12.5057C8.42527 12.539 8.31625 12.6744 8.31625 12.8307V14.6038H6.9856V12.8307C6.9856 12.6744 6.87658 12.539 6.72376 12.5057C6.22555 12.3966 5.75099 12.1992 5.3223 11.9229C5.19053 11.8384 5.0177 11.8572 4.90712 11.9679L3.65197 13.2234L2.71117 12.2822L3.96631 11.0271C4.07716 10.9165 4.09574 10.7436 4.01127 10.6119C3.73501 10.1829 3.53762 9.70811 3.42847 9.20977C3.39494 9.05708 3.2598 8.94857 3.10347 8.94857H1.33036V7.61793Z" fill="white"/>
<path d="M7.65152 10.9445C9.12134 10.9445 10.3128 9.75319 10.3128 8.28324C10.3128 6.81342 9.12134 5.62195 7.65152 5.62195C6.18171 5.62195 4.99023 6.81342 4.99023 8.28324C4.99179 9.75228 6.18249 10.943 7.65152 10.9445ZM7.65152 6.28727C8.75372 6.28727 9.64749 7.18104 9.64749 8.28324C9.64749 9.38557 8.75372 10.2792 7.65152 10.2792C6.54932 10.2792 5.65556 9.38557 5.65556 8.28324C5.65673 7.1813 6.54958 6.28844 7.65152 6.28727Z" fill="white"/>
<path d="M7.65146 11.9425C9.67237 11.9425 11.3107 10.3042 11.3107 8.28318C11.3107 6.26226 9.67237 4.6239 7.65146 4.6239C5.63054 4.6239 3.99219 6.26226 3.99219 8.28318C3.99466 10.3032 5.63145 11.9401 7.65146 11.9425ZM7.65146 5.28922C9.30502 5.28922 10.6454 6.62962 10.6454 8.28318C10.6454 9.93674 9.30502 11.2771 7.65146 11.2771C5.9979 11.2771 4.65751 9.93674 4.65751 8.28318C4.65933 6.63053 5.99868 5.29104 7.65146 5.28922Z" fill="white"/>
<path d="M19.6267 16.5997V13.9384C19.6267 13.7548 19.4778 13.6058 19.2941 13.6058H18.6287V10.9445C18.6287 10.7609 18.4798 10.6118 18.2961 10.6118H15.3021C15.1184 10.6118 14.9695 10.7609 14.9695 10.9445V13.6058H13.3062C13.1224 13.6058 12.9735 13.7548 12.9735 13.9384V16.5997H2.32835C1.41015 16.6009 0.666209 17.3448 0.665039 18.263V18.9283C0.666209 19.8467 1.41015 20.5906 2.32835 20.5917H19.6267C20.5449 20.5906 21.2889 19.8467 21.29 18.9283V18.263C21.2889 17.3448 20.5449 16.6009 19.6267 16.5997ZM18.9614 16.5997H16.6328V14.2711H18.9614V16.5997ZM15.6348 11.2771H17.9634V13.6058H15.6348V11.2771ZM13.6388 14.2711H15.9675V16.5997H13.6388V14.2711ZM20.6247 18.9283C20.6247 19.4796 20.1778 19.9263 19.6267 19.9263H2.32835C1.77725 19.9263 1.33036 19.4796 1.33036 18.9283V18.263C1.33036 17.7119 1.77725 17.265 2.32835 17.265H19.6267C20.1778 17.265 20.6247 17.7119 20.6247 18.263V18.9283Z" fill="white"/>
<path d="M10.9775 17.5977C10.4264 17.5977 9.97949 18.0445 9.97949 18.5956C9.97949 19.1469 10.4264 19.5936 10.9775 19.5936C11.5286 19.5936 11.9755 19.1469 11.9755 18.5956C11.9755 18.0445 11.5286 17.5977 10.9775 17.5977ZM10.9775 18.9283C10.7937 18.9283 10.6448 18.7794 10.6448 18.5956C10.6448 18.412 10.7937 18.263 10.9775 18.263C11.1612 18.263 11.3101 18.412 11.3101 18.5956C11.3101 18.7794 11.1612 18.9283 10.9775 18.9283Z" fill="white"/>
<path d="M7.6513 17.5977C7.1002 17.5977 6.65332 18.0445 6.65332 18.5956C6.65332 19.1469 7.1002 19.5936 7.6513 19.5936C8.2024 19.5936 8.64929 19.1469 8.64929 18.5956C8.64929 18.0445 8.2024 17.5977 7.6513 17.5977ZM7.6513 18.9283C7.46756 18.9283 7.31864 18.7794 7.31864 18.5956C7.31864 18.412 7.46756 18.263 7.6513 18.263C7.83505 18.263 7.98396 18.412 7.98396 18.5956C7.98396 18.7794 7.83505 18.9283 7.6513 18.9283Z" fill="white"/>
<path d="M14.3046 17.5977C13.7535 17.5977 13.3066 18.0445 13.3066 18.5956C13.3066 19.1469 13.7535 19.5936 14.3046 19.5936C14.8557 19.5936 15.3026 19.1469 15.3026 18.5956C15.3026 18.0445 14.8557 17.5977 14.3046 17.5977ZM14.3046 18.9283C14.1209 18.9283 13.972 18.7794 13.972 18.5956C13.972 18.412 14.1209 18.263 14.3046 18.263C14.4884 18.263 14.6373 18.412 14.6373 18.5956C14.6373 18.7794 14.4884 18.9283 14.3046 18.9283Z" fill="white"/>
<path d="M4.32513 17.5977C3.77403 17.5977 3.32715 18.0445 3.32715 18.5956C3.32715 19.1469 3.77403 19.5936 4.32513 19.5936C4.87623 19.5936 5.32312 19.1469 5.32312 18.5956C5.32312 18.0445 4.87623 17.5977 4.32513 17.5977ZM4.32513 18.9283C4.14139 18.9283 3.99247 18.7794 3.99247 18.5956C3.99247 18.412 4.14139 18.263 4.32513 18.263C4.50888 18.263 4.65779 18.412 4.65779 18.5956C4.65779 18.7794 4.50888 18.9283 4.32513 18.9283Z" fill="white"/>
<path d="M17.6308 17.5977C17.0797 17.5977 16.6328 18.0445 16.6328 18.5956C16.6328 19.1469 17.0797 19.5936 17.6308 19.5936C18.1819 19.5936 18.6288 19.1469 18.6288 18.5956C18.6288 18.0445 18.1819 17.5977 17.6308 17.5977ZM17.6308 18.9283C17.4471 18.9283 17.2981 18.7794 17.2981 18.5956C17.2981 18.412 17.4471 18.263 17.6308 18.263C17.8145 18.263 17.9635 18.412 17.9635 18.5956C17.9635 18.7794 17.8145 18.9283 17.6308 18.9283Z" fill="white"/>
</svg>
