<svg width="41" height="41" viewBox="0 0 41 41" fill="none" xmlns="http://www.w3.org/2000/svg">
<path d="M39.9438 14.0254C38.5389 12.6204 36.2527 12.6204 34.8477 14.0254L24.9668 23.9063C24.9606 23.9125 24.9531 23.9171 24.9466 23.9229C25.4272 23.1348 25.7044 22.2096 25.7044 21.2209C25.7044 18.3508 23.3694 16.0158 20.4993 16.0158C17.6293 16.0158 15.2943 18.3508 15.2943 21.2209C15.2943 22.2097 15.5716 23.1349 16.0523 23.9231C16.0456 23.9172 16.0383 23.9127 16.0319 23.9064L6.15086 14.0254C4.74589 12.6204 2.45974 12.6204 1.05476 14.0254C-0.350286 15.4305 -0.350286 17.7165 1.05476 19.1216L12.0911 30.1579V38.1975C12.0911 39.7429 13.3484 41.0002 14.8939 41.0002H26.1048C27.6502 41.0002 28.9075 39.7429 28.9075 38.1975V30.1579L39.9438 19.1216C41.3489 17.7165 41.3489 15.4304 39.9438 14.0254ZM38.2451 17.4228L26.8571 28.811C26.6318 29.0362 26.5052 29.3417 26.5052 29.6603V38.1975C26.5052 38.4183 26.3256 38.5979 26.1048 38.5979H14.8939C14.6731 38.5979 14.4935 38.4183 14.4935 38.1975V29.6603C14.4935 29.3417 14.367 29.0362 14.1416 28.811L2.75354 17.4228C2.28517 16.9544 2.28517 16.1924 2.75354 15.724C2.98769 15.4899 3.29535 15.3728 3.60285 15.3728C3.91035 15.3728 4.21809 15.4899 4.45216 15.724L14.3333 25.6053C14.8627 26.1345 15.5665 26.426 16.315 26.426H24.6837C25.4321 26.426 26.136 26.1345 26.6654 25.6051L36.5465 15.724C37.0148 15.2557 37.7769 15.2557 38.2452 15.724C38.7135 16.1924 38.7135 16.9545 38.2451 17.4228ZM17.6966 21.2209C17.6966 19.6755 18.9539 18.4182 20.4993 18.4182C22.0448 18.4182 23.3021 19.6755 23.3021 21.2209C23.3021 22.7663 22.0448 24.0236 20.4993 24.0236C18.9539 24.0236 17.6966 22.7663 17.6966 21.2209Z" fill="#00B857"/>
<path d="M16.2671 8.86161L15.6698 12.3443C15.5925 12.7949 15.7778 13.2503 16.1477 13.5191C16.5175 13.7877 17.0079 13.8233 17.4127 13.6106L20.5403 11.9662L23.6679 13.6106C23.8437 13.7029 24.0356 13.7485 24.2268 13.7485C24.4758 13.7485 24.7236 13.6712 24.9329 13.5192C25.3028 13.2504 25.4881 12.795 25.4108 12.3444L24.8135 8.86169L27.3438 6.3952C27.6712 6.07609 27.7891 5.59874 27.6478 5.16392C27.5065 4.72901 27.1306 4.41206 26.6782 4.3464L23.1813 3.83822L21.6173 0.669533C21.415 0.259533 20.9975 0 20.5402 0C20.083 0 19.6654 0.259533 19.4631 0.669533L17.8993 3.83814L14.4025 4.34632C13.95 4.41198 13.574 4.72893 13.4329 5.16384C13.2915 5.59866 13.4094 6.07601 13.7368 6.39512L16.2671 8.86161ZM19.7741 5.46765L20.5402 3.91526L21.3063 5.46765C21.4814 5.82216 21.8195 6.06784 22.2107 6.1247L23.924 6.37366L22.6844 7.58204C22.4012 7.85799 22.2721 8.25557 22.3389 8.64515L22.6315 10.3515L21.0992 9.54587C20.9242 9.45394 20.7322 9.4079 20.5403 9.4079C20.3483 9.4079 20.1563 9.45386 19.9813 9.54587L18.449 10.3515L18.7416 8.64515C18.8085 8.25557 18.6793 7.85799 18.3962 7.58204L17.1566 6.37366L18.8699 6.1247C19.2609 6.06784 19.599 5.82216 19.7741 5.46765Z" fill="#00B857"/>
</svg>
