<svg width="40" height="40" viewBox="0 0 40 40" fill="none" xmlns="http://www.w3.org/2000/svg">
<g clip-path="url(#clip0)">
<path d="M6.64602 35.5415C6.50078 35.3961 6.29922 35.3126 6.09375 35.3126C5.88828 35.3126 5.68672 35.3961 5.54141 35.5415C5.39609 35.6869 5.3125 35.8884 5.3125 36.0939C5.3125 36.2993 5.39602 36.5009 5.54141 36.6461C5.68672 36.7915 5.88828 36.8751 6.09375 36.8751C6.29922 36.8751 6.50078 36.7915 6.64602 36.6461C6.79133 36.5009 6.875 36.2993 6.875 36.0939C6.875 35.8884 6.79141 35.6868 6.64602 35.5415Z" fill="#00B857"/>
<path d="M36.6822 14.292C36.5369 14.1466 36.3361 14.0631 36.1299 14.0631C35.9244 14.0631 35.7229 14.1466 35.5775 14.292C35.4323 14.4373 35.3486 14.6389 35.3486 14.8444C35.3486 15.0498 35.4322 15.2514 35.5775 15.3966C35.7229 15.5419 35.9244 15.6256 36.1299 15.6256C36.3361 15.6256 36.5369 15.542 36.6822 15.3966C36.8282 15.2514 36.9118 15.0498 36.9118 14.8444C36.9118 14.6389 36.8282 14.4373 36.6822 14.292Z" fill="#00B857"/>
<path d="M39.7721 0.228828C39.6255 0.0823437 39.4268 0 39.2195 0L20.0012 0.00101562C19.5698 0.00101562 19.2201 0.350859 19.2201 0.782266V3.01641L11.8147 5.0007C11.3979 5.11242 11.1505 5.54078 11.2623 5.9575L15.1003 20.2811L11.7801 23.6013C11.3575 22.9843 10.648 22.5785 9.84539 22.5785H2.34562C1.05328 22.5785 0.00195312 23.6299 0.00195312 24.9222V37.6562C0.00195312 38.9486 1.05328 40 2.34562 40H9.84547C10.9434 40 11.867 39.2409 12.1201 38.2203L13.049 39.0304C13.7661 39.6557 14.6848 40.0001 15.6363 40.0001H39.2197C39.6511 40.0001 40.0009 39.6502 40.0009 39.2188V0.78125C40.0008 0.574063 39.9186 0.375313 39.7721 0.228828ZM10.6266 37.6563C10.6266 38.087 10.2761 38.4376 9.84531 38.4376H2.34555C1.91477 38.4376 1.5643 38.0871 1.5643 37.6563V24.9223C1.5643 24.4915 1.91477 24.141 2.34555 24.141H5.31422V33.1406C5.31422 33.572 5.66406 33.9219 6.09547 33.9219C6.52687 33.9219 6.87672 33.572 6.87672 33.1406V24.141H9.84539C10.2762 24.141 10.6266 24.4915 10.6266 24.9223V37.6563H10.6266ZM12.9737 6.30773L19.2201 4.63398V7.52891L18.6965 7.66922C18.4962 7.72289 18.3257 7.85375 18.2221 8.0332C18.1185 8.21266 18.0904 8.42586 18.1441 8.62602C18.4443 9.74641 17.777 10.9021 16.6566 11.2023C16.4562 11.2561 16.2854 11.3872 16.1819 11.567C16.0784 11.7468 16.0505 11.9604 16.1046 12.1607L19.1498 23.4371H17.5819L16.7738 20.2759C16.7481 20.1752 16.7031 20.0825 16.6429 20.0019L12.9737 6.30773ZM19.2201 11.1116V17.7039L17.7952 12.4277C18.3904 12.1204 18.8775 11.6605 19.2201 11.1116ZM30.4438 38.4375H15.6362C15.0623 38.4375 14.5082 38.2298 14.0757 37.8527L12.1891 36.2073V25.4021L15.5998 21.9913L16.2184 24.4116C16.3069 24.7575 16.6184 24.9994 16.9753 24.9994L32.335 25.0003C32.9381 25.0003 33.4287 25.4909 33.4287 26.0941C33.4287 26.6972 32.9381 27.1878 32.335 27.1878H24.4647C24.0333 27.1878 23.6834 27.5377 23.6834 27.9691C23.6834 28.4005 24.0333 28.7503 24.4647 28.7503H34.7803C35.3834 28.7503 35.8741 29.2409 35.8741 29.8441C35.8741 30.4472 35.3834 30.9378 34.7803 30.9378H24.4647C24.0333 30.9378 23.6834 31.2877 23.6834 31.7191C23.6834 32.1505 24.0333 32.5003 24.4647 32.5003H33.1087C33.7118 32.5003 34.2024 32.9909 34.2024 33.5941C34.2024 34.1972 33.7118 34.6878 33.1087 34.6878H24.4647C24.0333 34.6878 23.6834 35.0377 23.6834 35.4691C23.6834 35.9005 24.0333 36.2503 24.4647 36.2503H30.4438C31.047 36.2503 31.5376 36.7409 31.5376 37.3441C31.5375 37.9469 31.0469 38.4375 30.4438 38.4375ZM38.4384 38.4375H38.4384H32.8634C33.0149 38.1037 33.1 37.7336 33.1 37.3438C33.1 36.9539 33.0149 36.5838 32.8634 36.25H33.1087C34.5733 36.25 35.7648 35.0584 35.7648 33.5938C35.7648 33.1666 35.6629 32.763 35.4829 32.405C36.6076 32.0961 37.4364 31.0652 37.4364 29.8439C37.4364 29.2514 37.2412 28.7037 36.9121 28.2615V18.3599C36.9121 17.9285 36.5623 17.5787 36.1309 17.5787C35.6995 17.5787 35.3496 17.9285 35.3496 18.3599V27.2499C35.166 27.2097 34.9756 27.1878 34.7802 27.1878H34.7545C34.906 26.854 34.9911 26.4839 34.9911 26.0941C34.9911 24.6294 33.7995 23.4379 32.3349 23.4379H31.0791C32.4126 22.866 33.3491 21.5405 33.3491 20C33.3491 17.9384 31.6719 16.2611 29.6103 16.2611C27.5487 16.2611 25.8715 17.9384 25.8715 20C25.8715 21.5405 26.8081 22.866 28.1416 23.4379H23.871V8.58305C25.2666 8.27891 26.3679 7.17773 26.672 5.78203H32.5486C32.8527 7.17773 33.9539 8.27891 35.3495 8.58305V11.012C35.3495 11.4434 35.6994 11.7932 36.1308 11.7932C36.5622 11.7932 36.912 11.4434 36.912 11.012V7.88555C36.912 7.45414 36.5622 7.1043 36.1308 7.1043C34.9709 7.1043 34.0273 6.16062 34.0273 5.00078C34.0273 4.56938 33.6775 4.21953 33.2461 4.21953H25.9745C25.5431 4.21953 25.1933 4.56938 25.1933 5.00078C25.1933 6.1607 24.2497 7.1043 23.0898 7.1043C22.6584 7.1043 22.3086 7.45414 22.3086 7.88555V23.4378H20.7827V1.56336L38.4384 1.5625V38.4375ZM29.6105 22.1764C28.4104 22.1764 27.4341 21.2001 27.4341 20.0001C27.4341 18.8001 28.4105 17.8237 29.6105 17.8237C30.8105 17.8237 31.7868 18.8 31.7868 20C31.7868 21.2 30.8105 22.1764 29.6105 22.1764Z" fill="#00B857"/>
</g>
<defs>
<clipPath id="clip0">
<rect width="40" height="40" fill="white"/>
</clipPath>
</defs>
</svg>
