<svg width="41" height="41" viewBox="0 0 41 41" fill="none" xmlns="http://www.w3.org/2000/svg">
<g clip-path="url(#clip0)">
<path d="M15.4883 15.6577C17.0298 16.4503 18.7659 16.8692 20.5092 16.8692C22.2524 16.8692 23.9885 16.4503 25.5297 15.6577C25.9295 15.4522 26.181 15.0405 26.1816 14.5913L26.1853 11.9697C26.1863 11.2293 25.8947 10.5292 25.3642 9.99808C24.8328 9.46569 24.0996 9.16071 23.3529 9.16071C21.4485 9.16071 19.5445 9.1582 17.6404 9.1582C16.8906 9.1582 16.1853 9.4513 15.6541 9.98307C15.1236 10.5142 14.8321 11.219 14.833 11.9675L14.8368 14.5913C14.8374 15.0405 15.0889 15.4522 15.4883 15.6577ZM17.357 11.6838C17.4315 11.609 17.5328 11.5605 17.6404 11.5605C19.5445 11.5605 21.4485 11.5627 23.3529 11.5627C23.5675 11.5627 23.7833 11.7442 23.783 11.9663L23.7805 13.8228C22.7464 14.2504 21.6493 14.4668 20.5092 14.4668C19.3693 14.4668 18.272 14.2504 17.2379 13.8228C17.2379 13.8228 17.2354 11.9694 17.2354 11.9638C17.235 11.8596 17.2826 11.7586 17.357 11.6838Z" fill="#01B154"/>
<path d="M20.5082 8.29184C22.7942 8.29184 24.6541 6.4319 24.6541 4.14592C24.6541 1.85994 22.7942 0 20.5082 0C18.2222 0 16.3623 1.85994 16.3623 4.14592C16.3623 6.4319 18.2222 8.29184 20.5082 8.29184ZM20.5082 2.40234C21.4698 2.40234 22.2518 3.18436 22.2518 4.14592C22.2518 5.10717 21.4695 5.8895 20.5082 5.8895C19.547 5.8895 18.7646 5.10717 18.7646 4.14592C18.7646 3.18436 19.547 2.40234 20.5082 2.40234Z" fill="#01B154"/>
<path d="M8.51988 33.2913C6.61552 33.2913 4.71148 33.2891 2.80743 33.2891C2.05764 33.2891 1.35226 33.5818 0.821118 34.1139C0.2906 34.6451 -0.00124721 35.3498 4.00657e-06 36.0981L0.00375767 38.7219C0.00438328 39.1714 0.255879 39.583 0.655644 39.7885C2.19683 40.5812 3.9329 41 5.67617 41C7.41943 41 9.15581 40.5812 10.697 39.7882C11.0965 39.5827 11.3483 39.1714 11.3489 38.7219L11.3523 36.1006C11.3533 35.3601 11.0617 34.6598 10.5315 34.1286C10.0001 33.5966 9.26686 33.2913 8.51988 33.2913ZM8.94999 36.0971L8.94748 37.9533C7.91366 38.3812 6.81634 38.5977 5.67617 38.5977C4.5363 38.5977 3.43898 38.3812 2.40485 37.9536C2.40485 37.9536 2.40235 36.0949 2.40235 36.0946C2.40203 35.8807 2.58596 35.6914 2.80743 35.6914C4.71148 35.6914 6.61552 35.6936 8.51988 35.6936C8.73446 35.6936 8.9503 35.8744 8.94999 36.0971Z" fill="#01B154"/>
<path d="M5.6749 32.4224C7.9612 32.4224 9.82082 30.5628 9.82082 28.2765C9.82082 25.9905 7.9612 24.1309 5.6749 24.1309C3.38892 24.1309 1.5293 25.9905 1.5293 28.2765C1.5293 30.5628 3.38892 32.4224 5.6749 32.4224ZM5.6749 26.5332C6.63647 26.5332 7.41848 27.3152 7.41848 28.2765C7.41848 29.238 6.63647 30.02 5.6749 30.02C4.71365 30.02 3.93164 29.238 3.93164 28.2765C3.93164 27.3152 4.71365 26.5332 5.6749 26.5332Z" fill="#01B154"/>
<path d="M40.1787 34.1286C39.6472 33.5966 38.9143 33.2913 38.1673 33.2913C36.263 33.2913 34.3589 33.2891 32.4549 33.2891C31.7051 33.2891 30.9997 33.5818 30.4686 34.1139C29.9381 34.6451 29.6465 35.3495 29.6475 36.0981L29.6512 38.7219C29.6518 39.1714 29.9033 39.5827 30.3031 39.7882C31.8443 40.5809 33.5804 41 35.3236 41C37.0672 41 38.8033 40.5809 40.3445 39.7882C40.7439 39.5827 40.9954 39.1711 40.996 38.7219L40.9998 36.1006C41.0007 35.3601 40.7092 34.6598 40.1787 34.1286ZM38.5975 36.0971L38.595 37.9533C37.5611 38.3812 36.4638 38.5977 35.3236 38.5977C34.1838 38.5977 33.0864 38.3812 32.0523 37.9533L32.0498 36.0946C32.0495 35.8756 32.2369 35.6911 32.4549 35.6911C33.5541 35.6911 37.3625 35.6936 38.1673 35.6936C38.3826 35.6936 38.5978 35.8738 38.5975 36.0971Z" fill="#01B154"/>
<path d="M35.3227 32.4224C37.6087 32.4224 39.4686 30.5628 39.4686 28.2765C39.4686 25.9905 37.6087 24.1309 35.3227 24.1309C33.0367 24.1309 31.1768 25.9905 31.1768 28.2765C31.1768 30.5628 33.0367 32.4224 35.3227 32.4224ZM35.3227 26.5332C36.2842 26.5332 37.0663 27.3152 37.0663 28.2765C37.0663 29.238 36.2839 30.02 35.3227 30.02C34.3614 30.02 33.5791 29.238 33.5791 28.2765C33.5791 27.3152 34.3614 26.5332 35.3227 26.5332Z" fill="#01B154"/>
<path d="M26.1006 28.0993L21.7107 25.5649V20.5C21.7107 19.8365 21.173 19.2988 20.5096 19.2988C19.8461 19.2988 19.3084 19.8365 19.3084 20.5V25.5665L14.9163 28.1024C14.3417 28.434 14.1449 29.1688 14.4765 29.7431C14.6989 30.1285 15.1027 30.344 15.5178 30.344C15.7218 30.344 15.9282 30.2921 16.1175 30.1829L20.5111 27.646L24.8995 30.1801C25.0887 30.2892 25.2952 30.3412 25.4991 30.3412C25.9142 30.3412 26.3177 30.1256 26.5405 29.7403C26.872 29.1656 26.6753 28.4312 26.1006 28.0993Z" fill="#01B154"/>
</g>
<defs>
<clipPath id="clip0">
<rect width="41" height="41" fill="white"/>
</clipPath>
</defs>
</svg>
