<svg width="22" height="22" viewBox="0 0 22 22" fill="none" xmlns="http://www.w3.org/2000/svg">
<path d="M9.625 3.4375H6.53125C6.44008 3.4375 6.35265 3.47372 6.28818 3.53818C6.22372 3.60265 6.1875 3.69008 6.1875 3.78125C6.1875 3.87242 6.22372 3.95985 6.28818 4.02432C6.35265 4.08878 6.44008 4.125 6.53125 4.125H9.625C9.71617 4.125 9.8036 4.08878 9.86807 4.02432C9.93253 3.95985 9.96875 3.87242 9.96875 3.78125C9.96875 3.69008 9.93253 3.60265 9.86807 3.53818C9.8036 3.47372 9.71617 3.4375 9.625 3.4375Z" fill="white"/>
<path d="M11 3.4375H10.6562C10.5651 3.4375 10.4776 3.47372 10.4132 3.53818C10.3487 3.60265 10.3125 3.69008 10.3125 3.78125C10.3125 3.87242 10.3487 3.95985 10.4132 4.02432C10.4776 4.08878 10.5651 4.125 10.6562 4.125H11C11.0912 4.125 11.1786 4.08878 11.2431 4.02432C11.3075 3.95985 11.3438 3.87242 11.3438 3.78125C11.3438 3.69008 11.3075 3.60265 11.2431 3.53818C11.1786 3.47372 11.0912 3.4375 11 3.4375Z" fill="white"/>
<path d="M18.5625 3.53761C18.5625 2.48703 16.9409 0.649685 16.7557 0.443435C16.7234 0.407568 16.684 0.378885 16.64 0.35925C16.5959 0.339615 16.5482 0.329468 16.5 0.329468C16.4518 0.329468 16.4041 0.339615 16.36 0.35925C16.316 0.378885 16.2766 0.407568 16.2443 0.443435C16.167 0.529373 15.8413 0.898474 15.4868 1.375H12.375V0.687498C12.375 0.59633 12.3388 0.508896 12.2743 0.44443C12.2099 0.379964 12.1224 0.343748 12.0312 0.343748H9.96875C9.87758 0.343748 9.79015 0.379964 9.72568 0.44443C9.66122 0.508896 9.625 0.59633 9.625 0.687498V1.375H4.8125C4.72133 1.375 4.6339 1.41121 4.56943 1.47568C4.50497 1.54015 4.46875 1.62758 4.46875 1.71875V2.75C4.46875 2.84117 4.50497 2.9286 4.56943 2.99307C4.6339 3.05753 4.72133 3.09375 4.8125 3.09375H5.15625V7.5625H4.8125C4.72133 7.5625 4.6339 7.59871 4.56943 7.66318C4.50497 7.72764 4.46875 7.81508 4.46875 7.90625V8.9375C4.46875 9.02867 4.50497 9.1161 4.56943 9.18056C4.6339 9.24503 4.72133 9.28125 4.8125 9.28125H5.15625V13.75H4.8125C4.72133 13.75 4.6339 13.7862 4.56943 13.8507C4.50497 13.9151 4.46875 14.0026 4.46875 14.0937V15.125C4.46875 15.2162 4.50497 15.3036 4.56943 15.3681C4.6339 15.4325 4.72133 15.4687 4.8125 15.4687H5.15625V19.9375H4.8125C4.72133 19.9375 4.6339 19.9737 4.56943 20.0382C4.50497 20.1026 4.46875 20.1901 4.46875 20.2812V21.3125C4.46875 21.4037 4.50497 21.4911 4.56943 21.5556C4.6339 21.62 4.72133 21.6562 4.8125 21.6562H17.1875C17.2787 21.6562 17.3661 21.62 17.4306 21.5556C17.495 21.4911 17.5312 21.4037 17.5312 21.3125V20.2812C17.5312 20.1901 17.495 20.1026 17.4306 20.0382C17.3661 19.9737 17.2787 19.9375 17.1875 19.9375H16.8438V15.4687H17.1875C17.2787 15.4687 17.3661 15.4325 17.4306 15.3681C17.495 15.3036 17.5312 15.2162 17.5312 15.125V14.0937C17.5312 14.0026 17.495 13.9151 17.4306 13.8507C17.3661 13.7862 17.2787 13.75 17.1875 13.75H16.8438V9.28125H17.1875C17.2787 9.28125 17.3661 9.24503 17.4306 9.18056C17.495 9.1161 17.5312 9.02867 17.5312 8.9375V7.90625C17.5312 7.81508 17.495 7.72764 17.4306 7.66318C17.3661 7.59871 17.2787 7.5625 17.1875 7.5625H16.8438V5.5709C17.324 5.48912 17.7599 5.2402 18.0744 4.86813C18.389 4.49607 18.5618 4.0248 18.5625 3.53761ZM16.1562 5.5709V7.5625H5.84375V3.09375H14.5131C14.4666 3.23727 14.4411 3.38678 14.4375 3.53761C14.4382 4.0248 14.611 4.49607 14.9256 4.86813C15.2401 5.2402 15.676 5.48912 16.1562 5.5709ZM10.3125 1.03125H11.6875V1.375H10.3125V1.03125ZM5.15625 2.0625H15.0154C14.9445 2.17636 14.8766 2.29152 14.8139 2.40625H5.15625V2.0625ZM16.8438 20.9687H5.15625V20.625H16.8438V20.9687ZM5.84375 19.9375V15.4687H16.1562V19.9375H5.84375ZM16.8438 14.7812H5.15625V14.4375H16.8438V14.7812ZM5.84375 13.75V9.28125H16.1562V13.75H5.84375ZM16.8438 8.59375H5.15625V8.25H16.8438V8.59375ZM16.5017 4.91261H16.4983C16.134 4.91177 15.785 4.76658 15.5275 4.50885C15.2701 4.25112 15.1254 3.90187 15.125 3.53761C15.125 3.3782 15.1972 3.16465 15.3154 2.92445C15.3237 2.91004 15.3312 2.89512 15.3377 2.87976C15.5104 2.55256 15.7068 2.23848 15.9255 1.94004C15.9362 1.92744 15.946 1.91409 15.9547 1.90008C16.1343 1.65172 16.3234 1.41109 16.5 1.19926C17.1132 1.93359 17.875 3.01812 17.875 3.53761C17.8746 3.90187 17.7299 4.25112 17.4725 4.50885C17.215 4.76658 16.866 4.91177 16.5017 4.91261Z" fill="white"/>
</svg>
