<svg width="41" height="41" viewBox="0 0 41 41" fill="none" xmlns="http://www.w3.org/2000/svg">
<g clip-path="url(#clip0)">
<path d="M38.5093 21.4469C38.2065 21.4469 37.9028 21.5005 37.6168 21.6058C37.5482 20.0003 36.3317 19.1613 35.1294 19.1613C34.776 19.1613 34.4216 19.234 34.0953 19.3771C33.7315 18.2874 32.736 17.7221 31.7495 17.7221C31.4479 17.7221 31.1455 17.7753 30.8603 17.8798V16.1384V2.19454C30.8604 0.984481 29.8759 0 28.666 0H10.2549C9.0449 0 8.06042 0.984481 8.06042 2.19454V9.14764H0.800781C0.35859 9.14764 0 9.50623 0 9.94851V21.8472C0 22.2895 0.35859 22.6481 0.800781 22.6481H8.06034V33.5825C8.06034 34.7926 9.04482 35.7771 10.2548 35.7771H25.444C26.4299 36.9907 26.4305 38.0455 26.4305 39.3617C26.4305 40.2651 27.1655 41.0001 28.0689 41.0001H29.4785C29.9207 41.0001 30.2793 40.6415 30.2793 40.1992C30.2793 39.7569 29.9207 39.3984 29.4785 39.3984H28.069C28.0504 39.3984 28.0321 39.3801 28.0321 39.3616C28.0321 37.8348 28.0321 36.256 26.4546 34.4941C26.0808 34.0767 25.6156 33.7372 25.1659 33.4088C24.3152 32.7879 23.7988 32.3719 23.7988 31.8317L23.7966 29.3128V25.9902C23.8012 25.7625 23.8516 25.5947 23.9317 25.5406C24.0366 25.4699 24.3096 25.4628 24.6832 25.6067C25.4097 25.886 25.8792 26.5727 25.8792 27.356V29.9052C25.8792 30.3474 26.2378 30.706 26.68 30.706C27.1221 30.706 27.4807 30.3474 27.4807 29.9052V27.356V16.1385C27.4807 15.1985 28.2209 15.1509 28.3693 15.1509C28.604 15.1509 28.8276 15.2346 28.9829 15.3806C29.1661 15.5529 29.259 15.8079 29.259 16.1384V25.3905C29.259 25.8327 29.6176 26.1913 30.0598 26.1913C30.502 26.1913 30.8606 25.8327 30.8606 25.3905V20.3105C30.8606 19.3713 31.6012 19.3237 31.7498 19.3237C31.9844 19.3237 32.208 19.4074 32.3631 19.5532C32.5461 19.7253 32.6389 19.9801 32.6389 20.3105V26.2394C32.6389 26.6816 32.9975 27.0402 33.4397 27.0402C33.8819 27.0402 34.2404 26.6816 34.2404 26.2394V21.7495C34.2404 20.8104 34.9811 20.7628 35.1296 20.7628C35.3643 20.7628 35.5878 20.8464 35.743 20.9922C35.9259 21.1644 36.0187 21.4191 36.0187 21.7495V27.0859C36.0187 27.5282 36.3773 27.8868 36.8195 27.8868C37.2617 27.8868 37.6203 27.5282 37.6203 27.0859V24.0352C37.6203 23.0961 38.3609 23.0485 38.5095 23.0485C38.7441 23.0485 38.9677 23.1322 39.1228 23.278C39.3058 23.4501 39.3986 23.7048 39.3986 24.0352V32.1058C39.2701 33.2431 39.0041 33.7597 38.747 34.2595C38.438 34.8602 38.1183 35.4814 38.1183 36.7716V39.3615C38.1183 39.3791 38.0991 39.3983 38.0816 39.3983H36.6718C36.2296 39.3983 35.871 39.7569 35.871 40.1991C35.871 40.6414 36.2296 41 36.6718 41H38.0815C38.9848 41 39.7198 40.265 39.7198 39.3616V36.7716C39.7198 35.8694 39.8992 35.5205 40.171 34.9924C40.4675 34.4161 40.8366 33.6989 40.9954 32.2367C40.9985 32.208 41.0001 32.179 41.0001 32.1502V24.0353C41 22.3361 39.747 21.4469 38.5093 21.4469ZM14.81 1.60164H24.1107V2.45784C24.1107 2.93246 23.7255 3.3186 23.2522 3.3186H15.6686C15.1952 3.3186 14.81 2.93246 14.81 2.45784V1.60164ZM1.60156 10.7493H3.84119C3.55555 11.8532 2.69415 12.7243 1.60156 13.0152V10.7493ZM1.60156 21.0464V18.7805C2.69415 19.0714 3.55555 19.9425 3.84119 21.0464H1.60156ZM1.60156 17.1434V14.6521C3.57813 14.3124 5.1407 12.7388 5.4763 10.7492H17.0355V21.0463H5.4763C5.1407 19.0568 3.57813 17.4832 1.60156 17.1434ZM10.2549 34.1754C9.92793 34.1754 9.66199 33.9095 9.66199 33.5824V31.7389H22.1972L22.1973 31.8324C22.1973 32.8787 22.8312 33.6014 23.5289 34.1753H10.2549V34.1754ZM29.2589 13.7071C28.9736 13.6025 28.6709 13.5492 28.3691 13.5492C27.7218 13.5492 27.1144 13.7852 26.659 14.2138C26.3033 14.5486 25.8791 15.1542 25.8791 16.1385V24.4243C25.6859 24.3019 25.4785 24.1967 25.2582 24.1119C24.4071 23.7844 23.6181 23.8204 23.0362 24.2129C22.6616 24.4655 22.2118 24.9754 22.1951 25.9696C22.195 25.9741 22.195 25.9785 22.195 25.983V29.3136L22.1957 30.1373H9.66191V22.6481H17.0355V23.813C17.0355 24.2553 17.3941 24.6139 17.8363 24.6139C18.2785 24.6139 18.6371 24.2553 18.6371 23.813V7.98275C18.6371 7.54048 18.2785 7.18189 17.8363 7.18189C17.3941 7.18189 17.0355 7.54048 17.0355 7.98275V9.14764H9.66191V2.19454C9.66191 1.86766 9.92785 1.60164 10.2548 1.60164H13.2085V2.45784C13.2085 3.81556 14.312 4.92024 15.6686 4.92024H23.2522C24.6086 4.92024 25.7123 3.81556 25.7123 2.45784V1.60164H28.666C28.9929 1.60164 29.2589 1.86758 29.2589 2.19454V13.7071Z" fill="#00B857"/>
<path d="M14.5327 15.8979C14.5327 13.9757 12.9781 12.4117 11.0672 12.4117C9.15628 12.4117 7.60156 13.9756 7.60156 15.8979C7.60156 17.8201 9.15628 19.384 11.0672 19.384C12.9781 19.384 14.5327 17.8201 14.5327 15.8979ZM9.20304 15.8979C9.20304 14.8588 10.0392 14.0134 11.0671 14.0134C12.0949 14.0134 12.9311 14.8587 12.9311 15.8979C12.9311 16.937 12.0949 17.7823 11.0671 17.7823C10.0393 17.7823 9.20304 16.937 9.20304 15.8979Z" fill="#00B857"/>
<path d="M33.0804 41H33.0781C32.6359 41 32.2773 40.6414 32.2773 40.1991C32.2773 39.7568 32.6359 39.3983 33.0781 39.3983C33.5203 39.3983 33.8801 39.7568 33.8801 40.1991C33.8801 40.6414 33.5226 41 33.0804 41Z" fill="#00B857"/>
</g>
<defs>
<clipPath id="clip0">
<rect width="41" height="41" fill="white"/>
</clipPath>
</defs>
</svg>
