<svg width="22" height="22" viewBox="0 0 22 22" fill="none" xmlns="http://www.w3.org/2000/svg">
<path d="M20.4531 2.0625H1.54688C1.22789 2.06285 0.92208 2.18972 0.696527 2.41528C0.470973 2.64083 0.344103 2.94664 0.34375 3.26562V18.7344C0.344103 19.0534 0.470973 19.3592 0.696527 19.5847C0.92208 19.8103 1.22789 19.9371 1.54688 19.9375H20.4531C20.7721 19.9371 21.0779 19.8103 21.3035 19.5847C21.529 19.3592 21.6559 19.0534 21.6562 18.7344V3.26562C21.6559 2.94664 21.529 2.64083 21.3035 2.41528C21.0779 2.18972 20.7721 2.06285 20.4531 2.0625ZM20.9688 18.7344C20.9686 18.8711 20.9143 19.0022 20.8176 19.0989C20.7209 19.1955 20.5898 19.2499 20.4531 19.25H1.54688C1.41016 19.2499 1.27907 19.1955 1.1824 19.0989C1.08572 19.0022 1.03136 18.8711 1.03125 18.7344V4.8125H20.9688V18.7344ZM20.9688 4.125H1.03125V3.26562C1.03136 3.12891 1.08572 2.99782 1.1824 2.90115C1.27907 2.80448 1.41016 2.75011 1.54688 2.75H20.4531C20.5898 2.75011 20.7209 2.80448 20.8176 2.90115C20.9143 2.99782 20.9686 3.12891 20.9688 3.26562V4.125Z" fill="white"/>
<path d="M1.71875 3.78125H2.0625C2.15367 3.78125 2.2411 3.74503 2.30557 3.68057C2.37003 3.6161 2.40625 3.52867 2.40625 3.4375C2.40625 3.34633 2.37003 3.2589 2.30557 3.19443C2.2411 3.12997 2.15367 3.09375 2.0625 3.09375H1.71875C1.62758 3.09375 1.54015 3.12997 1.47568 3.19443C1.41122 3.2589 1.375 3.34633 1.375 3.4375C1.375 3.52867 1.41122 3.6161 1.47568 3.68057C1.54015 3.74503 1.62758 3.78125 1.71875 3.78125Z" fill="white"/>
<path d="M3.09375 3.78125H3.4375C3.52867 3.78125 3.6161 3.74503 3.68057 3.68057C3.74503 3.6161 3.78125 3.52867 3.78125 3.4375C3.78125 3.34633 3.74503 3.2589 3.68057 3.19443C3.6161 3.12997 3.52867 3.09375 3.4375 3.09375H3.09375C3.00258 3.09375 2.91515 3.12997 2.85068 3.19443C2.78622 3.2589 2.75 3.34633 2.75 3.4375C2.75 3.52867 2.78622 3.6161 2.85068 3.68057C2.91515 3.74503 3.00258 3.78125 3.09375 3.78125Z" fill="white"/>
<path d="M4.46875 3.78125H4.8125C4.90367 3.78125 4.9911 3.74503 5.05557 3.68057C5.12003 3.6161 5.15625 3.52867 5.15625 3.4375C5.15625 3.34633 5.12003 3.2589 5.05557 3.19443C4.9911 3.12997 4.90367 3.09375 4.8125 3.09375H4.46875C4.37758 3.09375 4.29015 3.12997 4.22568 3.19443C4.16122 3.2589 4.125 3.34633 4.125 3.4375C4.125 3.52867 4.16122 3.6161 4.22568 3.68057C4.29015 3.74503 4.37758 3.78125 4.46875 3.78125Z" fill="white"/>
<path d="M12.6758 10.3125H9.96875V9.96875C9.96875 9.87758 9.93253 9.79015 9.86807 9.72568C9.8036 9.66122 9.71617 9.625 9.625 9.625H8.9375C8.84633 9.625 8.7589 9.66122 8.69443 9.72568C8.62997 9.79015 8.59375 9.87758 8.59375 9.96875C8.59375 10.0599 8.62997 10.1474 8.69443 10.2118C8.7589 10.2763 8.84633 10.3125 8.9375 10.3125H9.28125V12.7188C9.28125 12.8099 9.31747 12.8974 9.38193 12.9618C9.4464 13.0263 9.53383 13.0625 9.625 13.0625H12.332C12.4134 13.0625 12.4922 13.0336 12.5542 12.981C12.6163 12.9284 12.6578 12.8555 12.6711 12.7753L13.0149 10.7128C13.0231 10.6635 13.0205 10.6131 13.0072 10.5649C12.994 10.5168 12.9704 10.4721 12.9381 10.434C12.9058 10.3959 12.8656 10.3653 12.8203 10.3444C12.775 10.3234 12.7257 10.3125 12.6758 10.3125ZM12.0408 12.375H9.96875V11H12.27L12.0408 12.375Z" fill="white"/>
<path d="M12.0312 14.0938C12.2211 14.0938 12.375 13.9398 12.375 13.75C12.375 13.5602 12.2211 13.4062 12.0312 13.4062C11.8414 13.4062 11.6875 13.5602 11.6875 13.75C11.6875 13.9398 11.8414 14.0938 12.0312 14.0938Z" fill="white"/>
<path d="M10.0117 13.4062C9.82188 13.4062 9.625 13.5602 9.625 13.75C9.625 13.8412 9.66122 13.9286 9.72568 13.9931C9.79015 14.0575 9.87758 14.0938 9.96875 14.0938C10.0599 14.0938 10.1474 14.0575 10.2118 13.9931C10.2763 13.9286 10.3125 13.8412 10.3125 13.75C10.3125 13.5602 10.2016 13.4062 10.0117 13.4062Z" fill="white"/>
<path d="M20.1575 11.4232L18.095 9.70449C18.0448 9.66268 17.9837 9.63603 17.9189 9.62769C17.8541 9.61934 17.7883 9.62964 17.7291 9.65737C17.6699 9.6851 17.6199 9.72912 17.5849 9.78427C17.5498 9.83942 17.5312 9.90341 17.5313 9.96875V10.6562H14.7813V8.59375C14.7813 8.50258 14.745 8.41515 14.6806 8.35068C14.6161 8.28622 14.5287 8.25 14.4375 8.25H7.5625C7.47133 8.25 7.3839 8.28622 7.31943 8.35068C7.25497 8.41515 7.21875 8.50258 7.21875 8.59375V10.6562H2.0625C1.97133 10.6562 1.8839 10.6925 1.81943 10.7569C1.75497 10.8214 1.71875 10.9088 1.71875 11V12.375C1.71875 12.4662 1.75497 12.5536 1.81943 12.6181C1.8839 12.6825 1.97133 12.7188 2.0625 12.7188H7.21875V15.125C7.21875 15.2162 7.25497 15.3036 7.31943 15.3681C7.3839 15.4325 7.47133 15.4688 7.5625 15.4688H14.4375C14.5287 15.4688 14.6161 15.4325 14.6806 15.3681C14.745 15.3036 14.7813 15.2162 14.7813 15.125V12.7188H17.5313V13.4062C17.5312 13.4716 17.5498 13.5356 17.5849 13.5907C17.6199 13.6459 17.6699 13.6899 17.7291 13.7176C17.7883 13.7454 17.8541 13.7557 17.9189 13.7473C17.9837 13.739 18.0448 13.7123 18.095 13.6705L20.1575 11.9518C20.1962 11.9195 20.2274 11.8791 20.2488 11.8334C20.2702 11.7877 20.2813 11.7379 20.2813 11.6875C20.2813 11.6371 20.2702 11.5873 20.2488 11.5416C20.2274 11.4959 20.1962 11.4555 20.1575 11.4232ZM7.21875 12.0312H2.40625V11.3438H7.21875V12.0312ZM14.0938 14.7812H7.90625V8.9375H14.0938V14.7812ZM18.2188 12.6723V12.375C18.2188 12.2838 18.1825 12.1964 18.1181 12.1319C18.0536 12.0675 17.9662 12.0312 17.875 12.0312H14.7813V11.3438H17.875C17.9662 11.3438 18.0536 11.3075 18.1181 11.2431C18.1825 11.1786 18.2188 11.0912 18.2188 11V10.7027L19.4004 11.6875L18.2188 12.6723Z" fill="white"/>
</svg>
