<svg width="41" height="41" viewBox="0 0 41 41" fill="none" xmlns="http://www.w3.org/2000/svg">
<path d="M36.141 33.9348C36.0498 28.3627 30.3527 26.7165 26.1928 25.5144C25.7075 25.3742 25.2407 25.2393 24.8033 25.1046V22.8059C25.6537 22.2729 26.399 21.5868 27.0001 20.7866H29.5341C30.7741 20.7866 31.783 19.7777 31.783 18.5377V15.8153C31.9333 15.4649 32.0169 15.0792 32.0169 14.6743V13.8276C32.0169 13.4231 31.9333 13.0377 31.783 12.6875V11.2831C31.783 5.0616 26.7216 0 20.5002 0C14.28 0 9.21965 5.0616 9.21965 11.2831V12.6473C9.21965 12.6581 9.22085 12.6684 9.22125 12.6791C9.06862 13.0316 8.98357 13.4198 8.98357 13.8277V14.6744C8.98357 16.2749 10.2847 17.5771 11.8839 17.5771H12.5457C13.0041 19.775 14.3535 21.6497 16.1971 22.8055V25.1046C15.7597 25.2393 15.293 25.3741 14.8076 25.5144C10.6477 26.7165 4.95058 28.3628 4.85946 33.9348C4.85937 33.9392 4.85938 33.9436 4.85938 33.948V40.1992C4.85938 40.6415 5.21797 41 5.66016 41H8.03433C8.47652 41 8.83511 40.6415 8.83511 40.1992C8.83511 39.7569 8.47652 39.3984 8.03433 39.3984H6.46086V33.9546C6.49458 32.0106 7.38761 30.5532 9.27114 29.3684C10.514 28.5866 12.0335 28.0296 13.5313 27.5636L15.4661 31.3333C15.6817 31.7534 16.2339 31.8962 16.6263 31.6315L17.4889 31.0495L18.2296 33.8333L16.9606 39.3984H15.2251C14.7829 39.3984 14.4243 39.7569 14.4243 40.1991C14.4243 40.6414 14.7829 40.9999 15.2251 40.9999H35.3403C35.7825 40.9999 36.1411 40.6414 36.1411 40.1991V33.9479C36.1411 33.9436 36.1411 33.9392 36.141 33.9348ZM25.7482 27.053C25.801 27.0682 25.8547 27.0838 25.9078 27.0992L24.5235 29.7989L21.9329 28.052L24.1279 26.5715C24.6379 26.7319 25.1802 26.8888 25.7482 27.053ZM20.5008 29.018L22.1065 30.1008L21.3305 33.0178H19.67L18.8942 30.1017L20.5008 29.018ZM20.5006 27.0863L17.7986 25.2643V23.5785C18.6443 23.8775 19.5533 24.0416 20.5001 24.0416C21.4469 24.0416 22.356 23.8781 23.2017 23.579V25.2643L20.5006 27.0863ZM27.0241 11.4296C27.0132 11.4226 27.0023 11.4157 26.9913 11.4087C25.3482 10.3627 23.929 9.45935 21.7054 10.0956C21.6847 10.1015 21.6642 10.1082 21.6441 10.1157C21.1727 10.2928 20.7441 10.4578 20.3294 10.6174C17.7971 11.5922 16.4145 12.1246 13.9762 12.056V11.4148C13.9762 7.81734 16.9029 4.89063 20.5001 4.89063C24.0974 4.89063 27.024 7.81734 27.024 11.4148V11.4296H27.0241ZM30.1815 18.5377C30.1815 18.8947 29.8911 19.185 29.5341 19.185H27.9383C28.1636 18.6742 28.3382 18.1362 28.4548 17.577H29.1166C29.4925 17.577 29.8515 17.5043 30.1815 17.3733V18.5377H30.1815ZM30.4153 14.6743C30.4153 15.3917 29.8327 15.9754 29.1165 15.9754H28.625C28.6251 15.9555 28.6258 12.5288 28.6258 12.5288H29.1166C29.8327 12.5288 30.4154 13.1114 30.4154 13.8276V14.6743H30.4153ZM11.8839 15.9755C11.1678 15.9755 10.5851 15.3918 10.5851 14.6744V13.8277C10.5851 13.1115 11.1677 12.5288 11.8839 12.5288H12.3747C12.3747 12.5288 12.3754 15.9556 12.3755 15.9755H11.8839ZM12.3897 10.9272H11.8839C11.5095 10.9272 11.1519 10.9993 10.8231 11.129C10.9059 5.86142 15.2147 1.60157 20.5002 1.60157C25.7872 1.60157 30.0973 5.8619 30.1795 11.1299C29.8501 10.9996 29.4917 10.9272 29.1165 10.9272H28.6106C28.3576 6.67278 24.8168 3.28906 20.5002 3.28906C16.1835 3.28906 12.6428 6.67286 12.3897 10.9272ZM14.0244 16.695C14.0244 16.6942 14.0242 16.6934 14.0241 16.6926C13.9938 16.4377 13.9763 16.1789 13.9763 15.916V13.6575C16.716 13.7243 18.3504 13.0955 20.9048 12.1122C21.3071 11.9573 21.7229 11.7972 22.1759 11.6269C23.6886 11.2047 24.559 11.7589 26.1313 12.7598C26.4041 12.9335 26.7033 13.1238 27.0241 13.3193V15.916C27.0241 17.1068 26.7019 18.2231 26.1424 19.1851H20.5002C20.058 19.1851 19.6994 19.5436 19.6994 19.9859C19.6994 20.4282 20.058 20.7867 20.5002 20.7867H24.8344C23.6811 21.8142 22.1626 22.4401 20.5002 22.4401C17.1666 22.4401 14.4108 19.9262 14.0244 16.695ZM16.4788 29.799L15.093 27.099C15.146 27.0837 15.1995 27.0682 15.2522 27.053C15.8203 26.8888 16.3626 26.7319 16.8727 26.5714L19.0686 28.0522L16.4788 29.799ZM18.6033 39.3984L19.6931 34.6194H21.3076L22.399 39.3984H18.6033ZM34.5395 39.3984H24.0418L22.7708 33.8332L23.5118 31.0484L24.3766 31.6315C24.7691 31.8962 25.3213 31.7534 25.5368 31.333L27.4694 27.5638C28.9672 28.0298 30.4866 28.5867 31.7294 29.3684C33.6128 30.5531 34.5059 32.0106 34.5397 33.9546V39.3984H34.5395Z" fill="#00B857"/>
<path d="M31.3755 35.3944H27.3398C26.8977 35.3944 26.5391 35.7529 26.5391 36.1952C26.5391 36.6375 26.8977 36.996 27.3398 36.996H31.3755C31.8177 36.996 32.1763 36.6375 32.1763 36.1952C32.1763 35.7529 31.8178 35.3944 31.3755 35.3944Z" fill="#00B857"/>
<path d="M11.6289 39.3983C11.1867 39.3983 10.8281 39.7569 10.8281 40.1991C10.8281 40.6414 11.1867 40.9999 11.6289 40.9999H11.6311C12.0733 40.9999 12.4307 40.6414 12.4307 40.1991C12.4307 39.7569 12.0711 39.3983 11.6289 39.3983Z" fill="#00B857"/>
</svg>
