<svg width="24" height="24" viewBox="0 0 24 24" fill="none" xmlns="http://www.w3.org/2000/svg">
<g clip-path="url(#clip0)">
<path d="M10.9753 20.3496C10.8109 17.7437 9.85291 15.2953 8.20477 13.2698C7.63623 12.5711 6.60901 12.4232 5.86652 12.9329C5.17255 13.4094 4.91821 14.3128 5.26154 15.0811L6.08588 16.9252C4.76569 16.0594 3.87067 14.6431 3.66595 13.0681L2.94489 7.52087C2.8493 6.78662 2.21906 6.23291 1.47858 6.23291C0.663208 6.23291 0 6.89612 0 7.71149V9.70166C0 9.96057 0.209839 10.1704 0.46875 10.1704C0.727661 10.1704 0.9375 9.96057 0.9375 9.70166V7.71149C0.9375 7.41321 1.1803 7.17041 1.47858 7.17041C1.74957 7.17041 1.9801 7.37311 2.01508 7.64172L2.73615 13.1889C2.99524 15.1813 4.19641 16.9567 5.94928 17.9381C6.26257 18.1137 6.63648 18.0705 6.90161 17.8282C7.16675 17.586 7.24347 17.2174 7.0968 16.8896L6.11755 14.6986C5.9588 14.3436 6.07636 13.9259 6.39697 13.7058C6.74048 13.4703 7.21491 13.5388 7.47766 13.8616C9.00165 15.7346 9.8877 17.9985 10.0397 20.4086L10.2415 23.6061C10.2572 23.8544 10.4636 24.0454 10.7089 24.0454C10.7188 24.0454 10.7289 24.045 10.739 24.0445C10.9973 24.028 11.1936 23.8054 11.1773 23.547L10.9753 20.3496Z" fill="white"/>
<path d="M0.46875 11.9047C0.59198 11.9047 0.713013 11.855 0.800171 11.7677C0.887329 11.6802 0.9375 11.5597 0.9375 11.4363C0.9375 11.3127 0.887329 11.1917 0.800171 11.1045C0.713013 11.0173 0.59198 10.9672 0.46875 10.9672C0.34552 10.9672 0.224487 11.0173 0.137329 11.1045C0.0501709 11.1917 0 11.3127 0 11.4363C0 11.5597 0.0501709 11.6805 0.137329 11.7677C0.224487 11.855 0.34552 11.9047 0.46875 11.9047Z" fill="white"/>
<path d="M2.6673 19.7058C1.55182 18.3552 0.9375 16.6465 0.9375 14.8945V13.1001C0.9375 12.8412 0.727661 12.6313 0.46875 12.6313C0.209839 12.6313 0 12.8412 0 13.1001V14.8945C0 16.8638 0.690491 18.7846 1.94458 20.3029L4.89478 23.8751C4.98743 23.9874 5.12146 24.0454 5.25641 24.0454C5.36151 24.0454 5.46735 24.0103 5.55469 23.9381C5.75427 23.7731 5.78247 23.4778 5.61768 23.2782L2.6673 19.7058Z" fill="white"/>
<path d="M22.5198 6.23291C21.7794 6.23291 21.1491 6.78662 21.0535 7.52087L20.3325 13.0681C20.1277 14.6431 19.2329 16.0595 17.9127 16.9252L18.7369 15.0811C19.0802 14.3128 18.8259 13.4094 18.1319 12.9329C17.3894 12.4232 16.3622 12.5711 15.7936 13.2698C14.1455 15.2954 13.1875 17.7437 13.0231 20.3496L12.8213 23.5472C12.8048 23.8055 13.0011 24.0282 13.2595 24.0445C13.2695 24.045 13.2796 24.0454 13.2895 24.0454C13.5348 24.0454 13.7412 23.8546 13.7569 23.6061L13.9587 20.4088C14.1109 17.9987 14.9968 15.7348 16.5209 13.8616C16.7835 13.5386 17.2581 13.4703 17.6014 13.7058C17.9221 13.9261 18.0398 14.3436 17.881 14.6986L16.9016 16.8897C16.7551 17.2176 16.8317 17.586 17.0968 17.8283C17.3619 18.0705 17.7358 18.1137 18.0493 17.9383C19.8022 16.9567 21.0032 15.1813 21.2623 13.1891L21.9833 7.64172C22.0183 7.37311 22.249 7.17041 22.5198 7.17041C22.8183 7.17041 23.0609 7.41321 23.0609 7.71149V14.8947C23.0609 16.6465 22.4466 18.3552 21.3311 19.706L18.3809 23.2782C18.2159 23.4778 18.2441 23.7733 18.4437 23.9381C18.6435 24.1031 18.9388 24.0747 19.1036 23.8751L22.0538 20.3029C23.3079 18.7846 23.9984 16.8638 23.9984 14.8945V7.71149C23.9984 6.89612 23.3352 6.23291 22.5198 6.23291Z" fill="white"/>
<path d="M17.625 6.81873C17.5018 6.81873 17.3807 6.8689 17.2936 6.95605C17.2064 7.04321 17.1562 7.16425 17.1562 7.28784C17.1562 7.41125 17.2064 7.53174 17.2936 7.61926C17.3807 7.7066 17.5018 7.75623 17.625 7.75623C17.7482 7.75623 17.8693 7.7066 17.9564 7.61926C18.0436 7.53174 18.0938 7.41125 18.0938 7.28784C18.0938 7.16425 18.0436 7.04376 17.9564 6.95605C17.8693 6.8689 17.7482 6.81873 17.625 6.81873Z" fill="white"/>
<path d="M18.0938 10.2584V8.9283C18.0938 8.66939 17.8839 8.45955 17.625 8.45955C17.3661 8.45955 17.1562 8.66939 17.1562 8.9283V9.98793L12.4688 12.6942V7.28145L17.1562 4.57515V5.57674C17.1562 5.83565 17.3661 6.04549 17.625 6.04549C17.8839 6.04549 18.0938 5.83565 18.0938 5.57674V3.76326C18.0938 3.59572 18.0044 3.44099 17.8594 3.35732L12.2344 0.109756C12.0894 0.0260773 11.9106 0.0260773 11.7656 0.109756L6.14062 3.35732C5.99561 3.44099 5.90625 3.59572 5.90625 3.76326V10.2584C5.90625 10.4259 5.99561 10.5806 6.14062 10.6643L11.7656 13.9121C11.8381 13.9538 11.9191 13.9749 12 13.9749C12.0809 13.9749 12.1619 13.9538 12.2344 13.9121L17.8594 10.6643C18.0044 10.5806 18.0938 10.4259 18.0938 10.2584ZM12 1.05696L16.6875 3.76326L12 6.46956L7.3125 3.76326L12 1.05696ZM6.84375 4.57515L11.5312 7.28145V12.6942L6.84375 9.98793V4.57515Z" fill="white"/>
</g>
<defs>
<clipPath id="clip0">
<rect width="24" height="24" fill="white"/>
</clipPath>
</defs>
</svg>
