<svg width="41" height="41" viewBox="0 0 41 41" fill="none" xmlns="http://www.w3.org/2000/svg">
<path d="M39.7188 32.6719C39.8887 32.6719 40.0516 32.6044 40.1717 32.4842C40.2919 32.3641 40.3594 32.2012 40.3594 32.0312V30.1094C40.3594 29.9395 40.2919 29.7765 40.1717 29.6564C40.0516 29.5362 39.8887 29.4688 39.7188 29.4688H33.9531V17.2969C33.9531 17.127 33.8856 16.964 33.7655 16.8439C33.6454 16.7237 33.4824 16.6562 33.3125 16.6562H27.5469V4.48438C27.5469 4.31447 27.4794 4.15153 27.3592 4.03138C27.2391 3.91124 27.0762 3.84375 26.9062 3.84375H14.0938C13.9238 3.84375 13.7609 3.91124 13.6408 4.03138C13.5206 4.15153 13.4531 4.31447 13.4531 4.48438V16.6562H7.6875C7.5176 16.6562 7.35465 16.7237 7.23451 16.8439C7.11437 16.964 7.04688 17.127 7.04688 17.2969V29.4688H1.28125C1.11135 29.4688 0.9484 29.5362 0.82826 29.6564C0.708119 29.7765 0.640625 29.9395 0.640625 30.1094V32.0312C0.640625 32.2012 0.708119 32.3641 0.82826 32.4842C0.9484 32.6044 1.11135 32.6719 1.28125 32.6719H2.5625V33.9531H1.28125C1.11135 33.9531 0.9484 34.0206 0.82826 34.1408C0.708119 34.2609 0.640625 34.4238 0.640625 34.5938V36.5156C0.640625 36.6855 0.708119 36.8485 0.82826 36.9686C0.9484 37.0888 1.11135 37.1562 1.28125 37.1562H39.7188C39.8887 37.1562 40.0516 37.0888 40.1717 36.9686C40.2919 36.8485 40.3594 36.6855 40.3594 36.5156V34.5938C40.3594 34.4238 40.2919 34.2609 40.1717 34.1408C40.0516 34.0206 39.8887 33.9531 39.7188 33.9531H38.4375V32.6719H39.7188ZM29.4688 24.3438C29.5529 24.3439 29.6363 24.3275 29.7141 24.2954C29.7919 24.2632 29.8626 24.216 29.9221 24.1565C29.9817 24.097 30.0288 24.0263 30.061 23.9485C30.0931 23.8707 30.1096 23.7873 30.1094 23.7031V17.9375H32.6719V29.4688H21.1406V17.9375H23.7031V23.7031C23.703 23.8124 23.7309 23.9198 23.7841 24.0153C23.8372 24.1107 23.9139 24.191 24.0068 24.2485C24.0998 24.3059 24.2058 24.3387 24.315 24.3436C24.4241 24.3485 24.5327 24.3254 24.6304 24.2765L26.9062 23.1378L29.1821 24.2765C29.2712 24.3207 29.3693 24.3437 29.4688 24.3438ZM28.8281 17.9375V22.6669L27.1929 21.8485C27.1038 21.8043 27.0057 21.7813 26.9062 21.7813C26.8068 21.7813 26.7087 21.8043 26.6196 21.8485L24.9844 22.6669V17.9375H28.8281ZM18.5781 5.125H22.4219V9.85441L20.7867 9.03602C20.6976 8.99177 20.5995 8.96875 20.5 8.96875C20.4005 8.96875 20.3024 8.99177 20.2133 9.03602L18.5781 9.85441V5.125ZM14.7344 5.125H17.2969V10.8906C17.2968 10.9999 17.3247 11.1073 17.3778 11.2028C17.431 11.2982 17.5077 11.3785 17.6006 11.436C17.6935 11.4934 17.7996 11.5262 17.9087 11.5311C18.0179 11.536 18.1265 11.5129 18.2242 11.464L20.5 10.3253L22.7758 11.464C22.8735 11.5129 22.9821 11.536 23.0913 11.5311C23.2004 11.5262 23.3065 11.4934 23.3994 11.436C23.4923 11.3785 23.569 11.2982 23.6222 11.2028C23.6753 11.1073 23.7032 10.9999 23.7031 10.8906V5.125H26.2656V16.6562H14.7344V5.125ZM12.1719 17.9375H16.0156V22.6669L14.3804 21.8485C14.2913 21.8043 14.1932 21.7813 14.0938 21.7813C13.9943 21.7813 13.8962 21.8043 13.8071 21.8485L12.1719 22.6669V17.9375ZM8.32812 17.9375H10.8906V23.7031C10.8905 23.8124 10.9184 23.9198 10.9716 24.0153C11.0247 24.1107 11.1014 24.191 11.1943 24.2485C11.2873 24.3059 11.3933 24.3387 11.5025 24.3436C11.6116 24.3485 11.7202 24.3254 11.8179 24.2765L14.0938 23.1378L16.3696 24.2765C16.4673 24.3254 16.5759 24.3485 16.685 24.3436C16.7942 24.3387 16.9002 24.3059 16.9932 24.2485C17.0861 24.191 17.1628 24.1107 17.2159 24.0153C17.2691 23.9198 17.297 23.8124 17.2969 23.7031V17.9375H19.8594V29.4688H8.32812V17.9375ZM39.0781 35.2344V35.875H1.92188V35.2344H39.0781ZM3.84375 33.9531V32.6719H7.6875V33.9531H3.84375ZM8.96875 33.9531V32.6719H17.2969V33.9531H8.96875ZM18.5781 33.9531V32.6719H22.4219V33.9531H18.5781ZM23.7031 33.9531V32.6719H32.0312V33.9531H23.7031ZM33.3125 33.9531V32.6719H37.1562V33.9531H33.3125ZM1.92188 31.3906V30.75H39.0781V31.3906H1.92188Z" fill="#00B857"/>
</svg>
