<svg width="24" height="24" viewBox="0 0 24 24" fill="none" xmlns="http://www.w3.org/2000/svg">
<path opacity="0.22" fill-rule="evenodd" clip-rule="evenodd" d="M0 12C0 5.37258 5.37258 0 12 0C18.6274 0 24 5.37258 24 12C24 18.6274 18.6274 24 12 24C5.37258 24 0 18.6274 0 12Z" fill="#BFBFBF"/>
<path d="M11.1616 12.8395C10.0828 11.7598 9.05042 10.509 9.54479 10.0145C10.2519 9.30725 10.8684 8.87075 9.61435 7.31025C8.36102 5.75044 7.52502 6.94878 6.84039 7.63422C6.04939 8.42538 6.79812 11.3745 9.71186 14.2895C12.6263 17.2038 15.5748 17.9507 16.3658 17.1588C17.0518 16.4734 18.2492 15.6413 16.6897 14.3877C15.1302 13.1335 14.6938 13.7493 13.986 14.458C13.4916 14.9504 12.241 13.9185 11.1616 12.8395Z" fill="#00B857"/>
</svg>
