<svg width="8" height="10" viewBox="0 0 8 10" fill="none" xmlns="http://www.w3.org/2000/svg">
<path d="M3.99998 0.0908203C2.19543 0.0908203 0.727249 1.559 0.727249 3.36355C0.727249 3.90528 0.86269 4.4424 1.12017 4.91882L3.82101 9.80353C3.85697 9.86866 3.92548 9.909 3.99998 9.909C4.07448 9.909 4.143 9.86866 4.17895 9.80353L6.8808 4.9172C7.13728 4.4424 7.27272 3.90526 7.27272 3.36353C7.27272 1.559 5.80454 0.0908203 3.99998 0.0908203ZM3.99998 4.99991C3.09771 4.99991 2.36363 4.26583 2.36363 3.36355C2.36363 2.46128 3.09771 1.7272 3.99998 1.7272C4.90226 1.7272 5.63634 2.46128 5.63634 3.36355C5.63634 4.26583 4.90226 4.99991 3.99998 4.99991Z" fill="white"/>
</svg>
