<svg width="14" height="14" viewBox="0 0 14 14" fill="none" xmlns="http://www.w3.org/2000/svg">
<g clip-path="url(#clip0)">
<path d="M7 0.45459C4.59393 0.45459 2.63635 2.41217 2.63635 4.81823C2.63635 5.54054 2.81694 6.2567 3.16024 6.89192L6.76137 13.4049C6.80931 13.4917 6.90067 13.5455 7 13.5455C7.09933 13.5455 7.19069 13.4917 7.23863 13.4049L10.8411 6.88977C11.1831 6.2567 11.3636 5.54051 11.3636 4.81821C11.3636 2.41217 9.40607 0.45459 7 0.45459ZM7 7.00004C5.79696 7.00004 4.81819 6.02127 4.81819 4.81823C4.81819 3.6152 5.79696 2.63643 7 2.63643C8.20303 2.63643 9.18181 3.6152 9.18181 4.81823C9.18181 6.02127 8.20303 7.00004 7 7.00004Z" fill="#00B857"/>
</g>
<defs>
<clipPath id="clip0">
<rect width="13.0909" height="13.0909" fill="white" transform="translate(0.454559 0.45459)"/>
</clipPath>
</defs>
</svg>
