<svg width="41" height="41" viewBox="0 0 41 41" fill="none" xmlns="http://www.w3.org/2000/svg">
<path d="M0.212389 23.401C0.675022 26.6203 1.89803 29.6831 3.78023 32.3355C3.54637 32.6697 3.4197 33.0668 3.41679 33.4744C3.41679 34.6066 4.33441 35.5246 5.46661 35.5246H6.57769C14.8645 43.2154 27.8168 42.7326 35.5074 34.4456C36.1873 33.713 36.8126 32.9319 37.3783 32.1078H37.5832C38.9045 32.1078 39.975 31.0372 39.975 29.7164C39.9745 29.1864 39.7959 28.6721 39.468 28.2557C40.3605 26.086 40.8708 23.7781 40.9762 21.4343L40.9856 21.058L40.9911 20.9C40.996 20.7631 41 20.6266 41 20.49C40.9987 17.1689 40.1908 13.8981 38.6459 10.9581C38.6377 10.9377 38.6284 10.9179 38.618 10.8979C38.4471 10.5763 38.2673 10.2591 38.0788 9.94604C38.0569 9.90836 38.0318 9.87287 38.0104 9.83629C37.842 9.55875 37.6671 9.28539 37.4857 9.01604C37.4729 8.99638 37.4576 8.97782 37.4447 8.95871C37.2491 8.6717 37.0467 8.38943 36.8367 8.11134C36.8199 8.09023 36.8015 8.06911 36.7844 8.04728C36.5932 7.79612 36.3982 7.54897 36.1957 7.30783V7.30437L36.1627 7.2656L36.1564 7.25978C36.1476 7.24959 36.1402 7.23867 36.1311 7.22848C35.9103 6.96877 35.6826 6.71507 35.4479 6.46719L35.3721 6.38747C35.1485 6.15215 34.9197 5.92248 34.658 5.67187L34.6007 5.61636C34.3619 5.39105 34.1186 5.17065 33.8701 4.95571L33.8017 4.89693C33.5327 4.66907 33.2579 4.44649 32.9776 4.22882L32.9671 4.22063C31.1986 2.86313 29.2205 1.80391 27.1108 1.08466C26.7692 0.969279 26.4276 0.861902 26.0385 0.751977C25.902 0.713575 25.7591 0.675174 25.6197 0.639685C25.4097 0.585814 25.1988 0.53431 24.986 0.487355L24.9651 0.482441H24.9527C19.9538 -0.617541 14.7245 0.18142 10.2831 2.72463H6.15C5.01799 2.72772 4.10255 3.64789 4.10564 4.78009C4.10819 5.6089 4.60868 6.35435 5.37524 6.6703C4.5539 7.56571 3.81372 8.53193 3.16309 9.55784L3.15562 9.57022C2.85551 10.0487 2.57142 10.5399 2.30589 11.0489C1.5031 12.5968 0.900333 14.2408 0.513046 15.9408C0.436608 16.2824 0.371089 16.624 0.311577 16.9611C0.292467 17.0704 0.276088 17.1798 0.25898 17.289C0.239506 17.4151 0.216029 17.5413 0.198739 17.6661V17.7007C0.0689764 18.6252 0.00254794 19.5578 0 20.4914C0 20.9792 0.0231135 21.4977 0.0684304 22.0629C0.0258434 22.2191 0.00272994 22.3798 0 22.5414C0.00655185 22.8399 0.0791682 23.1334 0.212389 23.401ZM1.8094 24.5769C1.8893 24.5865 1.96956 24.5914 2.04982 24.5914H5.22692L8.2 26.9692V31.4246H5.46661C5.3605 31.4246 5.2544 31.4334 5.14957 31.4507C5.11281 31.4557 5.07732 31.4676 5.04092 31.4758C4.98086 31.4865 4.92153 31.5002 4.86256 31.5169C3.39167 29.4307 2.35357 27.0709 1.8094 24.5769ZM8.2 20.4911H6.15V18.4412H9.92204L12.4505 21.6018C12.5799 21.7636 12.7761 21.8578 12.9834 21.8578H15.0334V25.7393L11.7436 30.3441C11.661 30.46 11.6168 30.5987 11.6168 30.7412V31.4244H9.56679V26.6412C9.56679 26.4338 9.47251 26.2372 9.31036 26.1074L7.41487 24.5911H8.2C9.3322 24.5911 10.25 23.6732 10.25 22.541C10.25 21.4089 9.3322 20.4911 8.2 20.4911ZM5.46661 34.1577C5.08933 34.1577 4.78339 33.8521 4.78339 33.4744C4.78995 33.1001 5.09206 32.798 5.46661 32.7912H15.0334C15.4109 32.7912 15.7168 33.0972 15.7168 33.4744C15.7168 33.8521 15.4109 34.1577 15.0334 34.1577H5.46661ZM28.3584 37.5744H23.2332C22.6672 37.5744 22.2084 37.1155 22.2084 36.5496C22.2084 35.9834 22.6672 35.5246 23.2332 35.5246H28.3584C28.9244 35.5246 29.3832 35.9834 29.3832 36.5496C29.3832 37.1155 28.9244 37.5744 28.3584 37.5744ZM37.5832 30.7412H20.1582C19.5922 30.7412 19.1332 30.2822 19.1332 29.7164C19.1332 29.15 19.5922 28.6912 20.1582 28.6912H37.5832C37.8209 28.6929 38.0506 28.7784 38.2318 28.9326C38.669 29.2858 38.7369 29.9264 38.3836 30.3634C38.1885 30.6049 37.8937 30.744 37.5832 30.7412ZM28.0927 14.3412H34.5084C35.0744 14.3412 35.5334 14.8002 35.5334 15.3661C35.5334 15.9324 35.0744 16.3912 34.5084 16.3912H16.0584C15.4922 16.3912 15.0334 15.9324 15.0334 15.3661C15.0334 14.8002 15.4922 14.3412 16.0584 14.3412H28.0927ZM19.1332 12.9746V11.608H25.6326L26.695 12.9746H19.1332ZM32.3059 17.758L30.1569 21.5162C30.0972 21.6202 30.0659 21.7379 30.0668 21.8578V24.3514L27.6887 27.3244H25.9666V19.8078C25.9666 19.4306 25.6609 19.1246 25.2834 19.1246H21.549L20.6369 17.758H32.3059ZM39.6128 21.3113C39.6019 21.3552 39.5868 21.3981 39.5671 21.4391C39.5562 21.47 39.5437 21.5002 39.5297 21.5299C39.5038 21.5683 39.4741 21.6036 39.4414 21.6358C39.4225 21.66 39.4021 21.6826 39.3804 21.7042C39.34 21.7344 39.2963 21.7605 39.2499 21.7816C39.2281 21.795 39.2053 21.808 39.1817 21.8189C39.1072 21.8453 39.029 21.8587 38.9502 21.8578H35.5334C35.1561 21.8578 34.8502 21.5521 34.8502 21.1746C34.8502 20.7972 35.1561 20.4911 35.5334 20.4911H38.9502C39.0332 20.4914 39.1158 20.5069 39.1935 20.5369C39.2188 20.5473 39.2383 20.5664 39.2616 20.5788C39.3102 20.6015 39.356 20.6294 39.3983 20.6627C39.4203 20.686 39.4403 20.7109 39.4585 20.7375C39.4916 20.7724 39.5207 20.8112 39.5459 20.8525C39.5733 20.9308 39.5981 21.0099 39.6197 21.09L39.6128 21.3113ZM37.8238 12.3764C38.8337 14.5305 39.4328 16.8535 39.591 19.2273C39.5362 19.2089 39.4787 19.1991 39.4223 19.1854C39.3846 19.1769 39.3484 19.165 39.3094 19.1579C39.1908 19.1363 39.0705 19.1254 38.9502 19.1246H35.5334C34.4012 19.1246 33.4836 20.0424 33.4836 21.1746C33.4836 22.3068 34.4012 23.2246 35.5334 23.2246H38.9502C39.1003 23.2232 39.2499 23.2052 39.3961 23.17C39.4121 23.1668 39.4296 23.17 39.4461 23.1644C39.2416 24.6302 38.8657 26.0667 38.3263 27.4449C38.2579 27.4211 38.1814 27.408 38.1081 27.3909C38.0642 27.3807 38.022 27.3663 37.9783 27.3588C37.8478 27.3365 37.7157 27.3252 37.5832 27.3244H29.4385L31.2836 25.0184C31.3806 24.8972 31.4334 24.7467 31.4332 24.5914V22.0395L33.8794 17.758H34.5084C35.8237 17.7637 36.8944 16.7019 36.8998 15.3866C36.9007 15.2274 36.8853 15.0681 36.8541 14.912C36.8445 14.8632 36.8281 14.8182 36.8161 14.7709C36.7924 14.6745 36.7626 14.5796 36.7271 14.4866C36.7067 14.4341 36.6805 14.3842 36.6587 14.3336C36.6201 14.2524 36.5773 14.1733 36.5305 14.0966C36.4989 14.0479 36.4663 14.0016 36.4317 13.955C36.4053 13.9195 36.3846 13.8808 36.3569 13.8464L37.8238 12.3764ZM25.023 1.90437C25.2437 1.95861 25.4685 2.01721 25.7062 2.08491C26.0309 2.17646 26.3521 2.27619 26.7046 2.39576C28.6567 3.0646 30.4867 4.0461 32.1235 5.30205L32.149 5.32116C32.4074 5.52081 32.6613 5.72574 32.9101 5.93612L32.9729 5.99036C33.2051 6.19019 33.433 6.39676 33.6561 6.61005L33.7342 6.68395C33.9529 6.89342 34.1664 7.10818 34.375 7.32839L34.4432 7.40192C34.6607 7.63378 34.8727 7.87019 35.1083 8.14683C35.1698 8.21944 35.2216 8.29989 35.2828 8.37378C35.9869 9.22697 36.6155 10.1391 37.1615 11.101L35.293 12.9748H33.1414L29.2465 7.78138C29.1179 7.60939 28.9149 7.50802 28.7 7.50802H19.8166V4.77445H21.8668C22.0479 4.77445 22.2215 4.70238 22.3498 4.57425L25.023 1.90437ZM23.4105 1.58479L21.5836 3.40784H19.1332C18.7559 3.40784 18.45 3.71396 18.45 4.09123V8.19123C18.45 8.56851 18.7559 8.87445 19.1332 8.87445H28.3584L31.4332 12.9746H28.4266L26.5064 10.5049C26.3768 10.3382 26.1775 10.2411 25.9666 10.2411H18.45C18.0727 10.2411 17.7666 10.547 17.7666 10.9243V12.9746H16.0584C14.7377 12.9746 13.6666 14.0453 13.6666 15.3661C13.6666 16.687 14.7377 17.758 16.0584 17.758H18.9967L20.6161 20.1871C20.7426 20.3768 20.9555 20.4909 21.183 20.4911H24.5998V27.3244H20.1582C18.8373 27.3244 17.7666 28.3955 17.7666 29.7164C17.7666 31.0372 18.8373 32.1078 20.1582 32.1078H35.7005C34.3311 33.9023 32.6551 35.4405 30.75 36.6514C30.75 36.6179 30.75 36.5831 30.75 36.5496C30.75 35.2287 29.6791 34.1577 28.3584 34.1577H23.2332C21.9125 34.1577 20.8414 35.2287 20.8414 36.5496C20.8414 37.8704 21.9125 38.9412 23.2332 38.9412H25.5786C19.7194 40.5503 13.4446 39.2823 8.6701 35.5246H15.0334C16.1656 35.5246 17.0834 34.6066 17.0834 33.4744C17.0834 32.3422 16.1656 31.4244 15.0334 31.4244H12.9834V30.9598L16.273 26.3551C16.3556 26.2388 16.4002 26.1003 16.4002 25.9578V21.1746C16.4002 20.7972 16.0941 20.4911 15.7168 20.4911H13.3114L10.7829 17.3309C10.6533 17.1689 10.4573 17.0748 10.25 17.0746H6.15V15.0244H8.2C8.45898 15.0246 8.69576 14.8783 8.81169 14.6464L11.5449 9.18002C11.5924 9.0852 11.6168 8.98055 11.6168 8.87445V6.82445H15.0334C16.1656 6.82445 17.0834 5.90664 17.0834 4.77445C17.0834 3.64243 16.1656 2.72463 15.0334 2.72463H13.3989C16.5744 1.45867 20.031 1.0641 23.4105 1.58151V1.58479ZM6.15 4.09123H15.0334C15.4109 4.09123 15.7168 4.39717 15.7168 4.77445C15.7168 5.15191 15.4109 5.45784 15.0334 5.45784L6.87562 5.42981C6.81483 5.43054 6.75459 5.43982 6.6969 5.45784H6.15C5.77272 5.45784 5.46661 5.15191 5.46661 4.77445C5.46661 4.39717 5.77272 4.09123 6.15 4.09123ZM1.85526 16.2032C2.21634 14.6271 2.77707 13.1035 3.52326 11.6695C3.76786 11.1993 4.03557 10.7339 4.31785 10.2867L4.32476 10.2765C5.11972 9.02186 6.05773 7.86346 7.11967 6.82445H10.25V8.71338L7.77759 13.6578H5.46661C5.08933 13.6578 4.78339 13.964 4.78339 14.3412V17.0746H1.67691C1.72823 16.7909 1.78756 16.5012 1.85526 16.2032ZM1.47853 18.4412H4.78339V20.4911H2.04982C1.93552 20.4911 1.82105 20.5011 1.70821 20.5207C1.66999 20.5269 1.63396 20.5391 1.5961 20.5473C1.52785 20.5635 1.45469 20.5793 1.38663 20.6028L1.36661 20.6081V20.4911C1.36715 19.8066 1.4041 19.1223 1.47853 18.4412ZM1.40628 22.3363C1.49309 22.0531 1.75371 21.8597 2.04982 21.8578H8.2C8.57746 21.8578 8.88321 22.1638 8.88321 22.541C8.88321 22.9185 8.57746 23.2246 8.2 23.2246H2.04982C1.99103 23.2243 1.93188 23.2168 1.87456 23.2013C1.76117 23.1706 1.65798 23.1107 1.57572 23.027C1.53313 22.9842 1.49637 22.9363 1.46579 22.8843C1.35969 22.7201 1.33749 22.5156 1.40646 22.3328L1.40628 22.3363Z" fill="#00B857"/>
</svg>
