<svg width="60" height="60" viewBox="0 0 60 60" fill="none" xmlns="http://www.w3.org/2000/svg">
<g clip-path="url(#clip0)">
<path d="M59.9842 29.0218C59.4809 13.2603 46.7403 0.520059 30.9791 0.0167172C22.403 -0.255382 14.3794 3.00897 8.44966 9.1312C2.74905 15.0167 -0.246149 22.7758 0.0158409 30.98C0.518761 46.7411 13.2594 59.4818 29.0205 59.9847C29.3486 59.9952 29.6738 60.0003 29.9998 60.0003C38.194 60.0003 45.8473 56.7578 51.55 50.8702C57.2506 44.9851 60.2462 37.2257 59.9842 29.0218ZM47.0119 46.4749C42.5101 51.1229 36.4683 53.6826 29.9998 53.6826C29.7412 53.6826 29.4826 53.6784 29.2219 53.6704C16.7828 53.2732 6.72776 43.2182 6.33014 30.7787C6.12333 24.2997 8.48756 18.1728 12.9877 13.5269C17.4896 8.8789 23.5314 6.31923 29.9998 6.31923C30.2585 6.31923 30.5171 6.32344 30.7778 6.33144C43.2169 6.72864 53.2719 16.7837 53.6695 29.2232C53.8763 35.7022 51.5117 41.829 47.0119 46.4749Z" fill="#315EFB"/>
<path d="M39.8395 28.2577L26.5361 18.7191C25.1171 17.7014 23.1416 18.7157 23.1416 20.462V39.5397C23.1416 41.286 25.1171 42.3003 26.5361 41.2827L39.8391 31.7436C41.0328 30.8881 41.0328 29.1136 39.8395 28.2577Z" fill="#315EFB"/>
</g>
<defs>
<clipPath id="clip0">
<rect width="60" height="60" fill="white"/>
</clipPath>
</defs>
</svg>
