<svg width="41" height="41" viewBox="0 0 41 41" fill="none" xmlns="http://www.w3.org/2000/svg">
<path d="M40.7625 17.2442C40.573 17.0547 40.3008 16.9726 40.0383 17.0254L33.1374 18.4142C32.8481 18.4725 32.6142 18.6852 32.5289 18.9676C32.4435 19.2501 32.5204 19.5567 32.7291 19.7655L33.6627 20.6991L29.9985 24.3634L27.1619 21.5267C27.0116 21.3766 26.808 21.2922 26.5957 21.2922C26.3833 21.2922 26.1797 21.3766 26.0295 21.5267L22.5487 25.0075L23.8544 20.3161C24.1718 19.1756 23.9431 17.981 23.227 17.0383C22.7884 16.461 22.2093 16.0353 21.5547 15.7914L22.5984 12.8098C22.8864 12.8351 23.1737 12.848 23.4577 12.848C25.7699 12.848 28.0242 12.0331 29.8056 10.5534L29.9964 10.395C30.9356 9.61465 31.096 8.25863 30.3619 7.30801C29.9897 6.8259 29.4518 6.52355 28.8472 6.45677C28.2424 6.38991 27.6515 6.56735 27.1836 6.9561L26.9668 7.13618C26.6474 7.40146 26.2981 7.63054 25.9287 7.81687C24.694 8.43967 23.1521 8.1623 22.1276 7.14835C23.6179 6.68673 24.7035 5.29556 24.7035 3.65553C24.7036 1.63987 23.0636 0 21.0479 0C19.0321 0 17.3922 1.63987 17.3922 3.65561C17.3922 4.45777 17.6525 5.19988 18.0922 5.8033C17.2606 5.98234 16.5121 6.41113 15.9394 7.01735C15.9061 7.04666 15.874 7.07837 15.845 7.11408C14.4334 8.84796 12.5516 10.0916 10.403 10.7105C9.8213 10.8782 9.36088 11.2645 9.08456 11.7542L7.4434 10.113C6.72531 9.39501 5.55706 9.39509 4.8389 10.113L2.69112 12.2609L0.543352 14.4086C0.195439 14.7565 0.00390625 15.2189 0.00390625 15.7109C0.00390625 16.2029 0.195519 16.6653 0.543271 17.0132L6.461 22.9309C6.80891 23.2788 7.27132 23.4703 7.76329 23.4703C8.25533 23.4703 8.71775 23.2787 9.06558 22.9309L11.2894 20.7071L10.235 23.4722C10.0774 23.8853 10.2846 24.3481 10.6978 24.5056C10.7917 24.5414 10.8881 24.5584 10.983 24.5584C11.3055 24.5584 11.6095 24.3621 11.7313 24.0428L14.3575 17.1566H19.3708H20.2375C20.9164 17.1566 21.5412 17.4666 21.9519 18.0072C22.3626 18.5477 22.4937 19.2328 22.3117 19.8868L20.4922 26.4243C20.4103 26.7185 20.1399 26.924 19.8345 26.924C19.5605 26.924 19.3915 26.7739 19.3152 26.6845C19.2389 26.595 19.1172 26.4045 19.1602 26.1341L20.1283 20.0476C20.1652 19.8161 20.0987 19.5803 19.9466 19.402C19.7944 19.2238 19.5718 19.1211 19.3375 19.1211H17.4392C17.1372 19.1211 16.8609 19.291 16.7246 19.5604C16.6779 19.6528 12.032 28.8387 10.4664 31.9427C10.3097 32.2535 9.96903 32.4309 9.61968 32.383L9.58172 32.3779C9.34335 32.3457 9.13628 32.2086 9.01337 32.0018C8.89046 31.795 8.86924 31.5475 8.955 31.3228L9.4484 30.0291C9.60598 29.6159 9.39876 29.1533 8.98559 28.9956C8.57249 28.838 8.10976 29.0453 7.9521 29.4584L7.45869 30.7521C7.19774 31.4364 7.2626 32.19 7.63661 32.8197C8.01063 33.4493 8.64136 33.8668 9.36649 33.965L9.40444 33.97C9.51422 33.985 9.6236 33.9921 9.73226 33.9921C10.6388 33.9921 11.482 33.4856 11.8964 32.6639C13.2638 29.9526 16.9829 22.5983 17.9316 20.7226H18.3994L17.5787 25.8825C17.4735 26.5436 17.6625 27.215 18.0972 27.7241C18.3768 28.0517 18.7389 28.2888 19.1398 28.4167L10.22 37.3365C10.0698 37.4867 9.98545 37.6903 9.98545 37.9027C9.98545 38.115 10.0698 38.3187 10.22 38.4688L12.5167 40.7655C12.6731 40.9218 12.878 41 13.0829 41C13.2878 41 13.4927 40.9218 13.6491 40.7655L18.0643 36.3502C18.377 36.0375 18.377 35.5305 18.0643 35.2178C17.7516 34.9052 17.2447 34.9052 16.9319 35.2178L13.0829 39.0668L11.9186 37.9026L26.5958 23.2252L29.4325 26.0618C29.5827 26.212 29.7863 26.2964 29.9987 26.2964C30.211 26.2964 30.4146 26.212 30.5648 26.0618L35.3614 21.2652C35.6741 20.9525 35.6741 20.4455 35.3614 20.1327L34.918 19.6893L39.1737 18.8329L38.3173 23.0886L37.6582 22.4295C37.3454 22.1169 36.8386 22.1169 36.5257 22.4295L29.9986 28.9567L27.1619 26.1201C26.8492 25.8075 26.3423 25.8075 26.0295 26.1201L21.4613 30.6882C21.1486 31.0009 21.1486 31.5079 21.4613 31.8207C21.7741 32.1333 22.2809 32.1333 22.5937 31.8207L26.5957 27.8188L29.4323 30.6554C29.7451 30.968 30.2519 30.968 30.5648 30.6554L37.0919 24.1283L38.2413 25.2776C38.4499 25.4863 38.7567 25.5634 39.039 25.4779C39.3215 25.3926 39.5343 25.1587 39.5925 24.8693L40.9813 17.9683C41.0342 17.7056 40.952 17.4338 40.7625 17.2442ZM21.0479 1.60144C22.1806 1.60144 23.102 2.52299 23.102 3.65561C23.102 4.78831 22.1805 5.70986 21.0479 5.70986C19.9152 5.70986 18.9936 4.78831 18.9936 3.65561C18.9936 2.52299 19.9152 1.60144 21.0479 1.60144ZM13.1246 15.7942L12.1501 14.8197C12.6129 14.6687 13.0675 14.496 13.5125 14.3028L13.1246 15.7942ZM10.4222 13.0167C10.3276 12.6882 10.5179 12.3441 10.8464 12.2494C12.1627 11.8702 13.3904 11.2847 14.4965 10.5201L14.0444 12.2585C13.1442 12.7559 12.1858 13.1537 11.1892 13.4407C11.1708 13.446 11.1514 13.4507 11.1322 13.4543C10.9845 13.4824 10.8367 13.4531 10.7126 13.3823L10.4781 13.1477C10.4549 13.1068 10.4357 13.0633 10.4222 13.0167ZM5.97119 11.2454C6.01804 11.1986 6.07961 11.1752 6.14111 11.1752C6.2026 11.1752 6.26418 11.1986 6.31094 11.2454L9.22973 14.1642C9.36513 14.3491 9.52655 14.5103 9.7084 14.6429L12.2287 17.1632C12.3224 17.2568 12.3224 17.4093 12.2287 17.5029L10.6472 19.0844L8.88822 17.3255L9.22324 16.9905C9.53592 16.6778 9.53592 16.1708 9.22324 15.858L7.42082 14.0556C7.10806 13.743 6.6012 13.743 6.28836 14.0556L5.95334 14.3906L4.38961 12.8269L5.97119 11.2454ZM7.06722 16.8817C6.99059 16.9584 6.90115 16.9699 6.85463 16.9699C6.80819 16.9699 6.71875 16.9584 6.64212 16.8818V16.8817L6.39718 16.6369C6.32063 16.5603 6.3091 16.4708 6.3091 16.4244C6.3091 16.3779 6.32063 16.2884 6.39726 16.2118L6.85463 15.7544L7.52459 16.4244L7.06722 16.8817ZM7.93312 21.7986C7.87491 21.8567 7.80869 21.8689 7.76329 21.8689C7.71797 21.8689 7.65159 21.8567 7.59345 21.7985L1.67573 15.8808C1.61752 15.8226 1.60535 15.7563 1.60535 15.7109C1.60535 15.6655 1.61752 15.5992 1.67573 15.5411L3.25723 13.9595L4.89583 15.598C4.77292 15.8525 4.70766 16.1334 4.70766 16.4244C4.70766 16.9325 4.9056 17.4101 5.2648 17.7693L5.50966 18.0141V18.0142C5.86886 18.3734 6.34657 18.5713 6.85463 18.5713C7.14561 18.5713 7.4265 18.5062 7.68097 18.3832L9.51478 20.217L7.93312 21.7986ZM19.3708 15.5551H14.8416L16.4865 9.23158C16.7807 8.10097 17.802 7.31138 18.9702 7.31138C19.6919 7.31138 20.3595 7.60236 20.8499 8.13075C22.3543 9.75173 24.7396 10.2106 26.65 9.2468C27.1271 9.00618 27.5781 8.71064 27.9903 8.36809L28.207 8.18801C28.3377 8.07943 28.5026 8.02962 28.6715 8.04868C28.8401 8.06726 28.9903 8.15181 29.0946 8.28689C29.2958 8.54737 29.2413 8.94052 28.9732 9.1632L28.7824 9.32166C27.288 10.5631 25.397 11.2468 23.4578 11.2468C23.0367 11.2468 22.6063 11.213 22.1785 11.1465C21.7966 11.0866 21.4273 11.3086 21.2996 11.6731L19.9406 15.5551H19.3708Z" fill="#00B857"/>
<path d="M19.7773 32.7334C19.5667 32.7334 19.3601 32.819 19.2112 32.968C19.0622 33.1169 18.9766 33.3234 18.9766 33.5341C18.9766 33.7455 19.0622 33.9513 19.2112 34.1001C19.3601 34.2499 19.5667 34.3348 19.7773 34.3348C19.9879 34.3348 20.1945 34.2499 20.3433 34.1001C20.4922 33.9513 20.578 33.7454 20.578 33.5341C20.578 33.3234 20.4923 33.1169 20.3433 32.968C20.1945 32.819 19.9879 32.7334 19.7773 32.7334Z" fill="#00B857"/>
<path d="M9.83978 27.5559C10.0504 27.5559 10.257 27.4702 10.4059 27.3212C10.5547 27.1724 10.6405 26.9658 10.6405 26.7552C10.6405 26.5446 10.5548 26.338 10.4059 26.1891C10.2562 26.0401 10.0504 25.9545 9.83978 25.9545C9.62919 25.9545 9.42261 26.0401 9.27287 26.1891C9.12402 26.338 9.03906 26.5446 9.03906 26.7552C9.03906 26.9658 9.12402 27.1724 9.27287 27.3212C9.42261 27.4702 9.62839 27.5559 9.83978 27.5559Z" fill="#00B857"/>
</svg>
