<svg width="41" height="41" viewBox="0 0 41 41" fill="none" xmlns="http://www.w3.org/2000/svg">
<path d="M23.276 36.6307C23.1566 36.6307 23.0367 36.6021 22.9269 36.5446L20.4807 35.2601L18.0345 36.5446C17.7816 36.6776 17.475 36.6553 17.2439 36.4871C17.0128 36.3191 16.8972 36.0343 16.9455 35.7528L17.4126 33.0333L15.4342 31.1072C15.2294 30.9078 15.1555 30.6094 15.2437 30.3375C15.3324 30.0656 15.5672 29.8673 15.8501 29.8263L18.5847 29.4296L19.8077 26.9545C19.9343 26.6985 20.195 26.5362 20.4807 26.5362C20.7662 26.5362 21.0274 26.6985 21.1536 26.9545L22.3766 29.4296L25.1113 29.8263C25.394 29.8673 25.6293 30.0656 25.7175 30.3375C25.8057 30.6094 25.7318 30.9078 25.5273 31.1072L23.5489 33.0333L24.0157 35.7528C24.0643 36.0343 23.9486 36.3191 23.7173 36.4871C23.5864 36.5826 23.4316 36.6307 23.276 36.6307ZM20.4807 33.6616C20.6006 33.6616 20.7205 33.6902 20.8296 33.7474L22.2785 34.5085L22.0021 32.8982C21.9604 32.6544 22.0413 32.4057 22.2184 32.2333L23.3889 31.0938L21.7703 30.8588C21.5261 30.8233 21.3147 30.6697 21.2052 30.4482L20.4807 28.9819L19.756 30.4482C19.6467 30.6697 19.4351 30.8233 19.1909 30.8588L17.5724 31.0938L18.7428 32.2333C18.9201 32.4057 19.0009 32.6544 18.9593 32.8982L18.6827 34.5085L20.1316 33.7474C20.2407 33.6902 20.3606 33.6616 20.4807 33.6616Z" fill="#00B857"/>
<path d="M37.2209 36.6306C37.1017 36.6306 36.9816 36.602 36.872 36.5445L34.426 35.26L31.9796 36.5445C31.7267 36.6775 31.4205 36.6552 31.189 36.487C30.9579 36.319 30.8425 36.0347 30.8908 35.7527L31.3577 33.0332L29.3795 31.1071C29.1747 30.9077 29.1008 30.6093 29.189 30.3374C29.2774 30.0655 29.5125 29.8672 29.7952 29.8262L32.5302 29.4295L33.753 26.9546C33.8794 26.6984 34.1403 26.5366 34.426 26.5366C34.7116 26.5366 34.9727 26.6984 35.0989 26.9546L36.3219 29.4295L39.0564 29.8262C39.3393 29.8672 39.5746 30.0655 39.6629 30.3374C39.7511 30.6093 39.6772 30.9077 39.4726 31.1071L37.4939 33.0332L37.961 35.7527C38.0096 36.0347 37.8937 36.319 37.6626 36.487C37.5317 36.5825 37.3766 36.6306 37.2209 36.6306ZM34.4258 33.6615C34.5457 33.6615 34.6656 33.6901 34.7747 33.7473L36.2238 34.5084L35.9474 32.8981C35.9054 32.6543 35.9864 32.4056 36.1635 32.2332L37.3339 31.0937L35.7154 30.8587C35.4712 30.8232 35.2596 30.6696 35.1503 30.4481L34.4258 28.9818L33.7014 30.4481C33.5918 30.6696 33.3806 30.8232 33.136 30.8587L31.5179 31.0937L32.6881 32.2332C32.8652 32.4056 32.9462 32.6543 32.9044 32.8981L32.6278 34.5084L34.0767 33.7473C34.186 33.6901 34.3057 33.6615 34.4258 33.6615Z" fill="#00B857"/>
<path d="M3.74012 36.6306C3.58435 36.6306 3.42951 36.582 3.29883 36.487C3.06775 36.319 2.95186 36.0347 3.00018 35.7527L3.46728 33.0332L1.48887 31.1071C1.28406 30.9077 1.21016 30.6093 1.29837 30.3374C1.38682 30.0655 1.62189 29.8672 1.90459 29.8262L4.63959 29.4295L5.86234 26.9546C5.98879 26.6984 6.24967 26.5366 6.53542 26.5366C6.82093 26.5366 7.08181 26.6984 7.20849 26.9546L8.43125 29.4295L11.1658 29.8262C11.4487 29.8672 11.6838 30.0655 11.772 30.3374C11.8602 30.6093 11.7865 30.9077 11.5817 31.1071L9.60332 33.0332L10.0704 35.7527C10.119 36.0347 10.0031 36.319 9.772 36.487C9.54092 36.6552 9.23453 36.6775 8.98162 36.5445L6.53542 35.26L4.08945 36.5445C3.97942 36.602 3.85953 36.6306 3.74012 36.6306ZM3.62728 31.0937L4.79748 32.2332C4.97507 32.4056 5.05554 32.6543 5.01402 32.8981L4.73742 34.5084L6.18633 33.7473C6.40498 33.6326 6.66586 33.6326 6.88427 33.7473L8.33318 34.5084L8.05682 32.8981C8.01506 32.6543 8.09576 32.4056 8.27289 32.2332L9.44356 31.0937L7.82503 30.8587C7.58081 30.8232 7.36943 30.6696 7.26011 30.4481L6.53542 28.9818L5.81073 30.4481C5.7014 30.6696 5.49003 30.8232 5.24557 30.8587L3.62728 31.0937Z" fill="#00B857"/>
<path d="M27.237 4.04913H13.7241C12.896 4.04913 12.2227 4.72268 12.2227 5.55059V19.0755C12.2227 19.9036 12.896 20.5769 13.7241 20.5769H27.237C28.0652 20.5769 28.7385 19.9036 28.7385 19.0755V5.55059C28.7385 4.72268 28.0652 4.04913 27.237 4.04913ZM13.9838 19.0755C13.9704 19.0178 13.9561 18.9225 13.9561 18.7761C13.9561 18.7693 13.9561 18.7627 13.9554 18.7564C13.9554 18.7334 13.9575 17.5013 15.0041 16.4273C16.11 15.292 17.9521 14.717 20.4807 14.717C23.0519 14.717 24.9008 15.2876 25.9767 16.4127C26.9811 17.4637 26.9398 18.6424 26.9384 18.6853C26.9367 18.701 26.9367 18.717 26.9367 18.7325C26.9367 18.9014 26.9243 19.0091 26.9114 19.0755H13.9838ZM18.2285 10.9603C18.2285 9.71691 19.2389 8.70577 20.4807 8.70577C21.7222 8.70577 22.7329 9.71691 22.7329 10.9603C22.7329 12.2035 21.7222 13.2155 20.4807 13.2155C19.2389 13.2155 18.2285 12.2035 18.2285 10.9603ZM27.0937 15.4091C26.19 14.446 24.91 13.7974 23.2727 13.4692C23.87 12.8036 24.2343 11.9243 24.2343 10.9603C24.2343 8.8897 22.5504 7.20431 20.4807 7.20431C18.4108 7.20431 16.727 8.8897 16.727 10.9603C16.727 11.9264 17.0933 12.8078 17.6938 13.4745C16.1053 13.8025 14.8443 14.4392 13.9292 15.3791C13.8569 15.4527 13.7886 15.5269 13.7241 15.6019V5.55059H27.237L27.238 15.5691C27.1913 15.5158 27.1432 15.4623 27.0937 15.4091Z" fill="#00B857"/>
<path d="M28.0194 23.6102H15.9929C15.5781 23.6102 15.2422 23.2737 15.2422 22.8594C15.2422 22.4449 15.5781 22.1087 15.9929 22.1087H28.0194C28.4342 22.1087 28.7701 22.4449 28.7701 22.8594C28.7701 23.2737 28.4342 23.6102 28.0194 23.6102Z" fill="#00B857"/>
<path d="M13.0049 23.6102C12.5901 23.6102 12.2539 23.2737 12.2539 22.8594C12.2539 22.4449 12.5896 22.1087 13.0042 22.1087H13.0049C13.4194 22.1087 13.7556 22.4449 13.7556 22.8594C13.7556 23.2737 13.4194 23.6102 13.0049 23.6102Z" fill="#00B857"/>
</svg>
