<svg width="41" height="41" viewBox="0 0 41 41" fill="none" xmlns="http://www.w3.org/2000/svg">
<g clip-path="url(#clip0)">
<path d="M35.4385 1.85098C34.4955 1.85098 33.7302 2.61631 33.7302 3.55931V4.98321C30.0607 1.7835 25.3807 0 20.3932 0C9.14813 0 0 9.18144 0 20.4658C0 21.4088 0.765333 22.1742 1.70833 22.1742C2.65133 22.1742 3.41667 21.4088 3.41667 20.4658C3.41667 11.0649 11.0324 3.41667 20.3932 3.41667C24.4992 3.41667 28.3566 4.87046 31.3975 7.48165H29.8318C28.8888 7.48165 28.1234 8.24698 28.1234 9.18998C28.1234 10.133 28.8888 10.8983 29.8318 10.8983H35.4385C36.3815 10.8983 37.1469 10.133 37.1469 9.18998V3.55931C37.1469 2.61631 36.3815 1.85098 35.4385 1.85098Z" fill="#01B154"/>
<path d="M39.2915 18.8257C38.3485 18.8257 37.5832 19.591 37.5832 20.534C37.5832 29.935 29.9674 37.5832 20.6066 37.5832C16.5485 37.5832 12.732 36.1653 9.70829 33.6113H11.3491C12.2921 33.6113 13.0575 32.846 13.0575 31.903C13.0575 30.96 12.2921 30.1946 11.3491 30.1946H5.74154C5.72616 30.1946 5.71249 30.1989 5.69797 30.1989C5.63306 30.2006 5.56899 30.2092 5.50408 30.2186C5.45624 30.2254 5.40841 30.2297 5.36143 30.2408C5.30506 30.2536 5.24954 30.2741 5.19402 30.2929C5.14277 30.3108 5.09066 30.3262 5.04112 30.3484C4.99414 30.3697 4.94972 30.3971 4.90445 30.4227C4.85064 30.4535 4.79768 30.4833 4.74729 30.5192C4.73447 30.5286 4.71995 30.5337 4.70714 30.544C4.6781 30.5662 4.65589 30.5935 4.62856 30.6175C4.58329 30.6567 4.53802 30.696 4.49702 30.7405C4.45858 30.7815 4.42527 30.8242 4.39195 30.8677C4.35864 30.9113 4.32618 30.9548 4.29629 31.001C4.26639 31.0488 4.24077 31.0983 4.21599 31.1479C4.19122 31.1966 4.16816 31.2461 4.14852 31.2974C4.12887 31.3503 4.11349 31.4033 4.09897 31.458C4.08531 31.5101 4.07079 31.5622 4.06224 31.616C4.05199 31.6766 4.04772 31.7373 4.04345 31.7988C4.04089 31.8338 4.0332 31.868 4.0332 31.9038V37.5345C4.0332 38.4775 4.79854 39.2428 5.74154 39.2428C6.68454 39.2428 7.44987 38.4775 7.44987 37.5345V36.1764C11.0912 39.2761 15.7011 40.9998 20.6066 40.9998C31.8517 40.9998 40.9998 31.8184 40.9998 20.534C40.9998 19.591 40.2345 18.8257 39.2915 18.8257Z" fill="#01B154"/>
</g>
<defs>
<clipPath id="clip0">
<rect width="41" height="41" fill="white"/>
</clipPath>
</defs>
</svg>
