<svg width="22" height="22" viewBox="0 0 22 22" fill="none" xmlns="http://www.w3.org/2000/svg">
<path d="M21.3125 10.3124H16.8438V6.18745H17.5312C17.5966 6.18747 17.6606 6.16888 17.7157 6.13383C17.7709 6.09879 17.8149 6.04876 17.8426 5.9896C17.8704 5.93044 17.8807 5.8646 17.8723 5.79979C17.864 5.73499 17.8373 5.6739 17.7955 5.6237L16.0768 3.5612C16.0445 3.52246 16.0041 3.4913 15.9584 3.46991C15.9127 3.44852 15.8629 3.43744 15.8125 3.43744C15.7621 3.43744 15.7123 3.44852 15.6666 3.46991C15.6209 3.4913 15.5805 3.52246 15.5482 3.5612L13.8295 5.6237C13.7877 5.6739 13.761 5.73499 13.7527 5.79979C13.7443 5.8646 13.7546 5.93044 13.7824 5.9896C13.8101 6.04876 13.8541 6.09879 13.9093 6.13383C13.9644 6.16888 14.0284 6.18747 14.0938 6.18745H14.7812V10.3124H0.6875C0.596332 10.3124 0.508898 10.3487 0.444432 10.4131C0.379966 10.4776 0.34375 10.565 0.34375 10.6562V20.9687C0.34375 21.0599 0.379966 21.1473 0.444432 21.2118C0.508898 21.2762 0.596332 21.3125 0.6875 21.3125H21.3125C21.4037 21.3125 21.4911 21.2762 21.5556 21.2118C21.62 21.1473 21.6562 21.0599 21.6562 20.9687V10.6562C21.6562 10.565 21.62 10.4776 21.5556 10.4131C21.4911 10.3487 21.4037 10.3124 21.3125 10.3124ZM15.8125 4.31831L16.7973 5.49995H16.5C16.4088 5.49995 16.3214 5.53617 16.2569 5.60063C16.1925 5.6651 16.1562 5.75253 16.1562 5.8437V10.3124H15.4688V5.8437C15.4688 5.75253 15.4325 5.6651 15.3681 5.60063C15.3036 5.53617 15.2162 5.49995 15.125 5.49995H14.8277L15.8125 4.31831ZM1.03125 10.9999H2.72078C2.6488 11.4219 2.44759 11.811 2.14494 12.1136C1.8423 12.4163 1.45316 12.6175 1.03125 12.6895V10.9999ZM1.03125 20.625V18.9354C1.45316 19.0074 1.8423 19.2086 2.14494 19.5113C2.44759 19.8139 2.6488 20.203 2.72078 20.625H1.03125ZM20.9688 20.625H19.2792C19.3512 20.203 19.5524 19.8139 19.8551 19.5113C20.1577 19.2086 20.5468 19.0074 20.9688 18.9354V20.625ZM20.9688 18.241C20.3635 18.3182 19.8009 18.5942 19.3694 19.0257C18.938 19.4571 18.662 20.0197 18.5848 20.625H3.41516C3.338 20.0197 3.06202 19.4571 2.63055 19.0257C2.19908 18.5942 1.63654 18.3182 1.03125 18.241V13.3839C1.63654 13.3067 2.19908 13.0307 2.63055 12.5993C3.06202 12.1678 3.338 11.6052 3.41516 10.9999H18.5848C18.662 11.6052 18.938 12.1678 19.3694 12.5993C19.8009 13.0307 20.3635 13.3067 20.9688 13.3839V18.241ZM20.9688 12.6895C20.5468 12.6175 20.1577 12.4163 19.8551 12.1136C19.5524 11.811 19.3512 11.4219 19.2792 10.9999H20.9688V12.6895Z" fill="white"/>
<path d="M11 19.2499C11.6799 19.2499 12.3445 19.0483 12.9098 18.6706C13.4751 18.2929 13.9157 17.756 14.1758 17.1279C14.436 16.4998 14.5041 15.8086 14.3714 15.1418C14.2388 14.475 13.9114 13.8625 13.4307 13.3818C12.9499 12.901 12.3374 12.5736 11.6706 12.441C11.0038 12.3084 10.3126 12.3764 9.68452 12.6366C9.0564 12.8968 8.51954 13.3374 8.14182 13.9027C7.76411 14.468 7.5625 15.1326 7.5625 15.8124C7.56353 16.7238 7.92603 17.5975 8.57046 18.242C9.21489 18.8864 10.0886 19.2489 11 19.2499ZM11 13.0624C11.5439 13.0624 12.0756 13.2237 12.5278 13.5259C12.98 13.8281 13.3325 14.2576 13.5407 14.7601C13.7488 15.2626 13.8033 15.8155 13.6972 16.3489C13.591 16.8824 13.3291 17.3724 12.9445 17.757C12.5599 18.1416 12.0699 18.4035 11.5365 18.5096C11.003 18.6157 10.4501 18.5612 9.94762 18.3531C9.44512 18.145 9.01563 17.7925 8.71346 17.3403C8.41128 16.888 8.25 16.3563 8.25 15.8124C8.25082 15.0833 8.54081 14.3843 9.05636 13.8688C9.57191 13.3533 10.2709 13.0633 11 13.0624Z" fill="white"/>
<path d="M9.28124 3.43749H9.96874V9.62499C9.96874 9.71616 10.005 9.80359 10.0694 9.86806C10.1339 9.93253 10.2213 9.96874 10.3125 9.96874H11.6875C11.7787 9.96874 11.8661 9.93253 11.9306 9.86806C11.995 9.80359 12.0312 9.71616 12.0312 9.62499V3.43749H12.7187C12.7841 3.43749 12.8481 3.41887 12.9032 3.38381C12.9583 3.34876 13.0023 3.29872 13.03 3.23955C13.0577 3.18039 13.068 3.11455 13.0597 3.04976C13.0513 2.98496 13.0246 2.92389 12.9828 2.8737L11.2641 0.811198C11.2318 0.772482 11.1914 0.741333 11.1458 0.719957C11.1002 0.698581 11.0504 0.6875 11 0.6875C10.9496 0.6875 10.8998 0.698581 10.8542 0.719957C10.8085 0.741333 10.7682 0.772482 10.7359 0.811198L9.01716 2.8737C8.97534 2.92389 8.94868 2.98496 8.94033 3.04976C8.93197 3.11455 8.94225 3.18039 8.96996 3.23955C8.99767 3.29872 9.04167 3.34876 9.0968 3.38381C9.15193 3.41887 9.21591 3.43749 9.28124 3.43749ZM11 1.56835L11.9848 2.74999H11.6875C11.5963 2.74999 11.5089 2.78621 11.4444 2.85067C11.38 2.91514 11.3437 3.00257 11.3437 3.09374V9.28124H10.6562V3.09374C10.6562 3.00257 10.62 2.91514 10.5556 2.85067C10.4911 2.78621 10.4037 2.74999 10.3125 2.74999H10.0151L11 1.56835Z" fill="white"/>
<path d="M4.46874 6.18749H5.15624V8.24999C5.15624 8.34116 5.19246 8.42859 5.25693 8.49306C5.32139 8.55753 5.40883 8.59374 5.49999 8.59374H6.87499C6.96616 8.59374 7.0536 8.55753 7.11806 8.49306C7.18253 8.42859 7.21874 8.34116 7.21874 8.24999V6.18749H7.90624C7.97158 6.18749 8.03556 6.16887 8.09069 6.13381C8.14582 6.09876 8.18982 6.04872 8.21753 5.98955C8.24524 5.93039 8.25552 5.86455 8.24716 5.79976C8.2388 5.73496 8.21215 5.67389 8.17033 5.6237L6.45158 3.5612C6.41932 3.52248 6.37894 3.49133 6.3333 3.46996C6.28767 3.44858 6.23789 3.4375 6.18749 3.4375C6.1371 3.4375 6.08732 3.44858 6.04168 3.46996C5.99605 3.49133 5.95567 3.52248 5.92341 3.5612L4.20466 5.6237C4.16284 5.67389 4.13618 5.73496 4.12783 5.79976C4.11947 5.86455 4.12975 5.93039 4.15746 5.98955C4.18517 6.04872 4.22917 6.09876 4.2843 6.13381C4.33943 6.16887 4.40341 6.18749 4.46874 6.18749ZM6.18749 4.31835L7.17234 5.49999H6.87499C6.78383 5.49999 6.69639 5.53621 6.63193 5.60067C6.56746 5.66514 6.53124 5.75257 6.53124 5.84374V7.90624H5.84374V5.84374C5.84374 5.75257 5.80753 5.66514 5.74306 5.60067C5.6786 5.53621 5.59116 5.49999 5.49999 5.49999H5.20265L6.18749 4.31835Z" fill="white"/>
</svg>
