<svg width="41" height="41" viewBox="0 0 41 41" fill="none" xmlns="http://www.w3.org/2000/svg">
<path d="M27.2158 26.8643C27.2158 30.1756 32.5126 36.7625 33.117 37.5025C33.3407 37.776 33.7437 37.8163 34.0171 37.5926C34.0501 37.5657 34.0802 37.5355 34.1072 37.5025C34.7116 36.7625 40.0083 30.1756 40.0083 26.8643C40.0083 23.3317 37.1447 20.468 33.6121 20.468C30.0795 20.468 27.2158 23.3317 27.2158 26.8643ZM38.7291 26.8643C38.7291 29.0582 35.3973 33.7837 33.6121 36.0749C31.8269 33.7869 28.4951 29.0614 28.4951 26.8643C28.4951 24.0382 30.7861 21.7473 33.6121 21.7473C36.4381 21.7473 38.7291 24.0382 38.7291 26.8643Z" fill="#00B857"/>
<path d="M30.0938 26.2886C30.0938 28.2315 31.6687 29.8065 33.6117 29.8065C35.5546 29.8065 37.1296 28.2315 37.1296 26.2886C37.1296 24.3457 35.5546 22.7707 33.6117 22.7707C31.6698 22.7731 30.0962 24.3467 30.0938 26.2886ZM35.8504 26.2886C35.8504 27.525 34.8481 28.5273 33.6117 28.5273C32.3753 28.5273 31.373 27.525 31.373 26.2886C31.373 25.0522 32.3753 24.0499 33.6117 24.0499C34.8481 24.0499 35.8504 25.0522 35.8504 26.2886Z" fill="#00B857"/>
<path d="M33.6121 38.4415C33.2589 38.4415 32.9725 38.7279 32.9725 39.0811V39.7207H11.8649V38.4415H18.2611C18.6144 38.4415 18.9007 38.1551 18.9007 37.8019V35.883C18.9007 35.5298 18.6144 35.2434 18.2611 35.2434H8.02711V32.0452H20.8196C21.1729 32.0452 21.4593 31.7588 21.4593 31.4056V27.5679C21.4593 27.2146 21.1729 26.9282 20.8196 26.9282H2.91011V24.3697H23.3781C23.7314 24.3697 24.0178 24.0833 24.0178 23.7301V21.1716C24.0178 20.8184 23.7314 20.532 23.3781 20.532H8.02711V18.6131C8.02711 18.2599 7.74072 17.9735 7.38749 17.9735C7.03426 17.9735 6.74786 18.2599 6.74786 18.6131V21.1716C6.74786 21.5248 7.03426 21.8112 7.38749 21.8112H22.7385V23.0905H2.27048C1.91725 23.0905 1.63086 23.3769 1.63086 23.7301V27.5679C1.63086 27.9211 1.91725 28.2075 2.27048 28.2075H20.18V30.766H7.38749C7.03426 30.766 6.74786 31.0524 6.74786 31.4056V35.883C6.74786 36.2362 7.03426 36.5226 7.38749 36.5226H17.6215V37.1622H11.2252C10.872 37.1622 10.5856 37.4486 10.5856 37.8019V40.3604C10.5856 40.7136 10.872 41 11.2252 41H33.6121C33.9654 41 34.2518 40.7136 34.2518 40.3604V39.0811C34.2518 38.7279 33.9654 38.4415 33.6121 38.4415Z" fill="#00B857"/>
<path d="M7.38747 17.2699C7.5796 17.2704 7.76165 17.1839 7.88254 17.0345C8.48698 16.2945 13.7837 9.7076 13.7837 6.39626C13.7837 2.86368 10.92 0 7.38747 0C3.8549 0 0.991211 2.86368 0.991211 6.39626C0.991211 9.7076 6.28795 16.2945 6.8924 17.0345C7.01329 17.1839 7.19534 17.2704 7.38747 17.2699ZM7.38747 1.27925C10.2122 1.28245 12.5013 3.57151 12.5045 6.39626C12.5045 8.59017 9.17266 13.3157 7.38747 15.6069C5.60227 13.3157 2.27046 8.59017 2.27046 6.39626C2.27366 3.57151 4.56272 1.28245 7.38747 1.27925Z" fill="#00B857"/>
<path d="M10.905 5.82058C10.905 3.87764 9.33003 2.30264 7.38708 2.30264C5.44414 2.30264 3.86914 3.87764 3.86914 5.82058C3.86914 7.76352 5.44414 9.33852 7.38708 9.33852C9.32899 9.33604 10.9025 7.76248 10.905 5.82058ZM5.14839 5.82058C5.14839 4.58419 6.15069 3.58189 7.38708 3.58189C8.62348 3.58189 9.62577 4.58419 9.62577 5.82058C9.62577 7.05698 8.62348 8.05927 7.38708 8.05927C6.15069 8.05927 5.14839 7.05698 5.14839 5.82058Z" fill="#00B857"/>
</svg>
