<svg width="40" height="40" viewBox="0 0 40 40" fill="none" xmlns="http://www.w3.org/2000/svg">
<path d="M39.5645 2.58287C39.3521 2.4774 34.3007 0 29.1403 0C26.4005 0 24.1837 0.658099 22.0397 1.29456C19.9464 1.91594 17.9692 2.50295 15.5455 2.50295C10.7676 2.50295 5.88227 0.115699 5.81579 0.0828874C5.70954 0.0302332 5.58158 0.00156244 5.46854 0.00156244H0.781219C0.349752 0.00156244 0 0.351393 0 0.782782V12.5792C0 13.0106 0.349752 13.3604 0.781219 13.3604C1.21269 13.3604 1.56244 13.0106 1.56244 12.5792V1.564H4.68732V31.4066H1.56244V19.6102C1.56244 19.1788 1.21269 18.829 0.781219 18.829C0.349752 18.829 0 19.1788 0 19.6102V39.2188C0 39.6502 0.349752 40 0.781219 40H5.46854C5.9 40 6.24975 39.6502 6.24975 39.2188V23.0805C8.05726 23.8338 11.772 25.1583 15.5455 25.1583C18.203 25.1583 20.3859 24.4698 22.4969 23.804C24.6246 23.1329 26.6343 22.4991 29.1402 22.4991C33.9268 22.4991 38.8213 24.895 38.8699 24.9192C39.1119 25.0392 39.399 25.0258 39.6288 24.8833C39.8587 24.7408 39.9984 24.4897 39.9984 24.2194V3.28268C39.9984 2.9859 39.8303 2.71482 39.5645 2.58287ZM6.24975 9.01855C8.05726 9.77181 11.772 11.0964 15.5455 11.0964C18.203 11.0964 20.3859 10.4079 22.4969 9.74204C24.6246 9.07097 26.6343 8.43717 29.1402 8.43717C33.0996 8.43717 37.1327 10.0765 38.4359 10.6568V15.9836C36.6285 15.2303 32.9138 13.9057 29.1403 13.9057C26.3938 13.9057 24.1739 14.6058 22.027 15.2829C19.9367 15.9422 17.9624 16.5649 15.5455 16.5649C11.5863 16.5649 7.55345 14.9257 6.24975 14.3453V9.01855ZM22.4843 2.79239C24.6151 2.15984 26.6275 1.56244 29.1403 1.56244C33.0996 1.56244 37.1326 3.20167 38.436 3.78196V8.95254C36.6285 8.19929 32.9138 6.87473 29.1403 6.87473C26.3938 6.87473 24.1739 7.57486 22.027 8.25194C19.9367 8.91121 17.9624 9.53392 15.5455 9.53392C11.5863 9.53392 7.55345 7.89477 6.24975 7.31432V1.98758C8.05726 2.74083 11.772 4.06539 15.5455 4.06539C18.1962 4.06539 20.3762 3.41823 22.4843 2.79239ZM1.56244 38.4376V32.969H4.68732V38.4376H1.56244ZM29.1403 20.9367C26.3938 20.9367 24.1739 21.6368 22.027 22.3139C19.9367 22.9732 17.9624 23.5959 15.5455 23.5959C11.5861 23.5959 7.55299 21.9566 6.24975 21.3763V16.0494C8.05726 16.8027 11.772 18.1273 15.5455 18.1273C18.203 18.1273 20.3859 17.4388 22.4969 16.7729C24.6246 16.1019 26.6343 15.4681 29.1402 15.4681C33.0996 15.4681 37.1327 17.1074 38.4359 17.6877V23.0144C36.6283 22.2612 32.9136 20.9367 29.1403 20.9367Z" fill="#00B857"/>
<path d="M0.78125 16.876C1.21272 16.876 1.5625 16.5262 1.5625 16.0948C1.5625 15.6633 1.21272 15.3135 0.78125 15.3135C0.349778 15.3135 0 15.6633 0 16.0948C0 16.5262 0.349778 16.876 0.78125 16.876Z" fill="#00B857"/>
</svg>
