<svg width="14" height="14" viewBox="0 0 14 14" fill="none" xmlns="http://www.w3.org/2000/svg">
<g clip-path="url(#clip0)">
<path d="M13.3291 8.25195C12.9065 7.93628 12.3749 7.83913 11.8682 7.98457L7.1664 9.05444C7.05881 8.95675 6.93527 8.87469 6.79845 8.81312L4.38411 7.72998C3.68184 7.41397 2.87809 7.41785 2.1809 7.7396L0.240363 8.62262C0.0341967 8.71646 -0.0568828 8.95962 0.036931 9.16581C0.130745 9.37195 0.373934 9.46295 0.580127 9.36924L2.52263 8.4853C3.00614 8.26221 3.56191 8.25953 4.04793 8.47819L6.46226 9.56133C6.55433 9.60278 6.63212 9.66633 6.69052 9.74406C7.05208 10.2533 6.52009 10.8753 5.98029 10.6324L3.89265 9.69296C3.68605 9.59997 3.44324 9.69208 3.35033 9.89866C3.25739 10.1052 3.34948 10.348 3.55603 10.441L5.64367 11.3804C6.69353 11.8529 7.84317 10.9287 7.59648 9.79782C10.6856 9.09491 12.0677 8.7809 12.0874 8.77511C12.6344 8.61326 13.1794 9.02256 13.1794 9.59009C13.1794 9.88901 13.0197 10.1693 12.7635 10.3211L8.34475 12.9236C7.87863 13.1998 7.31807 13.2555 6.80676 13.0764L3.41677 11.8899C3.32539 11.858 3.22573 11.8593 3.13528 11.8938L0.264261 12.9875C0.0525985 13.0682 -0.0536563 13.3051 0.0269782 13.5168C0.10764 13.7285 0.344594 13.8346 0.556257 13.7541L3.28722 12.7137L6.53568 13.8505C7.25915 14.104 8.07241 14.0384 8.76197 13.6299L13.1807 11.0274C14.2046 10.4207 14.2846 8.96577 13.3291 8.25195Z" fill="#01B154"/>
<path d="M1.94139 6.53498H12.031C12.2575 6.53498 12.4411 6.35134 12.4411 6.12483C12.4411 5.50535 12.4411 0.981832 12.4411 0.410145C12.4411 0.183636 12.2575 0 12.031 0C11.6036 0 2.35933 0 1.94139 0C1.71489 0 1.53125 0.183636 1.53125 0.410145V6.12483C1.53125 6.35134 1.71486 6.53498 1.94139 6.53498ZM4.31206 0.82029H9.68761C9.85927 1.80393 10.6372 2.60918 11.6208 2.78084V3.78148C10.6372 3.95314 9.85927 4.73108 9.68761 5.71469H4.31206C4.13882 4.72194 3.34806 3.93887 2.35151 3.77694V2.78538C3.34806 2.62345 4.13882 1.81303 4.31206 0.82029ZM2.37888 5.71469V4.62105C2.90923 4.76583 3.32774 5.18437 3.47252 5.71469H2.37888ZM11.6208 5.71469H10.5272C10.672 5.18434 11.0905 4.76583 11.6208 4.62105V5.71469ZM11.6208 0.82029V1.94127C11.0905 1.79649 10.672 1.35063 10.5272 0.82029H11.6208ZM3.47252 0.82029C3.32774 1.35063 2.9092 1.79649 2.37888 1.94127V0.82029H3.47252Z" fill="#01B154"/>
<path d="M6.99996 4.78507C7.82919 4.78507 8.50383 4.11044 8.50383 3.28121C8.50383 2.45198 7.82919 1.77734 6.99996 1.77734C6.17073 1.77734 5.49609 2.45198 5.49609 3.28121C5.49609 4.11044 6.17073 4.78507 6.99996 4.78507ZM6.99996 2.59763C7.37688 2.59763 7.68354 2.90429 7.68354 3.28121C7.68354 3.65813 7.37688 3.96478 6.99996 3.96478C6.62304 3.96478 6.31638 3.65813 6.31638 3.28121C6.31638 2.90429 6.62304 2.59763 6.99996 2.59763Z" fill="#01B154"/>
</g>
<defs>
<clipPath id="clip0">
<rect width="14" height="14" fill="white"/>
</clipPath>
</defs>
</svg>
