<svg width="40" height="40" viewBox="0 0 40 40" fill="none" xmlns="http://www.w3.org/2000/svg">
<g clip-path="url(#clip0)">
<path d="M32.6309 15.9874H17.73C18.419 15.1953 18.8377 14.1622 18.8377 13.0324C18.8377 10.5462 16.8151 8.52365 14.3289 8.52365C11.8428 8.52365 9.82018 10.5462 9.82018 13.0324C9.82018 14.1622 10.2388 15.1953 10.9278 15.9874H7.37081C5.22137 15.9874 3.47266 17.7361 3.47266 19.8855V24.4853C3.47266 24.9159 3.8217 25.2649 4.25229 25.2649C4.68288 25.2649 5.03192 24.9159 5.03192 24.4853V19.8855C5.03192 18.5959 6.08115 17.5466 7.37081 17.5466H29.2005C30.4902 17.5466 31.5394 18.5959 31.5394 19.8855V24.0955H23.4312C21.2818 24.0955 19.5331 25.8443 19.5331 27.9937C19.5331 30.1431 21.2818 31.8919 23.4312 31.8919H31.5394V36.1019C31.5394 37.3915 30.4902 38.4408 29.2005 38.4408H7.37081C6.08115 38.4408 5.03192 37.3915 5.03192 36.1019V31.496C5.03192 31.0654 4.68288 30.7163 4.25229 30.7163C3.8217 30.7163 3.47266 31.0654 3.47266 31.496V36.1019C3.47266 38.2513 5.22137 40 7.37081 40H32.6309C34.7803 40 36.529 38.2513 36.529 36.1019V19.8855C36.529 17.7361 34.7803 15.9874 32.6309 15.9874ZM14.3289 10.083C15.9553 10.083 17.2784 11.4061 17.2784 13.0325C17.2784 14.6589 15.9553 15.982 14.3289 15.982C12.7026 15.982 11.3794 14.6589 11.3794 13.0325C11.3794 11.4061 12.7026 10.083 14.3289 10.083ZM32.3169 17.5466H32.6309C33.9205 17.5466 34.9698 18.5959 34.9698 19.8855V24.0955H33.0986V19.8855C33.0986 19.0087 32.8075 18.1986 32.3169 17.5466ZM21.0923 27.9937C21.0923 26.704 22.1416 25.6548 23.4312 25.6548H34.9698V30.3326H23.4312C22.1416 30.3326 21.0923 29.2834 21.0923 27.9937ZM32.6309 38.4408H32.3169C32.8075 37.7887 33.0986 36.9788 33.0986 36.1019V31.8919H34.9698V36.1019C34.9698 37.3915 33.9205 38.4408 32.6309 38.4408Z" fill="#00B857"/>
<path d="M23.2328 27.214C23.0269 27.214 22.8258 27.2974 22.6808 27.4424C22.5358 27.5874 22.4531 27.7886 22.4531 27.9936C22.4531 28.1987 22.5358 28.3998 22.6808 28.5448C22.8266 28.6898 23.0269 28.7733 23.2328 28.7733C23.4378 28.7733 23.6382 28.6898 23.784 28.5448C23.929 28.3998 24.0124 28.1987 24.0124 27.9936C24.0124 27.7886 23.929 27.5874 23.784 27.4424C23.6389 27.2973 23.4378 27.214 23.2328 27.214Z" fill="#00B857"/>
<path d="M25.6728 10.7324C28.159 10.7324 30.1816 8.70977 30.1816 6.22361C30.1816 3.73752 28.159 1.71484 25.6728 1.71484C23.1867 1.71484 21.1641 3.73744 21.1641 6.22361C21.1641 8.70977 23.1867 10.7324 25.6728 10.7324ZM25.6728 3.27418C27.2991 3.27418 28.6223 4.5973 28.6223 6.22369C28.6223 7.85007 27.2992 9.17319 25.6728 9.17319C24.0464 9.17319 22.7233 7.85007 22.7233 6.22369C22.7233 4.5973 24.0464 3.27418 25.6728 3.27418Z" fill="#00B857"/>
<path d="M18.057 7.68568C18.4876 7.68568 18.8366 7.33664 18.8366 6.90605V0.779631C18.8366 0.349041 18.4876 0 18.057 0C17.6264 0 17.2773 0.349041 17.2773 0.779631V6.90605C17.2773 7.33664 17.6264 7.68568 18.057 7.68568Z" fill="#00B857"/>
<path d="M14.3148 4.98964C14.7454 4.98964 15.0944 4.6406 15.0944 4.21001V0.779631C15.0944 0.349041 14.7454 0 14.3148 0C13.8842 0 13.5352 0.349041 13.5352 0.779631V4.21001C13.5352 4.6406 13.8842 4.98964 14.3148 4.98964Z" fill="#00B857"/>
<path d="M4.25229 28.7733C4.45733 28.7733 4.65848 28.6898 4.80349 28.5448C4.9485 28.3998 5.03192 28.1987 5.03192 27.9936C5.03192 27.7886 4.9485 27.5874 4.80349 27.4424C4.65848 27.2974 4.45811 27.214 4.25229 27.214C4.04725 27.214 3.8461 27.2974 3.70109 27.4424C3.55608 27.5874 3.47266 27.7886 3.47266 27.9936C3.47266 28.1987 3.55608 28.3998 3.70109 28.5448C3.8461 28.6898 4.04717 28.7733 4.25229 28.7733Z" fill="#00B857"/>
</g>
<defs>
<clipPath id="clip0">
<rect width="40" height="40" fill="white"/>
</clipPath>
</defs>
</svg>
