<svg width="40" height="40" viewBox="0 0 40 40" fill="none" xmlns="http://www.w3.org/2000/svg">
<path d="M37.1875 0.625H2.8125C2.23254 0.625641 1.67651 0.856315 1.26641 1.26641C0.856315 1.67651 0.625641 2.23254 0.625 2.8125V6.25C0.625 6.41576 0.690848 6.57473 0.808058 6.69194C0.925268 6.80915 1.08424 6.875 1.25 6.875H3.125V13.7953C1.91681 15.163 1.25001 16.9251 1.25001 18.75C1.25001 20.5749 1.91681 22.337 3.125 23.7047V30.9375C3.12564 31.5175 3.35631 32.0735 3.76641 32.4836C4.17651 32.8937 4.73254 33.1244 5.3125 33.125H5.625V38.75C5.625 38.9158 5.69085 39.0747 5.80806 39.1919C5.92527 39.3092 6.08424 39.375 6.25 39.375H11.25C11.4158 39.375 11.5747 39.3092 11.6919 39.1919C11.8092 39.0747 11.875 38.9158 11.875 38.75V33.125H34.6875C35.2675 33.1244 35.8235 32.8937 36.2336 32.4836C36.6437 32.0735 36.8744 31.5175 36.875 30.9375V6.875H38.75C38.9158 6.875 39.0747 6.80915 39.1919 6.69194C39.3092 6.57473 39.375 6.41576 39.375 6.25V2.8125C39.3744 2.23254 39.1437 1.67651 38.7336 1.26641C38.3235 0.856315 37.7675 0.625641 37.1875 0.625ZM2.5 18.75C2.5 17.5139 2.86656 16.3055 3.55331 15.2777C4.24007 14.2499 5.21619 13.4488 6.35823 12.9758C7.50027 12.5027 8.75693 12.3789 9.96931 12.6201C11.1817 12.8612 12.2953 13.4565 13.1694 14.3306C14.0435 15.2047 14.6388 16.3183 14.8799 17.5307C15.1211 18.7431 14.9973 19.9997 14.5242 21.1418C14.0512 22.2838 13.2501 23.2599 12.2223 23.9467C11.1945 24.6334 9.98613 25 8.75 25C7.09299 24.9981 5.50439 24.339 4.33271 23.1673C3.16102 21.9956 2.50192 20.407 2.5 18.75ZM9.375 26.25V27.5H8.125V26.25H9.375ZM5.625 28.125V31.875H5.3125C5.06392 31.8748 4.82559 31.776 4.64982 31.6002C4.47405 31.4244 4.37521 31.1861 4.375 30.9375V24.8383C5.1282 25.3815 5.97599 25.7797 6.875 26.0125V27.5H6.25C6.08424 27.5 5.92527 27.5658 5.80806 27.6831C5.69085 27.8003 5.625 27.9592 5.625 28.125ZM10.625 38.125H6.875V28.75H10.625V38.125ZM35.625 30.9375C35.6248 31.1861 35.526 31.4244 35.3502 31.6002C35.1744 31.776 34.9361 31.8748 34.6875 31.875H11.875V28.125C11.875 27.9592 11.8092 27.8003 11.6919 27.6831C11.5747 27.5658 11.4158 27.5 11.25 27.5H10.625V26.0125C11.6927 25.7378 12.6866 25.2311 13.5361 24.5285C14.3856 23.8259 15.0698 22.9446 15.5399 21.9474C16.0101 20.9503 16.2546 19.8617 16.2561 18.7593C16.2576 17.6569 16.016 16.5677 15.5486 15.5692C15.0812 14.5708 14.3995 13.6877 13.5519 12.9828C12.7043 12.2778 11.7117 11.7684 10.6448 11.4908C9.5779 11.2132 8.46291 11.1742 7.37922 11.3766C6.29553 11.5789 5.26978 12.0177 4.375 12.6617V6.875H35.625V30.9375ZM38.125 5.625H1.875V2.8125C1.87521 2.56392 1.97405 2.32559 2.14982 2.14982C2.32559 1.97405 2.56392 1.87521 2.8125 1.875H37.1875C37.4361 1.87521 37.6744 1.97405 37.8502 2.14982C38.026 2.32559 38.1248 2.56392 38.125 2.8125V5.625Z" fill="#00B857"/>
<path d="M16.875 11.875H23.125C23.6223 11.875 24.0992 11.6775 24.4508 11.3258C24.8025 10.9742 25 10.4973 25 10C25 9.50272 24.8025 9.02581 24.4508 8.67417C24.0992 8.32254 23.6223 8.125 23.125 8.125H16.875C16.3777 8.125 15.9008 8.32254 15.5492 8.67417C15.1975 9.02581 15 9.50272 15 10C15 10.4973 15.1975 10.9742 15.5492 11.3258C15.9008 11.6775 16.3777 11.875 16.875 11.875ZM16.875 9.375H23.125C23.2908 9.375 23.4497 9.44085 23.5669 9.55806C23.6842 9.67527 23.75 9.83424 23.75 10C23.75 10.1658 23.6842 10.3247 23.5669 10.4419C23.4497 10.5592 23.2908 10.625 23.125 10.625H16.875C16.7092 10.625 16.5503 10.5592 16.4331 10.4419C16.3158 10.3247 16.25 10.1658 16.25 10C16.25 9.83424 16.3158 9.67527 16.4331 9.55806C16.5503 9.44085 16.7092 9.375 16.875 9.375Z" fill="#00B857"/>
<path d="M24.375 22.5V30C24.375 30.1658 24.4408 30.3247 24.5581 30.4419C24.6753 30.5592 24.8342 30.625 25 30.625H33.75C33.9158 30.625 34.0747 30.5592 34.1919 30.4419C34.3092 30.3247 34.375 30.1658 34.375 30V22.5C34.375 22.3342 34.3092 22.1753 34.1919 22.0581C34.0747 21.9408 33.9158 21.875 33.75 21.875H25C24.8342 21.875 24.6753 21.9408 24.5581 22.0581C24.4408 22.1753 24.375 22.3342 24.375 22.5ZM25.625 23.125H33.125V29.375H25.625V23.125Z" fill="#00B857"/>
<path d="M31.875 27.5H26.875C26.7092 27.5 26.5503 27.5658 26.4331 27.6831C26.3158 27.8003 26.25 27.9592 26.25 28.125C26.25 28.2908 26.3158 28.4497 26.4331 28.5669C26.5503 28.6842 26.7092 28.75 26.875 28.75H31.875C32.0408 28.75 32.1997 28.6842 32.3169 28.5669C32.4342 28.4497 32.5 28.2908 32.5 28.125C32.5 27.9592 32.4342 27.8003 32.3169 27.6831C32.1997 27.5658 32.0408 27.5 31.875 27.5Z" fill="#00B857"/>
<path d="M31.875 25.625H26.875C26.7092 25.625 26.5503 25.6908 26.4331 25.8081C26.3158 25.9253 26.25 26.0842 26.25 26.25C26.25 26.4158 26.3158 26.5747 26.4331 26.6919C26.5503 26.8092 26.7092 26.875 26.875 26.875H31.875C32.0408 26.875 32.1997 26.8092 32.3169 26.6919C32.4342 26.5747 32.5 26.4158 32.5 26.25C32.5 26.0842 32.4342 25.9253 32.3169 25.8081C32.1997 25.6908 32.0408 25.625 31.875 25.625Z" fill="#00B857"/>
<path d="M31.875 23.75H26.875C26.7092 23.75 26.5503 23.8158 26.4331 23.9331C26.3158 24.0503 26.25 24.2092 26.25 24.375C26.25 24.5408 26.3158 24.6997 26.4331 24.8169C26.5503 24.9342 26.7092 25 26.875 25H31.875C32.0408 25 32.1997 24.9342 32.3169 24.8169C32.4342 24.6997 32.5 24.5408 32.5 24.375C32.5 24.2092 32.4342 24.0503 32.3169 23.9331C32.1997 23.8158 32.0408 23.75 31.875 23.75Z" fill="#00B857"/>
<path d="M8.75 23.75C9.73891 23.75 10.7056 23.4568 11.5279 22.9074C12.3501 22.3579 12.991 21.577 13.3694 20.6634C13.7478 19.7498 13.8469 18.7445 13.6539 17.7746C13.461 16.8046 12.9848 15.9137 12.2855 15.2145C11.5863 14.5152 10.6954 14.039 9.72545 13.8461C8.75555 13.6531 7.75021 13.7522 6.83658 14.1306C5.92295 14.509 5.14206 15.1499 4.59265 15.9722C4.04324 16.7944 3.75 17.7611 3.75 18.75C3.75149 20.0756 4.27875 21.3465 5.21611 22.2839C6.15347 23.2213 7.42437 23.7485 8.75 23.75ZM8.75 15C9.49168 15 10.2167 15.2199 10.8334 15.632C11.4501 16.044 11.9307 16.6297 12.2145 17.3149C12.4984 18.0002 12.5726 18.7542 12.4279 19.4816C12.2833 20.209 11.9261 20.8772 11.4017 21.4017C10.8772 21.9261 10.209 22.2833 9.48159 22.4279C8.75416 22.5726 8.00016 22.4984 7.31494 22.2146C6.62971 21.9307 6.04404 21.4501 5.63199 20.8334C5.21993 20.2167 5 19.4917 5 18.75C5.00112 17.7558 5.39656 16.8026 6.09958 16.0996C6.8026 15.3966 7.75578 15.0011 8.75 15Z" fill="#00B857"/>
</svg>
