<svg width="41" height="41" viewBox="0 0 41 41" fill="none" xmlns="http://www.w3.org/2000/svg">
<g clip-path="url(#clip0)">
<path d="M37.9159 11.1243L37.9147 11.0924C37.8969 10.6986 37.885 10.282 37.8778 9.81838C37.8443 7.55774 36.0472 5.6878 33.7863 5.56143C29.0723 5.29836 25.4257 3.76124 22.3098 0.72422L22.2832 0.698883C21.2669 -0.232961 19.7339 -0.232961 18.7173 0.698883L18.6907 0.72422C15.5748 3.76124 11.9282 5.29836 7.2142 5.56174C4.95356 5.6878 3.15619 7.55774 3.12272 9.81869C3.11584 10.2791 3.10364 10.6958 3.08581 11.0924L3.08393 11.1666C2.99228 15.9734 2.87842 21.9558 4.87974 27.3858C5.98019 30.3718 7.64681 32.9675 9.833 35.1011C12.3229 37.531 15.5842 39.46 19.5262 40.8345C19.6544 40.8792 19.7877 40.9155 19.9234 40.9427C20.1149 40.9809 20.3076 41 20.5002 41C20.6929 41 20.8859 40.9809 21.0771 40.9427C21.2128 40.9155 21.347 40.8789 21.4759 40.8339C25.4132 39.4569 28.671 37.5269 31.1587 35.0973C33.344 32.9631 35.0106 30.3668 36.112 27.3802C38.1208 21.9339 38.0073 15.9403 37.9159 11.1243ZM33.8548 26.5478C31.744 32.2708 27.4351 36.2012 20.682 38.5629C20.6579 38.571 20.6323 38.5782 20.6057 38.5835C20.5359 38.5973 20.4649 38.5973 20.3942 38.5832C20.3679 38.5779 20.3423 38.571 20.3185 38.5629C13.5582 36.2056 9.24649 32.2774 7.13725 26.554C5.29264 21.5489 5.39712 16.0573 5.4894 11.2125L5.49002 11.1856C5.50879 10.7693 5.5213 10.3333 5.52818 9.85404C5.5432 8.85025 6.34273 8.01976 7.34839 7.96376C10.016 7.81487 12.3595 7.29937 14.5129 6.38786C16.6634 5.47759 18.5734 4.19447 20.3514 2.46529C20.4418 2.38896 20.5591 2.38865 20.6491 2.46529C22.4274 4.19447 24.3374 5.47759 26.4876 6.38786C28.641 7.29937 30.9845 7.81487 33.6524 7.96376C34.6581 8.01976 35.4576 8.85025 35.4723 9.85435C35.4795 10.3361 35.492 10.7721 35.5108 11.1856C35.6028 16.036 35.7047 21.532 33.8548 26.5478Z" fill="#00B857"/>
<path d="M20.499 10.2832C14.8648 10.2832 10.2812 14.8671 10.2812 20.501C10.2812 26.1352 14.8648 30.7191 20.499 30.7191C26.133 30.7191 30.7168 26.1352 30.7168 20.501C30.7168 14.8671 26.133 10.2832 20.499 10.2832ZM20.499 28.313C16.1914 28.313 12.687 24.8086 12.687 20.501C12.687 16.1933 16.1914 12.689 20.499 12.689C24.8064 12.689 28.3107 16.1933 28.3107 20.501C28.3107 24.8086 24.8064 28.313 20.499 28.313Z" fill="#00B857"/>
<path d="M23.4361 17.3292L18.6903 22.0751L17.4021 20.7869C16.9323 20.3171 16.1706 20.3171 15.7008 20.7869C15.2313 21.2568 15.2313 22.0184 15.7008 22.488L17.8397 24.6269C18.0747 24.8618 18.3825 24.9791 18.6903 24.9791C18.9981 24.9791 19.3059 24.8618 19.5408 24.6269L25.1375 19.0302C25.607 18.5604 25.607 17.7987 25.1375 17.3292C24.6676 16.859 23.906 16.859 23.4361 17.3292Z" fill="#00B857"/>
</g>
<defs>
<clipPath id="clip0">
<rect width="41" height="41" fill="white"/>
</clipPath>
</defs>
</svg>
