<svg width="41" height="41" viewBox="0 0 41 41" fill="none" xmlns="http://www.w3.org/2000/svg">
<path d="M35.4685 6.45031L20.7342 0.684684C20.5838 0.626224 20.4169 0.626224 20.2665 0.684684L5.53213 6.45031C5.4042 6.50055 5.29578 6.59053 5.22284 6.70701C5.14989 6.82349 5.11627 6.96032 5.12693 7.09734L7.04881 31.4411C7.05677 31.539 7.08704 31.6338 7.13728 31.7182C7.18753 31.8025 7.25642 31.8743 7.33869 31.928L20.1512 40.2561C20.2552 40.3235 20.3764 40.3594 20.5003 40.3594C20.6242 40.3594 20.7455 40.3235 20.8495 40.2561L33.662 31.928C33.7442 31.8743 33.8131 31.8025 33.8634 31.7182C33.9136 31.6338 33.9439 31.539 33.9519 31.4411L35.8737 7.09734C35.8844 6.96032 35.8508 6.82349 35.7778 6.70701C35.7049 6.59053 35.5965 6.50055 35.4685 6.45031ZM32.6986 31.0255L20.5003 38.9548L8.30203 31.0255L6.44182 7.4705L20.5003 1.96914L34.5588 7.4705L32.6986 31.0255Z" fill="#00B857"/>
<path d="M32.8108 8.13193L20.731 3.45217C20.5821 3.39448 20.417 3.39448 20.2681 3.45217L8.18835 8.13193C8.05936 8.18177 7.95001 8.27208 7.87667 8.3893C7.80333 8.50653 7.76995 8.64437 7.78155 8.78217L9.53927 30.0061C9.54728 30.1035 9.5775 30.1979 9.6276 30.2818C9.67771 30.3658 9.74638 30.4372 9.82835 30.4905L20.1504 37.1995C20.2544 37.2669 20.3756 37.3028 20.4996 37.3028C20.6235 37.3028 20.7447 37.2669 20.8487 37.1995L31.1708 30.4905C31.2527 30.4372 31.3214 30.3658 31.3715 30.2818C31.4216 30.1979 31.4518 30.1035 31.4599 30.0061L33.2176 8.78217C33.2292 8.64437 33.1958 8.50653 33.1225 8.3893C33.0491 8.27208 32.9398 8.18177 32.8108 8.13193ZM30.209 29.5873L20.4996 35.8982L10.7901 29.5873L9.09804 9.15373L20.4996 4.73662L31.9011 9.15373L30.209 29.5873Z" fill="#00B857"/>
<path d="M28.2665 13.3755C27.9061 13.0151 27.4172 12.8126 26.9075 12.8126C26.3979 12.8126 25.909 13.0151 25.5486 13.3755L18.5794 20.3446L16.7352 18.5004C16.5573 18.3196 16.3453 18.1758 16.1115 18.0773C15.8777 17.9787 15.6268 17.9275 15.3731 17.9264C15.1194 17.9254 14.868 17.9746 14.6334 18.0712C14.3988 18.1678 14.1857 18.3099 14.0063 18.4893C13.8269 18.6687 13.6848 18.8819 13.5882 19.1165C13.4915 19.351 13.4423 19.6024 13.4434 19.8561C13.4444 20.1098 13.4957 20.3608 13.5942 20.5946C13.6927 20.8284 13.8365 21.0404 14.0174 21.2183L17.2205 24.4214C17.5809 24.7818 18.0697 24.9843 18.5794 24.9843C19.0891 24.9843 19.5779 24.7818 19.9384 24.4214L28.2665 16.0933C28.6269 15.7329 28.8293 15.2441 28.8293 14.7344C28.8293 14.2247 28.6269 13.7359 28.2665 13.3755ZM27.3608 15.1876L19.0327 23.5157C18.9124 23.6357 18.7494 23.7031 18.5794 23.7031C18.4095 23.7031 18.2465 23.6357 18.1262 23.5157L14.9231 20.3126C14.8029 20.1924 14.7353 20.0294 14.7353 19.8594C14.7353 19.6894 14.8029 19.5263 14.9231 19.4061C15.0433 19.2859 15.2063 19.2184 15.3763 19.2184C15.5463 19.2184 15.7093 19.2859 15.8295 19.4061L18.1262 21.7036C18.2465 21.8236 18.4095 21.891 18.5794 21.891C18.7494 21.891 18.9124 21.8236 19.0327 21.7036L26.4543 14.2811C26.5745 14.1609 26.7375 14.0934 26.9075 14.0934C27.0775 14.0934 27.2406 14.1609 27.3608 14.2811C27.481 14.4013 27.5485 14.5644 27.5485 14.7344C27.5485 14.9044 27.481 15.0674 27.3608 15.1876Z" fill="#00B857"/>
</svg>
