<svg width="24" height="24" viewBox="0 0 24 24" fill="none" xmlns="http://www.w3.org/2000/svg">
<g clip-path="url(#clip0)">
<path d="M20.2009 3.3927L12.371 1.25728C12.3098 1.24082 12.2453 1.24082 12.1841 1.25728L4.35429 3.3927C4.27893 3.41324 4.21242 3.45799 4.16499 3.52005C4.11756 3.58211 4.09185 3.65803 4.09181 3.73614V16.0183C4.09015 16.6773 4.25557 17.3259 4.5726 17.9036C4.88964 18.4812 5.34794 18.9691 5.90469 19.3216L12.0867 23.2552C12.1438 23.2915 12.21 23.3108 12.2776 23.3108C12.3452 23.3108 12.4114 23.2915 12.4684 23.2552L18.6505 19.3216C19.2072 18.9691 19.6655 18.4812 19.9825 17.9036C20.2996 17.3259 20.465 16.6773 20.4633 16.0183V3.73614C20.4633 3.65803 20.4376 3.58211 20.3902 3.52005C20.3427 3.45799 20.2762 3.41324 20.2009 3.3927ZM19.7515 16.0183C19.7529 16.5575 19.6175 17.0881 19.3581 17.5608C19.0988 18.0334 18.7238 18.4326 18.2683 18.721L12.2776 22.5331L6.28684 18.721C5.83134 18.4326 5.45639 18.0334 5.19701 17.5608C4.93763 17.0881 4.80228 16.5575 4.80361 16.0183V4.00796L12.2776 1.96953L19.7515 4.00796V16.0183Z" fill="white"/>
<path d="M18.7775 4.47999L12.3712 2.73296C12.3101 2.71605 12.2455 2.71605 12.1844 2.73296L5.77811 4.47999C5.70275 4.50054 5.63624 4.54529 5.58881 4.60735C5.54139 4.6694 5.51567 4.74533 5.51563 4.82344V16.0184C5.51462 16.4377 5.6199 16.8504 5.82163 17.218C6.02336 17.5856 6.31496 17.8961 6.6692 18.1204L12.0869 21.5678C12.144 21.6041 12.2102 21.6234 12.2778 21.6234C12.3454 21.6234 12.4116 21.6041 12.4686 21.5678L17.8864 18.1204C18.2406 17.8961 18.5322 17.5856 18.7339 17.218C18.9357 16.8504 19.0409 16.4377 19.0399 16.0184V4.82344C19.0399 4.74533 19.0142 4.6694 18.9668 4.60735C18.9193 4.54529 18.8528 4.50054 18.7775 4.47999ZM18.3281 16.0184C18.329 16.3179 18.2538 16.6127 18.1097 16.8753C17.9656 17.1379 17.7573 17.3596 17.5042 17.5198L12.2778 20.8457L7.05135 17.5198C6.7983 17.3596 6.59 17.1378 6.44591 16.8753C6.30183 16.6127 6.22666 16.3179 6.22744 16.0184V5.09526L12.2778 3.44521L18.3281 5.09526V16.0184Z" fill="white"/>
<path d="M15.3024 7.65106H9.25206C9.01616 7.6513 8.78998 7.74512 8.62317 7.91193C8.45636 8.07874 8.36254 8.30491 8.3623 8.54082V14.5912C8.36254 14.8271 8.45636 15.0532 8.62317 15.2201C8.78998 15.3869 9.01616 15.4807 9.25206 15.4809H15.3024C15.5383 15.4807 15.7645 15.3869 15.9313 15.2201C16.0981 15.0532 16.1919 14.8271 16.1922 14.5912V8.54082C16.1919 8.30491 16.0981 8.07874 15.9313 7.91193C15.7645 7.74512 15.5383 7.6513 15.3024 7.65106ZM11.2095 8.36287H13.3449V10.9903L12.4365 10.5357C12.387 10.5111 12.3325 10.4983 12.2772 10.4983C12.222 10.4983 12.1675 10.5111 12.118 10.5357L11.2095 10.9903V8.36287ZM15.4804 14.5912C15.4804 14.6384 15.4616 14.6836 15.4282 14.717C15.3949 14.7504 15.3496 14.7691 15.3024 14.7691H9.25206C9.20487 14.7691 9.1596 14.7504 9.12623 14.717C9.09286 14.6836 9.07411 14.6384 9.07411 14.5912V8.54082C9.07411 8.49362 9.09286 8.44836 9.12623 8.41499C9.1596 8.38162 9.20487 8.36287 9.25206 8.36287H10.4977V11.566C10.4977 11.6267 10.5132 11.6864 10.5427 11.7394C10.5722 11.7924 10.6148 11.837 10.6665 11.869C10.7181 11.9009 10.777 11.9191 10.8376 11.9218C10.8983 11.9245 10.9586 11.9117 11.0129 11.8845L12.2772 11.2519L13.5416 11.8845C13.5959 11.9117 13.6562 11.9245 13.7168 11.9218C13.7775 11.9191 13.8364 11.9009 13.888 11.869C13.9396 11.837 13.9822 11.7924 14.0118 11.7394C14.0413 11.6864 14.0568 11.6267 14.0567 11.566V8.36287H15.3024C15.3496 8.36287 15.3949 8.38162 15.4282 8.41499C15.4616 8.44836 15.4804 8.49362 15.4804 8.54082V14.5912Z" fill="white"/>
</g>
<defs>
<clipPath id="clip0">
<rect width="22.7778" height="22.7778" fill="white" transform="translate(0.888672 0.888916)"/>
</clipPath>
</defs>
</svg>
