<svg width="24" height="24" viewBox="0 0 24 24" fill="none" xmlns="http://www.w3.org/2000/svg">
<g clip-path="url(#clip0)">
<path d="M20.5929 4.47242L12.4071 1.26929C12.3235 1.23681 12.2309 1.23681 12.1473 1.26929L3.96153 4.47242C3.89046 4.50033 3.83023 4.55032 3.78971 4.61503C3.74918 4.67974 3.7305 4.75575 3.73643 4.83188L4.80413 18.3562C4.80856 18.4106 4.82537 18.4632 4.85329 18.5101C4.8812 18.557 4.91948 18.5969 4.96518 18.6267L12.0832 23.2534C12.141 23.2909 12.2084 23.3108 12.2772 23.3108C12.346 23.3108 12.4134 23.2909 12.4712 23.2534L19.5892 18.6267C19.6349 18.5969 19.6732 18.557 19.7011 18.5101C19.729 18.4632 19.7458 18.4106 19.7503 18.3562L20.818 4.83188C20.8239 4.75575 20.8052 4.67974 20.7647 4.61503C20.7242 4.55032 20.6639 4.50033 20.5929 4.47242ZM19.054 18.1253L12.2772 22.5305L5.50037 18.1253L4.46692 5.03919L12.2772 1.98288L20.0875 5.03919L19.054 18.1253Z" fill="white"/>
<path d="M19.1163 5.40668L12.4053 2.80681C12.3226 2.77476 12.2309 2.77476 12.1482 2.80681L5.43721 5.40668C5.36555 5.43437 5.3048 5.48454 5.26405 5.54966C5.22331 5.61479 5.20477 5.69137 5.21121 5.76792L6.18772 17.559C6.19217 17.6131 6.20896 17.6655 6.2368 17.7122C6.26464 17.7588 6.30279 17.7985 6.34832 17.8281L12.0828 21.5553C12.1406 21.5928 12.2079 21.6127 12.2768 21.6127C12.3456 21.6127 12.413 21.5928 12.4707 21.5553L18.2052 17.8281C18.2508 17.7985 18.2889 17.7588 18.3167 17.7122C18.3446 17.6655 18.3614 17.6131 18.3658 17.559L19.3423 5.76792C19.3488 5.69137 19.3302 5.61479 19.2895 5.54966C19.2487 5.48454 19.188 5.43437 19.1163 5.40668ZM17.6709 17.3263L12.2768 20.8324L6.88262 17.3263L5.94259 5.97434L12.2768 3.5204L18.611 5.97434L17.6709 17.3263Z" fill="white"/>
<path d="M16.5915 8.31972C16.3913 8.1195 16.1197 8.00702 15.8365 8.00702C15.5534 8.00702 15.2818 8.1195 15.0816 8.31972L11.2098 12.1915L10.1853 11.1669C10.0864 11.0665 9.96865 10.9866 9.83876 10.9318C9.70888 10.8771 9.56944 10.8486 9.4285 10.8481C9.28756 10.8475 9.14789 10.8748 9.01757 10.9285C8.88724 10.9822 8.76883 11.0611 8.66917 11.1608C8.56951 11.2604 8.49056 11.3788 8.43689 11.5092C8.38322 11.6395 8.35588 11.7792 8.35645 11.9201C8.35703 12.061 8.3855 12.2005 8.44023 12.3304C8.49497 12.4602 8.57487 12.578 8.67534 12.6769L10.4549 14.4564C10.6551 14.6566 10.9267 14.7691 11.2098 14.7691C11.493 14.7691 11.7645 14.6566 11.9648 14.4564L16.5915 9.82964C16.7917 9.6294 16.9042 9.35784 16.9042 9.07468C16.9042 8.79152 16.7917 8.51995 16.5915 8.31972ZM16.0884 9.32648L11.4616 13.9532C11.3948 14.0199 11.3042 14.0573 11.2098 14.0573C11.1154 14.0573 11.0249 14.0199 10.958 13.9532L9.1785 12.1737C9.11172 12.1069 9.0742 12.0163 9.0742 11.9219C9.0742 11.8275 9.11172 11.7369 9.1785 11.6701C9.24528 11.6033 9.33586 11.5658 9.4303 11.5658C9.52475 11.5658 9.61532 11.6033 9.6821 11.6701L10.958 12.9465C11.0249 13.0131 11.1154 13.0506 11.2098 13.0506C11.3042 13.0506 11.3948 13.0131 11.4616 12.9465L15.5847 8.82288C15.6515 8.75609 15.7421 8.71858 15.8365 8.71858C15.931 8.71858 16.0216 8.75609 16.0884 8.82288C16.1551 8.88966 16.1927 8.98023 16.1927 9.07468C16.1927 9.16912 16.1551 9.2597 16.0884 9.32648Z" fill="white"/>
</g>
<defs>
<clipPath id="clip0">
<rect width="22.7778" height="22.7778" fill="white" transform="translate(0.888672 0.888916)"/>
</clipPath>
</defs>
</svg>
