<svg width="22" height="22" viewBox="0 0 22 22" fill="none" xmlns="http://www.w3.org/2000/svg">
<path d="M12.0312 7.5625C11.9401 7.5625 11.8526 7.59872 11.7882 7.66318C11.7237 7.72765 11.6875 7.81508 11.6875 7.90625V9.28125C11.6875 9.37242 11.7237 9.45985 11.7882 9.52432C11.8526 9.58878 11.9401 9.625 12.0312 9.625C12.1224 9.625 12.2099 9.58878 12.2743 9.52432C12.3388 9.45985 12.375 9.37242 12.375 9.28125V7.90625C12.375 7.81508 12.3388 7.72765 12.2743 7.66318C12.2099 7.59872 12.1224 7.5625 12.0312 7.5625Z" fill="white"/>
<path d="M11 7.5625C10.9088 7.5625 10.8214 7.59872 10.7569 7.66318C10.6925 7.72765 10.6562 7.81508 10.6562 7.90625V9.28125C10.6562 9.37242 10.6925 9.45985 10.7569 9.52432C10.8214 9.58878 10.9088 9.625 11 9.625C11.0912 9.625 11.1786 9.58878 11.2431 9.52432C11.3075 9.45985 11.3438 9.37242 11.3438 9.28125V7.90625C11.3438 7.81508 11.3075 7.72765 11.2431 7.66318C11.1786 7.59872 11.0912 7.5625 11 7.5625Z" fill="white"/>
<path d="M13.0625 7.5625C12.9713 7.5625 12.8839 7.59872 12.8194 7.66318C12.755 7.72765 12.7188 7.81508 12.7188 7.90625V9.28125C12.7188 9.37242 12.755 9.45985 12.8194 9.52432C12.8839 9.58878 12.9713 9.625 13.0625 9.625C13.1537 9.625 13.2411 9.58878 13.3056 9.52432C13.37 9.45985 13.4062 9.37242 13.4062 9.28125V7.90625C13.4062 7.81508 13.37 7.72765 13.3056 7.66318C13.2411 7.59872 13.1537 7.5625 13.0625 7.5625Z" fill="white"/>
<path d="M16.8438 7.5625C16.7526 7.5625 16.6651 7.59872 16.6007 7.66318C16.5362 7.72765 16.5 7.81508 16.5 7.90625V9.28125C16.5 9.37242 16.5362 9.45985 16.6007 9.52432C16.6651 9.58878 16.7526 9.625 16.8438 9.625C16.9349 9.625 17.0224 9.58878 17.0868 9.52432C17.1513 9.45985 17.1875 9.37242 17.1875 9.28125V7.90625C17.1875 7.81508 17.1513 7.72765 17.0868 7.66318C17.0224 7.59872 16.9349 7.5625 16.8438 7.5625Z" fill="white"/>
<path d="M15.8125 7.5625C15.7213 7.5625 15.6339 7.59872 15.5694 7.66318C15.505 7.72765 15.4688 7.81508 15.4688 7.90625V9.28125C15.4688 9.37242 15.505 9.45985 15.5694 9.52432C15.6339 9.58878 15.7213 9.625 15.8125 9.625C15.9037 9.625 15.9911 9.58878 16.0556 9.52432C16.12 9.45985 16.1562 9.37242 16.1562 9.28125V7.90625C16.1562 7.81508 16.12 7.72765 16.0556 7.66318C15.9911 7.59872 15.9037 7.5625 15.8125 7.5625Z" fill="white"/>
<path d="M17.875 9.625C17.9662 9.625 18.0536 9.58878 18.1181 9.52432C18.1825 9.45985 18.2188 9.37242 18.2188 9.28125V7.90625C18.2188 7.81508 18.1825 7.72765 18.1181 7.66318C18.0536 7.59872 17.9662 7.5625 17.875 7.5625C17.7838 7.5625 17.6964 7.59872 17.6319 7.66318C17.5675 7.72765 17.5312 7.81508 17.5312 7.90625V9.28125C17.5312 9.37242 17.5675 9.45985 17.6319 9.52432C17.6964 9.58878 17.7838 9.625 17.875 9.625Z" fill="white"/>
<path d="M14.7812 6.1875C14.8724 6.1875 14.9599 6.15128 15.0243 6.08682C15.0888 6.02235 15.125 5.93492 15.125 5.84375V4.46875C15.125 4.37758 15.0888 4.29015 15.0243 4.22568C14.9599 4.16122 14.8724 4.125 14.7812 4.125C14.6901 4.125 14.6026 4.16122 14.5382 4.22568C14.4737 4.29015 14.4375 4.37758 14.4375 4.46875V5.84375C14.4375 5.93492 14.4737 6.02235 14.5382 6.08682C14.6026 6.15128 14.6901 6.1875 14.7812 6.1875Z" fill="white"/>
<path d="M13.75 4.125C13.6588 4.125 13.5714 4.16122 13.5069 4.22568C13.4425 4.29015 13.4062 4.37758 13.4062 4.46875V5.84375C13.4062 5.93492 13.4425 6.02235 13.5069 6.08682C13.5714 6.15128 13.6588 6.1875 13.75 6.1875C13.8412 6.1875 13.9286 6.15128 13.9931 6.08682C14.0575 6.02235 14.0938 5.93492 14.0938 5.84375V4.46875C14.0938 4.37758 14.0575 4.29015 13.9931 4.22568C13.9286 4.16122 13.8412 4.125 13.75 4.125Z" fill="white"/>
<path d="M15.8125 6.1875C15.9037 6.1875 15.9911 6.15128 16.0556 6.08682C16.12 6.02235 16.1562 5.93492 16.1562 5.84375V4.46875C16.1562 4.37758 16.12 4.29015 16.0556 4.22568C15.9911 4.16122 15.9037 4.125 15.8125 4.125C15.7213 4.125 15.6339 4.16122 15.5694 4.22568C15.505 4.29015 15.4688 4.37758 15.4688 4.46875V5.84375C15.4688 5.93492 15.505 6.02235 15.5694 6.08682C15.6339 6.15128 15.7213 6.1875 15.8125 6.1875Z" fill="white"/>
<path d="M21.3125 15.4688H19.1185L21.6202 10.4663C21.6463 10.4139 21.6586 10.3556 21.6559 10.2971C21.6532 10.2386 21.6357 10.1817 21.6049 10.1319C21.574 10.0821 21.531 10.0409 21.4799 10.0124C21.4287 9.98381 21.3711 9.9688 21.3125 9.96875H19.5937V6.875C19.5937 6.78383 19.5575 6.6964 19.4931 6.63193C19.4286 6.56747 19.3412 6.53125 19.25 6.53125H17.5312V3.4375C17.5312 3.34633 17.495 3.2589 17.4306 3.19443C17.3661 3.12997 17.2787 3.09375 17.1875 3.09375H12.375C12.2838 3.09375 12.1964 3.12997 12.1319 3.19443C12.0675 3.2589 12.0312 3.34633 12.0312 3.4375V6.53125H9.625C9.53383 6.53125 9.4464 6.56747 9.38193 6.63193C9.31747 6.6964 9.28125 6.78383 9.28125 6.875V9.96875H7.90625V6.875C7.90625 6.78383 7.87003 6.6964 7.80557 6.63193C7.7411 6.56747 7.65367 6.53125 7.5625 6.53125H6.1875V5.5C6.1875 5.40883 6.15128 5.3214 6.08682 5.25693C6.02235 5.19247 5.93492 5.15625 5.84375 5.15625H4.8125V3.4375C4.8125 3.34633 4.77628 3.2589 4.71182 3.19443C4.64735 3.12997 4.55992 3.09375 4.46875 3.09375C4.37758 3.09375 4.29015 3.12997 4.22568 3.19443C4.16122 3.2589 4.125 3.34633 4.125 3.4375V3.91273L3.93508 3.81734C3.89468 3.79714 3.85069 3.7851 3.80563 3.7819C3.76058 3.77869 3.71533 3.7844 3.67248 3.79868C3.58593 3.82753 3.51439 3.88958 3.47359 3.97117C3.45339 4.01157 3.44135 4.05556 3.43814 4.10062C3.43494 4.14567 3.44065 4.19092 3.45493 4.23377C3.48378 4.32032 3.54583 4.39186 3.62742 4.43266L4.125 4.68102V5.15625H3.78125C3.69008 5.15625 3.60265 5.19247 3.53818 5.25693C3.47372 5.3214 3.4375 5.40883 3.4375 5.5V6.53125H2.75C2.65883 6.53125 2.5714 6.56747 2.50693 6.63193C2.44247 6.6964 2.40625 6.78383 2.40625 6.875V9.96875H0.6875C0.635267 9.96876 0.583722 9.98067 0.536781 10.0036C0.48984 10.0265 0.448737 10.0598 0.416594 10.101C0.384452 10.1421 0.362114 10.1901 0.351279 10.2412C0.340444 10.2923 0.341396 10.3452 0.354062 10.3959L1.62207 15.4688H0.6875C0.596332 15.4688 0.508898 15.505 0.444432 15.5694C0.379966 15.6339 0.34375 15.7213 0.34375 15.8125C0.34375 15.9037 0.379966 15.9911 0.444432 16.0556C0.508898 16.12 0.596332 16.1562 0.6875 16.1562H21.3125C21.4037 16.1562 21.4911 16.12 21.5556 16.0556C21.62 15.9911 21.6562 15.9037 21.6562 15.8125C21.6562 15.7213 21.62 15.6339 21.5556 15.5694C21.4911 15.505 21.4037 15.4688 21.3125 15.4688ZM18.9062 7.21875V9.96875H14.7812V7.21875H18.9062ZM12.7187 3.78125H16.8437V6.53125H12.7187V3.78125ZM9.96875 7.21875H14.0937V9.96875H9.96875V7.21875ZM4.125 5.84375H5.5V6.53125H4.125V5.84375ZM3.09375 7.21875H7.21875V7.5625H4.8125C4.72133 7.5625 4.6339 7.59872 4.56943 7.66318C4.50497 7.72765 4.46875 7.81508 4.46875 7.90625V9.28125C4.46875 9.37242 4.50497 9.45985 4.56943 9.52432C4.6339 9.58878 4.72133 9.625 4.8125 9.625H7.21875V9.96875H3.09375V7.21875ZM7.21875 8.25V8.9375H5.15625V8.25H7.21875ZM18.3502 15.4688H2.33105L1.12793 10.6562H20.7565L18.3502 15.4688Z" fill="white"/>
<path d="M5.15625 11.3438H2.40625C2.31508 11.3438 2.22765 11.38 2.16318 11.4444C2.09872 11.5089 2.0625 11.5963 2.0625 11.6875C2.0625 11.7787 2.09872 11.8661 2.16318 11.9306C2.22765 11.995 2.31508 12.0312 2.40625 12.0312H5.15625C5.24742 12.0312 5.33485 11.995 5.39932 11.9306C5.46378 11.8661 5.5 11.7787 5.5 11.6875C5.5 11.5963 5.46378 11.5089 5.39932 11.4444C5.33485 11.38 5.24742 11.3438 5.15625 11.3438Z" fill="white"/>
<path d="M6.53125 11.3438H6.1875C6.09633 11.3438 6.0089 11.38 5.94443 11.4444C5.87997 11.5089 5.84375 11.5963 5.84375 11.6875C5.84375 11.7787 5.87997 11.8661 5.94443 11.9306C6.0089 11.995 6.09633 12.0312 6.1875 12.0312H6.53125C6.62242 12.0312 6.70985 11.995 6.77432 11.9306C6.83878 11.8661 6.875 11.7787 6.875 11.6875C6.875 11.5963 6.83878 11.5089 6.77432 11.4444C6.70985 11.38 6.62242 11.3438 6.53125 11.3438Z" fill="white"/>
<path d="M21.3125 17.1875C20.8347 17.1875 20.6179 17.0574 20.3433 16.8927C20.0365 16.7086 19.6888 16.5 19.0206 16.5C18.3524 16.5 18.0046 16.7086 17.6978 16.8927C17.4233 17.0574 17.2064 17.1875 16.7287 17.1875C16.251 17.1875 16.0342 17.0574 15.7597 16.8927C15.4529 16.7086 15.1052 16.5 14.4371 16.5C13.7689 16.5 13.4212 16.7086 13.1144 16.8927C12.8399 17.0574 12.6231 17.1875 12.1454 17.1875C11.6677 17.1875 11.451 17.0574 11.1765 16.8928C10.8697 16.7086 10.522 16.5 9.85385 16.5C9.18573 16.5 8.83803 16.7086 8.53123 16.8928C8.25675 17.0574 8.03997 17.1875 7.5625 17.1875C7.08503 17.1875 6.86804 17.0574 6.59355 16.8928C6.28676 16.7086 5.93901 16.5 5.27085 16.5C4.60268 16.5 4.25502 16.7086 3.94823 16.8927C3.67357 17.0574 3.45679 17.1875 2.97915 17.1875C2.50151 17.1875 2.28461 17.0574 2.01016 16.8927C1.70337 16.7086 1.35562 16.5 0.6875 16.5C0.596332 16.5 0.508898 16.5362 0.444432 16.6007C0.379966 16.6651 0.34375 16.7526 0.34375 16.8438C0.34375 16.9349 0.379966 17.0224 0.444432 17.0868C0.508898 17.1513 0.596332 17.1875 0.6875 17.1875C1.16518 17.1875 1.38196 17.3176 1.65645 17.4822C1.96324 17.6664 2.31099 17.875 2.97915 17.875C3.64732 17.875 3.99498 17.6664 4.30177 17.4822C4.57617 17.3176 4.79304 17.1875 5.27068 17.1875C5.74832 17.1875 5.96518 17.3176 6.23966 17.4823C6.54646 17.6664 6.89421 17.875 7.56233 17.875C8.23045 17.875 8.57819 17.6664 8.88495 17.4822C9.15943 17.3176 9.37621 17.1875 9.85385 17.1875C10.3315 17.1875 10.5483 17.3176 10.8228 17.4823C11.1296 17.6664 11.4773 17.875 12.1454 17.875C12.8135 17.875 13.1613 17.6664 13.4681 17.4822C13.7426 17.3176 13.9594 17.1875 14.4371 17.1875C14.9148 17.1875 15.1315 17.3176 15.406 17.4823C15.7129 17.6664 16.0606 17.875 16.7287 17.875C17.3968 17.875 17.7446 17.6664 18.0514 17.4823C18.326 17.3176 18.5428 17.1875 19.0206 17.1875C19.4984 17.1875 19.7152 17.3176 19.9897 17.4823C20.2965 17.6664 20.6443 17.875 21.3125 17.875C21.4037 17.875 21.4911 17.8388 21.5556 17.7743C21.62 17.7099 21.6562 17.6224 21.6562 17.5312C21.6562 17.4401 21.62 17.3526 21.5556 17.2882C21.4911 17.2237 21.4037 17.1875 21.3125 17.1875Z" fill="white"/>
<path d="M21.3125 18.5625C20.8347 18.5625 20.6179 18.4324 20.3433 18.2677C20.0365 18.0836 19.6888 17.875 19.0206 17.875C18.3524 17.875 18.0046 18.0836 17.6978 18.2677C17.4233 18.4324 17.2064 18.5625 16.7287 18.5625C16.251 18.5625 16.0342 18.4324 15.7597 18.2677C15.4529 18.0836 15.1052 17.875 14.4371 17.875C13.7689 17.875 13.4212 18.0836 13.1144 18.2677C12.8399 18.4324 12.6231 18.5625 12.1454 18.5625C11.6677 18.5625 11.451 18.4324 11.1765 18.2678C10.8697 18.0836 10.522 17.875 9.85385 17.875C9.18573 17.875 8.83803 18.0836 8.53123 18.2678C8.25675 18.4324 8.03997 18.5625 7.5625 18.5625C7.08503 18.5625 6.86804 18.4324 6.59355 18.2678C6.28676 18.0836 5.93901 17.875 5.27085 17.875C4.60268 17.875 4.25502 18.0836 3.94823 18.2677C3.67357 18.4324 3.45679 18.5625 2.97915 18.5625C2.50151 18.5625 2.28461 18.4324 2.01016 18.2677C1.70337 18.0836 1.35562 17.875 0.6875 17.875C0.596332 17.875 0.508898 17.9112 0.444432 17.9757C0.379966 18.0401 0.34375 18.1276 0.34375 18.2188C0.34375 18.3099 0.379966 18.3974 0.444432 18.4618C0.508898 18.5263 0.596332 18.5625 0.6875 18.5625C1.16518 18.5625 1.38196 18.6926 1.65645 18.8572C1.96324 19.0414 2.31099 19.25 2.97915 19.25C3.64732 19.25 3.99498 19.0414 4.30177 18.8572C4.57617 18.6926 4.79304 18.5625 5.27068 18.5625C5.74832 18.5625 5.96518 18.6926 6.23966 18.8573C6.54646 19.0414 6.89421 19.25 7.56233 19.25C8.23045 19.25 8.57819 19.0414 8.88495 18.8572C9.15943 18.6926 9.37621 18.5625 9.85385 18.5625C10.3315 18.5625 10.5483 18.6926 10.8228 18.8573C11.1296 19.0414 11.4773 19.25 12.1454 19.25C12.8135 19.25 13.1613 19.0414 13.4681 18.8572C13.7426 18.6926 13.9594 18.5625 14.4371 18.5625C14.9148 18.5625 15.1315 18.6926 15.406 18.8573C15.7129 19.0414 16.0606 19.25 16.7287 19.25C17.3968 19.25 17.7446 19.0414 18.0514 18.8573C18.326 18.6926 18.5428 18.5625 19.0206 18.5625C19.4984 18.5625 19.7152 18.6926 19.9897 18.8573C20.2965 19.0414 20.6443 19.25 21.3125 19.25C21.4037 19.25 21.4911 19.2138 21.5556 19.1493C21.62 19.0849 21.6562 18.9974 21.6562 18.9062C21.6562 18.8151 21.62 18.7276 21.5556 18.6632C21.4911 18.5987 21.4037 18.5625 21.3125 18.5625Z" fill="white"/>
</svg>
