<svg width="41" height="41" viewBox="0 0 41 41" fill="none" xmlns="http://www.w3.org/2000/svg">
<path d="M22.4219 14.0938C22.252 14.0938 22.089 14.1612 21.9689 14.2814C21.8487 14.4015 21.7812 14.5645 21.7812 14.7344V17.2969C21.7812 17.4668 21.8487 17.6297 21.9689 17.7499C22.089 17.87 22.252 17.9375 22.4219 17.9375C22.5918 17.9375 22.7547 17.87 22.8749 17.7499C22.995 17.6297 23.0625 17.4668 23.0625 17.2969V14.7344C23.0625 14.5645 22.995 14.4015 22.8749 14.2814C22.7547 14.1612 22.5918 14.0938 22.4219 14.0938Z" fill="#00B857"/>
<path d="M20.5 14.0938C20.3301 14.0938 20.1671 14.1612 20.047 14.2814C19.9269 14.4015 19.8594 14.5645 19.8594 14.7344V17.2969C19.8594 17.4668 19.9269 17.6297 20.047 17.7499C20.1671 17.87 20.3301 17.9375 20.5 17.9375C20.6699 17.9375 20.8329 17.87 20.953 17.7499C21.0731 17.6297 21.1406 17.4668 21.1406 17.2969V14.7344C21.1406 14.5645 21.0731 14.4015 20.953 14.2814C20.8329 14.1612 20.6699 14.0938 20.5 14.0938Z" fill="#00B857"/>
<path d="M24.3438 14.0938C24.1738 14.0938 24.0109 14.1612 23.8908 14.2814C23.7706 14.4015 23.7031 14.5645 23.7031 14.7344V17.2969C23.7031 17.4668 23.7706 17.6297 23.8908 17.7499C24.0109 17.87 24.1738 17.9375 24.3438 17.9375C24.5137 17.9375 24.6766 17.87 24.7967 17.7499C24.9169 17.6297 24.9844 17.4668 24.9844 17.2969V14.7344C24.9844 14.5645 24.9169 14.4015 24.7967 14.2814C24.6766 14.1612 24.5137 14.0938 24.3438 14.0938Z" fill="#00B857"/>
<path d="M31.3906 14.0938C31.2207 14.0938 31.0578 14.1612 30.9376 14.2814C30.8175 14.4015 30.75 14.5645 30.75 14.7344V17.2969C30.75 17.4668 30.8175 17.6297 30.9376 17.7499C31.0578 17.87 31.2207 17.9375 31.3906 17.9375C31.5605 17.9375 31.7235 17.87 31.8436 17.7499C31.9638 17.6297 32.0312 17.4668 32.0312 17.2969V14.7344C32.0312 14.5645 31.9638 14.4015 31.8436 14.2814C31.7235 14.1612 31.5605 14.0938 31.3906 14.0938Z" fill="#00B857"/>
<path d="M29.4688 14.0938C29.2988 14.0938 29.1359 14.1612 29.0158 14.2814C28.8956 14.4015 28.8281 14.5645 28.8281 14.7344V17.2969C28.8281 17.4668 28.8956 17.6297 29.0158 17.7499C29.1359 17.87 29.2988 17.9375 29.4688 17.9375C29.6387 17.9375 29.8016 17.87 29.9217 17.7499C30.0419 17.6297 30.1094 17.4668 30.1094 17.2969V14.7344C30.1094 14.5645 30.0419 14.4015 29.9217 14.2814C29.8016 14.1612 29.6387 14.0938 29.4688 14.0938Z" fill="#00B857"/>
<path d="M33.3125 17.9375C33.4824 17.9375 33.6454 17.87 33.7655 17.7499C33.8856 17.6297 33.9531 17.4668 33.9531 17.2969V14.7344C33.9531 14.5645 33.8856 14.4015 33.7655 14.2814C33.6454 14.1612 33.4824 14.0938 33.3125 14.0938C33.1426 14.0938 32.9796 14.1612 32.8595 14.2814C32.7394 14.4015 32.6719 14.5645 32.6719 14.7344V17.2969C32.6719 17.4668 32.7394 17.6297 32.8595 17.7499C32.9796 17.87 33.1426 17.9375 33.3125 17.9375Z" fill="#00B857"/>
<path d="M27.5469 11.5312C27.7168 11.5312 27.8797 11.4638 27.9999 11.3436C28.12 11.2235 28.1875 11.0605 28.1875 10.8906V8.32812C28.1875 8.15822 28.12 7.99528 27.9999 7.87513C27.8797 7.75499 27.7168 7.6875 27.5469 7.6875C27.377 7.6875 27.214 7.75499 27.0939 7.87513C26.9737 7.99528 26.9062 8.15822 26.9062 8.32812V10.8906C26.9062 11.0605 26.9737 11.2235 27.0939 11.3436C27.214 11.4638 27.377 11.5312 27.5469 11.5312Z" fill="#00B857"/>
<path d="M25.625 7.6875C25.4551 7.6875 25.2921 7.75499 25.172 7.87513C25.0519 7.99528 24.9844 8.15822 24.9844 8.32812V10.8906C24.9844 11.0605 25.0519 11.2235 25.172 11.3436C25.2921 11.4638 25.4551 11.5312 25.625 11.5312C25.7949 11.5312 25.9579 11.4638 26.078 11.3436C26.1981 11.2235 26.2656 11.0605 26.2656 10.8906V8.32812C26.2656 8.15822 26.1981 7.99528 26.078 7.87513C25.9579 7.75499 25.7949 7.6875 25.625 7.6875Z" fill="#00B857"/>
<path d="M29.4688 11.5312C29.6387 11.5312 29.8016 11.4638 29.9217 11.3436C30.0419 11.2235 30.1094 11.0605 30.1094 10.8906V8.32812C30.1094 8.15822 30.0419 7.99528 29.9217 7.87513C29.8016 7.75499 29.6387 7.6875 29.4688 7.6875C29.2988 7.6875 29.1359 7.75499 29.0158 7.87513C28.8956 7.99528 28.8281 8.15822 28.8281 8.32812V10.8906C28.8281 11.0605 28.8956 11.2235 29.0158 11.3436C29.1359 11.4638 29.2988 11.5312 29.4688 11.5312Z" fill="#00B857"/>
<path d="M39.7187 28.8281H35.63L40.2921 19.5054C40.3408 19.4077 40.3638 19.2992 40.3588 19.1901C40.3538 19.081 40.321 18.975 40.2636 18.8821C40.2062 18.7893 40.126 18.7126 40.0306 18.6594C39.9353 18.6062 39.8279 18.5782 39.7187 18.5781H36.5156V12.8125C36.5156 12.6426 36.4481 12.4796 36.328 12.3595C36.2078 12.2394 36.0449 12.1719 35.875 12.1719H32.6719V6.40625C32.6719 6.23635 32.6044 6.0734 32.4842 5.95326C32.3641 5.83312 32.2012 5.76562 32.0312 5.76562H23.0625C22.8926 5.76562 22.7296 5.83312 22.6095 5.95326C22.4894 6.0734 22.4219 6.23635 22.4219 6.40625V12.1719H17.9375C17.7676 12.1719 17.6046 12.2394 17.4845 12.3595C17.3644 12.4796 17.2969 12.6426 17.2969 12.8125V18.5781H14.7344V12.8125C14.7344 12.6426 14.6669 12.4796 14.5467 12.3595C14.4266 12.2394 14.2637 12.1719 14.0937 12.1719H11.5312V10.25C11.5312 10.0801 11.4638 9.91715 11.3436 9.79701C11.2235 9.67687 11.0605 9.60938 10.8906 9.60938H8.96875V6.40625C8.96875 6.23635 8.90125 6.0734 8.78111 5.95326C8.66097 5.83312 8.49803 5.76562 8.32812 5.76562C8.15822 5.76562 7.99527 5.83312 7.87513 5.95326C7.75499 6.0734 7.6875 6.23635 7.6875 6.40625V7.29191L7.33355 7.11414C7.25826 7.07649 7.17629 7.05404 7.09232 7.04808C7.00835 7.04211 6.92402 7.05274 6.84416 7.07936C6.68287 7.13312 6.54955 7.24876 6.47351 7.40082C6.43587 7.47611 6.41342 7.55809 6.40745 7.64206C6.40148 7.72603 6.41211 7.81035 6.43873 7.89021C6.4925 8.0515 6.60813 8.18483 6.76019 8.26086L7.6875 8.72371V9.60938H7.04687C6.87697 9.60938 6.71402 9.67687 6.59388 9.79701C6.47374 9.91715 6.40625 10.0801 6.40625 10.25V12.1719H5.125C4.9551 12.1719 4.79215 12.2394 4.67201 12.3595C4.55187 12.4796 4.48437 12.6426 4.48437 12.8125V18.5781H1.28125C1.18391 18.5781 1.08785 18.6003 1.00036 18.643C0.912883 18.6857 0.836283 18.7478 0.77638 18.8245C0.716478 18.9013 0.67485 18.9906 0.654657 19.0859C0.634464 19.1811 0.636238 19.2797 0.659844 19.3741L3.02295 28.8281H1.28125C1.11135 28.8281 0.9484 28.8956 0.82826 29.0158C0.708119 29.1359 0.640625 29.2988 0.640625 29.4688C0.640625 29.6387 0.708119 29.8016 0.82826 29.9217C0.9484 30.0419 1.11135 30.1094 1.28125 30.1094H39.7187C39.8886 30.1094 40.0516 30.0419 40.1717 29.9217C40.2919 29.8016 40.3594 29.6387 40.3594 29.4688C40.3594 29.2988 40.2919 29.1359 40.1717 29.0158C40.0516 28.8956 39.8886 28.8281 39.7187 28.8281ZM35.2344 13.4531V18.5781H27.5469V13.4531H35.2344ZM23.7031 7.04688H31.3906V12.1719H23.7031V7.04688ZM18.5781 13.4531H26.2656V18.5781H18.5781V13.4531ZM7.6875 10.8906H10.25V12.1719H7.6875V10.8906ZM5.76562 13.4531H13.4531V14.0938H8.96875C8.79885 14.0938 8.6359 14.1612 8.51576 14.2814C8.39562 14.4015 8.32812 14.5645 8.32812 14.7344V17.2969C8.32812 17.4668 8.39562 17.6297 8.51576 17.7499C8.6359 17.87 8.79885 17.9375 8.96875 17.9375H13.4531V18.5781H5.76562V13.4531ZM13.4531 15.375V16.6562H9.60937V15.375H13.4531ZM34.1982 28.8281H4.34424L2.10205 19.8594H38.6825L34.1982 28.8281Z" fill="#00B857"/>
<path d="M9.60938 21.1406H4.48438C4.31447 21.1406 4.15153 21.2081 4.03138 21.3283C3.91124 21.4484 3.84375 21.6113 3.84375 21.7812C3.84375 21.9512 3.91124 22.1141 4.03138 22.2342C4.15153 22.3544 4.31447 22.4219 4.48438 22.4219H9.60938C9.77928 22.4219 9.94222 22.3544 10.0624 22.2342C10.1825 22.1141 10.25 21.9512 10.25 21.7812C10.25 21.6113 10.1825 21.4484 10.0624 21.3283C9.94222 21.2081 9.77928 21.1406 9.60938 21.1406Z" fill="#00B857"/>
<path d="M12.1719 21.1406H11.5312C11.3613 21.1406 11.1984 21.2081 11.0783 21.3283C10.9581 21.4484 10.8906 21.6113 10.8906 21.7812C10.8906 21.9512 10.9581 22.1141 11.0783 22.2342C11.1984 22.3544 11.3613 22.4219 11.5312 22.4219H12.1719C12.3418 22.4219 12.5047 22.3544 12.6249 22.2342C12.745 22.1141 12.8125 21.9512 12.8125 21.7812C12.8125 21.6113 12.745 21.4484 12.6249 21.3283C12.5047 21.2081 12.3418 21.1406 12.1719 21.1406Z" fill="#00B857"/>
<path d="M39.7188 32.0312C38.8284 32.0312 38.4242 31.7889 37.9126 31.4819C37.3408 31.1388 36.6927 30.75 35.4475 30.75C34.2022 30.75 33.5541 31.1388 32.9823 31.4819C32.4706 31.7889 32.0665 32.0312 31.1762 32.0312C30.2859 32.0312 29.882 31.7889 29.3704 31.4819C28.7987 31.1388 28.1506 30.75 26.9054 30.75C25.6603 30.75 25.0123 31.1388 24.4405 31.4819C23.9289 31.7889 23.525 32.0312 22.6346 32.0312C21.7443 32.0312 21.3405 31.7889 20.829 31.482C20.2572 31.1388 19.6091 30.75 18.364 30.75C17.1189 30.75 16.4709 31.1388 15.8991 31.482C15.3876 31.7889 14.9836 32.0312 14.0938 32.0312C13.2039 32.0312 12.7995 31.7889 12.288 31.482C11.7162 31.1388 11.0682 30.75 9.82294 30.75C8.57773 30.75 7.92982 31.1388 7.35806 31.4819C6.8462 31.7889 6.4422 32.0312 5.55206 32.0312C4.66191 32.0312 4.25767 31.7889 3.74621 31.4819C3.17446 31.1388 2.52638 30.75 1.28125 30.75C1.11135 30.75 0.9484 30.8175 0.82826 30.9376C0.708119 31.0578 0.640625 31.2207 0.640625 31.3906C0.640625 31.5605 0.708119 31.7235 0.82826 31.8436C0.9484 31.9638 1.11135 32.0312 1.28125 32.0312C2.17148 32.0312 2.57547 32.2736 3.08701 32.5805C3.65877 32.9237 4.30684 33.3125 5.55206 33.3125C6.79727 33.3125 7.44518 32.9237 8.01694 32.5805C8.52832 32.2736 8.93248 32.0312 9.82262 32.0312C10.7128 32.0312 11.1169 32.2736 11.6285 32.5806C12.2002 32.9237 12.8483 33.3125 14.0934 33.3125C15.3386 33.3125 15.9866 32.9237 16.5583 32.5805C17.0699 32.2736 17.4738 32.0312 18.364 32.0312C19.2541 32.0312 19.6582 32.2736 20.1698 32.5806C20.7416 32.9237 21.3896 33.3125 22.6346 33.3125C23.8797 33.3125 24.5279 32.9237 25.0997 32.5805C25.6112 32.2736 26.0152 32.0312 26.9054 32.0312C27.7957 32.0312 28.1997 32.2736 28.7112 32.5806C29.283 32.9237 29.931 33.3125 31.1762 33.3125C32.4213 33.3125 33.0695 32.9237 33.6413 32.5806C34.1529 32.2736 34.5571 32.0312 35.4475 32.0312C36.3379 32.0312 36.7419 32.2736 37.2535 32.5806C37.8253 32.9237 38.4735 33.3125 39.7188 33.3125C39.8887 33.3125 40.0516 33.245 40.1717 33.1249C40.2919 33.0047 40.3594 32.8418 40.3594 32.6719C40.3594 32.502 40.2919 32.339 40.1717 32.2189C40.0516 32.0987 39.8887 32.0312 39.7188 32.0312Z" fill="#00B857"/>
<path d="M39.7188 34.5938C38.8284 34.5938 38.4242 34.3514 37.9126 34.0444C37.3408 33.7013 36.6927 33.3125 35.4475 33.3125C34.2022 33.3125 33.5541 33.7013 32.9823 34.0444C32.4706 34.3514 32.0665 34.5938 31.1762 34.5938C30.2859 34.5938 29.882 34.3514 29.3704 34.0444C28.7987 33.7013 28.1506 33.3125 26.9054 33.3125C25.6603 33.3125 25.0123 33.7013 24.4405 34.0444C23.9289 34.3514 23.525 34.5938 22.6346 34.5938C21.7443 34.5938 21.3405 34.3514 20.829 34.0445C20.2572 33.7013 19.6091 33.3125 18.364 33.3125C17.1189 33.3125 16.4709 33.7013 15.8991 34.0445C15.3876 34.3514 14.9836 34.5938 14.0938 34.5938C13.2039 34.5938 12.7995 34.3514 12.288 34.0445C11.7162 33.7013 11.0682 33.3125 9.82294 33.3125C8.57773 33.3125 7.92982 33.7013 7.35806 34.0444C6.8462 34.3514 6.4422 34.5938 5.55206 34.5938C4.66191 34.5938 4.25767 34.3514 3.74621 34.0444C3.17446 33.7013 2.52638 33.3125 1.28125 33.3125C1.11135 33.3125 0.9484 33.38 0.82826 33.5001C0.708119 33.6203 0.640625 33.7832 0.640625 33.9531C0.640625 34.123 0.708119 34.286 0.82826 34.4061C0.9484 34.5263 1.11135 34.5938 1.28125 34.5938C2.17148 34.5938 2.57547 34.8361 3.08701 35.143C3.65877 35.4862 4.30684 35.875 5.55206 35.875C6.79727 35.875 7.44518 35.4862 8.01694 35.143C8.52832 34.8361 8.93248 34.5938 9.82262 34.5938C10.7128 34.5938 11.1169 34.8361 11.6285 35.1431C12.2002 35.4862 12.8483 35.875 14.0934 35.875C15.3386 35.875 15.9866 35.4862 16.5583 35.143C17.0699 34.8361 17.4738 34.5938 18.364 34.5938C19.2541 34.5938 19.6582 34.8361 20.1698 35.1431C20.7416 35.4862 21.3896 35.875 22.6346 35.875C23.8797 35.875 24.5279 35.4862 25.0997 35.143C25.6112 34.8361 26.0152 34.5938 26.9054 34.5938C27.7957 34.5938 28.1997 34.8361 28.7112 35.1431C29.283 35.4862 29.931 35.875 31.1762 35.875C32.4213 35.875 33.0695 35.4862 33.6413 35.1431C34.1529 34.8361 34.5571 34.5938 35.4475 34.5938C36.3379 34.5938 36.7419 34.8361 37.2535 35.1431C37.8253 35.4862 38.4735 35.875 39.7188 35.875C39.8887 35.875 40.0516 35.8075 40.1717 35.6874C40.2919 35.5672 40.3594 35.4043 40.3594 35.2344C40.3594 35.0645 40.2919 34.9015 40.1717 34.7814C40.0516 34.6612 39.8887 34.5938 39.7188 34.5938Z" fill="#00B857"/>
</svg>
