<svg width="24" height="24" viewBox="0 0 24 24" fill="none" xmlns="http://www.w3.org/2000/svg">
<g clip-path="url(#clip0)">
<path d="M12.9566 11.8399H6.42339C6.15934 11.8399 5.94531 12.054 5.94531 12.318V18.8512C5.94531 19.1152 6.15934 19.3293 6.42339 19.3293H12.9566C13.2206 19.3293 13.4347 19.1152 13.4347 18.8512V12.318C13.4347 12.054 13.2206 11.8399 12.9566 11.8399ZM12.4785 12.7962V14.628L10.6467 12.7962H12.4785ZM6.90147 18.3731V16.5284L8.74623 18.3731H6.90147ZM12.4786 18.3731H10.0985V18.3732L6.90147 15.1761V13.4722L9.89237 16.4631C9.98574 16.5564 10.1081 16.6031 10.2304 16.6031C10.3528 16.6031 10.4752 16.5564 10.5685 16.4631C10.7552 16.2764 10.7552 15.9737 10.5685 15.7869L7.57764 12.796H9.29439L12.4786 15.9802V18.3731Z" fill="white"/>
<path d="M11.8011 17.0198L11.6677 16.8864C11.481 16.6997 11.1783 16.6997 10.9916 16.8865C10.8049 17.0732 10.8049 17.3759 10.9916 17.5626L11.125 17.696C11.2184 17.7893 11.3407 17.836 11.463 17.836C11.5854 17.836 11.7078 17.7893 11.8011 17.6959C11.9878 17.5092 11.9878 17.2065 11.8011 17.0198Z" fill="white"/>
<path d="M20.7535 7.93726H16.4742C16.2102 7.93726 15.9961 8.15133 15.9961 8.41533V18.8968C15.9961 19.1608 16.2102 19.3749 16.4742 19.3749H20.7535C21.0175 19.3749 21.2316 19.1608 21.2316 18.8968V8.41533C21.2316 8.15133 21.0175 7.93726 20.7535 7.93726ZM16.9522 8.89346H18.3078L20.2754 10.861V12.4231L16.9668 9.11461C16.9621 9.10993 16.9571 9.10585 16.9522 9.10144V8.89346ZM16.9523 18.4188V16.5282L18.8429 18.4188H16.9523ZM20.2754 18.4188H20.1952L16.9523 15.1759V13.472L20.2755 16.7951V18.4188H20.2754ZM20.2754 15.4428L16.9669 12.1343C16.9622 12.1296 16.9571 12.1255 16.9523 12.1211V10.4523L20.2754 13.7755V15.4428ZM20.2754 9.50874L19.6602 8.89351H20.2754V9.50874Z" fill="white"/>
<path d="M12.9566 1.83051H6.42339C6.15934 1.83051 5.94531 2.04458 5.94531 2.30858V8.84183C5.94531 9.10583 6.15934 9.31991 6.42339 9.31991H12.9566C13.2206 9.31991 13.4347 9.10583 13.4347 8.84183V2.30858C13.4347 2.04458 13.2206 1.83051 12.9566 1.83051ZM12.4785 2.78671V4.61858L10.6466 2.78671H12.4785ZM6.90147 8.3638V6.51904L8.74623 8.3638H6.90147ZM10.0984 8.36376L6.90147 5.16679V3.46283L11.8024 8.36376H10.0984ZM12.4786 7.68763L7.57759 2.78666H9.29434L12.4786 5.97088V7.68763Z" fill="white"/>
<path d="M23.5219 20.1204H22.9627V6.72697C22.9627 6.46297 22.7486 6.24889 22.4846 6.24889H15.1908V0.561452C15.1908 0.297452 14.9767 0.083374 14.7127 0.083374H4.67686C4.41281 0.083374 4.19878 0.297452 4.19878 0.561452V20.1204H3.74714V6.32262C3.74714 5.18741 2.82356 4.26383 1.68834 4.26383H0.700359C0.436312 4.26383 0.222281 4.47791 0.222281 4.74191C0.222281 5.00591 0.436312 5.21998 0.700359 5.21998H1.68834C2.29631 5.21998 2.79094 5.71465 2.79094 6.32258V19.5819C2.6048 19.5307 2.40914 19.5028 2.20702 19.5028C0.99 19.5029 0 20.493 0 21.71C0 22.9269 0.99 23.9169 2.20702 23.9169C3.42394 23.9169 4.41403 22.9269 4.41403 21.71C4.41403 21.4898 4.38122 21.2773 4.32094 21.0766H19.4759C19.3108 21.3568 19.2156 21.683 19.2156 22.031C19.2156 23.0709 20.0617 23.9169 21.1015 23.9169C22.1414 23.9169 22.9875 23.071 22.9875 22.031C22.9875 21.683 22.8923 21.3568 22.7272 21.0766H23.522C23.786 21.0766 24.0001 20.8625 24.0001 20.5985C24 20.3345 23.7859 20.1204 23.5219 20.1204ZM2.20702 22.9607C1.51734 22.9607 0.956203 22.3996 0.956203 21.71C0.956203 21.0202 1.51734 20.4591 2.20702 20.4591C2.89669 20.4591 3.45783 21.0202 3.45783 21.71C3.45783 22.3996 2.89669 22.9607 2.20702 22.9607ZM14.2346 20.1204H5.15494V11.058H14.2346V20.1204ZM14.2346 6.72697V10.1019H5.15494V1.03953H14.2346V6.72697ZM15.1908 20.1204V7.20505H22.0065V20.1204H15.1908ZM21.1014 22.9607C20.5887 22.9607 20.1717 22.5436 20.1717 22.031C20.1717 21.5183 20.5888 21.1013 21.1014 21.1013C21.6141 21.1013 22.0312 21.5184 22.0312 22.031C22.0312 22.5436 21.6142 22.9607 21.1014 22.9607Z" fill="white"/>
</g>
<defs>
<clipPath id="clip0">
<rect width="24" height="24" fill="white"/>
</clipPath>
</defs>
</svg>
