<svg width="22" height="22" viewBox="0 0 22 22" fill="none" xmlns="http://www.w3.org/2000/svg">
<path d="M20.8482 18.1384C20.8473 18.1108 20.843 18.0833 20.8353 18.0568C20.6473 17.3947 20.2818 16.7967 19.7783 16.3275C19.2749 15.8582 18.6528 15.5355 17.9792 15.3944L16.8435 15.1551V14.7812C16.8435 14.6901 16.8073 14.6026 16.7428 14.5382C16.6784 14.4737 16.5909 14.4375 16.4998 14.4375H14.4373C14.3812 14.4375 14.3261 14.4512 14.2766 14.4774C14.227 14.5036 14.1847 14.5415 14.1532 14.5879L13.7489 14.5028V13.9782C14.2714 13.6763 14.7053 13.2424 15.0071 12.7199C15.3089 12.1974 15.468 11.6047 15.4685 11.0013H15.6408C15.9597 11.0008 16.2654 10.874 16.4909 10.6485C16.7164 10.4231 16.8434 10.1175 16.8439 9.79859V8.76734C16.8442 8.60677 16.8121 8.44779 16.7497 8.29986C16.6872 8.15193 16.5956 8.01807 16.4804 7.90625H17.1873C17.2784 7.90625 17.3659 7.87003 17.4303 7.80557C17.4948 7.7411 17.531 7.65367 17.531 7.5625C17.531 7.47133 17.4948 7.3839 17.4303 7.31943C17.3659 7.25497 17.2784 7.21875 17.1873 7.21875H16.4998V5.15625C16.4998 2.5025 14.0325 0.34375 10.9998 0.34375C7.96702 0.34375 5.49975 2.5025 5.49975 5.15625V7.21875H4.81225C4.72109 7.21875 4.63365 7.25497 4.56919 7.31943C4.50472 7.3839 4.4685 7.47133 4.4685 7.5625C4.4685 7.65367 4.50472 7.7411 4.56919 7.80557C4.63365 7.87003 4.72109 7.90625 4.81225 7.90625H5.5178C5.4035 8.01795 5.31266 8.15135 5.2506 8.29863C5.18855 8.4459 5.15653 8.60409 5.15643 8.76391V9.79516C5.15659 10.1142 5.28333 10.4201 5.50882 10.6457C5.73431 10.8714 6.04012 10.9983 6.35913 10.9987H6.531C6.53128 11.6018 6.69015 12.1942 6.99167 12.7164C7.2932 13.2387 7.72677 13.6725 8.24889 13.9743V14.502L7.84542 14.5866C7.81387 14.5406 7.77161 14.503 7.72227 14.477C7.67293 14.4511 7.61801 14.4375 7.56225 14.4375H5.49975C5.40859 14.4375 5.32115 14.4737 5.25669 14.5382C5.19222 14.6026 5.156 14.6901 5.156 14.7812V15.1521L4.01776 15.391C3.34418 15.5317 2.72193 15.854 2.21835 16.323C1.71478 16.792 1.34905 17.3897 1.16077 18.0516C1.15268 18.0797 1.14821 18.1087 1.14745 18.138L1.07139 21.3018C1.07026 21.3476 1.07831 21.3932 1.09508 21.4359C1.11185 21.4785 1.137 21.5174 1.16904 21.5502C1.20108 21.583 1.23936 21.6091 1.28163 21.6268C1.3239 21.6446 1.36929 21.6537 1.41514 21.6537L20.6222 21.6588C20.6684 21.6588 20.7142 21.6495 20.7567 21.6313C20.7993 21.6134 20.8377 21.587 20.8697 21.5536C20.9019 21.5203 20.9269 21.4809 20.9434 21.4377C20.9599 21.3945 20.9674 21.3484 20.9655 21.3022L20.8482 18.1384ZM5.156 20.967H4.80968L4.81011 19.592C4.81011 19.5009 4.77389 19.4134 4.70942 19.349C4.64496 19.2845 4.55752 19.2483 4.46636 19.2483C4.37519 19.2483 4.28775 19.2845 4.22329 19.349C4.15882 19.4134 4.12261 19.5009 4.12261 19.592L4.12218 20.967L1.76706 20.9662L1.83366 18.1994C1.99317 17.667 2.29347 17.1876 2.70286 16.8117C3.11224 16.4358 3.61552 16.1775 4.15956 16.0639L5.156 15.8546V20.967ZM14.781 11.0009C14.7825 11.6705 14.5379 12.3174 14.0935 12.8184V10.4036L14.7814 9.19961L14.781 11.0009ZM16.1564 8.76691V9.79816C16.1562 9.93486 16.1019 10.0659 16.0052 10.1626C15.9085 10.2592 15.7775 10.3136 15.6408 10.3138H15.4685L15.4689 8.93879L15.4694 8.25129H15.6412C15.7779 8.2514 15.909 8.30578 16.0056 8.40246C16.1022 8.49915 16.1564 8.63024 16.1564 8.76691ZM15.4058 3.49809L15.0199 4.1091H13.9306L13.4829 3.465L14.3535 2.20086C14.7876 2.55839 15.1455 2.99953 15.4058 3.49809ZM10.066 1.10945L10.8829 2.33449L9.50401 3.4375H6.62553C7.26147 2.25242 8.53421 1.36855 10.066 1.10945ZM6.18725 5.15625C6.18722 4.80691 6.23846 4.45945 6.33936 4.125H9.62475C9.70281 4.12497 9.77855 4.09846 9.8396 4.0498L11.5583 2.6748C11.6255 2.62102 11.6701 2.54402 11.6833 2.459C11.6965 2.37398 11.6774 2.28709 11.6297 2.21547L10.8416 1.03383C10.8941 1.03211 10.9469 1.03125 10.9998 1.03125C11.9845 1.02526 12.9518 1.29143 13.7949 1.80039L12.7817 3.27078C12.742 3.32839 12.7209 3.39671 12.721 3.46664C12.7212 3.53657 12.7426 3.60479 12.7825 3.66223L13.4687 4.64922C13.5004 4.69472 13.5427 4.73188 13.5918 4.75754C13.641 4.7832 13.6956 4.7966 13.751 4.7966H15.2094C15.2674 4.79656 15.3245 4.78185 15.3752 4.75382C15.426 4.7258 15.4689 4.68538 15.4999 4.63633L15.7091 4.30547C15.7776 4.58387 15.8123 4.86954 15.8123 5.15625V7.21875H13.7042L13.4026 5.1077C13.3909 5.02577 13.35 4.95081 13.2875 4.89658C13.225 4.84235 13.145 4.8125 13.0623 4.8125H12.031C11.9398 4.81247 11.8523 4.84863 11.7878 4.91305L10.7565 5.9443C10.6921 6.00884 10.656 6.09631 10.656 6.1875V7.21875H6.18725V5.15625ZM13.0098 7.21875H11.3435V6.32973L12.1732 5.5H12.764L13.0098 7.21875ZM6.53143 8.93621L6.531 10.3112H6.35913C6.22248 10.311 6.09148 10.2566 5.99489 10.1599C5.8983 10.0633 5.84401 9.93224 5.84393 9.79559V8.76434C5.84418 8.62766 5.89859 8.49665 5.99523 8.40001C6.09188 8.30336 6.22288 8.24896 6.35956 8.24871H6.53186L6.53143 8.93621ZM7.906 12.8159C7.46263 12.3146 7.21807 11.6684 7.2185 10.9991L7.21893 9.20133L7.906 10.4036V12.8159ZM7.2705 7.90625H8.92737C8.74597 7.90903 8.57302 7.9834 8.44621 8.11315C8.31941 8.2429 8.24903 8.41751 8.25042 8.59893C8.25181 8.78035 8.32485 8.95387 8.45363 9.08166C8.5824 9.20946 8.75647 9.28117 8.9379 9.28117C9.11932 9.28117 9.29339 9.20946 9.42217 9.08166C9.55095 8.95387 9.62399 8.78035 9.62538 8.59893C9.62677 8.41751 9.55639 8.2429 9.42958 8.11315C9.30278 7.9834 9.12983 7.90903 8.94842 7.90625H14.729L13.5805 9.9159L11.0831 9.29156C11.0284 9.27781 10.9711 9.27781 10.9164 9.29156L8.41905 9.9159L7.2705 7.90625ZM13.0618 14.7959C13.0571 15.1925 12.9596 16.1562 10.9998 16.1562C10.4897 16.1562 8.93725 16.1562 8.93725 14.7383C8.93725 14.7318 8.93682 14.7258 8.93639 14.7194V14.2785C9.26998 14.3839 9.6178 14.4374 9.96764 14.4371L12.0301 14.4379H12.031C12.3805 14.4381 12.7279 14.3851 13.0614 14.2807V14.7817C13.0614 14.7864 13.0618 14.7911 13.0618 14.7959ZM12.031 13.7504H12.0301L9.96764 13.7496C9.48493 13.75 9.01075 13.6223 8.5935 13.3796V10.5811L10.9998 9.97949L13.406 10.5811V13.3822C13.3536 13.4127 13.2999 13.4415 13.2457 13.4681L13.2406 13.4707C12.8641 13.6554 12.4503 13.7511 12.031 13.7504ZM7.906 15.2762L8.29272 15.195C8.43968 15.95 9.03007 16.8437 10.9998 16.8437C12.9682 16.8437 13.559 15.9509 13.7068 15.1963L14.0935 15.278V15.8125C14.0931 16.177 13.9481 16.5265 13.6903 16.7843C13.4325 17.0421 13.083 17.1871 12.7185 17.1875H9.281C8.91646 17.1871 8.56696 17.0421 8.30918 16.7843C8.05141 16.5265 7.90641 16.177 7.906 15.8125V15.2762ZM8.93725 20.9683L7.906 20.9679V19.5937H8.93725V20.9683ZM14.0935 20.9687H13.0623V19.5937H14.0935V20.9687ZM16.156 20.9687H14.781V19.25C14.781 19.1588 14.7448 19.0714 14.6803 19.0069C14.6159 18.9425 14.5284 18.9062 14.4373 18.9062H12.7185C12.6273 18.9062 12.5399 18.9425 12.4754 19.0069C12.411 19.0714 12.3748 19.1588 12.3748 19.25V20.9687H11.0165L9.62475 20.9683V19.25C9.62475 19.1588 9.58854 19.0714 9.52407 19.0069C9.45961 18.9425 9.37217 18.9062 9.281 18.9062H7.56225C7.47109 18.9062 7.38365 18.9425 7.31919 19.0069C7.25472 19.0714 7.2185 19.1588 7.2185 19.25V20.9679L5.8435 20.9675V15.125H7.2185V15.8125C7.21908 16.3593 7.43657 16.8836 7.82324 17.2703C8.2099 17.6569 8.73417 17.8744 9.281 17.875H12.7185C13.2653 17.8744 13.7896 17.6569 14.1763 17.2703C14.5629 16.8836 14.7804 16.3593 14.781 15.8125V15.125H16.156V20.9687ZM17.8722 20.9705L17.8726 19.5955C17.8726 19.5043 17.8364 19.4169 17.7719 19.3524C17.7075 19.2879 17.62 19.2517 17.5289 19.2517C17.4377 19.2517 17.3503 19.2879 17.2858 19.3524C17.2213 19.4169 17.1851 19.5043 17.1851 19.5955L17.1847 20.9705H16.8435V15.8576L17.8374 16.0673C18.3817 16.1814 18.8852 16.4405 19.2945 16.817C19.7038 17.1936 20.0038 17.6737 20.1628 18.2067L20.2655 20.9713L17.8722 20.9705Z" fill="white"/>
<path d="M13.0625 9.28174C13.1985 9.28174 13.3314 9.24142 13.4445 9.16587C13.5575 9.09033 13.6456 8.98296 13.6977 8.85733C13.7497 8.73171 13.7633 8.59347 13.7368 8.46011C13.7103 8.32675 13.6448 8.20425 13.5486 8.1081C13.4525 8.01195 13.33 7.94648 13.1966 7.91995C13.0633 7.89342 12.925 7.90704 12.7994 7.95907C12.6738 8.01111 12.5664 8.09922 12.4909 8.21228C12.4153 8.32534 12.375 8.45826 12.375 8.59424C12.375 8.77657 12.4474 8.95144 12.5764 9.08037C12.7053 9.20931 12.8802 9.28174 13.0625 9.28174Z" fill="white"/>
</svg>
