<svg width="22" height="22" viewBox="0 0 22 22" fill="none" xmlns="http://www.w3.org/2000/svg">
<path d="M19.9375 2.0625H2.0625C1.97133 2.0625 1.8839 2.09872 1.81943 2.16318C1.75497 2.22765 1.71875 2.31508 1.71875 2.40625V5.5C1.71875 5.59117 1.75497 5.6786 1.81943 5.74307C1.8839 5.80753 1.97133 5.84375 2.0625 5.84375H3.09375V7.21875H2.75C2.65883 7.21875 2.5714 7.25497 2.50693 7.31943C2.44247 7.3839 2.40625 7.47133 2.40625 7.5625V15.8125H2.0625C1.97133 15.8125 1.8839 15.8487 1.81943 15.9132C1.75497 15.9776 1.71875 16.0651 1.71875 16.1562V17.5312C1.71875 17.6224 1.75497 17.7099 1.81943 17.7743C1.8839 17.8388 1.97133 17.875 2.0625 17.875H3.09375V19.25H0.6875C0.596332 19.25 0.508898 19.2862 0.444432 19.3507C0.379966 19.4151 0.34375 19.5026 0.34375 19.5938C0.34375 19.6849 0.379966 19.7724 0.444432 19.8368C0.508898 19.9013 0.596332 19.9375 0.6875 19.9375H19.9375C20.0287 19.9375 20.1161 19.9013 20.1806 19.8368C20.245 19.7724 20.2812 19.6849 20.2812 19.5938C20.2812 19.5026 20.245 19.4151 20.1806 19.3507C20.1161 19.2862 20.0287 19.25 19.9375 19.25H18.9062V17.875H19.9375C20.0287 17.875 20.1161 17.8388 20.1806 17.7743C20.245 17.7099 20.2812 17.6224 20.2812 17.5312V16.1562C20.2812 16.0651 20.245 15.9776 20.1806 15.9132C20.1161 15.8487 20.0287 15.8125 19.9375 15.8125H19.5938V7.5625C19.5938 7.47133 19.5575 7.3839 19.4931 7.31943C19.4286 7.25497 19.3412 7.21875 19.25 7.21875H18.9062V5.84375H19.9375C20.0287 5.84375 20.1161 5.80753 20.1806 5.74307C20.245 5.6786 20.2812 5.59117 20.2812 5.5V2.40625C20.2812 2.31508 20.245 2.22765 20.1806 2.16318C20.1161 2.09872 20.0287 2.0625 19.9375 2.0625ZM2.40625 3.78125H19.5938V4.125H2.40625V3.78125ZM2.40625 2.75H19.5938V3.09375H2.40625V2.75ZM3.78125 5.84375H5.84375V7.21875H3.78125V5.84375ZM15.4688 7.21875H15.125C15.0338 7.21875 14.9464 7.25497 14.8819 7.31943C14.8175 7.3839 14.7812 7.47133 14.7812 7.5625V15.8125H12.717C12.7175 15.7657 12.7082 15.7194 12.69 15.6763C12.6717 15.6333 12.6447 15.5944 12.6108 15.5623L11.3438 14.3687V12.9993C11.5731 12.9182 11.7664 12.7586 11.8895 12.5488C12.0126 12.3389 12.0575 12.0924 12.0164 11.8526C11.9753 11.6128 11.8507 11.3953 11.6647 11.2385C11.4787 11.0817 11.2433 10.9957 11 10.9957C10.7567 10.9957 10.5213 11.0817 10.3353 11.2385C10.1493 11.3953 10.0247 11.6128 9.9836 11.8526C9.94246 12.0924 9.98741 12.3389 10.1105 12.5488C10.2336 12.7586 10.4269 12.9182 10.6562 12.9993V14.3687L9.38919 15.5623C9.35525 15.5944 9.32831 15.6333 9.31003 15.6763C9.29176 15.7194 9.28255 15.7657 9.28297 15.8125H7.21875V7.5625C7.21875 7.47133 7.18253 7.3839 7.11807 7.31943C7.0536 7.25497 6.96617 7.21875 6.875 7.21875H6.53125V5.84375H15.4688V7.21875ZM11 12.375C10.932 12.375 10.8656 12.3548 10.809 12.3171C10.7525 12.2793 10.7084 12.2256 10.6824 12.1628C10.6564 12.1 10.6496 12.0309 10.6629 11.9642C10.6761 11.8975 10.7089 11.8363 10.7569 11.7882C10.805 11.7401 10.8663 11.7074 10.9329 11.6941C10.9996 11.6808 11.0687 11.6876 11.1315 11.7137C11.1944 11.7397 11.248 11.7837 11.2858 11.8403C11.3236 11.8968 11.3438 11.9633 11.3438 12.0312C11.3438 12.1224 11.3075 12.2099 11.2431 12.2743C11.1786 12.3388 11.0912 12.375 11 12.375ZM10.6562 15.8125H10.1262L10.6562 15.313V15.8125ZM11.3438 15.313L11.8738 15.8125H11.3438V15.313ZM3.09375 7.90625H6.53125V15.8125H3.09375V7.90625ZM3.78125 19.25V17.875H10.6562V19.25H3.78125ZM18.2188 19.25H11.3438V17.875H18.2188V19.25ZM19.5938 17.1875H2.40625V16.5H19.5938V17.1875ZM15.4688 15.8125V7.90625H18.9062V15.8125H15.4688ZM18.2188 7.21875H16.1562V5.84375H18.2188V7.21875ZM19.5938 5.15625H2.40625V4.8125H19.5938V5.15625Z" fill="white"/>
<path d="M21.3125 19.25H20.9688C20.8776 19.25 20.7901 19.2862 20.7257 19.3507C20.6612 19.4151 20.625 19.5026 20.625 19.5938C20.625 19.6849 20.6612 19.7724 20.7257 19.8368C20.7901 19.9013 20.8776 19.9375 20.9688 19.9375H21.3125C21.4037 19.9375 21.4911 19.9013 21.5556 19.8368C21.62 19.7724 21.6562 19.6849 21.6562 19.5938C21.6562 19.5026 21.62 19.4151 21.5556 19.3507C21.4911 19.2862 21.4037 19.25 21.3125 19.25Z" fill="white"/>
<path d="M4.8125 10.6563C5.01646 10.6563 5.21584 10.5958 5.38543 10.4825C5.55502 10.3691 5.6872 10.2081 5.76525 10.0196C5.8433 9.83121 5.86373 9.62386 5.82393 9.42381C5.78414 9.22377 5.68593 9.04002 5.5417 8.8958C5.39748 8.75157 5.21373 8.65336 5.01369 8.61357C4.81364 8.57377 4.60629 8.5942 4.41786 8.67225C4.22942 8.7503 4.06836 8.88248 3.95505 9.05207C3.84173 9.22166 3.78125 9.42104 3.78125 9.625C3.78125 9.89851 3.8899 10.1608 4.0833 10.3542C4.27669 10.5476 4.539 10.6563 4.8125 10.6563ZM4.8125 9.28125C4.88049 9.28125 4.94695 9.30141 5.00348 9.33918C5.06001 9.37695 5.10407 9.43064 5.13008 9.49345C5.1561 9.55627 5.16291 9.62538 5.14964 9.69206C5.13638 9.75874 5.10364 9.81999 5.05557 9.86807C5.00749 9.91614 4.94624 9.94888 4.87956 9.96215C4.81288 9.97541 4.74376 9.9686 4.68095 9.94258C4.61814 9.91657 4.56445 9.87251 4.52668 9.81598C4.48891 9.75945 4.46875 9.69299 4.46875 9.625C4.46875 9.53383 4.50497 9.4464 4.56943 9.38193C4.6339 9.31747 4.72133 9.28125 4.8125 9.28125Z" fill="white"/>
<path d="M4.8125 12.7188C4.54055 12.7188 4.27471 12.7994 4.04859 12.9505C3.82247 13.1016 3.64624 13.3163 3.54217 13.5676C3.4381 13.8188 3.41087 14.0953 3.46392 14.362C3.51698 14.6287 3.64793 14.8737 3.84023 15.066C4.03253 15.2583 4.27753 15.3893 4.54425 15.4423C4.81098 15.4954 5.08744 15.4682 5.33869 15.3641C5.58994 15.26 5.80468 15.0838 5.95577 14.8577C6.10686 14.6315 6.1875 14.3657 6.1875 14.0938C6.1875 13.7291 6.04263 13.3793 5.78477 13.1215C5.52691 12.8636 5.17717 12.7188 4.8125 12.7188ZM4.8125 14.7813C4.67653 14.7813 4.5436 14.7409 4.43055 14.6654C4.31749 14.5898 4.22937 14.4825 4.17733 14.3568C4.1253 14.2312 4.11168 14.093 4.13821 13.9596C4.16474 13.8263 4.23022 13.7038 4.32636 13.6076C4.42251 13.5115 4.54501 13.446 4.67838 13.4195C4.81174 13.3929 4.94997 13.4065 5.0756 13.4586C5.20122 13.5106 5.30859 13.5987 5.38414 13.7118C5.45968 13.8249 5.5 13.9578 5.5 14.0938C5.5 14.2761 5.42757 14.451 5.29864 14.5799C5.16971 14.7088 4.99484 14.7813 4.8125 14.7813Z" fill="white"/>
<path d="M17.1875 10.6563C17.3915 10.6563 17.5908 10.5958 17.7604 10.4825C17.93 10.3691 18.0622 10.2081 18.1402 10.0196C18.2183 9.83121 18.2387 9.62386 18.1989 9.42381C18.1591 9.22377 18.0609 9.04002 17.9167 8.8958C17.7725 8.75157 17.5887 8.65336 17.3887 8.61357C17.1886 8.57377 16.9813 8.5942 16.7929 8.67225C16.6044 8.7503 16.4434 8.88248 16.33 9.05207C16.2167 9.22166 16.1562 9.42104 16.1562 9.625C16.1562 9.89851 16.2649 10.1608 16.4583 10.3542C16.6517 10.5476 16.914 10.6563 17.1875 10.6563ZM17.1875 9.28125C17.2555 9.28125 17.3219 9.30141 17.3785 9.33918C17.435 9.37695 17.4791 9.43064 17.5051 9.49345C17.5311 9.55627 17.5379 9.62538 17.5246 9.69206C17.5114 9.75874 17.4786 9.81999 17.4306 9.86807C17.3825 9.91614 17.3212 9.94888 17.2546 9.96215C17.1879 9.97541 17.1188 9.9686 17.056 9.94258C16.9931 9.91657 16.9395 9.87251 16.9017 9.81598C16.8639 9.75945 16.8437 9.69299 16.8437 9.625C16.8437 9.53383 16.88 9.4464 16.9444 9.38193C17.0089 9.31747 17.0963 9.28125 17.1875 9.28125Z" fill="white"/>
<path d="M17.1875 12.7188C16.9156 12.7188 16.6497 12.7994 16.4236 12.9505C16.1975 13.1016 16.0212 13.3163 15.9172 13.5676C15.8131 13.8188 15.7859 14.0953 15.8389 14.362C15.892 14.6287 16.0229 14.8737 16.2152 15.066C16.4075 15.2583 16.6525 15.3893 16.9193 15.4423C17.186 15.4954 17.4624 15.4682 17.7137 15.3641C17.9649 15.26 18.1797 15.0838 18.3308 14.8577C18.4819 14.6315 18.5625 14.3657 18.5625 14.0938C18.5625 13.7291 18.4176 13.3793 18.1598 13.1215C17.9019 12.8636 17.5522 12.7188 17.1875 12.7188ZM17.1875 14.7813C17.0515 14.7813 16.9186 14.7409 16.8055 14.6654C16.6925 14.5898 16.6044 14.4825 16.5523 14.3568C16.5003 14.2312 16.4867 14.093 16.5132 13.9596C16.5397 13.8263 16.6052 13.7038 16.7014 13.6076C16.7975 13.5115 16.92 13.446 17.0534 13.4195C17.1867 13.3929 17.325 13.4065 17.4506 13.4586C17.5762 13.5106 17.6836 13.5987 17.7591 13.7118C17.8347 13.8249 17.875 13.9578 17.875 14.0938C17.875 14.2761 17.8026 14.451 17.6736 14.5799C17.5447 14.7088 17.3698 14.7813 17.1875 14.7813Z" fill="white"/>
<path d="M4.8125 12.0312C5.00235 12.0312 5.15625 11.8773 5.15625 11.6875C5.15625 11.4977 5.00235 11.3438 4.8125 11.3438C4.62265 11.3438 4.46875 11.4977 4.46875 11.6875C4.46875 11.8773 4.62265 12.0312 4.8125 12.0312Z" fill="white"/>
<path d="M17.1875 12.0312C17.3773 12.0312 17.5312 11.8773 17.5312 11.6875C17.5312 11.4977 17.3773 11.3438 17.1875 11.3438C16.9977 11.3438 16.8438 11.4977 16.8438 11.6875C16.8438 11.8773 16.9977 12.0312 17.1875 12.0312Z" fill="white"/>
</svg>
