<svg width="40" height="40" viewBox="0 0 40 40" fill="none" xmlns="http://www.w3.org/2000/svg">
<g clip-path="url(#clip0)">
<path d="M39.8269 1.20573C39.7664 0.660987 39.3364 0.230689 38.7914 0.170264C29.5177 -0.859704 21.6124 2.85001 15.1641 9.48789C13.3187 11.3876 11.718 13.3984 10.3518 15.339C8.03944 15.245 5.47566 16.2912 3.65804 18.1088L0.343216 21.4236C-0.031845 21.7987 -0.108139 22.3791 0.157059 22.8384C0.422257 23.2977 0.962723 23.5214 1.47542 23.3844C2.24446 23.1778 3.49416 22.9376 4.69472 22.8818C5.13356 22.8613 5.49825 22.8677 5.80128 22.8909C5.06978 24.2978 4.50917 25.4764 4.32332 25.7715C4.03218 26.2347 4.09962 26.8374 4.48659 27.2244L6.40462 29.1424C3.61317 32.9495 3.56709 34.8993 3.57686 35.1755C3.59731 35.7605 4.05354 36.3086 4.80916 36.3086C5.46346 36.3086 7.33998 36.0309 10.7561 33.4939L12.7736 35.5115C13.1633 35.9012 13.7722 35.9665 14.236 35.6686C14.5516 35.4657 15.6609 34.9286 16.9912 34.2334C17.0131 35.2249 16.8786 36.6809 16.5865 38.6545C16.4205 39.7738 17.7813 40.4477 18.5744 39.6548L21.8892 36.34C23.5985 34.6307 24.5897 32.092 24.5165 29.7104C26.5609 28.2818 28.6876 26.5967 30.6734 24.6493C37.2481 18.2019 40.8437 10.3564 39.8269 1.20573ZM37.585 2.41178C37.7721 4.93864 37.5725 7.38798 36.9912 9.75828C35.5474 9.30356 34.1359 8.41031 32.8612 7.1359C31.5819 5.8563 30.6868 4.43906 30.234 2.99009C32.6033 2.41727 35.0542 2.22318 37.585 2.41178ZM4.54182 20.5398L5.31514 19.7662C6.2505 18.8312 7.46693 18.1576 8.67665 17.8549C8.04463 18.858 7.48128 19.816 6.98445 20.7001C6.21693 20.5307 5.36366 20.4992 4.54182 20.5398ZM6.75954 26.1828C7.01314 25.6824 7.31984 25.0549 7.88289 23.9911L9.42555 25.534C8.85152 26.1499 8.33333 26.7349 7.86641 27.2894L6.75954 26.1828ZM12.4904 25.7345C13.3443 24.881 14.1631 24.725 15.1803 24.703C15.158 25.6943 14.999 26.5408 14.1478 27.3919C10.5095 31.0303 8.01564 32.655 6.52425 33.3801C7.26003 31.86 8.88905 29.3359 12.4904 25.7345ZM13.8085 33.2318L12.6 32.023C13.1517 31.5542 13.7349 31.0345 14.3502 30.4584L15.9923 32.1005C14.9126 32.677 14.4622 32.894 13.8085 33.2318ZM20.2315 34.6826L19.2934 35.621C19.3694 34.4842 19.3432 33.656 19.2357 33.0169C20.0975 32.5317 21.0335 31.9815 22.0144 31.3659C21.7348 32.605 21.1065 33.808 20.2315 34.6826ZM18.1258 30.9195L16.0247 28.818C17.5795 27.1072 17.5216 25.4587 17.5216 23.5327C17.5216 22.8854 16.997 22.3608 16.3497 22.3608C14.5504 22.3608 12.8188 22.2644 11.0643 23.858L9.05782 21.8515C14.5369 12.2436 20.8703 6.16086 27.986 3.65598C28.5494 5.4788 29.6459 7.23508 31.2041 8.79331C32.755 10.3445 34.5031 11.4383 36.3179 12.0038C33.7984 19.0805 27.7172 25.4098 18.1258 30.9195Z" fill="#01B154"/>
<path d="M29.5464 10.4502C27.2615 8.16568 23.5439 8.16568 21.2593 10.4502C18.9748 12.7351 18.9748 16.4527 21.2593 18.7373C23.5439 21.0218 27.2615 21.0221 29.5464 18.7373C31.8309 16.4527 31.8309 12.7351 29.5464 10.4502ZM27.8889 17.0799C26.5181 18.4507 24.2873 18.4507 22.9167 17.0799C21.5459 15.709 21.5459 13.4785 22.9167 12.1076C24.2873 10.7371 26.5178 10.7368 27.8889 12.1076C29.2598 13.4785 29.2598 15.709 27.8889 17.0799Z" fill="#01B154"/>
</g>
<defs>
<clipPath id="clip0">
<rect width="40" height="40" fill="white"/>
</clipPath>
</defs>
</svg>
