<svg width="41" height="41" viewBox="0 0 41 41" fill="none" xmlns="http://www.w3.org/2000/svg">
<path d="M17.0342 35.8158H14.6172C14.1752 35.8158 13.8164 35.4574 13.8164 35.015C13.8164 34.5731 14.1752 34.2143 14.6172 34.2143H17.0342C17.4765 34.2143 17.835 34.5731 17.835 35.015C17.835 35.4574 17.4765 35.8158 17.0342 35.8158Z" fill="#00B857"/>
<path d="M11.5898 35.8158C11.3793 35.8158 11.1726 35.7307 11.0237 35.5809C10.8748 35.432 10.7891 35.2256 10.7891 35.015C10.7891 34.8042 10.8748 34.5978 11.0237 34.4489C11.1726 34.3 11.3793 34.2143 11.5898 34.2143C11.8013 34.2143 12.0071 34.2997 12.156 34.4489C12.3059 34.5978 12.3906 34.8042 12.3906 35.015C12.3906 35.2256 12.3059 35.432 12.156 35.5809C12.0071 35.7307 11.8013 35.8158 11.5898 35.8158Z" fill="#00B857"/>
<path d="M17.0342 16.1166H14.6172C14.1752 16.1166 13.8164 15.7581 13.8164 15.3158C13.8164 14.8738 14.1752 14.515 14.6172 14.515H17.0342C17.4765 14.515 17.835 14.8738 17.835 15.3158C17.835 15.7581 17.4765 16.1166 17.0342 16.1166Z" fill="#00B857"/>
<path d="M11.5898 16.1166C11.3793 16.1166 11.1735 16.0315 11.0237 15.8817C10.8748 15.7328 10.7891 15.5263 10.7891 15.3158C10.7891 15.105 10.8748 14.8985 11.0237 14.7496C11.1726 14.6008 11.3793 14.515 11.5898 14.515C11.8013 14.515 12.0071 14.6004 12.156 14.7496C12.3059 14.8992 12.3906 15.105 12.3906 15.3158C12.3906 15.5263 12.3059 15.7328 12.156 15.8817C12.0071 16.0315 11.8004 16.1166 11.5898 16.1166Z" fill="#00B857"/>
<path d="M38.5977 7.36719H22.1016C21.8207 7.36719 21.5513 7.41599 21.3008 7.50482V2.40234C21.3008 1.07761 20.2232 0 18.8984 0H2.40234C1.07761 0 0 1.07761 0 2.40234V18.8984C0 19.5134 0.232414 20.0746 0.613724 20.5C0.232414 20.9254 0 21.4866 0 22.1016V38.5977C0 39.9224 1.07761 41 2.40234 41H18.8984C19.5134 41 20.0746 40.7676 20.5 40.3863C20.9254 40.7676 21.4866 41 22.1016 41H38.5977C39.9224 41 41 39.9224 41 38.5977V9.76953C41 8.4448 39.9224 7.36719 38.5977 7.36719ZM12.9601 1.60156V8.29434H8.34064V1.60156H12.9601ZM19.6992 38.5977C19.6992 39.0393 19.3401 39.3984 18.8984 39.3984H2.40234C1.96066 39.3984 1.60156 39.0393 1.60156 38.5977V22.1016C1.60156 21.6599 1.96066 21.3008 2.40234 21.3008H6.73907V28.7943C6.73907 29.2366 7.09786 29.5951 7.53986 29.5951H13.7609C14.2032 29.5951 14.5617 29.2366 14.5617 28.7943V21.3008H18.8984C19.3401 21.3008 19.6992 21.6599 19.6992 22.1016V38.5977ZM8.34064 21.3008H12.9601V27.9936H8.34064V21.3008ZM19.6992 9.76953V18.8984C19.6992 19.3401 19.3401 19.6992 18.8984 19.6992H2.40234C1.96066 19.6992 1.60156 19.3401 1.60156 18.8984V2.40234C1.60156 1.96066 1.96066 1.60156 2.40234 1.60156H6.73907V9.09512C6.73907 9.53743 7.09786 9.8959 7.53986 9.8959H13.7609C14.2032 9.8959 14.5617 9.53743 14.5617 9.09512V1.60156H18.8984C19.3401 1.60156 19.6992 1.96066 19.6992 2.40234V9.76953ZM32.6594 8.96875V15.6615H28.0399V8.96875H32.6594ZM39.3984 38.5977C39.3984 39.0393 39.0393 39.3984 38.5977 39.3984H22.1016C21.6599 39.3984 21.3008 39.0393 21.3008 38.5977V9.76953C21.3008 9.32785 21.6599 8.96875 22.1016 8.96875H26.4383V16.4623C26.4383 16.9046 26.7971 17.2631 27.2391 17.2631H33.4601C33.9025 17.2631 34.2609 16.9046 34.2609 16.4623V8.96875H38.5977C39.0393 8.96875 39.3984 9.32785 39.3984 9.76953V38.5977Z" fill="#00B857"/>
<path d="M36.7335 35.8158H34.3164C33.8744 35.8158 33.5156 35.4574 33.5156 35.015C33.5156 34.5731 33.8744 34.2143 34.3164 34.2143H36.7335C37.1758 34.2143 37.5342 34.5731 37.5342 35.015C37.5342 35.4574 37.1758 35.8158 36.7335 35.8158Z" fill="#00B857"/>
</svg>
