<svg width="41" height="41" viewBox="0 0 41 41" fill="none" xmlns="http://www.w3.org/2000/svg">
<g clip-path="url(#clip0)">
<path d="M40.7654 1.51588C40.6164 1.36693 40.4098 1.28125 40.1992 1.28125H0.800781C0.590176 1.28125 0.383574 1.36693 0.234629 1.51588C0.0856836 1.66482 0 1.87143 0 2.08203V38.918C0 39.1286 0.0856836 39.3352 0.234629 39.4841C0.383574 39.6331 0.590176 39.7188 0.800781 39.7188H4.00391C4.21451 39.7188 4.42111 39.6331 4.57006 39.4841C4.719 39.3352 4.80469 39.1286 4.80469 38.918V36.5156H12.6123V38.918C12.6123 39.3602 12.9708 39.7188 13.4131 39.7188H16.6162C17.0585 39.7188 17.417 39.3602 17.417 38.918V36.5156H23.583V38.918C23.583 39.3602 23.9415 39.7188 24.3838 39.7188H27.5869C28.0292 39.7188 28.3877 39.3602 28.3877 38.918V36.5156H36.1953V38.918C36.1953 39.1286 36.281 39.3352 36.4299 39.4841C36.5789 39.6331 36.7855 39.7188 36.9961 39.7188H40.1992C40.4098 39.7188 40.6164 39.6331 40.7654 39.4841C40.9143 39.3352 41 39.1286 41 38.918V29.1084C41 28.6672 40.6404 28.3076 40.1992 28.3076C39.758 28.3076 39.3984 28.6672 39.3984 29.1084V38.1172H37.7969V5.28516C37.7969 4.84288 37.4384 4.48438 36.9961 4.48438H4.00391C3.56163 4.48438 3.20312 4.84288 3.20312 5.28516V38.1172H1.60156V2.88281H39.3984V21.9014C39.3984 22.3426 39.758 22.7021 40.1992 22.7021C40.6404 22.7021 41 22.3426 41 21.9014V2.08203C41 1.87143 40.9143 1.66482 40.7654 1.51588ZM25.1846 16.2959V24.7041H15.8154V16.2959H25.1846ZM15.8154 14.6943V6.08594H25.1846V14.6943H15.8154ZM36.1953 24.7041H26.7861V16.2959H36.1953V24.7041ZM15.8154 34.9141V26.3057H25.1846V34.9141H15.8154ZM14.2139 24.7041H4.80469V16.2959H14.2139V24.7041ZM4.80469 26.3057H14.2139V34.9141H4.80469V26.3057ZM15.8154 38.1172H14.2139V36.5156H15.8154V38.1172ZM26.7861 38.1172H25.1846V36.5156H26.7861V38.1172ZM26.7861 34.9141V26.3057H36.1953V34.9141H26.7861ZM36.1953 14.6943H26.7861V6.08594H36.1953V14.6943ZM14.2139 6.08594V14.6943H4.80469V6.08594H14.2139Z" fill="#00B857"/>
<path d="M40.1992 26.3057C40.6415 26.3057 41 25.9471 41 25.5049C41 25.0626 40.6415 24.7041 40.1992 24.7041C39.757 24.7041 39.3984 25.0626 39.3984 25.5049C39.3984 25.9471 39.757 26.3057 40.1992 26.3057Z" fill="#00B857"/>
<path d="M11.8125 9.28906C12.2548 9.28906 12.6133 8.93054 12.6133 8.48828C12.6133 8.04602 12.2548 7.6875 11.8125 7.6875C11.3702 7.6875 11.0117 8.04602 11.0117 8.48828C11.0117 8.93054 11.3702 9.28906 11.8125 9.28906Z" fill="#00B857"/>
<path d="M22.7812 9.28906C23.2235 9.28906 23.582 8.93054 23.582 8.48828C23.582 8.04602 23.2235 7.6875 22.7812 7.6875C22.339 7.6875 21.9805 8.04602 21.9805 8.48828C21.9805 8.93054 22.339 9.28906 22.7812 9.28906Z" fill="#00B857"/>
<path d="M33.793 9.28906C34.2352 9.28906 34.5938 8.93054 34.5938 8.48828C34.5938 8.04602 34.2352 7.6875 33.793 7.6875C33.3507 7.6875 32.9922 8.04602 32.9922 8.48828C32.9922 8.93054 33.3507 9.28906 33.793 9.28906Z" fill="#00B857"/>
<path d="M11.8125 19.499C12.2548 19.499 12.6133 19.1405 12.6133 18.6982C12.6133 18.256 12.2548 17.8975 11.8125 17.8975C11.3702 17.8975 11.0117 18.256 11.0117 18.6982C11.0117 19.1405 11.3702 19.499 11.8125 19.499Z" fill="#00B857"/>
<path d="M22.7812 19.499C23.2235 19.499 23.582 19.1405 23.582 18.6982C23.582 18.256 23.2235 17.8975 22.7812 17.8975C22.339 17.8975 21.9805 18.256 21.9805 18.6982C21.9805 19.1405 22.339 19.499 22.7812 19.499Z" fill="#00B857"/>
<path d="M33.793 19.499C34.2352 19.499 34.5938 19.1405 34.5938 18.6982C34.5938 18.256 34.2352 17.8975 33.793 17.8975C33.3507 17.8975 32.9922 18.256 32.9922 18.6982C32.9922 19.1405 33.3507 19.499 33.793 19.499Z" fill="#00B857"/>
<path d="M11.8125 29.5088C12.2548 29.5088 12.6133 29.1503 12.6133 28.708C12.6133 28.2657 12.2548 27.9072 11.8125 27.9072C11.3702 27.9072 11.0117 28.2657 11.0117 28.708C11.0117 29.1503 11.3702 29.5088 11.8125 29.5088Z" fill="#00B857"/>
<path d="M22.7812 29.5088C23.2235 29.5088 23.582 29.1503 23.582 28.708C23.582 28.2657 23.2235 27.9072 22.7812 27.9072C22.339 27.9072 21.9805 28.2657 21.9805 28.708C21.9805 29.1503 22.339 29.5088 22.7812 29.5088Z" fill="#00B857"/>
<path d="M33.793 29.5088C34.2352 29.5088 34.5938 29.1503 34.5938 28.708C34.5938 28.2657 34.2352 27.9072 33.793 27.9072C33.3507 27.9072 32.9922 28.2657 32.9922 28.708C32.9922 29.1503 33.3507 29.5088 33.793 29.5088Z" fill="#00B857"/>
</g>
<defs>
<clipPath id="clip0">
<rect width="41" height="41" fill="white"/>
</clipPath>
</defs>
</svg>
