<svg width="41" height="41" viewBox="0 0 41 41" fill="none" xmlns="http://www.w3.org/2000/svg">
<path d="M39.7988 16.8965H38.5977C38.5977 16.3284 38.5977 1.24377 38.5977 1.20117C38.5977 0.537805 38.0599 0 37.3965 0H30.1895C29.5261 0 28.9883 0.537805 28.9883 1.20117V2.40234H21.7812C21.3383 2.40234 20.9312 2.64618 20.7222 3.03672C20.5132 3.42726 20.5361 3.90117 20.7818 4.26977L22.74 7.20703L20.7818 10.1442C20.5361 10.5128 20.5132 10.9867 20.7222 11.3773C20.9312 11.7678 21.3383 12.0117 21.7812 12.0117H30.1895C30.8528 12.0117 31.3906 11.4739 31.3906 10.8105V9.60938H36.1953V16.8965H30.1895C29.5261 16.8965 28.9883 17.4343 28.9883 18.0977V24.1035H20.5801C19.9167 24.1035 19.3789 24.6413 19.3789 25.3047V28.9082H10.8906C10.2273 28.9082 9.68945 29.446 9.68945 30.1094V33.7129H1.20117C0.537805 33.7129 0 34.2507 0 34.9141V39.7988C0 40.4622 0.537805 41 1.20117 41H39.7988C40.4622 41 41 40.4622 41 39.7988V18.0977C41 17.4343 40.4622 16.8965 39.7988 16.8965ZM28.9883 9.60938H24.0256L25.183 7.87336C25.452 7.46985 25.452 6.94422 25.183 6.54078L24.0256 4.80469H28.9883V9.60938ZM31.3906 2.40234H36.1953V7.20703H31.3906V2.40234ZM2.40234 36.1152H9.68945V38.5977H2.40234V36.1152ZM12.0918 31.3105H19.3789V38.5977H12.0918V31.3105ZM21.7812 26.5059H28.9883V38.5977H21.7812V26.5059ZM38.5977 38.5977H31.3906V19.2988H38.5977V38.5977Z" fill="#00B857"/>
</svg>
