<svg width="41" height="41" viewBox="0 0 41 41" fill="none" xmlns="http://www.w3.org/2000/svg">
<path fill-rule="evenodd" clip-rule="evenodd" d="M40.1992 9.63346H29.1294V4.24414C29.1294 3.80183 28.7709 3.44336 28.3286 3.44336H12.6711C12.2291 3.44336 11.8703 3.80183 11.8703 4.24414V9.63346H0.800781C0.358475 9.63346 0 9.99194 0 10.4342V36.7243C0 37.1666 0.358475 37.525 0.800781 37.525H17.2969C17.7392 37.525 18.0977 37.1666 18.0977 36.7243C18.0977 36.282 17.7392 35.9235 17.2969 35.9235H1.60156V19.8028L14.6377 24.1883V27.4396C14.6377 27.8819 14.9962 28.2404 15.4385 28.2404H25.5612C26.0035 28.2404 26.362 27.8819 26.362 27.4396V24.1883L39.3984 19.8028V35.9235H23.7031C23.2608 35.9235 22.9023 36.282 22.9023 36.7243C22.9023 37.1666 23.2608 37.525 23.7031 37.525H40.1992C40.6415 37.525 41 37.1666 41 36.7243V10.4342C41 9.99194 40.6415 9.63346 40.1992 9.63346ZM13.4719 5.04492H27.5278V9.63346H13.4719V5.04492ZM24.7604 26.6388H16.2393V22.0499H24.7604V26.6388ZM26.362 22.4985V21.2492C26.362 20.8072 26.0035 20.4484 25.5612 20.4484H15.4385C14.9962 20.4484 14.6377 20.8072 14.6377 21.2492V22.4985L1.60156 18.113V11.235H39.3984V18.113L26.362 22.4985Z" fill="#00B857"/>
<path fill-rule="evenodd" clip-rule="evenodd" d="M20.5 35.9235C20.0589 35.9235 19.6992 36.2832 19.6992 36.7242C19.6992 37.1653 20.0589 37.525 20.5 37.525C20.9411 37.525 21.3008 37.1653 21.3008 36.7242C21.3008 36.2832 20.9411 35.9235 20.5 35.9235Z" fill="#00B857"/>
</svg>
