<svg width="24" height="24" viewBox="0 0 24 24" fill="none" xmlns="http://www.w3.org/2000/svg">
<g clip-path="url(#clip0)">
<path d="M21.3203 18.0726C21.0615 18.0726 20.8516 18.2824 20.8516 18.5413V23.5312C20.8516 23.7901 21.0615 23.9999 21.3203 23.9999C21.5791 23.9999 21.7891 23.7901 21.7891 23.5312V18.5413C21.7891 18.2824 21.5791 18.0726 21.3203 18.0726Z" fill="white"/>
<path d="M21.3203 15.9632C21.197 15.9632 21.0761 16.0134 20.9889 16.1005C20.9017 16.1877 20.8516 16.3087 20.8516 16.4319C20.8516 16.5552 20.9017 16.6762 20.9889 16.7634C21.0761 16.8505 21.197 16.9007 21.3203 16.9007C21.4436 16.9007 21.5645 16.8505 21.6517 16.7634C21.7389 16.6762 21.7891 16.5552 21.7891 16.4319C21.7891 16.3087 21.7389 16.1877 21.6517 16.1005C21.5645 16.0134 21.4436 15.9632 21.3203 15.9632Z" fill="white"/>
<path d="M22.5 6.06971C22.3018 6.06971 22.1127 6.10871 21.9394 6.17883V5.24796C21.9394 4.42086 21.2665 3.74798 20.4394 3.74798C20.2405 3.74798 20.0507 3.78721 19.8769 3.8578V3.67373C19.8769 2.84663 19.2041 2.17375 18.377 2.17375C17.5499 2.17375 16.877 2.84663 16.877 3.67373V3.8578C16.7032 3.78721 16.5134 3.74798 16.3145 3.74798C15.4874 3.74798 14.8145 4.42086 14.8145 5.24796V9.10032C14.6406 9.02968 14.4508 8.9904 14.2518 8.9904C14.0529 8.9904 13.8631 9.02964 13.6893 9.10023V8.91615C13.6893 8.08906 13.0164 7.41617 12.1893 7.41617C12.0721 7.41617 11.9582 7.4301 11.8487 7.45564V5.39622C11.8487 4.56912 11.1758 3.89624 10.3486 3.89624C10.1505 3.89624 9.96136 3.93524 9.78807 4.00532V3.07439C9.78807 2.24729 9.11519 1.57441 8.28809 1.57441C8.0892 1.57441 7.89941 1.61365 7.7256 1.68424V1.50016C7.7256 0.673064 7.05272 0.000183105 6.22562 0.000183105C5.39852 0.000183105 4.72564 0.673064 4.72564 1.50016V1.68424C4.55183 1.61365 4.36203 1.57441 4.16315 1.57441C3.33605 1.57441 2.66317 2.24729 2.66317 3.07439L2.66307 6.58434C2.32113 6.20297 1.79571 6.00301 1.26092 6.09732C0.853911 6.16908 0.501134 6.39638 0.26756 6.73725C0.0340315 7.07812 -0.0505768 7.48911 0.029344 7.89448L0.570602 10.6394C0.784302 11.7228 1.31056 12.7077 2.09252 13.4874L3.07233 14.4645V23.5311C3.07233 23.79 3.28224 23.9999 3.54108 23.9999C3.79992 23.9999 4.00982 23.79 4.00982 23.5311V14.27C4.00982 14.1454 3.96023 14.026 3.8721 13.938L2.75453 12.8236C2.10503 12.176 1.66788 11.3579 1.49042 10.458L0.949113 7.71312C0.918316 7.55689 0.950894 7.39855 1.04094 7.26716C1.13094 7.13582 1.26687 7.04821 1.42372 7.02056C1.72751 6.96702 2.02319 7.15977 2.09664 7.45944L2.46517 8.96298C2.53562 9.25032 2.80046 9.43318 3.09361 9.39765C3.38738 9.36216 3.60051 9.1217 3.60051 8.82587L3.60061 3.07439C3.60061 2.76422 3.85293 2.5119 4.1631 2.5119C4.47327 2.5119 4.72559 2.76422 4.72559 3.07439V8.18365C4.72559 8.44254 4.9355 8.65239 5.19434 8.65239C5.45318 8.65239 5.66308 8.44254 5.66308 8.18365V1.50016C5.66308 1.18999 5.9154 0.93767 6.22557 0.93767C6.53574 0.93767 6.78806 1.18999 6.78806 1.50016V8.18365C6.78806 8.44254 6.99797 8.65239 7.25681 8.65239C7.51565 8.65239 7.72555 8.44254 7.72555 8.18365V3.07439C7.72555 2.76422 7.97788 2.5119 8.28804 2.5119C8.59821 2.5119 8.85054 2.76422 8.85054 3.07439V7.58408C8.85054 7.84297 9.06044 8.05282 9.31928 8.05282C9.57812 8.05282 9.78802 7.84297 9.78802 7.58408V5.35909C9.80724 5.06622 10.051 4.83363 10.3486 4.83363C10.6588 4.83363 10.9111 5.08596 10.9111 5.39612V8.13232C10.7707 8.3606 10.6893 8.62896 10.6893 8.91606V9.10014C10.5155 9.02954 10.3257 8.99031 10.1268 8.99031C9.29969 8.99031 8.6268 9.66319 8.6268 10.4903L8.62671 14.0002C8.28481 13.6189 7.75958 13.4189 7.22456 13.5132C6.8176 13.585 6.46487 13.8122 6.23129 14.1531C5.99772 14.4939 5.91306 14.9049 5.99298 15.3103L6.53429 18.0553C6.74794 19.1387 7.2742 20.1236 8.0562 20.9033L9.03602 21.8804V23.5311C9.03602 23.79 9.24592 23.9999 9.50476 23.9999C9.7636 23.9999 9.97351 23.79 9.97351 23.5311V21.6859C9.97351 21.5613 9.92391 21.4419 9.83574 21.3539L8.71816 20.2395C8.06867 19.5918 7.63152 18.7738 7.4541 17.8739L6.9128 15.129C6.882 14.9728 6.91458 14.8144 7.00462 14.6831C7.09462 14.5517 7.23056 14.4642 7.38735 14.4365C7.69124 14.383 7.98678 14.5757 8.06028 14.8754L8.42885 16.3789C8.49931 16.6662 8.76297 16.8491 9.0573 16.8136C9.35101 16.7781 9.56415 16.5376 9.56415 16.2418L9.56424 10.4903C9.56424 10.1802 9.81657 9.92784 10.1267 9.92784C10.4369 9.92784 10.6892 10.1802 10.6892 10.4903V15.5996C10.6892 15.8585 10.8991 16.0683 11.158 16.0683C11.4168 16.0683 11.6267 15.8585 11.6267 15.5996V8.91606C11.6267 8.60589 11.879 8.35357 12.1892 8.35357C12.4994 8.35357 12.7517 8.60589 12.7517 8.91606V15.5995C12.7517 15.8584 12.9616 16.0683 13.2204 16.0683C13.4793 16.0683 13.6892 15.8584 13.6892 15.5995V10.4903C13.6892 10.1801 13.9415 9.9278 14.2517 9.9278C14.5493 9.9278 14.7931 10.1604 14.8123 10.4533V15.5995C14.8123 15.8584 15.0222 16.0683 15.281 16.0683C15.2814 16.0683 15.2816 16.0682 15.282 16.0682C15.2823 16.0682 15.2826 16.0683 15.2829 16.0683C15.5418 16.0683 15.7517 15.8584 15.7517 15.5995V12.775C15.7709 12.4822 16.0146 12.2496 16.3123 12.2496C16.6224 12.2496 16.8748 12.5019 16.8748 12.8121V17.3672C16.8748 18.5796 16.3824 19.766 15.5238 20.6221L14.8015 21.3424C14.7133 21.4303 14.6638 21.5498 14.6638 21.6743V23.5311C14.6638 23.79 14.8737 23.9999 15.1325 23.9999C15.3913 23.9999 15.6012 23.79 15.6012 23.5311V21.8689L16.1858 21.286C17.2347 20.2401 17.8123 18.8484 17.8123 17.3672V12.8121C17.8123 11.985 17.1394 11.3121 16.3123 11.3121C16.1141 11.3121 15.925 11.3511 15.7517 11.4212L15.7519 5.24791C15.7519 4.93774 16.0043 4.68542 16.3144 4.68542C16.6246 4.68542 16.8769 4.93774 16.8769 5.24791V9.84431C16.8769 10.1032 17.0868 10.3131 17.3457 10.3131C17.6045 10.3131 17.8144 10.1032 17.8144 9.84431V3.67373C17.8144 3.36356 18.0667 3.11123 18.3769 3.11123C18.6871 3.11123 18.9394 3.36356 18.9394 3.67373V10.3572C18.9394 10.6161 19.1493 10.826 19.4081 10.826C19.667 10.826 19.8769 10.6161 19.8769 10.3572V5.24791C19.8769 4.93774 20.1292 4.68542 20.4394 4.68542C20.7495 4.68542 21.0019 4.93774 21.0019 5.24791L21 10.3572C21 10.6161 21.2099 10.8259 21.4687 10.8259C21.4691 10.8259 21.4693 10.8259 21.4697 10.8259C21.47 10.8259 21.4703 10.8259 21.4706 10.8259C21.7295 10.8259 21.9394 10.6161 21.9394 10.3572V7.53261C21.9586 7.23974 22.2023 7.00715 22.5 7.00715C22.8101 7.00715 23.0625 7.25947 23.0625 7.56964V12.1248C23.0625 13.0071 22.8105 13.8659 22.3338 14.6083C22.1939 14.8262 22.2571 15.1162 22.4749 15.2561C22.5534 15.3064 22.6411 15.3304 22.7278 15.3304C22.882 15.3304 23.0332 15.2543 23.1227 15.1149C23.6966 14.221 24 13.1871 24 12.1248V7.56959C24 6.74259 23.3271 6.06971 22.5 6.06971Z" fill="white"/>
</g>
<defs>
<clipPath id="clip0">
<rect width="24" height="24" fill="white"/>
</clipPath>
</defs>
</svg>
