<svg width="22" height="22" viewBox="0 0 22 22" fill="none" xmlns="http://www.w3.org/2000/svg">
<g clip-path="url(#clip0)">
<path d="M19.5458 17.9317C19.4266 17.7253 19.1627 17.6545 18.9561 17.7737L17.3868 18.6796C17.1804 18.7988 17.1096 19.0629 17.2288 19.2693C17.3088 19.4078 17.4539 19.4853 17.6031 19.4853C17.6763 19.4853 17.7506 19.4666 17.8185 19.4274L19.3878 18.5215C19.5942 18.4022 19.665 18.1382 19.5458 17.9317Z" fill="white"/>
<path d="M21.8915 12.5059C21.8914 12.4884 21.8903 12.4708 21.888 12.4532C21.8878 12.452 21.8876 12.4509 21.8874 12.4497C21.8852 12.434 21.882 12.4184 21.878 12.4028C21.8769 12.3985 21.8756 12.3943 21.8744 12.39C21.8708 12.3774 21.8665 12.365 21.8617 12.3527C21.86 12.3484 21.8585 12.3441 21.8567 12.3399C21.8501 12.3246 21.8429 12.3094 21.8343 12.2945C21.834 12.2941 21.8338 12.2936 21.8335 12.2932C21.825 12.2784 21.8155 12.2646 21.8055 12.2512C21.8028 12.2476 21.7998 12.2441 21.797 12.2406C21.7887 12.2302 21.7801 12.2203 21.771 12.2109C21.7679 12.2076 21.7648 12.2044 21.7616 12.2013C21.7502 12.1901 21.7382 12.1795 21.7256 12.1697C21.7247 12.169 21.7239 12.1681 21.723 12.1675C21.709 12.1567 21.6943 12.147 21.6791 12.1381C21.678 12.1375 21.677 12.1366 21.6759 12.136L16.6616 9.24119V3.45109C16.6616 3.44984 16.6614 3.44868 16.6614 3.44743C16.6612 3.42977 16.6602 3.41211 16.6578 3.39445C16.6577 3.39355 16.6575 3.39269 16.6574 3.39183C16.6552 3.37576 16.6518 3.35986 16.6477 3.34397C16.6467 3.33988 16.6455 3.3358 16.6443 3.33172C16.6406 3.31887 16.6363 3.30611 16.6313 3.29348C16.6298 3.28952 16.6284 3.28548 16.6267 3.28162C16.6199 3.26593 16.6126 3.25042 16.6038 3.23525C16.5951 3.22013 16.5854 3.20603 16.5752 3.19237C16.5726 3.18889 16.5698 3.18558 16.567 3.18219C16.5587 3.17166 16.5499 3.16161 16.5407 3.15207C16.5377 3.14893 16.5346 3.14575 16.5316 3.1427C16.52 3.1314 16.508 3.12074 16.4955 3.1109C16.4946 3.11021 16.4938 3.10944 16.4929 3.10875C16.4788 3.09797 16.4641 3.08826 16.4489 3.07932C16.4478 3.07868 16.4469 3.07786 16.4458 3.07726L11.2159 0.0578308C11.0824 -0.0192554 10.9178 -0.0192984 10.7842 0.0578308L5.55441 3.07721C5.55338 3.07782 5.55252 3.07855 5.55149 3.07915C5.53619 3.08813 5.52141 3.09788 5.50719 3.1088C5.5065 3.10931 5.5059 3.10991 5.50521 3.11047C5.49245 3.1204 5.48024 3.13127 5.46856 3.1427C5.46551 3.14571 5.4625 3.1488 5.45953 3.15189C5.45034 3.16148 5.44157 3.17153 5.43319 3.18206C5.43049 3.18545 5.42761 3.1888 5.42499 3.19233C5.4148 3.20595 5.40513 3.22009 5.39641 3.23517C5.38769 3.25029 5.3803 3.26572 5.3736 3.28136C5.37188 3.2854 5.37042 3.28961 5.36878 3.29369C5.36388 3.30615 5.35959 3.3187 5.35594 3.33138C5.35473 3.33554 5.35353 3.33975 5.35241 3.34397C5.34842 3.35965 5.34511 3.37542 5.34292 3.39127C5.34279 3.39235 5.34249 3.39334 5.34236 3.39441C5.34004 3.41198 5.33901 3.42965 5.33888 3.44722C5.33888 3.44847 5.33862 3.44971 5.33862 3.45096V9.24098L0.324231 12.1358C0.323157 12.1364 0.322255 12.1373 0.321224 12.1379C0.30597 12.1468 0.291188 12.1565 0.277051 12.1674C0.276364 12.1679 0.275719 12.1686 0.275032 12.1691C0.26227 12.179 0.25011 12.1898 0.238422 12.2014C0.235329 12.2044 0.232364 12.2075 0.229356 12.2106C0.220204 12.2201 0.211438 12.2302 0.203059 12.2407C0.200309 12.2441 0.197387 12.2475 0.194766 12.251C0.184711 12.2645 0.175172 12.2785 0.166535 12.2934C0.166406 12.2936 0.166235 12.2938 0.166106 12.294C0.157469 12.3091 0.150078 12.3244 0.143461 12.3399C0.141699 12.3441 0.140195 12.3484 0.13852 12.3526C0.133707 12.3649 0.12941 12.3774 0.125758 12.39C0.124512 12.3942 0.123309 12.3985 0.122191 12.4028C0.118195 12.4184 0.11493 12.434 0.112738 12.4498C0.112566 12.4509 0.112309 12.452 0.112137 12.4532C0.109816 12.4707 0.108785 12.4884 0.108656 12.506C0.108656 12.5072 0.108398 12.5084 0.108398 12.5097V18.5489H0.108441C0.108441 18.7032 0.190727 18.8456 0.324274 18.9228L5.55449 21.9421C5.55553 21.9427 5.55669 21.9431 5.55772 21.9437C5.5731 21.9524 5.58887 21.9603 5.60533 21.9672C5.60632 21.9676 5.6073 21.9679 5.60829 21.9682C5.62312 21.9743 5.63837 21.9793 5.65397 21.9837C5.65822 21.9849 5.66252 21.9859 5.66677 21.9869C5.67949 21.9901 5.69247 21.9926 5.70562 21.9946C5.71004 21.9953 5.71447 21.9961 5.71894 21.9966C5.73578 21.9986 5.75288 21.9999 5.77024 21.9999C5.7876 21.9999 5.8047 21.9986 5.82155 21.9966C5.82601 21.9961 5.83044 21.9952 5.83487 21.9946C5.84802 21.9926 5.86095 21.9901 5.87367 21.9869C5.87796 21.9859 5.88226 21.9848 5.88656 21.9836C5.90207 21.9793 5.91724 21.9743 5.93198 21.9683C5.93305 21.9679 5.93412 21.9676 5.9352 21.9671C5.95161 21.9603 5.96738 21.9524 5.98264 21.9437C5.98371 21.9431 5.98487 21.9427 5.98599 21.9421L10.9999 19.0473L16.0138 21.9421C16.0149 21.9427 16.0161 21.9431 16.0172 21.9438C16.0325 21.9524 16.0482 21.9603 16.0646 21.9671C16.0657 21.9676 16.0669 21.9679 16.068 21.9683C16.0827 21.9743 16.0978 21.9793 16.1133 21.9836C16.1176 21.9848 16.1219 21.9859 16.1262 21.9869C16.1389 21.9901 16.1519 21.9926 16.165 21.9946C16.1695 21.9953 16.1739 21.9961 16.1783 21.9966C16.1952 21.9986 16.2122 21.9999 16.2297 21.9999C16.2471 21.9999 16.2641 21.9986 16.281 21.9966C16.2854 21.9961 16.2899 21.9952 16.2943 21.9946C16.3074 21.9926 16.3204 21.9901 16.3331 21.9869C16.3374 21.9859 16.3417 21.9848 16.346 21.9836C16.3615 21.9793 16.3766 21.9743 16.3913 21.9683C16.3924 21.9679 16.3936 21.9676 16.3947 21.9671C16.4111 21.9603 16.4268 21.9524 16.4421 21.9438C16.4432 21.9431 16.4444 21.9427 16.4455 21.9421L21.6757 18.9227C21.8093 18.8456 21.8916 18.7031 21.8916 18.5489V12.5098C21.8918 12.5084 21.8915 12.5072 21.8915 12.5059ZM17.9863 11.0028L13.6199 13.5238L11.8634 12.5097L16.2298 9.98881L17.9863 11.0028ZM15.7981 9.24111L11.4318 11.762V6.72016L15.7981 4.19892V9.24111ZM11 0.930186L12.7565 1.94425L8.39001 4.46524L6.63366 3.45109L11 0.930186ZM5.77024 9.98885L7.52647 11.0028L3.15997 13.5237L1.40357 12.5097L5.77024 9.98885ZM5.33858 20.8206L0.971773 18.2997V13.2575L2.83173 14.3312C2.88935 14.3912 2.96175 14.4323 3.03991 14.4514L5.33858 15.7784V20.8206ZM5.77028 15.0307L4.02347 14.0222L8.38984 11.5013L10.1366 12.5098L5.77028 15.0307ZM10.5683 18.2997L6.20199 20.8206V15.7784L10.5683 13.2575V18.2997ZM10.5683 11.762L6.20199 9.24115V4.19887L8.06079 5.27224C8.11871 5.33287 8.19171 5.3742 8.27052 5.39332L10.5684 6.72016V11.762H10.5683ZM9.25348 4.96385L13.6199 2.44273L15.3664 3.45109L11.0001 5.97237L9.25348 4.96385ZM15.7981 20.8205L11.4318 18.2997V13.2575L13.2917 14.3312C13.3491 14.3911 13.4215 14.432 13.4995 14.4512L15.7981 15.7783V20.8205H15.7981ZM16.2298 15.0307L14.4833 14.0223L18.8497 11.5013L20.5965 12.5098L16.2298 15.0307ZM21.0283 18.2997L16.6615 20.8206V15.7784L21.0283 13.2575V18.2997Z" fill="white"/>
<path d="M20.253 17.1514C19.6974 17.1514 19.6965 18.0148 20.253 18.0148C20.8085 18.0148 20.8095 17.1514 20.253 17.1514Z" fill="white"/>
</g>
<defs>
<clipPath id="clip0">
<rect width="22" height="22" fill="white"/>
</clipPath>
</defs>
</svg>
