<svg width="41" height="41" viewBox="0 0 41 41" fill="none" xmlns="http://www.w3.org/2000/svg">
<path d="M40.0311 19.184C39.4174 18.6179 38.5825 18.2681 37.7405 18.2243C36.7842 18.1749 35.8883 18.5159 35.2211 19.1834L30.6623 23.6944C30.5722 23.5383 30.4693 23.3909 30.3539 23.2543C29.793 22.5883 28.9728 22.2217 28.0447 22.2217H21.6629C20.4595 22.2217 19.2856 22.0656 18.1739 21.7581C15.2754 20.9564 12.5065 21.542 10.1657 23.4526C9.21387 24.2296 8.51944 25.0748 8.08027 25.691L6.93602 24.5805C6.78556 24.4345 6.58162 24.3516 6.37172 24.3516C6.36985 24.3516 6.36828 24.3516 6.36641 24.3516C6.14901 24.3531 5.9388 24.4435 5.78803 24.5999L0.225413 30.3746C0.0765175 30.5292 -0.00449906 30.7369 0.000193017 30.9515C0.0048851 31.1664 0.0946602 31.3703 0.250124 31.5183L9.65837 40.4767C9.81446 40.6253 10.0147 40.6994 10.2145 40.6994C10.4244 40.6994 10.6343 40.6178 10.7923 40.4557L16.303 34.8021C16.4534 34.6476 16.537 34.4364 16.5329 34.2206C16.5288 34.0079 16.4397 33.8027 16.287 33.6544L15.8072 33.1889L16.9054 33.0654C17.5698 32.9881 18.2455 32.949 18.9143 32.949H28.6241C30.2019 32.949 31.5419 32.604 32.6073 31.9233C32.6161 31.9177 32.6248 31.9118 32.6336 31.9058C33.0152 31.6406 33.3615 31.3262 33.6624 30.9718L40.2057 23.274C41.3255 21.9567 41.2555 20.3129 40.0311 19.184ZM10.1936 38.7591L1.94991 30.9095L6.3908 26.2991L14.5863 34.2522L10.1936 38.7591ZM38.9767 22.2292L32.4334 29.9273C32.2257 30.1716 31.9877 30.3887 31.7252 30.5726C30.9254 31.0791 29.8822 31.3362 28.6241 31.3362H18.914C18.1836 31.3362 17.445 31.3791 16.7221 31.4632L14.3079 31.7341L9.25297 26.8287C9.60425 26.3079 10.2502 25.4661 11.1858 24.7022C13.1308 23.1144 15.3373 22.6468 17.7438 23.3127C18.9956 23.659 20.3141 23.8348 21.6629 23.8348H28.0447C29.1909 23.8348 29.4968 24.8277 29.4968 25.4142C29.4968 25.8427 29.3592 26.2506 29.1192 26.5334C28.859 26.8396 28.4889 26.9948 28.0194 26.9948H22.464C22.0186 26.9948 21.6576 27.3561 21.6576 27.8015C21.6576 28.2469 22.0186 28.6079 22.464 28.6079H28.0194C28.9572 28.6079 29.7843 28.2419 30.3486 27.5775C30.8181 27.0251 31.0858 26.2988 31.1084 25.5224L36.3588 20.327C37.1092 19.5766 38.2816 19.7649 38.9376 20.3699C39.2766 20.6827 39.7327 21.3399 38.9767 22.2292Z" fill="#00B857"/>
<path d="M19.9473 27.5865C19.8457 27.1527 19.4118 26.884 18.9779 26.9853C18.5444 27.087 18.2751 27.5209 18.377 27.9547L18.3846 27.9876C18.4718 28.3592 18.8031 28.61 19.1691 28.61C19.2301 28.61 19.292 28.6032 19.3539 28.5888C19.7878 28.4871 20.0568 28.0529 19.9551 27.6194L19.9473 27.5865Z" fill="#00B857"/>
<path d="M5.45284 17.3368H13.3118C13.7397 17.3368 14.1357 17.1979 14.4579 16.9633C14.7801 17.1979 15.1761 17.3368 15.604 17.3368H23.4632C23.8912 17.3368 24.2872 17.1979 24.6094 16.9633C24.9315 17.1979 25.3276 17.3368 25.7555 17.3368H33.6144C34.6911 17.3368 35.5669 16.4607 35.5669 15.384V11.7192C35.5669 10.0732 34.6457 8.64334 33.2669 7.93797C33.935 7.13218 34.3373 6.09867 34.3373 4.97257C34.3373 2.40726 32.2502 0.320221 29.6849 0.320221C27.1196 0.320221 25.0326 2.40726 25.0326 4.97257C25.0326 6.09867 25.4348 7.13249 26.103 7.93797C25.5071 8.24327 24.9969 8.68401 24.6094 9.21859C24.2218 8.6837 23.7116 8.24295 23.1154 7.93797C23.7835 7.13249 24.1858 6.09867 24.1858 4.97257C24.1858 2.40726 22.0988 0.320221 19.5335 0.320221C16.9681 0.320221 14.8811 2.40726 14.8811 4.97257C14.8811 6.09867 15.2837 7.13249 15.9518 7.93828C15.3556 8.24327 14.8454 8.68401 14.4579 9.21891C14.0703 8.68401 13.5601 8.24327 12.9639 7.93797C13.6321 7.13249 14.0343 6.09867 14.0343 4.97289C14.0343 2.40726 11.9473 0.320221 9.38199 0.320221C6.81699 0.320221 4.72995 2.40726 4.72995 4.97289C4.72995 6.09867 5.13222 7.13249 5.80037 7.93828C4.42152 8.64366 3.5 10.0738 3.5 11.7195V15.384C3.5 16.4607 4.37617 17.3368 5.45284 17.3368ZM29.6852 1.93336C31.3609 1.93336 32.7245 3.29656 32.7245 4.97257C32.7245 6.64827 31.3609 8.01179 29.6852 8.01179C28.0092 8.01179 26.646 6.64858 26.646 4.97257C26.6457 3.29656 28.0092 1.93336 29.6852 1.93336ZM27.5898 9.12444C28.2201 9.44381 28.9317 9.62493 29.6849 9.62493C30.4385 9.62493 31.1501 9.44381 31.7801 9.12444C33.0335 9.34278 33.9541 10.4229 33.9541 11.7192V15.384C33.9541 15.5714 33.8018 15.7237 33.6144 15.7237H25.7555C25.5684 15.7237 25.4161 15.5714 25.4161 15.384V11.7192C25.4158 10.4232 26.3367 9.34278 27.5898 9.12444ZM19.5338 1.93336C21.2095 1.93336 22.573 3.29656 22.573 4.97257C22.573 6.64827 21.2095 8.01179 19.5338 8.01179C17.8578 8.01179 16.4946 6.64858 16.4946 4.97257C16.4946 3.29656 17.8578 1.93336 19.5338 1.93336ZM17.4386 9.12444C18.0686 9.44381 18.7802 9.62493 19.5338 9.62493C20.2873 9.62493 20.9986 9.44381 21.6289 9.12444C22.882 9.34278 23.8029 10.4229 23.8029 11.7192V15.384C23.8029 15.5714 23.6506 15.7237 23.4632 15.7237H15.6043C15.4169 15.7237 15.2646 15.5714 15.2646 15.384V11.7192C15.2646 10.4232 16.1855 9.34278 17.4386 9.12444ZM9.3823 1.93336C11.058 1.93336 12.4215 3.29656 12.4215 4.97257C12.4215 6.64827 11.058 8.01179 9.3823 8.01179C7.70661 8.01179 6.34309 6.64827 6.34309 4.97257C6.34309 3.29656 7.70661 1.93336 9.3823 1.93336ZM5.11314 11.7192C5.11314 10.4232 6.03404 9.34278 7.28713 9.12444C7.91744 9.44381 8.62876 9.62493 9.3823 9.62493C10.1359 9.62493 10.8472 9.44381 11.4775 9.12444C12.7309 9.34278 13.6515 10.4229 13.6515 11.7192V15.384C13.6515 15.5714 13.4991 15.7237 13.3118 15.7237H5.45284C5.26547 15.7237 5.11314 15.5714 5.11314 15.384V11.7192Z" fill="#00B857"/>
</svg>
