<svg width="22" height="22" viewBox="0 0 22 22" fill="none" xmlns="http://www.w3.org/2000/svg">
<path d="M21.4801 10.2938C21.1508 9.99005 20.7028 9.80239 20.251 9.77889C19.7379 9.75237 19.2572 9.93533 18.8991 10.2935L16.4529 12.714C16.4046 12.6303 16.3494 12.5512 16.2874 12.4779C15.9865 12.1205 15.5464 11.9238 15.0484 11.9238H11.624C10.9783 11.9238 10.3484 11.8401 9.75183 11.6751C8.19656 11.2449 6.71078 11.5591 5.45479 12.5843C4.94403 13.0012 4.57141 13.4547 4.33575 13.7854L3.72177 13.1895C3.64104 13.1112 3.5316 13.0667 3.41897 13.0667C3.41797 13.0667 3.41713 13.0667 3.41612 13.0667C3.29947 13.0675 3.18667 13.116 3.10577 13.1999L0.120953 16.2986C0.0410582 16.3815 -0.00241413 16.4929 0.00010357 16.6081C0.00262127 16.7234 0.0507933 16.8328 0.134213 16.9122L5.18254 21.7192C5.26629 21.7989 5.37372 21.8387 5.48097 21.8387C5.5936 21.8387 5.70622 21.7949 5.79098 21.7079L8.74794 18.6743C8.82867 18.5913 8.87349 18.4781 8.87131 18.3622C8.86913 18.2481 8.82129 18.138 8.73938 18.0584L8.4819 17.8087L9.07121 17.7424C9.42772 17.7009 9.79027 17.6799 10.1491 17.6799H15.3593C16.2059 17.6799 16.9249 17.4948 17.4966 17.1296C17.5013 17.1266 17.506 17.1234 17.5107 17.1202C17.7155 16.9778 17.9013 16.8092 18.0628 16.619L21.5738 12.4884C22.1747 11.7816 22.1371 10.8996 21.4801 10.2938ZM5.46973 20.7975L1.04629 16.5856L3.42921 14.1117L7.8268 18.3792L5.46973 20.7975ZM20.9143 11.9278L17.4033 16.0585C17.2918 16.1896 17.1641 16.3061 17.0233 16.4048C16.5941 16.6766 16.0343 16.8145 15.3593 16.8145H10.149C9.75703 16.8145 9.36075 16.8375 8.97285 16.8827L7.67741 17.028L4.96501 14.3959C5.1535 14.1164 5.50011 13.6647 6.00214 13.2548C7.04581 12.4028 8.2298 12.1519 9.52104 12.5093C10.1928 12.6951 10.9002 12.7894 11.624 12.7894H15.0484C15.6634 12.7894 15.8275 13.3221 15.8275 13.6369C15.8275 13.8668 15.7537 14.0857 15.625 14.2374C15.4853 14.4017 15.2867 14.485 15.0348 14.485H12.0538C11.8148 14.485 11.6211 14.6788 11.6211 14.9179C11.6211 15.1569 11.8148 15.3506 12.0538 15.3506H15.0348C15.538 15.3506 15.9818 15.1542 16.2846 14.7977C16.5365 14.5013 16.6802 14.1115 16.6923 13.6949L19.5096 10.9072C19.9123 10.5045 20.5414 10.6055 20.8933 10.9302C21.0753 11.098 21.32 11.4506 20.9143 11.9278Z" fill="white"/>
<path d="M10.7038 14.8028C10.6492 14.57 10.4164 14.4258 10.1836 14.4802C9.95098 14.5348 9.80647 14.7676 9.86119 15.0004L9.86521 15.018C9.91204 15.2174 10.0898 15.352 10.2862 15.352C10.3189 15.352 10.3521 15.3483 10.3854 15.3406C10.6182 15.2861 10.7625 15.0531 10.708 14.8204L10.7038 14.8028Z" fill="white"/>
<path d="M2.92482 9.30274H7.1418C7.37142 9.30274 7.58391 9.22821 7.75679 9.10233C7.92967 9.22821 8.14217 9.30274 8.37178 9.30274H12.5889C12.8185 9.30274 13.031 9.22821 13.2039 9.10233C13.3768 9.22821 13.5893 9.30274 13.8189 9.30274H18.0359C18.6136 9.30274 19.0836 8.8326 19.0836 8.25487V6.28838C19.0836 5.40517 18.5893 4.63794 17.8494 4.25945C18.2079 3.82707 18.4238 3.27251 18.4238 2.66826C18.4238 1.29175 17.3039 0.171875 15.9274 0.171875C14.5509 0.171875 13.431 1.29175 13.431 2.66826C13.431 3.27251 13.6469 3.82724 14.0054 4.25945C13.6856 4.42326 13.4119 4.65976 13.2039 4.94661C12.996 4.65959 12.7222 4.4231 12.4023 4.25945C12.7608 3.82724 12.9767 3.27251 12.9767 2.66826C12.9767 1.29175 11.8568 0.171875 10.4803 0.171875C9.10376 0.171875 7.98389 1.29175 7.98389 2.66826C7.98389 3.27251 8.19991 3.82724 8.55843 4.25961C8.23851 4.42326 7.96475 4.65976 7.75679 4.94678C7.54883 4.65976 7.27507 4.42326 6.95516 4.25945C7.31368 3.82724 7.52953 3.27251 7.52953 2.66843C7.52953 1.29175 6.40965 0.171875 5.03314 0.171875C3.6568 0.171875 2.53693 1.29175 2.53693 2.66843C2.53693 3.27251 2.75278 3.82724 3.1113 4.25961C2.37143 4.63811 1.87695 5.4055 1.87695 6.28854V8.25487C1.87695 8.8326 2.34709 9.30274 2.92482 9.30274ZM15.9276 1.03746C16.8267 1.03746 17.5584 1.76894 17.5584 2.66826C17.5584 3.56741 16.8267 4.29906 15.9276 4.29906C15.0282 4.29906 14.2968 3.56758 14.2968 2.66826C14.2966 1.76894 15.0282 1.03746 15.9276 1.03746ZM14.8032 4.89609C15.1414 5.06746 15.5232 5.16464 15.9274 5.16464C16.3317 5.16464 16.7136 5.06746 17.0516 4.89609C17.7242 5.01325 18.2182 5.59282 18.2182 6.28838V8.25487C18.2182 8.35541 18.1364 8.43715 18.0359 8.43715H13.8189C13.7185 8.43715 13.6368 8.35541 13.6368 8.25487V6.28838C13.6366 5.59299 14.1308 5.01325 14.8032 4.89609ZM10.4804 1.03746C11.3796 1.03746 12.1112 1.76894 12.1112 2.66826C12.1112 3.56741 11.3796 4.29906 10.4804 4.29906C9.58112 4.29906 8.84964 3.56758 8.84964 2.66826C8.84964 1.76894 9.58112 1.03746 10.4804 1.03746ZM9.3562 4.89609C9.69425 5.06746 10.0761 5.16464 10.4804 5.16464C10.8848 5.16464 11.2665 5.06746 11.6047 4.89609C12.2771 5.01325 12.7712 5.59282 12.7712 6.28838V8.25487C12.7712 8.35541 12.6895 8.43715 12.5889 8.43715H8.37195C8.27141 8.43715 8.18967 8.35541 8.18967 8.25487V6.28838C8.18967 5.59299 8.68381 5.01325 9.3562 4.89609ZM5.03331 1.03746C5.93247 1.03746 6.66411 1.76894 6.66411 2.66826C6.66411 3.56741 5.93247 4.29906 5.03331 4.29906C4.13416 4.29906 3.40251 3.56741 3.40251 2.66826C3.40251 1.76894 4.13416 1.03746 5.03331 1.03746ZM2.74254 6.28838C2.74254 5.59299 3.23668 5.01325 3.90907 4.89609C4.24728 5.06746 4.62897 5.16464 5.03331 5.16464C5.43765 5.16464 5.81934 5.06746 6.15755 4.89609C6.83011 5.01325 7.32408 5.59282 7.32408 6.28838V8.25487C7.32408 8.35541 7.24234 8.43715 7.1418 8.43715H2.92482C2.82428 8.43715 2.74254 8.35541 2.74254 8.25487V6.28838Z" fill="white"/>
</svg>
