<svg width="42" height="42" viewBox="0 0 42 42" fill="none" xmlns="http://www.w3.org/2000/svg">
<path d="M40.6875 20.3438H40.0189C39.8534 15.5263 37.8657 10.9512 34.4572 7.54278C31.0488 4.13433 26.4737 2.14656 21.6562 1.98105V1.3125C21.6562 1.13845 21.5871 0.971532 21.464 0.848461C21.341 0.72539 21.174 0.65625 21 0.65625C20.826 0.65625 20.659 0.72539 20.536 0.848461C20.4129 0.971532 20.3438 1.13845 20.3438 1.3125V1.98105C15.5263 2.14656 10.9512 4.13433 7.54278 7.54278C4.13433 10.9512 2.14656 15.5263 1.98105 20.3438H1.3125C1.13845 20.3438 0.971532 20.4129 0.848461 20.536C0.72539 20.659 0.65625 20.826 0.65625 21C0.65625 21.174 0.72539 21.341 0.848461 21.464C0.971532 21.5871 1.13845 21.6562 1.3125 21.6562H1.98105C2.14656 26.4737 4.13433 31.0488 7.54278 34.4572C10.9512 37.8657 15.5263 39.8534 20.3438 40.0189V40.6875C20.3438 40.8615 20.4129 41.0285 20.536 41.1515C20.659 41.2746 20.826 41.3438 21 41.3438C21.174 41.3438 21.341 41.2746 21.464 41.1515C21.5871 41.0285 21.6562 40.8615 21.6562 40.6875V40.0189C26.4737 39.8534 31.0488 37.8657 34.4572 34.4572C37.8657 31.0488 39.8534 26.4737 40.0189 21.6562H40.6875C40.8615 21.6562 41.0285 21.5871 41.1515 21.464C41.2746 21.341 41.3438 21.174 41.3438 21C41.3438 20.826 41.2746 20.659 41.1515 20.536C41.0285 20.4129 40.8615 20.3438 40.6875 20.3438ZM38.0625 21.6562H38.7056C38.5406 26.1254 36.6914 30.3667 33.529 33.529C30.3667 36.6914 26.1254 38.5406 21.6562 38.7056V38.0625C21.6562 37.8885 21.5871 37.7215 21.464 37.5985C21.341 37.4754 21.174 37.4062 21 37.4062C20.826 37.4062 20.659 37.4754 20.536 37.5985C20.4129 37.7215 20.3438 37.8885 20.3438 38.0625V38.7056C15.8746 38.5406 11.6333 36.6914 8.47095 33.529C5.30864 30.3667 3.4594 26.1254 3.29437 21.6562H3.9375C4.11155 21.6562 4.27847 21.5871 4.40154 21.464C4.52461 21.341 4.59375 21.174 4.59375 21C4.59375 20.826 4.52461 20.659 4.40154 20.536C4.27847 20.4129 4.11155 20.3438 3.9375 20.3438H3.29437C3.4594 15.8746 5.30864 11.6333 8.47095 8.47095C11.6333 5.30864 15.8746 3.4594 20.3438 3.29437V3.9375C20.3438 4.11155 20.4129 4.27847 20.536 4.40154C20.659 4.52461 20.826 4.59375 21 4.59375C21.174 4.59375 21.341 4.52461 21.464 4.40154C21.5871 4.27847 21.6562 4.11155 21.6562 3.9375V3.29437C26.1254 3.4594 30.3667 5.30864 33.529 8.47095C36.6914 11.6333 38.5406 15.8746 38.7056 20.3438H38.0625C37.8885 20.3438 37.7215 20.4129 37.5985 20.536C37.4754 20.659 37.4062 20.826 37.4062 21C37.4062 21.174 37.4754 21.341 37.5985 21.464C37.7215 21.5871 37.8885 21.6562 38.0625 21.6562Z" fill="#00B857"/>
<path d="M31.3122 19.9C31.593 19.5075 31.7602 19.0453 31.7954 18.5641C31.8306 18.0828 31.7325 17.6011 31.5119 17.172C31.2912 16.7429 30.9565 16.3829 30.5446 16.1315C30.1327 15.8802 29.6595 15.7473 29.1769 15.7474C28.6944 15.7475 28.2212 15.8806 27.8094 16.1321C27.3975 16.3835 27.063 16.7437 26.8425 17.1729C26.622 17.6021 26.5241 18.0838 26.5595 18.5651C26.5949 19.0463 26.7623 19.5085 27.0433 19.9008C26.4337 20.158 25.8972 20.5618 25.4814 21.0763C25.0438 20.4172 24.4422 19.8835 23.7358 19.5275C24.0632 19.0331 24.2505 18.4591 24.2778 17.8667C24.3051 17.2743 24.1713 16.6855 23.8906 16.1631C23.61 15.6406 23.193 15.204 22.684 14.8997C22.175 14.5953 21.5931 14.4346 21 14.4346C20.407 14.4346 19.825 14.5953 19.316 14.8997C18.807 15.204 18.39 15.6406 18.1094 16.1631C17.8288 16.6855 17.695 17.2743 17.7222 17.8667C17.7495 18.4591 17.9368 19.0331 18.2643 19.5275C17.6293 19.8481 17.0779 20.3124 16.654 20.8835C16.2651 20.4596 15.7895 20.1244 15.2595 19.9008C15.5404 19.5085 15.7078 19.0463 15.7432 18.5651C15.7786 18.0838 15.6807 17.6021 15.4602 17.1729C15.2397 16.7437 14.9052 16.3835 14.4934 16.1321C14.0815 15.8806 13.6084 15.7475 13.1258 15.7474C12.6433 15.7473 12.17 15.8802 11.7581 16.1315C11.3462 16.3829 11.0115 16.7429 10.7908 17.172C10.5702 17.6011 10.4721 18.0828 10.5073 18.5641C10.5425 19.0453 10.7098 19.5075 10.9906 19.9C10.2602 20.2075 9.63698 20.7241 9.1994 21.3849C8.76182 22.0456 8.52936 22.821 8.53126 23.6135V25.5937C8.53126 25.7678 8.6004 25.9347 8.72347 26.0578C8.84654 26.1809 9.01346 26.25 9.18751 26.25H15.75V26.9062C15.75 27.0803 15.8192 27.2472 15.9422 27.3703C16.0653 27.4934 16.2322 27.5625 16.4063 27.5625H25.5938C25.7678 27.5625 25.9347 27.4934 26.0578 27.3703C26.1809 27.2472 26.25 27.0803 26.25 26.9062V26.25H33.1152C33.2893 26.25 33.4562 26.1809 33.5793 26.0578C33.7023 25.9347 33.7715 25.7678 33.7715 25.5937V23.6135C33.7734 22.821 33.5409 22.0456 33.1033 21.3849C32.6657 20.7241 32.0426 20.2075 31.3122 19.9ZM13.125 17.0625C13.461 17.0628 13.784 17.1919 14.0276 17.4232C14.2712 17.6546 14.4168 17.9705 14.4345 18.306C14.4522 18.6415 14.3405 18.971 14.1225 19.2266C13.9046 19.4822 13.5969 19.6445 13.2628 19.6801H12.9872C12.6531 19.6445 12.3455 19.4822 12.1275 19.2266C11.9095 18.971 11.7979 18.6415 11.8155 18.306C11.8332 17.9705 11.9788 17.6546 12.2224 17.4232C12.466 17.1919 12.7891 17.0628 13.125 17.0625ZM15.75 23.625V24.9375H9.84376V23.6135C9.842 23.0182 10.0364 22.439 10.3968 21.9652C10.7573 21.4915 11.2638 21.1497 11.8379 20.9926H12.9388C13.0003 20.9967 13.0618 21 13.125 21C13.1882 21 13.2497 20.9967 13.3112 20.9926H14.4121C15.0652 21.1718 15.6272 21.5895 15.9871 22.1632C15.8301 22.6346 15.7501 23.1282 15.75 23.625ZM21 15.75C21.3894 15.75 21.77 15.8655 22.0938 16.0818C22.4176 16.2981 22.6699 16.6056 22.8189 16.9653C22.9679 17.3251 23.0069 17.7209 22.9309 18.1028C22.855 18.4847 22.6675 18.8355 22.3921 19.1109C22.1168 19.3862 21.766 19.5737 21.3841 19.6497C21.0022 19.7256 20.6063 19.6866 20.2466 19.5376C19.8869 19.3886 19.5794 19.1363 19.3631 18.8125C19.1467 18.4888 19.0313 18.1081 19.0313 17.7187C19.032 17.1968 19.2396 16.6965 19.6087 16.3274C19.9777 15.9583 20.4781 15.7507 21 15.75ZM24.9375 26.25H17.0625V23.625C17.0624 23.1989 17.1448 22.7769 17.3053 22.3822C17.3086 22.3748 17.3119 22.3666 17.3152 22.3584C17.4939 21.9285 17.7624 21.5418 18.1028 21.2242C18.4432 20.9066 18.8476 20.6654 19.2888 20.5168C19.8037 20.8328 20.396 21 21 21C21.6041 21 22.1963 20.8328 22.7112 20.5168C23.3613 20.736 23.9261 21.1541 24.3256 21.7119C24.7252 22.2696 24.9392 22.9389 24.9375 23.625V26.25ZM29.1777 17.0625C29.5137 17.0628 29.8367 17.1919 30.0803 17.4232C30.3239 17.6546 30.4695 17.9705 30.4872 18.306C30.5049 18.6415 30.3932 18.971 30.1752 19.2266C29.9573 19.4822 29.6496 19.6445 29.3155 19.6801H29.0399C28.7058 19.6445 28.3981 19.4822 28.1802 19.2266C27.9622 18.971 27.8506 18.6415 27.8682 18.306C27.8859 17.9705 28.0315 17.6546 28.2751 17.4232C28.5187 17.1919 28.8418 17.0628 29.1777 17.0625ZM32.459 24.9375H26.25V23.625C26.2499 23.249 26.2042 22.8744 26.1138 22.5094C26.1396 22.4757 26.1621 22.4398 26.1811 22.4019C26.3505 22.0597 26.5904 21.7572 26.885 21.5143C27.1797 21.2714 27.5224 21.0936 27.8906 20.9926H28.9915C29.053 20.9967 29.1145 21 29.1777 21C29.2409 21 29.3024 20.9967 29.3639 20.9926H30.4648C31.039 21.1497 31.5454 21.4915 31.9059 21.9652C32.2664 22.439 32.4607 23.0182 32.459 23.6135V24.9375Z" fill="#00B857"/>
<path d="M6.5625 20.3438H5.90625C5.7322 20.3438 5.56528 20.4129 5.44221 20.536C5.31914 20.659 5.25 20.826 5.25 21C5.25 21.174 5.31914 21.341 5.44221 21.464C5.56528 21.5871 5.7322 21.6562 5.90625 21.6562H6.5625C6.73655 21.6562 6.90347 21.5871 7.02654 21.464C7.14961 21.341 7.21875 21.174 7.21875 21C7.21875 20.826 7.14961 20.659 7.02654 20.536C6.90347 20.4129 6.73655 20.3438 6.5625 20.3438Z" fill="#00B857"/>
</svg>
