<svg width="12" height="12" viewBox="0 0 12 12" fill="none" xmlns="http://www.w3.org/2000/svg">
<path d="M5.99999 0.75C3.1005 0.75 0.75 3.1005 0.75 5.99999C0.75 8.89948 3.1005 11.25 5.99999 11.25C8.89948 11.25 11.25 8.89948 11.25 5.99999C11.2469 3.1018 8.8982 0.753098 5.99999 0.75ZM6.375 5.99999C6.375 6.2071 6.2071 6.375 5.99999 6.375H3C2.79288 6.375 2.62499 6.2071 2.62499 5.99999C2.62499 5.79288 2.79288 5.62498 3 5.62498H5.625V3C5.625 2.79288 5.7929 2.62499 6.00001 2.62499C6.20713 2.62499 6.375 2.79288 6.375 3V5.99999Z" fill="white"/>
</svg>
