<svg width="41" height="41" viewBox="0 0 41 41" fill="none" xmlns="http://www.w3.org/2000/svg">
<g clip-path="url(#clip0)">
<path d="M34.195 0H6.80859C4.24766 0 2.16406 2.0836 2.16406 4.64453V34.2731C2.16406 35.5979 3.24168 36.6755 4.56641 36.6755H15.0832C15.5255 36.6755 15.884 36.317 15.884 35.8747C15.884 35.4324 15.5255 35.0739 15.0832 35.0739H4.56641C4.12473 35.0739 3.76562 34.7148 3.76562 34.2731V4.64453C3.76562 2.96664 5.13071 1.60156 6.80859 1.60156H30.6906C29.9815 2.41736 29.5505 3.48121 29.5505 4.64453V30.451C29.5505 31.1898 28.9496 31.7907 28.2107 31.7907C27.6333 31.7907 27.1225 31.4225 26.9395 30.8748L25.7327 27.2538C25.392 26.2315 24.4389 25.5449 23.3616 25.5449C21.9834 25.5449 20.8623 26.666 20.8623 28.0439V28.6677H16.7117C16.2694 28.6677 15.9109 29.0264 15.9109 29.4684C15.9109 29.9107 16.2694 30.2692 16.7117 30.2692H20.8623V34.2531C20.8623 35.4355 21.0928 36.5885 21.5477 37.6796L22.7257 40.507C22.8539 40.8145 23.1514 41 23.4652 41C23.5678 41 23.6722 40.9803 23.7726 40.9384C24.1812 40.7682 24.3742 40.2993 24.204 39.8911L23.026 37.0637C22.6531 36.1687 22.4639 35.2231 22.4639 34.2534V28.0442C22.4639 27.5491 22.8664 27.1465 23.3616 27.1465C23.7486 27.1465 24.0911 27.393 24.2134 27.7602L25.4202 31.3812C25.8212 32.584 26.9426 33.3923 28.2107 33.3923C29.8326 33.3923 31.152 32.0729 31.152 30.451V16.7216L32.2221 17.7895C34.1315 19.6952 35.1828 22.2304 35.1828 24.9278V33.4401C35.1828 35.6451 34.6833 37.8635 33.7386 39.8558C33.5491 40.2552 33.7195 40.7329 34.119 40.9224C34.5184 41.112 34.9961 40.9418 35.1857 40.5421C36.2314 38.3368 36.7844 35.8809 36.7844 33.4401V24.9278C36.7844 21.8019 35.566 18.8643 33.3536 16.6559L31.152 14.4585V13.6934H36.4372C37.7619 13.6934 38.8395 12.6157 38.8395 11.291V4.64453C38.8395 2.0836 36.7562 0 34.195 0V0ZM37.238 11.291C37.238 11.7324 36.8789 12.0918 36.4372 12.0918H31.152V4.64453C31.152 2.96664 32.5171 1.60156 34.195 1.60156C35.8729 1.60156 37.238 2.96664 37.238 4.64453V11.291Z" fill="#00B857"/>
<path d="M18.5781 35.0739C18.3673 35.0739 18.1608 35.1596 18.0119 35.3085C17.8631 35.4577 17.7773 35.6642 17.7773 35.8747C17.7773 36.0855 17.8631 36.292 18.0119 36.4409C18.1608 36.5898 18.3673 36.6755 18.5781 36.6755C18.7886 36.6755 18.9951 36.5898 19.1443 36.4409C19.2932 36.292 19.3789 36.0855 19.3789 35.8747C19.3789 35.6642 19.2932 35.4577 19.1443 35.3085C18.9951 35.1596 18.7886 35.0739 18.5781 35.0739Z" fill="#00B857"/>
<path d="M13.1875 5.92578C13.1875 5.04273 12.469 4.32422 11.5859 4.32422H8.0625C7.17914 4.32422 6.46094 5.04273 6.46094 5.92578V9.44922C6.46094 10.3323 7.17914 11.0508 8.0625 11.0508H11.5859C12.469 11.0508 13.1875 10.3323 13.1875 9.44922V5.92578ZM11.5859 9.44922H8.0625V5.92578H11.5859L11.5869 9.44922C11.5869 9.44922 11.5866 9.44922 11.5859 9.44922Z" fill="#00B857"/>
<path d="M13.1875 15.5352C13.1875 14.6521 12.469 13.9336 11.5859 13.9336H8.0625C7.17914 13.9336 6.46094 14.6521 6.46094 15.5352V19.0586C6.46094 19.9416 7.17914 20.6602 8.0625 20.6602H11.5859C12.469 20.6602 13.1875 19.9416 13.1875 19.0586V15.5352ZM11.5859 19.0586H8.0625V15.5352H11.5859L11.5869 19.0586C11.5869 19.0586 11.5866 19.0586 11.5859 19.0586Z" fill="#00B857"/>
<path d="M11.5859 23.543H8.0625C7.17914 23.543 6.46094 24.2612 6.46094 25.1445V28.6677C6.46094 29.551 7.17914 30.2692 8.0625 30.2692H11.5859C12.469 30.2692 13.1875 29.551 13.1875 28.6677V25.1445C13.1875 24.2612 12.469 23.543 11.5859 23.543ZM11.5859 28.6677H8.0625V25.1445H11.5859L11.5869 28.6677C11.5869 28.6677 11.5866 28.6677 11.5859 28.6677Z" fill="#00B857"/>
<path d="M25.8915 11.0508C26.3338 11.0508 26.6923 10.6923 26.6923 10.25C26.6923 9.80769 26.3338 9.44922 25.8915 9.44922H20.3711C19.9288 9.44922 19.5703 9.80769 19.5703 10.25C19.5703 10.6923 19.9288 11.0508 20.3711 11.0508H25.8915Z" fill="#00B857"/>
<path d="M16.7109 11.0508C16.9218 11.0508 17.1282 10.9651 17.2771 10.8162C17.426 10.6673 17.5117 10.4605 17.5117 10.25C17.5117 10.0395 17.426 9.83272 17.2771 9.68382C17.1282 9.53493 16.9218 9.44922 16.7109 9.44922C16.4995 9.44922 16.2937 9.53493 16.1448 9.68382C15.9952 9.83272 15.9102 10.0395 15.9102 10.25C15.9102 10.4605 15.9952 10.6673 16.1448 10.8162C16.2937 10.9651 16.4995 11.0508 16.7109 11.0508Z" fill="#00B857"/>
<path d="M16.7109 20.6602H25.8933C26.3356 20.6602 26.6941 20.3017 26.6941 19.8594C26.6941 19.4171 26.3356 19.0586 25.8933 19.0586H16.7109C16.2689 19.0586 15.9102 19.4171 15.9102 19.8594C15.9102 20.3017 16.2689 20.6602 16.7109 20.6602Z" fill="#00B857"/>
</g>
<defs>
<clipPath id="clip0">
<rect width="41" height="41" fill="white"/>
</clipPath>
</defs>
</svg>
