<svg width="22" height="22" viewBox="0 0 22 22" fill="none" xmlns="http://www.w3.org/2000/svg">
<path d="M3.5481 12.774C1.58853 12.774 0 14.3626 0 16.3221C0 18.2817 1.58853 19.8703 3.5481 19.8703C5.50767 19.8703 7.0962 18.2817 7.0962 16.3221C7.09407 14.3635 5.50678 12.7762 3.5481 12.774ZM3.5481 19.1606C1.98046 19.1606 0.70962 17.8898 0.70962 16.3221C0.70962 14.7545 1.98046 13.4837 3.5481 13.4837C5.11574 13.4837 6.38658 14.7545 6.38658 16.3221C6.38481 17.8891 5.11503 19.1589 3.5481 19.1606Z" fill="white"/>
<path d="M15.2568 17.0318C15.2568 18.5995 16.5277 19.8703 18.0953 19.8703C19.663 19.8703 20.9338 18.5995 20.9338 17.0318C20.9338 15.4642 19.663 14.1934 18.0953 14.1934C16.5284 14.1951 15.2586 15.4649 15.2568 17.0318ZM18.0953 14.903C19.2711 14.903 20.2242 15.8561 20.2242 17.0318C20.2242 18.2076 19.2711 19.1607 18.0953 19.1607C16.9196 19.1607 15.9665 18.2076 15.9665 17.0318C15.9676 15.8566 16.9201 14.9042 18.0953 14.903Z" fill="white"/>
<path d="M21.7228 9.94445L17.5754 8.98647L18.6555 7.0971H19.5141C19.7101 7.0971 19.8689 6.93824 19.8689 6.74229C19.8689 6.54635 19.7101 6.38748 19.5141 6.38748H18.4497C18.3227 6.38722 18.2052 6.4549 18.1417 6.56489L16.8246 8.87115H13.0083L10.2614 2.3469C10.206 2.21527 10.077 2.12972 9.93423 2.12976H4.61208C4.41614 2.12976 4.25727 2.28863 4.25727 2.48457V8.87115H2.83803C2.64209 8.87124 2.48331 9.03015 2.4834 9.22614C2.4834 9.25909 2.48801 9.29187 2.49706 9.32354L3.20668 11.8072C3.25023 11.9594 3.38932 12.0644 3.54765 12.0644C5.89809 12.067 7.80285 13.9717 7.80537 16.3222C7.80537 16.5181 7.96424 16.677 8.16018 16.677C8.35613 16.677 8.51499 16.5181 8.51499 16.3222C8.51597 15.5856 8.35205 14.8582 8.03529 14.1933H18.0949H21.2882C21.4711 14.1942 21.6247 14.056 21.643 13.874L21.9978 10.3259C22.0156 10.1475 21.8976 9.98388 21.7228 9.94445ZM4.96689 2.83938H9.69864L9.84801 3.19419H4.96689V2.83938ZM4.96689 3.90381H10.1471L12.2405 8.87115H4.96689V3.90381ZM20.9688 13.4837H7.62194C6.74795 12.2285 5.3445 11.446 3.81731 11.3623L3.30851 9.58077H16.99L21.2587 10.5657L20.9688 13.4837Z" fill="white"/>
<path d="M15.2568 12.4193C15.2568 12.6152 15.4157 12.7741 15.6116 12.7741H20.2242C20.4201 12.7741 20.579 12.6152 20.579 12.4193C20.579 12.2233 20.4201 12.0645 20.2242 12.0645H15.6116C15.4157 12.0645 15.2568 12.2233 15.2568 12.4193Z" fill="white"/>
<path d="M16.6761 11H15.6116C15.4157 11 15.2568 11.1589 15.2568 11.3548C15.2568 11.5508 15.4157 11.7096 15.6116 11.7096H16.6761C16.872 11.7096 17.0309 11.5508 17.0309 11.3548C17.0309 11.1589 16.872 11 16.6761 11Z" fill="white"/>
<path d="M3.54783 15.2578C2.95995 15.2578 2.4834 15.7344 2.4834 16.3222C2.4834 16.9101 2.95995 17.3867 3.54783 17.3867C4.1357 17.3867 4.61226 16.9101 4.61226 16.3222C4.61226 15.7344 4.1357 15.2578 3.54783 15.2578ZM3.54783 16.677C3.35188 16.677 3.19302 16.5182 3.19302 16.3222C3.19302 16.1263 3.35188 15.9674 3.54783 15.9674C3.74377 15.9674 3.90264 16.1263 3.90264 16.3222C3.90264 16.5182 3.74377 16.677 3.54783 16.677Z" fill="white"/>
<path d="M18.0954 17.7414C18.4873 17.7414 18.805 17.4237 18.805 17.0318C18.805 16.6399 18.4873 16.3221 18.0954 16.3221C17.7034 16.3221 17.3857 16.6399 17.3857 17.0318C17.3857 17.4237 17.7034 17.7414 18.0954 17.7414Z" fill="white"/>
</svg>
