<svg width="41" height="41" viewBox="0 0 41 41" fill="none" xmlns="http://www.w3.org/2000/svg">
<path d="M40.3387 28.0992H39.6774V8.9218C39.6753 7.09664 38.1961 5.6175 36.371 5.61535H35.0484V3.63147C35.0484 3.26628 34.7523 2.97018 34.3871 2.97018H30.4194C30.0542 2.97018 29.7581 3.26628 29.7581 3.63147V5.61535H11.2419V3.63147C11.2419 3.26628 10.9458 2.97018 10.5806 2.97018H6.6129C6.24771 2.97018 5.95161 3.26628 5.95161 3.63147V5.61535H4.62903C2.80387 5.6175 1.32473 7.09664 1.32258 8.9218V28.0992H0.66129C0.296093 28.0992 0 28.3953 0 28.7605V31.4057C0 31.7709 0.296093 32.067 0.66129 32.067H1.85955C0.755524 33.9568 1.39259 36.3839 3.28248 37.488C5.17237 38.592 7.59947 37.9549 8.70349 36.065C8.70936 36.055 8.71523 36.0449 8.72101 36.0347H12.4401C13.5274 37.9343 15.9487 38.5929 17.8483 37.5057C19.7479 36.4184 20.4065 33.9971 19.3193 32.0975C19.3135 32.0873 19.3075 32.0771 19.3017 32.067H22.3595C21.2554 33.9568 21.8924 36.3839 23.7823 37.4881C25.6722 38.5922 28.0993 37.9551 29.2034 36.0652C29.2094 36.055 29.2152 36.0449 29.221 36.0347H32.9401C34.0274 37.9343 36.4487 38.5929 38.3483 37.5057C40.2479 36.4184 40.9065 33.9971 39.8193 32.0975C39.8135 32.0873 39.8075 32.0771 39.8017 32.067H40.3387C40.7039 32.067 41 31.7709 41 31.4057V28.7605C41 28.3952 40.7039 28.0992 40.3387 28.0992ZM31.0806 4.29277H33.7258V5.61535H31.0806V4.29277ZM7.27419 4.29277H9.91936V5.61535H7.27419V4.29277ZM2.64516 8.9218C2.64516 7.82612 3.53336 6.93793 4.62903 6.93793H36.371C37.4666 6.93793 38.3548 7.82612 38.3548 8.9218V9.58309H2.64516V8.9218ZM2.64516 10.9057H38.3548V28.0992H2.64516V10.9057ZM5.29032 36.696C3.82945 36.696 2.64516 35.5117 2.64516 34.0508C2.64516 32.59 3.82945 31.4057 5.29032 31.4057C6.7512 31.4057 7.93548 32.59 7.93548 34.0508C7.93548 35.5117 6.7512 36.696 5.29032 36.696ZM11.9627 34.7121H9.19855C9.2779 34.2748 9.2779 33.8268 9.19855 33.3895H11.9627C11.8834 33.8268 11.8834 34.2748 11.9627 34.7121ZM15.871 36.696C14.4101 36.696 13.2258 35.5117 13.2258 34.0508C13.2258 32.59 14.4101 31.4057 15.871 31.4057C17.3318 31.4057 18.5161 32.59 18.5161 34.0508C18.5161 35.5117 17.3318 36.696 15.871 36.696ZM25.7903 36.696C24.3295 36.696 23.1452 35.5117 23.1452 34.0508C23.1452 32.59 24.3295 31.4057 25.7903 31.4057C27.2512 31.4057 28.4355 32.59 28.4355 34.0508C28.4355 35.5117 27.2512 36.696 25.7903 36.696ZM32.4627 34.7121H29.6985C29.7779 34.2748 29.7779 33.8268 29.6985 33.3895H32.4627C32.3834 33.8268 32.3834 34.2748 32.4627 34.7121ZM36.371 36.696C34.9101 36.696 33.7258 35.5117 33.7258 34.0508C33.7258 32.59 34.9101 31.4057 36.371 31.4057C37.8318 31.4057 39.0161 32.59 39.0161 34.0508C39.0161 35.5117 37.8318 36.696 36.371 36.696ZM39.6774 30.7444H39.0161C38.902 30.7471 38.7906 30.7802 38.6934 30.8403C36.929 29.5555 34.4573 29.9444 33.1726 31.7087C33.0887 31.8239 33.0111 31.9435 32.9402 32.067H29.2211C28.132 30.1726 25.7134 29.5198 23.8191 30.6088C23.7446 30.6516 23.6716 30.6969 23.6001 30.7444H18.0598C16.2403 29.5344 13.7844 30.0285 12.5744 31.848C12.5269 31.9195 12.4817 31.9925 12.4389 32.067H8.7211C7.63203 30.1726 5.21345 29.5198 3.3191 30.6088C3.24462 30.6516 3.17163 30.6969 3.10013 30.7444H1.32258V29.4218H39.6774V30.7444Z" fill="#00B857"/>
<path d="M5.29051 32.067C4.19484 32.067 3.30664 32.9552 3.30664 34.0508C3.30664 35.1465 4.19484 36.0347 5.29051 36.0347C6.38619 36.0347 7.27438 35.1465 7.27438 34.0508C7.27438 32.9552 6.38619 32.067 5.29051 32.067ZM5.29051 34.7121C4.92531 34.7121 4.62922 34.416 4.62922 34.0508C4.62922 33.6856 4.92531 33.3895 5.29051 33.3895C5.65571 33.3895 5.9518 33.6856 5.9518 34.0508C5.9518 34.416 5.65571 34.7121 5.29051 34.7121Z" fill="#00B857"/>
<path d="M15.8706 32.067C14.7749 32.067 13.8867 32.9552 13.8867 34.0508C13.8867 35.1465 14.7749 36.0347 15.8706 36.0347C16.9663 36.0347 17.8545 35.1465 17.8545 34.0508C17.8545 32.9552 16.9663 32.067 15.8706 32.067ZM15.8706 34.7121C15.5054 34.7121 15.2093 34.416 15.2093 34.0508C15.2093 33.6856 15.5054 33.3895 15.8706 33.3895C16.2358 33.3895 16.5319 33.6856 16.5319 34.0508C16.5319 34.416 16.2358 34.7121 15.8706 34.7121Z" fill="#00B857"/>
<path d="M25.7905 32.067C24.6948 32.067 23.8066 32.9552 23.8066 34.0508C23.8066 35.1465 24.6948 36.0347 25.7905 36.0347C26.8862 36.0347 27.7744 35.1465 27.7744 34.0508C27.7744 32.9552 26.8862 32.067 25.7905 32.067ZM25.7905 34.7121C25.4253 34.7121 25.1292 34.416 25.1292 34.0508C25.1292 33.6856 25.4253 33.3895 25.7905 33.3895C26.1557 33.3895 26.4518 33.6856 26.4518 34.0508C26.4518 34.416 26.1557 34.7121 25.7905 34.7121Z" fill="#00B857"/>
<path d="M36.3706 32.067C35.2749 32.067 34.3867 32.9552 34.3867 34.0508C34.3867 35.1465 35.2749 36.0347 36.3706 36.0347C37.4663 36.0347 38.3545 35.1465 38.3545 34.0508C38.3545 32.9552 37.4663 32.067 36.3706 32.067ZM36.3706 34.7121C36.0054 34.7121 35.7093 34.416 35.7093 34.0508C35.7093 33.6856 36.0054 33.3895 36.3706 33.3895C36.7358 33.3895 37.0319 33.6856 37.0319 34.0508C37.0319 34.416 36.7358 34.7121 36.3706 34.7121Z" fill="#00B857"/>
</svg>
