<svg width="41" height="41" viewBox="0 0 41 41" fill="none" xmlns="http://www.w3.org/2000/svg">
<path d="M41 5.9512V3.30603C41 2.94084 40.7039 2.64474 40.3387 2.64474H0.66129C0.296093 2.64474 0 2.94084 0 3.30603V5.9512C0 6.31639 0.296093 6.61249 0.66129 6.61249V30.4189C0.296093 30.4189 0 30.715 0 31.0802V33.7254C0 34.0906 0.296093 34.3867 0.66129 34.3867H2.03677C2.39891 36.9141 4.74137 38.6694 7.26882 38.3073C8.91056 38.072 10.3005 36.9755 10.9113 35.4335C11.8516 37.8073 14.5381 38.9694 16.912 38.0291C18.454 37.4184 19.5506 36.0284 19.7858 34.3867H29.1497C29.5126 36.914 31.8557 38.6685 34.383 38.3056C36.4144 38.0139 38.0102 36.4179 38.3019 34.3867H40.3387C40.7039 34.3867 41 34.0906 41 33.7254V31.0802C41 30.715 40.7039 30.4189 40.3387 30.4189V6.61249C40.7039 6.61249 41 6.31639 41 5.9512ZM6.6129 37.0318C5.04226 37.0299 3.68893 35.9251 3.37258 34.3867H9.85323C9.53688 35.9251 8.18355 37.0299 6.6129 37.0318ZM15.2097 37.0318C13.639 37.0299 12.2857 35.9251 11.9694 34.3867H18.45C18.1337 35.9251 16.7803 37.0299 15.2097 37.0318ZM33.7258 37.0318C32.1552 37.0299 30.8018 35.9251 30.4855 34.3867H36.9661C36.6498 35.9251 35.2965 37.0299 33.7258 37.0318ZM39.6774 33.0641H1.32258V31.7415H39.6774V33.0641ZM1.98387 30.4189V6.61249H5.95161V30.4189H1.98387ZM7.27419 30.4189V6.61249H12.5645V30.4189H7.27419ZM13.8871 30.4189V6.61249H19.8387V30.4189H13.8871ZM21.1613 30.4189V6.61249H26.4516V30.4189H21.1613ZM27.7742 30.4189V6.61249H33.0645V30.4189H27.7742ZM34.3871 30.4189V6.61249H39.0161V30.4189H34.3871ZM39.6774 5.28991H1.32258V3.96733H39.6774V5.28991Z" fill="#00B857"/>
</svg>
