<svg width="43" height="43" viewBox="0 0 43 43" fill="none" xmlns="http://www.w3.org/2000/svg">
<path d="M9.12973 31.197C8.74463 31.197 8.36817 31.3112 8.04797 31.5252C7.72777 31.7391 7.47821 32.0432 7.33083 32.399C7.18346 32.7548 7.1449 33.1463 7.22003 33.524C7.29516 33.9017 7.48061 34.2486 7.75291 34.521C8.02522 34.7933 8.37217 34.9787 8.74987 35.0538C9.12757 35.129 9.51907 35.0904 9.87486 34.943C10.2306 34.7957 10.5347 34.5461 10.7487 34.2259C10.9626 33.9057 11.0768 33.5292 11.0768 33.1441C11.0763 32.6279 10.8709 32.133 10.5059 31.768C10.1409 31.4029 9.64596 31.1976 9.12973 31.197ZM9.12973 33.7932C9.00136 33.7932 8.87588 33.7551 8.76915 33.6838C8.66241 33.6125 8.57922 33.5111 8.5301 33.3925C8.48097 33.2739 8.46812 33.1434 8.49317 33.0175C8.51821 32.8916 8.58002 32.776 8.67079 32.6852C8.76156 32.5944 8.87721 32.5326 9.00311 32.5076C9.12901 32.4825 9.25951 32.4954 9.37811 32.5445C9.4967 32.5936 9.59807 32.6768 9.66939 32.7836C9.7407 32.8903 9.77877 33.0158 9.77877 33.1441C9.77858 33.3162 9.71013 33.4812 9.58846 33.6029C9.46678 33.7245 9.30181 33.793 9.12973 33.7932Z" fill="#00B857"/>
<path d="M33.7932 31.197C33.4081 31.197 33.0316 31.3112 32.7114 31.5252C32.3912 31.7391 32.1417 32.0432 31.9943 32.399C31.8469 32.7548 31.8084 33.1463 31.8835 33.524C31.9586 33.9017 32.1441 34.2486 32.4164 34.521C32.6887 34.7933 33.0356 34.9787 33.4133 35.0538C33.791 35.129 34.1825 35.0904 34.5383 34.943C34.8941 34.7957 35.1982 34.5461 35.4121 34.2259C35.6261 33.9057 35.7403 33.5292 35.7403 33.1441C35.7397 32.6279 35.5344 32.133 35.1694 31.768C34.8043 31.4029 34.3094 31.1976 33.7932 31.197ZM33.7932 33.7932C33.6648 33.7932 33.5393 33.7551 33.4326 33.6838C33.3259 33.6125 33.2427 33.5111 33.1936 33.3925C33.1444 33.2739 33.1316 33.1434 33.1566 33.0175C33.1817 32.8916 33.2435 32.776 33.3342 32.6852C33.425 32.5944 33.5407 32.5326 33.6666 32.5076C33.7925 32.4825 33.923 32.4954 34.0416 32.5445C34.1602 32.5936 34.2615 32.6768 34.3328 32.7836C34.4042 32.8903 34.4422 33.0158 34.4422 33.1441C34.442 33.3162 34.3736 33.4812 34.2519 33.6029C34.1302 33.7245 33.9653 33.793 33.7932 33.7932Z" fill="#00B857"/>
<path d="M41.4787 22.4082L35.6373 13.3217C35.5785 13.2303 35.4977 13.1552 35.4023 13.1032C35.3069 13.0512 35.2 13.0239 35.0913 13.024H27.3029V9.45425C27.3022 8.85198 27.0626 8.27457 26.6368 7.8487C26.2109 7.42283 25.6335 7.18328 25.0312 7.18262H3.61294C3.01067 7.18328 2.43326 7.42283 2.00739 7.8487C1.58152 8.27457 1.34197 8.85198 1.34131 9.45425V33.1441C1.34131 33.3163 1.40969 33.4814 1.53141 33.6031C1.65313 33.7248 1.81821 33.7932 1.99035 33.7932H4.63356C4.78957 34.8744 5.32998 35.8632 6.15575 36.5784C6.98153 37.2935 8.03736 37.6872 9.12977 37.6872C10.2222 37.6872 11.278 37.2935 12.1038 36.5784C12.9296 35.8632 13.47 34.8744 13.626 33.7932H29.297C29.453 34.8744 29.9934 35.8632 30.8192 36.5784C31.645 37.2935 32.7008 37.6872 33.7932 37.6872C34.8857 37.6872 35.9415 37.2935 36.7673 36.5784C37.593 35.8632 38.1334 34.8744 38.2895 33.7932H40.9327C41.1048 33.7932 41.2699 33.7248 41.3916 33.6031C41.5133 33.4814 41.5817 33.3163 41.5817 33.1441V22.7595C41.5817 22.635 41.5459 22.5131 41.4787 22.4082ZM9.12977 36.3893C8.48793 36.3893 7.86051 36.199 7.32684 35.8424C6.79317 35.4858 6.37722 34.979 6.1316 34.386C5.88598 33.793 5.82172 33.1405 5.94693 32.511C6.07215 31.8815 6.38123 31.3033 6.83507 30.8495C7.28892 30.3956 7.86716 30.0865 8.49667 29.9613C9.12617 29.8361 9.77867 29.9004 10.3717 30.146C10.9646 30.3916 11.4715 30.8075 11.8281 31.3412C12.1846 31.8749 12.375 32.5023 12.375 33.1441C12.3741 34.0046 12.0319 34.8295 11.4235 35.4379C10.8151 36.0463 9.99019 36.3885 9.12977 36.3893ZM26.0048 32.4951H13.626C13.47 31.4139 12.9296 30.4251 12.1038 29.7099C11.278 28.9948 10.2222 28.6011 9.12977 28.6011C8.03736 28.6011 6.98153 28.9948 6.15575 29.7099C5.32998 30.4251 4.78957 31.4139 4.63356 32.4951H2.63939V26.0047H26.0048V32.4951ZM26.0048 24.7066H2.63939V9.45425C2.6396 9.19611 2.74224 8.94861 2.92477 8.76608C3.1073 8.58355 3.35481 8.48091 3.61294 8.48069H25.0312C25.2894 8.48091 25.5369 8.58355 25.7194 8.76608C25.9019 8.94861 26.0046 9.19611 26.0048 9.45425V24.7066ZM35.9886 16.2692L39.7441 22.1105H30.548V16.2692H35.9886ZM33.7932 36.3893C33.1514 36.3893 32.524 36.199 31.9903 35.8424C31.4566 35.4858 31.0407 34.979 30.7951 34.386C30.5494 33.793 30.4852 33.1405 30.6104 32.511C30.7356 31.8815 31.0447 31.3033 31.4985 30.8495C31.9524 30.3956 32.5306 30.0865 33.1601 29.9613C33.7896 29.8361 34.4421 29.9004 35.0351 30.146C35.6281 30.3916 36.1349 30.8075 36.4915 31.3412C36.8481 31.8749 37.0384 32.5023 37.0384 33.1441C37.0376 34.0046 36.6954 34.8295 36.087 35.4379C35.4786 36.0463 34.6537 36.3885 33.7932 36.3893ZM40.2836 27.3028H38.9855C38.8134 27.3028 38.6483 27.2344 38.5266 27.1127C38.4049 26.991 38.3365 26.8259 38.3365 26.6538C38.3365 26.4816 38.4049 26.3165 38.5266 26.1948C38.6483 26.0731 38.8134 26.0047 38.9855 26.0047H40.2836V27.3028ZM40.2836 24.7066H38.9855C38.4691 24.7066 37.9739 24.9118 37.6087 25.2769C37.2436 25.6421 37.0384 26.1374 37.0384 26.6538C37.0384 27.1702 37.2436 27.6654 37.6087 28.0306C37.9739 28.3957 38.4691 28.6009 38.9855 28.6009H40.2836V32.4951H38.2895C38.1334 31.4139 37.593 30.4251 36.7673 29.7099C35.9415 28.9948 34.8857 28.6011 33.7932 28.6011C32.7008 28.6011 31.645 28.9948 30.8192 29.7099C29.9934 30.4251 29.453 31.4139 29.297 32.4951H27.3029V14.322H34.7368L35.1546 14.9711H29.899C29.7269 14.9711 29.5618 15.0395 29.4401 15.1612C29.3183 15.2829 29.25 15.448 29.25 15.6201V22.7595C29.25 22.9317 29.3183 23.0968 29.4401 23.2185C29.5618 23.3402 29.7269 23.4086 29.899 23.4086H40.2836V24.7066Z" fill="#00B857"/>
<path d="M31.8462 24.7067H29.899C29.7269 24.7067 29.5618 24.775 29.4401 24.8968C29.3184 25.0185 29.25 25.1836 29.25 25.3557C29.25 25.5278 29.3184 25.6929 29.4401 25.8146C29.5618 25.9364 29.7269 26.0047 29.899 26.0047H31.8462C32.0183 26.0047 32.1834 25.9364 32.3051 25.8146C32.4268 25.6929 32.4952 25.5278 32.4952 25.3557C32.4952 25.1836 32.4268 25.0185 32.3051 24.8968C32.1834 24.775 32.0183 24.7067 31.8462 24.7067Z" fill="#00B857"/>
<path d="M18.2163 28.6009H23.4086C23.5807 28.6009 23.7458 28.5325 23.8675 28.4108C23.9893 28.2891 24.0576 28.124 24.0576 27.9518C24.0576 27.7797 23.9893 27.6146 23.8675 27.4929C23.7458 27.3712 23.5807 27.3028 23.4086 27.3028H18.2163C18.0442 27.3028 17.8791 27.3712 17.7574 27.4929C17.6356 27.6146 17.5673 27.7797 17.5673 27.9518C17.5673 28.124 17.6356 28.2891 17.7574 28.4108C17.8791 28.5325 18.0442 28.6009 18.2163 28.6009Z" fill="#00B857"/>
<path d="M23.4087 29.2499H21.4615C21.2894 29.2499 21.1243 29.3183 21.0026 29.44C20.8809 29.5618 20.8125 29.7268 20.8125 29.899C20.8125 30.0711 20.8809 30.2362 21.0026 30.3579C21.1243 30.4796 21.2894 30.548 21.4615 30.548H23.4087C23.5808 30.548 23.7459 30.4796 23.8676 30.3579C23.9893 30.2362 24.0577 30.0711 24.0577 29.899C24.0577 29.7268 23.9893 29.5618 23.8676 29.44C23.7459 29.3183 23.5808 29.2499 23.4087 29.2499Z" fill="#00B857"/>
</svg>
