<svg width="22" height="22" viewBox="0 0 22 22" fill="none" xmlns="http://www.w3.org/2000/svg">
<path d="M17.1871 12.7186C16.0618 12.72 14.9784 13.1453 14.1526 13.9098C13.3268 14.6743 12.8193 15.7218 12.7313 16.8436H11.3434V13.4061H11.6871C11.7783 13.4061 11.8658 13.3699 11.9302 13.3054C11.9947 13.241 12.0309 13.1535 12.0309 13.0624V12.3749H14.609C14.8369 12.3747 15.0553 12.284 15.2164 12.1229C15.3776 11.9618 15.4682 11.7434 15.4684 11.5155V10.4843C15.4682 10.2564 15.3776 10.038 15.2164 9.87684C15.0553 9.71572 14.8369 9.62511 14.609 9.62488H12.0309V8.93738C12.0309 8.84621 11.9947 8.75878 11.9302 8.69431C11.8658 8.62985 11.7783 8.59363 11.6871 8.59363H11.3434V5.15613H12.7313C12.8202 6.30811 13.3518 7.3809 14.2146 8.14938C15.0773 8.91786 16.2042 9.32229 17.3588 9.27782C18.5133 9.23335 19.6058 8.74343 20.4069 7.91086C21.208 7.07829 21.6555 5.96779 21.6555 4.81238C21.6555 3.65698 21.208 2.54648 20.4069 1.71391C19.6058 0.881337 18.5133 0.391414 17.3588 0.346943C16.2042 0.302471 15.0773 0.706907 14.2146 1.47539C13.3518 2.24386 12.8202 3.31665 12.7313 4.46863H9.26801C9.17913 3.31665 8.64752 2.24386 7.78473 1.47539C6.92195 0.706907 5.79505 0.302471 4.6405 0.346943C3.48595 0.391414 2.3935 0.881337 1.59238 1.71391C0.791261 2.54648 0.34375 3.65698 0.34375 4.81238C0.34375 5.96779 0.791261 7.07829 1.59238 7.91086C2.3935 8.74343 3.48595 9.23335 4.6405 9.27782C5.79505 9.32229 6.92195 8.91786 7.78473 8.14938C8.64752 7.3809 9.17913 6.30811 9.26801 5.15613H10.6559V8.59363H10.3121C10.221 8.59363 10.1335 8.62985 10.0691 8.69431C10.0046 8.75878 9.9684 8.84621 9.9684 8.93738V9.62488H7.39027C7.16242 9.62511 6.94397 9.71572 6.78286 9.87684C6.62174 10.038 6.53113 10.2564 6.5309 10.4843V11.5155C6.53113 11.7434 6.62174 11.9618 6.78286 12.1229C6.94397 12.284 7.16242 12.3747 7.39027 12.3749H9.9684V13.0624C9.9684 13.1535 10.0046 13.241 10.0691 13.3054C10.1335 13.3699 10.221 13.4061 10.3121 13.4061H10.6559V16.8436H9.26801C9.17913 15.6916 8.64752 14.6189 7.78473 13.8504C6.92195 13.0819 5.79505 12.6775 4.6405 12.7219C3.48595 12.7664 2.3935 13.2563 1.59238 14.0889C0.791261 14.9215 0.34375 16.032 0.34375 17.1874C0.34375 18.3428 0.791261 19.4533 1.59238 20.2859C2.3935 21.1184 3.48595 21.6083 4.6405 21.6528C5.79505 21.6973 6.92195 21.2929 7.78473 20.5244C8.64752 19.7559 9.17913 18.6831 9.26801 17.5311H12.7313C12.7981 18.3977 13.1163 19.226 13.6467 19.9146C14.1772 20.6031 14.8969 21.122 15.7177 21.4078C16.5386 21.6935 17.425 21.7336 18.2683 21.5233C19.1116 21.3129 19.8753 20.8612 20.4658 20.2234C21.0564 19.5857 21.4481 18.7895 21.593 17.9325C21.7379 17.0755 21.6298 16.1948 21.2818 15.3984C20.9338 14.6019 20.3612 13.9242 19.6339 13.4482C18.9066 12.9722 18.0563 12.7187 17.1871 12.7186ZM17.1871 8.59363C16.4176 8.59455 15.6663 8.35922 15.0348 7.91945C15.272 7.68957 15.5445 7.56238 15.8121 7.56238H16.2152C16.2862 7.76342 16.4178 7.93749 16.5919 8.06061C16.766 8.18373 16.9739 8.24984 17.1871 8.24984C17.4004 8.24984 17.6083 8.18373 17.7824 8.06061C17.9565 7.93749 18.0881 7.76342 18.1591 7.56238H18.5621C18.8298 7.56238 19.1023 7.68957 19.3395 7.91945C18.708 8.35922 17.9567 8.59455 17.1871 8.59363ZM16.085 4.13691C16.641 4.13691 17.5004 4.03637 18.5621 3.58734V4.81238C18.5621 5.17705 18.4173 5.52679 18.1594 5.78465C17.9016 6.04252 17.5518 6.18738 17.1871 6.18738C16.8225 6.18738 16.4727 6.04252 16.2149 5.78465C15.957 5.52679 15.8121 5.17705 15.8121 4.81238V4.12832C15.8929 4.13348 15.9836 4.13691 16.085 4.13691ZM15.8121 3.4391V3.43738C15.8125 3.07281 15.9575 2.72327 16.2153 2.46549C16.473 2.2077 16.8226 2.06272 17.1871 2.06238C17.7307 2.06238 18.2124 2.40785 18.4337 2.8934C17.5812 3.27324 16.8816 3.39914 16.4266 3.43566C16.2222 3.45268 16.0167 3.45383 15.8121 3.4391ZM17.5309 6.84566V7.21863C17.5309 7.3098 17.4947 7.39723 17.4302 7.4617C17.3657 7.52617 17.2783 7.56238 17.1871 7.56238C17.096 7.56238 17.0085 7.52617 16.9441 7.4617C16.8796 7.39723 16.8434 7.3098 16.8434 7.21863V6.84566C17.0709 6.88462 17.3034 6.88462 17.5309 6.84566ZM17.1871 1.03113C17.934 1.03076 18.6641 1.25166 19.2855 1.66593C19.9069 2.08021 20.3916 2.66929 20.6785 3.35882C20.9653 4.04834 21.0415 4.8074 20.8973 5.54017C20.7531 6.27294 20.3951 6.94656 19.8684 7.47601C19.4924 7.09016 19.0314 6.87488 18.5621 6.87488H18.2184V6.5973C18.5317 6.41635 18.7919 6.15617 18.9729 5.84288C19.1539 5.52959 19.2494 5.1742 19.2496 4.81238V3.43738C19.2496 3.4275 19.2492 3.41805 19.2484 3.40816C19.2305 2.88217 19.0171 2.38175 18.6498 2.0048C18.4613 1.80626 18.2345 1.64805 17.9831 1.53977C17.7317 1.43149 17.4609 1.37539 17.1871 1.37488C16.6403 1.37546 16.116 1.59295 15.7294 1.97961C15.3427 2.36628 15.1252 2.89055 15.1246 3.43738V4.81238C15.1249 5.1742 15.2203 5.52959 15.4014 5.84288C15.5824 6.15617 15.8426 6.41635 16.1559 6.5973V6.87488H15.8121C15.3429 6.87488 14.8819 7.09016 14.5059 7.47601C13.9792 6.94656 13.6212 6.27294 13.477 5.54017C13.3328 4.8074 13.4089 4.04834 13.6958 3.35882C13.9827 2.66929 14.4674 2.08021 15.0888 1.66593C15.7101 1.25166 16.4403 1.03076 17.1871 1.03113ZM4.81215 8.59363C4.04261 8.59455 3.29134 8.35922 2.65984 7.91945C2.89703 7.68957 3.16945 7.56238 3.43715 7.56238H3.8402C3.91122 7.76342 4.04283 7.93749 4.2169 8.06061C4.39097 8.18373 4.59894 8.24984 4.81215 8.24984C5.02536 8.24984 5.23333 8.18373 5.4074 8.06061C5.58147 7.93749 5.71308 7.76342 5.7841 7.56238H6.18715C6.45484 7.56238 6.72727 7.68957 6.96445 7.91945C6.33296 8.35922 5.58168 8.59455 4.81215 8.59363ZM3.71 4.13691C4.26602 4.13691 5.12539 4.03637 6.18715 3.58734V4.81238C6.18715 5.17705 6.04228 5.52679 5.78442 5.78465C5.52656 6.04252 5.17682 6.18738 4.81215 6.18738C4.44748 6.18738 4.09774 6.04252 3.83988 5.78465C3.58201 5.52679 3.43715 5.17705 3.43715 4.81238V4.12832C3.51793 4.13348 3.60859 4.13691 3.71 4.13691ZM3.43715 3.4391V3.43738C3.43749 3.07281 3.58247 2.72327 3.84025 2.46549C4.09804 2.2077 4.44758 2.06272 4.81215 2.06238C5.3557 2.06238 5.83738 2.40785 6.05867 2.8934C5.20617 3.27324 4.50664 3.39914 4.0516 3.43566C3.84718 3.45268 3.64175 3.45383 3.43715 3.4391ZM5.1559 6.84566V7.21863C5.1559 7.3098 5.11968 7.39723 5.05522 7.4617C4.99075 7.52617 4.90332 7.56238 4.81215 7.56238C4.72098 7.56238 4.63355 7.52617 4.56908 7.4617C4.50462 7.39723 4.4684 7.3098 4.4684 7.21863V6.84566C4.69591 6.88462 4.92839 6.88462 5.1559 6.84566ZM7.4934 7.47601C7.11742 7.09016 6.65637 6.87488 6.18715 6.87488H5.8434V6.5973C6.15672 6.41635 6.41694 6.15617 6.59794 5.84288C6.77895 5.52959 6.87438 5.1742 6.87465 4.81238V3.43738C6.87465 3.4275 6.87422 3.41805 6.87336 3.40816C6.85552 2.88217 6.64209 2.38175 6.2748 2.0048C6.08635 1.80626 5.85953 1.64805 5.60811 1.53977C5.35669 1.43149 5.0859 1.37539 4.81215 1.37488C4.26532 1.37546 3.74105 1.59295 3.35438 1.97961C2.96771 2.36628 2.75023 2.89055 2.74965 3.43738V4.81238C2.74992 5.1742 2.84535 5.52959 3.02635 5.84288C3.20736 6.15617 3.46758 6.41635 3.7809 6.5973V6.87488H3.43715C2.96793 6.87488 2.50688 7.09016 2.1309 7.47601C1.60421 6.94635 1.24619 6.27257 1.10201 5.53966C0.957829 4.80675 1.03395 4.04756 1.32077 3.35786C1.60758 2.66817 2.09225 2.07887 2.71361 1.66432C3.33497 1.24977 4.06519 1.02854 4.81215 1.02854C5.5591 1.02854 6.28933 1.24977 6.91069 1.66432C7.53205 2.07887 8.01671 2.66817 8.30353 3.35786C8.59035 4.04756 8.66647 4.80675 8.52229 5.53966C8.37811 6.27257 8.02009 6.94635 7.4934 7.47601ZM4.81215 20.9686C4.04261 20.9695 3.29134 20.7342 2.65984 20.2945C2.89703 20.0646 3.16945 19.9374 3.43715 19.9374H3.8402C3.91122 20.1384 4.04283 20.3125 4.2169 20.4356C4.39097 20.5587 4.59894 20.6248 4.81215 20.6248C5.02536 20.6248 5.23333 20.5587 5.4074 20.4356C5.58147 20.3125 5.71308 20.1384 5.7841 19.9374H6.18715C6.45484 19.9374 6.72727 20.0646 6.96445 20.2945C6.33296 20.7342 5.58168 20.9695 4.81215 20.9686ZM3.71 16.5119C4.26602 16.5119 5.12539 16.4114 6.18715 15.9623V17.1874C6.18715 17.5521 6.04228 17.9018 5.78442 18.1597C5.52656 18.4175 5.17682 18.5624 4.81215 18.5624C4.44748 18.5624 4.09774 18.4175 3.83988 18.1597C3.58201 17.9018 3.43715 17.5521 3.43715 17.1874V16.5033C3.51793 16.5085 3.60859 16.5119 3.71 16.5119ZM3.43715 15.8141V15.8124C3.43756 15.4478 3.58256 15.0983 3.84033 14.8406C4.0981 14.5828 4.4476 14.4378 4.81215 14.4374C5.3557 14.4374 5.83738 14.7828 6.05867 15.2684C5.20617 15.6482 4.50664 15.7741 4.0516 15.8107C3.84718 15.8277 3.64175 15.8288 3.43715 15.8141ZM5.1559 19.2207V19.5936C5.1559 19.6848 5.11968 19.7722 5.05522 19.8367C4.99075 19.9012 4.90332 19.9374 4.81215 19.9374C4.72098 19.9374 4.63355 19.9012 4.56908 19.8367C4.50462 19.7722 4.4684 19.6848 4.4684 19.5936V19.2207C4.69591 19.2596 4.92839 19.2596 5.1559 19.2207ZM7.4934 19.851C7.11742 19.4652 6.65637 19.2499 6.18715 19.2499H5.8434V18.9723C6.15672 18.7913 6.41694 18.5312 6.59794 18.2179C6.77895 17.9046 6.87438 17.5492 6.87465 17.1874V15.8124C6.87465 15.8025 6.87422 15.793 6.87336 15.7832C6.85552 15.2572 6.64209 14.7568 6.2748 14.3798C6.08629 14.1813 5.85946 14.0232 5.60805 13.9149C5.35664 13.8066 5.08588 13.7505 4.81215 13.7499C4.26532 13.7505 3.74105 13.9679 3.35438 14.3546C2.96771 14.7413 2.75023 15.2655 2.74965 15.8124V17.1874C2.74992 17.5492 2.84535 17.9046 3.02635 18.2179C3.20736 18.5312 3.46758 18.7913 3.7809 18.9723V19.2499H3.43715C2.96793 19.2499 2.50688 19.4652 2.1309 19.851C1.60421 19.3214 1.24619 18.6476 1.10201 17.9147C0.957829 17.1817 1.03395 16.4226 1.32077 15.7329C1.60758 15.0432 2.09225 14.4539 2.71361 14.0393C3.33497 13.6248 4.06519 13.4035 4.81215 13.4035C5.5591 13.4035 6.28933 13.6248 6.91069 14.0393C7.53205 14.4539 8.01671 15.0432 8.30353 15.7329C8.59035 16.4226 8.66647 17.1817 8.52229 17.9147C8.37811 18.6476 8.02009 19.3214 7.4934 19.851ZM10.6559 9.28113H11.3434V9.62488H10.6559V9.28113ZM7.39027 11.6874C7.34469 11.6874 7.30097 11.6693 7.26874 11.637C7.23651 11.6048 7.2184 11.5611 7.2184 11.5155V10.4843C7.2184 10.4387 7.23651 10.395 7.26874 10.3627C7.30097 10.3305 7.34469 10.3124 7.39027 10.3124H14.609C14.6546 10.3124 14.6983 10.3305 14.7306 10.3627C14.7628 10.395 14.7809 10.4387 14.7809 10.4843V11.5155C14.7809 11.5611 14.7628 11.6048 14.7306 11.637C14.6983 11.6693 14.6546 11.6874 14.609 11.6874H7.39027ZM10.6559 12.3749H11.3434V12.7186H10.6559V12.3749ZM17.1871 20.9686C16.4176 20.9695 15.6663 20.7342 15.0348 20.2945C15.272 20.0646 15.5445 19.9374 15.8121 19.9374H16.2152C16.2862 20.1384 16.4178 20.3125 16.5919 20.4356C16.766 20.5587 16.9739 20.6248 17.1871 20.6248C17.4004 20.6248 17.6083 20.5587 17.7824 20.4356C17.9565 20.3125 18.0881 20.1384 18.1591 19.9374H18.5621C18.8298 19.9374 19.1023 20.0646 19.3395 20.2945C18.708 20.7342 17.9567 20.9695 17.1871 20.9686ZM16.085 16.5119C16.641 16.5119 17.5004 16.4114 18.5621 15.9623V17.1874C18.5621 17.5521 18.4173 17.9018 18.1594 18.1597C17.9016 18.4175 17.5518 18.5624 17.1871 18.5624C16.8225 18.5624 16.4727 18.4175 16.2149 18.1597C15.957 17.9018 15.8121 17.5521 15.8121 17.1874V16.5033C15.8929 16.5085 15.9836 16.5119 16.085 16.5119ZM15.8121 15.8141V15.8124C15.8126 15.4478 15.9576 15.0983 16.2153 14.8406C16.4731 14.5828 16.8226 14.4378 17.1871 14.4374C17.7307 14.4374 18.2124 14.7828 18.4337 15.2684C17.5812 15.6482 16.8816 15.7741 16.4266 15.8107C16.2222 15.8277 16.0167 15.8288 15.8121 15.8141ZM17.5309 19.2207V19.5936C17.5309 19.6848 17.4947 19.7722 17.4302 19.8367C17.3657 19.9012 17.2783 19.9374 17.1871 19.9374C17.096 19.9374 17.0085 19.9012 16.9441 19.8367C16.8796 19.7722 16.8434 19.6848 16.8434 19.5936V19.2207C17.0709 19.2596 17.3034 19.2596 17.5309 19.2207ZM19.8684 19.851C19.4924 19.4652 19.0314 19.2499 18.5621 19.2499H18.2184V18.9723C18.5317 18.7913 18.7919 18.5312 18.9729 18.2179C19.1539 17.9046 19.2494 17.5492 19.2496 17.1874V15.8124C19.2496 15.8025 19.2492 15.793 19.2484 15.7832C19.2305 15.2572 19.0171 14.7568 18.6498 14.3798C18.4613 14.1813 18.2345 14.0232 17.983 13.9149C17.7316 13.8066 17.4609 13.7505 17.1871 13.7499C16.6403 13.7505 16.116 13.9679 15.7294 14.3546C15.3427 14.7413 15.1252 15.2655 15.1246 15.8124V17.1874C15.1249 17.5492 15.2203 17.9046 15.4014 18.2179C15.5824 18.5312 15.8426 18.7913 16.1559 18.9723V19.2499H15.8121C15.3429 19.2499 14.8819 19.4652 14.5059 19.851C13.9792 19.3214 13.6212 18.6476 13.477 17.9147C13.3328 17.1817 13.4089 16.4226 13.6958 15.7329C13.9826 15.0432 14.4672 14.4539 15.0886 14.0393C15.71 13.6248 16.4402 13.4035 17.1871 13.4035C17.9341 13.4035 18.6643 13.6248 19.2857 14.0393C19.907 14.4539 20.3917 15.0432 20.6785 15.7329C20.9653 16.4226 21.0415 17.1817 20.8973 17.9147C20.7531 18.6476 20.3951 19.3214 19.8684 19.851Z" fill="white"/>
<path d="M7.90625 11.3438C8.0961 11.3438 8.25 11.1898 8.25 11C8.25 10.8102 8.0961 10.6562 7.90625 10.6562C7.7164 10.6562 7.5625 10.8102 7.5625 11C7.5625 11.1898 7.7164 11.3438 7.90625 11.3438Z" fill="white"/>
<path d="M8.9375 11.3438C9.12735 11.3438 9.28125 11.1898 9.28125 11C9.28125 10.8102 9.12735 10.6562 8.9375 10.6562C8.74765 10.6562 8.59375 10.8102 8.59375 11C8.59375 11.1898 8.74765 11.3438 8.9375 11.3438Z" fill="white"/>
<path d="M9.96875 11.3438C10.1586 11.3438 10.3125 11.1898 10.3125 11C10.3125 10.8102 10.1586 10.6562 9.96875 10.6562C9.7789 10.6562 9.625 10.8102 9.625 11C9.625 11.1898 9.7789 11.3438 9.96875 11.3438Z" fill="white"/>
<path d="M12.0312 11.3438H14.0938C14.1849 11.3438 14.2724 11.3075 14.3368 11.2431C14.4013 11.1786 14.4375 11.0912 14.4375 11C14.4375 10.9088 14.4013 10.8214 14.3368 10.7569C14.2724 10.6925 14.1849 10.6562 14.0938 10.6562H12.0312C11.9401 10.6562 11.8526 10.6925 11.7882 10.7569C11.7237 10.8214 11.6875 10.9088 11.6875 11C11.6875 11.0912 11.7237 11.1786 11.7882 11.2431C11.8526 11.3075 11.9401 11.3438 12.0312 11.3438Z" fill="white"/>
</svg>
