<svg width="14" height="14" viewBox="0 0 14 14" fill="none" xmlns="http://www.w3.org/2000/svg">
<g clip-path="url(#clip0)">
<path d="M13.5069 8.10427C13.9246 4.58852 13.3062 2.36893 12.1909 1.36502L12.1915 1.36443C10.3913 -0.349986 4.3118 -0.603736 2.15814 1.44143C1.19097 2.44185 0.850302 3.9101 0.812969 5.72777C0.775635 7.54602 0.731302 10.9521 3.90522 11.8761H3.90814L3.90522 13.2872C3.90522 13.2872 3.88364 13.8589 4.2488 13.9738C4.66647 14.1091 4.85547 13.8437 6.15455 12.292C8.32689 12.4804 9.99522 12.0488 10.1848 11.9858C10.6235 11.8388 13.1056 11.5104 13.5069 8.10427ZM6.36864 11.2992C6.36864 11.2992 4.99372 13.0136 4.56614 13.4587C4.42614 13.6034 4.27272 13.5899 4.27505 13.3029C4.27505 13.1145 4.28555 10.9603 4.28555 10.9603C1.59464 10.1891 1.7533 7.28877 1.78247 5.77152C1.81164 4.25368 2.0893 3.0106 2.9083 2.17352C4.79772 0.401931 10.1276 0.798015 11.4856 2.07435C13.1458 3.5461 12.5549 7.7041 12.5584 7.84585C12.2171 10.689 10.2058 10.8693 9.83597 10.9924C9.67789 11.0449 8.2108 11.4223 6.36864 11.2992Z" fill="#00B857"/>
<path d="M7.12937 2.50659C6.90479 2.50659 6.90479 2.85659 7.12937 2.85951C8.87179 2.87293 10.3068 4.08743 10.3225 6.31518C10.3225 6.55026 10.6667 6.54734 10.6638 6.31226H10.6632C10.6445 3.91184 9.07771 2.52001 7.12937 2.50659Z" fill="#00B857"/>
<path d="M9.42122 5.94594C9.41597 6.1781 9.75955 6.18919 9.76247 5.9541C9.79105 4.63052 8.97497 3.54027 7.44139 3.42535C7.2168 3.40902 7.19347 3.76194 7.41747 3.77827C8.74747 3.87919 9.44805 4.78685 9.42122 5.94594Z" fill="#00B857"/>
<path d="M9.05494 7.45148C8.76677 7.28465 8.47335 7.38848 8.35202 7.5524L8.09827 7.88081C7.96935 8.04765 7.72844 8.02548 7.72844 8.02548C5.97027 7.56056 5.5001 5.72073 5.5001 5.72073C5.5001 5.72073 5.47852 5.47165 5.63952 5.33806L5.95685 5.07556C6.11552 4.94956 6.21585 4.64623 6.05427 4.34815C5.6226 3.56823 5.33269 3.29931 5.1851 3.09281C5.02994 2.89856 4.7966 2.85481 4.55394 2.98606H4.54869C4.0441 3.28123 3.49169 3.83365 3.66844 4.4024C3.97002 5.00206 4.52419 6.91365 6.29052 8.35798C7.1206 9.04106 8.43427 9.74106 8.99194 9.90265L8.99719 9.91081C9.54669 10.094 10.081 9.51998 10.3663 9.00023V8.99615C10.4929 8.74473 10.4509 8.50673 10.2659 8.35098C9.9381 8.03131 9.44344 7.6784 9.05494 7.45148Z" fill="#00B857"/>
<path d="M7.68179 4.72731C8.24237 4.75998 8.51421 5.05281 8.54337 5.65423C8.55387 5.88931 8.89512 5.87298 8.88462 5.63789C8.84729 4.85273 8.43779 4.41523 7.70046 4.3744C7.47587 4.36098 7.45487 4.7139 7.68179 4.72731Z" fill="#00B857"/>
</g>
<defs>
<clipPath id="clip0">
<rect width="14" height="14" fill="white"/>
</clipPath>
</defs>
</svg>
