<svg width="22" height="22" viewBox="0 0 22 22" fill="none" xmlns="http://www.w3.org/2000/svg">
<path d="M21.6333 15.0334H0.366652C0.16427 15.0334 0 15.1973 0 15.4V16.8667C0 17.0695 0.16427 17.2333 0.366652 17.2333H21.6333C21.8361 17.2333 22 17.0695 22 16.8667V15.4C22 15.1973 21.8361 15.0334 21.6333 15.0334ZM21.2667 16.5H0.733348V15.7667H21.2667V16.5H21.2667Z" fill="white"/>
<path d="M2.56772 16.5C1.55684 16.5 0.734375 17.3224 0.734375 18.3333C0.734375 19.3443 1.5568 20.1667 2.56772 20.1667C3.57865 20.1667 4.40107 19.3443 4.40107 18.3333C4.40107 17.3224 3.57865 16.5 2.56772 16.5ZM2.56772 19.4333C1.96126 19.4333 1.46772 18.9398 1.46772 18.3333C1.46772 17.7269 1.96126 17.2333 2.56772 17.2333C3.17418 17.2333 3.66772 17.7269 3.66772 18.3333C3.66772 18.9398 3.17418 19.4333 2.56772 19.4333Z" fill="white"/>
<path d="M6.96616 16.5C5.95528 16.5 5.13281 17.3224 5.13281 18.3333C5.13281 19.3443 5.95523 20.1667 6.96616 20.1667C7.97704 20.1667 8.79951 19.3443 8.79951 18.3333C8.79951 17.3224 7.97709 16.5 6.96616 16.5ZM6.96616 19.4333C6.3597 19.4333 5.86616 18.9398 5.86616 18.3333C5.86616 17.7269 6.3597 17.2333 6.96616 17.2333C7.57262 17.2333 8.06616 17.7269 8.06616 18.3333C8.06616 18.9398 7.57262 19.4333 6.96616 19.4333Z" fill="white"/>
<path d="M6.9664 17.9666H2.56641V18.7H6.9664V17.9666Z" fill="white"/>
<path d="M21.6333 6.96661H0.366652C0.16427 6.96661 0 7.13088 0 7.33327V15.4C0 15.6027 0.16427 15.7666 0.366652 15.7666H21.6333C21.8361 15.7666 22 15.6027 22 15.4V7.33331C22 7.13088 21.8361 6.96661 21.6333 6.96661ZM21.2667 15.0333H0.733348V7.69996H21.2667V15.0333H21.2667Z" fill="white"/>
<path d="M11.3662 8.43335H10.6328V14.3H11.3662V8.43335Z" fill="white"/>
<path d="M9.53413 8.43335H8.80078V14.3H9.53413V8.43335Z" fill="white"/>
<path d="M7.70014 8.43335H6.9668V14.3H7.70014V8.43335Z" fill="white"/>
<path d="M5.86616 8.43335H5.13281V14.3H5.86616V8.43335Z" fill="white"/>
<path d="M4.03413 8.43335H3.30078V14.3H4.03413V8.43335Z" fill="white"/>
<path d="M2.20014 8.43335H1.4668V14.3H2.20014V8.43335Z" fill="white"/>
<path d="M20.5341 8.43335H19.8008V14.3H20.5341V8.43335Z" fill="white"/>
<path d="M18.7001 8.43335H17.9668V14.3H18.7001V8.43335Z" fill="white"/>
<path d="M16.8662 8.43335H16.1328V14.3H16.8662V8.43335Z" fill="white"/>
<path d="M15.0341 8.43335H14.3008V14.3H15.0341V8.43335Z" fill="white"/>
<path d="M13.2001 8.43335H12.4668V14.3H13.2001V8.43335Z" fill="white"/>
<path d="M13.9326 5.5H8.06587C7.86349 5.5 7.69922 5.66427 7.69922 5.86665V7.3333C7.69922 7.53569 7.86349 7.69996 8.06587 7.69996H13.9325C14.1353 7.69996 14.2992 7.53569 14.2992 7.3333V5.86665C14.2992 5.66427 14.1353 5.5 13.9326 5.5ZM13.5659 6.96665H8.43257V6.2333H13.5659V6.96665H13.5659Z" fill="white"/>
<path d="M22 1.83334H0V2.56669H22V1.83334Z" fill="white"/>
<path d="M10.8456 2.4985L10.4195 1.90158L7.85283 3.73493C7.75641 3.80385 7.69922 3.91497 7.69922 4.03339C7.69922 4.15181 7.75641 4.26293 7.85283 4.33185L10.4195 6.1652L10.8456 5.56827L8.69691 4.03339L10.8456 2.4985Z" fill="white"/>
<path d="M14.147 3.73493L11.5804 1.90158L11.1543 2.4985L13.3029 4.03339L11.1543 5.56827L11.5804 6.1652L14.147 4.33185C14.2434 4.26293 14.3006 4.15181 14.3006 4.03339C14.3006 3.91492 14.2434 3.80385 14.147 3.73493Z" fill="white"/>
<path d="M15.0326 16.5C14.0217 16.5 13.1992 17.3224 13.1992 18.3333C13.1992 19.3443 14.0216 20.1667 15.0326 20.1667C16.0434 20.1667 16.8659 19.3443 16.8659 18.3333C16.8659 17.3224 16.0434 16.5 15.0326 16.5ZM15.0326 19.4333C14.4261 19.4333 13.9326 18.9398 13.9326 18.3333C13.9326 17.7269 14.4261 17.2333 15.0326 17.2333C15.639 17.2333 16.1326 17.7269 16.1326 18.3333C16.1326 18.9398 15.639 19.4333 15.0326 19.4333Z" fill="white"/>
<path d="M19.433 16.5C18.4221 16.5 17.5996 17.3224 17.5996 18.3333C17.5996 19.3443 18.422 20.1667 19.433 20.1667C20.4438 20.1667 21.2663 19.3443 21.2663 18.3333C21.2663 17.3224 20.4438 16.5 19.433 16.5ZM19.433 19.4333C18.8265 19.4333 18.333 18.9398 18.333 18.3333C18.333 17.7269 18.8265 17.2333 19.433 17.2333C20.0394 17.2333 20.533 17.7269 20.533 18.3333C20.533 18.9398 20.0394 19.4333 19.433 19.4333Z" fill="white"/>
<path d="M19.4332 17.9666H15.0332V18.7H19.4332V17.9666Z" fill="white"/>
<path d="M22 19.4334H0V20.1668H22V19.4334Z" fill="white"/>
</svg>
