<svg width="41" height="41" viewBox="0 0 41 41" fill="none" xmlns="http://www.w3.org/2000/svg">
<path d="M40.0519 12.9062L25.3175 3.93744C25.2172 3.87617 25.1019 3.84375 24.9844 3.84375C24.8668 3.84375 24.7516 3.87617 24.6512 3.93744L17.6332 8.2096L15.0899 6.51355C14.9846 6.44344 14.8609 6.40604 14.7344 6.40604C14.6079 6.40604 14.4842 6.44344 14.3788 6.51355L0.925703 15.4823C0.838111 15.541 0.766298 15.6204 0.716586 15.7134C0.666874 15.8064 0.640788 15.9102 0.640625 16.0156V36.5156C0.640625 36.6855 0.708119 36.8485 0.82826 36.9686C0.9484 37.0888 1.11135 37.1562 1.28125 37.1562H39.7188C39.8887 37.1562 40.0516 37.0888 40.1717 36.9686C40.2919 36.8485 40.3594 36.6855 40.3594 36.5156V13.4531C40.3593 13.3432 40.331 13.2352 40.2772 13.1394C40.2233 13.0436 40.1457 12.9633 40.0519 12.9062ZM22.4219 35.875H7.04688V34.5937H22.4219V35.875ZM22.4219 33.3125H7.04688V32.0312H22.4219V33.3125ZM22.4219 30.75H7.04688V29.4687H22.4219V30.75ZM22.4219 28.1875H7.04688V26.9062H22.4219V28.1875ZM5.76562 25.625V24.9844H23.7031V25.625H5.76562ZM27.5469 35.875H23.7031V26.9062H24.3438C24.5137 26.9062 24.6766 26.8388 24.7967 26.7186C24.9169 26.5985 24.9844 26.4355 24.9844 26.2656V24.3437C24.9844 24.1738 24.9169 24.0109 24.7967 23.8908C24.6766 23.7706 24.5137 23.7031 24.3438 23.7031H5.125C4.9551 23.7031 4.79215 23.7706 4.67201 23.8908C4.55187 24.0109 4.48438 24.1738 4.48438 24.3437V26.2656C4.48438 26.4355 4.55187 26.5985 4.67201 26.7186C4.79215 26.8388 4.9551 26.9062 5.125 26.9062H5.76562V35.875H1.92188V16.3584L14.7344 7.81642L27.5469 16.3584V35.875ZM33.3125 35.875H30.75V33.3125H33.3125V35.875ZM32.6719 32.0312V29.4687H35.2344V32.0312H32.6719ZM37.1562 35.875H34.5938V33.3125H37.1562V35.875ZM39.0781 35.875H38.4375V32.6719C38.4375 32.502 38.37 32.339 38.2499 32.2189C38.1297 32.0987 37.9668 32.0312 37.7969 32.0312H36.5156V28.8281C36.5156 28.6582 36.4481 28.4953 36.328 28.3751C36.2079 28.255 36.0449 28.1875 35.875 28.1875H32.0312C31.8613 28.1875 31.6984 28.255 31.5783 28.3751C31.4581 28.4953 31.3906 28.6582 31.3906 28.8281V32.0312H30.1094C29.9395 32.0312 29.7765 32.0987 29.6564 32.2189C29.5362 32.339 29.4688 32.502 29.4688 32.6719V35.875H28.8281V16.0156C28.828 15.9102 28.8019 15.8064 28.7522 15.7134C28.7025 15.6204 28.6306 15.541 28.543 15.4823L18.8088 8.99357L24.9844 5.2347L39.0781 13.8135V35.875Z" fill="#00B857"/>
<path d="M19.8594 17.2969H9.60938C9.43947 17.2969 9.27653 17.3644 9.15638 17.4845C9.03624 17.6046 8.96875 17.7676 8.96875 17.9375V21.1406C8.96875 21.3105 9.03624 21.4735 9.15638 21.5936C9.27653 21.7138 9.43947 21.7812 9.60938 21.7812H19.8594C20.0293 21.7812 20.1922 21.7138 20.3124 21.5936C20.4325 21.4735 20.5 21.3105 20.5 21.1406V17.9375C20.5 17.7676 20.4325 17.6046 20.3124 17.4845C20.1922 17.3644 20.0293 17.2969 19.8594 17.2969ZM15.375 18.5781H16.6562V20.5H15.375V18.5781ZM14.0938 20.5H12.8125V18.5781H14.0938V20.5ZM10.25 18.5781H11.5312V20.5H10.25V18.5781ZM19.2188 20.5H17.9375V18.5781H19.2188V20.5Z" fill="#00B857"/>
</svg>
