<svg width="22" height="22" viewBox="0 0 22 22" fill="none" xmlns="http://www.w3.org/2000/svg">
<path d="M21.3125 20.625H20.2812V6.5313C20.2813 6.47259 20.2663 6.41485 20.2376 6.36361C20.2089 6.31237 20.1676 6.26935 20.1175 6.23868L11.18 0.738681C11.126 0.705185 11.0636 0.687439 11 0.687439C10.9364 0.687439 10.874 0.705185 10.82 0.738681L1.88246 6.23868C1.8324 6.26935 1.79105 6.31237 1.76239 6.36361C1.73372 6.41485 1.7187 6.47259 1.71875 6.5313V20.625H0.6875C0.596332 20.625 0.508898 20.6613 0.444432 20.7257C0.379966 20.7902 0.34375 20.8776 0.34375 20.9688C0.34375 21.06 0.379966 21.1474 0.444432 21.2119C0.508898 21.2763 0.596332 21.3125 0.6875 21.3125H21.3125C21.4037 21.3125 21.4911 21.2763 21.5556 21.2119C21.62 21.1474 21.6562 21.06 21.6562 20.9688C21.6562 20.8776 21.62 20.7902 21.5556 20.7257C21.4911 20.6613 21.4037 20.625 21.3125 20.625ZM12.0312 20.625H9.96875V18.5625H10.6562V19.25C10.6562 19.3412 10.6925 19.4287 10.7569 19.4931C10.8214 19.5576 10.9088 19.5938 11 19.5938C11.0912 19.5938 11.1786 19.5576 11.2431 19.4931C11.3075 19.4287 11.3438 19.3412 11.3438 19.25V18.5625H12.0312V20.625ZM14.7812 20.625H12.7188V18.5625H13.4062V19.25C13.4062 19.3412 13.4425 19.4287 13.5069 19.4931C13.5714 19.5576 13.6588 19.5938 13.75 19.5938C13.8412 19.5938 13.9286 19.5576 13.9931 19.4931C14.0575 19.4287 14.0938 19.3412 14.0938 19.25V18.5625H14.7812V20.625ZM14.7812 17.875H12.7188V15.8125H13.4062V16.5C13.4062 16.5912 13.4425 16.6787 13.5069 16.7431C13.5714 16.8076 13.6588 16.8438 13.75 16.8438C13.8412 16.8438 13.9286 16.8076 13.9931 16.7431C14.0575 16.6787 14.0938 16.5912 14.0938 16.5V15.8125H14.7812V17.875ZM15.8125 20.625H15.4688V15.4688C15.4688 15.3776 15.4325 15.2902 15.3681 15.2257C15.3036 15.1613 15.2162 15.125 15.125 15.125H12.375C12.2838 15.125 12.1964 15.1613 12.1319 15.2257C12.0675 15.2902 12.0312 15.3776 12.0312 15.4688V17.875H9.625C9.53383 17.875 9.4464 17.9113 9.38193 17.9757C9.31747 18.0402 9.28125 18.1276 9.28125 18.2188V20.625H6.1875V14.4375H15.8125V20.625ZM15.8125 13.75H6.1875V13.4063H15.8125V13.75ZM5.15625 12.7188V12.0313H16.8438V12.7188H5.15625ZM19.5938 20.625H16.5V13.4063H17.1875C17.2787 13.4063 17.3661 13.3701 17.4306 13.3056C17.495 13.2412 17.5312 13.1537 17.5312 13.0625V11.6875C17.5312 11.5964 17.495 11.5089 17.4306 11.4445C17.3661 11.38 17.2787 11.3438 17.1875 11.3438H4.8125C4.72133 11.3438 4.6339 11.38 4.56943 11.4445C4.50497 11.5089 4.46875 11.5964 4.46875 11.6875V13.0625C4.46875 13.1537 4.50497 13.2412 4.56943 13.3056C4.6339 13.3701 4.72133 13.4063 4.8125 13.4063H5.5V20.625H2.40625V6.72337L11 1.43478L19.5938 6.72337V20.625Z" fill="white"/>
<path d="M15.8125 7.21881H6.1875C6.09633 7.21881 6.0089 7.25503 5.94443 7.31949C5.87997 7.38396 5.84375 7.47139 5.84375 7.56256V10.3126C5.84375 10.4037 5.87997 10.4912 5.94443 10.5556C6.0089 10.6201 6.09633 10.6563 6.1875 10.6563H15.8125C15.9037 10.6563 15.9911 10.6201 16.0556 10.5556C16.12 10.4912 16.1562 10.4037 16.1562 10.3126V7.56256C16.1562 7.47139 16.12 7.38396 16.0556 7.31949C15.9911 7.25503 15.9037 7.21881 15.8125 7.21881ZM11.3438 7.90631H13.0625V9.96881H11.3438V7.90631ZM10.6562 9.96881H8.9375V7.90631H10.6562V9.96881ZM6.53125 7.90631H8.25V9.96881H6.53125V7.90631ZM15.4688 9.96881H13.75V7.90631H15.4688V9.96881Z" fill="white"/>
</svg>
