<svg width="42" height="42" viewBox="0 0 42 42" fill="none" xmlns="http://www.w3.org/2000/svg">
<path d="M29.325 9.36535C29.325 7.71882 28.8368 6.10926 27.922 4.74023C27.0072 3.37119 25.7071 2.30415 24.1859 1.67405C22.6647 1.04395 20.9908 0.879089 19.3759 1.20031C17.761 1.52153 16.2776 2.31441 15.1134 3.47868C13.9491 4.64296 13.1562 6.12633 12.835 7.74122C12.5138 9.35611 12.6786 11.03 13.3087 12.5512C13.9388 14.0724 15.0059 15.3726 16.3749 16.2873C17.7439 17.2021 19.3535 17.6903 21 17.6903C23.2072 17.6878 25.3232 16.8099 26.8839 15.2493C28.4446 13.6886 29.3225 11.5725 29.325 9.36535ZM28.0149 8.72496H25.4689C25.3934 6.81446 24.9821 5.02994 24.2898 3.64511C24.1696 3.40367 24.0363 3.16891 23.8907 2.94189C25.0278 3.45544 26.0086 4.26117 26.733 5.27702C27.4575 6.29288 27.8998 7.48257 28.0149 8.72496ZM20.3596 2.48241V8.72496H17.8124C17.8854 7.01362 18.2488 5.43195 18.8559 4.21826C19.2894 3.35078 19.8153 2.75154 20.3596 2.48241ZM20.3596 10.0057V16.2483C19.8153 15.9792 19.2894 15.3799 18.8559 14.5128C18.2488 13.2987 17.8854 11.7171 17.8124 10.0057H20.3596ZM21.6404 16.2483V10.0057H24.1876C24.1147 11.7171 23.7512 13.2987 23.1442 14.5128C22.7107 15.3799 22.1847 15.9792 21.6404 16.2483ZM21.6404 8.72496V2.48241C22.1847 2.75154 22.7107 3.35078 23.1442 4.21786C23.7512 5.43195 24.1147 7.01362 24.1876 8.72496H21.6404ZM18.1093 2.94189C17.9636 3.16891 17.8303 3.40366 17.71 3.64511C17.0177 5.02994 16.6064 6.81446 16.5309 8.72496H13.9852C14.1003 7.48257 14.5426 6.29288 15.267 5.27702C15.9915 4.26117 16.9722 3.45544 18.1093 2.94189ZM13.9852 10.0057H16.5311C16.6067 11.9162 17.018 13.7008 17.7103 15.0856C17.8305 15.327 17.9637 15.5618 18.1093 15.7888C16.9722 15.2753 15.9915 14.4695 15.267 13.4537C14.5426 12.4378 14.1003 11.2481 13.9852 10.0057ZM23.8907 15.7888C24.0363 15.5618 24.1696 15.327 24.2898 15.0856C24.9821 13.7008 25.3934 11.9162 25.4689 10.0057H28.0149C27.8998 11.2481 27.4575 12.4378 26.733 13.4537C26.0086 14.4695 25.0278 15.2753 23.8907 15.7888Z" fill="#00B857"/>
<path d="M18.8291 28.0694L10.5041 21.6656C10.3921 21.5795 10.2548 21.5329 10.1135 21.5329C9.97222 21.5329 9.8349 21.5795 9.72285 21.6656L1.39785 28.0694C1.3201 28.1292 1.25714 28.2061 1.21383 28.2941C1.17053 28.3821 1.14804 28.4788 1.1481 28.5769V39.4634C1.1481 39.6333 1.21557 39.7962 1.33567 39.9163C1.45576 40.0364 1.61865 40.1038 1.78849 40.1038H18.4385C18.6083 40.1038 18.7712 40.0364 18.8913 39.9163C19.0114 39.7962 19.0789 39.6333 19.0789 39.4634V28.5769C19.0789 28.4788 19.0564 28.3821 19.0131 28.2941C18.9698 28.2061 18.9069 28.1292 18.8291 28.0694ZM13.9558 38.8231H6.27118V38.1827H13.9558V38.8231ZM13.9558 36.9019H6.27118V36.2615H13.9558V36.9019ZM13.9558 34.9808H6.27118V34.3404H13.9558V34.9808ZM4.99041 33.0596V32.4192H15.2366V33.0596H4.99041ZM17.7981 38.8231H15.2366V34.3404H15.8769C16.0468 34.3404 16.2097 34.2729 16.3298 34.1528C16.4499 34.0327 16.5173 33.8698 16.5173 33.7V31.7788C16.5173 31.609 16.4499 31.4461 16.3298 31.326C16.2097 31.2059 16.0468 31.1385 15.8769 31.1385H4.35002C4.18018 31.1385 4.0173 31.2059 3.8972 31.326C3.77711 31.4461 3.70964 31.609 3.70964 31.7788V33.7C3.70964 33.8698 3.77711 34.0327 3.8972 34.1528C4.0173 34.2729 4.18018 34.3404 4.35002 34.3404H4.99041V38.8231H2.42887V28.8923L10.1135 22.9808L17.7981 28.8923V38.8231Z" fill="#00B857"/>
<path d="M7.55194 26.0153C7.3821 26.0153 7.21922 26.0828 7.09912 26.2029C6.97903 26.323 6.91156 26.4859 6.91156 26.6557V29.2172C6.91156 29.3871 6.97903 29.55 7.09912 29.6701C7.21922 29.7902 7.3821 29.8576 7.55194 29.8576H12.675C12.8449 29.8576 13.0077 29.7902 13.1278 29.6701C13.2479 29.55 13.3154 29.3871 13.3154 29.2172V26.6557C13.3154 26.4859 13.2479 26.323 13.1278 26.2029C13.0077 26.0828 12.8449 26.0153 12.675 26.0153H7.55194ZM8.19233 27.2961H9.4731V28.5769H8.19233V27.2961ZM12.0346 28.5769H10.7539V27.2961H12.0346V28.5769Z" fill="#00B857"/>
<path d="M40.6022 28.0694L32.2772 21.6656C32.1651 21.5795 32.0278 21.5329 31.8866 21.5329C31.7453 21.5329 31.608 21.5795 31.4959 21.6656L23.1709 28.0694C23.0932 28.1292 23.0302 28.2061 22.9869 28.2941C22.9436 28.3821 22.9211 28.4788 22.9212 28.5769V39.4634C22.9212 39.6333 22.9886 39.7962 23.1087 39.9163C23.2288 40.0364 23.3917 40.1038 23.5616 40.1038H40.2116C40.3814 40.1038 40.5443 40.0364 40.6644 39.9163C40.7845 39.7962 40.8519 39.6333 40.8519 39.4634V28.5769C40.852 28.4788 40.8295 28.3821 40.7862 28.2941C40.7429 28.2061 40.6799 28.1292 40.6022 28.0694ZM35.7289 38.8231H28.0442V38.1827H35.7289V38.8231ZM35.7289 36.9019H28.0442V36.2615H35.7289V36.9019ZM35.7289 34.9808H28.0442V34.3404H35.7289V34.9808ZM26.7635 33.0596V32.4192H37.0096V33.0596H26.7635ZM39.5712 38.8231H37.0096V34.3404H37.65C37.8199 34.3404 37.9827 34.2729 38.1028 34.1528C38.2229 34.0327 38.2904 33.8698 38.2904 33.7V31.7788C38.2904 31.609 38.2229 31.4461 38.1028 31.326C37.9827 31.2059 37.8199 31.1385 37.65 31.1385H26.1231C25.9533 31.1385 25.7904 31.2059 25.6703 31.326C25.5502 31.4461 25.4827 31.609 25.4827 31.7788V33.7C25.4827 33.8698 25.5502 34.0327 25.6703 34.1528C25.7904 34.2729 25.9533 34.3404 26.1231 34.3404H26.7635V38.8231H24.2019V28.8923L31.8866 22.9808L39.5712 28.8923V38.8231Z" fill="#00B857"/>
<path d="M29.325 26.0153C29.1552 26.0153 28.9923 26.0828 28.8722 26.2029C28.7521 26.323 28.6846 26.4859 28.6846 26.6557V29.2172C28.6846 29.3871 28.7521 29.55 28.8722 29.6701C28.9923 29.7902 29.1552 29.8576 29.325 29.8576H34.4481C34.6179 29.8576 34.7808 29.7902 34.9009 29.6701C35.021 29.55 35.0885 29.3871 35.0885 29.2172V26.6557C35.0885 26.4859 35.021 26.323 34.9009 26.2029C34.7808 26.0828 34.6179 26.0153 34.4481 26.0153H29.325ZM29.9654 27.2961H31.2462V28.5769H29.9654V27.2961ZM33.8077 28.5769H32.5269V27.2961H33.8077V28.5769Z" fill="#00B857"/>
<path d="M6.27118 21.5327C6.44102 21.5327 6.60391 21.4652 6.724 21.3451C6.8441 21.225 6.91157 21.0621 6.91157 20.8923V10.0057H11.3943C11.5641 10.0057 11.727 9.93828 11.8471 9.81818C11.9672 9.69809 12.0346 9.5352 12.0346 9.36536C12.0346 9.19552 11.9672 9.03264 11.8471 8.91254C11.727 8.79244 11.5641 8.72498 11.3943 8.72498H6.27118C6.10134 8.72498 5.93846 8.79244 5.81836 8.91254C5.69827 9.03264 5.6308 9.19552 5.6308 9.36536V20.8923C5.6308 21.0621 5.69827 21.225 5.81836 21.3451C5.93846 21.4652 6.10134 21.5327 6.27118 21.5327Z" fill="#00B857"/>
<path d="M30.6858 10.0057H35.0885V20.8923C35.0885 21.0621 35.156 21.225 35.276 21.3451C35.3961 21.4652 35.559 21.5327 35.7289 21.5327C35.8987 21.5327 36.0616 21.4652 36.1817 21.3451C36.3018 21.225 36.3693 21.0621 36.3693 20.8923V9.36536C36.3693 9.19552 36.3018 9.03264 36.1817 8.91254C36.0616 8.79244 35.8987 8.72498 35.7289 8.72498H30.6858C30.516 8.72498 30.3531 8.79244 30.233 8.91254C30.1129 9.03264 30.0455 9.19552 30.0455 9.36536C30.0455 9.5352 30.1129 9.69809 30.233 9.81818C30.3531 9.93828 30.516 10.0057 30.6858 10.0057Z" fill="#00B857"/>
</svg>
