<svg width="40" height="40" viewBox="0 0 40 40" fill="none" xmlns="http://www.w3.org/2000/svg">
<path d="M32.8164 5.93358C30.2816 3.39871 27.052 1.67244 23.5361 0.973072C20.0201 0.273699 16.3758 0.632635 13.0638 2.00449C9.7519 3.37634 6.92115 5.6995 4.92955 8.68018C2.93795 11.6609 1.87496 15.1652 1.875 18.75V38.75C1.875 38.9158 1.94085 39.0747 2.05806 39.1919C2.17527 39.3091 2.33424 39.375 2.5 39.375H37.5C37.6658 39.375 37.8247 39.3091 37.9419 39.1919C38.0592 39.0747 38.125 38.9158 38.125 38.75V18.75C38.1315 16.3688 37.6657 14.01 36.7545 11.81C35.8433 9.6101 34.5047 7.61274 32.8164 5.93358ZM30 38.125H10V36.875H30V38.125ZM30 35.625H10V34.375H30V35.625ZM30 33.125H10V31.875H30V33.125ZM30 30.625H10V29.375H30V30.625ZM30 28.125H10V26.875H30V28.125ZM8.125 25.625V23.75H31.875V25.625H8.125ZM36.875 38.125H31.25V26.875H32.5C32.6658 26.875 32.8247 26.8091 32.9419 26.6919C33.0591 26.5747 33.125 26.4157 33.125 26.25V23.125C33.125 22.9592 33.0591 22.8003 32.9419 22.683C32.8247 22.5658 32.6658 22.5 32.5 22.5H7.5C7.33424 22.5 7.17527 22.5658 7.05806 22.683C6.94085 22.8003 6.875 22.9592 6.875 23.125V26.25C6.875 26.4157 6.94085 26.5747 7.05806 26.6919C7.17527 26.8091 7.33424 26.875 7.5 26.875H8.75V38.125H3.125V18.75C3.1249 15.4124 4.11453 12.1498 5.96874 9.37469C7.82296 6.59958 10.4585 4.43666 13.542 3.15945C16.6255 1.88224 20.0185 1.54812 23.2919 2.19933C26.5653 2.85054 29.5721 4.45784 31.932 6.81796C33.5041 8.38111 34.7504 10.2406 35.5989 12.2888C36.4474 14.3369 36.8811 16.5331 36.875 18.75V38.125Z" fill="#00B857"/>
<path d="M25 13.125H15C14.8342 13.125 14.6753 13.1908 14.5581 13.3081C14.4408 13.4253 14.375 13.5842 14.375 13.75V18.75C14.375 18.9158 14.4408 19.0747 14.5581 19.1919C14.6753 19.3092 14.8342 19.375 15 19.375H25C25.1658 19.375 25.3247 19.3092 25.4419 19.1919C25.5592 19.0747 25.625 18.9158 25.625 18.75V13.75C25.625 13.5842 25.5592 13.4253 25.4419 13.3081C25.3247 13.1908 25.1658 13.125 25 13.125ZM15.625 14.375H19.375V18.125H15.625V14.375ZM24.375 18.125H20.625V14.375H24.375V18.125Z" fill="#00B857"/>
<path d="M3.75 29.375V33.125C3.75 33.2908 3.81585 33.4497 3.93306 33.5669C4.05027 33.6842 4.20924 33.75 4.375 33.75H7.5C7.66576 33.75 7.82473 33.6842 7.94194 33.5669C8.05915 33.4497 8.125 33.2908 8.125 33.125V29.375C8.125 29.2092 8.05915 29.0503 7.94194 28.9331C7.82473 28.8158 7.66576 28.75 7.5 28.75H4.375C4.20924 28.75 4.05027 28.8158 3.93306 28.9331C3.81585 29.0503 3.75 29.2092 3.75 29.375ZM5 30H6.875V32.5H5V30Z" fill="#00B857"/>
<path d="M31.875 29.375V33.125C31.875 33.2908 31.9408 33.4497 32.0581 33.5669C32.1753 33.6842 32.3342 33.75 32.5 33.75H35.625C35.7908 33.75 35.9497 33.6842 36.0669 33.5669C36.1842 33.4497 36.25 33.2908 36.25 33.125V29.375C36.25 29.2092 36.1842 29.0503 36.0669 28.9331C35.9497 28.8158 35.7908 28.75 35.625 28.75H32.5C32.3342 28.75 32.1753 28.8158 32.0581 28.9331C31.9408 29.0503 31.875 29.2092 31.875 29.375ZM33.125 30H35V32.5H33.125V30Z" fill="#00B857"/>
</svg>
