<svg width="40" height="40" viewBox="0 0 40 40" fill="none" xmlns="http://www.w3.org/2000/svg">
<g clip-path="url(#clip0)">
<path d="M39.565 32.9326L22.7792 3.8589C21.5438 1.71897 18.4568 1.71819 17.2209 3.8589L0.435038 32.9326C-0.800434 35.0726 0.742382 37.7464 3.21426 37.7464H36.7857C39.2568 37.7464 40.8009 35.0733 39.565 32.9326ZM36.7857 34.8055H3.21426C3.00567 34.8055 2.87731 34.584 2.98184 34.403L19.7676 5.32929C19.8719 5.14859 20.1278 5.1482 20.2323 5.32929L37.0181 34.4029C37.1225 34.5837 36.9949 34.8055 36.7857 34.8055Z" fill="#FF564E"/>
<path d="M20.0016 14.4524C19.1896 14.4524 18.5312 15.1108 18.5312 15.9228V24.3517C18.5312 25.1637 19.1896 25.8221 20.0016 25.8221C20.8137 25.8221 21.472 25.1637 21.472 24.3517V15.9228C21.4721 15.1108 20.8138 14.4524 20.0016 14.4524Z" fill="#FF564E"/>
<path d="M20.0016 27.7324C19.1896 27.7324 18.5312 28.3908 18.5312 29.2028V30.0809C18.5312 30.8929 19.1896 31.5513 20.0016 31.5513C20.8137 31.5513 21.472 30.8929 21.472 30.0809V29.2028C21.4721 28.3906 20.8138 27.7324 20.0016 27.7324Z" fill="#FF564E"/>
</g>
<defs>
<clipPath id="clip0">
<rect width="40" height="40" fill="white"/>
</clipPath>
</defs>
</svg>
