<svg width="22" height="22" viewBox="0 0 22 22" fill="none" xmlns="http://www.w3.org/2000/svg">
<path d="M5.57876 7.34766H1.72593C0.774254 7.34766 0 8.12191 0 9.07358V12.9264C0 13.8781 0.774254 14.6523 1.72593 14.6523H5.57876C6.53043 14.6523 7.30469 13.8781 7.30469 12.9264V9.07358C7.30469 8.12191 6.53043 7.34766 5.57876 7.34766ZM6.44536 12.9264H6.44531C6.44531 13.4042 6.05657 13.793 5.57876 13.793H1.72593C1.24811 13.793 0.859375 13.4042 0.859375 12.9264V9.07358C0.859375 8.59577 1.24811 8.20703 1.72593 8.20703H1.89062V11.0357C1.89105 11.4104 2.00879 11.7666 2.23137 12.0656C2.33836 12.2096 2.46684 12.3355 2.61293 12.4403C2.76074 12.546 2.92359 12.6273 3.09633 12.6818C3.13844 12.6952 3.18227 12.702 3.22566 12.702C3.41434 12.702 3.57891 12.5813 3.63559 12.4017C3.67 12.2921 3.66008 12.1756 3.60727 12.0738C3.55399 11.972 3.46461 11.8968 3.35504 11.8624C2.99239 11.7477 2.74914 11.4156 2.75004 11.0357V8.20703H5.5788C6.05662 8.20703 6.44536 8.59577 6.44536 9.07358V12.9264Z" fill="white"/>
<path d="M12.9264 0H9.07358C8.12191 0 7.34766 0.774254 7.34766 1.72593V5.57876C7.34766 6.53043 8.12191 7.30469 9.07358 7.30469H12.9264C13.8781 7.30469 14.6523 6.53043 14.6523 5.57876V1.72593C14.6523 0.774254 13.8781 0 12.9264 0ZM13.793 5.57876C13.793 6.05657 13.4042 6.44531 12.9264 6.44531H9.07358C8.59577 6.44531 8.20703 6.05657 8.20703 5.57876V1.72593C8.20703 1.24811 8.59577 0.859375 9.07358 0.859375H9.23828V3.68801C9.23871 4.0627 9.35645 4.41891 9.57902 4.71797C9.68602 4.86191 9.81449 4.98781 9.96059 5.09266C10.1084 5.19836 10.2713 5.27961 10.444 5.33414C10.4861 5.3475 10.5299 5.35434 10.5733 5.35434C10.762 5.35434 10.9266 5.23359 10.9832 5.05403C11.0546 4.82797 10.9287 4.58605 10.7027 4.51473C10.34 4.4 10.0968 4.06789 10.0977 3.68805V0.859375H12.9265C13.4042 0.859375 13.793 1.24811 13.793 1.72593V5.57876Z" fill="white"/>
<path d="M20.2741 7.39062H16.4212C15.4696 7.39062 14.6953 8.16488 14.6953 9.11655V12.9694C14.6953 13.9211 15.4696 14.6953 16.4212 14.6953H20.2741C21.2257 14.6953 22 13.9211 22 12.9694V9.11655C22 8.16488 21.2257 7.39062 20.2741 7.39062ZM21.1407 12.9694H21.1406C21.1406 13.4472 20.7519 13.8359 20.2741 13.8359H16.4212C15.9434 13.8359 15.5547 13.4472 15.5547 12.9694V9.11655C15.5547 8.63874 15.9434 8.25 16.4212 8.25H16.5859V11.0786C16.5864 11.4533 16.7041 11.8095 16.9267 12.1086C17.0337 12.2525 17.1621 12.3784 17.3082 12.4833C17.4561 12.589 17.6189 12.6702 17.7916 12.7248C17.8338 12.7381 17.8776 12.745 17.9214 12.745C18.1097 12.745 18.2742 12.6242 18.3309 12.4442C18.3653 12.335 18.3554 12.2186 18.3026 12.1168C18.2493 12.015 18.1599 11.9398 18.0504 11.9054C17.6877 11.7906 17.4445 11.4585 17.4454 11.0787V8.25H20.2741C20.7519 8.25 21.1407 8.63874 21.1407 9.11655V12.9694Z" fill="white"/>
<path d="M12.9264 14.6953H9.07358C8.12191 14.6953 7.34766 15.4696 7.34766 16.4212V20.2741C7.34766 21.2257 8.12191 22 9.07358 22H12.9264C13.8781 22 14.6523 21.2257 14.6523 20.2741V16.4212C14.6523 15.4696 13.8781 14.6953 12.9264 14.6953ZM13.793 20.2741H13.793C13.793 20.7519 13.4042 21.1406 12.9264 21.1406H9.07358C8.59577 21.1406 8.20703 20.7519 8.20703 20.2741V16.4212C8.20703 15.9434 8.59577 15.5547 9.07358 15.5547H9.23828V18.3833C9.23871 18.758 9.35645 19.1142 9.57902 19.4133C9.68602 19.5572 9.81449 19.6836 9.96059 19.788C10.1084 19.8937 10.2713 19.9833 10.444 20.0378C10.4861 20.0512 10.5299 20.0664 10.5733 20.0664H10.5738C10.762 20.0664 10.9266 19.9373 10.9832 19.7572C11.0177 19.6481 11.0077 19.5274 10.9545 19.4257C10.9016 19.3238 10.8122 19.2444 10.7027 19.21C10.34 19.0953 10.0968 18.7632 10.0977 18.3833V15.5547H12.9265C13.4043 15.5547 13.793 15.9434 13.793 16.4212V20.2741Z" fill="white"/>
<path d="M2.32031 6.40233C2.55759 6.40233 2.75 6.20991 2.75 5.97264V4.63902C2.75 3.70758 3.50775 2.96483 4.43914 2.96483H4.9353L4.54502 3.34763C4.37723 3.51543 4.37723 3.78377 4.54502 3.95156C4.62894 4.03543 4.73889 4.07552 4.84885 4.07552C4.95881 4.07552 5.06877 4.03264 5.15268 3.94877L6.27649 2.82449C6.35705 2.74388 6.40234 2.6344 6.40234 2.5204C6.40234 2.4064 6.35705 2.29701 6.27649 2.21644L5.15268 1.09255C4.98485 0.924798 4.71286 0.924798 4.54498 1.09255C4.37718 1.26034 4.37718 1.53994 4.54498 1.70773L4.93526 2.10545H4.43914C3.03385 2.10545 1.89062 3.23377 1.89062 4.63902V5.97264C1.89062 6.20991 2.08304 6.40233 2.32031 6.40233Z" fill="white"/>
<path d="M16.0371 2.75H17.3707C18.3022 2.75 19.0772 3.51845 19.0772 4.44984V4.946L18.6783 4.55572C18.5104 4.38797 18.2341 4.38797 18.0663 4.55572C17.8985 4.72351 17.8963 4.99559 18.0641 5.16343L19.1868 6.28723C19.2675 6.3678 19.3762 6.41309 19.4902 6.41309C19.6042 6.41309 19.7132 6.3678 19.7937 6.28723L20.9174 5.16343C21.0852 4.99563 21.085 4.72355 20.9172 4.55572C20.7494 4.38797 20.486 4.38797 20.3182 4.55572L19.9366 4.94596V4.44984C19.9366 3.04455 18.776 1.89062 17.3707 1.89062H16.0371C15.7998 1.89062 15.6074 2.08304 15.6074 2.32031C15.6074 2.55759 15.7998 2.75 16.0371 2.75Z" fill="white"/>
<path d="M19.6806 15.6727C19.4433 15.6727 19.2509 15.8651 19.2509 16.1024V17.436C19.2509 18.3674 18.4825 19.1211 17.5511 19.1211H17.055L17.4453 18.7329C17.613 18.5651 17.613 18.294 17.4453 18.1262C17.2775 17.9585 17.0055 17.959 16.8376 18.1267L15.7137 19.2507C15.6332 19.3313 15.5879 19.4407 15.5879 19.5547C15.5879 19.6686 15.6332 19.778 15.7137 19.8586L16.8376 20.9824C16.9215 21.0663 17.0314 21.1083 17.1414 21.1083C17.2513 21.1083 17.3613 21.0664 17.4452 20.9825C17.613 20.8147 17.613 20.5406 17.4452 20.3728L17.0549 19.9805H17.5511C18.9563 19.9805 20.1103 18.8413 20.1103 17.436V16.1024C20.1103 15.8651 19.9179 15.6727 19.6806 15.6727Z" fill="white"/>
<path d="M5.95133 19.2929H4.61771C3.68632 19.2929 2.92194 18.5566 2.92194 17.6252V17.129L3.3155 17.5193C3.39941 17.6032 3.511 17.6452 3.621 17.6452C3.731 17.6452 3.84173 17.6032 3.92569 17.5193C4.09349 17.3515 4.09392 17.0795 3.92612 16.9116L2.80253 15.7879C2.63474 15.6202 2.36284 15.6201 2.19496 15.7879L1.07115 16.9116C0.903359 17.0794 0.903359 17.3515 1.07119 17.5193C1.23903 17.6871 1.50776 17.6872 1.67559 17.5193L2.06257 17.129V17.6252C2.06257 19.0305 3.21246 20.1523 4.61771 20.1523H5.95133C6.1886 20.1523 6.38101 19.9599 6.38101 19.7226C6.38101 19.4854 6.1886 19.2929 5.95133 19.2929Z" fill="white"/>
<path d="M4.9375 11.9023C4.70031 11.9023 4.50781 12.0953 4.50781 12.332C4.50781 12.5688 4.70031 12.7617 4.9375 12.7617C5.17426 12.7617 5.36719 12.5688 5.36719 12.332C5.36719 12.0953 5.17421 11.9023 4.9375 11.9023Z" fill="white"/>
<path d="M12.2852 4.55469C12.048 4.55469 11.8555 4.74762 11.8555 4.98438C11.8555 5.22113 12.048 5.41406 12.2852 5.41406C12.5219 5.41406 12.7148 5.22113 12.7148 4.98438C12.7148 4.74762 12.5219 4.55469 12.2852 4.55469Z" fill="white"/>
<path d="M19.6328 11.9453C19.3956 11.9453 19.2031 12.1382 19.2031 12.375C19.2031 12.6118 19.3956 12.8047 19.6328 12.8047C19.8696 12.8047 20.0625 12.6118 20.0625 12.375C20.0625 12.1382 19.8695 11.9453 19.6328 11.9453Z" fill="white"/>
<path d="M12.2852 19.25C12.048 19.25 11.8555 19.4429 11.8555 19.6797C11.8555 19.9164 12.048 20.1094 12.2852 20.1094C12.5219 20.1094 12.7148 19.9164 12.7148 19.6797C12.7148 19.4429 12.5219 19.25 12.2852 19.25Z" fill="white"/>
</svg>
