<svg width="40" height="40" viewBox="0 0 40 40" fill="none" xmlns="http://www.w3.org/2000/svg">
<g clip-path="url(#clip0)">
<path d="M34.7411 0.453247C31.8415 0.453247 29.4824 2.81223 29.4824 5.71192C29.4824 8.61153 31.8415 10.9706 34.7411 10.9706C37.6407 10.9706 39.9998 8.61161 39.9998 5.71192C39.9998 2.81231 37.6408 0.453247 34.7411 0.453247ZM34.7411 9.40817C32.703 9.40817 31.0449 7.75004 31.0449 5.712C31.0449 3.67395 32.703 2.01583 34.7411 2.01583C36.7791 2.01583 38.4373 3.67395 38.4373 5.712C38.4373 7.75004 36.7791 9.40817 34.7411 9.40817Z" fill="#00B857"/>
<path d="M20.1354 26.9458C18.6494 26.9458 17.4404 28.0124 17.4404 29.3235C17.4404 30.6346 18.6494 31.7012 20.1354 31.7012C21.6214 31.7012 22.8304 30.6346 22.8304 29.3235C22.8304 28.0124 21.6214 26.9458 20.1354 26.9458ZM20.1354 30.1387C19.5215 30.1387 19.0029 29.7654 19.0029 29.3235C19.0029 28.8817 19.5215 28.5083 20.1354 28.5083C20.7492 28.5083 21.2679 28.8817 21.2679 29.3235C21.2679 29.7653 20.7492 30.1387 20.1354 30.1387Z" fill="#00B857"/>
<path d="M16.8183 25.1971H16.7666C16.3352 25.1971 15.9854 25.547 15.9854 25.9784C15.9854 26.4099 16.3352 26.7596 16.7666 26.7596H16.8183C17.2497 26.7596 17.5996 26.4098 17.5996 25.9784C17.5996 25.547 17.2497 25.1971 16.8183 25.1971Z" fill="#00B857"/>
<path d="M39.6854 38.6233L37.9823 29.4296C37.9137 29.0592 37.5907 28.7906 37.2141 28.7906H35.1143C35.0698 28.5521 35.0014 28.3165 34.9089 28.0867L30.9028 18.1282C30.162 16.2861 28.096 15.3656 26.2417 16.021H23.5082V15.9499C25.7028 14.7059 27.0957 12.3449 27.0957 9.8019C27.0957 9.26034 27.0333 8.7251 26.9122 8.20284C27.5981 7.7594 28.055 7.15401 28.2161 6.42221C28.2776 6.14299 28.1817 5.85237 27.9659 5.66479C27.7501 5.47706 27.449 5.42237 27.1811 5.5219C26.9314 5.61471 26.6984 5.66174 26.4886 5.66174C26.0407 5.66182 25.6515 5.44768 25.2267 4.96745C23.9383 3.51143 22.1903 2.74182 20.1716 2.74182H20.1496C16.931 2.75104 14.8521 4.18042 13.4116 7.37526C13.4106 7.37729 13.4097 7.3794 13.4087 7.38143C13.4066 7.3862 13.4043 7.39081 13.4021 7.39565C13.3991 7.40252 13.3969 7.40971 13.394 7.41674C13.3878 7.43159 13.3818 7.44659 13.3764 7.46206C13.3725 7.47346 13.3693 7.48518 13.3658 7.49682C13.3629 7.50674 13.3593 7.51635 13.3568 7.52651C13.3552 7.53331 13.3539 7.5401 13.3521 7.5469C13.3519 7.54823 13.3515 7.54948 13.3513 7.55081C12.9131 9.33135 13.0762 11.1964 13.8121 12.8056C14.4475 14.1946 15.4653 15.3174 16.7142 16.0212H13.6379C11.7832 15.3658 9.71761 16.2863 8.97668 18.1283L4.9705 28.0867C4.878 28.3165 4.80964 28.5522 4.76511 28.7907H2.10589C1.71746 28.7907 1.38808 29.076 1.33261 29.4605L0.00800299 38.6542C-0.0243408 38.8785 0.0422999 39.1057 0.190737 39.2771C0.339097 39.4484 0.554565 39.5468 0.781284 39.5468H38.9171C39.1493 39.5468 39.3693 39.4436 39.5178 39.2652C39.6662 39.0867 39.7276 38.8515 39.6854 38.6233ZM23.94 17.5835H26.3838V17.5836C26.4836 17.5836 26.5827 17.5645 26.6753 17.5271C27.7678 17.0879 29.0139 17.6189 29.4533 18.7114L33.4594 28.6699C33.6711 29.196 33.664 29.7759 33.4395 30.3026C33.215 30.8294 32.8015 31.236 32.2754 31.4477C31.7689 31.6514 30.8676 31.6443 30.2406 31.4679L30.7733 22.9838C30.7868 22.7685 30.7107 22.5572 30.5631 22.3999C30.4154 22.2427 30.2093 22.1535 29.9936 22.1535H23.3732L22.871 19.5217L23.94 17.5835ZM14.3803 25.1971H11.0087L10.9157 23.7161H18.1201C18.1208 23.7161 18.1215 23.7162 18.1221 23.7162C18.1227 23.7162 18.1233 23.7161 18.1238 23.7161H22.7225C22.7237 23.7161 22.7248 23.7163 22.726 23.7163C22.7271 23.7163 22.7281 23.7161 22.7292 23.7161H29.1617L28.4968 34.3028H11.5803L11.1068 26.7596H14.3803C14.8118 26.7596 15.1616 26.4098 15.1616 25.9784C15.1616 25.547 14.8118 25.1971 14.3803 25.1971ZM21.5894 18.6103H19.0865L18.428 17.5836H22.1555L21.5894 18.6103ZM21.7824 22.1536H19.03L19.331 20.1728H21.4044L21.7824 22.1536ZM20.1539 4.3044H20.1716C21.7299 4.3044 23.0733 4.89174 24.0565 6.00292C24.5561 6.56752 25.0878 6.93268 25.6665 7.10604C25.659 7.10956 25.652 7.1137 25.6446 7.11737C25.105 7.34424 24.3889 7.47221 23.5578 7.47221C22.1666 7.47221 20.5712 7.10604 19.0653 6.4412C18.4537 6.17112 17.7963 6.03417 17.1111 6.03417C16.6934 6.03417 16.2959 6.0851 15.93 6.16417C16.9664 4.86917 18.2882 4.30963 20.1539 4.3044ZM14.7994 8.24003C15.2452 8.00385 16.1118 7.59667 17.1111 7.59667C17.5775 7.59667 18.0226 7.68877 18.4343 7.87049C20.1591 8.63213 21.9308 9.03471 23.5578 9.03471C24.2464 9.03471 24.8796 8.9594 25.4443 8.81776C25.5028 9.14104 25.5333 9.46995 25.5333 9.80206C25.5333 11.9135 24.3002 13.8639 22.3917 14.7707C22.1193 14.9001 21.9457 15.1748 21.9457 15.4764V16.0213H18.3592V15.5817C18.3592 15.2726 18.177 14.9926 17.8945 14.8674C15.5465 13.8268 14.2563 11.0203 14.7994 8.24003ZM6.42011 28.6699L10.4262 18.7114C10.8656 17.6192 12.1116 17.0878 13.2043 17.5272C13.2969 17.5645 13.3959 17.5837 13.4957 17.5837H16.5717L17.8428 19.5654L17.4496 22.1537H10.0839C9.86816 22.1537 9.66207 22.2429 9.51441 22.4001C9.36668 22.5574 9.29066 22.7686 9.30418 22.9839L9.83199 31.3899C9.18066 31.6342 8.17668 31.678 7.6041 31.4478C7.078 31.2362 6.66457 30.8296 6.44003 30.3028C6.21543 29.776 6.20839 29.196 6.42011 28.6699ZM1.68316 37.9845V37.9843L2.78261 30.3531H4.81425C4.86183 30.5433 4.92417 30.7314 5.00261 30.9153C5.39082 31.826 6.10769 32.5299 7.02089 32.8973C7.47238 33.0789 8.01746 33.1657 8.57543 33.1657C9.0341 33.1657 9.50136 33.1069 9.93269 32.9942L10.067 35.1331C10.0928 35.5446 10.4343 35.8653 10.8467 35.8653H29.2306C29.643 35.8653 29.9844 35.5447 30.0103 35.1331L30.1411 33.0509C30.5041 33.1267 30.8911 33.1661 31.2733 33.1661C31.8463 33.166 32.4078 33.0787 32.8585 32.8974C33.7718 32.5301 34.4886 31.8262 34.8768 30.9155C34.9552 30.7314 35.0175 30.5434 35.0651 30.3532H36.5643L37.9778 37.9845H1.68316Z" fill="#00B857"/>
<path d="M34.9987 3.17444H34.9978C34.5667 3.17444 34.217 3.52366 34.2165 3.95475L34.215 5.40913L33.5764 5.40663H33.5732C33.1432 5.40663 32.7936 5.75436 32.792 6.18475C32.7904 6.61624 33.1387 6.96741 33.5701 6.96913L34.9922 6.97475H34.9953C35.2018 6.97475 35.3999 6.89303 35.5463 6.74733C35.6935 6.60092 35.7763 6.40194 35.7765 6.19444L35.779 3.95663C35.7795 3.52506 35.4301 3.17491 34.9987 3.17444Z" fill="#00B857"/>
</g>
<defs>
<clipPath id="clip0">
<rect width="40" height="40" fill="white"/>
</clipPath>
</defs>
</svg>
