<svg width="41" height="41" viewBox="0 0 41 41" fill="none" xmlns="http://www.w3.org/2000/svg">
<path d="M32.2626 36.9673H22.853V31.1152C30.7252 29.238 36.2839 22.2083 36.2953 14.1153C36.3167 8.60991 33.7224 3.42142 29.3053 0.135271C29.0083 -0.0874518 28.5871 -0.0272973 28.3643 0.269694C28.1416 0.566686 28.2018 0.987936 28.4988 1.21066C28.9336 1.53664 29.3436 1.88278 29.7381 2.24639L28.4268 3.55836C28.3859 3.6044 28.3518 3.65599 28.3253 3.71161C23.3697 -0.856774 15.8645 -1.25198 10.4564 2.77064C10.3892 2.80467 10.3285 2.85012 10.277 2.90507C4.09039 7.58628 2.87008 16.3964 7.55129 22.583C7.82291 22.942 8.11167 23.2878 8.41656 23.619C8.36094 23.6455 8.30936 23.6796 8.26332 23.7205L6.95134 25.0325C6.58974 24.638 6.24159 24.226 5.91494 23.7931C5.69222 23.4961 5.27097 23.436 4.97398 23.6587C4.67698 23.8814 4.61683 24.3027 4.83955 24.5997C8.1257 29.0172 13.3145 31.6118 18.8203 31.5904V36.9673H9.41062C9.03944 36.9673 8.7385 37.2682 8.7385 37.6394V40.3279C8.7385 40.6991 9.03944 41 9.41062 41H32.2626C32.6338 41 32.9347 40.6991 32.9347 40.3279V37.6394C32.9347 37.2682 32.6338 36.9673 32.2626 36.9673ZM22.0679 3.73446L23.1433 2.116C28.2035 3.93971 31.5804 8.73652 31.5905 14.1153C31.5905 14.3425 31.5683 14.5636 31.5562 14.7874H31.3337L30.179 12.4706C30.1139 12.3402 30.0083 12.2346 29.8779 12.1695L28.5337 11.4974C28.2305 11.3459 27.862 11.4439 27.6741 11.7259L26.3668 13.6872L24.7107 15.3426L22.1002 14.2981L21.5222 11.4268L22.1674 8.20068C22.2193 7.94611 22.1199 7.68441 21.912 7.52856L19.6113 5.80324L20.024 4.5652L21.7211 3.9986C21.8629 3.95155 21.9848 3.85855 22.0679 3.73446ZM6.23016 16.1686C5.49352 11.8685 7.04166 7.49428 10.3193 4.61493V4.61224L10.7683 6.85644C10.8191 7.11092 11.0119 7.3134 11.2636 7.37666L13.5609 7.95065L14.0845 10.045L12.2658 14.8956L9.91941 15.4824C9.80137 15.512 9.69358 15.5731 9.60755 15.6592L7.98103 17.2857L6.42306 16.2473C6.36349 16.2106 6.2983 16.1841 6.23016 16.1686ZM6.66704 18.023L7.69336 18.7072C7.95994 18.885 8.31499 18.8498 8.54157 18.6232L10.4235 16.7413L12.9318 16.1142C13.1462 16.0608 13.3205 15.9055 13.3983 15.6988L15.4146 10.3219C15.4624 10.1941 15.4701 10.0549 15.4368 9.92264L14.7647 7.23417C14.7046 6.99339 14.5168 6.80528 14.2761 6.74487L11.9996 6.17626L11.4989 3.66926C14.4848 1.55167 18.2442 0.837717 21.7984 1.7134L21.8011 1.71071L21.0772 2.79686L19.28 3.39638C19.0792 3.46309 18.9216 3.62053 18.8545 3.82116L18.1824 5.83751C18.0911 6.11199 18.1855 6.41411 18.417 6.5876L20.7694 8.34989L20.1779 11.2924C20.1605 11.3794 20.1605 11.4689 20.1779 11.5559L20.8501 14.9165C20.8943 15.1392 21.048 15.3244 21.2587 15.4091L24.6193 16.7534C24.8691 16.8533 25.1544 16.7945 25.3445 16.6042L27.3609 14.5878C27.3919 14.5564 27.4201 14.5222 27.4449 14.4856L28.4598 12.9626L29.0734 13.2691L30.3168 15.7559C30.4296 15.9854 30.6627 16.131 30.9184 16.1317H31.4151C30.3076 23.0902 23.7687 27.8334 16.8102 26.7258C12.0585 25.9696 8.13654 22.6045 6.66704 18.023ZM7.89701 25.9889L7.8997 25.9856L9.21638 24.6689C9.25729 24.6229 9.2914 24.5713 9.31787 24.5157C15.0665 29.7607 23.9786 29.3525 29.2236 23.6039C34.1322 18.2241 34.1324 9.99019 29.224 4.61023C29.2796 4.58376 29.3312 4.54965 29.3772 4.50874L30.6939 3.19206C33.4454 6.1624 34.9669 10.0664 34.9511 14.1153C34.9407 23.0198 27.7247 30.2358 18.8203 30.2461C14.7713 30.2618 10.8674 28.7402 7.89701 25.9889ZM21.5087 31.5904V36.9673H20.1645V31.5904H21.5087ZM31.5905 39.6558H10.0827V38.3115H31.5905V39.6558Z" fill="#00B857"/>
<path d="M18.1124 22.6404L17.4403 20.6241C17.4208 20.5675 17.3944 20.5135 17.3616 20.4634L16.0174 18.4471C15.897 18.2664 15.6967 18.155 15.4797 18.148C15.262 18.144 15.0553 18.2438 14.9232 18.4169L12.9041 21.1053C12.7513 21.3089 12.7266 21.5813 12.8403 21.809L14.1845 24.4975C14.2172 24.562 14.2599 24.621 14.3109 24.6722L15.6551 26.0165C15.7811 26.1425 15.952 26.2134 16.1303 26.2134C16.1663 26.2135 16.2023 26.2105 16.2378 26.2047C16.4513 26.1702 16.6351 26.0351 16.7319 25.8417L18.0761 23.1533C18.1556 22.9939 18.1687 22.8094 18.1124 22.6404ZM15.9461 24.4068L15.3412 23.7985L14.2316 21.5805L15.4286 19.9842L16.1935 21.1342L16.7487 22.8011L15.9461 24.4068Z" fill="#00B857"/>
<path d="M20.6231 23.0498C20.3627 22.7982 19.9498 22.7982 19.6892 23.0498L19.0171 23.7219C18.7546 23.9844 18.7547 24.41 19.0173 24.6724C19.1433 24.7984 19.3142 24.8692 19.4923 24.8692C19.6706 24.8692 19.8415 24.7983 19.9675 24.6723L20.6396 24.0001C20.8975 23.7331 20.8901 23.3076 20.6231 23.0498Z" fill="#00B857"/>
</svg>
