<svg width="41" height="41" viewBox="0 0 41 41" fill="none" xmlns="http://www.w3.org/2000/svg">
<g clip-path="url(#clip0)">
<path d="M30.1633 33.7602H24.1809V31.9822C26.771 31.7104 29.2646 30.7851 31.4014 29.2758C32.1866 28.7209 32.6839 27.8535 32.7659 26.896C32.8475 25.9397 32.5053 25.0023 31.8265 24.3238L31.326 23.8233C32.9364 21.8326 33.8119 19.3711 33.8116 16.7751C33.8116 13.8626 32.6971 11.2053 30.8725 9.20744L31.9429 7.57803C31.9679 7.54018 31.9904 7.50077 32.0108 7.46042C32.8306 5.83883 32.7515 3.94698 31.7996 2.39922C30.8449 0.846765 29.1852 -0.0800781 27.3603 -0.0800781C25.5351 -0.0800781 23.8753 0.846765 22.9206 2.39922C22.3263 3.36548 22.0723 4.46593 22.1649 5.55105C19.6606 5.64239 17.363 6.55703 15.5356 8.03254L15.0304 7.52767C14.3519 6.8492 13.4148 6.50667 12.4585 6.58832C11.5007 6.67027 10.6333 7.16763 10.0787 7.95277C8.02325 10.8622 7.04949 14.4332 7.33633 18.0085C7.62661 21.6258 9.19815 25.0298 11.7613 27.5929C14.3247 30.156 17.7284 31.7276 21.3457 32.0179C21.4902 32.0294 21.6344 32.0382 21.7786 32.0457V33.7602H15.7965C14.0044 33.7602 12.5464 35.2182 12.5464 37.0106V37.6696C12.5464 39.4617 14.0044 40.92 15.7965 40.92H30.1633C31.9554 40.92 33.4134 39.4617 33.4134 37.6696V37.0106C33.4134 35.2185 31.9554 33.7602 30.1633 33.7602ZM31.011 37.6696C31.011 38.1373 30.6307 38.5177 30.1633 38.5177H15.7965C15.3291 38.5177 14.9488 38.1373 14.9488 37.6696V37.0106C14.9488 36.5429 15.3291 36.1625 15.7965 36.1625H30.1633C30.6307 36.1625 31.011 36.5429 31.011 37.0106V37.6696ZM24.967 3.65764C25.4813 2.82151 26.3759 2.32227 27.3603 2.32227C28.3444 2.32227 29.239 2.82151 29.7536 3.65764C30.254 4.47156 30.3053 5.46253 29.8943 6.32087L27.3603 10.1787L24.8259 6.32087C24.4149 5.46253 24.4665 4.47156 24.967 3.65764ZM23.0257 7.95621L26.3562 13.0259C26.5783 13.364 26.9555 13.5676 27.3603 13.5676C27.7647 13.5676 28.142 13.364 28.3641 13.0259L29.4999 11.297C30.6948 12.8035 31.4096 14.7072 31.4096 16.7751C31.4096 17.0642 31.3955 17.351 31.3683 17.6351H29.7626L28.0541 14.9809C27.8329 14.6374 27.4526 14.43 27.044 14.43H22.1342C20.182 14.43 18.5936 16.0182 18.5936 17.9704V24.6532C15.7217 23.1945 13.7488 20.211 13.7488 16.7751C13.7488 16.4789 13.7639 16.1864 13.7926 15.8977H16.8312C18.4087 15.8977 19.6925 14.614 19.6925 13.0365V8.43012C20.5974 8.11606 21.5687 7.94495 22.5794 7.94495C22.7289 7.94495 22.8778 7.94871 23.0257 7.95621ZM22.1342 16.8324H26.3887L28.0969 19.4865C28.3181 19.83 28.6988 20.0374 29.107 20.0374H30.7893C30.351 21.141 29.6882 22.1542 28.8233 23.0191C27.1554 24.6866 24.9379 25.6053 22.5794 25.6053C22.0388 25.6053 21.5099 25.5562 20.9959 25.4627V17.9704C20.9959 17.3429 21.5067 16.8324 22.1342 16.8324ZM17.2898 13.0362C17.2898 13.2892 17.084 13.4951 16.8309 13.4951H14.381C14.9888 11.9814 16.0036 10.6736 17.2898 9.70855V13.0362ZM13.4601 25.8944C9.00671 21.441 8.40988 14.4785 12.0406 9.33913C12.2396 9.0576 12.5158 8.99473 12.6628 8.98191C12.6844 8.98034 12.7088 8.97909 12.7357 8.97909C12.8911 8.97909 13.1257 9.02038 13.3319 9.22621L13.8367 9.73108C12.2802 11.6592 11.3468 14.11 11.3465 16.7751C11.3465 22.9687 16.3855 28.0077 22.5794 28.0077C25.1756 28.0077 27.6368 27.1321 29.6275 25.5221L30.128 26.0226C30.3695 26.2641 30.3848 26.5453 30.3723 26.6914C30.3598 26.8384 30.2966 27.1149 30.0151 27.3136C27.7647 28.9033 25.1656 29.6828 22.58 29.6825C19.2602 29.6821 15.9632 28.3974 13.4601 25.8944Z" fill="#00B857"/>
</g>
<defs>
<clipPath id="clip0">
<rect width="41" height="41" fill="white"/>
</clipPath>
</defs>
</svg>
