<svg width="22" height="42" viewBox="0 0 22 42" fill="none" xmlns="http://www.w3.org/2000/svg">
<path d="M0.588423 3.5151C0.400469 3.3162 0.253531 3.08223 0.155998 2.82655C0.058466 2.57086 0.012249 2.29847 0.0199871 2.02493C0.0277252 1.75138 0.0892677 1.48204 0.201097 1.23228C0.312929 0.982513 0.472858 0.757223 0.671757 0.569269C0.870653 0.381314 1.10463 0.234376 1.36031 0.136844C1.616 0.0393119 1.88839 -0.00690488 2.16193 0.000833337C2.43548 0.00857156 2.70482 0.0701129 2.95458 0.181944C3.20435 0.293774 3.42964 0.453704 3.61759 0.652602L21.3259 19.4026C21.6916 19.7894 21.8954 20.3015 21.8954 20.8339C21.8954 21.3662 21.6916 21.8783 21.3259 22.2651L3.61759 41.0172C3.43088 41.2204 3.20564 41.3846 2.95496 41.5C2.70428 41.6155 2.43315 41.68 2.15733 41.6898C1.88151 41.6996 1.60649 41.6545 1.34824 41.5571C1.09 41.4597 0.85368 41.312 0.653013 41.1225C0.452345 40.933 0.291327 40.7056 0.179314 40.4533C0.0673008 40.2011 0.00652504 39.9291 0.000516891 39.6531C-0.00549316 39.3772 0.0433826 39.1028 0.144308 38.846C0.245234 38.5891 0.396194 38.3548 0.588423 38.1568L16.9468 20.8339L0.588423 3.5151Z" fill="#303034"/>
</svg>
