<svg width="17" height="17" viewBox="0 0 17 17" fill="none" xmlns="http://www.w3.org/2000/svg">
<path d="M12.2669 0.0545417C13.1297 0.0942083 13.7261 0.221 14.2772 0.434917C14.7997 0.630282 15.2727 0.938394 15.6627 1.33733C16.0616 1.72726 16.3697 2.20031 16.5651 2.72283C16.779 3.27463 16.9058 3.87033 16.9455 4.73308C16.9943 5.80267 17 6.1795 17 8.5C17 10.8205 16.9943 11.1973 16.9455 12.2669C16.9058 13.1297 16.779 13.7261 16.5651 14.2779C16.3696 14.8001 16.0615 15.2729 15.6627 15.6627C15.2728 16.0616 14.7997 16.3697 14.2772 16.5651C13.7254 16.779 13.1297 16.9058 12.2669 16.9455C11.1973 16.9943 10.8212 17 8.5 17C6.17879 17 5.80196 16.9943 4.73308 16.9455C3.87033 16.9058 3.27392 16.779 2.72212 16.5651C2.19985 16.3696 1.72704 16.0615 1.33733 15.6627C0.938394 15.2727 0.630282 14.7997 0.434917 14.2772C0.221 13.7254 0.0942083 13.1297 0.0545417 12.2669C0.00566667 11.1988 0 10.8219 0 8.5C0 6.17879 0.00566667 5.80125 0.0545417 4.73308C0.0942083 3.87033 0.221 3.27392 0.434917 2.72283C0.630282 2.20031 0.938394 1.72726 1.33733 1.33733C1.72706 0.938481 2.19986 0.630375 2.72212 0.434917C3.27462 0.221 3.87033 0.0942083 4.73308 0.0545417C5.80125 0.00566667 6.17808 0 8.5 0C10.8212 0 11.1988 0.00566667 12.2669 0.0545417ZM8.5 1.88912C6.205 1.88912 5.85367 1.89408 4.81879 1.94154C4.16217 1.97129 3.76833 2.05487 3.40637 2.19583C3.09825 2.31625 2.90204 2.44375 2.67254 2.67254C2.44304 2.90204 2.31554 3.09825 2.19583 3.40637C2.05558 3.76762 1.97129 4.16217 1.94154 4.81879C1.89408 5.85367 1.88912 6.205 1.88912 8.5C1.88912 10.795 1.89408 11.1463 1.94154 12.1812C1.97129 12.8378 2.05487 13.2317 2.19583 13.5929C2.31625 13.9017 2.44375 14.098 2.67254 14.3275C2.90204 14.557 3.09825 14.6845 3.40637 14.8042C3.76762 14.9444 4.16217 15.0287 4.81879 15.0585C5.85437 15.1059 6.20571 15.1109 8.5 15.1109C10.795 15.1109 11.1456 15.1059 12.1812 15.0585C12.8378 15.0287 13.2317 14.9451 13.5936 14.8042C13.9017 14.6837 14.098 14.5562 14.3275 14.3275C14.557 14.098 14.6845 13.9017 14.8042 13.5936C14.9444 13.2324 15.0287 12.8378 15.0585 12.1812C15.1059 11.1456 15.1109 10.7943 15.1109 8.5C15.1109 6.20571 15.1059 5.85437 15.0585 4.81879C15.0287 4.16217 14.9451 3.76833 14.8042 3.40708C14.704 3.12877 14.5409 2.87737 14.3275 2.67254C14.1226 2.45913 13.8712 2.29597 13.5929 2.19583C13.2317 2.05558 12.8371 1.97129 12.1805 1.94154C11.1456 1.89408 10.7943 1.88912 8.49929 1.88912H8.5ZM8.5 12.9072C7.33112 12.9072 6.21012 12.4429 5.3836 11.6164C4.55708 10.7899 4.09275 9.66887 4.09275 8.5C4.09275 7.33112 4.55708 6.21012 5.3836 5.3836C6.21012 4.55708 7.33112 4.09275 8.5 4.09275C9.66887 4.09275 10.7899 4.55708 11.6164 5.3836C12.4429 6.21012 12.9072 7.33112 12.9072 8.5C12.9072 9.66887 12.4429 10.7899 11.6164 11.6164C10.7899 12.4429 9.66887 12.9072 8.5 12.9072ZM8.5 11.0188C9.16804 11.0188 9.80871 10.7535 10.2811 10.2811C10.7535 9.80871 11.0188 9.16804 11.0188 8.5C11.0188 7.83196 10.7535 7.19129 10.2811 6.71892C9.80871 6.24654 9.16804 5.98117 8.5 5.98117C7.83196 5.98117 7.19129 6.24654 6.71892 6.71892C6.24654 7.19129 5.98117 7.83196 5.98117 8.5C5.98117 9.16804 6.24654 9.80871 6.71892 10.2811C7.19129 10.7535 7.83196 11.0188 8.5 11.0188ZM12.9072 5.03696C12.6567 5.03696 12.4165 4.93744 12.2393 4.7603C12.0622 4.58316 11.9627 4.34291 11.9627 4.0924C11.9627 3.84188 12.0622 3.60163 12.2393 3.42449C12.4165 3.24735 12.6567 3.14783 12.9072 3.14783C13.1578 3.14783 13.398 3.24735 13.5752 3.42449C13.7523 3.60163 13.8518 3.84188 13.8518 4.0924C13.8518 4.34291 13.7523 4.58316 13.5752 4.7603C13.398 4.93744 13.1578 5.03696 12.9072 5.03696Z" fill="#F3DE8D"/>
</svg>
