<svg width="15" height="16" viewBox="0 0 15 16" fill="none" xmlns="http://www.w3.org/2000/svg">
<path d="M15 12.6364C15 12.8409 14.9645 13.108 14.8935 13.4375C14.8224 13.767 14.7479 14.0265 14.6697 14.2159C14.5206 14.5947 14.0874 14.9962 13.37 15.4205C12.7024 15.8068 12.0419 16 11.3885 16C11.1967 16 11.0085 15.9867 10.8239 15.9602C10.6392 15.9337 10.435 15.8864 10.2113 15.8182C9.98757 15.75 9.82067 15.6951 9.71058 15.6534C9.6005 15.6117 9.40341 15.5341 9.11932 15.4205C8.83523 15.3068 8.66122 15.2386 8.5973 15.2159C7.90128 14.9508 7.27983 14.6364 6.73295 14.2727C5.83097 13.6742 4.89347 12.8561 3.92045 11.8182C2.94744 10.7803 2.1804 9.7803 1.61932 8.81818C1.27841 8.23485 0.983665 7.57197 0.735085 6.82955C0.713778 6.76136 0.649858 6.57576 0.543324 6.27273C0.43679 5.9697 0.363991 5.75947 0.324929 5.64205C0.285866 5.52462 0.234375 5.34659 0.170455 5.10795C0.106534 4.86932 0.0621449 4.65152 0.0372869 4.45455C0.012429 4.25758 0 4.05682 0 3.85227C0 3.1553 0.181108 2.45076 0.543324 1.73864C0.941051 0.973485 1.31747 0.511364 1.67259 0.352273C1.85014 0.268939 2.09339 0.189394 2.40234 0.113636C2.71129 0.0378788 2.96165 0 3.15341 0C3.25284 0 3.32741 0.0113636 3.37713 0.0340909C3.50497 0.0795455 3.69318 0.367424 3.94176 0.897727C4.01989 1.04167 4.12642 1.24621 4.26136 1.51136C4.39631 1.77652 4.5206 2.01705 4.63423 2.23295C4.74787 2.44886 4.85795 2.65152 4.96449 2.84091C4.9858 2.87121 5.04794 2.96591 5.15092 3.125C5.25391 3.28409 5.33026 3.41856 5.37997 3.52841C5.42969 3.63826 5.45455 3.74621 5.45455 3.85227C5.45455 4.00379 5.35334 4.19318 5.15092 4.42045C4.94851 4.64773 4.72834 4.85606 4.49041 5.04545C4.25249 5.23485 4.03232 5.43561 3.8299 5.64773C3.62749 5.85985 3.52628 6.03409 3.52628 6.17045C3.52628 6.23864 3.54403 6.32386 3.57955 6.42614C3.61506 6.52841 3.64524 6.60606 3.6701 6.65909C3.69496 6.71212 3.74467 6.80303 3.81925 6.93182C3.89382 7.06061 3.93466 7.13258 3.94176 7.14773C4.48153 8.18561 5.09943 9.07576 5.79545 9.81818C6.49148 10.5606 7.32599 11.2197 8.29901 11.7955C8.31321 11.803 8.38068 11.8466 8.50142 11.9261C8.62216 12.0057 8.70739 12.0587 8.7571 12.0852C8.80682 12.1117 8.87962 12.1439 8.9755 12.1818C9.07138 12.2197 9.15128 12.2386 9.2152 12.2386C9.34304 12.2386 9.50639 12.1307 9.70526 11.9148C9.90412 11.6989 10.0923 11.464 10.2699 11.2102C10.4474 10.9564 10.6428 10.7216 10.8558 10.5057C11.0689 10.2898 11.2464 10.1818 11.3885 10.1818C11.4879 10.1818 11.5891 10.2083 11.6921 10.2614C11.7951 10.3144 11.9212 10.3958 12.0703 10.5057C12.2195 10.6155 12.3082 10.6818 12.3366 10.7045C12.5142 10.8182 12.7042 10.9356 12.9066 11.0568C13.109 11.178 13.3345 11.3106 13.5831 11.4545C13.8317 11.5985 14.0234 11.7121 14.1584 11.7955C14.6555 12.0606 14.9254 12.2614 14.968 12.3977C14.9893 12.4508 15 12.5303 15 12.6364Z" fill="white"/>
</svg>
