<svg width="16" height="17" viewBox="0 0 16 17" fill="none" xmlns="http://www.w3.org/2000/svg">
<path d="M13.4408 3.45628C12.733 2.73143 11.7946 2.29072 10.7963 2.21432C9.79799 2.13791 8.80603 2.43087 8.00083 3.03993C7.15261 2.394 6.09683 2.1011 5.04612 2.22022C3.9954 2.33935 3.02779 2.86163 2.33815 3.68192C1.64851 4.5022 1.28805 5.55954 1.32937 6.64102C1.37069 7.7225 1.81071 8.74778 2.56083 9.51041L7.5275 14.5953C7.58948 14.6593 7.66321 14.7101 7.74445 14.7447C7.82569 14.7794 7.91283 14.7972 8.00083 14.7972C8.08884 14.7972 8.17598 14.7794 8.25722 14.7447C8.33846 14.7101 8.41219 14.6593 8.47417 14.5953L13.4408 9.51041C13.8293 9.11298 14.1374 8.64108 14.3476 8.12169C14.5579 7.60229 14.6661 7.04557 14.6661 6.48334C14.6661 5.92111 14.5579 5.36439 14.3476 4.845C14.1374 4.3256 13.8293 3.85371 13.4408 3.45628V3.45628ZM12.5008 8.54802L8.00083 13.1483L3.50083 8.54802C3.10428 8.14034 2.83415 7.62185 2.72432 7.05759C2.61449 6.49333 2.66986 5.90843 2.88347 5.37626C3.09708 4.84409 3.45943 4.38835 3.92507 4.06621C4.3907 3.74407 4.93888 3.56988 5.50083 3.56548C6.25158 3.56737 6.9709 3.87422 7.50083 4.41866C7.56281 4.48263 7.63654 4.53341 7.71778 4.56806C7.79902 4.60271 7.88616 4.62055 7.97417 4.62055C8.06218 4.62055 8.14931 4.60271 8.23055 4.56806C8.31179 4.53341 8.38553 4.48263 8.4475 4.41866C8.99305 3.93466 9.69783 3.68093 10.4192 3.70883C11.1406 3.73674 11.8246 4.04418 12.333 4.56895C12.8413 5.09371 13.1359 5.7966 13.1572 6.53534C13.1784 7.27409 12.9248 7.99352 12.4475 8.54802H12.5008Z" fill="#1E2139"/>
</svg>
