<svg width="25" height="25" viewBox="0 0 25 25" fill="none" xmlns="http://www.w3.org/2000/svg">
<path d="M19.9397 5.05555C18.9722 4.08318 17.8198 3.31221 16.5498 2.78761C15.2797 2.26302 13.9174 1.9953 12.5422 2.00006C6.7804 2.00006 2.08442 6.67255 2.08442 12.4055C2.08442 14.243 2.56985 16.028 3.47739 17.603L2 23L7.5402 21.551C9.07035 22.3805 10.7905 22.8215 12.5422 22.8215C18.304 22.8215 23 18.149 23 12.416C23 9.63354 21.9131 7.01905 19.9397 5.05555ZM12.5422 21.0575C10.9804 21.0575 9.45025 20.6375 8.11005 19.85L7.79347 19.661L4.501 20.522L5.37688 17.33L5.16583 17.0045C4.29812 15.6258 3.83738 14.0322 3.83618 12.4055C3.83618 7.63855 7.7407 3.75356 12.5317 3.75356C14.8533 3.75356 17.0377 4.65655 18.6734 6.29455C19.4833 7.09671 20.1251 8.05084 20.5617 9.10164C20.9982 10.1524 21.2208 11.279 21.2166 12.416C21.2377 17.183 17.3332 21.0575 12.5422 21.0575ZM17.3121 14.5895C17.0482 14.4635 15.7608 13.8335 15.5286 13.739C15.2859 13.655 15.1171 13.613 14.9377 13.865C14.7583 14.1275 14.2623 14.7155 14.1146 14.8835C13.9668 15.062 13.8085 15.083 13.5447 14.9465C13.2809 14.8205 12.4367 14.537 11.4447 13.655C10.6638 12.962 10.1467 12.1115 9.98844 11.849C9.8407 11.5865 9.96734 11.45 10.1045 11.3135C10.2206 11.198 10.3683 11.009 10.495 10.862C10.6216 10.715 10.6744 10.5995 10.7588 10.4315C10.8432 10.253 10.801 10.106 10.7377 9.98004C10.6744 9.85404 10.1467 8.57304 9.93568 8.04804C9.72462 7.54405 9.50301 7.60705 9.34472 7.59655H8.83819C8.65879 7.59655 8.38442 7.65955 8.14171 7.92204C7.90955 8.18454 7.23417 8.81454 7.23417 10.0955C7.23417 11.3765 8.17337 12.6155 8.3 12.7835C8.42663 12.962 10.1467 15.587 12.7638 16.7105C13.3864 16.9835 13.8719 17.141 14.2518 17.2565C14.8744 17.456 15.4442 17.4245 15.898 17.3615C16.4045 17.288 17.4492 16.7315 17.6603 16.1225C17.8819 15.5135 17.8819 14.999 17.808 14.8835C17.7342 14.768 17.5759 14.7155 17.3121 14.5895Z" fill="#848B99"/>
</svg>
