<svg width="22" height="42" viewBox="0 0 22 42" fill="none" xmlns="http://www.w3.org/2000/svg">
<path d="M21.307 3.5151C21.4949 3.3162 21.6419 3.08223 21.7394 2.82655C21.8369 2.57086 21.8831 2.29847 21.8754 2.02493C21.8677 1.75138 21.8061 1.48204 21.6943 1.23228C21.5825 0.982513 21.4225 0.757223 21.2236 0.569269C21.0247 0.381314 20.7908 0.234376 20.5351 0.136844C20.2794 0.0393119 20.007 -0.00690488 19.7335 0.000833337C19.4599 0.00857156 19.1906 0.0701129 18.9408 0.181944C18.691 0.293774 18.4657 0.453704 18.2778 0.652602L0.569464 19.4026C0.203763 19.7894 0 20.3015 0 20.8339C0 21.3662 0.203763 21.8783 0.569464 22.2651L18.2778 41.0172C18.4645 41.2204 18.6897 41.3846 18.9404 41.5C19.1911 41.6155 19.4622 41.68 19.7381 41.6898C20.0139 41.6996 20.2889 41.6545 20.5471 41.5571C20.8054 41.4597 21.0417 41.312 21.2424 41.1225C21.443 40.933 21.6041 40.7056 21.7161 40.4533C21.8281 40.2011 21.8889 39.9291 21.8949 39.6531C21.9009 39.3772 21.852 39.1028 21.7511 38.846C21.6502 38.5891 21.4992 38.3548 21.307 38.1568L4.94863 20.8339L21.307 3.5151Z" fill="#303034"/>
</svg>
