<svg height="496pt" viewBox="-96 0 496 496" width="496pt" xmlns="http://www.w3.org/2000/svg"><path d="m184 272h-24v-144c0-2.433594-1.105469-4.726562-3-6.246094l-33.753906-27 24.914062-31.136718c1.273438.152343 2.519532.382812 3.839844.382812 17.648438 0 32-14.351562 32-32s-14.351562-32-32-32-32 14.351562-32 32c0 10.359375 5.023438 19.488281 12.6875 25.34375l-26.925781 33.664062c-2.761719 3.449219-2.203125 8.488282 1.246093 11.238282l36.992188 29.59375v140.160156h-24c-4.414062 0-8 3.574219-8 8v176c0 22.054688 17.945312 40 40 40s40-17.945312 40-40v-176c0-4.425781-3.585938-8-8-8zm-32-256c8.824219 0 16 7.175781 16 16s-7.175781 16-16 16-16-7.175781-16-16 7.175781-16 16-16zm24 272v16h-48v-16zm-24 192c-13.230469 0-24-10.769531-24-24v-136h48v136c0 13.230469-10.769531 24-24 24zm0 0"/><path d="m72 272h-24v-232c0-4.414062-3.585938-8-8-8h-24v-16h48v-16h-56c-4.414062 0-8 3.585938-8 8v32c0 4.414062 3.585938 8 8 8h24v224h-24c-4.414062 0-8 3.574219-8 8v176c0 22.054688 17.945312 40 40 40s40-17.945312 40-40v-176c0-4.425781-3.585938-8-8-8zm-8 16v16h-48v-16zm-24 192c-13.230469 0-24-10.769531-24-24v-136h48v136c0 13.230469-10.769531 24-24 24zm0 0"/><path d="m296 272h-24v-192.808594c18.230469-3.71875 32-19.871094 32-39.191406 0-22.054688-17.945312-40-40-40s-40 17.945312-40 40c0 19.3125 13.769531 35.472656 32 39.191406v192.808594h-24c-4.414062 0-8 3.574219-8 8v176c0 22.054688 17.945312 40 40 40s40-17.945312 40-40v-176c0-4.425781-3.585938-8-8-8zm-56-232c0-13.230469 10.769531-24 24-24s24 10.769531 24 24-10.769531 24-24 24-24-10.769531-24-24zm48 248v16h-48v-16zm-24 192c-13.230469 0-24-10.769531-24-24v-136h48v136c0 13.230469-10.769531 24-24 24zm0 0"/></svg>