<svg xmlns="http://www.w3.org/2000/svg" viewBox="0 0 252.5 372.8"><defs><style>.cls-1{fill:#010101;}</style></defs><title>Пьедестал</title><g id="Слой_2" data-name="Слой 2"><g id="Слой_1-2" data-name="Слой 1"><path class="cls-1" d="M216.49,300c19.84,1.91,22.48,4.5,23.93,23.56.14,1.83,1.14,2.22,2.32,2.85,6.53,3.52,9.72,9,9.75,16.41q0,11.62,0,23.25c0,4.41-2.27,6.7-6.68,6.7q-119.6,0-239.2,0C2.16,372.79,0,370.34,0,366c0-7.25.12-14.5,0-21.75-.17-8.12,3-14.26,10.28-18a2.85,2.85,0,0,0,1.8-2.8c1.09-18.46,5.33-22.62,24-23.15q0-15.81,0-31.66,0-68.24.07-136.47c0-5-3.75-7.25-6.67-9.18-12.55-8.26-12.54-20.54-11.31-33.12.69-7.1,6.91-5.24,11.44-5.57C32.79,65.57,35.65,61.78,48.46,60c0-7.48-.82-15.17.17-22.63,1.94-14.64,14.7-25,29.44-25,2.12,0,4.25,0,6.37,0C91,12.28,98,13.91,101.61,5.55c1.17-2.69,4.85-4.29,8.19-4.62,10.94-1.08,22-1.42,32.84.08,9,1.24,14.67,10.07,13.88,19.34a17.9,17.9,0,0,1-17.29,16.44c-8.62.15-17.25.18-25.87-.06a16.73,16.73,0,0,1-14.87-9.15c-1.2-2.21-2.4-2.86-4.82-2.84-31.62.32-33.43,2.2-33.14,35.25,14,1.83,19.1,10.68,17.89,24.33h75.94q36.55,0,73.11,0c4.83,0,6.46,2.48,7.14,7.12,2.07,14.22-2,25.63-14,33.87-3.54,2.43-4.19,5.77-4.18,9.93Q216.6,217.49,216.49,300ZM203.91,133H48.7V300.1H203.91ZM12.49,360.18H240c0-5.88.18-11.61-.06-17.32-.17-4-2.64-6.07-6.64-6.07q-107.05,0-214.1,0c-4,0-6.49,2.06-6.64,6.06C12.33,348.56,12.49,354.29,12.49,360.18ZM30.75,96.93c-1.05,11,10.23,23.4,21,23.39q74.77,0,149.54,0c10.55,0,21.91-12.86,20.4-23.42Zm-6,227.16H227.79c1.59-8.69-2.06-11.48-10.45-11.44q-91.42.36-182.84,0C25.83,312.62,23.42,316.32,24.72,324.09ZM126,24.34c3.87,0,7.75.08,11.62,0,3.61-.1,6.13-2,6.22-5.63s-2.36-5.78-6-5.85q-11.62-.23-23.24,0c-3.6.06-6.07,2.19-6,5.79s2.55,5.57,6.15,5.69S122.29,24.34,126,24.34Zm-60,59.91c-.23-4.07,1.24-8.94-3.3-10.47-5.71-1.92-12.13-2.4-17.69.42-3.9,2-2.59,6.39-2.39,10Z"/><path class="cls-1" d="M126.33,150.4c33.8,0,60.11,26.78,60.1,61.17,0,32.93-27.23,59.17-61.37,59.16-32.83,0-59-27.29-59-61.54C66.11,176.94,93.31,150.4,126.33,150.4Zm47.72,60.28c-.07-26.3-21.71-48-47.74-47.95A48.21,48.21,0,0,0,78.44,210.6c0,26.1,21.66,47.71,47.93,47.76C152.23,258.41,174.11,236.53,174.05,210.68Z"/><path class="cls-1" d="M107.75,228.86c-19.42-.08-17.81,1.25-17.7-18.08,0-.12,0-.25,0-.37,0-19.43-1.66-18.07,17.63-18.12A4.59,4.59,0,0,0,108,191c-.55-19.22.62-16.46,17.39-16.64h.75c19.76,0,18.22-1.93,18.44,17.51.19.15.38.41.58.42,17.13.94,17.13.94,17.31,18.28.18,17.15.18,17.15-17.56,18.45-.13.2-.36.41-.35.61.43,19.79-.33,17.18-18,17.15C109.6,246.73,109.6,246.61,107.75,228.86Zm23.82,5.36c1.77-5.6-2.09-11.86,2.55-16.16,4.4-4.08,10.61-.47,15.66-2.06V205.13c-5.48-1.55-11.72,2.18-16-2.45-4.09-4.39-.41-10.62-2.13-15.68H120.79c-1.54,15.84-1.54,15.84-18,18.18V216c5.43,1.64,11.7-2.14,16,2.46,4.1,4.4.49,10.61,2.12,15.8Z"/></g></g></svg>