<svg xmlns="http://www.w3.org/2000/svg" viewBox="0 0 373.33 373.37"><defs><style>.cls-1{fill:#030303;}</style></defs><title>Зубы</title><g id="Слой_2" data-name="Слой 2"><g id="Слой_1-2" data-name="Слой 1"><path class="cls-1" d="M107.39,239.89c2.24-1.69.84-3.59.63-5.27-2.5-19.87,2.74-37.23,17.72-50.76,13-11.72,28.54-14.41,45.39-10.53l2.78.6c-4.52-19.65-1.88-37.51,13.28-51.59C202,108.6,219.75,105,239.78,108.94c-4.14-14.86-3-28.79,7.62-40.6,10.26-11.45,23.53-15.69,38.7-14.58-5.16-21.42-1.4-34.28,12.72-43.46C310.71,2.57,330.58-.17,348,15.59c2-3.75,3.9-7.46,5.88-11.12C356,.41,359.42-1,362.63.72s3.85,5.24,1.68,9.46c-2.44,4.74-4.94,9.44-7.76,14.83,1.8,1.66,3.79,3.33,5.6,5.18,14.55,14.85,15,36.54.94,51.83-3.21,3.5-6.67,6.76-10,10.11a24,24,0,0,1-12.32,6.27c6.88,19.27,3.54,36.09-11.24,50.37-2,1.91-4,3.79-5.82,5.85-5.76,6.48-12.51,11-21.81,11.17a58.93,58.93,0,0,1,3.5,24.87,52.46,52.46,0,0,1-14.42,32.43c-4.38,4.63-9.13,8.91-13.45,13.59-7.88,8.53-17.35,12.68-29.46,11.26,0,2.8.2,5.5,0,8.16a30.25,30.25,0,0,1-9.12,19.14c-4.07,4.06-8.31,8-12.17,12.23-15.14,16.68-37.62,22.85-60.13,14.93-1.21,1.36-.54,3.1-.91,4.62-1,4.16-2.5,8.17-5.41,11.33-5.33,5.79-10.62,11.71-16.82,16.55-13.66,10.69-28.79,11.86-44.79,6-3.64,12.25-13,20-22.92,26.74-13.34,9-31.28,7-43.27-3.69-2.6-2.32-5.06-4.79-7.71-7.3-5.26,2.73-10.39,5.49-15.61,8.06-4.27,2.1-8.26.34-9-3.83a5.71,5.71,0,0,1,3.29-6.49c4-2.14,8.06-4.25,12.11-6.39C2,328.2.61,312.6,11,297.67c9.24-13.29,22-16.79,42.57-11.65C51.25,251.15,80.79,230.61,107.39,239.89ZM179.11,233l22.82-21.65c-6-6.15-11.41-12.57-17.68-18.07-9-7.86-19.76-10.82-31.63-9.13-22.57,3.21-35.81,26.25-33.13,47.7,1.81,14.5,10.48,24.64,21.21,33.73,10-8,19.94-16.23,29.68-25-1.6-1.55-2.87-2.75-4.11-4s-2.51-2.44-3.71-3.71c-2.79-2.95-3-6.5-.45-9s6.06-2.17,8.94.69C173.69,227.22,176.22,230,179.11,233Zm63.54-64.67L266,140.43c-2.76-2.69-5.45-5.29-8.12-7.9-12.44-12.15-27.19-16.07-43.92-11.7-27.29,7.13-38.75,36.57-23.28,59.95,5.45,8.23,13.53,14.17,20.24,21.46,8.36-8.54,16.42-17,24.16-25.73l-3.93-3.88c-1.33-1.32-2.68-2.62-4-4-3.12-3.25-3.33-6.62-.62-9.2,2.47-2.35,6-2.13,8.93.83C237.95,162.77,240.15,165.49,242.65,168.32ZM149.18,274.23c2.71,2.75,5.22,5.36,7.79,7.89a41.31,41.31,0,0,0,56,2.11,230.58,230.58,0,0,0,18.17-17.84c7.42-8,7-19.5-.68-27.28-3.68-3.74-7.45-7.39-11.14-11.12-2.86-2.89-5.64-5.84-8.43-8.74l-23.41,22.13c2.44,2.3,5,4.53,7.32,6.93,2.83,2.89,2.92,6.57.39,9s-5.95,2.16-8.69-.49-5.07-5.16-7.54-7.69Zm102.32-98c2.73,2.68,5.27,5.08,7.69,7.59,2.84,2.94,3,6.49.55,9s-6.06,2.27-9-.52c-2.41-2.32-4.69-4.77-7.13-7.25l-24.31,25.81,19.78,19.53c7.79,7.7,19.2,8.18,27.22.71,6.12-5.7,11.86-11.8,17.63-17.85a30.05,30.05,0,0,0,4.34-6.05c10.4-18.58,7.57-41.2-14.22-57.88Zm58.11-95.9c-2.32-2.34-4.18-4.37-6.18-6.24C290,61.6,267.86,62.85,255.88,76.75c-9.35,10.86-8.43,27.75,2.27,39.06,4.87,5.15,10,10.11,15.12,15.32l17.14-22.92c-2.33-1.63-4.3-2.92-6.18-4.34-3-2.26-3.73-5.79-1.83-8.48s5.33-3.26,8.62-1.18c2.07,1.31,4.06,2.74,6.28,4.25ZM130.22,274c-5.76-5.94-10.89-12-16.76-17.14C101.28,246.1,84,247.27,73.63,259c-13.46,15.25-10.46,37.67,6.9,50.51L101.2,295.4l-2.49-3.61c-.77-1.13-1.58-2.24-2.31-3.4-2.12-3.37-1.76-6.62.92-8.61,2.85-2.12,6.28-1.43,8.76,1.85,1.64,2.17,3.15,4.43,4.84,6.82ZM88.39,318.52c2.14,2,4.1,3.68,6,5.49a31.08,31.08,0,0,0,41.83,1.37,181.14,181.14,0,0,0,13.86-13.68c4.64-5,5.11-12.33.77-17.43-3.66-4.3-8.11-7.92-12.2-11.83l-20.88,15.72c2.16,4,7.05,7.87,1.73,12.65-2.82,2.53-5.84.94-11.65-5.58ZM281.74,139.6c3.34,3.25,6.66,6.44,9.92,9.69,6.28,6.27,14.15,6.46,20.57.32q5.69-5.44,11.13-11.14A30.84,30.84,0,0,0,332,121c1.84-13.36-4-23.38-14-31.84l-10.8,15.86c7.08,5.85,8.36,8.36,6.16,11.67-2.37,3.57-4.88,3.27-13.26-1.59Zm60.1-112.72c-5-6.12-11-10-18.68-10.85-10.17-1.09-18.89,2.12-24.64,10.79C293.1,35,293.7,43.75,299,51.76c4.61,7,11.5,11.89,17.3,18.08,2.12-3.35,4-6.26,5.83-9.22s3.5-5.85,5.21-8.74c-5.26-4.12-6.45-7-4.29-10.23a5.78,5.78,0,0,1,3.25-2.33c2.85-.88,4.91.74,7.15,2.34Zm-314.91,315,17.53-10c-1-1.44-1.82-2.53-2.53-3.7-1.83-3-1.27-6.49,1.3-8.33,2.74-2,6.22-1.27,8.57,1.63,1.07,1.32,1.61,3.09,3.44,4l14.94-9.34c-5.42-5.31-10.25-10.57-15.61-15.2-13.23-11.4-31.79-6.13-37.42,10.4C13.35,322.51,16.77,333.37,26.94,341.86Zm8.92,8.65c8.75,12,24.66,14.58,35.9,5.53a110.84,110.84,0,0,0,12.48-12.38,9.41,9.41,0,0,0,.69-12.1,30.59,30.59,0,0,0-6.64-6.51L61.66,335.49c3.39,5.3,3.52,8.13.64,10.54s-5.22,1.55-11.35-4.19ZM324.74,78.87c1.79,1.58,3.42,2.94,5,4.38,4.6,4.27,10.15,4.51,14.74.29a138.71,138.71,0,0,0,10.81-10.91c9.78-11.25,7.59-28.08-4.73-36.77l-7.14,12.45c6.43,5.57,7.59,8,5.4,11.16a5.65,5.65,0,0,1-3.32,2.23c-3.36.95-5.51-1.58-8.17-3Z"/></g></g></svg>