<svg height="479pt" viewBox="-31 0 479 479.98016" width="479pt" xmlns="http://www.w3.org/2000/svg"><path d="m384.488281 440.300781v-272.640625c-.023437-21.902344-17.773437-39.652344-39.679687-39.679687h-272.636719c-21.90625.027343-39.65625 17.777343-39.683594 39.679687v272.640625c.027344 21.902344 17.777344 39.652344 39.683594 39.679688h272.636719c21.90625-.027344 39.65625-17.777344 39.679687-39.679688zm-39.679687 23.679688h-96.320313v-224h120v200.320312c-.015625 13.070313-10.605469 23.660157-23.679687 23.679688zm-112.320313-224v224h-48v-224zm-48-16v-80h48v80zm184-56.320313v56.320313h-120v-80h96.320313c13.074218.015625 23.664062 10.609375 23.679687 23.679687zm-296.316406-23.679687h96.316406v80h-120v-56.320313c.019531-13.070312 10.609375-23.664062 23.683594-23.679687zm-23.683594 296.320312v-200.320312h120v224h-96.316406c-13.074219-.019531-23.664063-10.609375-23.683594-23.679688zm0 0"/><path d="m72.488281 111.980469h272c30.914063.035156 55.964844 25.085937 56 56h16c-.046875-39.746094-32.253906-71.953125-72-72h-48.878906c15.550781-15.175781 20.90625-37.980469 13.738281-58.492188-7.167968-20.511719-25.566406-35.015625-47.179687-37.203125-21.617188-2.1875-42.546875 8.339844-53.679688 27-11.128906-18.660156-32.058593-29.1875-53.675781-27s-40.011719 16.691406-47.179688 37.203125c-7.167968 20.511719-1.8125 43.316407 13.738282 58.492188h-48.882813c-39.742187.046875-71.949219 32.253906-72 72h16c.035157-30.914063 25.089844-55.964844 56-56zm184-96c22.09375 0 40 17.910156 40 40 0 22.089843-17.90625 40-40 40h-40v-40c.027344-22.082031 17.921875-39.972657 40-40zm-136 40c0-22.089844 17.910157-40 40-40 22.09375 0 40 17.910156 40 40v40h-40c-22.078125-.027344-39.972656-17.917969-40-40zm0 0"/></svg>