<svg height="512pt" viewBox="-40 0 512 512" width="512pt" xmlns="http://www.w3.org/2000/svg"><path d="m80.003906 296c-6.410156 0-12.441406-2.503906-16.96875-7.03125-9.359375-9.359375-9.359375-24.578125 0-33.9375l8-8c9.0625-9.0625 24.871094-9.0625 33.933594 0 9.359375 9.359375 9.359375 24.578125 0 33.9375l-8 8c-4.527344 4.535156-10.558594 7.03125-16.964844 7.03125zm8-40c-2.136718 0-4.144531.832031-5.65625 2.34375l-8 8c-3.121094 3.121094-3.121094 8.191406 0 11.3125 3.03125 3.015625 8.277344 3.015625 11.308594 0l8-8c3.121094-3.121094 3.121094-8.191406 0-11.3125-1.511719-1.511719-3.519531-2.34375-5.652344-2.34375zm0 0"/><path d="m40.003906 319.976562c-2.050781 0-4.097656-.785156-5.65625-2.34375-3.128906-3.128906-3.128906-8.191406 0-11.3125l28.6875-28.664062c3.125-3.128906 8.183594-3.128906 11.3125 0 3.125 3.128906 3.125 8.191406 0 11.3125l-28.691406 28.664062c-1.558594 1.558594-3.605469 2.34375-5.652344 2.34375zm0 0"/><path d="m40.003906 408c-4.425781 0-8-3.574219-8-8v-88.023438c0-4.425781 3.574219-8 8-8 4.421875 0 8 3.574219 8 8v88.023438c0 4.425781-3.578125 8-8 8zm0 0"/><path d="m352.003906 296c-6.410156 0-12.441406-2.503906-16.96875-7.03125l-8-8c-9.359375-9.359375-9.359375-24.578125 0-33.9375 9.0625-9.0625 24.871094-9.0625 33.933594 0l8 8c9.359375 9.359375 9.359375 24.578125 0 33.9375-4.527344 4.535156-10.558594 7.03125-16.964844 7.03125zm-8-40c-2.136718 0-4.144531.832031-5.65625 2.34375-3.121094 3.121094-3.121094 8.191406 0 11.3125l8 8c3.03125 3.015625 8.277344 3.015625 11.308594 0 3.121094-3.121094 3.121094-8.191406 0-11.3125l-8-8c-1.511719-1.511719-3.519531-2.34375-5.652344-2.34375zm0 0"/><path d="m392.003906 319.976562c-2.050781 0-4.097656-.785156-5.65625-2.34375l-28.691406-28.664062c-3.125-3.121094-3.125-8.183594 0-11.3125 3.128906-3.128906 8.1875-3.128906 11.3125 0l28.6875 28.664062c3.128906 3.121094 3.128906 8.183594 0 11.3125-1.558594 1.558594-3.605469 2.34375-5.652344 2.34375zm0 0"/><path d="m392.003906 408c-4.425781 0-8-3.574219-8-8v-88.023438c0-4.425781 3.574219-8 8-8 4.421875 0 8 3.574219 8 8v88.023438c0 4.425781-3.578125 8-8 8zm0 0"/><path d="m376.003906 512c-4.425781 0-8-3.574219-8-8v-64c0-4.425781 3.574219-8 8-8 4.421875 0 8 3.574219 8 8v64c0 4.425781-3.578125 8-8 8zm0 0"/><path d="m56.003906 512c-4.425781 0-8-3.574219-8-8v-64c0-4.425781 3.574219-8 8-8 4.421875 0 8 3.574219 8 8v64c0 4.425781-3.578125 8-8 8zm0 0"/><path d="m392.003906 480h-16c-4.425781 0-8-3.574219-8-8s3.574219-8 8-8h16c4.421875 0 8 3.574219 8 8s-3.578125 8-8 8zm0 0"/><path d="m56.003906 480h-16c-4.425781 0-8-3.574219-8-8s3.574219-8 8-8h16c4.421875 0 8 3.574219 8 8s-3.578125 8-8 8zm0 0"/><path d="m392.003906 480c-2.050781 0-4.097656-.785156-5.65625-2.34375-3.128906-3.128906-3.128906-8.183594 0-11.3125l32-32c3.125-3.128906 8.183594-3.128906 11.308594 0 3.128906 3.128906 3.128906 8.183594 0 11.3125l-32 32c-1.558594 1.558594-3.605469 2.34375-5.652344 2.34375zm0 0"/><path d="m40.003906 480c-2.050781 0-4.097656-.785156-5.65625-2.34375l-32-32c-3.128906-3.128906-3.128906-8.183594 0-11.3125 3.125-3.128906 8.183594-3.128906 11.308594 0l32 32c3.128906 3.128906 3.128906 8.183594 0 11.3125-1.558594 1.558594-3.605469 2.34375-5.652344 2.34375zm0 0"/><path d="m424.003906 448h-416c-4.425781 0-7.99999975-3.574219-7.99999975-8v-40c0-4.425781 3.57421875-8 7.99999975-8h416c4.421875 0 8 3.574219 8 8v40c0 4.425781-3.578125 8-8 8zm-408-16h400v-24h-400zm0 0"/><path d="m352.003906 376c-4.425781 0-8-3.574219-8-8 0-26.472656-21.53125-48-48-48-4.425781 0-8-3.574219-8-8s3.574219-8 8-8c35.285156 0 64 28.710938 64 64 0 4.425781-3.578125 8-8 8zm0 0"/><path d="m296.003906 320.007812-32.011718-.015624c-4.414063 0-7.988282-3.585938-7.988282-8 0-4.425782 3.582032-8 8-8h.007813l32 .015624c4.414062 0 7.992187 3.585938 7.992187 8 0 4.425782-3.585937 8-8 8zm0 0"/><path d="m352.003906 408c-4.425781 0-8-3.574219-8-8v-32c0-4.425781 3.574219-8 8-8 4.421875 0 8 3.574219 8 8v32c0 4.425781-3.578125 8-8 8zm0 0"/><path d="m80.011719 375.992188c-4.417969 0-8-3.578126-8-8-.007813-17.113282 6.644531-33.175782 18.726562-45.265626 12.085938-12.078124 28.167969-18.734374 45.273438-18.734374 4.421875 0 8 3.574218 8 8 0 4.421874-3.578125 8-8 8-12.832031 0-24.898438 4.992187-33.953125 14.046874-9.066406 9.066407-14.046875 21.121094-14.046875 33.953126 0 4.414062-3.578125 8-8 8zm0 0"/><path d="m136.011719 320.007812c-4.417969 0-8-3.574218-8-8 0-4.414062 3.574219-8 7.992187-8l32-.015624h.007813c4.414062 0 8 3.574218 8 8 0 4.414062-3.578125 8-7.992188 8zm0 0"/><path d="m80.003906 407.992188c-4.425781 0-8-3.585938-8-8l.007813-32c0-4.425782 3.582031-8 8-8 4.421875 0 8 3.582031 8 8l-.007813 32c0 4.421874-3.585937 8-8 8zm0 0"/><path d="m168.011719 319.992188c-4.417969 0-8-3.578126-8-8l-.007813-43.710938c0-4.417969 3.574219-8 8-8 4.414063 0 8 3.574219 8 8l.007813 43.710938c0 4.414062-3.578125 8-8 8zm0 0"/><path d="m264.003906 319.976562c-4.425781 0-8-3.578124-8-8v-43.695312c0-4.425781 3.574219-8 8-8 4.421875 0 8 3.574219 8 8v43.695312c0 4.421876-3.578125 8-8 8zm0 0"/><path d="m216.003906 288c-61.761718 0-112-50.238281-112-112 0-4.425781 3.574219-8 8-8 4.421875 0 8 3.574219 8 8 0 52.9375 43.0625 96 96 96 52.933594 0 96-43.0625 96-96 0-4.425781 3.574219-8 8-8 4.421875 0 8 3.574219 8 8 0 61.761719-50.242187 112-112 112zm0 0"/><path d="m112.003906 184c-4.425781 0-8-3.574219-8-8v-72c0-4.425781 3.574219-8 8-8 4.421875 0 8 3.574219 8 8v72c0 4.425781-3.578125 8-8 8zm0 0"/><path d="m320.003906 184c-4.425781 0-8-3.574219-8-8v-88c0-4.425781 3.574219-8 8-8 4.421875 0 8 3.574219 8 8v88c0 4.425781-3.578125 8-8 8zm0 0"/><path d="m320.003906 96c-4.425781 0-8-3.574219-8-8 0-22.054688-17.945312-40-40-40-4.425781 0-8-3.574219-8-8s3.574219-8 8-8c30.871094 0 56 25.128906 56 56 0 4.425781-3.578125 8-8 8zm0 0"/><path d="m272.003906 48c-4.425781 0-8-3.574219-8-8v-32c0-4.425781 3.574219-8 8-8 4.421875 0 8 3.574219 8 8v32c0 4.425781-3.578125 8-8 8zm0 0"/><path d="m272.003906 16h-64c-4.425781 0-8-3.574219-8-8s3.574219-8 8-8h64c4.421875 0 8 3.574219 8 8s-3.578125 8-8 8zm0 0"/><path d="m111.992188 112c-4.421876 0-8-3.574219-8-8 0-57.34375 46.65625-104 104.011718-104 4.421875 0 8 3.574219 8 8s-3.578125 8-8 8c-48.53125 0-88.011718 39.480469-88.011718 88 0 4.425781-3.574219 8-8 8zm0 0"/><path d="m320.003906 152c-2.050781 0-4.097656-.785156-5.65625-2.34375l-24-24c-3.128906-3.128906-3.128906-8.183594 0-11.3125 3.125-3.128906 8.183594-3.128906 11.308594 0l24 24c3.128906 3.128906 3.128906 8.183594 0 11.3125-1.558594 1.558594-3.605469 2.34375-5.652344 2.34375zm0 0"/><path d="m216.003906 144c-44.59375 0-81.648437-15.992188-83.203125-16.671875-4.046875-1.769531-5.886719-6.488281-4.125-10.527344 1.765625-4.039062 6.453125-5.890625 10.527344-4.128906.351563.152344 35.671875 15.328125 76.800781 15.328125 41.277344 0 76.445313-15.175781 76.796875-15.328125 4.042969-1.785156 8.769531.082031 10.527344 4.128906 1.777344 4.046875-.070313 8.757813-4.125 10.527344-1.554687.679687-38.609375 16.671875-83.199219 16.671875zm0 0"/><path d="m111.992188 152c-2.046876 0-4.09375-.785156-5.652344-2.34375-3.128906-3.128906-3.128906-8.183594 0-11.3125l24.007812-24c3.125-3.128906 8.183594-3.128906 11.308594 0 3.128906 3.128906 3.128906 8.183594 0 11.3125l-24.007812 24c-1.558594 1.558594-3.605469 2.34375-5.65625 2.34375zm0 0"/><path d="m191.992188 336c-1.519532 0-3.070313-.441406-4.429688-1.34375l-23.992188-16.007812c-3.679687-2.457032-4.671874-7.425782-2.214843-11.097657 2.453125-3.671875 7.421875-4.664062 11.09375-2.214843l23.992187 16.007812c3.679688 2.457031 4.671875 7.425781 2.214844 11.097656-1.542969 2.3125-4.078125 3.558594-6.664062 3.558594zm0 0"/><path d="m192.003906 336c-3.355468 0-6.472656-2.121094-7.585937-5.464844-1.398438-4.191406.855469-8.726562 5.046875-10.128906l24-8.023438c4.234375-1.40625 8.730468.863282 10.128906 5.050782 1.398438 4.191406-.855469 8.726562-5.046875 10.125l-24 8.027344c-.847656.277343-1.710937.414062-2.542969.414062zm0 0"/><path d="m240.011719 336c-2.585938 0-5.128907-1.246094-6.664063-3.558594-2.457031-3.671875-1.464844-8.640625 2.214844-11.097656l24-16.007812c3.664062-2.449219 8.648438-1.457032 11.09375 2.214843 2.457031 3.671875 1.464844 8.640625-2.214844 11.097657l-24 16.007812c-1.359375.902344-2.910156 1.34375-4.429687 1.34375zm0 0"/><path d="m240.003906 336c-.84375 0-1.699218-.136719-2.539062-.414062l-24-8.027344c-4.183594-1.398438-6.445313-5.925782-5.046875-10.125 1.398437-4.175782 5.886719-6.457032 10.128906-5.050782l24 8.023438c4.183594 1.402344 6.445313 5.929688 5.046875 10.128906-1.121094 3.34375-4.238281 5.464844-7.589844 5.464844zm0 0"/></svg>