<?xml version="1.0" encoding="utf-8"?>
<!-- Generator: Adobe Illustrator 21.0.2, SVG Export Plug-In . SVG Version: 6.00 Build 0)  -->
<svg version="1.1" id="Слой_1" xmlns="http://www.w3.org/2000/svg" xmlns:xlink="http://www.w3.org/1999/xlink" x="0px" y="0px"
	 viewBox="0 0 180.1 73.6" style="enable-background:new 0 0 180.1 73.6;" xml:space="preserve">
<style type="text/css">
	.st0{fill:#006A9A;}
	.st1{fill:#3192D0;}
	.st2{fill:#63C3D1;}
</style>
<title>logo</title>
<g id="Слой_2">
	<g id="Слой_1-2">
		<path class="st0" d="M81.4,73.4l-1-2.6h-5.9l-1,2.6h-1.7l4.7-11.7h1.8l4.7,11.7H81.4z M77.4,63.2l-2.5,6.3h5L77.4,63.2z"/>
		<path class="st0" d="M91.6,73.6c-0.8,0-1.6-0.1-2.4-0.4c-0.7-0.3-1.4-0.7-1.9-1.2c-0.6-0.5-1-1.2-1.3-1.9c-0.6-1.6-0.6-3.4,0-4.9
			c0.6-1.4,1.7-2.6,3.2-3.2c0.8-0.3,1.6-0.4,2.4-0.4c0.5,0,1,0.1,1.4,0.2c0.4,0.1,0.8,0.3,1.2,0.5c0.4,0.2,0.7,0.5,1,0.7
			c0.3,0.3,0.6,0.6,0.8,0.9l-1.2,0.7c-0.4-0.5-0.8-0.9-1.4-1.2c-0.6-0.3-1.2-0.5-1.9-0.5c-0.6,0-1.2,0.1-1.8,0.3
			c-0.5,0.2-1,0.6-1.4,1c-0.4,0.4-0.7,0.9-0.9,1.5c-0.5,1.2-0.5,2.6,0,3.8c0.4,1.1,1.3,2,2.4,2.5c0.6,0.2,1.2,0.4,1.8,0.3
			c0.6,0,1.3-0.2,1.9-0.5c0.5-0.3,1-0.8,1.4-1.3l1.3,0.7c-0.5,0.7-1.1,1.3-1.8,1.7C93.4,73.4,92.5,73.6,91.6,73.6z"/>
		<path class="st0" d="M107.8,73.4l-1-2.6h-5.8l-1,2.6h-1.7l4.7-11.7h1.8l4.7,11.7H107.8z M103.8,63.2l-2.5,6.3h5L103.8,63.2z"/>
		<path class="st0" d="M112.4,73.4V61.6h4c0.8,0,1.7,0.1,2.5,0.5c1.4,0.6,2.5,1.7,3.1,3.1c0.6,1.5,0.6,3.2,0,4.7
			c-0.3,0.7-0.7,1.3-1.2,1.9c-0.5,0.5-1.2,1-1.9,1.2c-0.8,0.3-1.6,0.5-2.5,0.4L112.4,73.4z M116.4,72.1c0.7,0,1.3-0.1,1.9-0.4
			c1.1-0.5,1.9-1.3,2.3-2.4c0.2-0.6,0.3-1.2,0.3-1.8c0-0.6-0.1-1.2-0.3-1.8c-0.2-0.5-0.5-1-0.9-1.4c-0.4-0.4-0.9-0.7-1.4-0.9
			c-0.6-0.2-1.3-0.4-1.9-0.4h-2.6v9.1L116.4,72.1z"/>
		<path class="st0" d="M126.2,73.4V61.6h7.7v1.3h-6.2v3.8h6.1V68h-6.1v4.1h6.2v1.3L126.2,73.4z"/>
		<path class="st0" d="M147.6,73.4v-9.7l-4,9.7H143l-4-9.7v9.7h-1.5V61.6h2.1l3.6,8.8l3.7-8.8h2.1v11.7H147.6z"/>
		<path class="st0" d="M156.7,73.4v-5l-4.6-6.8h1.7l3.6,5.5l3.6-5.5h1.7l-4.6,6.8v5H156.7z"/>
		<path class="st1" d="M76,2.3l1.5-0.6c3.3-1.7,5.3-1.6,6-1.5c0.8,0.2,1.7,0.8,0.2,3.1c0.1,0,0.7-0.3,0.8-0.3c4.2-2,5.7-2.7,6.2-2.9
			c0.4-0.1,0.9,0,1.3,0.2c0.3,0.1,0.5,0.3,0.7,0.5c0.8,0.8,1,1.2-0.7,3.3c0.1,0.3-1.2,1.8-1.2,2.2c2.5-1.5,2.6-0.6,2.8-0.1
			c0.2,0.2,0.4,0.4,0.5,0.7c0.3,1.1,0.2,1.7-1.5,3.8c0,0.3-1.2,1.7-1.2,2c1.9-0.6,1.9-0.1,2.2,0.3c0.2,0.2,0.4,0.4,0.5,0.6
			c0.3,0.8,0.3,1-1.4,3.1c0.7-0.3,1.2,0.9,0.6,1.4c-0.1,0.1-0.8,0.6-0.8,0.7c0.8-0.4,1,0.6,0.5,0.8c-2.2,1.1-4.5,2.1-6.8,2.9
			c-1.5,0.2-2.8-1.2-1.1-2.9c0.1-0.1-0.9,0.4-1.1,0.4c-4.8,2.2-6.5,2.6-7.3,2.6c-0.1,0-0.1,0-0.2,0c-0.3,0-0.6-0.1-0.8-0.4
			c-0.6-0.6-0.7-0.7,0.8-2.3c-0.2-0.1,0.8-1.3,0.6-1.4c-3.8,1.6-4.2,1-4.6,0.3c-0.2-0.2-0.4-0.4-0.5-0.6c-0.3-0.6-0.3-1.6,1.7-3.7
			l1.4-2c-2.2,0.9-2.3,0.3-2.6-0.4c-0.2-0.2-0.4-0.5-0.5-0.7c-0.3-1.2-0.3-1.9,1.8-4.5c-1,0.4-1.1,0.2-1.3,0.2
			c-0.2-0.1-0.4-0.3-0.5-0.5c-0.2-0.6-0.1-1,0.6-3c0.1-0.1,0.4-1.3,0.5-1.4C73.6,0.2,76.1,0.8,76,2.3"/>
		<path class="st2" d="M99.2,4.3c0-2.4,1.9-4.3,4.3-4.3c0,0,0,0,0,0h13c2.4,0,4.3,1.9,4.3,4.3c0,0,0,0,0,0v13c0,2.4-1.9,4.3-4.3,4.3
			l0,0h-13c-2.4,0-4.3-1.9-4.3-4.3v0V4.3z"/>
		<path class="st2" d="M159,48.5c-0.9,0.4-1.9,0.7-2.9,0.7c-1.8,0-3.5-0.7-4.7-2c-1.3-1.4-1.9-3.2-1.9-5c-0.1-1.9,0.6-3.7,1.9-5
			c1.2-1.3,2.9-2,4.7-2c1.8-0.1,3.6,0.7,4.8,2.1c1.3,1.6,1.9,3.7,1.8,5.8C162.6,45.4,161.2,47.5,159,48.5 M99.4,48.5
			c-0.9,0.4-1.9,0.7-2.9,0.7c-1.8,0-3.5-0.7-4.7-2c-1.3-1.4-1.9-3.2-1.9-5c-0.1-1.9,0.6-3.7,1.9-5c1.2-1.3,2.9-2,4.7-2
			c1.8-0.1,3.6,0.7,4.8,2.1c1.3,1.6,1.9,3.7,1.8,5.8C103,45.4,101.6,47.5,99.4,48.5 M104.1,40.1c-0.2-0.8-0.4-1.5-0.8-2.2
			c-0.7-1.2-1.8-2.2-3-2.9c-1.2-0.7-2.6-1-3.9-1c-2.1-0.1-4.2,0.8-5.7,2.3c-1.5,1.6-2.3,3.7-2.3,5.9c0,1.1,0.2,2.1,0.6,3.1
			c0.4,1,0.9,1.9,1.7,2.7c0.7,0.8,1.6,1.4,2.6,1.8c1,0.4,2.1,0.6,3.2,0.6c1,0,2-0.2,2.9-0.5c1.5-0.6,2.7-1.6,3.6-2.9v3.1h1.4v-7
			C104.4,42.1,104.3,41.1,104.1,40.1 M72.4,50.1V26.6h1.4v14.2h1.6c0.9,0,1.7-0.2,2.5-0.6c0.9-0.6,1.6-1.4,2.2-2.3l2.6-3.7h1.6
			l-2.6,4c-0.4,0.6-0.8,1.1-1.2,1.6c-0.4,0.4-0.8,0.7-1.2,1c1.3,0.1,2.5,0.7,3.4,1.6c0.8,1,1.2,2.2,1.2,3.4v4.2h-1.4v-3.7
			c0.1-1.2-0.3-2.3-1-3.3c-0.8-0.8-1.9-1.2-3-1.1h-4.4v8.1L72.4,50.1L72.4,50.1z M130.4,43c-0.1-2,0.5-4.1,1.8-5.7
			c1.2-1.4,2.9-2.2,4.8-2.1c1.8,0,3.5,0.7,4.7,2c1.3,1.4,1.9,3.1,1.9,5c0.1,1.8-0.6,3.6-1.9,5c-1.2,1.3-2.9,2-4.7,2
			c-1,0-2-0.2-2.9-0.7C131.8,47.6,130.4,45.4,130.4,43 M129,43.1V55h1.4v-8c0.9,1.3,2.2,2.3,3.6,2.9c0.9,0.4,1.9,0.5,2.9,0.5
			c1.1,0,2.2-0.2,3.2-0.6c1-0.4,1.9-1,2.6-1.8c0.7-0.8,1.3-1.7,1.7-2.7c0.4-1,0.6-2.1,0.6-3.2c0.1-2.2-0.7-4.3-2.3-5.9
			c-1.5-1.6-3.6-2.4-5.7-2.3c-1.4,0-2.7,0.3-3.9,1c-1.2,0.7-2.3,1.7-3,2.9c-0.4,0.7-0.7,1.4-0.8,2.2C129,41,128.9,42.1,129,43.1
			 M110.5,43c-0.1-2.1,0.5-4.1,1.8-5.7c1.2-1.4,2.9-2.2,4.8-2.1c1.8,0,3.5,0.7,4.7,2c1.3,1.4,1.9,3.1,1.9,5c0.1,1.8-0.6,3.6-1.9,5
			c-1.2,1.3-2.9,2-4.7,2c-1,0-2-0.2-2.9-0.7C111.9,47.6,110.5,45.4,110.5,43 M109.2,43.1V55h1.4v-8c0.9,1.3,2.2,2.3,3.6,2.8
			c0.9,0.4,1.9,0.5,2.9,0.5c1.1,0,2.2-0.2,3.2-0.6c1-0.4,1.9-1,2.6-1.8c0.7-0.8,1.3-1.7,1.7-2.7c0.4-1,0.6-2.1,0.6-3.2
			c0.1-2.2-0.7-4.3-2.3-5.9c-1.5-1.6-3.6-2.4-5.7-2.3c-1.4,0-2.7,0.3-3.9,1c-1.2,0.7-2.3,1.7-3,2.9c-0.4,0.7-0.7,1.4-0.8,2.2
			C109.2,41,109.1,42,109.2,43.1 M163.7,40c-0.2-0.8-0.4-1.5-0.8-2.2c-0.7-1.2-1.7-2.1-2.9-2.8c-1.2-0.7-2.6-1-3.9-1
			c-2.2-0.1-4.2,0.8-5.7,2.3c-1.5,1.6-2.4,3.7-2.3,5.8c0,1.1,0.2,2.1,0.6,3.2c0.4,1,1,1.9,1.7,2.7c0.7,0.8,1.6,1.4,2.6,1.8
			c1,0.4,2.1,0.6,3.2,0.6c2.6,0,5.1-1.3,6.6-3.4v3.1h1.4v-7C164,42.1,163.9,41.1,163.7,40"/>
		<path class="st0" d="M48.6,23.3c-0.1,0-0.2,0-0.3-0.1c-0.4-0.1-0.8-0.4-1-0.7c-0.7-1.2-0.5-1.3,3-4.4l2.5-2.1
			c-6.5,3.9-6.6,3.8-7.3,3.6c-0.4-0.1-0.7-0.4-0.9-0.7c-0.7-1.2-0.5-1.3,3.3-4.6l2.8-2.3c-4.5,2.6-4.6,2.6-5.2,2.4
			c-0.4-0.1-0.8-0.4-1-0.7c-0.5-0.9-0.6-1.1,3.6-5.5c-2,1.1-2.1,1.1-2.6,1c-0.4-0.1-0.8-0.3-1-0.7C44,8,44,8,45,4.4
			c0.2-0.6,0.4-1.4,0.5-2c-0.3,0.1-1-1,0.2-1.4c0.9-0.4,2-1.2,2.8,0.1c0.3,0.6,0.4,0.6-0.4,3.6L50,3.5c5.8-3.4,5.8-3.4,6.5-3.2
			c0.4,0.1,0.8,0.4,1,0.7c0.6,1,0.6,1-3.6,5.6l1-0.6C65,0,65,0,65.8,0.3c0.4,0.1,0.7,0.4,0.9,0.7c0.7,1.2,0.5,1.3-3.4,4.6l-2.8,2.3
			c5-2.9,5.1-2.9,5.7-2.7c0.4,0.1,0.7,0.4,0.9,0.7c0.7,1.2,0.5,1.3-3,4.3l-2.4,2.1c3.8-2.2,3.9-2.1,4.5-2c0.4,0.1,0.7,0.4,0.9,0.7
			c0.5,0.9,0.6,1-2.8,5.1c1.3-0.7,1.4-0.6,1.9-0.6c0.8,0.2,1.3,1.1,1.1,1.9c-0.1,0.5-0.4,0.8-0.9,1c-0.3,0.1-2.4,1.4-3.9,2.3
			c-4.5,2.7-4.5,2.7-5.2,2.5c-0.4-0.1-0.8-0.4-1-0.7c-0.5-0.9-0.6-1,2.9-5.1L58,18.1C50.4,22.6,49.2,23.3,48.6,23.3"/>
		<path class="st0" d="M40.5,50.1V34.2h1.3v3.1c0.6-1,1.4-1.8,2.4-2.4c1-0.5,2.1-0.8,3.2-0.8c0.1,0,0.3,0,0.4,0c0.2,0,0.4,0,0.6,0.1
			v1.3h-0.1c-0.5,0-0.9-0.1-1-0.1c-1.5,0-2.9,0.6-3.8,1.7c-1,1.3-1.6,2.8-1.5,4.5v8.4L40.5,50.1z M32.8,34.2h1.4v9
			c0.1,1.9-0.5,3.8-1.8,5.3c-1.2,1.3-2.9,2-4.7,1.9c-1.8,0.1-3.5-0.6-4.7-1.9c-1.2-1.5-1.9-3.3-1.8-5.3v-9h1.4v9.4
			c-0.1,1.5,0.4,2.9,1.4,4c0.9,1,2.3,1.6,3.7,1.5c1.4,0,2.7-0.5,3.7-1.5c1-1.1,1.5-2.5,1.4-4L32.8,34.2L32.8,34.2z M3.4,37.2
			c1.2-1.3,2.9-2,4.7-2c1,0,1.9,0.2,2.8,0.6c0.8,0.4,1.6,1,2.1,1.8L2,45c-0.4-0.9-0.6-1.9-0.6-2.9C1.4,40.3,2.1,38.5,3.4,37.2
			 M14.6,42.3c0,1.8-0.8,3.6-2,4.9c-1.2,1.3-2.9,2-4.6,1.9c-1.8,0-3.5-0.7-4.7-2c-0.3-0.3-0.5-0.6-0.8-1l12.3-8.2
			c-0.7-1.2-1.7-2.3-2.9-3c-1.2-0.7-2.5-1-3.9-1c-2.2,0-4.2,0.8-5.8,2.4C0.8,37.9,0,40,0,42.2c0,1.1,0.2,2.2,0.6,3.2
			c0.4,1,1,1.9,1.8,2.7C3.1,48.8,4,49.4,5,49.8c1,0.4,2,0.6,3,0.6c2.1,0,4.1-0.8,5.6-2.3c1.5-1.5,2.4-3.6,2.5-5.8L14.6,42.3
			L14.6,42.3z M52.3,42.1c-0.1,1.9,0.6,3.7,1.9,5c2.4,2.6,6.5,2.7,9,0.3c0.1-0.1,0.2-0.2,0.3-0.3c2.5-2.8,2.5-7.1,0-9.9
			c-2.4-2.6-6.5-2.7-9.1-0.3c-0.1,0.1-0.2,0.2-0.3,0.3C52.9,38.5,52.2,40.3,52.3,42.1 M50.8,42.2c0-1.1,0.2-2.2,0.6-3.2
			c0.4-1,1-1.9,1.8-2.7c0.7-0.8,1.6-1.4,2.6-1.8c2-0.8,4.2-0.8,6.1,0c1,0.4,1.9,1,2.6,1.8c0.8,0.8,1.3,1.7,1.8,2.7
			c0.4,1,0.6,2.1,0.6,3.2c0,1.1-0.2,2.2-0.6,3.2c-0.4,1-1,1.9-1.8,2.6c-0.7,0.8-1.6,1.4-2.6,1.8c-1,0.4-2,0.6-3.1,0.6
			c-1.1,0-2.1-0.2-3.1-0.6c-1-0.4-1.9-1-2.6-1.8c-0.8-0.8-1.4-1.7-1.8-2.7C51.1,44.3,50.9,43.2,50.8,42.2"/>
	</g>
</g>
<g>
	<path d="M173.2,0.3c4,0,7.1,3.2,7.1,7.2c0,4.1-3.2,7.2-7.1,7.2c-3.9,0-7-3.2-7-7.2C166.1,3.5,169.3,0.3,173.2,0.3z M173.2,14
		c3.5,0,6.2-2.8,6.2-6.4c0-3.6-2.7-6.4-6.2-6.4c-3.5,0-6.1,2.8-6.1,6.4C167,11.2,169.7,14,173.2,14z M170.8,3.6h2.7
		c1.4,0,2.3,0.9,2.3,2.3c0,1.2-0.7,1.9-1.5,2.1v0c0,0,0.1,0.1,0.3,0.4l1.6,3.1h-1l-1.7-3.3h-1.7v3.3h-0.9V3.6z M173.4,7.5
		c0.9,0,1.5-0.6,1.5-1.6c0-1-0.6-1.5-1.5-1.5h-1.7v3.1H173.4z"/>
</g>
</svg>
