<svg xmlns="http://www.w3.org/2000/svg" viewBox="0 0 180.15 73.58"><defs><style>.cls-1{fill:#fff;}</style></defs><title>logo-1</title><g id="Слой_2" data-name="Слой 2"><g id="Слой_1-2" data-name="Слой 1"><path class="cls-1" d="M180.15,8.5a7,7,0,1,1-7-7.06A7.06,7.06,0,0,1,180.15,8.5Zm-7,6.28a6.28,6.28,0,1,0-6.28-6.27A6.29,6.29,0,0,0,173.11,14.78Z"/><path class="cls-1" d="M174.82,8.55a1.77,1.77,0,0,1,1.26,1.11,26,26,0,0,1,1,2.64.71.71,0,0,1-.47.89,1.4,1.4,0,0,1-.48.09.6.6,0,0,1-.66-.46c-.3-.85-.56-1.7-.91-2.53-.05-.12-.11-.23-.17-.35a1.3,1.3,0,0,0-1.26-.77h-1.58c-.13,0-.11.08-.11.15q0,1.67,0,3.34a.63.63,0,0,1-.56.7,1,1,0,0,1-.66-.07.6.6,0,0,1-.39-.59q0-3.87,0-7.73a2.45,2.45,0,0,1,.06-.5,1,1,0,0,1,.93-.78h3.34a3,3,0,0,1,1.23.26,2.07,2.07,0,0,1,1.19,1.32,2.91,2.91,0,0,1,0,1.67A2.22,2.22,0,0,1,175,8.48.35.35,0,0,0,174.82,8.55Zm-2.12-.86h1A1.33,1.33,0,0,0,175,6a1.11,1.11,0,0,0-1.1-.83H172c-.35,0-.49.13-.5.49,0,.65,0,1.29,0,1.94,0,.11,0,.13.13.13Z"/><path class="cls-1" d="M81.4,73.36l-1-2.6H74.53l-1,2.6H71.83l4.71-11.73h1.81l4.73,11.73ZM77.45,63.15l-2.5,6.31h5Z"/><path class="cls-1" d="M91.61,73.58a6.14,6.14,0,0,1-2.36-.44,5.88,5.88,0,0,1-1.91-1.24A5.67,5.67,0,0,1,86.06,70a6.79,6.79,0,0,1,0-4.94,5.67,5.67,0,0,1,3.19-3.16,6.18,6.18,0,0,1,2.36-.44,5.78,5.78,0,0,1,1.43.18,5.29,5.29,0,0,1,1.21.49,5.55,5.55,0,0,1,1,.74,5.87,5.87,0,0,1,.8.92l-1.24.68a4,4,0,0,0-1.36-1.22,3.69,3.69,0,0,0-1.86-.48,4.79,4.79,0,0,0-1.79.35,4.2,4.2,0,0,0-1.43,1,4.45,4.45,0,0,0-.95,1.5,5.52,5.52,0,0,0,0,3.84A4.45,4.45,0,0,0,89.79,72a4.43,4.43,0,0,0,1.79.35,3.89,3.89,0,0,0,1.86-.47A4,4,0,0,0,94.8,70.6l1.25.69A6.27,6.27,0,0,1,94.23,73,5.06,5.06,0,0,1,91.61,73.58Z"/><path class="cls-1" d="M107.76,73.36l-1-2.6h-5.83l-1,2.6H98.19l4.71-11.73h1.81l4.72,11.73Zm-3.95-10.21-2.49,6.31h5Z"/><path class="cls-1" d="M112.42,73.36V61.63h4a6.57,6.57,0,0,1,2.48.45,5.44,5.44,0,0,1,3.1,3.11,6.54,6.54,0,0,1,0,4.65,5.59,5.59,0,0,1-1.21,1.86,5.51,5.51,0,0,1-1.89,1.23,6.57,6.57,0,0,1-2.48.45Zm4-1.3a4.84,4.84,0,0,0,1.91-.36,4.24,4.24,0,0,0,2.29-2.44,5.37,5.37,0,0,0,.3-1.78,5.22,5.22,0,0,0-.3-1.79,4.28,4.28,0,0,0-.87-1.45,4,4,0,0,0-1.4-.94,4.85,4.85,0,0,0-1.92-.36h-2.55v9.13Z"/><path class="cls-1" d="M126.18,73.36V61.63h7.68v1.3h-6.22v3.78h6.1V68h-6.1v4.05h6.22v1.3Z"/><path class="cls-1" d="M147.65,73.36V63.71l-4,9.65h-.6l-4-9.65v9.65h-1.46V61.63h2.09l3.65,8.83L147,61.63h2.09V73.36Z"/><path class="cls-1" d="M156.72,73.36v-5l-4.62-6.77h1.7l3.65,5.45,3.65-5.45h1.69l-4.6,6.77v5Z"/><path class="cls-1" d="M76,2.29l1.5-.57C80.85.05,82.84.07,83.49.25c.84.24,1.72.78.18,3.06.09,0,.67-.28.76-.28C88.59,1,90.11.32,90.58.16a2.52,2.52,0,0,1,1.28.15,1.56,1.56,0,0,1,.72.48c.75.83,1,1.24-.74,3.29.14.3-1.17,1.81-1.17,2.16,2.48-1.46,2.55-.58,2.85-.08a1.34,1.34,0,0,1,.47.65c.33,1.07.23,1.73-1.48,3.82,0,.33-1.21,1.71-1.21,2,1.88-.61,1.95-.14,2.23.29a1.35,1.35,0,0,1,.47.6c.25.78.28,1-1.42,3.09.67-.26,1.22.85.55,1.42-.09.08-.77.59-.84.69.85-.39,1,.61.51.83A70.28,70.28,0,0,1,86,22.46c-1.52.21-2.85-1.23-1.1-2.93.11-.1-.95.38-1.1.38C79,22.14,77.32,22.5,76.48,22.5a.83.83,0,0,1-.22,0,1,1,0,0,1-.75-.36c-.58-.58-.71-.71.79-2.28-.24-.07.78-1.25.58-1.39-3.76,1.56-4.15,1-4.57.27a1.41,1.41,0,0,1-.49-.65c-.34-.6-.27-1.6,1.67-3.71l1.4-2c-2.24.87-2.31.26-2.6-.4a1.71,1.71,0,0,1-.47-.73c-.27-1.17-.3-1.88,1.78-4.49-1,.38-1.06.24-1.31.18a1,1,0,0,1-.47-.46c-.16-.63-.06-1,.57-3,.07-.14.43-1.26.52-1.38C73.58.15,76.09.81,76,2.29"/><path class="cls-1" d="M99.15,4.33A4.33,4.33,0,0,1,103.48,0h13a4.33,4.33,0,0,1,4.33,4.33v13a4.33,4.33,0,0,1-4.33,4.33h-13a4.33,4.33,0,0,1-4.33-4.33Z"/><path class="cls-1" d="M159,48.45a7,7,0,0,1-2.94.67,6.25,6.25,0,0,1-4.73-2,7,7,0,0,1-1.87-5,6.93,6.93,0,0,1,1.89-5,6.21,6.21,0,0,1,4.7-2,6,6,0,0,1,4.78,2.11A8.45,8.45,0,0,1,162.63,43,5.87,5.87,0,0,1,159,48.45m-59.64,0a7,7,0,0,1-2.94.67,6.25,6.25,0,0,1-4.73-2,7,7,0,0,1-1.87-5,6.93,6.93,0,0,1,1.89-5,6.21,6.21,0,0,1,4.7-2,6,6,0,0,1,4.78,2.11A8.45,8.45,0,0,1,103,43a5.88,5.88,0,0,1-3.61,5.47m4.73-8.37a7,7,0,0,0-.84-2.21,8.11,8.11,0,0,0-3-2.92,7.86,7.86,0,0,0-3.95-1,7.59,7.59,0,0,0-5.71,2.34,8.16,8.16,0,0,0-2.26,5.92A8.51,8.51,0,0,0,89,45.34,8.31,8.31,0,0,0,90.65,48a7.25,7.25,0,0,0,2.58,1.8,8.3,8.3,0,0,0,3.21.61,8.2,8.2,0,0,0,2.94-.53A8.09,8.09,0,0,0,103,47v3.08h1.38v-7a14.5,14.5,0,0,0-.27-3m-31.67,10V26.57h1.38V40.79h1.55a4.74,4.74,0,0,0,2.46-.58A7.68,7.68,0,0,0,80,37.93l2.55-3.72h1.56l-2.59,4a11.81,11.81,0,0,1-1.23,1.64,5.42,5.42,0,0,1-1.23,1,5.41,5.41,0,0,1,3.43,1.57,4.94,4.94,0,0,1,1.16,3.44V50.1H82.26V46.37a4.65,4.65,0,0,0-1-3.26,3.91,3.91,0,0,0-3-1.1H73.82V50.1H72.44ZM130.39,43a8.48,8.48,0,0,1,1.78-5.69,5.93,5.93,0,0,1,4.78-2.11,6.21,6.21,0,0,1,4.7,2,7,7,0,0,1,1.89,5,7,7,0,0,1-1.87,5,6.24,6.24,0,0,1-4.73,2,6.85,6.85,0,0,1-2.94-.67A5.9,5.9,0,0,1,130.39,43m-1.38.1V55h1.38V47A8.21,8.21,0,0,0,134,49.89a8,8,0,0,0,2.94.53,8.3,8.3,0,0,0,3.21-.61,7.25,7.25,0,0,0,2.58-1.8,8.31,8.31,0,0,0,1.68-2.67,8.51,8.51,0,0,0,.58-3.15,8.16,8.16,0,0,0-2.26-5.92A7.61,7.61,0,0,0,137,33.93a7.86,7.86,0,0,0-3.95,1,8.27,8.27,0,0,0-3,2.92,7.26,7.26,0,0,0-.84,2.21,15.29,15.29,0,0,0-.26,3M110.53,43a8.44,8.44,0,0,1,1.79-5.69,5.93,5.93,0,0,1,4.78-2.11,6.21,6.21,0,0,1,4.7,2,7,7,0,0,1,1.89,5,7,7,0,0,1-1.87,5,6.24,6.24,0,0,1-4.73,2,6.85,6.85,0,0,1-2.94-.67A5.89,5.89,0,0,1,110.53,43m-1.38.1V55h1.38V47a8.21,8.21,0,0,0,3.62,2.85,8,8,0,0,0,2.94.53,8.22,8.22,0,0,0,3.2-.61,7.25,7.25,0,0,0,2.58-1.8,8.49,8.49,0,0,0,1.68-2.67,8.72,8.72,0,0,0,.58-3.15,8.16,8.16,0,0,0-2.26-5.92,7.59,7.59,0,0,0-5.71-2.34,7.86,7.86,0,0,0-3.95,1,8.27,8.27,0,0,0-3,2.92,7.26,7.26,0,0,0-.84,2.21,15.29,15.29,0,0,0-.26,3m54.61-3a7,7,0,0,0-.84-2.21A8.11,8.11,0,0,0,160,35a7.86,7.86,0,0,0-3.95-1,7.63,7.63,0,0,0-5.72,2.34A8.2,8.2,0,0,0,148,42.19a8.51,8.51,0,0,0,.58,3.15A8.14,8.14,0,0,0,150.29,48a7.25,7.25,0,0,0,2.58,1.8,8.3,8.3,0,0,0,3.21.61A7.86,7.86,0,0,0,162.64,47v3.08H164v-7a15.29,15.29,0,0,0-.26-3"/><path class="cls-1" d="M48.59,23.32a1.12,1.12,0,0,1-.35-.06,1.53,1.53,0,0,1-1-.72c-.67-1.16-.47-1.34,3-4.35l2.46-2.13c-6.53,3.85-6.63,3.82-7.29,3.64a1.52,1.52,0,0,1-.94-.72c-.69-1.19-.54-1.32,3.34-4.58l2.8-2.34c-4.47,2.61-4.61,2.58-5.2,2.42a1.53,1.53,0,0,1-1-.72c-.54-.94-.6-1.05,3.57-5.52-2,1.14-2.13,1.1-2.62,1a1.55,1.55,0,0,1-1-.71c-.34-.58-.34-.58.62-4.17.17-.64.38-1.42.53-2-.31.08-1-1,.18-1.43.88-.36,2-1.21,2.85.08.33.59.36.62-.44,3.6l1.94-1.15C55.81.1,55.8.09,56.5.28a1.52,1.52,0,0,1,1,.73c.57,1,.63,1.05-3.63,5.61l1-.57c10.13-6,10.13-6,10.9-5.78a1.55,1.55,0,0,1,.95.73c.68,1.19.53,1.32-3.36,4.58l-2.8,2.34c5-2.91,5.1-2.87,5.7-2.71a1.57,1.57,0,0,1,.95.72c.67,1.17.46,1.34-3,4.34l-2.43,2.11c3.76-2.19,3.9-2.15,4.46-2a1.6,1.6,0,0,1,.95.72c.51.88.56,1-2.83,5.08,1.29-.72,1.42-.61,1.88-.6a1.56,1.56,0,0,1,.23,2.94c-.32.15-2.37,1.37-3.87,2.25-4.5,2.66-4.51,2.66-5.19,2.49a1.53,1.53,0,0,1-1-.72c-.51-.89-.56-1,2.88-5.15L58,18.15c-7.56,4.45-8.78,5.17-9.42,5.17"/><path class="cls-1" d="M40.54,50.12V34.22h1.35v3.11a6.65,6.65,0,0,1,2.36-2.38,6.41,6.41,0,0,1,3.2-.8,2.69,2.69,0,0,1,.38,0,5.62,5.62,0,0,1,.56.07v1.33h-.1c-.51,0-.86-.07-1-.07a4.88,4.88,0,0,0-3.85,1.74,6.6,6.6,0,0,0-1.51,4.46v8.42ZM32.8,34.22h1.38v9a7.55,7.55,0,0,1-1.76,5.26,6,6,0,0,1-4.7,1.94A6,6,0,0,1,23,48.48a7.55,7.55,0,0,1-1.76-5.26v-9h1.35v9.44a5.65,5.65,0,0,0,1.42,4,4.79,4.79,0,0,0,3.69,1.54,4.78,4.78,0,0,0,3.67-1.53,5.67,5.67,0,0,0,1.42-4V34.22Zm-29.4,3a6.29,6.29,0,0,1,4.73-2,5.91,5.91,0,0,1,2.76.64A6.19,6.19,0,0,1,13,37.66L2,45a7.42,7.42,0,0,1-.56-2.87,6.88,6.88,0,0,1,1.93-5m11.22,5.2a7.4,7.4,0,0,1-2,4.88A6.06,6.06,0,0,1,8,49.12a6.24,6.24,0,0,1-4.68-2,7.89,7.89,0,0,1-.77-1l12.31-8.21a8.3,8.3,0,0,0-2.9-3,7.54,7.54,0,0,0-3.87-1,8,8,0,0,0-5.76,2.38A8.21,8.21,0,0,0,0,42.18a8.51,8.51,0,0,0,.6,3.17A8.25,8.25,0,0,0,2.38,48,7.85,7.85,0,0,0,5,49.82,8,8,0,0,0,8,50.43a7.56,7.56,0,0,0,5.56-2.25,8.54,8.54,0,0,0,2.45-5.79H14.62Zm37.7-.23a6.93,6.93,0,0,0,1.92,5,6.39,6.39,0,0,0,9.33,0,7.37,7.37,0,0,0,0-9.9,6.41,6.41,0,0,0-9.33,0,6.93,6.93,0,0,0-1.92,4.95m-1.45,0A8.15,8.15,0,0,1,51.48,39a8.79,8.79,0,0,1,1.77-2.72,8,8,0,0,1,2.59-1.77,7.91,7.91,0,0,1,6.14,0,8,8,0,0,1,2.59,1.77A8.39,8.39,0,0,1,66.32,39a8.5,8.5,0,0,1,.6,3.19,8.39,8.39,0,0,1-.6,3.17A8.28,8.28,0,0,1,64.57,48,7.67,7.67,0,0,1,62,49.79a8,8,0,0,1-3.07.61,7.79,7.79,0,0,1-3.07-.61A8,8,0,0,1,53.25,48a8.46,8.46,0,0,1-1.77-2.71,8.13,8.13,0,0,1-.61-3.14"/></g></g></svg>