<?xml version="1.0" encoding="utf-8"?>
<!-- Generator: Adobe Illustrator 21.0.2, SVG Export Plug-In . SVG Version: 6.00 Build 0)  -->
<svg version="1.1" id="Слой_1" xmlns="http://www.w3.org/2000/svg" xmlns:xlink="http://www.w3.org/1999/xlink" x="0px" y="0px"
	 viewBox="0 0 480 480" style="enable-background:new 0 0 480 480;" xml:space="preserve">
<path d="M240,480c-2.2,0-4.4-0.9-5.9-2.6C226.8,469.5,56,283,56,184C56,82.4,138.4,0,240,0s184,82.4,184,184
	c0,99-170.8,285.5-178.1,293.4C244.4,479.1,242.2,480,240,480z M240,16C147.3,16.1,72.1,91.3,72,184c0,83,137.6,242,168,276
	C270.4,426,408,267,408,184C407.9,91.3,332.7,16.1,240,16z"/>
<path d="M240,320c-75.1,0-136-60.9-136-136S164.9,48,240,48s136,60.9,136,136C375.9,259.1,315.1,319.9,240,320z M240,64
	c-66.3,0-120,53.7-120,120s53.7,120,120,120s120-53.7,120-120C359.9,117.8,306.2,64.1,240,64z"/>
</svg>
