<?xml version="1.0" encoding="utf-8"?>
<!-- Generator: Adobe Illustrator 21.0.2, SVG Export Plug-In . SVG Version: 6.00 Build 0)  -->
<svg version="1.1" id="Capa_1" xmlns="http://www.w3.org/2000/svg" xmlns:xlink="http://www.w3.org/1999/xlink" x="0px" y="0px"
	 viewBox="0 0 320 320" style="enable-background:new 0 0 320 320;" xml:space="preserve">
<g>
	<path d="M288.6,67.5h-14.4V44.4c0-3.6-2.9-6.5-6.5-6.5s-6.5,2.9-6.5,6.5v23.1H58.8V44.4c0-3.6-2.9-6.5-6.5-6.5s-6.5,2.9-6.5,6.5
		v23.1H31.4C14.1,67.5,0,81.5,0,98.8v151.9c0,17.3,14.1,31.4,31.4,31.4h257.3c17.3,0,31.4-14.1,31.4-31.4V98.8
		C320,81.5,305.9,67.5,288.6,67.5z M307,98.8v25.6H166.5V80.5h122.1C298.7,80.5,307,88.7,307,98.8z M31.4,80.5h122.1v43.9H13V98.8
		C13,88.7,21.2,80.5,31.4,80.5z M13,250.7V137.4h140.5v131.7H31.4C21.2,269.1,13,260.9,13,250.7z M288.6,269.1H166.5V137.4H307
		v113.4C307,260.9,298.7,269.1,288.6,269.1z"/>
	<g>
		<path d="M89.7,242h-8.5v-77.4H66.8v-7.7h22.9V242z"/>
	</g>
	<g>
		<path d="M267,213.7c0,3.8-0.7,7.4-2.2,11c-1.5,3.6-4.3,7.6-8.5,12c-4.2,4.4-10.4,6.6-18.7,6.6c-8,0-14.8-2.9-20.4-8.7
			c-5.6-5.8-8.4-12.7-8.4-20.8c0-5.9,1-10.5,2.9-13.9c1.9-3.4,4.6-7.7,8-12.9l20.2-30.2l9.9,0l-20.1,30c3.1-1.9,6.4-2.9,10.1-2.9
			c7.6,0,14,3,19.2,9.1C264.3,199.2,267,206.1,267,213.7z M258.4,213.9c0-5.8-2-10.9-6-15.2s-8.9-6.5-14.6-6.5
			c-5.7,0-10.5,2.1-14.5,6.2c-4,4.1-5.9,9.1-5.9,14.8c0,6,1.9,11.2,5.8,15.5c3.8,4.3,8.7,6.5,14.6,6.5c5.7,0,10.6-2.1,14.6-6.3
			C256.4,224.8,258.4,219.8,258.4,213.9z"/>
	</g>
</g>
</svg>
