<?xml version="1.0" encoding="utf-8"?>
<!-- Generator: Adobe Illustrator 23.0.5, SVG Export Plug-In . SVG Version: 6.00 Build 0)  -->
<svg version="1.1" id="Слой_1" xmlns="http://www.w3.org/2000/svg" xmlns:xlink="http://www.w3.org/1999/xlink" x="0px" y="0px"
	 viewBox="0 0 160 50" style="enable-background:new 0 0 160 50;" xml:space="preserve">
<style type="text/css">
	.st0{fill:#FFFFFF;}
</style>
<g>
	<g>
		<path class="st0" d="M54.2,20.8v0.9L53.1,22l0.6-2.7H55l-0.1,2.6c-0.9,0.5-2.1,0.9-3.6,0.9c-3.3,0-6-1.9-6-5.9
			c0-4.1,2.9-5.9,6.1-5.9c1.3,0,2.4,0.3,3.4,0.8l0.1,2.7h-1.3l-0.6-2.7l1.2,0.3v0.9c-0.8-0.7-1.5-1-2.3-1c-1.8,0-3.5,1.5-3.5,5
			c0,3.5,1.6,5,3.4,5C52.6,21.8,53.4,21.5,54.2,20.8z"/>
		<path class="st0" d="M56.9,18.9v-1c0-0.9,0-1.3-0.1-2l-1.1-0.2v-0.7l3.4-1.1l0.3,0.2l0.2,2.1v2.7c0,1.1,0,2.8,0.1,3.6h-2.9
			C56.8,21.7,56.9,19.9,56.9,18.9z M55.9,21.7l1.7-0.3h1.8l1.7,0.3v0.8h-5.1V21.7z M58.3,16.6h1.3l-0.2,0.5c0.3-2.1,1.5-3.1,2.5-3.1
			c0.8,0,1.4,0.4,1.5,1.3c0,0.9-0.5,1.4-1.2,1.4c-0.5,0-0.9-0.3-1.3-0.8l-0.5-0.7l0.7,0.2c-0.6,0.4-1.2,1.4-1.5,2.4l-1.3-0.1V16.6z"
			/>
		<path class="st0" d="M72,17.6c0,0.4,0,0.6-0.1,0.9h-6.8v-0.9h3.2c0.8,0,1-0.3,1-1.1c0-1.1-0.5-1.7-1.2-1.7c-0.7,0-1.4,0.8-1.4,3.2
			c0,2.1,1,3,2.3,3c0.9,0,1.6-0.4,2.1-0.9l0.6,0.6c-0.7,1.3-2,2-3.6,2c-2.5,0-4.3-1.6-4.3-4.4c0-2.9,2.2-4.4,4.4-4.4
			C70.7,13.9,72,15.5,72,17.6z"/>
		<path class="st0" d="M76.3,17.7c0.7-0.2,1.9-0.5,2.8-0.7v0.7c-0.8,0.2-1.7,0.5-2.3,0.7c-0.8,0.3-1.3,0.9-1.3,1.7
			c0,0.9,0.5,1.3,1,1.3c0.3,0,0.6-0.1,1.2-0.5l0.7-0.5l0.2,0.2l-0.7,0.8c-0.8,0.9-1.4,1.4-2.6,1.4c-1.3,0-2.3-0.8-2.3-2.2
			C73,19.3,73.7,18.5,76.3,17.7z M77.6,21.1v-4.3c0-1.5-0.3-2-1.4-2c-0.4,0-0.9,0.1-1.6,0.2l1.2-0.7l-0.1,1.2c0,1.1-0.6,1.6-1.3,1.6
			c-0.6,0-1-0.3-1.2-0.9c0.1-1.4,1.5-2.4,4-2.4c2.2,0,3.1,0.9,3.1,3.2V21c0,0.3,0.1,0.5,0.4,0.5c0.2,0,0.3-0.1,0.5-0.4l0.5,0.3
			c-0.4,0.9-1,1.3-2.1,1.3C78.4,22.7,77.8,22.1,77.6,21.1z"/>
		<path class="st0" d="M86.6,21.3c0.3,0,0.6-0.1,0.9-0.4l0.4,0.4c-0.5,0.9-1.3,1.4-2.5,1.4c-1.6,0-2.5-0.7-2.5-2.4
			c0-0.6,0-1.1,0-1.7v-3.3h-1.1v-1l2-0.3l-1,0.7l1.1-3h1.8l0,3.1v5.3C85.7,21,86.1,21.3,86.6,21.3z M87.5,14.2v1.2h-3.2v-1.2H87.5z"
			/>
		<path class="st0" d="M89.2,22.5c0-0.8,0.1-2.5,0.1-3.6v-0.8c0-0.9,0-1.5-0.1-2.2l-1.1-0.2v-0.7l3.6-1.1l0.3,0.2L92,16.6v2.3
			c0,1.1,0,2.8,0.1,3.6H89.2z M92.9,21.7v0.8h-4.6v-0.8l1.6-0.3h1.3L92.9,21.7z M89.2,11.3c0-0.8,0.7-1.4,1.5-1.4s1.5,0.6,1.5,1.4
			c0,0.8-0.7,1.4-1.5,1.4S89.2,12.1,89.2,11.3z"/>
		<path class="st0" d="M94.7,15.3L93.1,15v-0.8H98V15l-1.6,0.3H94.7z M96.6,14.2l2.3,6.1l-1.2,1.9l2.7-7.9h1.2l-3.2,8.3h-1.3
			l-3.5-8.3H96.6z M100.4,15.2L99,15v-0.8h3.3V15l-1.4,0.3H100.4z"/>
		<path class="st0" d="M110.9,17.6c0,0.4,0,0.6-0.1,0.9H104v-0.9h3.2c0.8,0,1-0.3,1-1.1c0-1.1-0.5-1.7-1.2-1.7
			c-0.7,0-1.4,0.8-1.4,3.2c0,2.1,1,3,2.3,3c0.9,0,1.6-0.4,2.1-0.9l0.6,0.6c-0.7,1.3-2,2-3.6,2c-2.5,0-4.3-1.6-4.3-4.4
			c0-2.9,2.2-4.4,4.4-4.4C109.6,13.9,110.9,15.5,110.9,17.6z"/>
		<path class="st0" d="M115.6,12.1v-0.9h2.8v1.2h-0.3L115.6,12.1z M118.4,21.3v1.2h-2.8v-0.9l2.5-0.3H118.4z M117,16.6
			c0-1.8,0-3.6-0.1-5.4h3c-0.1,1.8-0.1,3.6-0.1,5.4V17c0,1.9,0,3.7,0.1,5.5h-3c0.1-1.8,0.1-3.5,0.1-5.4V16.6z M118.4,16.1h1.9
			c1.5,0,2.1-0.7,2.1-2.1c0-1.3-0.6-1.9-2-1.9h-2v-1h2.8c2.9,0,4,1.1,4,2.6c0,1.3-0.8,2.4-3.6,2.7v-0.2c3.1,0.2,4.3,1.3,4.3,2.9
			c0,1.4-1.1,3.2-5.4,3.2h-2.1v-1h2c1.6,0,2.5-0.8,2.5-2.2c0-1.6-0.8-2.2-2.5-2.2h-2V16.1z"/>
		<path class="st0" d="M127.7,18.9v-1c0-0.9,0-1.3-0.1-2l-1.1-0.2v-0.7l3.4-1.1l0.3,0.2l0.2,2.1v2.7c0,1.1,0,2.8,0.1,3.6h-2.9
			C127.7,21.7,127.7,19.9,127.7,18.9z M126.8,21.7l1.7-0.3h1.8l1.7,0.3v0.8h-5.1V21.7z M129.2,16.6h1.3l-0.2,0.5
			c0.3-2.1,1.5-3.1,2.5-3.1c0.8,0,1.4,0.4,1.5,1.3c0,0.9-0.5,1.4-1.2,1.4c-0.5,0-0.9-0.3-1.3-0.8l-0.5-0.7l0.7,0.2
			c-0.6,0.4-1.2,1.4-1.5,2.4l-1.3-0.1V16.6z"/>
		<path class="st0" d="M138.2,17.7c0.7-0.2,1.9-0.5,2.8-0.7v0.7c-0.8,0.2-1.7,0.5-2.3,0.7c-0.8,0.3-1.3,0.9-1.3,1.7
			c0,0.9,0.5,1.3,1,1.3c0.3,0,0.6-0.1,1.2-0.5l0.7-0.5l0.2,0.2l-0.7,0.8c-0.8,0.9-1.4,1.4-2.6,1.4c-1.3,0-2.3-0.8-2.3-2.2
			C134.9,19.3,135.6,18.5,138.2,17.7z M139.5,21.1v-4.3c0-1.5-0.3-2-1.4-2c-0.4,0-0.9,0.1-1.6,0.2l1.2-0.7l-0.1,1.2
			c0,1.1-0.6,1.6-1.3,1.6c-0.6,0-1-0.3-1.2-0.9c0.1-1.4,1.5-2.4,4-2.4c2.2,0,3.1,0.9,3.1,3.2V21c0,0.3,0.1,0.5,0.4,0.5
			c0.2,0,0.3-0.1,0.5-0.4l0.5,0.3c-0.4,0.9-1,1.3-2.1,1.3C140.3,22.7,139.7,22.1,139.5,21.1z"/>
		<path class="st0" d="M144.9,22.5c0-0.8,0.1-2.5,0.1-3.6v-0.8c0-0.9,0-1.5-0.1-2.2l-1.1-0.2v-0.7l3.6-1.1l0.3,0.2l-0.1,2.5v2.3
			c0,1.1,0,2.8,0.1,3.6H144.9z M148.6,21.7v0.8H144v-0.8l1.6-0.3h1.3L148.6,21.7z M144.9,11.3c0-0.8,0.7-1.4,1.5-1.4
			s1.5,0.6,1.5,1.4c0,0.8-0.7,1.4-1.5,1.4S144.9,12.1,144.9,11.3z"/>
		<path class="st0" d="M150.4,22.5c0-0.8,0.1-2.5,0.1-3.6v-1c0-0.9,0-1.3-0.1-2l-1.1-0.2v-0.7l3.4-1.1l0.3,0.2l0.2,1.9v2.9
			c0,1.1,0,2.8,0.1,3.6H150.4z M154,21.7v0.8h-4.5v-0.8l1.6-0.3h1.3L154,21.7z M158.4,16.9v2c0,1.1,0,2.8,0.1,3.6h-2.9
			c0-0.8,0.1-2.5,0.1-3.6v-1.8c0-1.1-0.3-1.5-1-1.5c-0.6,0-1.4,0.5-2.1,1.3h-0.6v-1.1h1.2l-0.7,0.5c1.2-1.7,2.2-2.3,3.4-2.3
			C157.4,13.9,158.4,14.9,158.4,16.9z M157.6,21.3l1.7,0.3v0.8h-4.6v-0.8l1.6-0.3H157.6z"/>
	</g>
</g>
<g>
	<g>
		<path class="st0" d="M45.2,28.6V28h1.9v0.7h-0.1L45.2,28.6z M47.1,36.2v0.7h-1.9v-0.5l1.8-0.2H47.1z M46.4,32.1c0-1.4,0-2.8,0-4.1
			h1.3c0,1.3,0,2.7,0,4.1v0.5c0,1.5,0,2.9,0,4.3h-1.3c0-1.3,0-2.7,0-4.3V32.1z M47.1,36.3h1.7c2.1,0,3.2-1.4,3.2-3.8
			c0-2.5-1.1-3.8-3.1-3.8h-1.8V28h2.1c2.6,0,4.3,1.6,4.3,4.5c0,2.9-2,4.4-4.6,4.4h-1.8V36.3z"/>
		<path class="st0" d="M55.7,36.9c0-0.6,0-2,0-2.8v-0.6c0-0.7,0-1.1,0-1.7l-1.1-0.1v-0.5l2.1-0.8l0.2,0.1l0,1.8v1.8
			c0,0.8,0,2.2,0,2.8H55.7z M57.8,36.4v0.5h-3.1v-0.5l1.5-0.3h0.3L57.8,36.4z M55.4,28.1c0-0.5,0.4-0.9,0.9-0.9s0.9,0.3,0.9,0.9
			c0,0.5-0.4,0.9-0.9,0.9S55.4,28.6,55.4,28.1z"/>
		<path class="st0" d="M64,38.1c0-0.6-0.4-1-1.3-1h-1.6c-0.2,0-0.5,0-0.7,0v0c-0.7-0.2-1-0.5-1-1.1c0-0.5,0.3-1,1.2-1.8l0.3,0.2
			c-0.4,0.4-0.6,0.7-0.6,1.1c0,0.4,0.2,0.6,0.8,0.6h1.8c1.5,0,2.2,0.6,2.2,1.7c0,1.2-1.1,2.3-3.3,2.3c-2,0-2.8-0.7-2.8-1.6
			c0-0.7,0.4-1.1,1.8-1.7l0.1,0.1c-0.5,0.5-0.7,0.9-0.7,1.4c0,0.9,0.7,1.2,1.7,1.2C63.2,39.5,64,38.9,64,38.1z M61.6,30.4
			c1.4,0,2.4,0.7,2.4,2.2c0,1.4-1,2.2-2.4,2.2c-1.4,0-2.4-0.7-2.4-2.2C59.2,31.2,60.2,30.4,61.6,30.4z M60.3,32.6
			c0,1,0.5,1.6,1.3,1.6c0.9,0,1.4-0.7,1.4-1.7c0-0.9-0.5-1.6-1.3-1.6C60.8,31,60.3,31.6,60.3,32.6z M64.8,30.4l0.2,0.1v0.8h-2V31
			L64.8,30.4z"/>
		<path class="st0" d="M67,36.9c0-0.6,0-2,0-2.8v-0.6c0-0.7,0-1.1,0-1.7l-1.1-0.1v-0.5l2.1-0.8l0.2,0.1l0,1.8v1.8c0,0.8,0,2.2,0,2.8
			H67z M69.1,36.4v0.5H66v-0.5l1.5-0.3h0.3L69.1,36.4z M66.6,28.1c0-0.5,0.4-0.9,0.9-0.9s0.9,0.3,0.9,0.9c0,0.5-0.4,0.9-0.9,0.9
			S66.6,28.6,66.6,28.1z"/>
		<path class="st0" d="M72.7,36.4c0.3,0,0.6-0.1,0.9-0.4l0.3,0.4c-0.3,0.4-0.9,0.7-1.6,0.7c-0.9,0-1.5-0.5-1.5-1.5
			c0-0.3,0-0.6,0-1.1v-3.1h-1.1v-0.6l1.7-0.2L70.9,31l0.4-2.2h0.8L72,31.1v4.3C72,36.1,72.3,36.4,72.7,36.4z M73.8,30.6v0.7h-2.4
			v-0.7H73.8z"/>
		<path class="st0" d="M77,33.4c0.6-0.2,1.4-0.4,2.1-0.6v0.5c-0.6,0.1-1.4,0.4-1.8,0.5c-1.2,0.5-1.3,1-1.3,1.4c0,0.7,0.5,1,1.1,1
			c0.5,0,0.7-0.2,1.5-0.8l0.3-0.2l0.2,0.3l-0.4,0.4c-0.8,0.8-1.3,1.2-2.1,1.2c-1,0-1.8-0.6-1.8-1.7C74.7,34.7,75.1,34.1,77,33.4z
			 M78.5,35.7v-3.1c0-1.3-0.4-1.6-1.3-1.6c-0.3,0-0.7,0-1.2,0.2l0.6-0.4L76.2,32c-0.1,0.4-0.3,0.6-0.7,0.6c-0.4,0-0.6-0.2-0.6-0.5
			c0.2-1,1.2-1.6,2.6-1.6c1.4,0,2.1,0.6,2.1,2.3v2.8c0,0.6,0.2,0.8,0.5,0.8c0.2,0,0.4-0.1,0.5-0.3l0.3,0.3c-0.3,0.5-0.7,0.7-1.2,0.7
			C79,37,78.5,36.5,78.5,35.7z"/>
		<path class="st0" d="M83.5,27.1l0.2,0.1l-0.1,1.9v5c0,0.9,0,1.9,0,2.8h-1.2c0-0.9,0-1.9,0-2.8v-5.8l-1.1-0.1v-0.5L83.5,27.1z
			 M84.8,36.4v0.5h-3.3v-0.5l1.5-0.3h0.3L84.8,36.4z"/>
		<path class="st0" d="M88.6,36.4l1.3-0.2h0.3l1.5,0.2v0.5h-3.1V36.4z M92.6,27.9h0.8l3.1,9h-1.3L92.5,29l0.3,0l-2.7,8h-0.6
			L92.6,27.9z M91,33.4h3.6l0.2,0.6h-4.1L91,33.4z M93.6,36.4l1.7-0.2h0.3l1.7,0.2v0.5h-3.7V36.4z"/>
		<path class="st0" d="M103.1,38.1c0-0.6-0.4-1-1.3-1h-1.6c-0.2,0-0.5,0-0.7,0v0c-0.7-0.2-1-0.5-1-1.1c0-0.5,0.3-1,1.2-1.8l0.3,0.2
			c-0.4,0.4-0.6,0.7-0.6,1.1c0,0.4,0.2,0.6,0.8,0.6h1.8c1.5,0,2.2,0.6,2.2,1.7c0,1.2-1.1,2.3-3.3,2.3c-2,0-2.8-0.7-2.8-1.6
			c0-0.7,0.4-1.1,1.8-1.7l0.1,0.1c-0.5,0.5-0.7,0.9-0.7,1.4c0,0.9,0.7,1.2,1.7,1.2C102.3,39.5,103.1,38.9,103.1,38.1z M100.8,30.4
			c1.4,0,2.4,0.7,2.4,2.2c0,1.4-1,2.2-2.4,2.2c-1.4,0-2.4-0.7-2.4-2.2C98.3,31.2,99.4,30.4,100.8,30.4z M99.4,32.6
			c0,1,0.5,1.6,1.3,1.6c0.9,0,1.4-0.7,1.4-1.7c0-0.9-0.5-1.6-1.3-1.6C99.9,31,99.4,31.6,99.4,32.6z M104,30.4l0.2,0.1v0.8h-2V31
			L104,30.4z"/>
		<path class="st0" d="M110.8,33c0,0.3,0,0.6-0.1,0.7h-5v-0.6h3.2c0.6,0,0.8-0.3,0.8-0.7c0-0.8-0.6-1.4-1.5-1.4
			c-0.8,0-1.8,0.7-1.8,2.6c0,1.7,0.9,2.6,2.2,2.6c0.9,0,1.4-0.4,1.9-0.9l0.3,0.3c-0.5,1-1.4,1.5-2.6,1.5c-1.8,0-3-1.2-3-3.3
			c0-2,1.4-3.4,3.1-3.4C109.7,30.4,110.8,31.4,110.8,33z"/>
		<path class="st0" d="M113.1,36.9c0-0.6,0-2,0-2.8v-0.6c0-0.7,0-1.1,0-1.7l-1.1-0.1v-0.5l1.9-0.8l0.2,0.1l0.2,1.5v2
			c0,0.8,0,2.2,0,2.8H113.1z M115.3,36.4v0.5h-3.1v-0.5l1.5-0.3h0.3L115.3,36.4z M118.4,32.9v1.2c0,0.9,0,2.2,0,2.8h-1.2
			c0-0.6,0-1.9,0-2.8V33c0-1.2-0.3-1.6-1.1-1.6c-0.7,0-1.2,0.3-2,0.9h-0.3v-0.6h0.7l-0.6,0.2c0.6-0.9,1.7-1.5,2.7-1.5
			C117.8,30.4,118.4,31.1,118.4,32.9z M118,36.2l1.3,0.3v0.5h-3.1v-0.5l1.5-0.3H118z"/>
		<path class="st0" d="M121.6,33.6c0,1.7,0.9,2.6,2.1,2.6c0.8,0,1.4-0.4,1.9-1l0.3,0.2c-0.4,1.1-1.2,1.7-2.5,1.7c-1.8,0-3-1.3-3-3.3
			c0-2.1,1.5-3.3,3.1-3.3c1.2,0,2.2,0.7,2.4,1.7c-0.1,0.3-0.3,0.5-0.6,0.5c-0.4,0-0.6-0.3-0.7-0.6l-0.3-1.2l0.6,0.5
			c-0.5-0.2-0.9-0.3-1.3-0.3C122.5,31,121.6,31.9,121.6,33.6z"/>
		<path class="st0" d="M126.6,39.3c0.1-0.4,0.5-0.6,0.9-0.6c0.3,0,0.6,0.1,1,0.5l0.4,0.4l-0.5,0.3l-0.4-0.3c0.9-0.4,1.4-1.3,1.8-2.3
			l0.4-1.2l2.1-5.6h0.7l-2.4,6.3c-0.9,2.4-1.6,3.4-2.8,3.4C127.2,40.2,126.6,39.9,126.6,39.3z M128,31.3l-1.3-0.2v-0.5h3.2v0.5
			l-1.6,0.2H128z M130,37.6l-2.8-7h1.3l2.1,5.6L130,37.6z M132.2,31.3l-1.4-0.2v-0.5h2.6v0.5l-1,0.2H132.2z"/>
	</g>
</g>
<g id="XMLID_1460_">
	<g id="XMLID_2079_">
		<path id="XMLID_2080_" class="st0" d="M27.3,38.5h-8.6c-0.6,0-1.1,0.5-1.1,1.1s0.5,1.1,1.1,1.1h8.6c0.6,0,1.1-0.5,1.1-1.1
			S27.9,38.5,27.3,38.5z"/>
		<path id="XMLID_2408_" class="st0" d="M19,41.9c0,1.1,0.4,2.1,1.2,2.8c0.7,0.7,1.7,1.2,2.8,1.2c2.2,0,4-1.8,4-4v-0.1h-8V41.9z"/>
	</g>
	<g id="XMLID_1110_">
		<g id="XMLID_2059_">
			<path id="XMLID_2066_" class="st0" d="M22.3,34.1C22.3,34.1,22.3,34.1,22.3,34.1l0-25.5c0.3-0.7,0.2-1.6-0.1-2.5
				c-0.4-1-1.2-1.7-2.1-2c-1.9-0.6-3.8,0.2-4.5,1.8c-0.2,0.5-0.3,1-0.3,1.5c-0.8-0.3-1.6-0.4-2.5-0.3c-1.3,0.2-2.4,0.8-3.1,1.8
				c-0.7,0.9-0.9,2-0.8,3c0.1,0.6,0.3,1.2,0.6,1.7c-0.9,0.3-1.7,0.7-2.3,1.3c-1.2,1.1-1.8,2.5-1.8,4c0,1.5,0.6,2.9,1.8,4
				c0.2,0.2,0.3,0.3,0.5,0.4c-0.2,0.2-0.4,0.4-0.5,0.7c-0.9,1.2-1.2,2.7-0.8,4.1c0.3,1.5,1.3,2.8,2.7,3.6c1,0.6,2.1,0.9,3.2,0.9
				c0.1,0,0.3,0,0.4,0c-0.1,0.9,0.1,1.8,0.5,2.6c0.6,1.1,1.7,1.9,3,2.3c0.4,0.1,0.9,0.2,1.3,0.2c0.1,0,0.2,0,0.3,0
				c0,0,3.2-0.1,4.4-3.3C22.3,34.2,22.3,34.2,22.3,34.1z M21.2,8.3c0,0.1,0,0.1,0,0.2V34c-0.6,1.8-2.7,2.8-4.7,2.3
				c-1-0.3-1.9-0.9-2.3-1.7c-0.4-0.8-0.5-1.6-0.3-2.5c0,0,0,0,0-0.1c0,0,0,0,0,0c0.5-1.6,2.2-2.6,4-2.4c0.3,0,0.6-0.2,0.6-0.5
				c0-0.3-0.2-0.6-0.5-0.6c-2.2-0.2-4.2,1-5,2.9c-1.2,0.2-2.4-0.1-3.4-0.7c-1.1-0.7-1.9-1.7-2.2-2.9c-0.2-1.1,0-2.3,0.7-3.3
				c0.2-0.4,0.5-0.7,0.9-0.9c1.1-0.9,2.6-1.3,4.1-1.1c0.3,0,0.6-0.2,0.6-0.5c0-0.3-0.2-0.6-0.5-0.6c-1.6-0.2-3.3,0.2-4.6,1.1
				C8.4,22.4,8.2,22.2,8,22c-0.9-0.8-1.4-2-1.4-3.2c0-1.2,0.5-2.3,1.4-3.2c0.7-0.7,1.7-1.1,2.7-1.3c0.6-0.1,1.2-0.1,1.8,0
				c0.3,0.1,0.6-0.1,0.6-0.4c0.1-0.3-0.1-0.6-0.4-0.6c-0.6-0.1-1.3-0.1-1.9-0.1c-0.4-0.4-0.7-1-0.8-1.6c-0.1-0.8,0.1-1.6,0.6-2.2
				C11.1,8.8,12,8.3,13,8.2C14.1,8,15.1,8.3,15.9,9c0.1,0.2,0.3,0.4,0.5,0.5c0,0,0,0,0,0c0,0,0,0,0,0c0,0,0,0,0.1,0.1c0,0,0,0,0,0
				c0,0,0.1,0,0.1,0h0c0.1,0,0.2,0,0.3,0c0,0,0,0,0,0c0,0,0.1,0,0.1,0c0,0,0,0,0,0c0,0,0,0,0,0c0.1-0.1,0.2-0.2,0.3-0.3c0,0,0,0,0,0
				c0,0,0-0.1,0-0.1c0,0,0,0,0,0c0,0,0-0.1,0-0.1v0c0,0,0-0.1,0-0.1c0,0,0,0,0,0c0,0,0-0.1,0-0.1c0,0,0,0,0,0c0,0,0,0,0,0
				c0,0,0,0,0,0c0,0,0,0,0,0c0,0,0,0,0,0c0,0,0,0,0,0c-0.1-0.2-0.3-0.4-0.5-0.5c-0.4-0.6-0.5-1.3-0.2-1.9c0.5-1.1,1.9-1.6,3.2-1.2
				c0.6,0.2,1.1,0.7,1.4,1.4C21.4,7.2,21.5,7.8,21.2,8.3z"/>
			<path id="XMLID_2065_" class="st0" d="M19.2,24.8c-1.1,1-2.4,1.4-3.8,1.4c-0.4,0-0.8,0-1.1-0.1c-0.4,0.2-1.7,0.9-2.2,3
				c-0.1,0.3-0.3,0.4-0.5,0.4c0,0-0.1,0-0.1,0c-0.3-0.1-0.5-0.4-0.4-0.7c0.4-1.6,1.2-2.6,1.8-3.2c-1.2-0.4-1.9-0.9-2-1
				c-0.3-0.2-0.3-0.5-0.2-0.8c0.2-0.3,0.5-0.3,0.8-0.2c0,0,1.1,0.7,2.5,1.1c1.8,0.4,3.4,0.1,4.6-1c0.2-0.2,0.6-0.2,0.8,0
				C19.4,24.3,19.4,24.6,19.2,24.8z"/>
			<path id="XMLID_2064_" class="st0" d="M19.1,18.8c-0.7,0.2-1.3,0.3-2,0.3c-1.1,0-2.1-0.3-3.1-0.9c-0.4,0-2,0.2-3.4,2
				c-0.1,0.1-0.3,0.2-0.4,0.2c-0.1,0-0.2,0-0.3-0.1c-0.2-0.2-0.3-0.5-0.1-0.8c1.1-1.4,2.2-2,3.1-2.2c-0.9-0.8-1.4-1.5-1.4-1.6
				c-0.2-0.3-0.1-0.6,0.2-0.8c0.3-0.2,0.6-0.1,0.8,0.2c0.1,0.1,0.8,1.2,2.1,2c0.1,0,0.1,0.1,0.2,0.1c1.1,0.7,2.5,1.1,4.2,0.5
				c0.3-0.1,0.6,0.1,0.7,0.3C19.5,18.4,19.4,18.7,19.1,18.8z"/>
			<path id="XMLID_2063_" class="st0" d="M20.6,12.6c-0.1,0.2-0.3,0.3-0.5,0.3c-0.1,0-0.2,0-0.3-0.1c-2.1-1.2-1.8-3.5-1.3-4.5
				C18.7,8,19.1,7.8,19.3,8c0.3,0.1,0.4,0.5,0.3,0.7c0,0-0.3,0.6-0.3,1.2c0,0.8,0.4,1.4,1.1,1.9C20.7,12,20.8,12.3,20.6,12.6z"/>
			<path id="XMLID_2062_" class="st0" d="M18.1,15.5c0,0-0.1,0-0.1,0c-0.3,0-0.5-0.2-0.5-0.4c-0.7-3.3-4.2-2.8-4.4-2.7
				c-0.3,0.1-0.6-0.2-0.6-0.5c-0.1-0.3,0.1-0.6,0.5-0.6c0,0,1.2-0.2,2.4,0.1c1.2,0.3,2.7,1.2,3.2,3.5C18.6,15.2,18.4,15.4,18.1,15.5
				z"/>
			<path id="XMLID_2061_" class="st0" d="M20.3,31.3c-2.1,0.3-2.2,2.4-2.2,2.5c0,0.3-0.3,0.5-0.6,0.5c0,0,0,0,0,0
				c-0.3,0-0.5-0.3-0.5-0.6c0-1.1,0.8-3.3,3.2-3.6c0.3,0,0.6,0.2,0.6,0.5C20.8,31,20.6,31.3,20.3,31.3z"/>
			<path id="XMLID_2060_" class="st0" d="M20.3,22.1c-0.2,0.2-0.5,0.3-0.8,0.1c-1.6-1.3-3.5,0-3.6,0.1c-0.1,0.1-0.2,0.1-0.3,0.1
				c-0.2,0-0.3-0.1-0.5-0.2c-0.2-0.3-0.1-0.6,0.1-0.8c0.9-0.7,3.2-1.5,5,0C20.5,21.6,20.5,21.9,20.3,22.1z"/>
		</g>
		<g id="XMLID_2029_">
			<path id="XMLID_2036_" class="st0" d="M23.7,34.3c1.2,3.2,4.4,3.3,4.4,3.3c0.1,0,0.2,0,0.3,0c0.4,0,0.9-0.1,1.3-0.2
				c1.3-0.3,2.4-1.2,3-2.3c0.5-0.8,0.6-1.7,0.5-2.6c0.1,0,0.3,0,0.4,0c1.1,0,2.2-0.3,3.2-0.9c1.4-0.8,2.4-2.1,2.7-3.6
				c0.3-1.4,0-2.9-0.8-4.1c-0.2-0.2-0.3-0.5-0.5-0.7c0.2-0.1,0.4-0.3,0.5-0.4c1.2-1.1,1.8-2.5,1.8-4c0-1.5-0.6-2.9-1.8-4
				c-0.7-0.6-1.5-1.1-2.3-1.3c0.3-0.5,0.6-1.1,0.6-1.7c0.2-1.1-0.1-2.2-0.8-3c-0.7-1-1.9-1.6-3.1-1.8c-0.8-0.1-1.7,0-2.5,0.3
				c0-0.5-0.1-1-0.3-1.5c-0.7-1.6-2.7-2.4-4.5-1.8c-0.9,0.3-1.6,1-2.1,2c-0.4,0.8-0.4,1.7-0.1,2.5v25.5c0,0,0,0,0,0
				C23.7,34.2,23.7,34.2,23.7,34.3z M24.9,6.6c0.3-0.7,0.8-1.2,1.4-1.4c1.3-0.4,2.7,0.1,3.2,1.2c0.3,0.6,0.2,1.4-0.2,1.9
				c-0.2,0.2-0.3,0.3-0.5,0.5c0,0,0,0,0,0c0,0,0,0,0,0c0,0,0,0,0,0c0,0,0,0,0,0c0,0,0,0,0,0c0,0,0,0,0,0c0,0,0,0.1,0,0.1
				c0,0,0,0,0,0c0,0,0,0.1,0,0.1v0c0,0,0,0.1,0,0.1c0,0,0,0,0,0c0,0,0,0.1,0,0.1c0,0,0,0,0,0c0,0.1,0.1,0.2,0.3,0.3c0,0,0,0,0,0
				c0,0,0,0,0,0c0,0,0.1,0,0.1,0c0,0,0,0,0,0c0.1,0,0.2,0,0.3,0h0c0,0,0.1,0,0.1,0c0,0,0,0,0,0c0,0,0.1,0,0.1-0.1c0,0,0,0,0,0
				c0,0,0,0,0,0c0.2-0.2,0.3-0.3,0.5-0.5c0.8-0.7,1.9-1,2.9-0.9c1,0.1,1.8,0.6,2.4,1.4c0.5,0.6,0.7,1.4,0.6,2.2
				c-0.1,0.6-0.4,1.1-0.8,1.6c-0.6-0.1-1.3,0-1.9,0.1c-0.3,0.1-0.5,0.3-0.4,0.6c0.1,0.3,0.3,0.5,0.6,0.4c0.6-0.1,1.2-0.1,1.8,0
				c1,0.2,2,0.6,2.7,1.3c0.9,0.8,1.4,2,1.4,3.2c0,1.2-0.5,2.3-1.4,3.2c-0.2,0.2-0.4,0.4-0.7,0.5c-1.3-0.9-3-1.3-4.6-1.1
				c-0.3,0-0.5,0.3-0.5,0.6c0,0.3,0.3,0.5,0.6,0.5c1.5-0.2,3,0.2,4.1,1.1c0.3,0.3,0.6,0.6,0.9,0.9c0.7,1,0.9,2.1,0.7,3.3
				c-0.3,1.2-1,2.2-2.2,2.9c-1,0.6-2.2,0.8-3.4,0.7c-0.8-1.9-2.8-3.1-5-2.9c-0.3,0-0.5,0.3-0.5,0.6c0,0.3,0.3,0.5,0.6,0.5
				c1.8-0.2,3.5,0.9,4,2.4c0,0,0,0,0,0c0,0,0,0,0,0.1c0.3,0.8,0.2,1.7-0.3,2.5c-0.5,0.8-1.3,1.5-2.3,1.7c-2,0.5-4.1-0.5-4.7-2.3V8.5
				c0-0.1,0-0.2,0-0.2C24.6,7.8,24.6,7.2,24.9,6.6z"/>
			<path id="XMLID_2035_" class="st0" d="M26.8,24.8c1.1,1,2.4,1.4,3.8,1.4c0.4,0,0.8,0,1.1-0.1c0.4,0.2,1.7,0.9,2.2,3
				c0.1,0.3,0.3,0.4,0.5,0.4c0,0,0.1,0,0.1,0c0.3-0.1,0.5-0.4,0.4-0.7c-0.4-1.6-1.2-2.6-1.8-3.2c1.2-0.4,1.9-0.9,2-1
				c0.3-0.2,0.3-0.5,0.2-0.8c-0.2-0.3-0.5-0.3-0.8-0.2c0,0-1.1,0.7-2.5,1.1c-1.8,0.4-3.4,0.1-4.6-1c-0.2-0.2-0.6-0.2-0.8,0
				C26.6,24.3,26.6,24.6,26.8,24.8z"/>
			<path id="XMLID_2034_" class="st0" d="M26.9,18.8c0.7,0.2,1.3,0.3,2,0.3c1.1,0,2.1-0.3,3.1-0.9c0.4,0,2,0.2,3.4,2
				c0.1,0.1,0.3,0.2,0.4,0.2c0.1,0,0.2,0,0.3-0.1c0.2-0.2,0.3-0.5,0.1-0.8c-1.1-1.4-2.2-2-3.1-2.2c0.9-0.8,1.4-1.5,1.4-1.6
				c0.2-0.3,0.1-0.6-0.2-0.8c-0.3-0.2-0.6-0.1-0.8,0.2c-0.1,0.1-0.8,1.2-2.1,2c-0.1,0-0.1,0.1-0.2,0.1c-1.1,0.7-2.5,1.1-4.2,0.5
				c-0.3-0.1-0.6,0.1-0.7,0.3C26.5,18.4,26.6,18.7,26.9,18.8z"/>
			<path id="XMLID_2033_" class="st0" d="M25.4,12.6c0.1,0.2,0.3,0.3,0.5,0.3c0.1,0,0.2,0,0.3-0.1c2.1-1.2,1.8-3.5,1.3-4.5
				C27.3,8,27,7.8,26.7,8c-0.3,0.1-0.4,0.5-0.3,0.7c0,0,0.3,0.6,0.3,1.2c0,0.8-0.4,1.4-1.1,1.9C25.3,12,25.2,12.3,25.4,12.6z"/>
			<path id="XMLID_2032_" class="st0" d="M27.9,15.5c0,0,0.1,0,0.1,0c0.3,0,0.5-0.2,0.5-0.4c0.7-3.3,4.2-2.8,4.4-2.7
				c0.3,0.1,0.6-0.2,0.6-0.5c0.1-0.3-0.1-0.6-0.5-0.6c0,0-1.2-0.2-2.4,0.1c-1.2,0.3-2.7,1.2-3.2,3.5C27.4,15.2,27.6,15.4,27.9,15.5z
				"/>
			<path id="XMLID_2031_" class="st0" d="M25.7,31.3c2.1,0.3,2.2,2.4,2.2,2.5c0,0.3,0.3,0.5,0.6,0.5c0,0,0,0,0,0
				c0.3,0,0.5-0.3,0.5-0.6c0-1.1-0.8-3.3-3.2-3.6c-0.3,0-0.6,0.2-0.6,0.5C25.2,31,25.4,31.3,25.7,31.3z"/>
			<path id="XMLID_2030_" class="st0" d="M25.7,22.1c0.2,0.2,0.5,0.3,0.8,0.1c1.6-1.3,3.5,0,3.6,0.1c0.1,0.1,0.2,0.1,0.3,0.1
				c0.2,0,0.3-0.1,0.5-0.2c0.2-0.3,0.1-0.6-0.1-0.8c-0.9-0.7-3.2-1.5-5,0C25.5,21.6,25.5,21.9,25.7,22.1z"/>
		</g>
	</g>
</g>
</svg>
