<svg width="23" height="23" viewBox="0 0 23 23" fill="none" xmlns="http://www.w3.org/2000/svg">
<path d="M22.0154 0.878408C21.8042 0.741388 21.5682 0.647304 21.3207 0.601532C21.0732 0.55576 20.8191 0.559196 20.573 0.611643C20.3268 0.664091 20.0934 0.764523 19.8861 0.907201C19.6787 1.04988 19.5015 1.23201 19.3646 1.44319L8.62488 17.9974L3.38727 13.1547C3.20248 12.9838 2.98584 12.851 2.74973 12.7639C2.51362 12.6767 2.26266 12.6369 2.01118 12.6468C1.50328 12.6667 1.02409 12.8875 0.679016 13.2607C0.333944 13.6339 0.151258 14.1289 0.171147 14.6368C0.191036 15.1447 0.411872 15.6239 0.785072 15.969L7.66207 22.3272C7.66207 22.3272 7.85949 22.4971 7.95085 22.5565C8.16199 22.6937 8.39809 22.7878 8.64564 22.8337C8.89319 22.8795 9.14735 22.8761 9.39359 22.8236C9.63982 22.7712 9.87331 22.6707 10.0807 22.528C10.2881 22.3852 10.4653 22.203 10.6022 21.9918L22.5801 3.52916C22.7171 3.31804 22.8112 3.08199 22.857 2.83451C22.9028 2.58702 22.8993 2.33294 22.8469 2.08678C22.7944 1.84062 22.694 1.6072 22.5513 1.39987C22.4087 1.19253 22.2265 1.01534 22.0154 0.878408Z" fill="white"/>
</svg>
