<svg width="24" height="24" viewBox="0 0 24 24" fill="none" xmlns="http://www.w3.org/2000/svg">
<path d="M20.9731 17.6971C20.9731 18.0211 20.9011 18.3541 20.7481 18.6781C20.5951 19.0021 20.3971 19.3081 20.1361 19.5961C19.6951 20.0821 19.2091 20.4331 18.6601 20.6581C18.1201 20.8831 17.5351 21.0001 16.9051 21.0001C15.9871 21.0001 15.0061 20.7841 13.9711 20.3431C12.9361 19.9021 11.9011 19.3081 10.8751 18.5611C9.84005 17.8051 8.85904 16.9681 7.92303 16.0411C6.99603 15.1051 6.15902 14.1241 5.41202 13.0981C4.67401 12.0721 4.08001 11.0461 3.648 10.029C3.216 9.00304 3 8.02203 3 7.08603C3 6.47402 3.108 5.88902 3.324 5.34902C3.54 4.80001 3.88201 4.29601 4.35901 3.84601C4.93501 3.279 5.56502 3 6.23102 3C6.48302 3 6.73503 3.054 6.96003 3.162C7.19403 3.27 7.40103 3.432 7.56303 3.666L9.65105 6.60902C9.81305 6.83403 9.93005 7.04103 10.011 7.23903C10.092 7.42803 10.137 7.61703 10.137 7.78803C10.137 8.00403 10.074 8.22004 9.94805 8.42704C9.83105 8.63404 9.66005 8.85004 9.44404 9.06604L8.76004 9.77705C8.66104 9.87605 8.61604 9.99305 8.61604 10.137C8.61604 10.209 8.62504 10.272 8.64304 10.344C8.67004 10.4161 8.69704 10.4701 8.71504 10.5241C8.87704 10.8211 9.15604 11.2081 9.55204 11.6761C9.95705 12.1441 10.389 12.6211 10.8571 13.0981C11.3431 13.5751 11.8111 14.0161 12.2881 14.4211C12.7561 14.8171 13.1431 15.0871 13.4491 15.2491C13.4941 15.2671 13.5481 15.2941 13.6111 15.3211C13.6831 15.3481 13.7551 15.3571 13.8361 15.3571C13.9891 15.3571 14.1061 15.3031 14.2051 15.2041L14.8891 14.5291C15.1141 14.3041 15.3301 14.1331 15.5371 14.0251C15.7441 13.8991 15.9511 13.8361 16.1761 13.8361C16.3471 13.8361 16.5271 13.8721 16.7251 13.9531C16.9231 14.0341 17.1301 14.1511 17.3551 14.3041L20.3341 16.4191C20.5681 16.5811 20.7301 16.7701 20.8291 16.9951C20.9191 17.2201 20.9731 17.4451 20.9731 17.6971Z" stroke="#002AB0" stroke-width="1.5" stroke-miterlimit="10"/>
</svg>
