<svg width="24" height="25" viewBox="0 0 24 25" fill="none" xmlns="http://www.w3.org/2000/svg">
<path fill-rule="evenodd" clip-rule="evenodd" d="M2.80379 8.85317C2.52364 11.4561 2.53613 14.4581 2.92595 17.0504C3.14165 18.4848 4.31232 19.5844 5.75739 19.71L7.26762 19.8413C10.4167 20.1151 13.5835 20.1151 16.7326 19.8413L18.2428 19.71C19.6879 19.5844 20.8585 18.4848 21.0742 17.0504C21.4641 14.458 21.4766 11.4562 21.1964 8.85333C21.1602 8.55157 21.1195 8.25021 21.0742 7.94936C20.8585 6.51497 19.6879 5.41533 18.2428 5.28971L16.7326 5.15843C13.5835 4.88469 10.4167 4.88469 7.26762 5.15843L5.75739 5.28971C4.31232 5.41533 3.14165 6.51497 2.92595 7.94936C2.88072 8.25016 2.84 8.55146 2.80379 8.85317ZM7.39752 6.6528C10.4601 6.38657 13.5401 6.38657 16.6027 6.65279L18.1129 6.78408C18.8672 6.84965 19.4783 7.42367 19.5909 8.17242C19.6026 8.25018 19.614 8.32797 19.6251 8.4058L14.064 11.4952C12.7805 12.2084 11.2197 12.2084 9.93608 11.4952L4.37514 8.40583C4.3862 8.328 4.39758 8.25019 4.40928 8.17242C4.52187 7.42367 5.13296 6.84965 5.88729 6.78408L7.39752 6.6528ZM19.8086 10.0198C20.0026 12.2875 19.93 14.5724 19.5909 16.8273C19.4783 17.5761 18.8672 18.1501 18.1129 18.2157L16.6027 18.347C13.5401 18.6132 10.4601 18.6132 7.39753 18.347L5.88729 18.2157C5.13296 18.1501 4.52187 17.5761 4.40928 16.8273C4.07019 14.5724 3.99763 12.2875 4.19159 10.0198L9.20762 12.8065C10.9442 13.7713 13.0559 13.7713 14.7925 12.8065L19.8086 10.0198Z" fill="#002AB0"/>
</svg>
