<svg width="24" height="25" viewBox="0 0 24 25" fill="none" xmlns="http://www.w3.org/2000/svg">
<path fill-rule="evenodd" clip-rule="evenodd" d="M14.9635 16.5242C12.3132 18.6468 8.43381 18.4798 5.97703 16.023C3.34099 13.3869 3.34099 9.11307 5.97703 6.47703C8.61307 3.84099 12.8869 3.84099 15.523 6.47703C17.9798 8.93381 18.1468 12.8132 16.0242 15.4635L20.0784 19.5784C20.3713 19.8713 20.3713 20.3462 20.0784 20.6391C19.7856 20.932 19.3107 20.932 19.0178 20.6391L14.9635 16.5242ZM7.03769 14.9623C4.98744 12.9121 4.98744 9.58794 7.03769 7.53769C9.08794 5.48744 12.4121 5.48744 14.4623 7.53769C16.5111 9.58644 16.5126 12.9072 14.4668 14.9578C14.4653 14.9593 14.4638 14.9608 14.4623 14.9623C14.4608 14.9638 14.4593 14.9653 14.4578 14.9668C12.4072 17.0126 9.08644 17.0111 7.03769 14.9623Z" fill="#7E828E"/>
</svg>
