<svg width="12" height="12" viewBox="0 0 12 12" fill="none" xmlns="http://www.w3.org/2000/svg">
<path d="M10.9598 6.37153C9.94979 4.02653 8.04979 2.57153 5.99979 2.57153C3.94979 2.57153 2.04979 4.02653 1.03979 6.37153C1.01226 6.43462 0.998047 6.5027 0.998047 6.57153C0.998047 6.64036 1.01226 6.70845 1.03979 6.77153C2.04979 9.11653 3.94979 10.5715 5.99979 10.5715C8.04979 10.5715 9.94979 9.11653 10.9598 6.77153C10.9873 6.70845 11.0015 6.64036 11.0015 6.57153C11.0015 6.5027 10.9873 6.43462 10.9598 6.37153ZM5.99979 9.57153C4.41479 9.57153 2.91479 8.42653 2.04979 6.57153C2.91479 4.71653 4.41479 3.57153 5.99979 3.57153C7.58479 3.57153 9.08479 4.71653 9.94979 6.57153C9.08479 8.42653 7.58479 9.57153 5.99979 9.57153ZM5.99979 4.57153C5.60423 4.57153 5.21755 4.68883 4.88865 4.90859C4.55975 5.12836 4.30341 5.44071 4.15203 5.80617C4.00065 6.17162 3.96105 6.57375 4.03822 6.96171C4.11539 7.34968 4.30587 7.70604 4.58558 7.98575C4.86528 8.26545 5.22165 8.45593 5.60961 8.5331C5.99757 8.61027 6.3997 8.57067 6.76516 8.41929C7.13061 8.26792 7.44297 8.01157 7.66273 7.68267C7.88249 7.35378 7.99979 6.9671 7.99979 6.57153C7.99979 6.0411 7.78908 5.53239 7.414 5.15732C7.03893 4.78225 6.53022 4.57153 5.99979 4.57153ZM5.99979 7.57153C5.80201 7.57153 5.60867 7.51288 5.44422 7.403C5.27977 7.29312 5.1516 7.13694 5.07591 6.95422C5.00022 6.77149 4.98042 6.57042 5.019 6.37644C5.05759 6.18246 5.15283 6.00428 5.29268 5.86443C5.43254 5.72457 5.61072 5.62933 5.8047 5.59075C5.99868 5.55216 6.19975 5.57197 6.38247 5.64765C6.5652 5.72334 6.72138 5.85151 6.83126 6.01596C6.94114 6.18041 6.99979 6.37375 6.99979 6.57153C6.99979 6.83675 6.89443 7.0911 6.7069 7.27864C6.51936 7.46618 6.26501 7.57153 5.99979 7.57153Z" fill="#888888"/>
</svg>
