<svg width="31" height="31" viewBox="0 0 31 31" fill="none" xmlns="http://www.w3.org/2000/svg">
<path d="M21.9557 1.24748V11.664H0V1.49698C0 0.558249 0.558249 0 1.24748 0H20.7082C21.3975 0 21.9557 0.558249 21.9557 1.24748Z" fill="#50758D"/>
<path d="M21.9557 11.664V27.1328C21.9557 27.8221 21.3975 28.3803 20.7082 28.3803H1.24748C0.558249 28.3803 0 27.8221 0 27.3823V11.664H21.9557Z" fill="#50758D"/>
<path d="M3.11865 8.29577V3.3682C3.11865 2.88593 3.50961 2.49496 3.99189 2.49496H19.2112C19.6935 2.49496 20.0844 2.88593 20.0844 3.3682V8.29577C20.0844 8.77805 19.6935 9.16901 19.2112 9.16901H3.99189C3.50961 9.16901 3.11865 8.77805 3.11865 8.29577Z" fill="#2EDFFC"/>
<path d="M5.23938 9.16901H3.99189C3.50974 9.16901 3.11865 8.77792 3.11865 8.29577V3.3682C3.11865 2.88605 3.50974 2.49496 3.99189 2.49496H5.23938C4.75722 2.49496 4.36614 2.88605 4.36614 3.3682V8.29577C4.36614 8.77792 4.75722 9.16901 5.23938 9.16901Z" fill="#27BDF3"/>
<path d="M20.022 15.0322V20.0222H11.5703V14.159H19.1488C19.6309 14.159 20.022 14.5501 20.022 15.0322Z" fill="#F5F5F5"/>
<path d="M11.5704 14.159V20.0222H3.11865V15.157C3.11865 14.5501 3.50974 14.159 3.99189 14.159H11.5704Z" fill="#F5F5F5"/>
<path d="M11.5704 20.0222V25.8853H3.99189C3.50974 25.8853 3.11865 25.4943 3.11865 25.1369V20.0222H11.5704Z" fill="#F5F5F5"/>
<path d="M20.022 20.0222V25.0121C20.022 25.4943 19.6309 25.8853 19.1488 25.8853H11.5703V20.0222H20.022Z" fill="#F5F5F5"/>
<path d="M19.1489 13.6911H11.5704H3.99193C3.2274 13.6911 2.65088 14.3213 2.65088 15.1569V20.0221V25.1368C2.65088 25.7847 3.27755 26.3531 3.99193 26.3531H11.5704H19.1489C19.8883 26.3531 20.4899 25.7515 20.4899 25.0121V20.0221V15.0322C20.4899 14.2927 19.8883 13.6911 19.1489 13.6911ZM19.5543 15.0322V19.5543H12.0382V14.6268H19.1489C19.3724 14.6268 19.5543 14.8086 19.5543 15.0322ZM3.58649 15.1569C3.58649 14.8398 3.74941 14.6268 3.99193 14.6268H11.1026V19.5543H3.58649V15.1569ZM3.58649 25.1368V20.4899H11.1026V25.4175H3.99193C3.75771 25.4175 3.58649 25.2205 3.58649 25.1368ZM19.5543 25.0121C19.5543 25.2356 19.3724 25.4175 19.1489 25.4175H12.0382V20.4899H19.5543V25.0121Z" fill="#E6E6E6"/>
<path d="M9.35604 23.4216H5.98783C5.72941 23.4216 5.52002 23.2122 5.52002 22.9538C5.52002 22.6953 5.72941 22.486 5.98783 22.486H9.35604C9.61445 22.486 9.82384 22.6953 9.82384 22.9538C9.82384 23.2122 9.61445 23.4216 9.35604 23.4216Z" fill="#2B597F"/>
<path d="M9.0443 16.6228H8.13988V15.7183C8.13988 15.4599 7.93049 15.2505 7.67207 15.2505C7.41365 15.2505 7.20426 15.4599 7.20426 15.7183V16.6228H6.29984C6.04142 16.6228 5.83203 16.8322 5.83203 17.0906C5.83203 17.349 6.04142 17.5584 6.29984 17.5584H7.20426V18.4628C7.20426 18.7212 7.41365 18.9306 7.67207 18.9306C7.93049 18.9306 8.13988 18.7212 8.13988 18.4628V17.5584H9.0443C9.30272 17.5584 9.51211 17.349 9.51211 17.0906C9.51211 16.8322 9.30272 16.6228 9.0443 16.6228Z" fill="#2B597F"/>
<path d="M16.1618 17.0906L16.8013 16.451C16.984 16.2683 16.984 15.9721 16.8013 15.7894C16.6185 15.6068 16.3224 15.6068 16.1397 15.7894L15.5002 16.429L14.8606 15.7894C14.6779 15.6068 14.3817 15.6068 14.199 15.7894C14.0163 15.9722 14.0163 16.2684 14.199 16.451L14.8386 17.0906L14.199 17.7301C14.0163 17.9129 14.0163 18.209 14.199 18.3917C14.2904 18.483 14.4102 18.5287 14.5299 18.5287C14.6496 18.5287 14.7693 18.483 14.8607 18.3917L15.5002 17.7522L16.1397 18.3917C16.2311 18.483 16.3509 18.5287 16.4706 18.5287C16.5903 18.5287 16.71 18.483 16.8014 18.3917C16.9841 18.2089 16.9841 17.9128 16.8014 17.7301L16.1618 17.0906Z" fill="#2B597F"/>
<path d="M17.6518 7.82792H16.7786C16.1767 7.82792 15.687 7.33822 15.687 6.73637V4.92752C15.687 4.32567 16.1767 3.83597 16.7786 3.83597H17.6518C18.2536 3.83597 18.7433 4.32567 18.7433 4.92752V6.73637C18.7433 7.33822 18.2536 7.82792 17.6518 7.82792ZM16.7786 4.77158C16.6925 4.77158 16.6226 4.8415 16.6226 4.92752V6.73637C16.6226 6.82238 16.6925 6.89231 16.7786 6.89231H17.6518C17.7378 6.89231 17.8077 6.82238 17.8077 6.73637V4.92752C17.8077 4.8415 17.7378 4.77158 17.6518 4.77158H16.7786Z" fill="#2B597F"/>
<path d="M21.9557 11.664V10.2606H2.1831C1.83861 10.2606 1.55936 9.98131 1.55936 9.63682V1.49698C1.55936 0.558249 2.11761 0 2.80684 0H1.24748C0.558249 0 0 0.558249 0 1.49698V10.2606V11.664V27.3823C0 27.822 0.558249 28.3803 1.24748 28.3803H2.80684C2.11761 28.3803 1.55936 27.822 1.55936 27.3823V12.2877C1.55936 11.9432 1.83861 11.664 2.1831 11.664H21.9557Z" fill="#2B597F"/>
<path d="M24.5754 19.2112C28.1236 19.2112 31 18.5689 31 17.7766C31 16.9843 28.1236 16.342 24.5754 16.342C21.0272 16.342 18.1509 16.9843 18.1509 17.7766C18.1509 18.5689 21.0272 19.2112 24.5754 19.2112Z" fill="#FAD207"/>
<path d="M31 26.6182V29.5654C31 30.501 28.1239 31 24.5754 31C21.027 31 18.1509 30.501 18.1509 29.5654V26.6182C18.1509 27.5538 21.027 28.0528 24.5754 28.0528C28.1239 28.0528 31 27.5538 31 26.6182Z" fill="#FAD207"/>
<path d="M31 23.6709V26.6181C31 27.5537 28.1239 28.0527 24.5754 28.0527C21.027 28.0527 18.1509 27.5537 18.1509 26.6181V23.6709C18.1509 24.6065 21.027 25.1055 24.5754 25.1055C28.1239 25.1055 31 24.6065 31 23.6709Z" fill="#FAA515"/>
<path d="M31 20.7239V23.6711C31 24.6067 28.1239 25.1057 24.5754 25.1057C21.027 25.1057 18.1509 24.6067 18.1509 23.6711V20.7239C18.1509 21.6595 21.027 22.1585 24.5754 22.1585C28.1239 22.1585 31 21.6595 31 20.7239Z" fill="#FAD207"/>
<path d="M31 17.7766V20.7238C31 21.6594 28.1239 22.1584 24.5754 22.1584C21.027 22.1584 18.1509 21.6594 18.1509 20.7238V17.7766C18.1509 18.7122 21.027 19.2112 24.5754 19.2112C28.1239 19.2112 31 18.7122 31 17.7766Z" fill="#FAA515"/>
<path d="M14.4488 24.491C14.3291 24.491 14.2094 24.4454 14.118 24.3541C13.9353 24.1713 13.9353 23.8752 14.118 23.6925L16.2387 21.5717C16.4215 21.3891 16.7176 21.3891 16.9003 21.5717C17.083 21.7545 17.083 22.0507 16.9003 22.2333L14.7796 24.3541C14.6883 24.4454 14.5685 24.491 14.4488 24.491Z" fill="#2B597F"/>
<path d="M14.5957 22.2365C14.8541 22.2365 15.0635 22.027 15.0635 21.7686C15.0635 21.5103 14.8541 21.3008 14.5957 21.3008C14.3374 21.3008 14.1279 21.5103 14.1279 21.7686C14.1279 22.027 14.3374 22.2365 14.5957 22.2365Z" fill="#2B597F"/>
<path d="M16.4668 24.6065C16.7252 24.6065 16.9346 24.3971 16.9346 24.1387C16.9346 23.8804 16.7252 23.6709 16.4668 23.6709C16.2085 23.6709 15.999 23.8804 15.999 24.1387C15.999 24.3971 16.2085 24.6065 16.4668 24.6065Z" fill="#2B597F"/>
</svg>
