<svg width="31" height="31" viewBox="0 0 31 31" fill="none" xmlns="http://www.w3.org/2000/svg">
<g clip-path="url(#clip0)">
<path d="M19.6636 31H5.44222C4.0643 31 2.94727 29.883 2.94727 28.505V2.49496C2.94727 1.11703 4.0643 0 5.44222 0H19.6635C21.0415 0 22.1585 1.11703 22.1585 2.49496V28.505C22.1585 29.883 21.0415 31 19.6636 31Z" fill="#3D6D93"/>
<path d="M19.6637 0H17.7925C19.1704 0 20.2874 1.11703 20.2874 2.49496V28.505C20.2874 29.883 19.1704 31 17.7925 31H19.6637C21.0416 31 22.1586 29.883 22.1586 28.505V2.49496C22.1586 1.11703 21.0416 0 19.6637 0V0Z" fill="#335E80"/>
<path d="M17.1344 2.3703C17.1344 2.83603 16.7569 3.21354 16.2911 3.21354H8.81445C8.34873 3.21354 7.97122 2.83603 7.97122 2.3703C7.97122 2.09469 7.7478 1.87134 7.47225 1.87134H5.75399C5.23728 1.87134 4.81836 2.2902 4.81836 2.80697V28.1933C4.81836 28.71 5.23722 29.1289 5.75399 29.1289H19.3515C19.8683 29.1289 20.2872 28.7101 20.2872 28.1933V2.80691C20.2872 2.2902 19.8683 1.87128 19.3515 1.87128H17.6333C17.3578 1.87128 17.1344 2.09469 17.1344 2.3703Z" fill="#F9F7F8"/>
<path d="M12.5527 2.07449C12.8111 2.07449 13.0205 1.86505 13.0205 1.6067C13.0205 1.34835 12.8111 1.13892 12.5527 1.13892C12.2944 1.13892 12.085 1.34835 12.085 1.6067C12.085 1.86505 12.2944 2.07449 12.5527 2.07449Z" fill="#335E80"/>
<path d="M8.98999 7.48508H7.51108C7.36255 7.48508 7.24219 7.36471 7.24219 7.21619V5.73721C7.24219 5.58869 7.36255 5.46832 7.51108 5.46832H8.98999C9.13851 5.46832 9.25888 5.58869 9.25888 5.73721V7.21613C9.25894 7.36465 9.13851 7.48508 8.98999 7.48508Z" fill="#8FD8FA"/>
<path d="M8.98983 5.46832H8.0542C8.20272 5.46832 8.32309 5.58869 8.32309 5.73721V7.21613C8.32309 7.36465 8.20272 7.48502 8.0542 7.48502H8.98983C9.13835 7.48502 9.25872 7.36465 9.25872 7.21613V5.73721C9.25878 5.58869 9.13835 5.46832 8.98983 5.46832Z" fill="#6BCDFE"/>
<path d="M13.2922 7.48508H11.8133C11.6648 7.48508 11.5444 7.36471 11.5444 7.21619V5.73721C11.5444 5.58869 11.6648 5.46832 11.8133 5.46832H13.2922C13.4408 5.46832 13.5611 5.58869 13.5611 5.73721V7.21613C13.5611 7.36465 13.4408 7.48508 13.2922 7.48508Z" fill="#8FD8FA"/>
<path d="M17.595 7.48508H16.1161C15.9675 7.48508 15.8472 7.36471 15.8472 7.21619V5.73721C15.8472 5.58869 15.9675 5.46832 16.1161 5.46832H17.595C17.7435 5.46832 17.8639 5.58869 17.8639 5.73721V7.21613C17.8639 7.36465 17.7435 7.48508 17.595 7.48508Z" fill="#8FD8FA"/>
<path d="M13.2926 5.46832H12.3569C12.5055 5.46832 12.6258 5.58869 12.6258 5.73721V7.21613C12.6258 7.36465 12.5055 7.48502 12.3569 7.48502H13.2926C13.4411 7.48502 13.5615 7.36465 13.5615 7.21613V5.73721C13.5615 5.58869 13.4411 5.46832 13.2926 5.46832Z" fill="#6BCDFE"/>
<path d="M17.5948 5.46832H16.6592C16.8077 5.46832 16.9281 5.58869 16.9281 5.73721V7.21613C16.9281 7.36465 16.8077 7.48502 16.6592 7.48502H17.5948C17.7433 7.48502 17.8637 7.36465 17.8637 7.21613V5.73721C17.8637 5.58869 17.7433 5.46832 17.5948 5.46832Z" fill="#6BCDFE"/>
<path d="M8.98999 11.5196H7.51108C7.36255 11.5196 7.24219 11.3992 7.24219 11.2507V9.77176C7.24219 9.62324 7.36255 9.50287 7.51108 9.50287H8.98999C9.13851 9.50287 9.25888 9.62324 9.25888 9.77176V11.2506C9.25894 11.3991 9.13851 11.5196 8.98999 11.5196Z" fill="#8FD8FA"/>
<path d="M13.2922 11.5186H11.8133C11.6648 11.5186 11.5444 11.3982 11.5444 11.2497V9.77078C11.5444 9.62226 11.6648 9.50189 11.8133 9.50189H13.2922C13.4408 9.50189 13.5611 9.62226 13.5611 9.77078V11.2496C13.5611 11.3982 13.4408 11.5186 13.2922 11.5186Z" fill="#8FD8FA"/>
<path d="M17.595 11.5186H16.1161C15.9675 11.5186 15.8472 11.3982 15.8472 11.2497V9.77078C15.8472 9.62226 15.9675 9.50189 16.1161 9.50189H17.595C17.7435 9.50189 17.8639 9.62226 17.8639 9.77078V11.2496C17.8639 11.3982 17.7435 11.5186 17.595 11.5186Z" fill="#8FD8FA"/>
<path d="M8.98983 9.50183H8.0542C8.20272 9.50183 8.32309 9.6222 8.32309 9.77072V11.2496C8.32309 11.3982 8.20272 11.5185 8.0542 11.5185H8.98983C9.13835 11.5185 9.25872 11.3982 9.25872 11.2496V9.77072C9.25878 9.6222 9.13835 9.50183 8.98983 9.50183Z" fill="#6BCDFE"/>
<path d="M13.2926 9.50183H12.3569C12.5055 9.50183 12.6258 9.6222 12.6258 9.77072V11.2496C12.6258 11.3982 12.5055 11.5185 12.3569 11.5185H13.2926C13.4411 11.5185 13.5615 11.3982 13.5615 11.2496V9.77072C13.5615 9.6222 13.4411 9.50183 13.2926 9.50183Z" fill="#6BCDFE"/>
<path d="M17.5948 9.50183H16.6592C16.8077 9.50183 16.9281 9.6222 16.9281 9.77072V11.2496C16.9281 11.3982 16.8077 11.5185 16.6592 11.5185H17.5948C17.7433 11.5185 17.8637 11.3982 17.8637 11.2496V9.77072C17.8637 9.6222 17.7433 9.50183 17.5948 9.50183Z" fill="#6BCDFE"/>
<path d="M8.98999 15.5531H7.51108C7.36255 15.5531 7.24219 15.4327 7.24219 15.2842V13.8053C7.24219 13.6567 7.36255 13.5364 7.51108 13.5364H8.98999C9.13851 13.5364 9.25888 13.6567 9.25888 13.8053V15.2842C9.25894 15.4327 9.13851 15.5531 8.98999 15.5531Z" fill="#8FD8FA"/>
<path d="M13.2922 15.5521H11.8133C11.6648 15.5521 11.5444 15.4317 11.5444 15.2832V13.8043C11.5444 13.6558 11.6648 13.5354 11.8133 13.5354H13.2922C13.4408 13.5354 13.5611 13.6558 13.5611 13.8043V15.2832C13.5611 15.4317 13.4408 15.5521 13.2922 15.5521Z" fill="#8FD8FA"/>
<path d="M17.595 15.5521H16.1161C15.9675 15.5521 15.8472 15.4317 15.8472 15.2832V13.8043C15.8472 13.6558 15.9675 13.5354 16.1161 13.5354H17.595C17.7435 13.5354 17.8639 13.6558 17.8639 13.8043V15.2832C17.8639 15.4317 17.7435 15.5521 17.595 15.5521Z" fill="#8FD8FA"/>
<path d="M8.98983 13.5353H8.0542C8.20272 13.5353 8.32309 13.6557 8.32309 13.8042V15.2831C8.32309 15.4317 8.20272 15.552 8.0542 15.552H8.98983C9.13835 15.552 9.25872 15.4317 9.25872 15.2831V13.8042C9.25878 13.6558 9.13835 13.5353 8.98983 13.5353Z" fill="#6BCDFE"/>
<path d="M13.2926 13.5353H12.3569C12.5055 13.5353 12.6258 13.6557 12.6258 13.8042V15.2831C12.6258 15.4317 12.5055 15.552 12.3569 15.552H13.2926C13.4411 15.552 13.5615 15.4317 13.5615 15.2831V13.8042C13.5615 13.6558 13.4411 13.5353 13.2926 13.5353Z" fill="#6BCDFE"/>
<path d="M17.5948 13.5353H16.6592C16.8077 13.5353 16.9281 13.6557 16.9281 13.8042V15.2831C16.9281 15.4317 16.8077 15.552 16.6592 15.552H17.5948C17.7433 15.552 17.8637 15.4317 17.8637 15.2831V13.8042C17.8637 13.6558 17.7433 13.5353 17.5948 13.5353Z" fill="#6BCDFE"/>
<path d="M8.98999 19.5865H7.51108C7.36255 19.5865 7.24219 19.4661 7.24219 19.3176V17.8386C7.24219 17.6901 7.36255 17.5698 7.51108 17.5698H8.98999C9.13851 17.5698 9.25888 17.6901 9.25888 17.8386V19.3176C9.25894 19.466 9.13851 19.5865 8.98999 19.5865Z" fill="#8FD8FA"/>
<path d="M13.2922 19.5855H11.8133C11.6648 19.5855 11.5444 19.4651 11.5444 19.3166V17.8377C11.5444 17.6892 11.6648 17.5688 11.8133 17.5688H13.2922C13.4408 17.5688 13.5611 17.6892 13.5611 17.8377V19.3166C13.5611 19.4651 13.4408 19.5855 13.2922 19.5855Z" fill="#8FD8FA"/>
<path d="M17.595 19.5855H16.1161C15.9675 19.5855 15.8472 19.4651 15.8472 19.3166V17.8377C15.8472 17.6892 15.9675 17.5688 16.1161 17.5688H17.595C17.7435 17.5688 17.8639 17.6892 17.8639 17.8377V19.3166C17.8639 19.4651 17.7435 19.5855 17.595 19.5855Z" fill="#8FD8FA"/>
<path d="M8.98983 17.5687H8.0542C8.20272 17.5687 8.32309 17.6891 8.32309 17.8376V19.3165C8.32309 19.4651 8.20272 19.5854 8.0542 19.5854H8.98983C9.13835 19.5854 9.25872 19.4651 9.25872 19.3165V17.8376C9.25878 17.6891 9.13835 17.5687 8.98983 17.5687Z" fill="#6BCDFE"/>
<path d="M13.2926 17.5687H12.3569C12.5055 17.5687 12.6258 17.6891 12.6258 17.8376V19.3165C12.6258 19.4651 12.5055 19.5854 12.3569 19.5854H13.2926C13.4411 19.5854 13.5615 19.4651 13.5615 19.3165V17.8376C13.5615 17.6891 13.4411 17.5687 13.2926 17.5687Z" fill="#6BCDFE"/>
<path d="M17.5948 17.5687H16.6592C16.8077 17.5687 16.9281 17.6891 16.9281 17.8376V19.3165C16.9281 19.4651 16.8077 19.5854 16.6592 19.5854H17.5948C17.7433 19.5854 17.8637 19.4651 17.8637 19.3165V17.8376C17.8637 17.6891 17.7433 17.5687 17.5948 17.5687Z" fill="#6BCDFE"/>
<path d="M12.5527 27.2576C14.0879 27.2576 15.3325 26.0131 15.3325 24.4778C15.3325 22.9426 14.0879 21.6981 12.5527 21.6981C11.0175 21.6981 9.77295 22.9426 9.77295 24.4778C9.77295 26.0131 11.0175 27.2576 12.5527 27.2576Z" fill="#F58A97"/>
<path d="M12.5528 21.6981C12.2245 21.6981 11.9096 21.7554 11.6172 21.8599C12.692 22.2441 13.4613 23.2709 13.4613 24.4778C13.4613 25.6847 12.692 26.7115 11.6172 27.0956C11.9096 27.2001 12.2245 27.2575 12.5528 27.2575C14.088 27.2575 15.3326 26.0129 15.3326 24.4777C15.3326 22.9426 14.088 21.6981 12.5528 21.6981Z" fill="#F07281"/>
<path d="M12.7583 25.882C12.3714 25.8821 12.0042 25.6787 11.8016 25.345L11.4916 24.8345C11.2708 24.4707 11.2776 24.0049 11.5089 23.6476L11.5138 23.64C11.644 23.439 11.8218 23.2663 12.0273 23.1415C12.2482 23.0075 12.5358 23.0776 12.67 23.2985C12.8041 23.5193 12.7338 23.807 12.5131 23.9412C12.4273 23.9933 12.3531 24.0653 12.2986 24.1495L12.2937 24.1572C12.2566 24.2144 12.2555 24.2899 12.2914 24.349L12.6014 24.8595C12.6373 24.9185 12.7053 24.9522 12.7736 24.9458L12.7811 24.9451C12.8815 24.9355 12.9796 24.9029 13.0654 24.8508C13.2862 24.7168 13.5739 24.7871 13.708 25.008C13.8421 25.2288 13.7717 25.5166 13.5509 25.6507C13.3431 25.7768 13.1051 25.8541 12.8633 25.8772C12.8282 25.8804 12.7932 25.882 12.7583 25.882Z" fill="white"/>
<path d="M21.5994 31C25.1636 31 28.0529 28.1107 28.0529 24.5465C28.0529 20.9824 25.1636 18.0931 21.5994 18.0931C18.0353 18.0931 15.146 20.9824 15.146 24.5465C15.146 28.1107 18.0353 31 21.5994 31Z" fill="#AEE69C"/>
<path d="M21.5992 18.0931C21.2814 18.0931 20.9691 18.1164 20.6636 18.1608C23.7843 18.6141 26.1814 21.3002 26.1814 24.5465C26.1814 27.7929 23.7843 30.479 20.6636 30.9322C20.9691 30.9766 21.2814 31 21.5992 31C25.1633 31 28.0526 28.1107 28.0526 24.5465C28.0526 20.9824 25.1633 18.0931 21.5992 18.0931Z" fill="#89DAA4"/>
<path d="M25.2124 27.2825C24.7149 28.0895 23.7609 28.4958 22.8357 28.2897C21.7956 28.058 20.6647 27.4275 19.6917 26.4544C18.7184 25.4812 18.088 24.3503 17.8563 23.3102C17.6502 22.3849 18.0565 21.431 18.8634 20.9335C19.0443 20.8219 19.2781 20.8493 19.4284 20.9996L20.5445 22.1156C20.7538 22.325 20.7129 22.6749 20.4608 22.8303L20.0048 23.1115C19.8134 23.2295 19.7355 23.4688 19.8214 23.6766C20.0078 24.1276 20.3448 24.7516 20.9478 25.3318C21.4872 25.8507 22.0494 26.1516 22.4713 26.3256C22.6784 26.4111 22.917 26.3322 23.0346 26.1415L23.3159 25.6853C23.4712 25.4332 23.8212 25.3923 24.0306 25.6017L25.1464 26.7176C25.2967 26.8678 25.324 27.1016 25.2124 27.2825Z" fill="white"/>
<path d="M24.6301 20.8141H23.0512L23.4734 20.3919C23.656 20.2092 23.656 19.9131 23.4734 19.7303C23.2906 19.5477 22.9945 19.5477 22.8117 19.7303L21.591 20.951C21.4308 21.1083 21.3898 21.4144 21.5913 21.6129L22.8117 22.8334C22.9944 23.016 23.2906 23.0161 23.4733 22.8334C23.656 22.6508 23.656 22.3546 23.4734 22.1718L23.0512 21.7496H24.6301C24.8776 21.7496 25.0789 21.951 25.0789 22.1984V24.6286C25.0789 24.887 25.2883 25.0964 25.5467 25.0964C25.805 25.0964 26.0145 24.8869 26.0145 24.6286V22.1984C26.0145 21.4351 25.3934 20.8141 24.6301 20.8141Z" fill="white"/>
</g>
<defs>
<clipPath id="clip0">
<rect width="31" height="31" fill="white"/>
</clipPath>
</defs>
</svg>
