<svg width="35" height="35" viewBox="0 0 35 35" fill="none" xmlns="http://www.w3.org/2000/svg">
<path d="M22.3279 33.7931H5.43134L3.01758 15.0863H24.7417L22.3279 33.7931Z" fill="#4398D1"/>
<path d="M26.5524 12.6725H1.20752V15.0862H26.5524V12.6725Z" fill="#4398D1"/>
<path d="M3.01758 15.0863L3.32895 17.5H24.4303L24.7417 15.0863H3.01758Z" fill="#398CC4"/>
<path d="M12.6724 12.6724H4.22412V7.24143L6.63789 4.22419H10.2586L12.6724 7.24143V12.6724Z" fill="#726891"/>
<path d="M10.2579 0H6.63721V4.22412H10.2579V0Z" fill="#E8594A"/>
<path d="M12.6726 7.24124H4.22412V12.6724H12.6726V7.24124Z" fill="#7A709C"/>
<path d="M22.214 2.03752L21.1343 2.57648L23.5973 7.51083L24.677 6.97187L22.214 2.03752Z" fill="#E66712"/>
<path d="M25.9484 0H23.5347V2.41376H25.9484V0Z" fill="#F77219"/>
<path d="M20.5179 4.8276H15.0869C15.0869 2.16152 17.2484 0 19.9144 0H23.5352V2.41376L20.5179 4.8276Z" fill="#F77219"/>
<path d="M20.5162 4.8276H16.8955V7.24137H20.5162V4.8276Z" fill="#D4D4D4"/>
<path d="M16.8972 7.24136H20.5179L23.5352 10.2586V12.6724H15.0869V9.05171L16.8972 7.24136Z" fill="#EBEBEB"/>
<path d="M30.7766 25.3447H29.8316C29.2626 25.3447 28.7013 25.4775 28.192 25.7315C27.1601 26.248 25.9448 26.248 24.9129 25.7315C24.4036 25.4775 23.8424 25.3447 23.2733 25.3447H22.3283C20.6622 25.3447 19.311 26.6959 19.311 28.362V31.9827C19.311 33.6488 20.6622 34.9999 22.3283 34.9999H23.2733C23.8423 34.9999 24.4035 34.8672 24.9129 34.6132C25.9448 34.0966 27.1601 34.0966 28.192 34.6132C28.7013 34.8672 29.2625 34.9999 29.8315 34.9999H30.7765C32.4427 34.9999 33.7938 33.6488 33.7938 31.9827V28.362C33.7938 26.6959 32.4427 25.3447 30.7766 25.3447Z" fill="#F5A338"/>
<path d="M30.7766 31.3791H29.8316C29.2626 31.3791 28.7013 31.2464 28.192 30.9923C27.1601 30.4758 25.9448 30.4758 24.9129 30.9923C24.4036 31.2464 23.8424 31.3791 23.2733 31.3791H22.3283C20.6622 31.3791 19.311 30.028 19.311 28.3619C19.311 26.6957 20.6622 25.3446 22.3283 25.3446H23.2733C23.8423 25.3446 24.4035 25.4774 24.9129 25.7314C25.9448 26.2479 27.1601 26.2479 28.192 25.7314C28.7013 25.4774 29.2625 25.3446 29.8315 25.3446H30.7765C32.4427 25.3446 33.7938 26.6957 33.7938 28.3619C33.7938 30.0281 32.4427 31.3791 30.7766 31.3791Z" fill="#F9B44D"/>
<path d="M31.3778 27.1551H30.1709V28.362H31.3778V27.1551Z" fill="#F5A338"/>
<path d="M25.3436 27.1551H24.1367V28.362H25.3436V27.1551Z" fill="#F5A338"/>
<path d="M22.93 27.7587H21.7231V28.9656H22.93V27.7587Z" fill="#F5A338"/>
<path d="M28.9647 27.7587H27.7578V28.9656H28.9647V27.7587Z" fill="#F5A338"/>
<path d="M16.8959 17.4999V12.6723H7.24072V26.5516C7.24072 27.5515 8.05112 28.362 9.05108 28.362H15.0856C16.0855 28.362 16.8959 27.5516 16.8959 26.5516V20.5171L19.3459 21.7421C19.9922 22.0656 20.7779 21.8036 21.1013 21.158C21.1013 21.1574 21.1019 21.1574 21.1019 21.1567L21.117 21.1266C21.4549 20.4634 21.1907 19.6517 20.5281 19.3145C20.5257 19.3132 20.5226 19.3115 20.5196 19.3102L16.8959 17.4999Z" fill="#97D3E6"/>
<path d="M20.5206 19.3103L16.8969 17.4999V12.6723H16.4395C14.249 19.8745 10.405 24.276 7.26709 26.8177C7.39684 27.7042 8.15658 28.3613 9.05209 28.362H15.0866C16.0865 28.362 16.8969 27.5516 16.8969 26.5516V20.5171L19.3469 21.7421C19.9932 22.0656 20.7789 21.8036 21.1023 21.158C21.1023 21.1574 21.1029 21.1574 21.1029 21.1567L21.118 21.1266C21.4559 20.4634 21.1917 19.6517 20.5291 19.3145C20.526 19.3133 20.5236 19.3115 20.5206 19.3103Z" fill="#8AC9DE"/>
<path d="M10.2577 22.3274H9.05078V28.3622H10.2577V22.3274Z" fill="#7DBDD1"/>
<path d="M12.6712 22.3274H11.4644V28.3622H12.6712V22.3274Z" fill="#7DBDD1"/>
<path d="M15.0853 22.3274H13.8784V28.3622H15.0853V22.3274Z" fill="#7DBDD1"/>
</svg>
