<svg width="31" height="31" viewBox="0 0 31 31" fill="none" xmlns="http://www.w3.org/2000/svg">
<g clip-path="url(#clip0)">
<path d="M28.2583 13.1696C28.0036 13.1696 27.7649 13.2363 27.5574 13.3523C27.4423 12.0955 26.3859 11.1109 25.099 11.1109C24.1364 11.1109 23.3032 11.662 22.8958 12.4656C22.483 11.8596 21.7875 11.4617 20.999 11.4617C19.7986 11.4617 18.8141 12.384 18.714 13.5584C18.4424 12.9111 17.8027 12.4564 17.0568 12.4564C16.0646 12.4564 15.2603 13.2607 15.2603 14.2529C15.2603 15.2451 16.0646 16.0495 17.0568 16.0495V17.4644H28.2583V16.0495C29.0535 16.0495 29.6982 15.4048 29.6982 14.6095C29.6982 13.8143 29.0535 13.1696 28.2583 13.1696Z" fill="#CCF7FF"/>
<g opacity="0.1">
<path opacity="0.1" d="M16.7438 14.2529C16.7438 13.5256 17.1763 12.8996 17.7979 12.6171C17.5718 12.5144 17.3213 12.4564 17.0568 12.4564C16.0646 12.4564 15.2603 13.2607 15.2603 14.2529C15.2603 15.2451 16.0646 16.0495 17.0568 16.0495V17.4644H18.5403V16.0495C17.5481 16.0495 16.7438 15.2451 16.7438 14.2529Z" fill="black"/>
</g>
<path d="M29.6982 17.4644L27.9038 29.8337H17.0546L15.2603 17.4644H29.6982Z" fill="#FFB64D"/>
<path opacity="0.1" d="M15.2603 17.4644L17.0546 29.8337H19.7519L17.9576 17.4644H15.2603Z" fill="black"/>
<path d="M25.9908 23.3074H18.9683C18.7697 23.3074 18.5895 23.1912 18.5076 23.0104L16.0891 17.6733C15.9739 17.4189 16.0866 17.1192 16.3411 17.0039C16.5954 16.8888 16.8952 17.0014 17.0105 17.2558L19.2943 22.296H25.6647L27.9486 17.2558C28.0638 17.0015 28.3635 16.8887 28.618 17.0039C28.8724 17.1193 28.9851 17.4189 28.8699 17.6733L26.4514 23.0104C26.3695 23.1912 26.1893 23.3074 25.9908 23.3074Z" fill="#707487"/>
<path d="M18.9685 9.77795C19.8653 9.77795 20.5923 9.05094 20.5923 8.15414C20.5923 7.25734 19.8653 6.53033 18.9685 6.53033C18.0717 6.53033 17.3447 7.25734 17.3447 8.15414C17.3447 9.05094 18.0717 9.77795 18.9685 9.77795Z" fill="#CCF7FF"/>
<path opacity="0.1" d="M18.4563 8.78501C17.8698 8.28689 17.7255 7.46187 18.063 6.80591C17.6295 7.0975 17.3442 7.59254 17.3442 8.15423C17.3442 9.05111 18.0712 9.7781 18.9681 9.7781C19.5979 9.7781 20.1435 9.41936 20.4129 8.89533C19.8245 9.29082 19.0231 9.26648 18.4563 8.78501Z" fill="black"/>
<path d="M26.7998 3.95135C27.5689 3.95135 28.1924 3.32788 28.1924 2.55878C28.1924 1.78968 27.5689 1.1662 26.7998 1.1662C26.0307 1.1662 25.4072 1.78968 25.4072 2.55878C25.4072 3.32788 26.0307 3.95135 26.7998 3.95135Z" fill="#CCF7FF"/>
<path opacity="0.1" d="M27.2713 3.41183C26.5023 3.41183 25.8788 2.78832 25.8788 2.01925C25.8788 1.7971 25.9321 1.58791 26.0246 1.40161C25.6521 1.65155 25.4067 2.07641 25.4067 2.55872C25.4067 3.32779 26.0303 3.9513 26.7993 3.9513C27.3463 3.9513 27.8183 3.63519 28.046 3.17636C27.8246 3.32494 27.5581 3.41183 27.2713 3.41183Z" fill="black"/>
<path d="M24.2798 7.92291C25.0489 7.92291 25.6724 7.29943 25.6724 6.53033C25.6724 5.76123 25.0489 5.13776 24.2798 5.13776C23.5107 5.13776 22.8872 5.76123 22.8872 6.53033C22.8872 7.29943 23.5107 7.92291 24.2798 7.92291Z" fill="#CCF7FF"/>
<path opacity="0.1" d="M24.8188 7.51842C24.0497 7.51842 23.4262 6.89491 23.4262 6.12584C23.4262 5.79223 23.5437 5.48635 23.7393 5.24658C23.2384 5.45753 22.8867 5.95286 22.8867 6.53048C22.8867 7.29954 23.5102 7.92305 24.2793 7.92305C24.7149 7.92305 25.1034 7.72289 25.3587 7.40974C25.1926 7.47967 25.0103 7.51842 24.8188 7.51842Z" fill="black"/>
<path d="M14.3913 7.17493H1.30176V10.53H14.3913V7.17493Z" fill="#FF6465"/>
<path d="M14.3909 9.77814H1.30164C0.582764 9.77814 0 10.3609 0 11.0798C0 11.7986 0.582764 12.3814 1.30164 12.3814H14.391C15.1098 12.3814 15.6926 11.7986 15.6926 11.0798C15.6925 10.3609 15.1098 9.77814 14.3909 9.77814Z" fill="#AAB1C6"/>
<path opacity="0.1" d="M2.69736 11.0798C2.69736 10.3609 3.28013 9.77814 3.999 9.77814V7.17493H1.30164V9.77814C0.582764 9.77814 0 10.3609 0 11.0798C0 11.7986 0.582764 12.3814 1.30164 12.3814H3.999C3.28013 12.3814 2.69736 11.7986 2.69736 11.0798Z" fill="black"/>
<path d="M6.37939 17.9784V28.3673C6.37939 29.1772 7.03603 29.8339 7.84602 29.8339C8.65602 29.8339 9.31265 29.1773 9.31265 28.3673V17.9784H6.37939Z" fill="#FF6465"/>
<path opacity="0.1" d="M7.93036 28.3673V17.9784H6.37939V28.3673C6.37939 29.1772 7.03603 29.8339 7.84602 29.8339C8.13083 29.8339 8.39651 29.7525 8.62151 29.612C8.20658 29.3528 7.93036 28.8923 7.93036 28.3673Z" fill="black"/>
<path d="M9.31307 12.3814H6.37988V19.1646H9.31307V12.3814Z" fill="#AAB1C6"/>
<path opacity="0.1" d="M7.93085 12.3814H6.37988V19.1646H7.93085V12.3814Z" fill="black"/>
<path d="M5.79297 11.0798V12.7455C5.79297 13.8795 6.71225 14.7987 7.84617 14.7987C8.98016 14.7987 9.89938 13.8795 9.89938 12.7455V11.0798H5.79297Z" fill="#707487"/>
<path opacity="0.1" d="M7.20904 12.7454V11.0797H5.79297V12.7454C5.79297 13.8794 6.71225 14.7986 7.84617 14.7986C8.09502 14.7986 8.33351 14.7543 8.55421 14.6732C7.76916 14.3848 7.20904 13.6306 7.20904 12.7454Z" fill="black"/>
<path d="M29.6986 16.0495H15.2606C14.5417 16.0495 13.959 16.6323 13.959 17.3511C13.959 18.07 14.5417 18.6528 15.2606 18.6528H29.6986C30.4175 18.6528 31.0003 18.07 31.0003 17.3511C31.0002 16.6323 30.4175 16.0495 29.6986 16.0495Z" fill="#FFD782"/>
<path opacity="0.1" d="M15.982 17.3511C15.982 16.6323 16.5647 16.0495 17.2836 16.0495H15.2606C14.5417 16.0495 13.959 16.6323 13.959 17.3511C13.959 18.07 14.5417 18.6528 15.2606 18.6528H17.2836C16.5647 18.6527 15.982 18.0699 15.982 17.3511Z" fill="black"/>
</g>
<defs>
<clipPath id="clip0">
<rect width="31" height="31" fill="white"/>
</clipPath>
</defs>
</svg>
