<svg width="37" height="37" viewBox="0 0 37 37" fill="none" xmlns="http://www.w3.org/2000/svg">
<path d="M18.5 37C28.7173 37 37 28.7173 37 18.5C37 8.28273 28.7173 0 18.5 0C8.28273 0 0 8.28273 0 18.5C0 28.7173 8.28273 37 18.5 37Z" fill="#EAB14D"/>
<path d="M18.4995 0C18.1693 0 17.8411 0.0090332 17.5151 0.0260879C27.2748 0.537873 35.0308 8.61298 35.0308 18.5C35.0308 28.387 27.2748 36.4621 17.5151 36.9739C17.8411 36.991 18.1693 37 18.4995 37C28.7168 37 36.9995 28.7173 36.9995 18.5C36.9995 8.28273 28.7168 0 18.4995 0Z" fill="#E49542"/>
<path d="M18.4993 32.916C26.4611 32.916 32.9154 26.4617 32.9154 18.5C32.9154 10.5382 26.4611 4.08392 18.4993 4.08392C10.5375 4.08392 4.08325 10.5382 4.08325 18.5C4.08325 26.4617 10.5375 32.916 18.4993 32.916Z" fill="#F4FBFF"/>
<path d="M18.4992 4.08392C18.1 4.08392 17.7048 4.10091 17.3137 4.1327C24.7209 4.73569 30.5443 10.9375 30.5443 18.5C30.5443 26.0625 24.7209 32.2642 17.3137 32.8673C17.7048 32.8991 18.1 32.9161 18.4992 32.9161C26.461 32.9161 32.9153 26.4618 32.9153 18.5001C32.9153 10.5383 26.461 4.08392 18.4992 4.08392Z" fill="#DAF1F4"/>
<path d="M18.5005 8.52098C18.1921 8.52098 17.9421 8.27101 17.9421 7.96265V7.14316C17.9421 6.83481 18.1921 6.58484 18.5005 6.58484C18.8088 6.58484 19.0588 6.83481 19.0588 7.14316V7.96265C19.0588 8.27101 18.8088 8.52098 18.5005 8.52098Z" fill="#2B4D66"/>
<path d="M25.9207 11.62C25.7777 11.62 25.6349 11.5654 25.5258 11.4564C25.3078 11.2384 25.3078 10.8849 25.5259 10.6668L26.1054 10.0874C26.3234 9.86928 26.6769 9.86935 26.895 10.0874C27.1131 10.3055 27.1131 10.6589 26.895 10.877L26.3155 11.4565C26.2064 11.5654 26.0635 11.62 25.9207 11.62Z" fill="#2B4D66"/>
<path d="M29.7958 19.0585H28.9763C28.6679 19.0585 28.418 18.8086 28.418 18.5002C28.418 18.1919 28.6679 17.9419 28.9763 17.9419H29.7958C30.1042 17.9419 30.3541 18.1919 30.3541 18.5002C30.3541 18.8086 30.1041 19.0585 29.7958 19.0585Z" fill="#2B4D66"/>
<path d="M26.4576 27.0587C26.3148 27.0587 26.1718 27.0041 26.0628 26.8952L25.4833 26.3157C25.2653 26.0976 25.2653 25.7442 25.4833 25.526C25.7014 25.3081 26.0549 25.3081 26.2731 25.526L26.8525 26.1054C27.0705 26.3235 27.0705 26.677 26.8525 26.8952C26.7434 27.0041 26.6005 27.0587 26.4576 27.0587Z" fill="#2B4D66"/>
<path d="M18.4394 30.3547C18.1311 30.3547 17.8811 30.1048 17.8811 29.7964V28.9769C17.8811 28.6685 18.1311 28.4186 18.4394 28.4186C18.7478 28.4186 18.9978 28.6685 18.9978 28.9769V29.7964C18.9978 30.1048 18.7478 30.3547 18.4394 30.3547Z" fill="#2B4D66"/>
<path d="M10.4385 27.0156C10.2956 27.0156 10.1526 26.9611 10.0437 26.852C9.82558 26.634 9.82565 26.2805 10.0437 26.0624L10.6232 25.4829C10.8413 25.265 11.1947 25.2649 11.4128 25.483C11.6308 25.701 11.6308 26.0546 11.4127 26.2727L10.8332 26.8521C10.7243 26.9611 10.5813 27.0156 10.4385 27.0156Z" fill="#2B4D66"/>
<path d="M7.96253 18.9978H7.14304C6.83468 18.9978 6.58472 18.7478 6.58472 18.4394C6.58472 18.1311 6.83468 17.8811 7.14304 17.8811H7.96253C8.27089 17.8811 8.52086 18.1311 8.52086 18.4394C8.52093 18.7478 8.27089 18.9978 7.96253 18.9978Z" fill="#2B4D66"/>
<path d="M11.0609 11.577C10.9181 11.577 10.7752 11.5225 10.6661 11.4135L10.0867 10.8341C9.86863 10.616 9.86855 10.2625 10.0866 10.0444C10.3047 9.82639 10.6581 9.82632 10.8762 10.0443L11.4557 10.6238C11.6737 10.8419 11.6738 11.1954 11.4558 11.4135C11.3467 11.5225 11.2038 11.577 11.0609 11.577Z" fill="#2B4D66"/>
<path d="M18.5001 19.0583H13.758C13.4497 19.0583 13.1997 18.8083 13.1997 18.4999C13.1997 18.1916 13.4497 17.9416 13.758 17.9416H17.9417V10.8381C17.9417 10.5298 18.1917 10.2798 18.5 10.2798C18.8084 10.2798 19.0584 10.5298 19.0584 10.8381V18.4999C19.0584 18.8083 18.8085 19.0583 18.5001 19.0583Z" fill="#2B4D66"/>
<path d="M24.2288 22.0042C24.1428 22.0042 24.0556 21.9842 23.9739 21.9423L18.2453 18.9964C17.971 18.8554 17.8631 18.5188 18.004 18.2446C18.145 17.9703 18.4817 17.8623 18.756 18.0033L24.4846 20.9491C24.7589 21.0902 24.8669 21.4268 24.7258 21.701C24.6268 21.8935 24.4313 22.0042 24.2288 22.0042Z" fill="#DA4A54"/>
<path d="M18.4995 19.9903C19.3226 19.9903 19.9898 19.3231 19.9898 18.5C19.9898 17.677 19.3226 17.0098 18.4995 17.0098C17.6765 17.0098 17.0093 17.677 17.0093 18.5C17.0093 19.3231 17.6765 19.9903 18.4995 19.9903Z" fill="#365E7D"/>
</svg>
