<svg width="31" height="31" viewBox="0 0 31 31" fill="none" xmlns="http://www.w3.org/2000/svg">
<g clip-path="url(#clip0)">
<path d="M19.582 19.1991C18.9826 21.3835 19.8261 23.0788 22.1124 24.2871C14.9358 26.6302 10.781 28.0349 3.65465 30.5266C4.73897 28.179 4.38077 26.3196 2.57886 24.9469" fill="#FFCA5E"/>
<path d="M11.8681 19.0616L10.1112 19.6559L8.75296 20.1151L2.61664 2.17106C2.32581 1.31057 2.78697 0.377539 3.64745 0.0867148C3.89096 0.00470381 4.14015 -0.0173761 4.37861 0.0129049C4.98423 0.0892383 5.52362 0.501186 5.7318 1.11753L11.8681 19.0616Z" fill="#E86328"/>
<path d="M11.8678 19.0617L10.1108 19.656L3.97388 1.71192C3.7657 1.09495 3.9436 0.440752 4.37826 0.0130329C4.98388 0.0893663 5.52326 0.501314 5.73144 1.11766L11.8678 19.0617Z" fill="#FF884D"/>
<path d="M3.65453 31C3.58817 31 3.52073 30.9859 3.45651 30.9563C3.21931 30.8468 3.11578 30.5657 3.2253 30.3284C4.21233 28.1906 3.90706 26.5534 2.29195 25.3233C2.08408 25.165 2.0439 24.8681 2.20224 24.6602C2.36059 24.4522 2.6574 24.4121 2.86533 24.5705C3.85754 25.3262 4.46259 26.2383 4.66365 27.2817C4.86117 28.3064 4.6663 29.4649 4.0844 30.7251C4.00453 30.8981 3.83332 31 3.65453 31Z" fill="#E8A328"/>
<path d="M22.1118 24.7603C22.0372 24.7603 21.9617 24.7426 21.8911 24.7053C20.6639 24.0568 19.806 23.2543 19.3413 22.32C18.8682 21.3688 18.7956 20.2767 19.1256 19.074C19.1947 18.822 19.455 18.6739 19.707 18.7429C19.959 18.812 20.1073 19.0724 20.0382 19.3243C19.5011 21.2823 20.2518 22.7688 22.3333 23.8687C22.5644 23.9908 22.6527 24.2771 22.5306 24.5081C22.4457 24.6686 22.2816 24.7603 22.1118 24.7603Z" fill="#E8A328"/>
<path d="M5.99059 30.2102C5.9458 30.2102 5.90025 30.2038 5.85509 30.1903C5.6047 30.1156 5.46232 29.8521 5.53701 29.6016C6.14597 27.5612 5.77352 25.911 4.39844 24.5565C4.21228 24.3731 4.21001 24.0736 4.3934 23.8874C4.57679 23.7013 4.87632 23.699 5.06248 23.8824C6.6875 25.4831 7.15225 27.4983 6.4438 29.8723C6.38254 30.0775 6.19436 30.2102 5.99059 30.2102Z" fill="#E8A328"/>
<path d="M8.67806 29.3018C8.66506 29.3018 8.652 29.3013 8.63888 29.3002C8.37847 29.2789 8.1846 29.0505 8.20593 28.79C8.36263 26.8775 7.89706 25.1512 6.82196 23.6594C6.66923 23.4474 6.71724 23.1517 6.9292 22.9989C7.14123 22.8461 7.43691 22.8941 7.58971 23.1061C8.80007 24.7857 9.32468 26.7241 9.14905 28.8673C9.12887 29.1146 8.92188 29.3018 8.67806 29.3018Z" fill="#E8A328"/>
<path d="M11.2473 28.4329C11.0191 28.4329 10.8182 28.2675 10.7807 28.0349C10.4869 26.2094 9.93706 24.4434 9.14653 22.786C9.03405 22.5502 9.13404 22.2678 9.36992 22.1552C9.6058 22.0426 9.88817 22.1428 10.0007 22.3786C10.8301 24.1175 11.4069 25.97 11.715 27.8845C11.7565 28.1426 11.581 28.3853 11.323 28.4269C11.2976 28.4309 11.2723 28.4329 11.2473 28.4329Z" fill="#E8A328"/>
<path d="M29.8724 25.0444C29.8724 24.2549 29.2324 23.6149 28.4429 23.6149C27.8189 23.6149 27.2887 24.0146 27.0936 24.5719C27.0484 24.5694 27.003 24.5679 26.9573 24.5679C25.6259 24.5679 24.5466 25.6472 24.5466 26.9785C24.5466 28.3099 25.6259 29.3891 26.9573 29.3891C28.2886 29.3891 29.3679 28.3099 29.3679 26.9785C29.3679 26.7156 29.3252 26.4629 29.2475 26.2261C29.6247 25.9687 29.8724 25.5356 29.8724 25.0444Z" fill="#E4E4EF"/>
<path d="M28.3271 28.8139C28.3952 28.8139 28.4634 28.8107 28.5302 28.8051C28.1076 29.1691 27.5575 29.3892 26.9569 29.3892C25.6258 29.3892 24.5464 28.3098 24.5464 26.9787C24.5464 25.7158 25.5173 24.6799 26.7531 24.5771C26.2409 25.0193 25.9166 25.6735 25.9166 26.4034C25.9166 27.7345 26.996 28.8139 28.3271 28.8139Z" fill="#CACADB"/>
<path d="M26.6429 19.8936C26.6429 20.5302 26.2411 21.0733 25.6771 21.2821C25.5169 21.3414 25.344 21.3736 25.1636 21.3736C24.346 21.3736 23.6836 20.7112 23.6836 19.8936C23.6836 19.0767 24.346 18.4143 25.1636 18.4143C25.344 18.4143 25.5169 18.4464 25.6771 18.5057C26.2411 18.7146 26.6429 19.2571 26.6429 19.8936Z" fill="#CACADB"/>
<path d="M26.6419 19.8937C26.6419 20.5303 26.24 21.0734 25.676 21.2822C25.1121 21.0734 24.7102 20.5303 24.7102 19.8937C24.7102 19.2572 25.1121 18.7146 25.676 18.5058C26.24 18.7147 26.6419 19.2572 26.6419 19.8937Z" fill="#E4E4EF"/>
<path d="M30.065 14.365C30.065 15.4292 29.202 16.2916 28.1384 16.2916C27.0742 16.2916 26.2111 15.4292 26.2111 14.365C26.2111 14.2243 26.2269 14.0868 26.2553 13.9549C25.7897 13.8155 25.4497 13.384 25.4497 12.8724C25.4497 12.2485 25.9557 11.7431 26.5796 11.7431C26.6603 11.7431 26.7392 11.752 26.8149 11.7684C26.972 11.1924 27.4968 10.7685 28.1226 10.7685C28.8715 10.7685 29.479 11.376 29.479 12.1254C29.479 12.3784 29.4083 12.615 29.2872 12.8181C29.7591 13.1695 30.065 13.7316 30.065 14.365Z" fill="#E4E4EF"/>
<path d="M19.7751 25.5499C19.6786 25.5499 19.5813 25.5205 19.4972 25.4594C17.4936 24.0023 16.6402 22.1185 16.9607 19.8601C16.9974 19.6014 17.2369 19.4217 17.4956 19.4582C17.7543 19.4949 17.9343 19.7343 17.8976 19.9931C17.6264 21.904 18.3317 23.4418 20.0538 24.6941C20.2651 24.8478 20.3119 25.1437 20.1581 25.3551C20.0656 25.4824 19.9214 25.5499 19.7751 25.5499Z" fill="#E8A328"/>
<path d="M17.0893 26.4582C16.96 26.4582 16.8312 26.4055 16.7378 26.3019C15.2978 24.7048 14.5387 22.8458 14.4816 20.7763C14.4744 20.5151 14.6803 20.2975 14.9416 20.2903C15.2031 20.2844 15.4203 20.489 15.4276 20.7502C15.4783 22.5884 16.1555 24.243 17.4407 25.6683C17.6157 25.8623 17.6002 26.1615 17.4061 26.3365C17.3156 26.418 17.2022 26.4582 17.0893 26.4582Z" fill="#E8A328"/>
<path d="M14.5185 27.3271C14.3498 27.3271 14.1865 27.2366 14.1012 27.0775C13.1844 25.3687 12.5188 23.5462 12.123 21.6608C12.0693 21.405 12.2331 21.1542 12.4888 21.1005C12.7444 21.0466 12.9954 21.2106 13.0491 21.4664C13.4264 23.2635 14.0609 25.0009 14.935 26.6302C15.0585 26.8604 14.972 27.1473 14.7418 27.2708C14.6706 27.309 14.594 27.3271 14.5185 27.3271Z" fill="#E8A328"/>
<path d="M20.4788 26.5895C20.552 27.7623 19.8335 28.8827 18.6651 29.2694C18.409 29.3539 18.1497 29.3974 17.8942 29.4031C16.7587 29.4309 15.6906 28.7205 15.3153 27.5863C15.2995 27.5383 15.285 27.4904 15.2724 27.4424C14.6226 27.4311 14.022 27.016 13.8063 26.3643C13.5337 25.5404 13.9804 24.6509 14.8049 24.3777C15.3178 24.208 15.8553 24.3165 16.2546 24.6219C16.4748 24.4585 16.724 24.3266 16.9984 24.2358C17.4267 24.0938 17.8652 24.0673 18.2809 24.1393V24.1399C18.8613 24.2396 19.3969 24.5323 19.795 24.9707C19.9577 24.8294 20.1691 24.7436 20.4012 24.7436C20.9122 24.7436 21.3261 25.1575 21.3261 25.6685C21.3261 26.153 20.9532 26.5498 20.4788 26.5895Z" fill="#E4E4EF"/>
<path d="M17.8942 29.4031C16.7587 29.4309 15.6906 28.7205 15.3153 27.5863C15.2995 27.5383 15.285 27.4904 15.2724 27.4424C14.6226 27.4311 14.022 27.016 13.8063 26.3643C13.5337 25.5404 13.9804 24.6509 14.8049 24.3777C15.3178 24.208 15.8553 24.3165 16.2546 24.6219C16.4748 24.4585 16.724 24.3266 16.9984 24.2358C17.4268 24.0938 17.8652 24.0673 18.2809 24.1393V24.1399C16.9984 24.2358 15.6818 28.084 17.8942 29.4031Z" fill="#CACADB"/>
<path d="M29.171 19.4426C28.754 19.4426 28.542 18.9161 28.8427 18.6281C28.995 18.4823 29.2331 18.4548 29.414 18.5635C29.576 18.6607 29.6664 18.8506 29.6389 19.0376C29.6053 19.2661 29.4028 19.4426 29.171 19.4426Z" fill="#CACADB"/>
<path d="M22.4093 28.853C21.9885 28.853 21.7794 28.3169 22.089 28.032C22.3939 27.7512 22.9014 27.9898 22.8819 28.403C22.8702 28.6517 22.6581 28.853 22.4093 28.853Z" fill="#CACADB"/>
<path d="M23.0044 16.174C22.5641 16.174 22.366 15.5977 22.7136 15.3283C23.0502 15.0674 23.5486 15.368 23.4692 15.7886C23.4274 16.0096 23.2298 16.174 23.0044 16.174Z" fill="#CACADB"/>
<path d="M28.1384 16.2916C27.0742 16.2916 26.2111 15.4292 26.2111 14.365C26.2111 14.2243 26.2269 14.0868 26.2553 13.9549C25.7897 13.8155 25.4497 13.384 25.4497 12.8724C25.4497 12.2485 25.9557 11.7431 26.5796 11.7431C26.6603 11.7431 26.7392 11.752 26.8149 11.7684C26.972 11.1924 27.4968 10.7685 28.1226 10.7685C26.7114 11.5999 27.6703 13.3903 27.6703 13.3903C26.5745 14.1574 26.9032 16.2916 28.1384 16.2916Z" fill="#CACADB"/>
<path d="M18.7586 16.3426L1.42097 22.2035C1.04713 22.3299 0.846515 22.7354 0.972876 23.1093L1.56828 24.8706C1.69464 25.2445 2.10021 25.4451 2.47406 25.3187L19.8117 19.4578C20.1855 19.3315 20.3861 18.9259 20.2598 18.5521L19.6644 16.7907C19.538 16.4168 19.1325 16.2162 18.7586 16.3426Z" fill="#FF884D"/>
</g>
<defs>
<clipPath id="clip0">
<rect width="31" height="31" fill="white"/>
</clipPath>
</defs>
</svg>
