<svg width="31" height="31" viewBox="0 0 31 31" fill="none" xmlns="http://www.w3.org/2000/svg">
<g clip-path="url(#clip0)">
<path d="M15.462 1.01187C13.246 1.01187 11.4497 2.80824 11.4497 5.0242V6.64656C11.7179 6.39801 12.0994 6.26287 12.4717 6.31264V6.11271C12.4717 5.95378 12.6074 5.8282 12.7648 5.84013C14.3161 5.9516 15.8948 5.45862 17.0885 4.67884C17.2 4.606 17.3475 4.62411 17.4381 4.72146C18.4586 5.81846 18.4524 5.77595 18.4524 5.91921V6.31179C18.8606 6.25058 19.2227 6.37676 19.4742 6.61065V5.02426C19.4744 2.80824 17.6781 1.01187 15.462 1.01187Z" fill="#707487"/>
<path d="M12.7119 5.02426C12.7119 3.02294 14.1771 1.36438 16.0934 1.06164C15.8878 1.02919 15.6772 1.01187 15.4625 1.01187C13.2465 1.01187 11.4502 2.80824 11.4502 5.0242V6.64656C11.7184 6.39795 12.0999 6.26287 12.4722 6.31264V6.11271C12.4722 5.97212 12.5785 5.85811 12.7119 5.84177V5.02426Z" fill="#5B5D6E"/>
<path d="M18.4471 6.16658V8.37309C18.4471 8.397 18.4459 8.42062 18.4453 8.44447C19.2261 8.56272 19.8377 7.99854 19.8377 7.30565C19.8377 6.61135 19.2256 6.0499 18.4471 6.16658Z" fill="#F0A479"/>
<path d="M19.4762 6.46947C19.2235 6.23273 18.8586 6.10485 18.4471 6.16655V8.37306C18.4471 8.39698 18.4459 8.42059 18.4453 8.44445C18.8581 8.50693 19.2234 8.37869 19.4762 8.14159V6.46947Z" fill="#E59770"/>
<path d="M12.481 8.37571V6.16447C11.7995 6.07347 11.0869 6.59647 11.0869 7.30554C11.0869 7.99929 11.6987 8.56594 12.4828 8.44727C12.4822 8.42342 12.481 8.39962 12.481 8.37571Z" fill="#F0A479"/>
<path d="M12.4811 8.03268C12.3177 7.83281 12.2222 7.57924 12.2222 7.30557C12.2222 7.04116 12.3214 6.8026 12.4811 6.61212V6.1645C11.7996 6.0735 11.0869 6.59656 11.0869 7.30557C11.0869 7.99931 11.6987 8.56597 12.4828 8.4473C12.4822 8.42345 12.481 8.39965 12.481 8.3758V8.03268H12.4811Z" fill="#E59770"/>
<path d="M15.5051 11.1757C14.8569 11.1757 14.2872 10.9978 13.8213 10.7001V12.3438L15.4979 14.4133L17.1744 12.3438V10.6556C16.6995 10.9832 16.1244 11.1757 15.5051 11.1757Z" fill="#F0A479"/>
<path d="M15.0689 11.1475C14.5994 11.0867 14.1795 10.9289 13.8213 10.7001V12.3439L15.0689 13.8837V11.1475Z" fill="#E59770"/>
<path d="M21.6096 13.9207L17.1743 12.203L15.4977 14.2725L13.8211 12.203L9.39046 13.9207C9.39046 13.9207 7.75 14.5951 7.75 16.4652C7.75 18.1574 7.75 22.4346 7.75 23.8016C7.75 24.1035 7.99479 24.3482 8.29662 24.3482C8.52664 24.3482 22.4698 24.3482 22.7034 24.3482C23.0052 24.3482 23.25 24.1034 23.25 23.8016C23.25 22.4346 23.25 18.1573 23.25 16.4652C23.25 14.5951 21.6096 13.9207 21.6096 13.9207Z" fill="#E4EAF8"/>
<path d="M8.99757 23.8016C8.99757 22.4346 8.99757 17.5335 8.99757 15.8414C8.99757 14.7325 9.57428 14.0441 10.0438 13.6674L9.39046 13.9207C9.39046 13.9207 7.75 14.5951 7.75 16.4652C7.75 18.1573 7.75 22.4346 7.75 23.8017C7.75 24.1035 7.99479 24.3483 8.29662 24.3483C8.33712 24.3483 8.80315 24.3483 9.54419 24.3483C9.24236 24.3482 8.99757 24.1035 8.99757 23.8016Z" fill="#D8DCE5"/>
<path d="M17.4385 4.58057C17.3479 4.48321 17.2003 4.4651 17.0889 4.53794C15.8953 5.31773 14.3165 5.8107 12.7652 5.69923C12.6079 5.68731 12.4722 5.81288 12.4722 5.97182V8.36881C12.4722 9.90937 13.6793 11.3165 15.5052 11.3165C17.1306 11.3165 18.4529 9.99413 18.4529 8.36881V5.77831C18.4529 5.63505 18.459 5.6775 17.4385 4.58057Z" fill="#F0A479"/>
<path d="M13.7217 8.3689V5.69376C13.4041 5.71919 13.0841 5.72215 12.7652 5.69927C12.6079 5.68734 12.4722 5.81291 12.4722 5.97185V8.3689C12.4722 9.90946 13.6793 11.3166 15.5052 11.3166C15.7045 11.3166 15.8991 11.2965 16.0874 11.2586C14.7398 10.9875 13.7217 9.79497 13.7217 8.3689Z" fill="#E59770"/>
<path d="M17.5224 15.3359L18.7761 12.8232L17.1746 12.203L15.498 14.2725L17.1326 15.4334C17.2649 15.5274 17.4499 15.481 17.5224 15.3359Z" fill="#D8DCE5"/>
<path d="M13.4759 15.3359L12.2222 12.8232L13.8236 12.203L15.5002 14.2725L13.8656 15.4334C13.7333 15.5274 13.5483 15.481 13.4759 15.3359Z" fill="#D8DCE5"/>
<path d="M17.2027 22.3184L16.1267 15.9505H15.4997H15.4977H14.8708L13.7947 22.3184C13.7834 22.4004 13.8075 22.4837 13.8588 22.5403L15.3444 24.1772C15.4272 24.2684 15.5703 24.2684 15.6531 24.1772L17.1386 22.5403C17.1899 22.4837 17.214 22.4004 17.2027 22.3184Z" fill="#FF5050"/>
<path d="M15.1084 22.5402C15.0572 22.4836 15.0331 22.4003 15.0444 22.3183L16.1204 15.9504H15.4998H15.4978H14.8708L13.7947 22.3183C13.7834 22.4003 13.8075 22.4836 13.8588 22.5402L15.3444 24.1771C15.4272 24.2683 15.5703 24.2683 15.6531 24.1771L16.1235 23.6587L15.1084 22.5402Z" fill="#ED3A3A"/>
<path d="M15.4996 14.2739V14.2724L15.4985 14.2731L15.4975 14.2724V14.2739L14.3086 15.1182L14.8706 15.964H15.4975H15.4996H16.1265L16.6885 15.1182L15.4996 14.2739Z" fill="#ED3A3A"/>
<path d="M16.1228 14.7161L15.5 14.2739V14.2724L15.499 14.2731L15.498 14.2724V14.2739L14.3091 15.1182L14.8711 15.964H15.498H15.5H16.1186L15.6362 15.2379C15.5918 15.1712 15.6085 15.0814 15.6738 15.035L16.1228 14.7161Z" fill="#DB2A2A"/>
<path d="M23.212 6.65186C20.996 6.65186 19.1997 8.44822 19.1997 10.6642V12.2865C19.4679 12.038 19.8494 11.9029 20.2217 11.9526V11.7527C20.2217 11.5938 20.3574 11.4682 20.5148 11.4801C22.0661 11.5916 23.6448 11.0986 24.8385 10.3188C24.95 10.246 25.0975 10.2641 25.188 10.3614C26.2086 11.4584 26.2024 11.4159 26.2024 11.5592V11.9518C26.6106 11.8906 26.9727 12.0167 27.2242 12.2506V10.6642C27.2244 8.44816 25.4281 6.65186 23.212 6.65186Z" fill="#707487"/>
<path d="M20.4614 10.6642C20.4614 8.66292 21.9266 7.00436 23.8429 6.70163C23.6373 6.66917 23.4267 6.65186 23.212 6.65186C20.996 6.65186 19.1997 8.44822 19.1997 10.6642V12.2866C19.4679 12.038 19.8494 11.9029 20.2217 11.9527V11.7528C20.2217 11.6122 20.328 11.4982 20.4614 11.4818V10.6642Z" fill="#5B5D6E"/>
<path d="M26.1971 11.8064V14.013C26.1971 14.0369 26.1959 14.0605 26.1953 14.0843C26.9761 14.2026 27.5877 13.6384 27.5877 12.9455C27.5877 12.2512 26.9756 11.6898 26.1971 11.8064Z" fill="#F0A479"/>
<path d="M27.2262 12.1094C26.9735 11.8727 26.6086 11.7448 26.1971 11.8065V14.013C26.1971 14.0369 26.1959 14.0605 26.1953 14.0844C26.6081 14.1469 26.9734 14.0186 27.2262 13.7815V12.1094Z" fill="#E59770"/>
<path d="M20.231 14.0157V11.8045C19.5495 11.7135 18.8369 12.2365 18.8369 12.9455C18.8369 13.6393 19.4487 14.2059 20.2328 14.0873C20.2322 14.0633 20.231 14.0395 20.231 14.0157Z" fill="#F0A479"/>
<path d="M20.2311 13.6726C20.0677 13.4728 19.9722 13.2192 19.9722 12.9455C19.9722 12.6811 20.0714 12.4426 20.2311 12.2521V11.8045C19.5496 11.7135 18.8369 12.2365 18.8369 12.9455C18.8369 13.6393 19.4487 14.2059 20.2328 14.0873C20.2322 14.0634 20.231 14.0396 20.231 14.0158L20.2311 13.6726Z" fill="#E59770"/>
<path d="M23.2551 16.8157C22.6069 16.8157 22.0372 16.6377 21.5713 16.34V17.9838L23.2479 20.0533L24.9244 17.9838V16.2956C24.4495 16.6231 23.8744 16.8157 23.2551 16.8157Z" fill="#F0A479"/>
<path d="M22.8188 16.7874C22.3494 16.7266 21.9295 16.5689 21.5713 16.34V17.9838L22.8188 19.5237V16.7874Z" fill="#E59770"/>
<path d="M29.3596 19.5606L24.9243 17.8428L23.2477 19.9123L21.5711 17.8428L17.1405 19.5606C17.1405 19.5606 15.5 20.235 15.5 22.105C15.5 23.7972 15.5 28.0745 15.5 29.4415C15.5 29.7434 15.7448 29.9881 16.0466 29.9881C16.2766 29.9881 30.2198 29.9881 30.4534 29.9881C30.7552 29.9881 31 29.7433 31 29.4415C31 28.0745 31 23.7971 31 22.105C31 20.2349 29.3596 19.5606 29.3596 19.5606Z" fill="#E4EAF8"/>
<path d="M16.7476 29.4415C16.7476 28.0745 16.7476 23.1734 16.7476 21.4812C16.7476 20.3724 17.3243 19.684 17.7938 19.3073L17.1405 19.5606C17.1405 19.5606 15.5 20.235 15.5 22.1051C15.5 23.7972 15.5 28.0745 15.5 29.4415C15.5 29.7434 15.7448 29.9882 16.0467 29.9882C16.0872 29.9882 16.5532 29.9882 17.2943 29.9882C16.9923 29.9882 16.7476 29.7434 16.7476 29.4415Z" fill="#D8DCE5"/>
<path d="M25.1885 10.2206C25.0979 10.1232 24.9503 10.1051 24.8389 10.1779C23.6453 10.9577 22.0665 11.4507 20.5152 11.3392C20.3579 11.3273 20.2222 11.4529 20.2222 11.6118V14.0088C20.2222 15.5494 21.4293 16.9565 23.2552 16.9565C24.8806 16.9565 26.2029 15.6341 26.2029 14.0088V11.4183C26.2028 11.2751 26.209 11.3175 25.1885 10.2206Z" fill="#F0A479"/>
<path d="M21.4717 14.0089V11.3338C21.1541 11.3592 20.8341 11.3622 20.5152 11.3393C20.3579 11.3274 20.2222 11.4529 20.2222 11.6119V14.0089C20.2222 15.5495 21.4293 16.9566 23.2552 16.9566C23.4545 16.9566 23.6491 16.9365 23.8374 16.8986C22.4898 16.6275 21.4717 15.4349 21.4717 14.0089Z" fill="#E59770"/>
<path d="M25.2724 20.9757L26.5261 18.4631L24.9246 17.8428L23.248 19.9123L24.8826 21.0733C25.0149 21.1672 25.1999 21.1209 25.2724 20.9757Z" fill="#D8DCE5"/>
<path d="M21.2259 20.9757L19.9722 18.4631L21.5736 17.8428L23.2502 19.9123L21.6156 21.0733C21.4833 21.1672 21.2983 21.1209 21.2259 20.9757Z" fill="#D8DCE5"/>
<path d="M24.9527 27.9583L23.8767 21.5905H23.2497H23.2477H22.6208L21.5447 27.9583C21.5334 28.0404 21.5575 28.1237 21.6088 28.1802L23.0944 29.8172C23.1772 29.9084 23.3203 29.9084 23.4031 29.8172L24.8886 28.1802C24.9399 28.1236 24.964 28.0404 24.9527 27.9583Z" fill="#FF5050"/>
<path d="M22.8584 28.1802C22.8071 28.1237 22.783 28.0404 22.7944 27.9583L23.8704 21.5905H23.2497H23.2477H22.6208L21.5447 27.9583C21.5334 28.0404 21.5575 28.1237 21.6088 28.1802L23.0944 29.8171C23.1772 29.9083 23.3203 29.9083 23.4031 29.8171L23.8735 29.2987L22.8584 28.1802Z" fill="#ED3A3A"/>
<path d="M23.2496 19.9138V19.9124L23.2485 19.9131L23.2475 19.9124V19.9138L22.0586 20.7582L22.6206 21.604H23.2475H23.2496H23.8765L24.4384 20.7582L23.2496 19.9138Z" fill="#ED3A3A"/>
<path d="M23.8728 20.3561L23.25 19.9138V19.9124L23.249 19.9131L23.248 19.9124V19.9138L22.0591 20.7582L22.6211 21.604H23.248H23.25H23.8686L23.3862 20.8779C23.3418 20.8112 23.3585 20.7214 23.4238 20.6749L23.8728 20.3561Z" fill="#DB2A2A"/>
<path d="M18.6916 29.9882V22.9518C18.6916 22.6935 18.4821 22.484 18.2237 22.484C17.9653 22.484 17.7559 22.6934 17.7559 22.9518V29.9881C18.0414 29.9882 18.3553 29.9882 18.6916 29.9882Z" fill="#D8DCE5"/>
<path d="M28.6681 29.9882V22.9518C28.6681 22.6935 28.4587 22.484 28.2003 22.484C27.9419 22.484 27.7324 22.6934 27.7324 22.9518V29.9881C28.0678 29.9882 28.3814 29.9882 28.6681 29.9882Z" fill="#D8DCE5"/>
<path d="M7.71204 6.65186C5.49602 6.65186 3.69971 8.44822 3.69971 10.6642V12.2865C3.96787 12.038 4.34938 11.9029 4.72174 11.9526V11.7527C4.72174 11.5938 4.85743 11.4682 5.01479 11.4801C6.56606 11.5916 8.14483 11.0986 9.33851 10.3188C9.44998 10.246 9.59753 10.2641 9.68805 10.3614C10.7086 11.4584 10.7024 11.4159 10.7024 11.5592V11.9518C11.1106 11.8906 11.4727 12.0167 11.7242 12.2506V10.6642C11.7244 8.44816 9.92806 6.65186 7.71204 6.65186Z" fill="#707487"/>
<path d="M4.96139 10.6642C4.96139 8.66292 6.42662 7.00436 8.34287 6.70163C8.13732 6.66917 7.92673 6.65186 7.71204 6.65186C5.49602 6.65186 3.69971 8.44822 3.69971 10.6642V12.2866C3.96787 12.038 4.34938 11.9029 4.72174 11.9527V11.7528C4.72174 11.6122 4.828 11.4982 4.96139 11.4818V10.6642Z" fill="#5B5D6E"/>
<path d="M10.6971 11.8064V14.013C10.6971 14.0369 10.6959 14.0605 10.6953 14.0843C11.4761 14.2026 12.0877 13.6384 12.0877 12.9455C12.0877 12.2512 11.4756 11.6898 10.6971 11.8064Z" fill="#F0A479"/>
<path d="M11.7262 12.1094C11.4735 11.8727 11.1086 11.7448 10.6971 11.8065V14.013C10.6971 14.0369 10.6959 14.0605 10.6953 14.0844C11.1081 14.1469 11.4734 14.0186 11.7262 13.7815V12.1094Z" fill="#E59770"/>
<path d="M4.73058 14.0157V11.8045C4.04906 11.7135 3.33643 12.2365 3.33643 12.9455C3.33643 13.6393 3.94819 14.2059 4.73228 14.0873C4.73173 14.0633 4.73058 14.0395 4.73058 14.0157Z" fill="#F0A479"/>
<path d="M4.73058 13.6726C4.56717 13.4728 4.47174 13.2192 4.47174 12.9455C4.47174 12.6811 4.57092 12.4426 4.73058 12.2521V11.8045C4.04906 11.7135 3.33643 12.2365 3.33643 12.9455C3.33643 13.6393 3.94819 14.2059 4.73228 14.0873C4.73173 14.0634 4.73052 14.0396 4.73052 14.0158L4.73058 13.6726Z" fill="#E59770"/>
<path d="M7.7551 16.8157C7.10689 16.8157 6.5372 16.6377 6.07129 16.34V17.9838L7.7479 20.0533L9.42444 17.9838V16.2956C8.94951 16.6231 8.37444 16.8157 7.7551 16.8157Z" fill="#F0A479"/>
<path d="M7.31886 16.7874C6.84938 16.7266 6.42955 16.5689 6.07129 16.34V17.9838L7.31886 19.5237C7.31886 19.5236 7.31886 16.7874 7.31886 16.7874Z" fill="#E59770"/>
<path d="M13.8596 19.5606L9.42426 17.8428L7.74771 19.9123L6.07111 17.8428L1.64046 19.5606C1.64046 19.5606 0 20.235 0 22.105C0 23.7972 0 28.0745 0 29.4415C0 29.7434 0.244791 29.9881 0.546618 29.9881C0.776636 29.9881 14.7198 29.9881 14.9534 29.9881C15.2552 29.9881 15.5 29.7433 15.5 29.4415C15.5 28.0745 15.5 23.7971 15.5 22.105C15.5 20.2349 13.8596 19.5606 13.8596 19.5606Z" fill="#E4EAF8"/>
<path d="M1.24757 29.4415C1.24757 28.0745 1.24757 23.1734 1.24757 21.4812C1.24757 20.3724 1.82428 19.684 2.29382 19.3073L1.64046 19.5606C1.64046 19.5606 0 20.235 0 22.1051C0 23.7972 0 28.0745 0 29.4415C0 29.7434 0.244791 29.9882 0.546618 29.9882C0.587124 29.9882 1.05315 29.9882 1.79419 29.9882C1.49236 29.9882 1.24757 29.7434 1.24757 29.4415Z" fill="#D8DCE5"/>
<path d="M9.68799 10.2206C9.59741 10.1232 9.44986 10.1051 9.33845 10.1779C8.14477 10.9577 6.566 11.4507 5.01473 11.3392C4.85737 11.3273 4.72168 11.4529 4.72168 11.6118V14.0088C4.72168 15.5494 5.92881 16.9565 7.75472 16.9565C9.38011 16.9565 10.7025 15.6341 10.7025 14.0088V11.4183C10.7024 11.2751 10.7085 11.3175 9.68799 10.2206Z" fill="#F0A479"/>
<path d="M5.97125 14.0089V11.3338C5.65362 11.3592 5.33363 11.3622 5.01473 11.3393C4.85737 11.3274 4.72168 11.4529 4.72168 11.6119V14.0089C4.72168 15.5495 5.92881 16.9566 7.75472 16.9566C7.95398 16.9566 8.14858 16.9365 8.33688 16.8986C6.98935 16.6275 5.97125 15.4349 5.97125 14.0089Z" fill="#E59770"/>
<path d="M9.77237 20.9757L11.0261 18.4631L9.42459 17.8428L7.74805 19.9123L9.38263 21.0733C9.51493 21.1672 9.6999 21.1209 9.77237 20.9757Z" fill="#D8DCE5"/>
<path d="M5.72585 20.9757L4.47217 18.4631L6.07363 17.8428L7.75018 19.9123L6.11559 21.0733C5.9833 21.1672 5.79833 21.1209 5.72585 20.9757Z" fill="#D8DCE5"/>
<path d="M9.45269 27.9583L8.37665 21.5905H7.74974H7.74775H7.12078L6.04474 27.9583C6.03342 28.0404 6.05752 28.1237 6.1088 28.1802L7.59438 29.8172C7.67715 29.9084 7.82028 29.9084 7.90305 29.8172L9.38863 28.1802C9.43991 28.1236 9.46401 28.0404 9.45269 27.9583Z" fill="#FF5050"/>
<path d="M7.35843 28.1802C7.30714 28.1237 7.28304 28.0404 7.29437 27.9583L8.37041 21.5905H7.74974H7.74774H7.12078L6.04474 27.9583C6.03342 28.0404 6.05752 28.1237 6.1088 28.1802L7.59438 29.8171C7.67714 29.9083 7.82028 29.9083 7.90304 29.8171L8.37349 29.2987L7.35843 28.1802Z" fill="#ED3A3A"/>
<path d="M7.74955 19.9138V19.9124L7.74852 19.9131L7.74749 19.9124V19.9138L6.55859 20.7582L7.12059 21.604H7.74749H7.74955H8.37645L8.93839 20.7582L7.74955 19.9138Z" fill="#ED3A3A"/>
<path d="M8.37283 20.3561L7.75004 19.9138V19.9124L7.74901 19.9131L7.74799 19.9124V19.9138L6.55908 20.7582L7.12108 21.604H7.74799H7.74998H8.36859L7.88615 20.8779C7.84183 20.8112 7.85848 20.7214 7.92381 20.6749L8.37283 20.3561Z" fill="#DB2A2A"/>
<path d="M3.19155 29.9882V22.9518C3.19155 22.6935 2.98212 22.484 2.72371 22.484C2.46529 22.484 2.25586 22.6934 2.25586 22.9518V29.9881C2.5414 29.9882 2.85534 29.9882 3.19155 29.9882Z" fill="#D8DCE5"/>
<path d="M13.1681 29.9882V22.9518C13.1681 22.6935 12.9587 22.484 12.7003 22.484C12.4419 22.484 12.2324 22.6934 12.2324 22.9518V29.9881C12.5678 29.9882 12.8814 29.9882 13.1681 29.9882Z" fill="#D8DCE5"/>
</g>
<defs>
<clipPath id="clip0">
<rect width="31" height="31" fill="white"/>
</clipPath>
</defs>
</svg>
