<svg width="31" height="31" viewBox="0 0 31 31" fill="none" xmlns="http://www.w3.org/2000/svg">
<path d="M15.1648 4.54356L13.4985 2.37404C13.2871 2.09898 12.9598 1.93744 12.6128 1.93744H2.5211C1.90428 1.93744 1.4043 2.43742 1.4043 3.05424V19.9428H29.5955V6.09672C29.5955 5.4799 29.0955 4.97992 28.4787 4.97992H16.0503C15.7033 4.97992 15.376 4.81862 15.1648 4.54356Z" fill="#F79F48"/>
<path d="M16.0502 4.97992C15.7032 4.97992 15.3759 4.81862 15.1647 4.54332L13.4985 2.37404C13.287 2.09874 12.9597 1.93744 12.6127 1.93744H10.0376L12.1889 4.73844C12.3057 4.89075 12.4869 4.97992 12.679 4.97992H16.0502Z" fill="#EF8229"/>
<path d="M28.4789 4.97998H26.4702V19.9426H29.5957V6.09679C29.5957 5.47997 29.0957 4.97998 28.4789 4.97998Z" fill="#EF8229"/>
<path d="M26.9742 27.2577H4.02552C3.70599 27.2577 3.44678 26.9987 3.44678 26.6789V7.75305C3.44678 7.43329 3.70599 7.17407 4.02552 7.17407H26.9742C27.2937 7.17407 27.5529 7.43329 27.5529 7.75305V26.6789C27.5529 26.9987 27.2937 27.2577 26.9742 27.2577Z" fill="#EDEDED"/>
<path d="M30.1502 29.105H0.849783C0.380546 29.105 0 28.7245 0 28.2552V11.8551C0 11.3859 0.380546 11.0053 0.849783 11.0053H30.1502C30.6194 11.0053 30.9999 11.3856 30.9999 11.8551V28.2552C30.9999 28.7245 30.6194 29.105 30.1502 29.105Z" fill="#FFE471"/>
<path d="M12.6134 19.6851V17.5674C12.6134 15.9754 13.9085 14.6805 15.5002 14.6805C17.0919 14.6805 18.3871 15.9754 18.3871 17.5674V19.6851H19.3227V17.5674C19.3227 15.4596 17.608 13.7449 15.5002 13.7449C13.3924 13.7449 11.6777 15.4596 11.6777 17.5674V19.6851H12.6134Z" fill="#BEBEBE"/>
<path d="M30.1499 11.0053H27.8579V29.105H30.1499C30.6192 29.105 30.9997 28.7245 30.9997 28.2553V11.8551C30.9997 11.3859 30.6192 11.0053 30.1499 11.0053Z" fill="#F2CA20"/>
<path d="M19.7163 26.4021H11.2837C11.0538 26.4021 10.8672 26.2155 10.8672 25.9854V19.9548C10.8672 19.7249 11.0538 19.5383 11.2837 19.5383H19.7163C19.9461 19.5383 20.1327 19.7247 20.1327 19.9548V25.9854C20.1327 26.2155 19.9461 26.4021 19.7163 26.4021Z" fill="#F79F48"/>
<path d="M19.7163 19.5383H16.9907V26.4021H19.7163C19.9462 26.4021 20.1328 26.2158 20.1328 25.9856V19.9548C20.1328 19.7249 19.9462 19.5383 19.7163 19.5383Z" fill="#EF8229"/>
<path d="M27.5529 11.0053V7.75282C27.5529 7.43329 27.2937 7.17407 26.9742 7.17407H24.4111V11.0053H27.5529Z" fill="#D6D6D6"/>
<path d="M13.325 24.3588C13.5835 24.3588 13.7928 24.1495 13.7928 23.891V22.4554C13.7928 22.1971 13.5835 21.9875 13.325 21.9875C13.0667 21.9875 12.8574 22.1971 12.8574 22.4554V23.891C12.8572 24.1495 13.0667 24.3588 13.325 24.3588Z" fill="#FFE471"/>
<path d="M15.5 24.3588C15.7583 24.3588 15.9679 24.1495 15.9679 23.891V22.4554C15.9679 22.1971 15.7583 21.9875 15.5 21.9875C15.2418 21.9875 15.0322 22.1971 15.0322 22.4554V23.891C15.0322 24.1495 15.2418 24.3588 15.5 24.3588Z" fill="#FFE471"/>
<path d="M17.6753 24.3588C17.9336 24.3588 18.1429 24.1495 18.1429 23.891V22.4554C18.1429 22.1971 17.9336 21.9875 17.6753 21.9875C17.4168 21.9875 17.2075 22.1971 17.2075 22.4554V23.891C17.2075 24.1495 17.4168 24.3588 17.6753 24.3588Z" fill="#FFE471"/>
</svg>
