<svg width="31" height="31" viewBox="0 0 31 31" fill="none" xmlns="http://www.w3.org/2000/svg">
<g clip-path="url(#clip0)">
<path d="M25.0211 20.2843H9.30566V5.90089L17.1634 1.15637L25.0211 5.90089V20.2843Z" fill="#FEE97E"/>
<path d="M17.7959 1.53857L10.5705 5.90095V20.284H9.30566V5.90095L17.1634 1.15656L17.7959 1.53857Z" fill="#F9DA58"/>
<path d="M17.296 16.6621C17.2103 16.6907 17.1168 16.6907 17.031 16.6621C14.1539 15.7015 12.2524 13.3917 12.2524 10.7962V7.58927C12.2524 7.43165 12.34 7.28704 12.4796 7.21392L16.967 4.86396C17.0901 4.7995 17.237 4.7995 17.3601 4.86396L21.8475 7.21392C21.9872 7.28704 22.0747 7.43165 22.0747 7.58927V10.7962C22.0746 13.3917 20.1731 15.7015 17.296 16.6621Z" fill="#F5FCFF"/>
<path d="M17.7956 16.4781C17.6326 16.544 17.4657 16.6055 17.2953 16.6623C17.2097 16.6908 17.1166 16.6908 17.0311 16.6622C14.154 15.702 12.2524 13.3916 12.2524 10.7965V7.58915C12.2524 7.43152 12.34 7.28691 12.4796 7.21379L16.9666 4.86426C17.0897 4.79979 17.2367 4.79979 17.3598 4.86432L17.7956 5.09271L13.7445 7.21379C13.6048 7.28691 13.5173 7.43152 13.5173 7.58915V10.7965C13.5173 13.2382 15.2002 15.4276 17.7956 16.4781Z" fill="#D8ECFE"/>
<path d="M17.1635 13.7584C18.7909 13.7584 20.1102 12.4392 20.1102 10.8118C20.1102 9.18435 18.7909 7.86508 17.1635 7.86508C15.5361 7.86508 14.2168 9.18435 14.2168 10.8118C14.2168 12.4392 15.5361 13.7584 17.1635 13.7584Z" fill="#ADE194"/>
<path d="M17.7957 13.6904C17.592 13.7353 17.3802 13.7587 17.1632 13.7587C15.536 13.7587 14.2168 12.4389 14.2168 10.8116C14.2168 9.1844 15.536 7.86517 17.1632 7.86517C17.3802 7.86517 17.592 7.8886 17.7957 7.93345C16.472 8.22243 15.4817 9.40128 15.4817 10.8115C15.4817 12.222 16.472 13.4008 17.7957 13.6904Z" fill="#7DCE6F"/>
<path d="M5.37805 8.85515C5.03756 8.85515 4.70615 8.6793 4.5222 8.36399C4.24678 7.89185 4.40622 7.2858 4.87837 7.01033L16.665 0.13485C16.9732 -0.0448685 17.3542 -0.0448685 17.6624 0.13485L29.449 7.01033C29.9212 7.28574 30.0806 7.89185 29.8052 8.36399C29.5297 8.8362 28.9237 8.99558 28.4516 8.72022L17.1637 2.1356L5.8758 8.72022C5.71903 8.81168 5.54736 8.85515 5.37805 8.85515Z" fill="#F07281"/>
<path d="M16.6823 12.2721C16.5567 12.2721 16.4361 12.2223 16.3472 12.1335L15.708 11.4952C15.5227 11.3101 15.5224 11.0098 15.7075 10.8244C15.8926 10.6391 16.1929 10.6388 16.3783 10.8239L16.6805 11.1257L17.8089 9.98678C17.9934 9.80065 18.2937 9.79932 18.4797 9.98363C18.6658 10.1681 18.6672 10.4683 18.4828 10.6544L17.0192 12.1316C16.9304 12.2212 16.8097 12.2718 16.6836 12.2721C16.6832 12.2721 16.6827 12.2721 16.6823 12.2721Z" fill="#F5FCFF"/>
<path d="M28.8953 18.3426L20.9003 24.5912C20.3471 25.0246 19.6649 25.2595 18.9627 25.2595H11.0216L10.219 25.2592L7.44208 22.4823L7.2959 21.5338C7.2959 21.5338 9.23412 17.4533 13.0403 17.4533C13.4035 17.4533 13.7655 17.4866 14.1208 17.5532C14.4761 17.6198 14.826 17.7185 15.1644 17.8492L16.671 18.4315H19.654C20.3174 18.4315 20.861 18.943 20.9118 19.5931C20.9155 19.6264 20.9167 19.6603 20.9167 19.6942C20.9167 19.6942 20.8973 19.9472 20.8616 20.0647H20.8622L27.6327 16.1549C28.1423 15.8608 28.7719 15.9625 29.1653 16.365V16.3656C29.2386 16.4394 29.3027 16.5242 29.3572 16.618C29.6901 17.1918 29.4704 18.0108 28.8953 18.3426Z" fill="#FFCEBF"/>
<path d="M9.70469 22.0451L12.9187 25.2592H11.0215H10.219L7.44208 22.4823L7.2959 21.5336C7.2959 21.5336 9.23424 17.4532 13.0402 17.4532C13.3684 17.4532 13.6954 17.4804 14.0173 17.5348C11.7139 17.9493 10.226 19.8411 9.57376 20.8671C9.33563 21.2417 9.39083 21.7312 9.70469 22.0451Z" fill="#FFB09E"/>
<path d="M12.4448 27.3091L11.4109 28.343L10.0792 28.5621L4.5127 22.9956L4.57262 21.5048L4.57444 21.5023L5.6065 20.4703C5.77962 20.2978 6.05988 20.2978 6.2324 20.4703L6.552 20.7899L12.4448 26.6826C12.6179 26.8557 12.6179 27.136 12.4448 27.3091Z" fill="#F5FCFF"/>
<path d="M12.0434 27.7104L11.4109 28.343L10.0792 28.5621L4.5127 22.9956L4.57262 21.5048L4.57444 21.5023L5.6065 20.4703C5.77962 20.2978 6.05988 20.2978 6.2324 20.4703L6.552 20.7899L6.15068 21.1912C5.97756 21.3643 5.97756 21.6446 6.15068 21.8177L12.0434 27.7104Z" fill="#D8ECFE"/>
<path d="M29.1649 16.365V16.3656L20.6379 21.309C20.4995 21.3892 20.3424 21.4315 20.1825 21.4315H13.9261C13.6543 21.4315 13.4355 21.2019 13.4531 20.9257C13.4692 20.6737 13.6897 20.483 13.9422 20.483H19.6536C20.0028 20.483 20.3055 20.259 20.4078 19.9255C20.475 19.7052 20.6899 19.569 20.9114 19.5932C20.915 19.6265 20.9162 19.6604 20.9162 19.6943C20.9162 19.6943 20.8969 19.9473 20.8612 20.0647H20.8618L23.2582 18.681L27.6322 16.155C28.1419 15.8607 28.7715 15.9624 29.1649 16.365Z" fill="#FFB09E"/>
<path d="M11.4107 28.343L9.52694 30.2268L8.87743 30.8757C8.71218 31.0415 8.44403 31.0415 8.27817 30.8757L1.18449 23.782C1.01923 23.6167 1.01923 23.348 1.18449 23.1827L3.4181 20.9491C3.58335 20.7839 3.8515 20.7839 4.01736 20.9491L4.66626 21.598L11.4107 28.343Z" fill="#548EB5"/>
<path d="M9.52695 30.2268L8.87744 30.8757C8.71219 31.0415 8.44404 31.0415 8.27818 30.8757L1.18449 23.782C1.01923 23.6167 1.01923 23.348 1.18449 23.1827L3.4181 20.9491C3.58335 20.7839 3.85151 20.7839 4.01736 20.9491L4.66626 21.598L3.45321 22.8111C3.08276 23.1815 3.08276 23.7826 3.45321 24.153L9.52695 30.2268Z" fill="#497090"/>
</g>
<defs>
<clipPath id="clip0">
<rect width="31" height="31" fill="white"/>
</clipPath>
</defs>
</svg>
