<svg width="35" height="35" viewBox="0 0 35 35" fill="none" xmlns="http://www.w3.org/2000/svg">
<g clip-path="url(#clip0)">
<path d="M14.5379 7.27573C14.3798 6.22334 15.2042 5.399 16.2565 5.55712L18.3716 5.87512C18.587 5.36763 18.7065 4.81002 18.7065 4.22411C18.7065 1.89122 16.8153 0 14.4824 0C12.1495 0 10.2583 1.89122 10.2583 4.22411C10.2583 6.55701 12.1495 8.44823 14.4824 8.44823C14.5603 8.44823 14.6357 8.44098 14.7123 8.43674L14.5379 7.27573Z" fill="#EEAF4B"/>
<path d="M18.7056 4.22422C18.7056 4.8102 18.5861 5.36773 18.3707 5.87523L20.8075 6.2415C21.3523 6.32298 21.8743 6.5915 22.2823 6.9994L22.3083 7.02537C22.6999 6.38451 22.9298 5.63386 22.9298 4.82763C22.9298 2.49474 21.0386 0.603516 18.7057 0.603516C18.1397 0.603516 17.6008 0.716992 17.1072 0.918514C18.0798 1.69275 18.7056 2.88459 18.7056 4.22422Z" fill="#C89544"/>
<path d="M28.1182 14.1208L23.1024 19.1373C22.747 19.4922 22.1339 19.4553 21.7325 19.0547L15.9811 13.3026C15.5732 12.8947 15.3046 12.3727 15.2226 11.8277L14.5383 7.27597C14.3802 6.22297 15.2045 5.39863 16.2569 5.55736L20.8087 6.24163C21.3536 6.32312 21.8762 6.59163 22.2841 6.99953L28.0355 12.7516C28.4369 13.1523 28.4737 13.7654 28.1182 14.1208Z" fill="#FDD4A2"/>
<path d="M22.3268 16.8965C22.1723 16.8965 22.0178 16.8374 21.9001 16.7197C21.6642 16.4838 21.6642 16.1024 21.9001 15.8665L23.7105 14.0561C23.9465 13.8202 24.3278 13.8202 24.5637 14.0561C24.7997 14.2921 24.7997 14.6735 24.5637 14.9094L22.7534 16.7197C22.6357 16.8374 22.4812 16.8965 22.3268 16.8965Z" fill="#DEB588"/>
<path d="M20.5162 15.0862C20.3617 15.0862 20.2072 15.0271 20.0896 14.9094C19.8536 14.6735 19.8536 14.2921 20.0896 14.0562L21.8999 12.2458C22.1359 12.0099 22.5173 12.0099 22.7532 12.2458C22.9892 12.4818 22.9892 12.8632 22.7532 13.0991L20.9428 14.9094C20.8252 15.0271 20.6707 15.0862 20.5162 15.0862Z" fill="#DEB588"/>
<path d="M18.7065 9.65524C16.0447 9.65524 13.8789 7.48949 13.8789 4.82765C13.8789 4.10414 14.0352 3.40838 14.3435 2.75903C14.4859 2.45791 14.8468 2.32878 15.1473 2.4724C15.4484 2.61541 15.5763 2.97566 15.4339 3.27617C15.2028 3.76255 15.0857 4.28454 15.0857 4.82765C15.0857 6.82442 16.7096 8.44836 18.7064 8.44836C19.0395 8.44836 19.3099 8.71872 19.3099 9.05183C19.3099 9.38488 19.0395 9.65524 18.7065 9.65524Z" fill="#867E6C"/>
<path d="M16.2925 13.6151L15.9799 13.3025C15.572 12.8946 15.3034 12.3726 15.2214 11.8277L14.7121 8.43691C14.6355 8.44115 14.56 8.44839 14.4822 8.44839C13.8335 8.44839 13.221 8.29752 12.6719 8.03625V18.1035L14.5178 19.9139L16.2926 18.1035V17.5L15.0857 16.2932L16.2926 15.0863V13.6151H16.2925Z" fill="#C89544"/>
<path d="M34.5763 23.6347C35.0434 23.2473 35.1381 22.5605 34.7846 22.0675C34.0284 21.0145 33.4014 20.7641 30.7747 22.1454L25.5404 25.3449C23.9407 26.1951 19.7431 25.9484 17.9322 25.9484C17.9322 25.9484 22.2058 26.238 20.5005 23.6921C19.6526 22.4261 18.1892 21.7074 16.6656 21.7074H14.3116C12.9393 21.7074 11.5864 21.2995 10.4906 20.4733C7.93359 18.5458 3.01611 22.3276 3.01611 22.3276V33.1896H11.4643C12.6694 33.1896 13.8733 33.0985 15.0645 32.9175L22.9298 31.7215C23.1983 31.7215 23.459 31.6901 23.7113 31.634C23.7155 31.6334 23.7191 31.6328 23.7234 31.6321C24.36 31.5429 24.9417 31.2206 25.4064 30.7759L34.5763 23.6347Z" fill="#FBC592"/>
<path d="M-0.000488281 35H3.01675V20.5173H-0.000488281V35Z" fill="#2872C7"/>
<path d="M9.65523 28.3621C9.3215 28.3621 9.05176 28.0923 9.05176 27.7586C9.05176 26.247 10.1796 25.3448 12.069 25.3448H18.7069C19.0406 25.3448 19.3103 25.6146 19.3103 25.9483C19.3103 26.2821 19.0406 26.5518 18.7069 26.5518H12.069C10.2586 26.5518 10.2586 27.46 10.2586 27.7587C10.2586 28.0923 9.98889 28.3621 9.65523 28.3621Z" fill="#F9A471"/>
</g>
<defs>
<clipPath id="clip0">
<rect width="35" height="35" fill="white"/>
</clipPath>
</defs>
</svg>
