<svg width="33" height="33" viewBox="0 0 33 33" fill="none" xmlns="http://www.w3.org/2000/svg">
<g clip-path="url(#clip0)">
<path fill-rule="evenodd" clip-rule="evenodd" d="M16.5009 4.2045L29.2351 13.4656V32.2928C29.2351 32.5048 29.0615 32.6783 28.8477 32.6783H4.15398C3.94206 32.6783 3.76855 32.5048 3.76855 32.2928V13.4656L16.5009 4.2045Z" fill="#F9F6F6"/>
<path fill-rule="evenodd" clip-rule="evenodd" d="M29.2344 12.1757V32.2929C29.2344 32.5048 29.0608 32.6784 28.847 32.6784H26.9141C27.126 32.6784 27.3014 32.5048 27.3014 32.2929V12.1757H29.2344Z" fill="#E2D8EC"/>
<path fill-rule="evenodd" clip-rule="evenodd" d="M3.76733 9.46077L8.58153 5.95838V2.28797H3.76733V9.46077Z" fill="#DD636E"/>
<path fill-rule="evenodd" clip-rule="evenodd" d="M3.29312 2.6113H6.64926V8.18366H8.58228V2.6113H9.0573C9.26922 2.6113 9.4446 2.43773 9.4446 2.224V0.709353C9.4446 0.495626 9.26922 0.322054 9.0573 0.322054H3.29312C3.0812 0.322054 2.90576 0.495626 2.90576 0.709353V2.224C2.90576 2.43773 3.0812 2.6113 3.29312 2.6113Z" fill="#DA4A54"/>
<path d="M2.98379 14.3571C2.14338 14.9655 0.966794 14.7791 0.358422 13.9369C-0.251819 13.0964 -0.0636159 11.9217 0.776787 11.3115L15.3965 0.680126C16.0834 0.181389 16.9951 0.216129 17.6381 0.70391L32.2231 11.3115C33.0635 11.9218 33.2518 13.0965 32.6415 13.9369C32.0331 14.7792 30.8566 14.9655 30.0161 14.3571L16.8124 4.75439C16.5858 4.58997 16.4068 4.59545 16.1876 4.75439L2.98379 14.3571Z" fill="#DD636E"/>
<path d="M15.5339 0.590627C16.2026 0.188697 17.0376 0.248961 17.6386 0.703871L32.2236 11.3115C33.064 11.9217 33.2522 13.0965 32.642 13.9369C32.0664 14.7334 30.9812 14.9436 30.1536 14.4466C30.3655 14.3206 30.5555 14.1507 30.709 13.9369C31.3192 13.0965 31.1311 11.9217 30.2906 11.3115L15.7038 0.703936C15.649 0.663717 15.5924 0.625367 15.5339 0.590627Z" fill="#DD636E"/>
<path fill-rule="evenodd" clip-rule="evenodd" d="M18.007 32.6783H24.7834L25.8083 23.9251L21.2079 23.5871L16.9802 23.9251L18.007 32.6783Z" fill="#BED8FB"/>
<path fill-rule="evenodd" clip-rule="evenodd" d="M22.8486 32.6783H24.7835L25.8084 23.9251H23.8754L22.8486 32.6783Z" fill="#9DC6FB"/>
<path d="M17.4626 22.0944C17.4626 22.363 17.247 22.5786 16.9803 22.5786C16.7136 22.5786 16.4961 22.363 16.4961 22.0944C16.4961 20.7424 17.0442 19.5183 17.9303 18.6322C18.8182 17.7462 20.0423 17.1962 21.3943 17.1962C22.7463 17.1962 23.9721 17.7462 24.8582 18.6322C25.7443 19.5183 26.2924 20.7424 26.2924 22.0944C26.2924 22.363 26.0769 22.5786 25.8083 22.5786C25.5415 22.5786 25.326 22.363 25.326 22.0944C25.326 21.0092 24.8857 20.0262 24.175 19.3155C23.4624 18.603 22.4795 18.1645 21.3943 18.1645C20.309 18.1645 19.3261 18.603 18.6154 19.3155C17.9028 20.0262 17.4626 21.0092 17.4626 22.0944Z" fill="#4A80AA"/>
<path fill-rule="evenodd" clip-rule="evenodd" d="M16.9809 23.9251H25.809C26.401 23.9251 26.8851 23.441 26.8851 22.849C26.8851 22.2571 26.4009 21.7729 25.809 21.7729H22.9132L21.4826 21.983L19.9004 21.7729H16.9809C16.3889 21.7729 15.9048 22.2571 15.9048 22.849C15.9048 23.441 16.389 23.9251 16.9809 23.9251Z" fill="#9DC6FB"/>
<path fill-rule="evenodd" clip-rule="evenodd" d="M23.8762 23.9251H25.8092C26.4012 23.9251 26.8853 23.441 26.8853 22.849C26.8853 22.2571 26.4011 21.7729 25.8092 21.7729H23.8762C24.4682 21.7729 24.9523 22.2571 24.9523 22.849C24.9523 23.441 24.4682 23.9251 23.8762 23.9251Z" fill="#80B4FB"/>
<path fill-rule="evenodd" clip-rule="evenodd" d="M11.4979 26.4811V13.27C11.4979 12.6781 11.0137 12.1939 10.4217 12.1939C9.82975 12.1939 9.3457 12.6781 9.3457 13.27V26.4811H11.4979V26.4811Z" fill="#E59B6C"/>
<path fill-rule="evenodd" clip-rule="evenodd" d="M14.2991 32.6783L13.835 28.7868H7.00752L6.54346 32.6783H14.2991Z" fill="#CBE2FF"/>
<path fill-rule="evenodd" clip-rule="evenodd" d="M14.2984 32.6783L13.8343 28.7868H11.9014L12.3654 32.6783H14.2984Z" fill="#9DC6FB"/>
<path fill-rule="evenodd" clip-rule="evenodd" d="M8.2885 26.1595C7.6856 26.1595 7.26169 26.6583 7.19047 27.2576L7.00781 28.7868H13.8353L13.6527 27.2576C13.5813 26.6583 13.1593 26.1595 12.5546 26.1595C11.1332 26.1595 9.70994 26.1595 8.2885 26.1595Z" fill="#4A80AA"/>
<path fill-rule="evenodd" clip-rule="evenodd" d="M11.9018 28.7868H13.8348L13.6521 27.2576C13.5808 26.6583 13.1588 26.1595 12.554 26.1595H10.6211C11.224 26.1595 11.6479 26.6583 11.7191 27.2576L11.9018 28.7868Z" fill="#407093"/>
<path d="M11.1927 30.7143C11.1927 30.4476 11.4102 30.2302 11.6769 30.2302C11.9436 30.2302 12.1592 30.4476 12.1592 30.7143V32.6783H11.1927V30.7143ZM8.68237 31.5036C8.68237 31.2368 8.89797 31.0194 9.16468 31.0194C9.43325 31.0194 9.64885 31.2369 9.64885 31.5036V32.6783H8.68237V31.5036Z" fill="#80B4FB"/>
<path fill-rule="evenodd" clip-rule="evenodd" d="M22.9126 21.7729V25.3702C22.9126 25.8435 22.5253 26.2308 22.0521 26.2308H20.7604C20.2872 26.2308 19.8999 25.8435 19.8999 25.3702V21.7729H22.9126Z" fill="#B3E59F"/>
<path fill-rule="evenodd" clip-rule="evenodd" d="M22.9124 21.7729V25.3702C22.9124 25.8435 22.5251 26.2308 22.0519 26.2308H20.7602C20.6469 26.2308 20.539 26.2088 20.4404 26.1686C20.7547 26.0407 20.9794 25.7301 20.9794 25.3702V21.7729H22.9124Z" fill="#95D6A4"/>
<path fill-rule="evenodd" clip-rule="evenodd" d="M7.12427 2.6113H9.05728C9.2692 2.6113 9.44458 2.43773 9.44458 2.224V0.709353C9.44458 0.495626 9.2692 0.322054 9.05728 0.322054H7.12427C7.33625 0.322054 7.50976 0.495626 7.50976 0.709353V2.224C7.50976 2.43773 7.33625 2.6113 7.12427 2.6113Z" fill="#D82E3D"/>
</g>
<defs>
<clipPath id="clip0">
<rect width="33" height="33" fill="white"/>
</clipPath>
</defs>
</svg>
