<svg width="31" height="31" viewBox="0 0 31 31" fill="none" xmlns="http://www.w3.org/2000/svg">
<g clip-path="url(#clip0)">
<path d="M10.1694 9.46415L7.01696 9.46857L7.0083 4.15614C7.00812 4.00749 7.12843 3.88689 7.27701 3.88664L9.89129 3.88301C10.0399 3.88283 10.1605 4.00314 10.1608 4.15172L10.1694 9.46415Z" fill="#FFB125"/>
<path d="M10.1609 4.1517C10.1607 4.00306 10.0401 3.88275 9.89143 3.883L8.33277 3.88518C8.471 3.89632 8.58016 4.01063 8.58035 4.1517L8.589 9.46408L7.01709 9.46626V9.46844L10.1696 9.46402L10.1609 4.1517Z" fill="#FF901D"/>
<path d="M15.3826 3.78673L6.93799 11.7418L6.95488 23.8353C6.9553 24.1544 7.21432 24.4126 7.53334 24.4122L23.2893 24.3902C23.6083 24.3898 23.8666 24.1308 23.8661 23.8117L23.8492 11.7182L15.3826 3.78673Z" fill="#E1EFFB"/>
<path d="M23.8489 11.7182L15.3822 3.78673L13.9897 5.09847L21.0562 11.7181L21.0731 23.8117C21.0735 24.1307 20.8152 24.3896 20.4962 24.3901H23.2889C23.608 24.3896 23.8663 24.1307 23.8658 23.8117L23.8489 11.7182Z" fill="#CCDFED"/>
<path d="M26.8278 14.383C26.5427 14.3834 26.257 14.2794 26.0325 14.0691L15.3824 4.09243L4.76025 14.0989C4.29344 14.5387 3.5584 14.5167 3.11877 14.0499C2.67896 13.5831 2.70088 12.8482 3.16775 12.4084L14.5839 1.65391C15.0302 1.23341 15.7266 1.23244 16.1741 1.65167L27.6203 12.3742C28.0884 12.8126 28.1123 13.5475 27.6738 14.0156C27.4456 14.2591 27.1371 14.3825 26.8278 14.383Z" fill="#FF4C4C"/>
<path d="M27.6737 12.6189C27.4455 12.8624 27.137 12.9858 26.8276 12.9862C26.5425 12.9866 26.2567 12.8827 26.0323 12.6724L15.3822 2.69571L4.7601 12.7021C4.29329 13.1419 3.55825 13.1199 3.11862 12.6531C3.08919 12.6219 3.06225 12.5893 3.03694 12.5559C2.70236 12.9994 2.72476 13.6319 3.11862 14.0499C3.55825 14.5167 4.29329 14.5387 4.7601 14.0988L15.3822 4.09246L26.0323 14.0692C26.2567 14.2795 26.5426 14.3833 26.8276 14.383C27.137 14.3826 27.4455 14.2592 27.6737 14.0156C28.0655 13.5974 28.087 12.9666 27.7532 12.5241C27.7286 12.5567 27.7022 12.5884 27.6737 12.6189Z" fill="#F33939"/>
<path d="M17.5668 13.7565L13.2257 13.7626C13.022 13.7629 12.8572 13.9282 12.8574 14.1319L12.8718 24.4046L17.9505 24.3976L17.9361 14.1248C17.9358 13.9211 17.7705 13.7562 17.5668 13.7565Z" fill="#2D5871"/>
<path d="M17.9362 14.1249C17.9359 13.9212 17.7706 13.7562 17.5669 13.7565L15.1143 13.76C15.2639 13.8068 15.3726 13.9464 15.3729 14.1115L15.3872 24.4012L17.9506 24.3976L17.9362 14.1249Z" fill="#1D4859"/>
<path d="M28.6438 19.2122L22.2453 23.4944L20.3384 23.3874L20.2637 22.6368C20.1526 21.5195 19.2924 20.6228 18.1807 20.4655L13.0715 19.8772C11.8929 19.7105 10.7581 19.3155 9.73072 18.7145C8.32797 17.8939 6.73214 17.4614 5.10701 17.4614H1.42334V25.8698L11.159 29.5565C11.527 29.6604 11.9134 29.6915 12.291 29.6319C12.2932 29.6315 12.2955 29.6311 12.2978 29.6308L22.0993 28.2179C22.8544 28.0974 23.5643 27.7793 24.1568 27.296L30.4917 21.5985C31.0603 21.0937 31.1657 20.2452 30.7379 19.6166C30.2699 18.929 29.3342 18.7482 28.6438 19.2122Z" fill="#FED9A8"/>
<path d="M30.8215 19.7564L24.56 25.0271C23.9674 25.5104 22.9823 25.8284 22.2272 25.949L12.2978 26.6588C12.2956 26.6591 12.2933 26.6595 12.2911 26.6599C11.9134 26.7196 11.527 26.6884 11.1591 26.5845L1.42334 22.8978V25.8698L11.159 29.5566C11.343 29.6085 11.5316 29.6423 11.7214 29.6556C11.7688 29.6589 11.8164 29.661 11.8639 29.6617C12.0066 29.6639 12.1494 29.6543 12.291 29.6319C12.2932 29.6316 12.2955 29.6312 12.2978 29.6308L22.0993 28.218C22.3353 28.1803 22.5669 28.1233 22.7917 28.0481C22.8367 28.033 22.8815 28.0173 22.9259 28.0007C23.1481 27.9182 23.3632 27.8175 23.5691 27.6997C23.6103 27.6762 23.6511 27.652 23.6915 27.627C23.8532 27.5274 24.0087 27.4169 24.1568 27.296L30.4917 21.5985C31.0192 21.1302 31.1472 20.3663 30.8215 19.7564Z" fill="#F4C892"/>
<path d="M21.0809 23.4302L10.2955 22.9987C10.244 22.9966 10.1939 22.9815 10.1499 22.9547L9.57704 22.6057C9.2984 22.4359 9.44777 22.0062 9.77158 22.0459L21.0809 23.4302Z" fill="#F4C892"/>
<path d="M2.66478 28.7259H1.2073C0.540501 28.7259 0 28.1854 0 27.5186V16.7329C0 16.0661 0.540561 15.5256 1.2073 15.5256H2.66478C3.33159 15.5256 3.87209 16.0661 3.87209 16.7329V27.5186C3.87209 28.1854 3.33159 28.7259 2.66478 28.7259Z" fill="#2D5871"/>
<path d="M2.66454 15.5256H1.20705C1.12507 15.5256 1.04515 15.5339 0.967773 15.5495C1.5199 15.6605 1.93579 16.1481 1.93579 16.7329V27.5186C1.93579 28.1034 1.5199 28.591 0.967773 28.702C1.04515 28.7176 1.12513 28.7259 1.20705 28.7259H2.66454C3.33134 28.7259 3.87184 28.1854 3.87184 27.5186V16.7329C3.87184 16.0661 3.33134 15.5256 2.66454 15.5256Z" fill="#1D4859"/>
</g>
<defs>
<clipPath id="clip0">
<rect width="31" height="31" fill="white"/>
</clipPath>
</defs>
</svg>
