<svg width="34" height="34" viewBox="0 0 34 34" fill="none" xmlns="http://www.w3.org/2000/svg">
<path d="M7.03516 20.523V10.5516H11.1386H18.1731H26.9662V26.9654H12.311L7.03516 20.523Z" fill="#F29C1F"/>
<path d="M33.2253 26.1272L22.2398 32.8158C21.5968 33.2071 20.8586 33.4139 20.106 33.4138H4.10254C4.20586 33.2357 4.26045 33.0335 4.26081 32.8276V20.5172H6.91633C6.9555 20.5162 6.99469 20.5182 7.03357 20.5231C8.2072 20.5475 9.3402 20.9574 10.2577 21.6896C10.8611 22.1707 11.5608 22.5165 12.3094 22.7038C12.7312 22.8094 13.1643 22.8625 13.5991 22.862H16.665C17.6957 22.8605 18.6511 23.4017 19.1798 24.2865C19.4466 24.7413 19.5654 25.2678 19.5198 25.7931C19.4524 26.2407 19.2379 26.6532 18.9101 26.9655H20.2877C20.541 26.9656 20.7925 26.924 21.0322 26.8424L21.6184 26.6489L21.6887 26.6255L26.9646 24.8669L31.8829 23.2255C32.5396 23.0099 33.2608 23.2361 33.6767 23.7882V23.7941C33.9492 24.1559 34.0557 24.6163 33.9697 25.061C33.8836 25.5057 33.6131 25.8932 33.2253 26.1272Z" fill="#FDD7AD"/>
<path d="M15.077 25.7931H19.5205C19.4531 26.2408 19.2386 26.6532 18.9108 26.9655H15.077C14.151 26.965 13.2454 27.2382 12.4743 27.751L12.0522 28.0383C11.9557 28.1045 11.841 28.1393 11.7239 28.1379C11.5293 28.137 11.3474 28.0406 11.2374 27.88C11.1501 27.751 11.1178 27.5926 11.1475 27.4397C11.1772 27.2869 11.2665 27.1521 11.3957 27.0652L11.8236 26.7779C12.7874 26.1363 13.9192 25.7936 15.077 25.7931Z" fill="#F9C795"/>
<path d="M21.6894 21.1035V26.6255L21.0328 26.8424C20.7931 26.9241 20.5416 26.9657 20.2883 26.9655H18.9108C19.6161 26.2455 19.7281 25.1327 19.1804 24.2866C18.6517 23.4018 17.6963 22.8606 16.6656 22.8621H13.5997C13.165 22.8626 12.7318 22.8094 12.3101 22.7038V21.1035C12.3101 18.5134 14.4097 16.4138 16.9997 16.4138C19.5897 16.4138 21.6894 18.5134 21.6894 21.1035Z" fill="#A56A43"/>
<path d="M11.1377 11.1379H5.68007C5.43355 11.1404 5.21181 10.9884 5.12524 10.7575C5.03868 10.5267 5.10579 10.2664 5.29317 10.1062L16.6187 0.328228C16.8381 0.140591 17.1614 0.140591 17.3808 0.328228L22.8618 5.05892V5.06478L26.9652 8.60547L28.7063 10.1062C28.8937 10.2664 28.9608 10.5267 28.8742 10.7575C28.7876 10.9884 28.5659 11.1404 28.3194 11.1379H11.1377Z" fill="#E57E25"/>
<path d="M26.9658 1.75857V8.60547L22.8623 5.06478V1.75857C22.8623 1.43482 23.1248 1.17236 23.4485 1.17236H26.3795C26.7033 1.17236 26.9658 1.43482 26.9658 1.75857Z" fill="#D25627"/>
<path d="M6.44851 2.34483C6.12476 2.34483 5.8623 2.08237 5.8623 1.75862V0.586207C5.8623 0.262454 6.12476 0 6.44851 0C6.77226 0 7.03472 0.262454 7.03472 0.586207V1.75862C7.03472 2.08237 6.77226 2.34483 6.44851 2.34483Z" fill="#B49ACA"/>
<path d="M6.44851 5.86204C6.12476 5.86204 5.8623 5.59959 5.8623 5.27583V4.10342C5.8623 3.77967 6.12476 3.51721 6.44851 3.51721C6.77226 3.51721 7.03472 3.77967 7.03472 4.10342V5.27583C7.03472 5.59959 6.77226 5.86204 6.44851 5.86204Z" fill="#B49ACA"/>
<path d="M8.7928 3.51726H7.62039C7.29663 3.51726 7.03418 3.25481 7.03418 2.93106C7.03418 2.6073 7.29663 2.34485 7.62039 2.34485H8.7928C9.11656 2.34485 9.37901 2.6073 9.37901 2.93106C9.37901 3.25481 9.11656 3.51726 8.7928 3.51726Z" fill="#B49ACA"/>
<path d="M5.27571 3.51726H4.1033C3.77954 3.51726 3.51709 3.25481 3.51709 2.93106C3.51709 2.6073 3.77954 2.34485 4.1033 2.34485H5.27571C5.59946 2.34485 5.86192 2.6073 5.86192 2.93106C5.86192 3.25481 5.59946 3.51726 5.27571 3.51726Z" fill="#B49ACA"/>
<path d="M31.9489 16.7069C31.7118 16.7068 31.4981 16.564 31.4074 16.345C31.3167 16.126 31.3668 15.8739 31.5344 15.7062L32.4138 14.8269C32.6438 14.6048 33.0094 14.6079 33.2355 14.8341C33.4616 15.0602 33.4648 15.4258 33.2426 15.6558L32.3633 16.5351C32.2534 16.6451 32.1044 16.7069 31.9489 16.7069Z" fill="#B49ACA"/>
<path d="M29.3092 19.3448C29.0722 19.3448 28.8585 19.2019 28.7678 18.9829C28.6771 18.7639 28.7272 18.5118 28.8948 18.3442L29.7741 17.4648C30.0041 17.2427 30.3697 17.2459 30.5959 17.472C30.822 17.6981 30.8252 18.0637 30.603 18.2937L29.7237 19.1731C29.6138 19.283 29.4647 19.3448 29.3092 19.3448Z" fill="#B49ACA"/>
<path d="M32.8284 19.3448C32.673 19.3448 32.5239 19.283 32.414 19.1731L31.5347 18.2937C31.3125 18.0637 31.3157 17.6981 31.5418 17.472C31.7679 17.2459 32.1336 17.2427 32.3636 17.4648L33.2429 18.3442C33.4105 18.5118 33.4606 18.7639 33.3699 18.9829C33.2792 19.2019 33.0655 19.3448 32.8284 19.3448Z" fill="#B49ACA"/>
<path d="M30.1893 16.7069C30.0338 16.7069 29.8847 16.6451 29.7748 16.5351L28.8955 15.6558C28.6734 15.4258 28.6765 15.0602 28.9027 14.8341C29.1288 14.6079 29.4944 14.6048 29.7244 14.8269L30.6037 15.7062C30.7713 15.8739 30.8215 16.126 30.7307 16.345C30.64 16.564 30.4263 16.7068 30.1893 16.7069Z" fill="#B49ACA"/>
<path d="M5.27586 20.5173V32.8276C5.27586 33.4751 4.75095 34 4.10345 34H1.17241C0.525709 33.9981 0.00193143 33.4743 0 32.8276V20.5173C0.00193143 19.8706 0.525709 19.3468 1.17241 19.3448H4.10345C4.75015 19.3468 5.27393 19.8706 5.27586 20.5173Z" fill="#26B99A"/>
<path d="M16.8119 11.41C15.9668 11.768 15.2941 12.4407 14.9361 13.2858C14.8935 13.4009 14.7838 13.4773 14.6611 13.4773C14.5384 13.4773 14.4287 13.4009 14.3862 13.2858C14.0282 12.4407 13.3555 11.768 12.5104 11.41C12.3953 11.3674 12.3188 11.2577 12.3188 11.135C12.3188 11.0123 12.3953 10.9026 12.5104 10.8601C13.3555 10.5021 14.0282 9.82934 14.3862 8.98423C14.4287 8.86914 14.5384 8.79272 14.6611 8.79272C14.7838 8.79272 14.8935 8.86914 14.9361 8.98423C15.2941 9.82934 15.9668 10.5021 16.8119 10.8601C16.927 10.9026 17.0034 11.0123 17.0034 11.135C17.0034 11.2577 16.927 11.3674 16.8119 11.41Z" fill="#F3D55B"/>
</svg>
