<svg width="40" height="40" viewBox="0 0 40 40" fill="none" xmlns="http://www.w3.org/2000/svg">
<g clip-path="url(#clip0)">
<path d="M19.9983 40.0025C31.0463 40.0025 40.0024 31.0464 40.0024 19.9984C40.0024 8.95042 31.0463 -0.0057373 19.9983 -0.0057373C8.9503 -0.0057373 -0.00585938 8.95042 -0.00585938 19.9984C-0.00585938 31.0464 8.9503 40.0025 19.9983 40.0025Z" fill="#E64C3C"/>
<path d="M30.4208 7.138L7.138 30.4208C1.79231 23.8378 2.2867 14.2794 8.28305 8.28305C14.2794 2.2867 23.8378 1.79231 30.4208 7.138Z" fill="white"/>
<path d="M31.7032 31.7035C25.7102 37.6912 16.1648 38.1911 9.5791 32.8621L32.8619 9.57935C38.1909 16.165 37.691 25.7105 31.7032 31.7035Z" fill="white"/>
<g clip-path="url(#clip1)">
<path d="M32.5513 14.4584C32.8931 14.4584 33.1703 14.7355 33.1703 15.0774V26.4436C33.1703 26.7853 32.8932 27.0624 32.5513 27.0624H7.44945C7.10766 27.0624 6.83057 26.7853 6.83057 26.4436V15.0773C6.83057 14.7355 7.10766 14.4584 7.44945 14.4584H32.5513V14.4584Z" fill="#97DA7B"/>
<path d="M12.5812 26.4435V15.0773C12.5812 14.7355 12.8583 14.4584 13.2001 14.4584H7.44945C7.10767 14.4584 6.83057 14.7355 6.83057 15.0773V26.4435C6.83057 26.7853 7.10767 27.0624 7.44945 27.0624H13.2001C12.8583 27.0624 12.5812 26.7853 12.5812 26.4435Z" fill="#80D261"/>
<path d="M15.3253 20.9967C14.7503 20.4205 13.9849 20.1031 13.1704 20.1031C13.1497 20.1031 13.1288 20.1034 13.1078 20.1038C11.4626 20.1372 10.124 21.5183 10.124 23.1823V27.0623H18.4008C17.8117 26.5163 17.1055 26.1122 16.3434 25.8799C16.2687 25.8571 16.2169 25.7893 16.2169 25.7113V23.1496C16.2169 22.3352 15.8996 21.5699 15.3253 20.9967Z" fill="#80D261"/>
<path d="M30.237 16.1517C30.237 16.8364 30.7921 17.3915 31.4768 17.3915V24.1292C30.7921 24.1292 30.237 24.6842 30.237 25.3689H9.76367C9.76367 24.6842 9.20863 24.1292 8.52393 24.1292V17.3915C9.20863 17.3915 9.76367 16.8364 9.76367 16.1517H30.237Z" fill="#DBF1D0"/>
<path d="M15.3252 20.9967C14.7501 20.4205 13.9848 20.1031 13.1703 20.1031C13.1496 20.1031 13.1287 20.1034 13.1077 20.1038C13.1059 20.1038 13.1041 20.1038 13.1023 20.1039C12.8177 20.1102 12.5812 19.8875 12.5812 19.6028V16.1517H9.76367C9.76367 16.8364 9.20863 17.3915 8.52393 17.3915V24.1292C9.20863 24.1292 9.76367 24.6842 9.76367 25.3689H16.2168V23.1496C16.2168 22.3352 15.8995 21.5699 15.3252 20.9967Z" fill="#D5EFC8"/>
<path d="M20.0038 23.7936C21.8264 23.7936 23.304 22.3161 23.304 20.4934C23.304 18.6708 21.8264 17.1932 20.0038 17.1932C18.1812 17.1932 16.7036 18.6708 16.7036 20.4934C16.7036 22.3161 18.1812 23.7936 20.0038 23.7936Z" fill="#97DA7B"/>
</g>
</g>
<defs>
<clipPath id="clip0">
<rect width="40" height="40" fill="white"/>
</clipPath>
<clipPath id="clip1">
<rect width="28" height="28" fill="white" transform="translate(6 7)"/>
</clipPath>
</defs>
</svg>
