<svg width="35" height="35" viewBox="0 0 35 35" fill="none" xmlns="http://www.w3.org/2000/svg">
<g clip-path="url(#clip0)">
<path d="M17.7395 23.2102L24.19 18.6182C25.8039 17.4762 26.7649 15.6235 26.769 13.6464V4.19995C26.7691 4.08382 26.7004 3.97865 26.594 3.9322L17.5523 0.0238615C17.4779 -0.00860487 17.3934 -0.00860487 17.319 0.0238615L8.2773 3.9322C8.17086 3.97865 8.10212 4.08382 8.1023 4.19995V13.6499C8.10625 15.6271 9.06756 17.48 10.6818 18.6217L17.1323 23.2137C17.3149 23.3416 17.5584 23.3402 17.7395 23.2102Z" fill="#894B9D"/>
<path d="M12.0347 16.7171C11.0373 16.0117 10.4418 14.8681 10.4358 13.6464V5.5416L17.4358 2.51819L24.4358 5.5416V13.6499C24.4298 14.8716 23.8343 16.0152 22.8369 16.7206L17.4358 20.5654L12.0347 16.7171Z" fill="#B49ACA"/>
<path d="M16.1006 15.2249C15.9744 15.2249 15.8516 15.184 15.7506 15.1082L13.0842 13.108C12.9174 12.9829 12.8301 12.7784 12.855 12.5715C12.88 12.3646 13.0134 12.1867 13.205 12.1049C13.3967 12.023 13.6174 12.0496 13.7842 12.1746L16.0008 13.836L20.9808 7.61064C21.1819 7.35886 21.5492 7.31786 21.8009 7.51905C22.0527 7.72025 22.0937 8.08745 21.8925 8.33922L16.5585 15.0044C16.4476 15.144 16.2789 15.2252 16.1006 15.2249Z" fill="#3D324C"/>
<path d="M8.35142 24.9304L5.68676 22.2652C5.1152 21.6936 4.65787 21.0183 4.33926 20.2754L3.03376 17.231C2.83258 16.7621 2.37153 16.4579 1.86126 16.4575C1.42753 16.4581 1.02377 16.6789 0.789145 17.0437C0.554518 17.4085 0.521106 17.8674 0.700424 18.2624L2.98651 23.2919C3.26687 23.9084 3.65571 24.4695 4.13451 24.9485L8.35142 29.1666H14.0004V27.4977C14.0195 26.2486 13.6139 25.03 12.8501 24.0414C12.4232 23.4781 11.8417 23.0511 11.1765 22.8124C9.88151 22.2658 8.68784 21.505 7.64559 20.5619C6.81329 19.8671 5.58796 19.9238 4.82342 20.6925" fill="#FDD7AD"/>
<path d="M26.6487 24.9304L29.314 22.2652C29.8855 21.6936 30.3429 21.0183 30.6615 20.2754L31.9675 17.231C32.1689 16.7617 32.6305 16.4575 33.1412 16.4575C33.5747 16.4585 33.9781 16.6795 34.2125 17.0442C34.4468 17.4089 34.4801 17.8676 34.3009 18.2624L32.0148 23.2919C31.7344 23.9084 31.3456 24.4695 30.8668 24.9485L26.6487 29.1666H21.0009V27.4977C20.982 26.2485 21.3878 25.0299 22.1518 24.0414C22.5787 23.4781 23.1601 23.0511 23.8254 22.8124C25.1202 22.2658 26.3137 21.505 27.3557 20.5619C28.1883 19.8673 29.4136 19.924 30.1785 20.6925" fill="#FDD7AD"/>
<path d="M20.417 35H26.8337C27.1558 35 27.417 34.7388 27.417 34.4167V29.75C27.417 29.4278 27.1558 29.1667 26.8337 29.1667H20.417C20.0948 29.1667 19.8337 29.4278 19.8337 29.75V34.4167C19.8337 34.7388 20.0948 35 20.417 35Z" fill="#41767F"/>
<path d="M22.7506 32.6667H22.1673C21.8452 32.6667 21.584 32.4055 21.584 32.0833C21.584 31.7612 21.8452 31.5 22.1673 31.5H22.7506C23.0728 31.5 23.334 31.7612 23.334 32.0833C23.334 32.4055 23.0728 32.6667 22.7506 32.6667Z" fill="#2C3E50"/>
<path d="M14.5828 29.1666H8.1661C7.84393 29.1666 7.58276 29.4278 7.58276 29.75V34.4166C7.58276 34.7388 7.84393 34.9999 8.1661 34.9999H14.5828C14.9049 34.9999 15.1661 34.7388 15.1661 34.4166V29.75C15.1661 29.4278 14.9049 29.1666 14.5828 29.1666Z" fill="#41767F"/>
<path d="M12.8337 32.6667H12.2503C11.9282 32.6667 11.667 32.4055 11.667 32.0833C11.667 31.7612 11.9282 31.5 12.2503 31.5H12.8337C13.1558 31.5 13.417 31.7612 13.417 32.0833C13.417 32.4055 13.1558 32.6667 12.8337 32.6667Z" fill="#2C3E50"/>
<path d="M9.28708 25.0774C9.05705 25.303 8.68878 25.303 8.45875 25.0774L5.79291 22.4116C5.40492 22.0234 5.06422 21.5907 4.77791 21.1224C4.72541 21.0349 4.67875 20.9533 4.63208 20.8658L4.85375 20.6616C5.06278 20.4513 5.31578 20.29 5.59458 20.1891C5.86376 20.7052 6.20995 21.1772 6.62125 21.5891L9.28708 24.2491C9.51457 24.4783 9.51457 24.8482 9.28708 25.0774Z" fill="#F09372"/>
<path d="M25.759 25.0774C25.989 25.303 26.3573 25.303 26.5873 25.0774L29.2532 22.4116C29.6411 22.0234 29.9818 21.5907 30.2682 21.1224C30.3207 21.0349 30.3673 20.9533 30.414 20.8658L30.1923 20.6616C29.9833 20.4513 29.7303 20.29 29.4515 20.1891C29.1823 20.7052 28.8361 21.1772 28.4248 21.5891L25.759 24.2491C25.5315 24.4783 25.5315 24.8482 25.759 25.0774Z" fill="#F09372"/>
</g>
<defs>
<clipPath id="clip0">
<rect width="35" height="35" fill="white"/>
</clipPath>
</defs>
</svg>
