<svg width="31" height="31" viewBox="0 0 31 31" fill="none" xmlns="http://www.w3.org/2000/svg">
<path d="M7.56963 28.4654C7.56963 28.896 7.22058 29.245 6.79003 29.245H0.779541C0.349053 29.245 0 28.896 0 28.4654V27.5735C0 27.143 0.349053 26.7939 0.779602 26.7939H6.79009C7.22064 26.7939 7.56969 27.143 7.56969 27.5735V28.4654H7.56963Z" fill="#EAB14D"/>
<path d="M7.56978 27.5735C7.56978 27.143 7.22072 26.7939 6.79017 26.7939H4.43848V29.245H6.79017C7.22072 29.245 7.56978 28.896 7.56978 28.4654V27.5735Z" fill="#E49542"/>
<path d="M7.78716 24.3429H1.77667C1.34612 24.3429 0.99707 23.9938 0.99707 23.5633V22.6714C0.99707 22.2409 1.34612 21.8918 1.77667 21.8918H7.78716C8.21771 21.8918 8.56676 22.2409 8.56676 22.6714V23.5633C8.56676 23.9938 8.21771 24.3429 7.78716 24.3429Z" fill="#EAB14D"/>
<path d="M7.78745 21.8918H4.43848V24.3429H7.78739C8.21794 24.3429 8.56699 23.9938 8.56699 23.5633V22.6714C8.56705 22.2409 8.218 21.8918 7.78745 21.8918Z" fill="#E49542"/>
<path d="M7.78716 19.4409H1.77667C1.34612 19.4409 0.99707 19.0919 0.99707 18.6613V17.7695C0.99707 17.3389 1.34612 16.9899 1.77667 16.9899H7.78716C8.21771 16.9899 8.56676 17.3389 8.56676 17.7695V18.6613C8.56676 19.0919 8.21771 19.4409 7.78716 19.4409Z" fill="#EAB14D"/>
<path d="M7.78745 16.9899H4.43848V19.4409H7.78739C8.21794 19.4409 8.56699 19.0919 8.56699 18.6613V17.7695C8.56705 17.3389 8.218 16.9899 7.78745 16.9899Z" fill="#E49542"/>
<path d="M6.79003 26.794H0.779541C0.349053 26.794 0 26.4449 0 26.0144V25.1225C0 24.6919 0.349053 24.3429 0.779602 24.3429H6.79009C7.22064 24.3429 7.56969 24.6919 7.56969 25.1225V26.0144C7.56963 26.4449 7.22064 26.794 6.79003 26.794Z" fill="#F6E266"/>
<path d="M6.79017 24.3429H4.43848V26.794H6.79017C7.22072 26.794 7.56978 26.4449 7.56978 26.0144V25.1225C7.56978 24.6919 7.22078 24.3429 6.79017 24.3429Z" fill="#ECBE6B"/>
<path d="M6.79003 21.8919H0.779541C0.349053 21.8919 0 21.5429 0 21.1124V20.2205C0 19.79 0.349053 19.4409 0.779602 19.4409H6.79009C7.22064 19.4409 7.56969 19.79 7.56969 20.2205V21.1124C7.56963 21.5429 7.22064 21.8919 6.79003 21.8919Z" fill="#F6E266"/>
<path d="M6.79012 19.4409H4.43896C4.4389 19.4475 4.43848 19.454 4.43848 19.4606V21.8919H6.79018C7.22073 21.8919 7.56978 21.5429 7.56978 21.1123V20.2205C7.56972 19.79 7.22073 19.4409 6.79012 19.4409Z" fill="#ECBE6B"/>
<path d="M28.248 29.7649C28.248 30.447 27.695 31 27.0129 31H6.98064C6.29858 31 5.74561 30.447 5.74561 29.7649V3.78032C5.74561 3.09826 6.29852 2.54529 6.98064 2.54529H27.013C27.695 2.54529 28.248 3.0982 28.248 3.78032V29.7649H28.248Z" fill="#AA7A63"/>
<path d="M28.2483 3.78038C28.2483 3.09832 27.6954 2.54541 27.0133 2.54541H25.9536C26.6357 2.54541 27.1887 3.09832 27.1887 3.78038V29.765C27.1887 30.447 26.6357 31 25.9536 31H27.0133C27.6953 31 28.2483 30.447 28.2483 29.765V3.78038Z" fill="#986B54"/>
<path d="M7.71564 29.1288C7.66127 29.1288 7.61719 29.0848 7.61719 29.0304V4.51508C7.61719 4.4607 7.66127 4.41663 7.71564 4.41663H26.2786C26.3329 4.41663 26.377 4.4607 26.377 4.51508V29.0303C26.377 29.0847 26.3329 29.1288 26.2786 29.1288H7.71564V29.1288Z" fill="#ECF4FF"/>
<path d="M25.104 4.41663V29.1288H26.2786C26.3329 29.1288 26.377 29.0848 26.377 29.0304V4.51508C26.377 4.4607 26.3329 4.41663 26.2786 4.41663H25.104Z" fill="#DDEAFB"/>
<path d="M21.3635 1.7291H19.4673C19.3143 1.7291 19.176 1.63931 19.1131 1.49993C18.7143 0.615701 17.8255 0 16.7925 0H16.7297C15.6967 0 14.8079 0.615701 14.4091 1.49993C14.3462 1.63931 14.2078 1.7291 14.0549 1.7291H12.6307C12.2174 1.7291 11.8823 2.06416 11.8823 2.47746V4.66187C11.8823 5.07516 12.2174 5.41023 12.6307 5.41023H21.3635C21.7768 5.41023 22.1119 5.07516 22.1119 4.66187V2.47752C22.1119 2.06416 21.7768 1.7291 21.3635 1.7291Z" fill="#365E7D"/>
<path d="M17.8744 1.49993C17.9372 1.63931 18.0756 1.7291 18.2286 1.7291H19.467C19.3141 1.7291 19.1757 1.63931 19.1128 1.49993C18.714 0.615701 17.8253 0 16.7922 0H16.7295C16.527 0 16.3303 0.023916 16.1416 0.0685996C16.9161 0.251875 17.5537 0.788926 17.8744 1.49993Z" fill="#2B4D66"/>
<path d="M21.3634 1.72913H20.125C20.5383 1.72913 20.8734 2.06419 20.8734 2.47749V4.66184C20.8734 5.07513 20.5383 5.4102 20.125 5.4102H21.3634C21.7767 5.4102 22.1118 5.07513 22.1118 4.66184V2.47755C22.1118 2.06419 21.7768 1.72913 21.3634 1.72913Z" fill="#2B4D66"/>
<path d="M23.5918 9.54091H10.4019C10.1435 9.54091 9.93408 9.33148 9.93408 9.07313C9.93408 8.81472 10.1435 8.60535 10.4019 8.60535H23.5918C23.8502 8.60535 24.0596 8.81478 24.0596 9.07313C24.0596 9.33148 23.8502 9.54091 23.5918 9.54091Z" fill="#2B4D66"/>
<path d="M23.5918 12.7912H10.4019C10.1435 12.7912 9.93408 12.5817 9.93408 12.3234C9.93408 12.065 10.1435 11.8556 10.4019 11.8556H23.5918C23.8502 11.8556 24.0596 12.065 24.0596 12.3234C24.0596 12.5817 23.8502 12.7912 23.5918 12.7912Z" fill="#2B4D66"/>
<path d="M23.5918 16.0413H10.4019C10.1435 16.0413 9.93408 15.8318 9.93408 15.5735C9.93408 15.3151 10.1435 15.1057 10.4019 15.1057H23.5918C23.8502 15.1057 24.0596 15.3151 24.0596 15.5735C24.0596 15.8318 23.8502 16.0413 23.5918 16.0413Z" fill="#2B4D66"/>
<path d="M23.5918 19.2915H10.4019C10.1435 19.2915 9.93408 19.0821 9.93408 18.8237C9.93408 18.5654 10.1435 18.356 10.4019 18.356H23.5918C23.8502 18.356 24.0596 18.5654 24.0596 18.8237C24.0596 19.0821 23.8502 19.2915 23.5918 19.2915Z" fill="#2B4D66"/>
<path d="M23.5918 22.5416H10.4019C10.1435 22.5416 9.93408 22.3322 9.93408 22.0739C9.93408 21.8155 10.1435 21.6061 10.4019 21.6061H23.5918C23.8502 21.6061 24.0596 21.8155 24.0596 22.0739C24.0596 22.3322 23.8502 22.5416 23.5918 22.5416Z" fill="#2B4D66"/>
<path d="M23.5918 25.7918H10.4019C10.1435 25.7918 9.93408 25.5823 9.93408 25.324C9.93408 25.0656 10.1435 24.8562 10.4019 24.8562H23.5918C23.8502 24.8562 24.0596 25.0656 24.0596 25.324C24.0596 25.5823 23.8502 25.7918 23.5918 25.7918Z" fill="#2B4D66"/>
<path d="M26.2065 27.4118C28.8539 27.4118 31 25.2657 31 22.6184C31 19.971 28.8539 17.825 26.2065 17.825C23.5592 17.825 21.4131 19.971 21.4131 22.6184C21.4131 25.2657 23.5592 27.4118 26.2065 27.4118Z" fill="#F6E266"/>
<path d="M31.0002 22.6184C31.0002 19.971 28.8541 17.825 26.2068 17.825C25.8706 17.825 25.5427 17.8599 25.2261 17.9257C27.403 18.3783 29.0388 20.3072 29.0388 22.6184C29.0388 24.9296 27.403 26.8584 25.2261 27.3111C25.5427 27.3769 25.8706 27.4118 26.2068 27.4118C28.8541 27.4118 31.0002 25.2657 31.0002 22.6184Z" fill="#ECBE6B"/>
<path d="M27.2488 23.0862H25.1641C24.9057 23.0862 24.6963 22.8768 24.6963 22.6184C24.6963 22.3601 24.9057 22.1506 25.1641 22.1506H27.2488C27.5072 22.1506 27.7165 22.3601 27.7165 22.6184C27.7165 22.8768 27.5072 23.0862 27.2488 23.0862Z" fill="#EAB14D"/>
</svg>
