<svg width="16" height="9" viewBox="0 0 16 9" fill="none" xmlns="http://www.w3.org/2000/svg">
<path d="M0.510224 0.964394L7.17689 3.98614C7.40089 4.08739 7.69067 4.13539 7.98222 4.13539C8.27378 4.13539 8.56356 4.08739 8.78756 3.98614L15.4542 0.964394C15.8889 0.767144 16.2996 -0.000105449 15.5022 -0.000105449H0.463112C-0.334221 -0.000105449 0.0764459 0.767144 0.510224 0.964394ZM15.656 2.61664L8.78756 5.63689C8.48533 5.77039 8.27378 5.78614 7.98222 5.78614C7.69067 5.78614 7.47911 5.77039 7.17689 5.63689C6.87467 5.50339 0.836446 2.83264 0.343113 2.61589C-0.00355407 2.46289 1.4365e-06 2.64214 1.4365e-06 2.78014V8.24989C1.4365e-06 8.56489 0.503113 8.99989 0.88889 8.99989H15.1111C15.4969 8.99989 16 8.56489 16 8.24989V2.78089C16 2.64289 16.0036 2.46364 15.656 2.61664Z" fill="#00C02B"/>
</svg>
