<svg width="31" height="31" viewBox="0 0 31 31" fill="none" xmlns="http://www.w3.org/2000/svg">
<path d="M23.6009 13.2526C23.6009 14.4389 22.6432 15.4005 21.4616 15.4005C20.2801 15.4005 19.3223 14.4389 19.3223 13.2526C19.3223 12.0662 20.2801 11.1046 21.4616 11.1046C22.6432 11.1046 23.6009 12.0662 23.6009 13.2526Z" fill="#E6E9ED"/>
<path d="M25.0409 17.2635C24.9651 17.1874 24.8986 17.1056 24.8409 17.0194C24.1076 17.2489 23.2755 17.0727 22.6946 16.4895C21.8609 15.6525 21.8609 14.2956 22.6946 13.4585C23.5282 12.6216 24.8796 12.6216 25.7133 13.4585C26.0035 13.7499 26.1924 14.1045 26.2805 14.4779C26.6666 14.4993 27.0465 14.6576 27.3414 14.9536C27.9767 15.5915 27.9766 16.6255 27.3413 17.2634C26.7061 17.9013 25.6762 17.9013 25.0409 17.2635Z" fill="#D7F7FF"/>
<path d="M23.8217 15.0716H23.1367C23.1367 14.3102 22.5234 13.6925 21.7664 13.6925C21.2577 13.6925 20.8146 13.9724 20.5785 14.3868C20.4089 13.681 19.7792 13.1562 19.0261 13.1562C18.9719 13.1562 18.9186 13.159 18.8656 13.1644C18.8708 13.1113 18.8738 13.0576 18.8738 13.0031C18.8738 12.1144 18.1582 11.3942 17.2751 11.3942C16.3923 11.3942 15.6766 12.1144 15.6766 13.0031C15.6766 13.1362 15.6944 13.2648 15.7248 13.3885C15.7085 13.3881 15.6928 13.3861 15.6766 13.3861C14.7939 13.3861 14.0781 14.1064 14.0781 14.9949C14.0781 15.0208 14.0807 15.0462 14.082 15.0717H13.0124C12.3397 15.0717 11.7944 15.6205 11.7944 16.2976C11.7944 16.9747 12.3397 17.5234 13.0124 17.5234H23.8217C24.4946 17.5234 25.0398 16.9746 25.0398 16.2976C25.0398 15.6205 24.4946 15.0716 23.8217 15.0716Z" fill="#B1E8FF"/>
<path d="M10.4701 29.1362C10.1317 29.1362 9.80538 28.8638 9.74477 28.5309L7.80909 17.8909C7.74854 17.558 7.97577 17.2856 8.31417 17.2856H27.2453C27.5837 17.2856 27.8103 17.5579 27.7489 17.8906L25.7861 28.5312C25.7247 28.8639 25.3976 29.1362 25.0592 29.1362H10.4701Z" fill="#FFBB4A"/>
<path opacity="0.1" d="M11.4299 28.5309L9.49423 17.8909C9.43368 17.558 9.66091 17.2856 9.99931 17.2856H8.31417C7.97577 17.2856 7.74854 17.558 7.80909 17.8909L9.74477 28.5309C9.80538 28.8638 10.1318 29.1362 10.4701 29.1362H12.1553C11.8169 29.1362 11.4905 28.8638 11.4299 28.5309Z" fill="#231F20"/>
<path d="M28.9909 17.7548C28.9909 17.924 28.8524 18.0624 28.6832 18.0624H6.876C6.70683 18.0624 6.56836 17.924 6.56836 17.7548V16.5817C6.56836 16.4126 6.70683 16.2742 6.876 16.2742H28.6832C28.8524 16.2742 28.9909 16.4126 28.9909 16.5817V17.7548Z" fill="#08375E"/>
<path d="M17.5404 16.4611C17.5404 16.6304 17.402 16.7688 17.2328 16.7688H6.876C6.70683 16.7688 6.56836 16.6304 6.56836 16.4611V15.288C6.56836 15.1188 6.70683 14.9805 6.876 14.9805H17.2328C17.402 14.9805 17.5404 15.1188 17.5404 15.288V16.4611Z" fill="#34A1D7"/>
<path d="M17.7793 23.9429C18.8809 23.9429 19.774 23.0499 19.774 21.9483C19.774 20.8467 18.8809 19.9536 17.7793 19.9536C16.6777 19.9536 15.7847 20.8467 15.7847 21.9483C15.7847 23.0499 16.6777 23.9429 17.7793 23.9429Z" fill="#CB7C52"/>
<path d="M26.2744 27.279C26.1486 27.279 26.021 27.249 25.9022 27.1857L17.6855 22.8084C17.2989 22.6025 17.1525 22.1223 17.3585 21.7358C17.5644 21.3491 18.0448 21.2028 18.4312 21.4087L26.648 25.786C27.0345 25.9919 27.1809 26.4722 26.9749 26.8588C26.8323 27.1265 26.5579 27.279 26.2744 27.279Z" fill="#08375E"/>
<path d="M8.08367 3.9355C8.08361 3.93338 8.08301 3.93138 8.08301 3.9292V25.1528H9.25622V3.9292C9.25622 3.93138 9.25562 3.93338 9.25555 3.9355H8.08367Z" fill="#ABCCD3"/>
<path d="M9.25556 3.93555C9.25562 3.93343 9.25623 3.93143 9.25623 3.92925V0.307578C9.25623 0.13841 9.11782 0 8.94865 0H8.39059C8.22142 0 8.08301 0.13841 8.08301 0.307578V3.92919C8.08301 3.93137 8.08361 3.93337 8.08367 3.93549H9.25556V3.93555Z" fill="#34A1D7"/>
<path d="M10.1038 26.6401C10.1038 26.8093 9.96536 26.9477 9.79619 26.9477H7.54342C7.37425 26.9477 7.23584 26.8093 7.23584 26.6401V24.3873C7.23584 24.2181 7.37425 24.0797 7.54342 24.0797H9.79619C9.96536 24.0797 10.1038 24.2181 10.1038 24.3873V26.6401Z" fill="#3EAF91"/>
<path opacity="0.1" d="M8.24007 26.6401V24.3873C8.24007 24.2181 8.37848 24.0797 8.54765 24.0797H7.54342C7.37425 24.0797 7.23584 24.2181 7.23584 24.3873V26.6401C7.23584 26.8093 7.37425 26.9477 7.54342 26.9477H8.54765C8.37848 26.9477 8.24007 26.8093 8.24007 26.6401Z" fill="#231F20"/>
<path d="M12.5157 27.9438C12.5157 28.1129 12.3773 28.2513 12.2082 28.2513H5.13186C4.96269 28.2513 4.82422 28.1129 4.82422 27.9438V26.7338C4.82422 26.5647 4.96269 26.4263 5.13186 26.4263H12.2081C12.3773 26.4263 12.5157 26.5647 12.5157 26.7338L12.5157 27.9438Z" fill="#34A1D7"/>
<path opacity="0.1" d="M6.51644 27.9438V26.7338C6.51644 26.5647 6.65485 26.4263 6.82402 26.4263H5.13186C4.96269 26.4263 4.82422 26.5647 4.82422 26.7338V27.9438C4.82422 28.1129 4.96269 28.2513 5.13186 28.2513H6.82396C6.65485 28.2514 6.51644 28.1129 6.51644 27.9438Z" fill="#231F20"/>
<path d="M5.67311 29.8229L5.2712 30.2248C5.09386 30.4021 5.09386 30.6897 5.27114 30.867C5.35984 30.9557 5.47603 31 5.59228 31C5.70847 31 5.82472 30.9557 5.91336 30.867L6.95754 29.8229H5.67311Z" fill="#86D5B5"/>
<path d="M4.10865 29.8229L3.70674 30.2248C3.52939 30.4022 3.52939 30.6897 3.70674 30.867C3.79538 30.9557 3.91163 31 4.02782 31C4.14401 31 4.26026 30.9557 4.3489 30.867L5.39309 29.8229H4.10865Z" fill="#86D5B5"/>
<path d="M3.09057 29.8229C2.93321 29.8229 2.78578 29.7813 2.65784 29.7092L2.14228 30.2248C1.96494 30.4022 1.96494 30.6897 2.14228 30.867C2.23092 30.9556 2.34717 31 2.46336 31C2.57955 31 2.6958 30.9556 2.78444 30.867L3.82857 29.8229H3.09057Z" fill="#86D5B5"/>
<path d="M10.302 29.8229H7.23707L6.83515 30.2248C6.65781 30.4021 6.65781 30.6897 6.83515 30.867C6.92386 30.9557 7.04005 31 7.1563 31C7.27249 31 7.38874 30.9557 7.47738 30.867L8.31541 30.029V30.5459C8.31541 30.7967 8.51872 31 8.76951 31C9.02029 31 9.22361 30.7967 9.22361 30.5459V30.029L10.0617 30.867C10.1504 30.9557 10.2666 31 10.3828 31C10.499 31 10.6152 30.9557 10.7039 30.867C10.8813 30.6896 10.8812 30.4021 10.7039 30.2248L10.302 29.8229Z" fill="#86D5B5"/>
<path d="M11.8665 29.8229H10.582L11.6262 30.867C11.7149 30.9557 11.8311 31 11.9473 31C12.0635 31 12.1797 30.9557 12.2684 30.867C12.4457 30.6896 12.4457 30.4021 12.2684 30.2248L11.8665 29.8229Z" fill="#86D5B5"/>
<path d="M13.4309 29.8229H12.1465L13.1906 30.867C13.2793 30.9557 13.3955 31 13.5117 31C13.6279 31 13.7441 30.9557 13.8328 30.867C14.0101 30.6896 14.0101 30.4021 13.8328 30.2248L13.4309 29.8229Z" fill="#86D5B5"/>
<path d="M15.3967 30.2247L14.8008 29.6288C14.6496 29.75 14.458 29.8228 14.2492 29.8228H13.7104L14.7546 30.867C14.8433 30.9556 14.9595 30.9999 15.0757 30.9999C15.1919 30.9999 15.3082 30.9556 15.3968 30.867C15.5741 30.6896 15.5741 30.4022 15.3967 30.2247Z" fill="#86D5B5"/>
<path d="M15.1326 28.9394C15.1326 29.4274 14.737 29.8229 14.249 29.8229H3.09016C2.60216 29.8229 2.20654 29.4274 2.20654 28.9394C2.20654 28.4514 2.6021 28.0558 3.09016 28.0558H14.2491C14.737 28.0558 15.1326 28.4514 15.1326 28.9394Z" fill="#3EAF91"/>
<path opacity="0.1" d="M4.23438 28.9394C4.23438 28.4514 4.62993 28.0558 5.11794 28.0558H3.09016C2.60216 28.0558 2.20654 28.4514 2.20654 28.9394C2.20654 29.4274 2.6021 29.8229 3.09016 29.8229H5.11794C4.62993 29.8229 4.23438 29.4273 4.23438 28.9394Z" fill="#231F20"/>
<path d="M21.358 8.03337C22.7841 8.03337 23.9402 6.85879 23.9402 5.40987C23.9402 3.96096 22.7841 2.78638 21.358 2.78638C19.9319 2.78638 18.7759 3.96096 18.7759 5.40987C18.7759 6.85879 19.9319 8.03337 21.358 8.03337Z" fill="#B1E8FF"/>
<path opacity="0.1" d="M19.7619 5.40999C19.7619 4.13239 20.6608 3.06865 21.851 2.83488C21.6914 2.80339 21.5267 2.7865 21.358 2.7865C19.9318 2.7865 18.7759 3.96105 18.7759 5.40999C18.7759 6.85888 19.9318 8.03331 21.358 8.03331C21.5266 8.03331 21.6914 8.01641 21.851 7.98493C20.6608 7.75116 19.7619 6.68747 19.7619 5.40999Z" fill="#231F20"/>
<path d="M25.9103 10.9813C26.6649 10.9813 27.2767 10.3597 27.2767 9.59299C27.2767 8.82627 26.6649 8.20471 25.9103 8.20471C25.1557 8.20471 24.5439 8.82627 24.5439 9.59299C24.5439 10.3597 25.1557 10.9813 25.9103 10.9813Z" fill="#E6E9ED"/>
</svg>
