<svg width="11" height="19" viewBox="0 0 11 19" fill="none" xmlns="http://www.w3.org/2000/svg">
<path d="M1.20552 0.772905L0.610806 1.36351C0.425078 1.54939 0.322759 1.79668 0.322759 2.06098C0.322759 2.32514 0.425078 2.57273 0.610806 2.7586L7.34833 9.49583L0.603331 16.2408C0.417602 16.4264 0.31543 16.674 0.31543 16.9382C0.31543 17.2023 0.417602 17.45 0.603331 17.6358L1.19438 18.2265C1.57873 18.6112 2.20482 18.6112 2.58917 18.2265L10.6488 10.1958C10.8344 10.0102 10.9651 9.76292 10.9651 9.49642L10.9651 9.49334C10.9651 9.22904 10.8342 8.98174 10.6488 8.79616L2.61101 0.772905C2.42543 0.58703 2.17066 0.485004 1.90651 0.484711C1.64221 0.484711 1.39095 0.58703 1.20552 0.772905Z" fill="white"/>
</svg>
