<svg width="31" height="31" viewBox="0 0 31 31" fill="none" xmlns="http://www.w3.org/2000/svg">
<g clip-path="url(#clip0)">
<path d="M20.8447 0H19.7757C19.4806 0 19.2412 0.239342 19.2412 0.534508V8.01725H21.3791V0.534508C21.3791 0.239342 21.1398 0 20.8447 0Z" fill="#00AAF0"/>
<path d="M11.2241 0H10.1551C9.85995 0 9.62061 0.239342 9.62061 0.534508V8.01725H11.7585V0.534508C11.7586 0.239342 11.5192 0 11.2241 0Z" fill="#00AAF0"/>
<path d="M24.0515 31H17.5711C17.3032 31 17.0767 30.8017 17.0413 30.5361L16.1049 23.5126C16.0644 23.2092 15.8057 22.9828 15.4998 22.9828C15.1938 22.9828 14.9351 23.2093 14.8947 23.5126L13.9583 30.5361C13.9228 30.8016 13.6963 31 13.4285 31H6.94808C6.65292 31 6.41357 30.7606 6.41357 30.4655V16.9719C6.41357 16.365 6.6201 15.7763 6.99918 15.3024L7.96587 14.094C8.34496 13.6201 8.55148 13.0314 8.55148 12.4246V8.01724C8.55148 7.72207 8.79083 7.48273 9.08599 7.48273H21.9135C22.2087 7.48273 22.448 7.72207 22.448 8.01724V12.4246C22.448 13.0315 22.6545 13.6202 23.0336 14.0941L24.0003 15.3025C24.3794 15.7764 24.5859 16.3651 24.5859 16.9719V30.4655C24.586 30.7606 24.3466 31 24.0515 31Z" fill="#00C3FF"/>
<path d="M18.1725 12.3756C18.1725 12.6858 18.0477 12.9925 17.8036 13.1838C17.2393 13.6257 16.4172 13.9047 15.5001 13.9047C14.583 13.9047 13.7608 13.6257 13.1965 13.1838C12.9524 12.9925 12.8276 12.6858 12.8276 12.3756V9.62075C12.8276 9.32558 13.067 9.08624 13.3621 9.08624H17.638C17.9332 9.08624 18.1725 9.32558 18.1725 9.62075V12.3756H18.1725Z" fill="#00AAF0"/>
<path d="M10.6898 10.1553C10.985 10.1553 11.2243 9.91595 11.2243 9.62075C11.2243 9.32555 10.985 9.08624 10.6898 9.08624C10.3946 9.08624 10.1553 9.32555 10.1553 9.62075C10.1553 9.91595 10.3946 10.1553 10.6898 10.1553Z" fill="#D5DCED"/>
<path d="M20.3104 10.1553C20.6056 10.1553 20.8449 9.91595 20.8449 9.62075C20.8449 9.32555 20.6056 9.08624 20.3104 9.08624C20.0152 9.08624 19.7759 9.32555 19.7759 9.62075C19.7759 9.91595 20.0152 10.1553 20.3104 10.1553Z" fill="#D5DCED"/>
<path d="M24.4117 16.0345H6.58789C6.47606 16.3327 6.41357 16.6489 6.41357 16.9719V21.3793H6.94808C8.12881 21.3793 9.08599 20.4221 9.08599 19.2414V17.6379C9.08599 17.3427 9.32533 17.1034 9.6205 17.1034H14.9653V23.2991C15.07 23.1091 15.2715 22.9827 15.4998 22.9827C15.7282 22.9827 15.9297 23.1091 16.0344 23.2991V17.1034H21.3792C21.6744 17.1034 21.9137 17.3428 21.9137 17.6379V19.2414C21.9137 20.4221 22.8709 21.3793 24.0516 21.3793H24.5861V16.9719C24.586 16.6489 24.5235 16.3326 24.4117 16.0345Z" fill="#00AAF0"/>
<path d="M6.94808 31.0001H13.4285C13.6963 31.0001 13.9229 30.8017 13.9583 30.5362L14.1102 29.3966H6.41357V30.4656C6.41357 30.7607 6.65292 31.0001 6.94808 31.0001Z" fill="#00AAF0"/>
<path d="M16.8896 29.3966L17.0416 30.5362C17.077 30.8018 17.3035 31.0001 17.5713 31.0001H24.0517C24.3469 31.0001 24.5862 30.7607 24.5862 30.4656V29.3966H16.8896Z" fill="#00AAF0"/>
</g>
<defs>
<clipPath id="clip0">
<rect width="31" height="31" fill="white"/>
</clipPath>
</defs>
</svg>
