<svg width="33" height="33" viewBox="0 0 33 33" fill="none" xmlns="http://www.w3.org/2000/svg">
<g clip-path="url(#clip0)">
<path fill-rule="evenodd" clip-rule="evenodd" d="M4.36328 21.6439L0.0194637 9.56534C-0.0429269 9.38945 0.0496922 9.19461 0.225585 9.13035C5.93665 7.07629 12.372 5.1659 17.8732 2.81865C18.119 2.66357 18.3119 2.81678 18.4178 3.10991L25.2427 20.702L27.096 25.8561C27.1584 26.032 27.0677 26.2287 26.8918 26.2912L13.832 30.9876L8.74113 32.8185C8.56524 32.8828 8.37046 32.7901 8.3062 32.6142L4.36328 21.6439Z" fill="white"/>
<path fill-rule="evenodd" clip-rule="evenodd" d="M7.98464 17.6361L5.8156 4.98624C5.78344 4.80088 5.90828 4.62498 6.09172 4.59282L21.0294 2.03184L24.4503 1.4682C24.6376 1.38686 24.9421 1.48141 25.0139 1.89946L28.709 20.3522L29.6338 25.7503C29.6659 25.9338 29.5411 26.1116 29.3577 26.1438L15.6794 28.4891L10.3466 29.4046C10.1632 29.4349 9.98539 29.31 9.95323 29.1265L7.98464 17.6361Z" fill="white"/>
<path fill-rule="evenodd" clip-rule="evenodd" d="M12.1695 13.9061V26.0679C12.1695 26.2628 12.3284 26.4235 12.5232 26.4235H18.168H26.5248H27.7256H32.6462C32.841 26.4235 32.9999 26.2628 32.9999 26.0679V20.354V4.57005V4.4055H29.4068C29.0607 4.4055 28.3421 4.45468 28.3421 3.66977L28.3345 0.161133H12.5231C12.3283 0.161133 12.1694 0.32001 12.1694 0.514852V3.55059V4.83489V13.9061H12.1695Z" fill="white"/>
<path fill-rule="evenodd" clip-rule="evenodd" d="M6.17493 7.08374C4.15149 7.76469 2.14693 8.4399 0.225585 9.13026C0.0496922 9.19458 -0.0429269 9.38936 0.0194637 9.56525L4.36328 21.6439L8.3062 32.6141C8.37053 32.79 8.5653 32.8827 8.74113 32.8184L13.832 30.9875L25.4319 26.8169L6.17493 7.08374Z" fill="#B5C4CF"/>
<path fill-rule="evenodd" clip-rule="evenodd" d="M12.1696 3.5506L6.09172 4.59274C5.90828 4.6249 5.78344 4.8008 5.8156 4.98616L6.17492 7.08372L7.9847 17.636L9.95329 29.1264C9.98546 29.3099 10.1632 29.4346 10.3467 29.4044L15.6795 28.489L25.4318 26.817L27.7257 26.4235H26.5249L12.1696 3.5506Z" fill="#D7E7EC"/>
<path fill-rule="evenodd" clip-rule="evenodd" d="M32.9998 20.354V4.57005V4.4055V4.35065C32.9998 4.24849 32.9563 4.23148 32.7993 4.07827L28.9207 0.378662C28.7373 0.204639 28.7071 0.161133 28.5992 0.161133H28.3345H12.5231C12.3283 0.161133 12.1694 0.32001 12.1694 0.514852V26.0679C12.1694 26.2628 12.3283 26.4235 12.5231 26.4235H32.6461C32.8409 26.4235 32.9998 26.2628 32.9998 26.0679V20.354Z" fill="#EDF3F4"/>
<path fill-rule="evenodd" clip-rule="evenodd" d="M12.1696 3.5506L10.7456 3.79462V27.375C10.7456 27.5717 10.9045 27.7306 11.0993 27.7306H16.7441H20.1027L25.4318 26.817L27.7257 26.4236H26.5248H25.0479H18.1681H12.5232C12.3284 26.4236 12.1696 26.2629 12.1696 26.068C12.1696 18.5628 12.1696 11.0557 12.1696 3.5506Z" fill="#B5C4CF"/>
<path fill-rule="evenodd" clip-rule="evenodd" d="M7.98396 17.636L6.17418 7.08374C5.6844 7.24829 5.19649 7.41284 4.71045 7.57739L4.93552 8.88817L6.7453 19.4404L8.71582 30.9308C8.74605 31.1143 8.92381 31.2391 9.10725 31.2089L14.4401 30.2934L16.9704 29.8603L24.5915 27.1178L24.5007 26.9759L20.102 27.7306L15.6788 28.4891L10.346 29.4045C10.1625 29.4348 9.98478 29.3099 9.95261 29.1265L7.98396 17.636Z" fill="#9AAFB7"/>
<path fill-rule="evenodd" clip-rule="evenodd" d="M32.9996 20.354V4.57005V4.4055C32.9996 4.21446 32.9372 4.21259 32.7992 4.07827L28.9206 0.378662C28.7371 0.204639 28.7069 0.161133 28.5991 0.161133H28.3343H24.3989C29.208 6.59955 29.4822 18.2053 25.9137 25.4494C25.7492 25.7861 25.5771 26.1096 25.3974 26.4235H26.5245H27.7254H32.646C32.8407 26.4235 32.9996 26.2628 32.9996 26.0679V20.354Z" fill="#D7E7EC"/>
<path fill-rule="evenodd" clip-rule="evenodd" d="M28.342 3.66977C28.342 4.45468 29.0606 4.4055 29.4067 4.4055H32.9998V4.35065C32.9998 4.24849 32.9563 4.23148 32.7993 4.07827L28.9207 0.378662C28.7373 0.204639 28.7071 0.161133 28.5992 0.161133H28.3345L28.342 3.66977Z" fill="white"/>
<path fill-rule="evenodd" clip-rule="evenodd" d="M32.7993 4.07827L28.9207 0.378662C28.7373 0.204639 28.7071 0.161133 28.5992 0.161133H28.3345L28.342 3.6697C28.342 4.45461 29.0606 4.40544 29.4067 4.40544H32.9998V4.35059C32.9998 4.24849 32.9563 4.23148 32.7993 4.07827Z" fill="#B5C4CF"/>
<path d="M29.8043 7.89585H15.5663C15.2913 7.89585 15.0684 7.67284 15.0684 7.39769C15.0684 7.12254 15.2913 6.89954 15.5663 6.89954H29.8043C30.0793 6.89954 30.3022 7.12254 30.3022 7.39769C30.3022 7.67284 30.0794 7.89585 29.8043 7.89585Z" fill="#9AAFB7"/>
<path d="M29.8043 11.4348H15.5663C15.2913 11.4348 15.0684 11.2118 15.0684 10.9366C15.0684 10.6615 15.2913 10.4385 15.5663 10.4385H29.8043C30.0793 10.4385 30.3022 10.6615 30.3022 10.9366C30.3022 11.2118 30.0794 11.4348 29.8043 11.4348Z" fill="#9AAFB7"/>
<path d="M29.8043 14.9736H15.5663C15.2913 14.9736 15.0684 14.7506 15.0684 14.4755C15.0684 14.2003 15.2913 13.9773 15.5663 13.9773H29.8043C30.0793 13.9773 30.3022 14.2003 30.3022 14.4755C30.3022 14.7506 30.0794 14.9736 29.8043 14.9736Z" fill="#9AAFB7"/>
<path d="M29.8043 18.5124H15.5663C15.2913 18.5124 15.0684 18.2894 15.0684 18.0143C15.0684 17.7391 15.2913 17.5161 15.5663 17.5161H29.8043C30.0793 17.5161 30.3022 17.7391 30.3022 18.0143C30.3022 18.2894 30.0794 18.5124 29.8043 18.5124Z" fill="#9AAFB7"/>
<path d="M29.8043 22.0512H15.5663C15.2913 22.0512 15.0684 21.8282 15.0684 21.5531C15.0684 21.2779 15.2913 21.0549 15.5663 21.0549H29.8043C30.0793 21.0549 30.3022 21.2779 30.3022 21.5531C30.3022 21.8282 30.0794 22.0512 29.8043 22.0512Z" fill="#9AAFB7"/>
</g>
<defs>
<clipPath id="clip0">
<rect width="33" height="33" fill="white"/>
</clipPath>
</defs>
</svg>
