<svg width="32" height="32" viewBox="0 0 32 32" fill="none" xmlns="http://www.w3.org/2000/svg">
<path d="M15.9999 0C9.19118 0 3.65186 5.53932 3.65186 12.348C3.65186 14.6992 4.29254 17.1953 5.55605 19.767C6.55792 21.8062 7.95243 23.8989 9.70087 25.9871C12.6691 29.5321 15.5901 31.8068 15.713 31.9019C15.7974 31.9673 15.8988 31.9999 15.9999 31.9999C16.1011 31.9999 16.2024 31.9673 16.2869 31.9019C16.4098 31.8068 19.3308 29.5321 22.299 25.9871C24.0474 23.8989 25.442 21.8061 26.4438 19.767C27.7073 17.1953 28.348 14.6992 28.348 12.348C28.348 5.53932 22.8087 0 15.9999 0ZM15.9999 8.07895C18.3539 8.07895 20.269 9.99402 20.269 12.348C20.269 14.702 18.3539 16.6171 15.9999 16.6171C13.6459 16.6171 11.7309 14.702 11.7309 12.348C11.7309 9.99402 13.6459 8.07895 15.9999 8.07895Z" fill="#FF4A4A"/>
<path d="M15.9997 0C15.5364 0 15.0792 0.0265001 14.6289 0.0765002C20.7949 0.760689 25.6062 6.00264 25.6062 12.3481C25.6062 14.6992 24.9656 17.1953 23.702 19.767C22.7001 21.8062 21.3056 23.899 19.5572 25.9871C17.6528 28.2616 15.7679 30.0131 14.6289 31.0016C15.2652 31.5538 15.6687 31.8679 15.7128 31.9019C15.7972 31.9673 15.8985 31.9999 15.9997 31.9999C16.1009 31.9999 16.2022 31.9673 16.2867 31.9019C16.4096 31.8068 19.3306 29.5321 22.2988 25.9871C24.0472 23.8989 25.4417 21.8061 26.4436 19.767C27.7071 17.1953 28.3478 14.6992 28.3478 12.348C28.3478 5.53932 22.8085 0 15.9997 0Z" fill="#E7343F"/>
</svg>
