<svg width="31" height="31" viewBox="0 0 31 31" fill="none" xmlns="http://www.w3.org/2000/svg">
<g clip-path="url(#clip0)">
<path d="M23.3772 17.8344C23.3772 12.2 18.8218 7.63245 13.2023 7.63245C7.58279 7.63245 3.02734 12.2 3.02734 17.8344C3.02734 23.4688 7.58279 28.0363 13.2023 28.0363C18.8218 28.0363 23.3772 23.4688 23.3772 17.8344Z" fill="#89C8FD"/>
<path d="M13.2024 7.63245C12.6802 7.63245 12.1669 7.67194 11.666 7.7481C16.5564 8.49075 20.3043 12.7236 20.3043 17.8344C20.3043 22.9451 16.5564 27.178 11.666 27.9206C12.1669 27.9968 12.6802 28.0363 13.2024 28.0363C18.8219 28.0363 23.3773 23.4688 23.3773 17.8344C23.3773 12.2 18.8219 7.63245 13.2024 7.63245Z" fill="#60B6FF"/>
<path d="M11.8795 11.5973C10.3122 12.5796 9.13649 14.151 10.0182 15.9191C10.8999 17.687 12.8592 16.9995 14.6716 16.754C16.4839 16.5085 15.1124 22.1072 16.19 23.4823C17.2675 24.8573 20.3043 22.1072 20.0106 20.339C19.5754 17.7213 19.4228 16.803 22.9495 14.9369L22.9589 14.9333C21.7702 10.9081 18.1719 7.92149 13.8393 7.65305L13.8388 7.66842C13.8388 7.66842 13.4469 10.6151 11.8795 11.5973Z" fill="#BAEB6C"/>
<path d="M19.5771 9.88364C19.5782 9.88433 19.5792 9.88537 19.5803 9.88607C19.5792 9.88537 19.5782 9.88468 19.5771 9.88364Z" fill="#BAEB6C"/>
<path d="M20.8213 11.0737C20.8213 11.0741 20.8217 11.0744 20.822 11.0744C20.8217 11.0741 20.8217 11.0741 20.8213 11.0737Z" fill="#BAEB6C"/>
<path d="M6.4428 22.4509C5.97215 21.733 7.27556 20.0446 7.56931 18.7677C7.86329 17.4907 6.09986 17.5889 5.56109 17.1469C5.02232 16.7048 4.28748 14.7896 3.7487 14.3475L3.66261 14.2796C3.25203 15.3865 3.02734 16.5842 3.02734 17.8344C3.02734 21.2066 4.65927 24.1961 7.17433 26.0534L7.17741 25.8396C7.17741 25.8396 7.56931 24.1698 6.4428 22.4509Z" fill="#BAEB6C"/>
<path d="M20.0109 20.339C20.0087 20.3263 20.0066 20.3137 20.0045 20.301C19.8098 21.0874 19.5241 21.8378 19.1592 22.5403C19.7379 21.8572 20.1246 21.0245 20.0109 20.339Z" fill="#BAEB6C"/>
<path d="M13.8395 7.65305L13.839 7.66842C13.839 7.66842 13.8064 7.91439 13.7222 8.28737C17.2902 9.63785 19.9024 12.941 20.2619 16.8973C20.7116 16.2824 21.5339 15.6859 22.9497 14.9369L22.9591 14.9333C21.7704 10.9081 18.1721 7.92149 13.8395 7.65305Z" fill="#96D629"/>
<path d="M13.1886 31C12.468 31 11.7421 30.9409 11.0167 30.821C7.54923 30.2484 4.51219 28.3598 2.46518 25.5033C0.41818 22.6467 -0.393764 19.1638 0.179067 15.6966C0.220456 15.4454 0.458386 15.2756 0.708852 15.3169C0.960027 15.3583 1.13008 15.5956 1.08845 15.8467C0.556065 19.0711 1.31101 22.3099 3.21469 24.9664C5.11837 27.6229 7.94231 29.379 11.1671 29.9116C17.8242 31.0114 24.1334 26.49 25.2329 19.8338C25.7653 16.6095 25.0104 13.3707 23.1067 10.7142C21.2033 8.05771 18.3791 6.30161 15.1545 5.76899C14.9033 5.7276 14.7333 5.49038 14.7746 5.23921C14.8163 4.98803 15.054 4.81822 15.3044 4.8596C18.7722 5.4322 21.8092 7.32074 23.856 10.1773C25.903 13.0339 26.7149 16.5168 26.1423 19.984C25.5697 23.4513 23.681 26.4881 20.8241 28.5349C18.5647 30.1535 15.9139 31 13.1886 31Z" fill="#09A66D"/>
<path d="M10.3903 11.1338C5.46989 10.2989 2.41748 4.1037 2.41748 4.1037C2.41748 4.1037 7.34283 -0.737926 12.2632 0.0967224C17.1836 0.931371 20.236 7.12655 20.236 7.12655C20.236 7.12655 15.3107 11.9684 10.3903 11.1338Z" fill="#49CB5C"/>
<path d="M12.2632 0.0967689C11.3235 -0.0626397 10.3841 -0.0146279 9.47852 0.166776C14.1934 1.2254 17.1017 7.12659 17.1017 7.12659C17.1017 7.12659 13.8776 10.2956 10.0405 11.0638C10.1561 11.0898 10.2725 11.1137 10.3903 11.1338C15.3106 11.9685 20.236 7.12659 20.236 7.12659C20.236 7.12659 17.1836 0.931417 12.2632 0.0967689Z" fill="#07B128"/>
<path d="M19.9579 6.6122L15.146 5.80049L10.6514 0.0130615C10.2928 0.034111 9.93759 0.0799942 9.58708 0.145744L13.8027 5.57368L10.1743 4.96159L7.07841 0.956032C6.78797 1.08706 6.50558 1.22613 6.23335 1.3704L8.83427 4.73548L2.83469 3.72321C2.5653 3.95854 2.41748 4.10376 2.41748 4.10376C2.41748 4.10376 2.51634 4.30408 2.70602 4.63638L8.67297 5.64297L5.3637 8.20179C5.5768 8.42127 5.8003 8.63815 6.03397 8.84865L9.90992 5.85181L13.7511 6.49986L8.52704 10.5416C8.8513 10.693 9.18643 10.824 9.53197 10.9295L14.9881 6.70869L19.8029 7.52087C20.082 7.2775 20.236 7.12661 20.236 7.12661C20.236 7.12661 20.1407 6.93362 19.9579 6.6122Z" fill="#09A66D"/>
<path d="M23.5823 5.12021C24.9023 1.99684 29.4757 0.945312 29.4757 0.945312C29.4757 0.945312 31.9092 4.95773 30.5892 8.08109C29.2695 11.2045 24.6958 12.256 24.6958 12.256C24.6958 12.256 22.2624 8.24358 23.5823 5.12021Z" fill="#49CB5C"/>
<path d="M29.4761 0.945312C29.4761 0.945312 28.4362 1.18466 27.2049 1.77357C27.8366 3.11176 28.838 5.82761 27.8856 8.08109C27.1952 9.71491 25.6144 10.7818 24.2637 11.4277C24.5075 11.9443 24.6965 12.256 24.6965 12.256C24.6965 12.256 29.2699 11.2045 30.5899 8.08109C31.9096 4.95773 29.4761 0.945312 29.4761 0.945312Z" fill="#07B128"/>
<path d="M30.9635 5.50501L27.4465 6.98037L29.7556 1.45996C29.5903 1.13358 29.4761 0.945312 29.4761 0.945312C29.4761 0.945312 29.2585 0.995453 28.9044 1.10614L26.518 6.81126L25.0382 3.17017C24.7875 3.39131 24.5509 3.63161 24.3364 3.89201L26.0133 8.01794L24.4381 11.7837C24.5919 12.0838 24.6962 12.256 24.6962 12.256C24.6962 12.256 24.9327 12.2016 25.313 12.081L26.9395 8.19273L30.9621 6.50546C30.9888 6.17127 30.9874 5.83613 30.9635 5.50501Z" fill="#09A66D"/>
</g>
<defs>
<clipPath id="clip0">
<rect width="31" height="31" fill="white"/>
</clipPath>
</defs>
</svg>
