<svg width="11" height="19" viewBox="0 0 11 19" fill="none" xmlns="http://www.w3.org/2000/svg">
<path d="M9.79448 18.2271L10.3892 17.6365C10.5749 17.4506 10.6772 17.2033 10.6772 16.939C10.6772 16.6749 10.5749 16.4273 10.3892 16.2414L3.65167 9.50417L10.3967 2.75917C10.5824 2.57359 10.6846 2.326 10.6846 2.06184C10.6846 1.79769 10.5824 1.54995 10.3967 1.36423L9.80562 0.773473C9.42127 0.388823 8.79518 0.388823 8.41083 0.773473L0.35122 8.80421C0.165639 8.98979 0.0348808 9.23708 0.0348809 9.50358L0.0348809 9.50666C0.0348809 9.77096 0.165785 10.0183 0.35122 10.2038L8.38899 18.2271C8.57457 18.413 8.82934 18.515 9.0935 18.5153C9.3578 18.5153 9.60905 18.413 9.79448 18.2271Z" fill="white"/>
</svg>
