<svg width="31" height="31" viewBox="0 0 31 31" fill="none" xmlns="http://www.w3.org/2000/svg">
<g clip-path="url(#clip0)">
<path d="M11.625 4.34278C11.3667 4.34278 11.1572 4.13335 11.1572 3.875V1.9375C11.1572 1.67914 11.3667 1.46971 11.625 1.46971C11.8834 1.46971 12.0928 1.67914 12.0928 1.9375V3.875C12.0928 4.13335 11.8834 4.34278 11.625 4.34278Z" fill="#365E7D"/>
<path d="M19.847 8.65089L18.4761 7.27999L20.2323 5.52376C20.3978 5.35823 20.6662 5.35823 20.8317 5.52376L21.6033 6.29531C21.7688 6.46085 21.7688 6.72919 21.6033 6.89467L19.847 8.65089Z" fill="#2B4D66"/>
<path d="M4.77422 7.28L3.40332 8.6509L1.6471 6.89468C1.48157 6.72915 1.48157 6.4608 1.6471 6.29533L2.41859 5.52372C2.58412 5.35818 2.85247 5.35818 3.01794 5.52372L4.77422 7.28Z" fill="#2B4D66"/>
<path d="M19.8411 23.7184C24.3802 19.1793 24.3802 11.8199 19.8411 7.28077C15.3019 2.74164 7.94254 2.74164 3.4034 7.28077C-1.13573 11.8199 -1.13573 19.1793 3.4034 23.7184C7.94254 28.2576 15.3019 28.2576 19.8411 23.7184Z" fill="#F25A74"/>
<path d="M6.59047 23.7783C8.34009 25.5017 10.6323 26.6775 13.1847 27.0205C12.6745 27.0891 12.1542 27.1247 11.6253 27.1247C5.21514 27.1247 0 21.9102 0 15.5C0 9.08977 5.21514 3.87523 11.6254 3.87523C12.1543 3.87523 12.6745 3.91077 13.1847 3.97937C10.6324 4.32243 8.34015 5.49819 6.59053 7.22159C4.44856 9.33111 3.11877 12.2633 3.11877 15.4999C3.11877 18.7365 4.44856 21.6688 6.59047 23.7783Z" fill="#E83D5A"/>
<path d="M21.0204 15.5C21.0204 15.6568 21.3092 15.8124 21.3013 15.9668C21.0652 20.945 17.0721 24.9393 12.0934 25.176C11.9384 25.1839 11.7822 24.9102 11.6253 24.9102C11.4685 24.9102 11.3123 25.1839 11.1573 25.176C9.73264 25.1088 8.38911 24.7334 7.19088 24.1152C7.06797 24.0516 7.07827 23.7023 6.95838 23.6333C6.8379 23.5648 6.63627 23.6732 6.48551 23.6732H6.48491C6.44616 23.6732 6.41104 23.666 6.38137 23.6466C5.21887 22.897 4.22772 21.9053 3.47815 20.7428C3.39096 20.6077 3.50661 20.3516 3.42608 20.2124C3.351 20.0816 3.07915 20.0689 3.00952 19.9339C2.39194 18.7356 2.01655 17.3915 1.94934 15.9668C1.94147 15.8124 2.31626 15.6562 2.31626 15.4994C2.31626 15.342 1.94147 15.1864 1.94934 15.0314C2.01715 13.6067 2.39254 12.2632 3.01012 11.0649C3.08641 10.9178 3.47391 10.9299 3.55747 10.7876C3.63133 10.6605 3.40004 10.3783 3.47936 10.2554C4.22833 9.09354 5.22008 8.10238 6.38198 7.35281C6.41649 7.33041 6.45766 7.3177 6.50186 7.30983C6.6387 7.28621 6.80702 7.31043 6.91782 7.24746C7.04254 7.17602 7.06434 6.95018 7.1921 6.88418C8.39032 6.2666 9.73325 5.89121 11.1573 5.82401C11.3123 5.81613 11.4685 6.41797 11.6253 6.41797C11.7822 6.41797 11.9384 5.81613 12.0934 5.82401C13.5174 5.89121 14.8604 6.2666 16.0586 6.88418C16.1875 6.95078 16.1869 7.24928 16.3129 7.32133C16.4576 7.40428 16.7282 7.2626 16.8687 7.35342C18.0312 8.10238 19.0224 9.09354 19.7713 10.2554C19.8531 10.3814 19.6884 10.6423 19.764 10.7725C19.8452 10.9124 20.1661 10.9214 20.2406 11.0655C20.8587 12.2638 21.2335 13.6073 21.3013 15.0314C21.3092 15.1864 21.0204 15.3426 21.0204 15.5Z" fill="#EAF6FF"/>
<path d="M13.1387 1.93623H10.1113C9.87725 1.93623 9.6875 1.74647 9.6875 1.5124V0.423828C9.6875 0.189754 9.87725 0 10.1113 0H13.1387C13.3727 0 13.5625 0.189754 13.5625 0.423828V1.5124C13.5625 1.74647 13.3727 1.93623 13.1387 1.93623Z" fill="#365E7D"/>
<path d="M11.3223 1.93629H10.1113C9.87762 1.93629 9.6875 1.74617 9.6875 1.51246V0.423828C9.6875 0.189512 9.87762 0 10.1113 0H11.3223C11.0886 0 10.8984 0.189512 10.8984 0.423828V1.51246C10.8984 1.74617 11.0886 1.93629 11.3223 1.93629Z" fill="#2B4D66"/>
<path d="M4.17553 20.3408C4.7477 21.5844 5.53299 22.7112 6.48479 23.6733C6.44603 23.6733 6.41092 23.666 6.38125 23.6466C5.21875 22.8971 4.2276 21.9053 3.47803 20.7428C3.39084 20.6078 3.50648 20.3517 3.42596 20.2124C3.35088 20.0816 3.07902 20.0689 3.00939 19.9339C2.39182 18.7357 2.01643 17.3915 1.94922 15.9669V15.962C1.94922 15.8094 2.31613 15.6544 2.31613 15.4994C2.31613 15.3438 1.94922 15.1894 1.94922 15.0363V15.0314C2.01703 13.6068 2.39242 12.2632 3.01 11.065C3.08629 10.9179 3.47379 10.93 3.55734 10.7877C3.63121 10.6605 3.39992 10.3784 3.47924 10.2555C4.2282 9.09359 5.21996 8.10243 6.38186 7.35286C6.41637 7.33046 6.45754 7.31775 6.50174 7.30988C5.54268 8.27499 4.75072 9.40722 4.17613 10.6581C4.04475 10.9433 3.92486 11.2345 3.81709 11.5312C3.41021 12.6471 3.16984 13.8423 3.12625 15.0865C3.12141 15.224 3.11898 15.3614 3.11898 15.5001C3.11898 15.6381 3.12141 15.7749 3.12625 15.9118C3.16984 17.156 3.40961 18.3518 3.81588 19.4677C3.92486 19.765 4.04475 20.0556 4.17553 20.3402V20.3408Z" fill="#D8ECFE"/>
<path d="M12.0933 5.824V6.78004C12.0933 7.03797 11.8838 7.24746 11.6253 7.24746C11.3667 7.24746 11.1572 7.03797 11.1572 6.78004V5.824C11.3122 5.81613 11.4684 5.8125 11.6253 5.8125C11.7821 5.8125 11.9383 5.81613 12.0933 5.824Z" fill="#365E7D"/>
<path d="M12.0933 24.2188V25.176C11.9383 25.1839 11.7821 25.1875 11.6253 25.1875C11.4684 25.1875 11.3122 25.1839 11.1572 25.176V24.2188C11.1572 23.9602 11.3667 23.7507 11.6253 23.7507C11.8838 23.7507 12.0933 23.9602 12.0933 24.2188Z" fill="#365E7D"/>
<path d="M7.49953 8.35307C7.42566 8.39545 7.34514 8.41604 7.26582 8.41604C7.10416 8.41604 6.94734 8.33188 6.86076 8.18172L6.38184 7.35283C6.6434 7.18391 6.91404 7.0277 7.19195 6.8842L7.67088 7.7143C7.79984 7.93772 7.72355 8.2241 7.49953 8.35307Z" fill="#365E7D"/>
<path d="M4.47924 11.3732C4.39266 11.5233 4.23523 11.6075 4.07357 11.6075C3.99426 11.6075 3.91373 11.5869 3.83986 11.5445L3.00977 11.065C3.15326 10.7871 3.31008 10.517 3.479 10.2555L4.30789 10.7344C4.53131 10.8634 4.6082 11.1497 4.47924 11.3732Z" fill="#365E7D"/>
<path d="M3.37367 15.4994C3.37367 15.7573 3.16418 15.9668 2.90564 15.9668H1.949C1.94113 15.8124 1.9375 15.6568 1.9375 15.5C1.9375 15.3426 1.94113 15.1864 1.949 15.0314H2.90564C3.16418 15.0314 3.37367 15.2409 3.37367 15.4994Z" fill="#365E7D"/>
<path d="M21.3125 15.5C21.3125 15.6568 21.3089 15.8124 21.301 15.9668H20.3444C20.0864 15.9668 19.877 15.7573 19.877 15.4994C19.877 15.2409 20.0864 15.0314 20.3444 15.0314H21.301C21.3089 15.1864 21.3125 15.3426 21.3125 15.5Z" fill="#365E7D"/>
<path d="M4.30801 20.2639L3.47791 20.7428C3.30898 20.4812 3.15277 20.2118 3.00928 19.9339L3.83998 19.4538C4.064 19.3248 4.34978 19.4011 4.47935 19.6251C4.60832 19.8485 4.53142 20.1349 4.30801 20.2639Z" fill="#365E7D"/>
<path d="M4.1759 10.6581C4.04451 10.9433 3.92463 11.2345 3.81686 11.5312L3.00977 11.065C3.15326 10.7871 3.31008 10.517 3.479 10.2555L4.1759 10.6581Z" fill="#2B4D66"/>
<path d="M3.11877 15.5C3.11877 15.6381 3.12119 15.7749 3.12604 15.9117C3.06004 15.9468 2.98496 15.9668 2.90564 15.9668H1.949V15.962C1.94113 15.8094 1.9375 15.655 1.9375 15.5C1.9375 15.3444 1.94113 15.1894 1.949 15.0362V15.0314H2.90564C2.98496 15.0314 3.06004 15.0514 3.12604 15.0865C3.12119 15.2239 3.11877 15.3614 3.11877 15.5Z" fill="#2B4D66"/>
<path d="M4.17541 20.3401V20.3407L3.47791 20.7428C3.30898 20.4812 3.15277 20.2118 3.00928 19.9338L3.81576 19.4676C3.92475 19.7649 4.04463 20.0555 4.17541 20.3401Z" fill="#2B4D66"/>
<path d="M20.2403 11.0656L19.4102 11.5445C19.337 11.5869 19.2564 11.6075 19.1771 11.6075C19.0155 11.6075 18.858 11.5233 18.7715 11.3732C18.6419 11.1497 18.7188 10.8634 18.9428 10.7344L19.7711 10.2555C19.9406 10.517 20.0968 10.7877 20.2403 11.0656Z" fill="#365E7D"/>
<path d="M7.67051 23.2845L7.19037 24.1152C6.91246 23.9718 6.64242 23.8155 6.38086 23.6466L6.86039 22.8165C6.98936 22.5925 7.27514 22.5162 7.49916 22.6452C7.72318 22.7741 7.79947 23.0605 7.67051 23.2845Z" fill="#365E7D"/>
<path d="M16.868 7.35344L16.3897 8.18172C16.3031 8.33188 16.1457 8.41604 15.984 8.41604C15.9047 8.41604 15.8242 8.39545 15.7503 8.35307C15.5269 8.2235 15.45 7.93772 15.5796 7.71369L16.0579 6.8842C16.3358 7.0277 16.6065 7.18391 16.868 7.35344Z" fill="#365E7D"/>
<path d="M11.625 14.9991C11.3667 14.9991 11.1572 14.7896 11.1572 14.5313V9.69128C11.1572 9.43293 11.3667 9.2235 11.625 9.2235C11.8834 9.2235 12.0928 9.43293 12.0928 9.69128V14.5313C12.0929 14.7896 11.8834 14.9991 11.625 14.9991Z" fill="#2B4D66"/>
<path d="M31 23.962V22.5379C31 22.3446 30.8692 22.1758 30.6821 22.1275L29.4854 21.8187C29.3402 21.7812 29.2262 21.6696 29.1845 21.5256C29.0571 21.0859 28.8824 20.6664 28.6658 20.273C28.5934 20.1416 28.595 19.982 28.6712 19.8528L29.2989 18.7883C29.3971 18.6218 29.3702 18.41 29.2335 18.2733L28.2265 17.2663C28.0899 17.1297 27.878 17.1028 27.7115 17.2009L26.647 17.8287C26.5178 17.9049 26.3583 17.9064 26.2268 17.8341C25.8335 17.6175 25.4139 17.4428 24.9743 17.3154C24.8303 17.2736 24.7187 17.1597 24.6812 17.0145L24.3724 15.8178C24.3241 15.6306 24.1553 15.4999 23.962 15.4999H22.538C22.3447 15.4999 22.1759 15.6306 22.1276 15.8178L21.8188 17.0145C21.7813 17.1597 21.6697 17.2736 21.5257 17.3154C21.0861 17.4428 20.6665 17.6175 20.2732 17.8341C20.1417 17.9064 19.9822 17.9049 19.853 17.8287L18.7885 17.2009C18.622 17.1027 18.4102 17.1297 18.2735 17.2663L17.2665 18.2733C17.1298 18.41 17.1029 18.6218 17.2011 18.7883L17.8288 19.8528C17.905 19.9821 17.9066 20.1416 17.8342 20.273C17.6176 20.6664 17.4429 21.0859 17.3155 21.5256C17.2738 21.6696 17.1598 21.7812 17.0146 21.8187L15.8179 22.1275C15.6308 22.1758 15.5 22.3446 15.5 22.5379V23.962C15.5 24.1553 15.6308 24.3241 15.8179 24.3724L17.0146 24.6812C17.1598 24.7187 17.2738 24.8303 17.3155 24.9743C17.4429 25.414 17.6176 25.8335 17.8342 26.2269C17.9066 26.3583 17.905 26.5179 17.8288 26.6471L17.2011 27.7116C17.1029 27.8781 17.1298 28.0899 17.2665 28.2266L18.2735 29.2336C18.4101 29.3702 18.622 29.3971 18.7885 29.299L19.853 28.6712C19.9822 28.595 20.1417 28.5935 20.2732 28.6658C20.6665 28.8824 21.0861 29.0571 21.5257 29.1845C21.6697 29.2263 21.7813 29.3402 21.8188 29.4854L22.1276 30.6821C22.1759 30.8693 22.3447 31 22.538 31H23.9621C24.1554 31 24.3242 30.8693 24.3725 30.6821L24.6813 29.4854C24.7187 29.3402 24.8303 29.2263 24.9743 29.1845C25.414 29.0571 25.8335 28.8824 26.2269 28.6658C26.3584 28.5935 26.5179 28.595 26.6471 28.6712L27.7116 29.299C27.8781 29.3972 28.0899 29.3702 28.2266 29.2336L29.2336 28.2266C29.3703 28.0899 29.3971 27.8781 29.299 27.7116L28.6712 26.6471C28.595 26.5178 28.5935 26.3583 28.6659 26.2269C28.8824 25.8335 29.0571 25.414 29.1846 24.9743C29.2263 24.8303 29.3402 24.7187 29.4854 24.6812L30.6821 24.3724C30.8692 24.3241 31 24.1553 31 23.962Z" fill="#9BD8F9"/>
<path d="M19.2905 17.4972L18.514 18.2737C18.3774 18.4103 18.3505 18.6221 18.4486 18.7886L19.0761 19.8529C19.1523 19.9821 19.1539 20.1416 19.0816 20.273C18.8652 20.6662 18.6904 21.0858 18.563 21.5258C18.5213 21.6698 18.4073 21.7815 18.2621 21.8189L17.0655 22.1275C16.8783 22.1758 16.7475 22.3447 16.7475 22.5379V23.962C16.7475 24.1553 16.8783 24.3241 17.0655 24.3724L18.2621 24.681C18.4073 24.7185 18.5213 24.83 18.5631 24.9741C18.6905 25.4138 18.8653 25.8335 19.0817 26.2269C19.1539 26.3583 19.1524 26.5178 19.0762 26.647L18.4487 27.7113C18.3505 27.8778 18.3774 28.0896 18.5141 28.2263L19.2905 29.0027L18.7887 29.2988C18.6222 29.397 18.4103 29.3701 18.2737 29.2334L17.2666 28.2263C17.1299 28.0896 17.103 27.8778 17.2012 27.7113L17.8287 26.647C17.9049 26.5178 17.9064 26.3584 17.8341 26.2269C17.6177 25.8335 17.4429 25.4138 17.3156 24.9741C17.2738 24.83 17.1598 24.7184 17.0146 24.681L15.818 24.3724C15.6308 24.3241 15.5 24.1552 15.5 23.962V22.5379C15.5 22.3446 15.6308 22.1758 15.818 22.1275L17.0146 21.8189C17.1598 21.7814 17.2738 21.6698 17.3155 21.5258C17.4429 21.0858 17.6177 20.6663 17.8341 20.273C17.9064 20.1416 17.9049 19.9821 17.8286 19.8529L17.2011 18.7886C17.103 18.6221 17.1299 18.4103 17.2665 18.2737L18.2736 17.2666C18.4102 17.1299 18.6221 17.103 18.7886 17.2012L19.2905 17.4972Z" fill="#73C3F9"/>
<path d="M23.0666 29.4854L23.4572 31H22.5381C22.3448 31 22.176 30.8692 22.1277 30.682L21.8191 29.4853C21.7817 29.3402 21.6701 29.2262 21.5262 29.1844C21.2514 29.1048 20.9847 29.0069 20.7271 28.8918L21.1004 28.6714C21.2297 28.5952 21.3892 28.5936 21.5206 28.6659C21.9139 28.8823 22.3334 29.0571 22.7734 29.1844C22.9175 29.2262 23.0291 29.3402 23.0666 29.4854Z" fill="#73C3F9"/>
<path d="M22.5381 15.4999H23.4572L23.0665 17.0145C23.029 17.1598 22.9174 17.2738 22.7734 17.3154C22.3334 17.4428 21.9139 17.6176 21.5206 17.834C21.3892 17.9063 21.2297 17.9047 21.1004 17.8285L20.7271 17.6081C20.9847 17.493 21.2514 17.395 21.5261 17.3154C21.6701 17.2737 21.7816 17.1597 21.8191 17.0146L22.1277 15.8179C22.1759 15.6307 22.3447 15.4999 22.5381 15.4999Z" fill="#73C3F9"/>
<path d="M23.25 27.582C25.6425 27.582 27.582 25.6425 27.582 23.25C27.582 20.8575 25.6425 18.918 23.25 18.918C20.8575 18.918 18.918 20.8575 18.918 23.25C18.918 25.6425 20.8575 27.582 23.25 27.582Z" fill="#EAF6FF"/>
<path d="M11.6249 16.4686C12.1599 16.4686 12.5936 16.0349 12.5936 15.4999C12.5936 14.9649 12.1599 14.5312 11.6249 14.5312C11.0899 14.5312 10.6562 14.9649 10.6562 15.4999C10.6562 16.0349 11.0899 16.4686 11.6249 16.4686Z" fill="#F25A74"/>
</g>
<defs>
<clipPath id="clip0">
<rect width="31" height="31" fill="white"/>
</clipPath>
</defs>
</svg>
