<svg width="46" height="46" viewBox="0 0 46 46" fill="none" xmlns="http://www.w3.org/2000/svg">
<g clip-path="url(#clip0)">
<path d="M28.9643 30.68C23.5666 29.5926 18.8168 26.4175 15.7484 21.8456C12.68 17.2737 11.5413 11.675 12.5802 6.26775C12.6649 5.82667 12.5709 5.37002 12.3189 4.99823C12.067 4.62644 11.6776 4.36998 11.2365 4.28527C10.7955 4.20055 10.3388 4.29452 9.96702 4.5465C9.59524 4.79848 9.33877 5.18783 9.25406 5.6289C8.03975 11.9199 9.36459 18.4358 12.9391 23.7531C16.5137 29.0704 22.0474 32.7569 28.3314 34.0073L30.8649 32.7718L28.9643 30.68ZM29.1458 24.1645L36.7378 32.5203C36.9146 32.7148 37.0436 32.9479 37.1147 33.201C37.1858 33.4541 37.197 33.7203 37.1475 33.9785C37.0979 34.2367 36.9889 34.4797 36.829 34.6885C36.6692 34.8972 36.463 35.0659 36.2267 35.1811L26.0794 40.1298C25.6757 40.3266 25.2103 40.3551 24.7857 40.2088C24.361 40.0626 24.0119 39.7537 23.815 39.35C23.6181 38.9463 23.5897 38.4809 23.7359 38.0563C23.8822 37.6316 24.1911 37.2824 24.5948 37.0856L32.7126 33.1267L26.6391 26.442C26.4896 26.2774 26.3739 26.085 26.2987 25.8757C26.2235 25.6664 26.1903 25.4444 26.201 25.2222C26.2116 25.0001 26.2659 24.7822 26.3607 24.5811C26.4556 24.3799 26.5891 24.1994 26.7537 24.0499C27.0861 23.7478 27.5249 23.5902 27.9735 23.6117C28.1956 23.6224 28.4135 23.6767 28.6146 23.7715C28.8158 23.8663 28.9963 23.9999 29.1458 24.1645Z" fill="white"/>
</g>
<defs>
<clipPath id="clip0">
<rect width="36.127" height="36.127" fill="white" transform="matrix(0.956149 0.292881 0.292881 -0.956149 0 35.1107)"/>
</clipPath>
</defs>
</svg>
