<svg width="31" height="31" viewBox="0 0 31 31" fill="none" xmlns="http://www.w3.org/2000/svg">
<g clip-path="url(#clip0)">
<path d="M11.6955 10.2918L10.292 14.3305L11.6955 18.3691H13.5665V10.2918H11.6955Z" fill="#FF451B"/>
<path d="M8.88818 10.2918H11.6951V18.3691H8.88818V10.2918Z" fill="#FF6523"/>
<path d="M8.88837 8.42059H7.01709V17.4338H9.82401V9.35623C9.82401 8.84158 9.40302 8.42059 8.88837 8.42059Z" fill="#FF451B"/>
<path d="M7.01691 8.42059H2.33896L1.40332 9.35623V16.4982H6.08128L7.95255 17.4338V9.35623C7.95255 8.84158 7.53156 8.42059 7.01691 8.42059Z" fill="#FF6523"/>
<path d="M8.88846 16.498H6.08154V17.4336C6.08154 17.948 6.50253 18.369 7.01718 18.369H8.88846C9.40311 18.369 9.8241 17.948 9.8241 17.4336C9.8241 16.919 9.40311 16.498 8.88846 16.498Z" fill="#FF1B10"/>
<path d="M0.467773 8.42059H2.33905V26.3221H0.467773V8.42059Z" fill="#BDDBE0"/>
<path d="M23.8427 24.4507H13.5665C12.9218 24.4507 12.3972 23.9261 12.3972 23.2811C12.3972 22.6362 12.9218 22.1116 13.5665 22.1116H21.3757V20.2403H13.5665C11.8899 20.2403 10.5259 21.6045 10.5259 23.2811C10.5259 24.9577 11.8899 26.3219 13.5665 26.3219H23.8427C24.4877 26.3219 25.0123 26.8465 25.0123 27.4913C25.0123 28.1362 24.4877 28.6608 23.8427 28.6608H4.5415V30.5321H23.8427C25.5196 30.5321 26.8835 29.1681 26.8835 27.4913C26.8835 25.8146 25.5196 24.4507 23.8427 24.4507Z" fill="#FFD87C"/>
<path d="M21.3752 22.1116H24.5128V20.2403H21.3752C21.2865 20.5369 21.2383 20.851 21.2383 21.1759C21.2383 21.5011 21.2865 21.815 21.3752 22.1116Z" fill="#FFC43B"/>
<path d="M4.54111 28.6609H1.40332V30.5322H4.54111C4.62957 30.2356 4.67782 29.9217 4.67782 29.5965C4.67782 29.2716 4.62957 28.9577 4.54111 28.6609Z" fill="#FFC43B"/>
<path d="M2.80692 29.5966C2.80692 30.3717 2.1785 31.0001 1.40346 31.0001C0.62841 31.0001 0 30.3717 0 29.5966C0 28.8216 0.62841 28.1932 1.40346 28.1932C2.1785 28.1932 2.80692 28.8216 2.80692 29.5966Z" fill="#199AFF"/>
<path d="M25.9165 21.176C25.9165 21.9511 25.2884 22.5795 24.5131 22.5795C23.738 22.5795 23.1099 21.9511 23.1099 21.176C23.1099 20.401 23.738 19.7726 24.5131 19.7726C25.2884 19.7726 25.9165 20.401 25.9165 21.176Z" fill="#199AFF"/>
<path d="M24.5132 0V17.9013L29.6554 10.4415C30.4986 9.34669 31.0002 7.9754 31.0002 6.48703C31.0002 2.90436 28.0959 0 24.5132 0V0Z" fill="#FF1B10"/>
<path d="M29.1289 6.48703C29.1289 2.90436 27.0625 0 24.5132 0C20.9307 0 18.0264 2.90436 18.0264 6.48703C18.0264 7.9754 18.528 9.34669 19.3712 10.4415L24.5132 17.9013L28.172 10.4415C28.772 9.34669 29.1289 7.9754 29.1289 6.48703Z" fill="#FF451B"/>
<path d="M24.5132 1.87122V11.1025C27.0625 11.1025 29.1289 9.03609 29.1289 6.48697C29.1289 3.93761 27.0625 1.87122 24.5132 1.87122Z" fill="#D6FAFF"/>
<path d="M27.2574 6.48697C27.2574 3.93761 26.0288 1.87122 24.513 1.87122C21.9639 1.87122 19.8975 3.93761 19.8975 6.48697C19.8975 9.03609 21.9639 11.1025 24.513 11.1025C26.0288 11.1025 27.2574 9.03609 27.2574 6.48697Z" fill="white"/>
</g>
<defs>
<clipPath id="clip0">
<rect width="31" height="31" fill="white"/>
</clipPath>
</defs>
</svg>
