<svg width="30" height="30" viewBox="0 0 30 30" fill="none" xmlns="http://www.w3.org/2000/svg">
<g clip-path="url(#clip0)">
<path d="M13.7306 11.5038C13.6144 11.5038 13.5017 11.5395 13.4037 11.602C13.0412 11.8328 12.6111 11.9661 12.1497 11.9661C11.0098 11.9661 10.0607 11.1513 9.85176 10.0724C9.84613 10.0423 9.82234 10.0196 9.79258 10.0144C8.46186 9.7964 7.44678 8.6414 7.44678 7.24927C7.44678 6.17121 8.05539 5.2357 8.94789 4.76695C8.97994 4.74996 8.99465 4.71304 8.98293 4.67906C8.91807 4.48828 8.87658 4.28654 8.86305 4.07724C8.77328 2.70052 9.91205 1.53087 11.2906 1.58402C11.7413 1.60142 12.1589 1.74626 12.5093 1.98351C12.5797 2.0312 12.6744 1.98867 12.6911 1.90529C12.9139 0.793881 13.9079 -0.0193421 15.0415 0.00028681C16.1447 0.0195642 17.0927 0.822943 17.3096 1.90499C17.3263 1.98849 17.421 2.03109 17.4915 1.98333C17.8416 1.7462 18.2593 1.60136 18.7096 1.58402C20.0882 1.53087 21.2274 2.70052 21.1376 4.07724C21.124 4.28654 21.0825 4.48828 21.0177 4.67906C21.006 4.71298 21.0207 4.74996 21.0528 4.76695C21.9453 5.23564 22.554 6.17121 22.554 7.24927C22.554 8.64146 21.5389 9.7964 20.2081 10.0144C20.1783 10.0196 20.1546 10.0423 20.149 10.0724C19.9401 11.1513 18.991 11.9661 17.851 11.9661C17.5954 11.9661 17.3491 11.9251 17.1187 11.8492C16.901 11.7776 16.7236 11.6835 16.5878 11.5962C16.493 11.5352 16.3824 11.5038 16.2697 11.5038H13.7306Z" fill="#B3E59F"/>
<path d="M21.0529 4.76695C21.0209 4.74996 21.0062 4.71304 21.0179 4.67906C21.0828 4.48828 21.1242 4.28654 21.1378 4.07724C21.2275 2.70052 20.0884 1.53087 18.7098 1.58402C18.4258 1.59498 18.1549 1.65685 17.9056 1.76033C18.8 2.1331 19.4209 3.04716 19.3538 4.07724C19.3402 4.28654 19.2987 4.48828 19.2339 4.67906C19.2222 4.71298 19.2369 4.74996 19.2689 4.76695C20.1615 5.23564 20.7701 6.17121 20.7701 7.24927C20.7701 8.64146 19.755 9.7964 18.4243 10.0144C18.3945 10.0196 18.3707 10.0423 18.3651 10.0724C18.2141 10.8524 17.6761 11.4941 16.959 11.7899C17.0097 11.8109 17.0629 11.8308 17.1189 11.8492C17.3493 11.9251 17.5955 11.9661 17.8512 11.9661C18.9911 11.9661 19.9402 11.1513 20.1491 10.0724C20.1548 10.0423 20.1785 10.0196 20.2083 10.0144C21.539 9.7964 22.5541 8.64146 22.5541 7.24927C22.5541 6.17121 21.9455 5.2357 21.0529 4.76695Z" fill="#95D6A4"/>
<path d="M13.8042 6.05673C13.9113 5.93327 14.1074 5.94751 14.1945 6.08585C14.2837 6.2277 14.3718 6.38251 14.4555 6.55056C14.7049 7.05147 14.8457 7.5313 14.9253 7.94474C14.942 8.03157 15.0655 8.03222 15.0843 7.94579C15.1692 7.55591 15.3189 7.09829 15.5851 6.62702C15.6816 6.45628 15.7829 6.30224 15.8842 6.16401C15.976 6.03897 16.1603 6.03183 16.2629 6.14813L16.9112 6.8829C16.9731 6.95304 16.9895 7.05224 16.9532 7.13843C16.5948 7.9888 15.665 10.5859 16.7569 13.4148C17.2861 14.786 18.1028 15.7262 18.6817 16.2806L15.0003 25.2004L11.3188 16.2806C11.8976 15.7262 12.7144 14.786 13.2437 13.4148C14.3361 10.5843 13.4048 7.9861 13.0468 7.13708C13.0107 7.05159 13.0266 6.95321 13.0874 6.88313L13.8042 6.05673Z" fill="#CE9775"/>
<path d="M16.757 13.4149C15.6651 10.5859 16.5949 7.9889 16.9533 7.13853C16.9896 7.05233 16.9732 6.95313 16.9113 6.883L16.263 6.14823C16.1604 6.03192 15.9761 6.03907 15.8843 6.16411C15.783 6.30233 15.6816 6.45638 15.5852 6.62712C15.564 6.66462 15.5448 6.70188 15.525 6.73921L15.6519 6.883C15.7138 6.95313 15.7302 7.05233 15.6939 7.13853C15.3355 7.9889 14.4056 10.5859 15.4975 13.4149C16.0268 14.7861 16.8435 15.7263 17.4223 16.2807L14.3706 23.6747L15.0003 25.2004L18.6817 16.2807C18.1029 15.7263 17.2862 14.7861 16.757 13.4149Z" fill="#C6855B"/>
<path d="M26.0134 10.9534V4.55733C26.0134 4.0376 26.224 3.56785 26.5647 3.22707C26.9148 2.87692 27.4019 2.66434 27.9386 2.67629C28.967 2.69932 29.777 3.56621 29.777 4.59488V12.9354C29.777 14.3866 29.2793 15.794 28.367 16.9226L23.0239 23.5325C22.5235 24.1515 22.2505 24.9235 22.2505 25.7195V29.4052C22.2505 29.7337 21.9842 29.9999 21.6558 29.9999H16.7324L20.1607 18.0035L26.0134 10.9534Z" fill="#F1D0A4"/>
<path d="M15.5947 30C15.2662 30 15 29.7337 15 29.4053V20.466C15 18.9074 15.4603 17.384 16.3231 16.0864C16.7542 15.4382 17.2662 14.8519 17.8448 14.3417C18.4234 13.8309 19.0686 13.395 19.7649 13.0484L24.3347 10.7721C24.7903 10.5455 25.3278 10.5544 25.7756 10.7964C26.3138 11.0872 26.5962 11.6283 26.5962 12.1742C26.5962 12.6083 26.4178 13.0454 26.0479 13.3611L21.8787 16.9242C21.6171 17.1478 21.4639 17.4727 21.4577 17.8167L21.2411 30H15.5947Z" fill="#F1D0A4"/>
<path d="M21.879 16.9242L26.0482 13.3611C26.418 13.0454 26.5965 12.6083 26.5965 12.1742C26.5965 11.6283 26.314 11.0872 25.7759 10.7964C25.3281 10.5544 24.7905 10.5455 24.335 10.772L24.1239 10.8772C24.5757 11.1807 24.8125 11.6752 24.8125 12.1743C24.8125 12.6084 24.6341 13.0454 24.2642 13.3612L21.5048 15.7194C21.2352 15.9498 21.2339 16.3661 21.5021 16.5981L21.879 16.9242Z" fill="#EDBB87"/>
<path d="M27.9667 2.67715C27.6154 2.6642 27.2848 2.74787 26.9987 2.90332C27.5932 3.22975 27.9933 3.87223 27.9933 4.59492V12.9354C27.9933 14.3866 27.4956 15.794 26.5833 16.9226L21.2402 23.5325C20.7398 24.1516 20.4668 24.9236 20.4668 25.7196V29.9999H21.6561C21.9845 29.9999 22.2507 29.7337 22.2507 29.4053V25.7196C22.2507 24.9236 22.5237 24.1516 23.0241 23.5325L28.3672 16.9226C29.2795 15.794 29.7772 14.3866 29.7772 12.9354V4.59534C29.7772 3.57733 28.9842 2.71459 27.9667 2.67715Z" fill="#EDBB87"/>
<path d="M3.98668 10.9542V4.55821C3.98668 4.03848 3.77615 3.56874 3.43543 3.22796C3.08516 2.87768 2.59818 2.6654 2.06117 2.67729C1.03303 2.69997 0.223145 3.56698 0.223145 4.59571V12.9362C0.223145 14.3878 0.720898 15.7947 1.63303 16.9234L6.97596 23.5334C7.47664 24.1525 7.74957 24.9243 7.74957 25.7206V29.4062C7.74957 29.7346 8.01582 30.0008 8.34424 30.0008H13.9957L11.0612 19.3246L3.98668 10.9542Z" fill="#F1D0A4"/>
<path d="M9.97641 18.0405L3.98649 10.9534V4.55736C3.98649 4.03763 3.77596 3.56788 3.43524 3.2271C3.08496 2.87683 2.59799 2.66454 2.06098 2.67644C1.75518 2.68318 1.46895 2.76509 1.21729 2.90326C1.3773 2.99015 1.52344 3.09931 1.65129 3.2271C1.99201 3.56783 2.20254 4.03763 2.20254 4.55736V10.695C2.20254 10.8669 2.18654 11.0384 2.15484 11.2073C1.93623 12.371 2.36432 13.5618 3.27381 14.3198L7.88918 18.1669C8.29043 18.5013 8.8493 18.5726 9.32168 18.3496L9.97641 18.0405Z" fill="#EDBB87"/>
<path d="M8.5385 17.8541C8.5348 17.4866 8.37232 17.1387 8.09295 16.9L3.95207 13.3611C3.58223 13.0454 3.40381 12.6083 3.40381 12.1742C3.40381 11.7151 3.60361 11.2596 3.98658 10.9534C4.05912 10.8957 4.13881 10.8428 4.22447 10.7964C4.67225 10.5544 5.20978 10.5455 5.66529 10.7721L10.2352 13.0484C10.9315 13.3951 11.5767 13.8309 12.1553 14.3417C12.7339 14.8519 13.2459 15.4382 13.677 16.0864C14.5398 17.3839 15 18.9074 15 20.466V29.4054C15 29.7338 14.7338 30 14.4054 30H8.66078L8.5385 17.8541Z" fill="#F1D0A4"/>
<path d="M13.6773 16.0864C13.2462 15.4382 12.7342 14.8519 12.1556 14.3417C11.577 13.8309 10.9318 13.395 10.2355 13.0484L5.66559 10.7721C5.21008 10.5455 4.67254 10.5544 4.22477 10.7964C4.17871 10.8214 4.13471 10.8485 4.09229 10.8769L8.45154 13.0484C9.14787 13.3951 9.79305 13.8309 10.3717 14.3417C10.9503 14.8519 11.4623 15.4382 11.8933 16.0864C12.7562 17.3839 13.2164 18.9074 13.2164 20.466V30H14.4057C14.7341 30 15.0004 29.7337 15.0004 29.4053V20.4659C15.0004 18.9074 14.5401 17.3839 13.6773 16.0864Z" fill="#EDBB87"/>
</g>
<defs>
<clipPath id="clip0">
<rect width="30" height="30" fill="white"/>
</clipPath>
</defs>
</svg>
