<svg width="38" height="38" viewBox="0 0 38 38" fill="none" xmlns="http://www.w3.org/2000/svg">
<path d="M22.3018 11.0135L25.6169 7.22003C25.9917 6.7951 26.531 6.5517 27.0976 6.55176H36.0342C36.5803 6.55211 37.1016 6.77965 37.4732 7.17984C37.8448 7.58002 38.0332 8.11677 37.9932 8.66141C37.8808 9.71407 36.9812 10.5055 35.9228 10.4828H34.7238C35.2451 10.4827 35.7448 10.6902 36.1128 11.0593C36.3213 11.2645 36.4784 11.5159 36.5714 11.7931C36.6654 12.0485 36.7033 12.3211 36.6828 12.5924C36.5704 13.6451 35.6709 14.4365 34.6125 14.4138H32.7583C33.2795 14.4138 33.7793 14.6212 34.1473 14.9904C34.3557 15.1955 34.5129 15.4469 34.6059 15.7242C34.6998 15.9796 34.7378 16.2521 34.7173 16.5235C34.6049 17.5761 33.7053 18.3675 32.6469 18.3449H29.1549L22.3018 11.0135Z" fill="#F29C1F"/>
<path d="M8.84553 18.3449H5.35346C4.29506 18.3675 3.39551 17.5761 3.28311 16.5235C3.26257 16.2521 3.30056 15.9796 3.39449 15.7242C3.48753 15.4469 3.64466 15.1955 3.85311 14.9904C4.22108 14.6212 4.72087 14.4138 5.24208 14.4138H3.38794C2.32954 14.4365 1.42999 13.6451 1.3176 12.5924C1.29706 12.3211 1.33504 12.0485 1.42897 11.7931C1.52201 11.5159 1.67914 11.2645 1.8876 11.0593C2.25556 10.6902 2.75535 10.4827 3.27656 10.4828H2.0776C1.0192 10.5055 0.119644 9.71407 0.00725054 8.66141C-0.0327977 8.11677 0.155556 7.58002 0.527157 7.17984C0.898759 6.77965 1.42011 6.55211 1.96622 6.55176H10.9028C11.4694 6.5517 12.0087 6.7951 12.3835 7.22003L15.6986 11.0135L8.84553 18.3449Z" fill="#F29C1F"/>
<path d="M29.4836 20.9656C29.4709 26.4819 25.1739 31.0388 19.6678 31.3752C14.1618 31.7116 9.34202 27.7117 8.65781 22.238C7.9736 16.7643 11.6605 11.701 17.0799 10.6717C22.4993 9.64243 27.7858 13.0015 29.156 18.3449C29.3753 19.2011 29.4853 20.0817 29.4836 20.9656Z" fill="#F3D55B"/>
<path d="M26.8622 20.9655C26.8607 24.4949 24.5066 27.5903 21.1059 28.5345C17.7052 29.4787 14.0922 28.0401 12.2713 25.0167C10.4505 21.9934 10.8685 18.1269 13.2934 15.5626C15.7183 12.9982 19.5554 12.365 22.6757 14.0142C25.2505 15.3775 26.8613 18.052 26.8622 20.9655Z" fill="#ECF0F1"/>
<path d="M23.5866 17.6897C23.5871 20.4467 22.1434 23.0025 19.7819 24.4253C17.4204 25.8481 14.4862 25.9299 12.049 24.641C10.4342 21.5907 10.9977 17.8438 13.4382 15.4033C15.8787 12.9628 19.6256 12.3993 22.6759 14.0141C23.2757 15.1463 23.5884 16.4084 23.5866 17.6897Z" fill="white"/>
<path d="M36.5735 11.7931H28.1742C27.8124 11.7931 27.519 11.4998 27.519 11.138C27.519 10.7761 27.8124 10.4828 28.1742 10.4828H34.7259C35.2472 10.4827 35.7469 10.6902 36.1149 11.0593C36.3234 11.2645 36.4805 11.5159 36.5735 11.7931Z" fill="#D25627"/>
<path d="M34.606 15.7242H30.7929C30.431 15.7242 30.1377 15.4308 30.1377 15.069C30.1377 14.7071 30.431 14.4138 30.7929 14.4138H32.7584C33.2796 14.4138 33.7794 14.6212 34.1473 14.9904C34.3558 15.1955 34.5129 15.4469 34.606 15.7242Z" fill="#D25627"/>
<path d="M10.4847 11.138C10.4847 11.4998 10.1913 11.7931 9.82949 11.7931H1.43018C1.52321 11.5159 1.68034 11.2645 1.8888 11.0593C2.25676 10.6902 2.75655 10.4827 3.27776 10.4828H9.82949C10.1913 10.4828 10.4847 10.7761 10.4847 11.138Z" fill="#D25627"/>
<path d="M7.86232 15.069C7.86232 15.4308 7.56899 15.7242 7.20715 15.7242H3.39404C3.48708 15.4469 3.64421 15.1955 3.85266 14.9904C4.22063 14.6212 4.72042 14.4138 5.24163 14.4138H7.20715C7.56899 14.4138 7.86232 14.7071 7.86232 15.069Z" fill="#D25627"/>
<path d="M19.0004 15.7241C18.6385 15.7241 18.3452 15.4308 18.3452 15.0689V13.1034C18.3452 12.7416 18.6385 12.4482 19.0004 12.4482C19.3622 12.4482 19.6556 12.7416 19.6556 13.1034V15.0689C19.6556 15.4308 19.3622 15.7241 19.0004 15.7241Z" fill="#464F5D"/>
<path d="M14.8328 17.4512C14.6589 17.4517 14.4921 17.3825 14.3695 17.2592L13.2977 16.1874C13.0494 15.9303 13.0529 15.5216 13.3057 15.2689C13.5584 15.0162 13.967 15.0126 14.2241 15.2609L15.296 16.3328C15.4833 16.5202 15.5393 16.8019 15.4379 17.0467C15.3365 17.2915 15.0977 17.4511 14.8328 17.4512Z" fill="#464F5D"/>
<path d="M13.1051 21.6206H11.1395C10.7777 21.6206 10.4844 21.3273 10.4844 20.9655C10.4844 20.6036 10.7777 20.3103 11.1395 20.3103H13.1051C13.4669 20.3103 13.7602 20.6036 13.7602 20.9655C13.7602 21.3273 13.4669 21.6206 13.1051 21.6206Z" fill="#464F5D"/>
<path d="M13.7595 26.8621C13.4946 26.862 13.2558 26.7024 13.1544 26.4576C13.053 26.2128 13.109 25.9311 13.2963 25.7437L14.3682 24.6718C14.6253 24.4235 15.0339 24.4271 15.2866 24.6798C15.5394 24.9325 15.5429 25.3412 15.2946 25.5982L14.2228 26.6701C14.0999 26.793 13.9333 26.862 13.7595 26.8621Z" fill="#464F5D"/>
<path d="M19.0004 29.4828C18.6385 29.4828 18.3452 29.1894 18.3452 28.8276V26.8621C18.3452 26.5002 18.6385 26.2069 19.0004 26.2069C19.3622 26.2069 19.6556 26.5002 19.6556 26.8621V28.8276C19.6556 29.1894 19.3622 29.4828 19.0004 29.4828Z" fill="#464F5D"/>
<path d="M24.2424 26.8621C24.0687 26.862 23.9021 26.793 23.7792 26.6701L22.7074 25.5982C22.4591 25.3412 22.4626 24.9325 22.7153 24.6798C22.9681 24.4271 23.3767 24.4235 23.6338 24.6718L24.7056 25.7437C24.8929 25.9311 24.949 26.2128 24.8476 26.4576C24.7462 26.7024 24.5074 26.862 24.2424 26.8621Z" fill="#464F5D"/>
<path d="M26.8629 21.6206H24.8974C24.5355 21.6206 24.2422 21.3273 24.2422 20.9655C24.2422 20.6036 24.5355 20.3103 24.8974 20.3103H26.8629C27.2247 20.3103 27.518 20.6036 27.518 20.9655C27.518 21.3273 27.2247 21.6206 26.8629 21.6206Z" fill="#464F5D"/>
<path d="M23.1702 17.4512C22.9052 17.4511 22.6664 17.2915 22.565 17.0467C22.4636 16.8019 22.5197 16.5202 22.707 16.3328L23.7788 15.2609C24.0359 15.0126 24.4446 15.0162 24.6973 15.2689C24.95 15.5216 24.9535 15.9303 24.7053 16.1874L23.6334 17.2592C23.5108 17.3825 23.344 17.4517 23.1702 17.4512Z" fill="#464F5D"/>
<path d="M19.0019 21.6206C18.7843 21.6208 18.5808 21.5129 18.4589 21.3328C18.3369 21.1526 18.3123 20.9237 18.3932 20.7217L19.7036 17.4459C19.7906 17.2284 19.9871 17.0739 20.219 17.0406C20.4508 17.0073 20.6828 17.1002 20.8276 17.2843C20.9724 17.4685 21.0079 17.7159 20.9209 17.9333L19.6105 21.2092C19.5109 21.4579 19.2698 21.6208 19.0019 21.6206Z" fill="#464F5D"/>
<path d="M19.0016 29.4827C14.2977 29.4827 10.4844 25.6694 10.4844 20.9655C10.4844 16.2615 14.2977 12.4482 19.0016 12.4482C23.7056 12.4482 27.5189 16.2615 27.5189 20.9655C27.5134 25.6672 23.7033 29.4773 19.0016 29.4827ZM19.0016 13.7586C15.0214 13.7586 11.7947 16.9852 11.7947 20.9655C11.7947 24.9457 15.0214 28.1724 19.0016 28.1724C22.9819 28.1724 26.2085 24.9457 26.2085 20.9655C26.2038 16.9872 22.9799 13.7633 19.0016 13.7586Z" fill="#95A5A5"/>
<path d="M19.0003 22.276C19.724 22.276 20.3106 21.6893 20.3106 20.9656C20.3106 20.2419 19.724 19.6553 19.0003 19.6553C18.2766 19.6553 17.6899 20.2419 17.6899 20.9656C17.6899 21.6893 18.2766 22.276 19.0003 22.276Z" fill="#95A5A5"/>
</svg>
