<svg width="37" height="37" viewBox="0 0 37 37" fill="none" xmlns="http://www.w3.org/2000/svg">
<g clip-path="url(#clip0)">
<path d="M31.64 3.57357V36.2557C31.64 36.6666 31.3065 37.0001 30.8956 37.0001H6.10482C5.69387 37.0001 5.36035 36.6666 5.36035 36.2557V3.57357C5.36035 3.16262 5.69387 2.8291 6.10482 2.8291H30.8956C31.3065 2.8291 31.64 3.16262 31.64 3.57357Z" fill="#FAD207"/>
<path d="M6.55127 6.50285V35.2817C6.55127 35.5729 6.78727 35.8089 7.07843 35.8089H22.1001C22.2975 35.8089 22.4869 35.7304 22.6265 35.5908L28.3641 29.8531V6.10464H8.03469L7.90918 5.19855L6.88256 5.88361C6.67552 6.0217 6.55127 6.25405 6.55127 6.50285Z" fill="#FAA515"/>
<path d="M29.4071 5.80684V28.8109L24.9403 30.4487L23.4514 34.7666H8.3387C7.92754 34.7666 7.59424 34.4333 7.59424 34.0221V5.80684C7.59424 5.39568 7.92754 5.06238 8.3387 5.06238H28.6626C29.0738 5.06238 29.4071 5.39568 29.4071 5.80684Z" fill="#F5F5F5"/>
<path d="M29.4059 28.8109L23.4502 34.7667V29.5554C23.4502 29.1442 23.7835 28.8109 24.1947 28.8109H29.4059Z" fill="#E6E6E6"/>
<path d="M25.9924 5.06238V6.50888C25.9924 7.53475 25.1571 8.37004 24.1313 8.37004H12.869C11.8431 8.37004 11.0078 7.53475 11.0078 6.50888V5.06238H25.9924Z" fill="#E6E6E6"/>
<path d="M11.0078 2.8291H25.9924V5.0625H11.0078V2.8291Z" fill="#FAA515"/>
<path d="M24.8759 2.82746V6.50862C24.8759 6.91979 24.5426 7.25309 24.1315 7.25309H12.8695C12.4583 7.25309 12.125 6.91979 12.125 6.50862V2.82746L16.2573 2.82753C16.2024 2.59146 16.1837 2.34147 16.2075 2.08374C16.3104 0.971131 17.2224 0.0826097 18.3371 0.00570627C19.6829 -0.0871287 20.8035 0.977161 20.8035 2.30313C20.8035 2.48352 20.7827 2.65913 20.7435 2.82753L24.8759 2.82746Z" fill="#50758D"/>
<path d="M12.7966 14.7477C12.6526 14.7477 12.5138 14.692 12.4097 14.5918L10.5234 12.7781C10.3011 12.5644 10.2942 12.2109 10.5079 11.9887C10.7217 11.7664 11.0752 11.7595 11.2974 11.9732L12.7631 13.3827L15.0618 10.7733C15.2656 10.542 15.6185 10.5195 15.8499 10.7234C16.0812 10.9272 16.1036 11.2801 15.8998 11.5115L13.2156 14.5585C13.1148 14.6728 12.9719 14.741 12.8197 14.7472C12.8121 14.7475 12.8043 14.7477 12.7966 14.7477Z" fill="#5ED297"/>
<path d="M25.6101 13.224H17.7188C17.4103 13.224 17.1604 12.9741 17.1604 12.6656C17.1604 12.3572 17.4103 12.1073 17.7188 12.1073H25.6101C25.9185 12.1073 26.1684 12.3572 26.1684 12.6656C26.1684 12.9741 25.9185 13.224 25.6101 13.224Z" fill="#50758D"/>
<path d="M12.7966 21.3161C12.6526 21.3161 12.5138 21.2604 12.4097 21.1602L10.5234 19.3465C10.3011 19.1328 10.2942 18.7793 10.5079 18.5571C10.7217 18.3348 11.0752 18.3279 11.2974 18.5416L12.764 19.9519L15.0666 17.3484C15.2708 17.1174 15.6237 17.0957 15.8548 17.3001C16.0858 17.5044 16.1074 17.8572 15.9031 18.0882L13.2149 21.1277C13.1141 21.2416 12.9712 21.3095 12.8192 21.3156C12.8117 21.3159 12.8041 21.3161 12.7966 21.3161Z" fill="#5ED297"/>
<path d="M25.6101 19.7656H17.7188C17.4103 19.7656 17.1604 19.5157 17.1604 19.2073C17.1604 18.8988 17.4103 18.6489 17.7188 18.6489H25.6101C25.9185 18.6489 26.1684 18.8988 26.1684 19.2073C26.1684 19.5157 25.9185 19.7656 25.6101 19.7656Z" fill="#50758D"/>
<path d="M25.6102 26.55H24.3074C23.9989 26.55 23.749 26.3001 23.749 25.9917C23.749 25.6833 23.9989 25.4333 24.3074 25.4333H25.6102C25.9186 25.4333 26.1685 25.6833 26.1685 25.9917C26.1685 26.3001 25.9186 26.55 25.6102 26.55Z" fill="#50758D"/>
<path d="M21.7016 26.55H17.7187C17.4103 26.55 17.1604 26.3001 17.1604 25.9917C17.1604 25.6833 17.4103 25.4333 17.7187 25.4333H21.7016C22.0101 25.4333 22.26 25.6833 22.26 25.9917C22.26 26.3001 22.0101 26.55 21.7016 26.55Z" fill="#50758D"/>
<path d="M14.8152 28.2623H11.3906C11.0822 28.2623 10.8323 28.0124 10.8323 27.704V24.2794C10.8323 23.971 11.0822 23.7211 11.3906 23.7211H14.8152C15.1236 23.7211 15.3735 23.971 15.3735 24.2794V27.704C15.3735 28.0123 15.1236 28.2623 14.8152 28.2623ZM11.949 27.1456H14.2568V24.8378H11.949V27.1456Z" fill="#FD646F"/>
</g>
<defs>
<clipPath id="clip0">
<rect width="37" height="37" fill="white"/>
</clipPath>
</defs>
</svg>
