<svg width="51" height="51" viewBox="0 0 51 51" fill="none" xmlns="http://www.w3.org/2000/svg">
<g clip-path="url(#clip0)">
<path d="M25.4999 33.3956C18.3786 33.3956 12.585 39.1893 12.585 46.3106C12.585 46.7227 12.6052 47.1301 12.6433 47.532C16.5028 49.793 20.9082 51 25.4999 51C30.0917 51 34.4971 49.793 38.3566 47.532C38.3947 47.1297 38.4149 46.7227 38.4149 46.3106C38.4149 39.1893 32.6212 33.3956 25.4999 33.3956Z" fill="#343B4C" fill-opacity="0.13"/>
<path d="M43.5312 7.46876C38.715 2.65249 32.3116 0 25.5 0C18.6884 0 12.285 2.65249 7.46876 7.46876C2.65249 12.285 0 18.6884 0 25.5C0 32.3112 2.65249 38.715 7.46876 43.5312C8.15435 44.2172 8.87341 44.8573 9.62009 45.4538C9.95432 39.1924 13.927 33.8816 19.4569 31.6015C16.4173 29.6198 14.4037 26.1907 14.4037 22.2993C14.4037 16.1807 19.3814 11.2029 25.5 11.2029C31.6186 11.2029 36.5963 16.1807 36.5963 22.2993C36.5963 26.1907 34.5827 29.6198 31.5431 31.6015C37.073 33.8816 41.0457 39.1924 41.3799 45.4538C42.1266 44.8573 42.8456 44.2168 43.5312 43.5312C48.3475 38.715 51 32.3112 51 25.5C51 18.6884 48.3475 12.285 43.5312 7.46876Z" fill="#343B4C" fill-opacity="0.13"/>
<path d="M33.6082 22.2993C33.6082 17.8282 29.9709 14.1913 25.5001 14.1913C21.0294 14.1913 17.3921 17.8286 17.3921 22.2993C17.3921 26.7701 21.0294 30.4074 25.5001 30.4074C29.9709 30.4074 33.6082 26.7701 33.6082 22.2993Z" fill="#343B4C" fill-opacity="0.13"/>
</g>
<defs>
<clipPath id="clip0">
<rect width="51" height="51" fill="white"/>
</clipPath>
</defs>
</svg>
