<svg width="29" height="23" viewBox="0 0 29 23" fill="none" xmlns="http://www.w3.org/2000/svg">
<path d="M28.5365 10.3035L18.0635 0.436265C17.7646 0.154603 17.3661 0 16.9413 0C16.516 0 16.1177 0.154825 15.8188 0.436265L14.8679 1.33234C14.5692 1.61356 14.4046 1.98918 14.4046 2.38969C14.4046 2.78997 14.5692 3.17825 14.8679 3.45947L20.9777 9.22843H1.56669C0.691515 9.22843 0 9.87395 0 10.6987V11.9655C0 12.7903 0.691515 13.5009 1.56669 13.5009H21.047L14.8682 19.3021C14.5694 19.5837 14.4049 19.9491 14.4049 20.3496C14.4049 20.7497 14.5694 21.1204 14.8682 21.4019L15.819 22.2951C16.118 22.5767 16.5162 22.7302 16.9415 22.7302C17.3664 22.7302 17.7648 22.5747 18.0638 22.2931L28.5367 12.426C28.8364 12.1435 29.0012 11.7663 29 11.3653C29.0009 10.9631 28.8364 10.5857 28.5365 10.3035Z" fill="#F9F3F0"/>
</svg>
